<svg width="78" height="78" viewBox="0 0 78 78" fill="none" xmlns="http://www.w3.org/2000/svg">
<g opacity="0.5">
<path d="M41.9638 72.4306C60.1428 72.4306 74.8799 57.6936 74.8799 39.5146C74.8799 21.3356 60.1428 6.59863 41.9638 6.59863C23.7848 6.59863 9.04785 21.3356 9.04785 39.5146C9.04785 57.6936 23.7848 72.4306 41.9638 72.4306Z" fill="#C5DEEA"/>
</g>
<path d="M18.4079 60.762C19.8725 60.762 21.0599 59.5747 21.0599 58.11C21.0599 56.6453 19.8725 55.458 18.4079 55.458C16.9432 55.458 15.7559 56.6453 15.7559 58.11C15.7559 59.5747 16.9432 60.762 18.4079 60.762Z" fill="white"/>
<path d="M34.32 60.762C35.7846 60.762 36.972 59.5747 36.972 58.11C36.972 56.6453 35.7846 55.458 34.32 55.458C32.8553 55.458 31.668 56.6453 31.668 58.11C31.668 59.5747 32.8553 60.762 34.32 60.762Z" fill="white"/>
<path d="M50.2321 60.762C51.6967 60.762 52.8841 59.5747 52.8841 58.11C52.8841 56.6453 51.6967 55.458 50.2321 55.458C48.7674 55.458 47.5801 56.6453 47.5801 58.11C47.5801 59.5747 48.7674 60.762 50.2321 60.762Z" fill="white"/>
<path d="M18.0802 62.6652C15.4282 62.6652 13.2598 60.5124 13.2598 57.8448C13.2598 55.1928 15.4126 53.0244 18.0802 53.0244C20.7478 53.0244 22.9006 55.1772 22.9006 57.8448C22.9006 60.5124 20.7322 62.6652 18.0802 62.6652ZM18.0802 56.16C17.1442 56.16 16.3798 56.9244 16.3798 57.8604C16.3798 58.7964 17.1442 59.5608 18.0802 59.5608C19.0162 59.5608 19.7806 58.7964 19.7806 57.8604C19.7806 56.9244 19.0162 56.16 18.0802 56.16Z" fill="#7651F8"/>
<path d="M23.6652 72.2431C22.8072 72.2431 22.1052 71.5411 22.1052 70.6831V68.1871C22.1052 67.7659 21.762 67.4227 21.3408 67.4227H14.8356C14.4144 67.4227 14.0712 67.7659 14.0712 68.1871V70.6831C14.0712 71.5411 13.3692 72.2431 12.5112 72.2431C11.6532 72.2431 10.9512 71.5411 10.9512 70.6831V68.1871C10.9512 66.0499 12.6984 64.3027 14.8356 64.3027H21.3408C23.478 64.3027 25.2252 66.0499 25.2252 68.1871V70.6831C25.2096 71.5411 24.5232 72.2431 23.6652 72.2431Z" fill="#7651F8"/>
<path d="M34.3048 62.6652C31.6528 62.6652 29.4844 60.5124 29.4844 57.8448C29.4844 55.1928 31.6372 53.0244 34.3048 53.0244C36.9568 53.0244 39.1252 55.1772 39.1252 57.8448C39.1096 60.5124 36.9568 62.6652 34.3048 62.6652ZM34.3048 56.16C33.3688 56.16 32.6044 56.9244 32.6044 57.8604C32.6044 58.7964 33.3688 59.5608 34.3048 59.5608C35.2408 59.5608 36.0052 58.7964 36.0052 57.8604C35.9896 56.9244 35.2408 56.16 34.3048 56.16Z" fill="#7651F8"/>
<path d="M39.8732 72.2431C39.0152 72.2431 38.3132 71.5411 38.3132 70.6831V68.1871C38.3132 67.7659 37.97 67.4227 37.5488 67.4227H31.0436C30.6224 67.4227 30.2792 67.7659 30.2792 68.1871V70.6831C30.2792 71.5411 29.5772 72.2431 28.7192 72.2431C27.8612 72.2431 27.1592 71.5411 27.1592 70.6831V68.1871C27.1592 66.0499 28.9064 64.3027 31.0436 64.3027H37.5488C39.686 64.3027 41.4332 66.0499 41.4332 68.1871V70.6831C41.4332 71.5411 40.7312 72.2431 39.8732 72.2431Z" fill="#7651F8"/>
<path d="M50.5128 62.6652C47.8608 62.6652 45.6924 60.5124 45.6924 57.8448C45.6924 55.1928 47.8452 53.0244 50.5128 53.0244C53.1648 53.0244 55.3332 55.1772 55.3332 57.8448C55.3332 60.5124 53.1648 62.6652 50.5128 62.6652ZM50.5128 56.16C49.5768 56.16 48.8124 56.9244 48.8124 57.8604C48.8124 58.7964 49.5768 59.5608 50.5128 59.5608C51.4488 59.5608 52.2132 58.7964 52.2132 57.8604C52.2132 56.9244 51.4488 56.16 50.5128 56.16Z" fill="#7651F8"/>
<path d="M59.2803 17.1602H9.36035V48.3602H59.2803V17.1602Z" fill="white"/>
<path d="M56.0978 72.2431C55.2398 72.2431 54.5378 71.5411 54.5378 70.6831V68.1871C54.5378 67.7659 54.1946 67.4227 53.7734 67.4227H47.2682C46.847 67.4227 46.5038 67.7659 46.5038 68.1871V70.6831C46.5038 71.5411 45.8018 72.2431 44.9438 72.2431C44.0858 72.2431 43.3838 71.5411 43.3838 70.6831V68.1871C43.3838 66.0499 45.131 64.3027 47.2682 64.3027H53.7734C55.9106 64.3027 57.6578 66.0499 57.6578 68.1871V70.6831C57.6578 71.5411 56.9558 72.2431 56.0978 72.2431Z" fill="#7651F8"/>
<path d="M24.5391 34.039C21.1695 34.039 18.4395 31.2934 18.4395 27.9394C18.4395 24.5698 21.1851 21.8398 24.5391 21.8398C27.8931 21.8398 30.6387 24.5854 30.6387 27.9394C30.6543 31.309 27.9087 34.039 24.5391 34.039ZM24.5391 25.1002C22.9635 25.1002 21.6999 26.3794 21.6999 27.9394C21.6999 29.515 22.9791 30.7786 24.5391 30.7786C26.0991 30.7786 27.3783 29.4994 27.3783 27.9394C27.3939 26.3794 26.1147 25.1002 24.5391 25.1002Z" fill="#7651F8"/>
<path d="M21.0132 51.0747C20.1708 51.0747 19.4844 50.3883 19.4844 49.5459V43.7583C19.4844 42.9159 20.1708 42.2295 21.0132 42.2295C21.8556 42.2295 22.542 42.9159 22.542 43.7583V49.5459C22.542 50.3883 21.8556 51.0747 21.0132 51.0747Z" fill="#7651F8"/>
<path d="M29.4839 51.0741C28.6415 51.0741 27.9551 50.3877 27.9551 49.5453V41.5737C27.9551 40.7313 28.6415 40.0449 29.4839 40.0449C30.3263 40.0449 31.0127 40.7313 31.0127 41.5737V49.5453C31.0127 50.3877 30.3263 51.0741 29.4839 51.0741Z" fill="#7651F8"/>
<path d="M18.0024 51.1523C17.16 51.1523 16.4736 50.4659 16.4736 49.6235V40.4351C16.4736 37.9391 18.5172 35.8955 21.0132 35.8955H29.4216C30.264 35.8955 30.9504 36.5819 30.9504 37.4243C30.9504 38.2667 30.264 38.9531 29.4216 38.9531H21.0132C20.202 38.9531 19.5468 39.6083 19.5468 40.4195V49.6079C19.5468 50.4659 18.8604 51.1523 18.0024 51.1523Z" fill="#7651F8"/>
<path d="M29.4995 43.0403C28.6571 43.0403 27.9707 42.3539 27.9707 41.5115C27.9707 40.6691 28.6571 39.9827 29.4995 39.9827H37.3151C37.5959 39.9827 37.8299 39.7487 37.8299 39.4679C37.8299 39.1871 37.5959 38.9531 37.3151 38.9531H29.4995C28.6571 38.9531 27.9707 38.2667 27.9707 37.4243C27.9707 36.5819 28.6415 35.8799 29.4995 35.8799H37.3151C39.2963 35.8799 40.8875 37.4867 40.8875 39.4523C40.8875 41.4179 39.2807 43.0247 37.3151 43.0247H29.4995V43.0403Z" fill="#7651F8"/>
<path d="M33.5088 49.8104C32.4948 49.8104 31.668 48.9836 31.668 47.9852C31.668 46.9868 32.4948 46.1444 33.5088 46.1444H57.018V19.25H11.5752V46.1444H12.792C13.806 46.1444 14.6328 46.9712 14.6328 47.9852C14.6328 48.9992 13.806 49.8104 12.792 49.8104H9.74998C8.73598 49.8104 7.90918 48.9836 7.90918 47.9852V17.4248C7.90918 16.4108 8.73598 15.584 9.74998 15.584H58.8588C59.8728 15.584 60.6996 16.4108 60.6996 17.4248V47.9852C60.6996 48.9992 59.8728 49.8104 58.8588 49.8104H33.5088Z" fill="#23D2E2"/>
</svg>
