<svg width="77" height="77" viewBox="0 0 77 77" fill="none" xmlns="http://www.w3.org/2000/svg">
<g opacity="0.5">
<path d="M41.4256 70.9939C59.3716 70.9939 73.9196 56.4458 73.9196 38.4999C73.9196 20.5539 59.3716 6.00586 41.4256 6.00586C23.4797 6.00586 8.93164 20.5539 8.93164 38.4999C8.93164 56.4458 23.4797 70.9939 41.4256 70.9939Z" fill="#C5DEEA"/>
</g>
<path d="M11.8271 41.1797C8.85488 41.1797 5.20508 43.5513 5.20508 44.9681V49.6959C5.20508 51.0973 8.85488 53.4843 11.8271 53.4843C14.7993 53.4843 18.4491 51.1127 18.4491 49.6959V44.9681C18.4491 43.5667 14.7993 41.1797 11.8271 41.1797Z" fill="white"/>
<path d="M23.1767 21.3291C20.2045 21.3291 16.5547 23.7007 16.5547 25.1175V30.7847C16.5547 32.1861 20.2045 34.5731 23.1767 34.5731C26.1489 34.5731 29.7987 32.2015 29.7987 30.7847V25.1175C29.7987 23.7007 26.1489 21.3291 23.1767 21.3291Z" fill="white"/>
<path d="M42.0878 21.3291C39.1156 21.3291 35.4658 23.7007 35.4658 25.1175V30.7847C35.4658 32.1861 39.1156 34.5731 42.0878 34.5731C45.06 34.5731 48.7098 32.2015 48.7098 30.7847V25.1175C48.7098 23.7007 45.06 21.3291 42.0878 21.3291Z" fill="white"/>
<path d="M53.4384 40.2402C50.4662 40.2402 46.8164 42.6118 46.8164 44.0286V49.6958C46.8164 51.0972 50.4662 53.4842 53.4384 53.4842C56.4106 53.4842 60.0604 51.1126 60.0604 49.6958V44.0286C60.0604 42.6272 56.4106 40.2402 53.4384 40.2402Z" fill="white"/>
<path d="M54.516 58.8123L43.8746 48.1709L39.501 52.4983L50.1578 63.1551C51.1126 64.1099 52.668 64.1099 53.6382 63.1551L54.5006 62.2927C55.4862 61.3379 55.4862 59.7825 54.516 58.8123Z" fill="white"/>
<path d="M32.6327 54.4235C39.9471 54.4235 45.8767 48.494 45.8767 41.1795C45.8767 33.8651 39.9471 27.9355 32.6327 27.9355C25.3182 27.9355 19.3887 33.8651 19.3887 41.1795C19.3887 48.494 25.3182 54.4235 32.6327 54.4235Z" fill="white"/>
<path fill-rule="evenodd" clip-rule="evenodd" d="M32.6329 29.3218C26.0839 29.3218 20.7749 34.6308 20.7749 41.1798C20.7749 47.7288 26.0839 53.0378 32.6329 53.0378C39.1819 53.0378 44.4909 47.7288 44.4909 41.1798C44.4909 34.6308 39.1819 29.3218 32.6329 29.3218ZM18.0029 41.1798C18.0029 33.0999 24.553 26.5498 32.6329 26.5498C40.7129 26.5498 47.2629 33.0999 47.2629 41.1798C47.2629 49.2597 40.7129 55.8098 32.6329 55.8098C24.553 55.8098 18.0029 49.2597 18.0029 41.1798Z" fill="#23D2E2"/>
<path fill-rule="evenodd" clip-rule="evenodd" d="M18.0385 21.5036C19.4653 20.648 21.3669 19.9434 23.1769 19.9434C24.9961 19.9434 26.8983 20.6527 28.3232 21.5107C29.0446 21.945 29.7049 22.4536 30.2041 22.9959C30.6527 23.4832 31.1849 24.2276 31.1849 25.1178C31.1849 25.8832 30.5644 26.5038 29.7989 26.5038C29.064 26.5038 28.4627 25.9317 28.4159 25.2086C28.4 25.1776 28.3422 25.0662 28.1647 24.8733C27.889 24.5739 27.454 24.223 26.8934 23.8854C25.7542 23.1995 24.3454 22.7154 23.1769 22.7154C22.0148 22.7154 20.6054 23.1965 19.4642 23.8809C18.9026 24.2177 18.4669 24.568 18.1908 24.8675C18.0202 25.0525 17.9598 25.163 17.9409 25.1997V28.9062C17.9409 29.6716 17.3204 30.2922 16.5549 30.2922C15.7895 30.2922 15.1689 29.6716 15.1689 28.9062V25.1178C15.1689 24.2248 15.7008 23.4788 16.1526 22.9887C16.6537 22.4451 17.3162 21.9368 18.0385 21.5036Z" fill="#7651F8"/>
<path d="M23.1771 21.3286C20.8979 21.3286 19.3887 19.5114 19.3887 17.2784V15.9232C19.3887 13.6902 20.8979 11.873 23.1771 11.873C25.4563 11.873 26.9655 13.6902 26.9655 15.9232V17.2784C26.9501 19.5114 25.4409 21.3286 23.1771 21.3286Z" fill="white"/>
<path fill-rule="evenodd" clip-rule="evenodd" d="M23.1773 13.2593C21.7934 13.2593 20.7749 14.3194 20.7749 15.9235V17.2787C20.7749 18.8828 21.7934 19.9429 23.1773 19.9429C24.5403 19.9429 25.5667 18.888 25.5797 17.2736V15.9235C25.5797 14.3194 24.5613 13.2593 23.1773 13.2593ZM18.0029 15.9235C18.0029 13.0616 20.0029 10.4873 23.1773 10.4873C26.3518 10.4873 28.3517 13.0616 28.3517 15.9235V17.2883C28.3321 20.1374 26.3407 22.7149 23.1773 22.7149C20.0029 22.7149 18.0029 20.1406 18.0029 17.2787V15.9235Z" fill="#7651F8"/>
<path fill-rule="evenodd" clip-rule="evenodd" d="M6.68893 41.3542C8.11572 40.4986 10.0172 39.7939 11.8273 39.7939C13.5965 39.7939 15.4407 40.474 16.8395 41.2928C17.5001 41.6795 17.7222 42.5285 17.3355 43.1891C16.9488 43.8497 16.0998 44.0718 15.4392 43.6851C14.3124 43.0255 12.9533 42.5659 11.8273 42.5659C10.6652 42.5659 9.25575 43.0471 8.11459 43.7315C7.553 44.0683 7.11725 44.4186 6.84114 44.7181C6.67062 44.9031 6.61021 45.0136 6.59134 45.0503V48.7567C6.59134 49.5222 5.9708 50.1427 5.20534 50.1427C4.43987 50.1427 3.81934 49.5222 3.81934 48.7567V44.9683C3.81934 44.0754 4.35122 43.3294 4.80297 42.8393C5.30409 42.2957 5.96655 41.7874 6.68893 41.3542Z" fill="#7651F8"/>
<path d="M11.8275 41.1792C9.54826 41.1792 8.03906 39.362 8.03906 37.129V35.7738C8.03906 33.5408 9.54826 31.7236 11.8275 31.7236C14.1067 31.7236 15.6159 33.5408 15.6159 35.7738V37.129C15.6159 39.3774 14.1067 41.1792 11.8275 41.1792Z" fill="white"/>
<path fill-rule="evenodd" clip-rule="evenodd" d="M11.8267 33.1099C10.4428 33.1099 9.42434 34.17 9.42434 35.7741V37.1293C9.42434 38.7334 10.4428 39.7935 11.8267 39.7935C13.2139 39.7935 14.2291 38.7452 14.2291 37.1293V35.7741C14.2291 34.17 13.2107 33.1099 11.8267 33.1099ZM6.65234 35.7741C6.65234 32.9122 8.65227 30.3379 11.8267 30.3379C15.0012 30.3379 17.0011 32.9122 17.0011 35.7741V37.1293C17.0011 40.0101 14.998 42.5655 11.8267 42.5655C8.65227 42.5655 6.65234 39.9912 6.65234 37.1293V35.7741Z" fill="#7651F8"/>
<path fill-rule="evenodd" clip-rule="evenodd" d="M27.4946 42.2937C28.9214 41.438 30.8229 40.7334 32.633 40.7334C34.4451 40.7334 36.3472 41.4432 37.7727 42.3002C38.4947 42.7343 39.1562 43.2425 39.6566 43.7844C40.1056 44.2707 40.641 45.0158 40.641 45.9078V47.802C40.641 48.5675 40.0205 49.188 39.255 49.188C38.4895 49.188 37.869 48.5675 37.869 47.802V45.9941C37.8492 45.9563 37.788 45.8468 37.62 45.6649C37.3431 45.3651 36.9065 45.0138 36.3444 44.6759C35.202 43.9891 33.7931 43.5054 32.633 43.5054C31.4709 43.5054 30.0614 43.9866 28.9203 44.6709C28.3587 45.0077 27.9229 45.358 27.6468 45.6575C27.4763 45.8425 27.4159 45.953 27.397 45.9898V47.802C27.397 48.5675 26.7765 49.188 26.011 49.188C25.2455 49.188 24.625 48.5675 24.625 47.802V45.9078C24.625 45.0148 25.1569 44.2688 25.6086 43.7788C26.1098 43.2351 26.7722 42.7269 27.4946 42.2937Z" fill="#23D2E2"/>
<path d="M32.6322 42.1343C30.353 42.1343 28.8438 40.3171 28.8438 38.0841V36.7289C28.8438 34.4959 30.353 32.6787 32.6322 32.6787C34.9114 32.6787 36.4205 34.4959 36.4205 36.7289V38.0841C36.4051 40.3171 34.9114 42.1343 32.6322 42.1343Z" fill="white"/>
<path fill-rule="evenodd" clip-rule="evenodd" d="M32.6324 34.065C31.2485 34.065 30.23 35.125 30.23 36.7292V38.0844C30.23 39.6885 31.2485 40.7486 32.6324 40.7486C34.0072 40.7486 35.0218 39.6976 35.0348 38.0792V36.7292C35.0348 35.125 34.0163 34.065 32.6324 34.065ZM27.458 36.7292C27.458 33.8673 29.4579 31.293 32.6324 31.293C35.8069 31.293 37.8068 33.8673 37.8068 36.7292V38.0939C37.7872 40.9391 35.8147 43.5206 32.6324 43.5206C29.4579 43.5206 27.458 40.9462 27.458 38.0844V36.7292Z" fill="#23D2E2"/>
<path fill-rule="evenodd" clip-rule="evenodd" d="M36.8491 25.2086C36.8024 25.9317 36.201 26.5038 35.4661 26.5038C34.7006 26.5038 34.0801 25.8832 34.0801 25.1178C34.0801 24.2276 34.6123 23.4832 35.0609 22.9959C35.5601 22.4536 36.2204 21.945 36.9418 21.5107C38.3667 20.6527 40.269 19.9434 42.0881 19.9434C43.8982 19.9434 45.7997 20.648 47.2265 21.5036C47.9489 21.9368 48.6113 22.4451 49.1124 22.9887C49.5642 23.4788 50.0961 24.2248 50.0961 25.1178V28.9062C50.0961 29.6716 49.4755 30.2922 48.7101 30.2922C47.9446 30.2922 47.3241 29.6716 47.3241 28.9062V25.1997C47.3052 25.163 47.2448 25.0525 47.0743 24.8675C46.7982 24.568 46.3624 24.2177 45.8008 23.8809C44.6597 23.1965 43.2502 22.7154 42.0881 22.7154C40.9196 22.7154 39.5108 23.1995 38.3717 23.8854C37.811 24.223 37.376 24.5739 37.1004 24.8733C36.9228 25.0662 36.865 25.1776 36.8491 25.2086Z" fill="#7651F8"/>
<path d="M42.0882 21.3286C44.3674 21.3286 45.8766 19.5114 45.8766 17.2784V15.9232C45.8766 13.6902 44.3674 11.873 42.0882 11.873C39.809 11.873 38.2998 13.6902 38.2998 15.9232V17.2784C38.2998 19.5114 39.809 21.3286 42.0882 21.3286Z" fill="white"/>
<path fill-rule="evenodd" clip-rule="evenodd" d="M36.9141 15.9235C36.9141 13.0616 38.914 10.4873 42.0885 10.4873C45.2629 10.4873 47.2629 13.0616 47.2629 15.9235V17.2787C47.2629 20.1406 45.2629 22.7149 42.0885 22.7149C38.914 22.7149 36.9141 20.1406 36.9141 17.2787V15.9235ZM42.0885 13.2593C40.7045 13.2593 39.6861 14.3194 39.6861 15.9235V17.2787C39.6861 18.8828 40.7045 19.9429 42.0885 19.9429C43.4724 19.9429 44.4909 18.8828 44.4909 17.2787V15.9235C44.4909 14.3194 43.4724 13.2593 42.0885 13.2593Z" fill="#7651F8"/>
<path fill-rule="evenodd" clip-rule="evenodd" d="M53.5357 59.7929L42.8943 49.1515L44.8544 47.1914L55.4958 57.8328C56.9962 59.3332 56.985 61.7602 55.5036 63.2654L55.4959 63.2733L55.4958 63.2733L54.6334 64.1357C53.1331 65.6361 50.7061 65.6249 49.2008 64.1435L49.1929 64.1357L49.1929 64.1357L38.5361 53.4789L40.4962 51.5188L51.1483 62.1709C51.5836 62.596 52.2651 62.5839 52.6733 62.1756L53.6534 63.1557L52.6733 62.1756L53.531 61.3179C53.9561 60.8827 53.944 60.2012 53.5357 59.7929Z" fill="#23D2E2"/>
<path fill-rule="evenodd" clip-rule="evenodd" d="M48.4263 40.3377C49.8251 39.5189 51.6692 38.8389 53.4385 38.8389C55.2505 38.8389 57.1527 39.5487 58.5782 40.4057C59.3001 40.8397 59.9617 41.348 60.462 41.8898C60.9111 42.3762 61.4465 43.1212 61.4465 44.0133V47.8017C61.4465 48.5671 60.8259 49.1877 60.0605 49.1877C59.295 49.1877 58.6745 48.5671 58.6745 47.8017V44.0996C58.6547 44.0617 58.5934 43.9523 58.4255 43.7704C58.1486 43.4705 57.7119 43.1193 57.1499 42.7814C56.0074 42.0945 54.5986 41.6109 53.4385 41.6109C52.3125 41.6109 50.9534 42.0704 49.8266 42.73C49.166 43.1167 48.317 42.8947 47.9303 42.234C47.5436 41.5734 47.7657 40.7244 48.4263 40.3377Z" fill="#7651F8"/>
<path d="M53.4378 40.2398C55.717 40.2398 57.2262 38.4226 57.2262 36.1896V34.8344C57.2262 32.6014 55.717 30.7842 53.4378 30.7842C51.1586 30.7842 49.6494 32.6014 49.6494 34.8344V36.1896C49.6494 38.4226 51.1586 40.2398 53.4378 40.2398Z" fill="white"/>
<path fill-rule="evenodd" clip-rule="evenodd" d="M48.2637 34.8346C48.2637 31.9728 50.2636 29.3984 53.4381 29.3984C56.6125 29.3984 58.6125 31.9728 58.6125 34.8346V36.1898C58.6125 39.0517 56.6125 41.626 53.4381 41.626C50.2636 41.626 48.2637 39.0517 48.2637 36.1898V34.8346ZM53.4381 32.1704C52.0541 32.1704 51.0357 33.2305 51.0357 34.8346V36.1898C51.0357 37.794 52.0541 38.854 53.4381 38.854C54.822 38.854 55.8405 37.794 55.8405 36.1898V34.8346C55.8405 33.2305 54.822 32.1704 53.4381 32.1704Z" fill="#7651F8"/>
</svg>
