<svg id="Layer_1" data-name="Layer 1" xmlns="http://www.w3.org/2000/svg" viewBox="0 0 61.00396 55.03988"><defs><style>.cls-1{fill:#0068e7;}.cls-1,.cls-3,.cls-4{fill-rule:evenodd;}.cls-2,.cls-3{fill:#fff;}.cls-4,.cls-5{fill:#ffbe50;}.cls-6{fill:#03b2e8;}</style></defs><path class="cls-1" d="M7.5981,0H53.583a3.8702,3.8702,0,0,1,3.8589,3.8589V34.08665a3.87008,3.87008,0,0,1-3.8589,3.85883H7.5981a3.87007,3.87007,0,0,1-3.85883-3.85883V3.8589A3.87018,3.87018,0,0,1,7.5981,0"/><rect class="cls-2" x="8.56291" y="4.50206" width="29.26303" height="17.04334"/><path class="cls-3" d="M21.97036,23.47486h2.42321a1.08715,1.08715,0,0,1,1.084,1.084h0a1.08724,1.08724,0,0,1-1.084,1.084H21.97036a1.08732,1.08732,0,0,1-1.08412-1.084h0a1.08724,1.08724,0,0,1,1.08412-1.084m6.22031,0h2.42322a1.084,1.084,0,1,1,0,2.168H28.19067a1.084,1.084,0,0,1,0-2.168Zm-12.44087,0H18.173a1.084,1.084,0,1,1,0,2.168H15.7498a1.084,1.084,0,1,1,0-2.168Z"/><path class="cls-3" d="M21.97036,26.7717h2.42321a1.08733,1.08733,0,0,1,1.08409,1.08411h0a1.08732,1.08732,0,0,1-1.08409,1.084H21.97036a1.08729,1.08729,0,0,1-1.08412-1.084h0a1.08731,1.08731,0,0,1,1.08412-1.08411m6.22031,0H30.614a1.08736,1.08736,0,0,1,1.084,1.08419h0a1.08715,1.08715,0,0,1-1.084,1.084h-2.4233a1.08708,1.08708,0,0,1-1.084-1.084h0A1.08728,1.08728,0,0,1,28.19067,26.7717Zm-12.44079,0H18.173a1.08721,1.08721,0,0,1,1.084,1.08419h0a1.087,1.087,0,0,1-1.084,1.084H15.74988a1.08709,1.08709,0,0,1-1.084-1.084h0A1.0873,1.0873,0,0,1,15.74988,26.7717Z"/><path class="cls-3" d="M21.97036,30.06873h2.42321a1.08723,1.08723,0,0,1,1.08409,1.08392h0a1.08746,1.08746,0,0,1-1.08409,1.0842H21.97036a1.08744,1.08744,0,0,1-1.08412-1.0842h0a1.0872,1.0872,0,0,1,1.08412-1.08392m6.22031,0H30.614a1.0873,1.0873,0,0,1,1.084,1.084h0a1.08724,1.08724,0,0,1-1.084,1.08412h-2.4233a1.08717,1.08717,0,0,1-1.084-1.08412h0A1.08723,1.08723,0,0,1,28.19067,30.06873Zm-12.44079,0H18.173a1.08716,1.08716,0,0,1,1.084,1.084h0a1.0871,1.0871,0,0,1-1.084,1.08412H15.74988a1.08719,1.08719,0,0,1-1.084-1.08412h0A1.08724,1.08724,0,0,1,15.74988,30.06873Z"/><path class="cls-3" d="M21.97036,33.36556h2.42321a1.08729,1.08729,0,0,1,1.084,1.08418h0a1.08719,1.08719,0,0,1-1.084,1.084H21.97036a1.08728,1.08728,0,0,1-1.08412-1.084h0a1.08738,1.08738,0,0,1,1.08412-1.08418m6.22031,0h2.42322a1.08407,1.08407,0,0,1,0,2.16813H28.19067a1.08407,1.08407,0,0,1,0-2.16813Zm-12.44087,0H18.173a1.08407,1.08407,0,0,1,0,2.16813H15.7498a1.08407,1.08407,0,0,1,0-2.16813Z"/><rect class="cls-2" x="41.14598" y="6.2828" width="10.69297" height="14.60021"/><path class="cls-4" d="M46.73489,9.37286h0c1.43413,0,2.60747,1.6371,2.60747,3.07115v7.4746h4.97229a3.649,3.649,0,0,1,3.63824,3.63807V43.80982a3.649,3.649,0,0,1-3.63824,3.63829H47.76573a3.64887,3.64887,0,0,1-3.63815-3.63829V37.647L40.17065,31.3521a3.21136,3.21136,0,0,1,3.95693-4.67361V12.444c0-1.43405,1.17318-3.07115,2.60731-3.07115"/><polygon class="cls-5" points="19.265 11.94 21.627 14.516 27.9 8.451 28.859 9.444 22.077 16 21.568 16.492 21.09 15.971 18.25 12.872 19.265 11.94"/><rect class="cls-2" x="42.37968" y="39.92195" width="16.09967" height="6.67543"/><path class="cls-6" d="M58.05727,40.344H42.80185v5.83124H58.05727Zm-15.67759-.84419H58.90152v7.51962H41.9576V39.49984Z"/><rect class="cls-6" x="41.39818" y="46.59738" width="17.8665" height="8.4425"/></svg>