<svg width="359" height="240" viewBox="0 0 359 240" fill="none" xmlns="http://www.w3.org/2000/svg">
<path d="M200.867 84.1476H164.26V133.544H200.867V84.1476Z" stroke="#1B1C1C" stroke-width="0.5669" stroke-miterlimit="10"/>
<path fill-rule="evenodd" clip-rule="evenodd" d="M223.674 20.2167C145.46 -16.5259 58.7914 -1.23902 30.1017 54.3413C1.41203 109.922 41.5365 184.791 119.751 221.534C127.495 225.175 135.318 228.289 143.157 230.922H263.625C285.533 221.88 303.103 207.21 313.323 187.409C342.013 131.814 301.873 56.9593 223.674 20.2167Z" fill="#E5F1FA"/>
<path fill-rule="evenodd" clip-rule="evenodd" d="M72.7968 42.9364H292.33C297.803 42.9364 302.267 47.2095 302.267 52.4154V192.419C302.267 197.64 297.803 201.899 292.33 201.899H72.7968C67.3239 201.899 62.8604 197.64 62.8604 192.419V52.4305C62.8604 47.2095 67.3239 42.9364 72.7968 42.9364Z" fill="#0F0036"/>
<path fill-rule="evenodd" clip-rule="evenodd" d="M73.5064 49.6018H291.589C293.75 49.6018 295.516 51.287 295.516 53.3483V191.502C295.516 193.563 293.75 195.248 291.589 195.248H73.5064C71.3456 195.248 69.5791 193.563 69.5791 191.502V53.3483C69.5791 51.287 71.3456 49.6018 73.5064 49.6018Z" fill="#B6D6FA"/>
<path d="M201.735 201.763H163.377V220.074H201.735V201.763Z" fill="#34314F"/>
<path fill-rule="evenodd" clip-rule="evenodd" d="M151.374 217.893H212.791C215.267 217.893 217.302 219.833 217.302 222.196C217.302 224.558 215.267 226.499 212.791 226.499H151.374C148.898 226.499 146.863 224.558 146.863 222.196C146.863 219.833 148.898 217.893 151.374 217.893Z" fill="#0F0036"/>
<path fill-rule="evenodd" clip-rule="evenodd" d="M11.286 226.379H352.108C355.909 226.379 359 229.343 359 232.954C359 236.58 355.909 239.529 352.108 239.529H11.286C7.50068 239.529 4.39355 236.565 4.39355 232.954C4.39355 229.343 7.50068 226.379 11.286 226.379Z" fill="#9BC1EC"/>
<path d="M339.805 206.593H246.055V226.379H339.805V206.593Z" fill="#F6BF50"/>
<path d="M333.338 209.542H329.001V224.362H333.338V209.542Z" fill="#C89434"/>
<path d="M327.346 209.602H325.169V224.407H327.346V209.602Z" fill="#C89434"/>
<path d="M338.322 165.005H248.326V183.994H338.322V165.005Z" fill="#34314F"/>
<path d="M258.688 167.834H254.524V182.053H258.688V167.834Z" fill="#7C7794"/>
<path d="M262.38 167.894H260.298V182.113H262.38V167.894Z" fill="#7C7794"/>
<path fill-rule="evenodd" clip-rule="evenodd" d="M100.951 117.369C110.54 117.369 118.363 109.907 118.363 100.759C118.363 91.6105 110.54 84.1476 100.951 84.1476C91.3613 84.1476 83.5225 91.6105 83.5225 100.759C83.5225 109.907 91.3613 117.369 100.951 117.369Z" fill="#628DC2"/>
<path fill-rule="evenodd" clip-rule="evenodd" d="M89.9883 113.668C92.985 115.985 96.7861 117.369 100.95 117.369C105.098 117.369 108.915 115.985 111.912 113.668C110.524 108.176 106.155 104.159 100.95 104.159C95.7609 104.174 91.3762 108.176 89.9883 113.668Z" fill="#FEFEFE"/>
<path fill-rule="evenodd" clip-rule="evenodd" d="M100.951 102.489C104.547 102.489 107.48 99.6903 107.48 96.2598C107.48 92.8293 104.547 90.0307 100.951 90.0307C97.3545 90.0307 94.4209 92.8293 94.4209 96.2598C94.4209 99.6753 97.3545 102.489 100.951 102.489Z" fill="#FEFEFE"/>
<path fill-rule="evenodd" clip-rule="evenodd" d="M130.807 88.7668H180.584C181.861 88.7668 182.902 89.7599 182.902 90.9786C182.902 92.1973 181.861 93.1904 180.584 93.1904H130.807C129.529 93.1904 128.488 92.1973 128.488 90.9786C128.488 89.7599 129.529 88.7668 130.807 88.7668Z" fill="#628DC2"/>
<path fill-rule="evenodd" clip-rule="evenodd" d="M130.823 98.6671H180.601C181.878 98.6671 182.919 99.6602 182.919 100.879C182.919 102.098 181.878 103.091 180.601 103.091H130.823C129.546 103.091 128.505 102.098 128.505 100.879C128.505 99.6602 129.546 98.6671 130.823 98.6671Z" fill="#628DC2"/>
<path fill-rule="evenodd" clip-rule="evenodd" d="M130.871 108.748H180.648C181.926 108.748 182.967 109.741 182.967 110.96C182.967 112.179 181.926 113.172 180.648 113.172H130.871C129.594 113.172 128.553 112.179 128.553 110.96C128.553 109.741 129.594 108.748 130.871 108.748Z" fill="#628DC2"/>
<path fill-rule="evenodd" clip-rule="evenodd" d="M200.616 195.248H83.7119V135.41C83.7119 130.369 88.0335 126.247 93.3014 126.247H191.01C196.278 126.247 200.6 130.369 200.6 135.41V195.248H200.616Z" fill="#FEFEFE"/>
<path fill-rule="evenodd" clip-rule="evenodd" d="M83.7119 139.502V135.41C83.7119 130.369 88.0335 126.247 93.3014 126.247H191.01C196.278 126.247 200.6 130.369 200.6 135.41V139.502H83.7119Z" fill="#628DC2"/>
<path fill-rule="evenodd" clip-rule="evenodd" d="M115.919 121.221C114.941 121.221 114.121 121.989 114.121 122.921V129.572C114.121 130.505 114.925 131.272 115.919 131.272C116.897 131.272 117.701 130.505 117.701 129.572V122.921C117.701 121.989 116.897 121.221 115.919 121.221Z" fill="#0F0036" stroke="#1B1C1C" stroke-width="0.5669" stroke-miterlimit="10"/>
<path fill-rule="evenodd" clip-rule="evenodd" d="M142.163 121.221C141.185 121.221 140.381 121.989 140.381 122.921V129.572C140.381 130.505 141.185 131.272 142.163 131.272C143.157 131.272 143.961 130.505 143.961 129.572V122.921C143.945 121.989 143.141 121.221 142.163 121.221Z" fill="#0F0036" stroke="#1B1C1C" stroke-width="0.5669" stroke-miterlimit="10"/>
<path fill-rule="evenodd" clip-rule="evenodd" d="M168.408 121.221C167.43 121.221 166.626 121.989 166.626 122.921V129.572C166.626 130.505 167.43 131.272 168.408 131.272C169.386 131.272 170.19 130.505 170.19 129.572V122.921C170.19 121.989 169.386 121.221 168.408 121.221Z" fill="#0F0036" stroke="#1B1C1C" stroke-width="0.5669" stroke-miterlimit="10"/>
<path d="M101.061 179.435H88.7275V191.201H101.061V179.435Z" fill="#9BC1EC"/>
<path fill-rule="evenodd" clip-rule="evenodd" d="M104.721 191.186C108.837 191.186 112.954 191.186 117.055 191.186C117.055 187.259 117.055 183.332 117.055 179.42C112.938 179.42 108.821 179.42 104.721 179.42C104.721 183.347 104.721 187.274 104.721 191.186Z" fill="#9BC1EC"/>
<path fill-rule="evenodd" clip-rule="evenodd" d="M120.713 191.186C124.829 191.186 128.946 191.186 133.047 191.186C133.047 187.259 133.047 183.332 133.047 179.405C128.93 179.405 124.814 179.405 120.713 179.405C120.713 183.332 120.713 187.259 120.713 191.186Z" fill="#BA4F53"/>
<path fill-rule="evenodd" clip-rule="evenodd" d="M136.706 191.156C140.823 191.156 144.939 191.156 149.04 191.156C149.04 187.229 149.04 183.302 149.04 179.39C144.923 179.39 140.807 179.39 136.706 179.39C136.706 183.317 136.706 187.244 136.706 191.156Z" fill="#9BC1EC"/>
<path fill-rule="evenodd" clip-rule="evenodd" d="M152.699 191.156C156.816 191.156 160.932 191.156 165.033 191.156C165.033 187.229 165.033 183.302 165.033 179.39C160.917 179.39 156.8 179.39 152.699 179.39C152.699 183.302 152.699 187.229 152.699 191.156Z" fill="#9BC1EC"/>
<path fill-rule="evenodd" clip-rule="evenodd" d="M168.691 191.141C172.808 191.141 176.925 191.141 181.025 191.141C181.025 187.214 181.025 183.287 181.025 179.375C176.909 179.375 172.792 179.375 168.691 179.375C168.691 183.287 168.691 187.214 168.691 191.141Z" fill="#9BC1EC"/>
<path d="M197.018 179.344H184.685V191.126H197.018V179.344Z" fill="#9BC1EC"/>
<path d="M101.061 163.17H88.7109V174.951H101.061V163.17Z" fill="#9BC1EC"/>
<path fill-rule="evenodd" clip-rule="evenodd" d="M104.752 174.936C108.869 174.936 112.985 174.936 117.086 174.936C117.086 171.009 117.086 167.082 117.086 163.17C112.969 163.17 108.853 163.17 104.752 163.17C104.752 167.082 104.752 171.009 104.752 174.936Z" fill="#9BC1EC"/>
<path fill-rule="evenodd" clip-rule="evenodd" d="M120.776 174.921C124.893 174.921 129.009 174.921 133.11 174.921C133.11 170.994 133.11 167.067 133.11 163.155C128.994 163.155 124.877 163.155 120.776 163.155C120.776 167.067 120.776 170.994 120.776 174.921Z" fill="#9BC1EC"/>
<path fill-rule="evenodd" clip-rule="evenodd" d="M136.816 174.906C140.933 174.906 145.05 174.906 149.15 174.906C149.15 170.979 149.15 167.052 149.15 163.14C145.034 163.14 140.917 163.14 136.816 163.14C136.816 167.067 136.816 170.979 136.816 174.906Z" fill="#9BC1EC"/>
<path fill-rule="evenodd" clip-rule="evenodd" d="M152.841 174.891C156.957 174.891 161.074 174.891 165.175 174.891C165.175 170.964 165.175 167.037 165.175 163.125C161.058 163.125 156.942 163.125 152.841 163.125C152.841 167.052 152.841 170.964 152.841 174.891Z" fill="#9BC1EC"/>
<path fill-rule="evenodd" clip-rule="evenodd" d="M168.882 174.876C172.998 174.876 177.115 174.876 181.216 174.876C181.216 170.949 181.216 167.022 181.216 163.11C177.099 163.11 172.983 163.11 168.882 163.11C168.882 167.037 168.882 170.964 168.882 174.876Z" fill="#9BC1EC"/>
<path d="M197.24 163.095H184.906V174.861H197.24V163.095Z" fill="#9BC1EC"/>
<path fill-rule="evenodd" clip-rule="evenodd" d="M136.706 158.611C140.823 158.611 144.939 158.611 149.04 158.611C149.04 154.684 149.04 150.757 149.04 146.845C144.923 146.845 140.807 146.845 136.706 146.845C136.706 150.772 136.706 154.699 136.706 158.611Z" fill="#9BC1EC"/>
<path fill-rule="evenodd" clip-rule="evenodd" d="M152.699 158.611C156.816 158.611 160.932 158.611 165.033 158.611C165.033 154.684 165.033 150.757 165.033 146.83C160.917 146.83 156.8 146.83 152.699 146.83C152.699 150.757 152.699 154.684 152.699 158.611Z" fill="#9BC1EC"/>
<path fill-rule="evenodd" clip-rule="evenodd" d="M168.691 158.581C172.808 158.581 176.925 158.581 181.025 158.581C181.025 154.654 181.025 150.727 181.025 146.815C176.909 146.815 172.792 146.815 168.691 146.815C168.691 150.742 168.691 154.669 168.691 158.581Z" fill="#9BC1EC"/>
<path d="M197.018 146.8H184.685V158.566H197.018V146.8Z" fill="#9BC1EC"/>
<path fill-rule="evenodd" clip-rule="evenodd" d="M291.731 132.912L287.725 134.492L283.719 136.072V133.725H214.999V133.71H214.983V95.357H212.491L214.147 91.5353L215.803 87.7286L217.459 91.5353L219.116 95.357H216.671V132.13H283.719V129.752L287.725 131.332L291.731 132.912Z" fill="#628DC2"/>
<path d="M117.086 77.7832L121.486 55.876H125.209L129.593 77.7832H127.038L126.155 73.3746H120.367L119.499 77.7832H117.086ZM120.761 71.2682H125.713L123.206 58.795L120.761 71.2682ZM130.697 58.0878V55.876H141.722V58.1028H137.495V77.7832H134.94V58.0878H130.697ZM142.605 58.0878V55.876H153.63V58.1028H149.403V77.7832H146.832V58.0878H142.605ZM155.397 77.7832V55.876H164.844V58.1028H157.952V65.5507H163.567V67.7624H157.952V75.5563H164.844V77.7832H155.397ZM167.163 77.7832V55.876H170.412L175.727 71.7497V55.876H178.014V77.7832H175.333L169.45 60.119V77.7832H167.163ZM180.601 77.7832V55.876H185.963C187.698 55.876 188.991 56.3575 189.859 57.3054C190.726 58.2533 191.152 59.5924 191.152 61.3378V72.3816C191.152 74.0969 190.711 75.436 189.859 76.3688C188.991 77.3167 187.698 77.7832 185.963 77.7832H180.601ZM183.156 75.5563H185.947C187.761 75.5563 188.66 74.5182 188.66 72.4568V61.2023C188.66 59.126 187.745 58.1028 185.9 58.1028H183.14V75.5563H183.156ZM192.903 77.7832L197.288 55.876H201.01L205.395 77.7832H202.839L201.956 73.3746H196.168L195.3 77.7832H192.903ZM196.578 71.2682H201.53L199.023 58.795L196.578 71.2682ZM207.366 77.7832V55.876H210.615L215.93 71.7497V55.876H218.217V77.7832H215.536L209.653 60.119V77.7832H207.366ZM220.615 72.502V61.1723C220.615 59.457 221.041 58.1028 221.908 57.1248C222.76 56.1468 224.053 55.6503 225.757 55.6503C227.476 55.6503 228.753 56.1318 229.621 57.1248C230.488 58.1028 230.93 59.457 230.93 61.1572V63.1282H228.532V61.0218C228.532 58.9153 227.633 57.8621 225.82 57.8621C224.921 57.8621 224.242 58.1329 223.785 58.6896C223.328 59.2464 223.107 60.0137 223.107 61.0218V72.5922C223.107 73.6003 223.328 74.3827 223.785 74.9244C224.227 75.4811 224.905 75.7519 225.82 75.7519C227.618 75.7519 228.532 74.6987 228.532 72.5922V69.7485H230.93V72.4719C230.93 74.1871 230.488 75.5262 229.621 76.5042C228.753 77.4822 227.476 77.9637 225.757 77.9637C224.053 77.9637 222.776 77.4672 221.908 76.5042C221.041 75.5563 220.615 74.2022 220.615 72.502ZM233.264 77.7832V55.876H242.712V58.1028H235.819V65.5507H241.434V67.7624H235.819V75.5563H242.712V77.7832H233.264Z" fill="#FEFEFE"/>
<path fill-rule="evenodd" clip-rule="evenodd" d="M238.72 123.614C238.673 123.463 237.805 122.169 237.726 122.064L235.739 118.964C235.566 118.709 235.408 118.453 235.234 118.182L233.736 115.85C233.216 115.082 232.727 114.3 232.238 113.518C231.875 112.931 231.118 111.727 230.724 111.186C230.55 111.231 230.298 111.411 230.14 111.517C229.288 112.043 228.437 112.54 227.601 113.066L223.61 115.504C223.516 115.564 223.437 115.609 223.326 115.684C223.121 115.805 221.718 116.602 221.623 116.738C221.67 116.918 222.002 117.324 222.112 117.52C222.238 117.505 222.301 117.445 222.38 117.385C222.475 117.324 222.554 117.279 222.648 117.219C223.658 116.572 224.73 115.97 225.74 115.338L229.604 112.991C229.777 112.886 230.219 112.57 230.392 112.525L236.591 122.139C236.686 122.29 236.749 122.395 236.843 122.545C236.891 122.621 236.922 122.666 236.969 122.741L237.364 123.358C237.411 123.433 237.443 123.478 237.49 123.553C237.537 123.629 237.569 123.689 237.616 123.764C237.711 123.899 237.79 124.02 237.884 124.17L238.531 125.163C238.578 125.239 238.641 125.299 238.657 125.374C238.799 125.284 239.051 124.877 239.162 124.727C239.319 124.486 239.493 124.276 239.651 124.05L240.66 122.696C240.818 122.455 240.991 122.244 241.149 122.019L243.641 118.633C243.799 118.408 243.972 118.197 244.146 117.971L246.638 114.586C246.796 114.36 246.969 114.135 247.143 113.909L248.641 111.878C248.814 111.652 248.972 111.441 249.146 111.201L249.887 110.192C250.328 109.636 250.707 109.049 251.133 108.492L252.631 106.461C252.947 106.01 253.309 105.558 253.641 105.107C253.798 104.866 253.972 104.671 254.13 104.43L254.571 103.828C254.634 103.768 254.587 103.783 254.666 103.768C254.697 103.858 254.682 103.813 254.745 103.888L255.013 104.204C255.139 104.355 255.249 104.49 255.376 104.64L258.23 108.056C258.656 108.583 259.398 109.485 259.823 109.967L260.186 110.403C260.896 111.261 261.637 112.088 262.331 112.961C262.741 113.473 263.183 113.939 263.577 114.451L264.65 115.729C264.981 116.121 265.817 117.054 266.085 117.46C266.274 117.369 266.432 117.249 266.605 117.144L268.924 115.729C269.87 115.128 270.848 114.586 271.779 113.984C272.63 113.442 273.514 112.946 274.365 112.404L276.432 111.14C276.605 111.035 276.779 110.945 276.952 110.824L279.791 109.094C279.886 109.034 279.964 108.989 280.059 108.929C280.248 108.823 280.406 108.718 280.595 108.613L281.352 108.146C281.557 108.026 282.535 107.394 282.677 107.364C282.646 107.243 282.204 106.596 282.141 106.551C282.015 106.581 281.763 106.762 281.652 106.837L280.17 107.74C280.012 107.845 279.838 107.951 279.696 108.026L279.192 108.327C278.45 108.793 277.693 109.214 276.968 109.681L267.82 115.263C267.725 115.323 267.662 115.353 267.568 115.413L266.574 116.015C266.479 116.076 266.416 116.106 266.322 116.166C266.101 115.85 265.848 115.579 265.612 115.293L264.145 113.548C263.167 112.374 262.158 111.231 261.211 110.027L260.47 109.139C260.407 109.064 260.36 109.004 260.297 108.929L256.085 103.903C255.975 103.768 254.76 102.263 254.603 102.158C254.555 102.308 253.136 104.174 252.899 104.505L250.423 107.86C250.376 107.936 250.344 107.951 250.297 108.026L248.688 110.208C248.373 110.659 248.01 111.095 247.695 111.547C247.221 112.224 246.701 112.871 246.212 113.548C245.802 114.12 245.376 114.661 244.966 115.233L240.502 121.281C240.424 121.402 240.345 121.507 240.266 121.612L239.272 122.952C239.13 123.087 238.831 123.538 238.72 123.614Z" fill="#FEFEFE"/>
<path fill-rule="evenodd" clip-rule="evenodd" d="M230.535 114.104C231.671 114.104 232.601 113.217 232.601 112.133C232.601 111.05 231.671 110.162 230.535 110.162C229.399 110.162 228.469 111.05 228.469 112.133C228.469 113.217 229.399 114.104 230.535 114.104Z" fill="#FEFEFE"/>
<path fill-rule="evenodd" clip-rule="evenodd" d="M238.768 126.066C239.857 126.066 240.74 125.224 240.74 124.185C240.74 123.147 239.857 122.305 238.768 122.305C237.68 122.305 236.797 123.147 236.797 124.185C236.797 125.224 237.68 126.066 238.768 126.066Z" fill="#FEFEFE"/>
<path fill-rule="evenodd" clip-rule="evenodd" d="M254.572 105.242C255.66 105.242 256.544 104.4 256.544 103.362C256.544 102.323 255.66 101.481 254.572 101.481C253.484 101.481 252.601 102.323 252.601 103.362C252.601 104.4 253.484 105.242 254.572 105.242Z" fill="#FEFEFE"/>
<path fill-rule="evenodd" clip-rule="evenodd" d="M266.338 118.182C267.426 118.182 268.309 117.339 268.309 116.301C268.309 115.263 267.426 114.42 266.338 114.42C265.249 114.42 264.366 115.263 264.366 116.301C264.366 117.339 265.249 118.182 266.338 118.182Z" fill="#FEFEFE"/>
<path d="M14.0141 148.184C13.3832 147.702 11.948 146.318 10.3707 145.22C8.79351 144.106 7.07434 143.279 5.43403 142.888C3.79372 142.496 2.2165 142.557 1.23862 142.918C0.26074 143.279 -0.102021 143.956 0.024157 144.859C0.150335 145.777 0.749679 146.905 1.79065 147.943C2.83161 148.981 4.29843 149.914 5.84411 150.621C7.40556 151.329 9.03009 151.825 10.6704 152.307C9.62944 152.246 8.60424 152.171 7.721 152.457C6.85353 152.743 6.14378 153.39 5.92297 154.263C5.70216 155.135 5.97028 156.249 6.63272 157.091C7.29515 157.934 8.36766 158.506 10.0237 159.062C11.6798 159.619 13.9195 160.161 16.1591 160.687C15.3705 161.304 14.5977 161.936 14.3138 162.824C14.0299 163.711 14.2665 164.87 14.9131 165.728C15.5598 166.585 16.6008 167.142 18.1149 167.699C19.6133 168.24 21.569 168.767 23.5248 169.294C22.8466 169.459 22.1684 169.625 21.711 169.986C21.2378 170.347 21.0012 170.919 20.9381 171.52C20.8908 172.122 21.0328 172.769 21.5848 173.552C22.121 174.334 23.0674 175.222 24.4396 176.034C25.8117 176.847 27.6255 177.599 29.4236 178.336C28.4142 178.547 27.389 178.743 26.5846 179.239C25.7644 179.736 25.1651 180.533 25.2124 181.571C25.2597 182.609 25.9852 183.903 29.392 186.597C32.7988 189.29 38.8869 193.382 42.3252 195.985C45.7636 198.603 46.5364 199.732 47.1358 200.574C47.7351 201.432 48.161 202.004 48.3818 202.29C48.6026 202.576 48.6026 202.576 49.1231 200.003C49.6593 197.43 50.7318 192.284 51.1735 188.191C51.6309 184.084 51.4731 181.014 51.1892 178.637C50.9053 176.26 50.511 174.56 49.9432 173.416C49.3912 172.273 48.6657 171.686 47.814 171.385C46.9623 171.084 45.9529 171.069 45.2273 171.566C44.5018 172.062 44.0444 173.07 43.587 174.078C43.8236 171.866 44.0602 169.64 43.9656 167.518C43.8709 165.397 43.4293 163.365 42.8615 161.816C42.2937 160.266 41.5997 159.198 40.5903 158.671C39.5809 158.144 38.256 158.144 37.3885 158.49C36.5368 158.837 36.1425 159.529 35.7482 160.206C35.764 160.221 35.7956 160.251 35.4959 159.318C35.212 158.385 34.6126 156.504 33.824 155.135C33.0354 153.766 32.0575 152.893 31.0481 152.337C30.0387 151.78 28.9819 151.509 28.0987 151.554C27.1997 151.599 26.4584 151.976 25.9379 152.502C25.4174 153.029 25.1178 153.721 24.9916 154.187C24.8654 154.639 24.9285 154.849 24.408 153.871C23.8875 152.893 22.7835 150.742 21.7267 149.177C20.67 147.597 19.6763 146.619 18.6827 146.017C17.7048 145.43 16.7427 145.235 16.0014 145.31C15.2601 145.385 14.7396 145.731 14.4873 146.183C14.2349 146.634 14.2507 147.206 14.3453 147.702C14.4557 148.229 14.645 148.665 14.0141 148.184Z" fill="#628DC2"/>
<mask id="mask0_1212_2631" style="mask-type:luminance" maskUnits="userSpaceOnUse" x="0" y="142" width="52" height="61">
<path d="M14.0141 148.184C13.3832 147.702 11.948 146.318 10.3707 145.22C8.79351 144.106 7.07434 143.279 5.43403 142.888C3.79372 142.496 2.2165 142.557 1.23862 142.918C0.26074 143.279 -0.102021 143.956 0.024157 144.859C0.150335 145.777 0.749679 146.905 1.79065 147.943C2.83161 148.981 4.29843 149.914 5.84411 150.621C7.40556 151.329 9.03009 151.825 10.6704 152.307C9.62944 152.246 8.60424 152.171 7.721 152.457C6.85353 152.743 6.14378 153.39 5.92297 154.263C5.70216 155.135 5.97028 156.249 6.63272 157.091C7.29515 157.934 8.36766 158.506 10.0237 159.062C11.6798 159.619 13.9195 160.161 16.1591 160.687C15.3705 161.304 14.5977 161.936 14.3138 162.824C14.0299 163.711 14.2665 164.87 14.9131 165.728C15.5598 166.585 16.6008 167.142 18.1149 167.699C19.6133 168.24 21.569 168.767 23.5248 169.294C22.8466 169.459 22.1684 169.625 21.711 169.986C21.2378 170.347 21.0012 170.919 20.9381 171.52C20.8908 172.122 21.0328 172.769 21.5848 173.552C22.121 174.334 23.0674 175.222 24.4396 176.034C25.8117 176.847 27.6255 177.599 29.4236 178.336C28.4142 178.547 27.389 178.743 26.5846 179.239C25.7644 179.736 25.1651 180.533 25.2124 181.571C25.2597 182.609 25.9852 183.903 29.392 186.597C32.7988 189.29 38.8869 193.382 42.3252 195.985C45.7636 198.603 46.5364 199.732 47.1358 200.574C47.7351 201.432 48.161 202.004 48.3818 202.29C48.6026 202.576 48.6026 202.576 49.1231 200.003C49.6593 197.43 50.7318 192.284 51.1735 188.191C51.6309 184.084 51.4731 181.014 51.1892 178.637C50.9053 176.26 50.511 174.56 49.9432 173.416C49.3912 172.273 48.6657 171.686 47.814 171.385C46.9623 171.084 45.9529 171.069 45.2273 171.566C44.5018 172.062 44.0444 173.07 43.587 174.078C43.8236 171.866 44.0602 169.64 43.9656 167.518C43.8709 165.397 43.4293 163.365 42.8615 161.816C42.2937 160.266 41.5997 159.198 40.5903 158.671C39.5809 158.144 38.256 158.144 37.3885 158.49C36.5368 158.837 36.1425 159.529 35.7482 160.206C35.764 160.221 35.7956 160.251 35.4959 159.318C35.212 158.385 34.6126 156.504 33.824 155.135C33.0354 153.766 32.0575 152.893 31.0481 152.337C30.0387 151.78 28.9819 151.509 28.0987 151.554C27.1997 151.599 26.4584 151.976 25.9379 152.502C25.4174 153.029 25.1178 153.721 24.9916 154.187C24.8654 154.639 24.9285 154.849 24.408 153.871C23.8875 152.893 22.7835 150.742 21.7267 149.177C20.67 147.597 19.6763 146.619 18.6827 146.017C17.7048 145.43 16.7427 145.235 16.0014 145.31C15.2601 145.385 14.7396 145.731 14.4873 146.183C14.2349 146.634 14.2507 147.206 14.3453 147.702C14.4557 148.229 14.645 148.665 14.0141 148.184Z" fill="white"/>
</mask>
<g mask="url(#mask0_1212_2631)">
<path fill-rule="evenodd" clip-rule="evenodd" d="M6.38006 145.852C18.2565 153.57 28.0195 161.379 36.0318 172.935C40.038 178.697 42.9401 182.865 45.8422 189.35C46.8673 191.652 47.7348 193.774 48.3815 196.211C48.4288 196.392 48.3184 196.557 48.1291 196.602C47.9556 196.647 47.7664 196.542 47.719 196.362C47.0724 193.954 46.2207 191.878 45.2113 189.606C42.3249 183.166 39.4229 179.028 35.4483 173.296C27.4833 161.831 17.7834 154.067 5.98576 146.393C5.82803 146.288 5.79649 146.092 5.89112 145.942C6.0173 145.792 6.23811 145.746 6.38006 145.852Z" fill="#FEFEFE"/>
</g>
<mask id="mask1_1212_2631" style="mask-type:luminance" maskUnits="userSpaceOnUse" x="0" y="142" width="52" height="61">
<path d="M14.0141 148.184C13.3832 147.702 11.948 146.318 10.3707 145.22C8.79351 144.106 7.07434 143.279 5.43403 142.888C3.79372 142.496 2.2165 142.557 1.23862 142.918C0.26074 143.279 -0.102021 143.956 0.024157 144.859C0.150335 145.777 0.749679 146.905 1.79065 147.943C2.83161 148.981 4.29843 149.914 5.84411 150.621C7.40556 151.329 9.03009 151.825 10.6704 152.307C9.62944 152.246 8.60424 152.171 7.721 152.457C6.85353 152.743 6.14378 153.39 5.92297 154.263C5.70216 155.135 5.97028 156.249 6.63272 157.091C7.29515 157.934 8.36766 158.506 10.0237 159.062C11.6798 159.619 13.9195 160.161 16.1591 160.687C15.3705 161.304 14.5977 161.936 14.3138 162.824C14.0299 163.711 14.2665 164.87 14.9131 165.728C15.5598 166.585 16.6008 167.142 18.1149 167.699C19.6133 168.24 21.569 168.767 23.5248 169.294C22.8466 169.459 22.1684 169.625 21.711 169.986C21.2378 170.347 21.0012 170.919 20.9381 171.52C20.8908 172.122 21.0328 172.769 21.5848 173.552C22.121 174.334 23.0674 175.222 24.4396 176.034C25.8117 176.847 27.6255 177.599 29.4236 178.336C28.4142 178.547 27.389 178.743 26.5846 179.239C25.7644 179.736 25.1651 180.533 25.2124 181.571C25.2597 182.609 25.9852 183.903 29.392 186.597C32.7988 189.29 38.8869 193.382 42.3252 195.985C45.7636 198.603 46.5364 199.732 47.1358 200.574C47.7351 201.432 48.161 202.004 48.3818 202.29C48.6026 202.576 48.6026 202.576 49.1231 200.003C49.6593 197.43 50.7318 192.284 51.1735 188.191C51.6309 184.084 51.4731 181.014 51.1892 178.637C50.9053 176.26 50.511 174.56 49.9432 173.416C49.3912 172.273 48.6657 171.686 47.814 171.385C46.9623 171.084 45.9529 171.069 45.2273 171.566C44.5018 172.062 44.0444 173.07 43.587 174.078C43.8236 171.866 44.0602 169.64 43.9656 167.518C43.8709 165.397 43.4293 163.365 42.8615 161.816C42.2937 160.266 41.5997 159.198 40.5903 158.671C39.5809 158.144 38.256 158.144 37.3885 158.49C36.5368 158.837 36.1425 159.529 35.7482 160.206C35.764 160.221 35.7956 160.251 35.4959 159.318C35.212 158.385 34.6126 156.504 33.824 155.135C33.0354 153.766 32.0575 152.893 31.0481 152.337C30.0387 151.78 28.9819 151.509 28.0987 151.554C27.1997 151.599 26.4584 151.976 25.9379 152.502C25.4174 153.029 25.1178 153.721 24.9916 154.187C24.8654 154.639 24.9285 154.849 24.408 153.871C23.8875 152.893 22.7835 150.742 21.7267 149.177C20.67 147.597 19.6763 146.619 18.6827 146.017C17.7048 145.43 16.7427 145.235 16.0014 145.31C15.2601 145.385 14.7396 145.731 14.4873 146.183C14.2349 146.634 14.2507 147.206 14.3453 147.702C14.4557 148.229 14.645 148.665 14.0141 148.184Z" fill="white"/>
</mask>
<g mask="url(#mask1_1212_2631)">
<path fill-rule="evenodd" clip-rule="evenodd" d="M29.3281 181.661C34.7064 184.234 40.1005 186.792 45.4789 189.365C45.9993 184.49 46.5198 179.615 47.0561 174.74C47.0719 174.575 47.2454 174.439 47.4189 174.454C47.6081 174.469 47.7343 174.62 47.7185 174.8C47.1823 179.826 46.6302 184.866 46.094 189.892L45.5735 190.117C40.069 187.484 34.5487 184.866 29.0284 182.233C28.8707 182.158 28.8076 181.962 28.8865 181.812C28.9654 181.646 29.1546 181.586 29.3281 181.661Z" fill="#FEFEFE"/>
</g>
<mask id="mask2_1212_2631" style="mask-type:luminance" maskUnits="userSpaceOnUse" x="0" y="142" width="52" height="61">
<path d="M14.0141 148.184C13.3832 147.702 11.948 146.318 10.3707 145.22C8.79351 144.106 7.07434 143.279 5.43403 142.888C3.79372 142.496 2.2165 142.557 1.23862 142.918C0.26074 143.279 -0.102021 143.956 0.024157 144.859C0.150335 145.777 0.749679 146.905 1.79065 147.943C2.83161 148.981 4.29843 149.914 5.84411 150.621C7.40556 151.329 9.03009 151.825 10.6704 152.307C9.62944 152.246 8.60424 152.171 7.721 152.457C6.85353 152.743 6.14378 153.39 5.92297 154.263C5.70216 155.135 5.97028 156.249 6.63272 157.091C7.29515 157.934 8.36766 158.506 10.0237 159.062C11.6798 159.619 13.9195 160.161 16.1591 160.687C15.3705 161.304 14.5977 161.936 14.3138 162.824C14.0299 163.711 14.2665 164.87 14.9131 165.728C15.5598 166.585 16.6008 167.142 18.1149 167.699C19.6133 168.24 21.569 168.767 23.5248 169.294C22.8466 169.459 22.1684 169.625 21.711 169.986C21.2378 170.347 21.0012 170.919 20.9381 171.52C20.8908 172.122 21.0328 172.769 21.5848 173.552C22.121 174.334 23.0674 175.222 24.4396 176.034C25.8117 176.847 27.6255 177.599 29.4236 178.336C28.4142 178.547 27.389 178.743 26.5846 179.239C25.7644 179.736 25.1651 180.533 25.2124 181.571C25.2597 182.609 25.9852 183.903 29.392 186.597C32.7988 189.29 38.8869 193.382 42.3252 195.985C45.7636 198.603 46.5364 199.732 47.1358 200.574C47.7351 201.432 48.161 202.004 48.3818 202.29C48.6026 202.576 48.6026 202.576 49.1231 200.003C49.6593 197.43 50.7318 192.284 51.1735 188.191C51.6309 184.084 51.4731 181.014 51.1892 178.637C50.9053 176.26 50.511 174.56 49.9432 173.416C49.3912 172.273 48.6657 171.686 47.814 171.385C46.9623 171.084 45.9529 171.069 45.2273 171.566C44.5018 172.062 44.0444 173.07 43.587 174.078C43.8236 171.866 44.0602 169.64 43.9656 167.518C43.8709 165.397 43.4293 163.365 42.8615 161.816C42.2937 160.266 41.5997 159.198 40.5903 158.671C39.5809 158.144 38.256 158.144 37.3885 158.49C36.5368 158.837 36.1425 159.529 35.7482 160.206C35.764 160.221 35.7956 160.251 35.4959 159.318C35.212 158.385 34.6126 156.504 33.824 155.135C33.0354 153.766 32.0575 152.893 31.0481 152.337C30.0387 151.78 28.9819 151.509 28.0987 151.554C27.1997 151.599 26.4584 151.976 25.9379 152.502C25.4174 153.029 25.1178 153.721 24.9916 154.187C24.8654 154.639 24.9285 154.849 24.408 153.871C23.8875 152.893 22.7835 150.742 21.7267 149.177C20.67 147.597 19.6763 146.619 18.6827 146.017C17.7048 145.43 16.7427 145.235 16.0014 145.31C15.2601 145.385 14.7396 145.731 14.4873 146.183C14.2349 146.634 14.2507 147.206 14.3453 147.702C14.4557 148.229 14.645 148.665 14.0141 148.184Z" fill="white"/>
</mask>
<g mask="url(#mask2_1212_2631)">
<path fill-rule="evenodd" clip-rule="evenodd" d="M8.52537 155.286C12.2634 155.692 16.1749 156.188 19.9129 156.519C19.976 156.519 20.4965 156.58 20.7015 156.55C20.528 155.857 17.5471 149.132 17.1528 148.229C17.0897 148.064 17.1685 147.883 17.3263 147.823C17.4998 147.748 17.689 147.838 17.7521 147.988C18.73 150.245 19.7079 152.502 20.6857 154.774C21.4113 156.429 22.0422 157.347 19.834 157.151C16.096 156.82 12.1845 156.324 8.44651 155.918C8.25724 155.903 8.13106 155.737 8.14684 155.572C8.19415 155.391 8.35187 155.271 8.52537 155.286Z" fill="#FEFEFE"/>
</g>
<path fill-rule="evenodd" clip-rule="evenodd" d="M54.7374 197.926C54.7689 197.746 54.8004 197.58 54.832 197.385C54.2957 195.895 53.8383 193.533 54.1853 191.667C54.5796 189.591 55.9676 188.146 57.0716 186.928C58.1757 185.709 58.9643 184.746 59.3902 183.422C59.816 182.098 59.8633 180.413 60.1157 178.938C60.368 177.464 60.8254 176.215 61.4721 175.252C62.1187 174.289 62.9389 173.612 64.0903 172.679C65.2416 171.761 66.7242 170.588 67.5917 169.339C68.4592 168.09 68.7115 166.751 68.8693 165.607C69.027 164.449 69.0901 163.471 69.7052 162.478C70.3361 161.485 71.5348 160.477 72.7808 159.784C74.0425 159.092 75.3516 158.716 76.5188 158.31C77.6859 157.919 78.7111 157.512 79.3736 156.565C80.0518 155.617 80.3672 154.112 80.8246 152.818C81.2978 151.509 81.9287 150.396 83.4428 149.658C84.9569 148.906 87.3858 148.53 88.9631 148.229C90.5403 147.928 91.2816 147.717 92.2279 147.161C93.1742 146.604 94.3099 145.716 95.5243 145.145C96.7388 144.588 98.0163 144.362 99.3254 144.422C100.635 144.468 101.975 144.799 102.985 145.28C103.994 145.761 104.688 146.378 105.114 147.161C105.54 147.943 105.713 148.861 105.477 149.854C105.256 150.847 104.625 151.9 103.852 152.758C103.284 153.39 102.622 153.916 101.786 154.353C101.36 154.834 100.903 155.286 100.382 155.677C98.6945 156.956 96.4864 157.603 95.2562 159.153C94.0259 160.702 93.8051 163.155 93.6001 165.382C93.4108 167.608 93.2373 169.625 91.1239 170.919C89.0104 172.228 84.9727 172.829 82.7488 174.244C80.5249 175.658 80.1306 177.885 79.8152 180.037C79.4997 182.188 79.2789 184.249 77.4178 185.589C75.5567 186.913 72.0868 187.514 70.1468 188.598C68.2068 189.681 67.8125 191.261 67.4971 192.54C67.1816 193.819 66.9451 194.797 65.8725 195.805C64.7843 196.813 62.86 197.836 61.8033 199.19C60.7466 200.544 60.5731 202.23 59.5637 202.877C58.5385 203.508 56.6616 203.102 55.5891 202.365C54.5481 201.613 54.2957 200.559 54.7374 197.926Z" fill="#628DC2"/>
<path fill-rule="evenodd" clip-rule="evenodd" d="M62.5604 138.088C62.8758 136.929 63.3174 134.973 63.1597 133.108C63.002 131.242 62.2607 129.451 61.3301 128.308C60.3996 127.18 59.2955 126.698 58.3019 126.788C57.3082 126.879 56.4092 127.511 56.1411 128.624C55.873 129.737 56.2357 131.332 57.0401 133.002C57.8603 134.672 59.1378 136.418 60.0211 137.606C60.9043 138.795 61.3932 139.397 61.8664 139.999C62.0714 139.638 62.2607 139.262 62.5604 138.088Z" fill="#BA4F53"/>
<path fill-rule="evenodd" clip-rule="evenodd" d="M63.0821 138.6C63.9022 137.697 65.3533 136.252 67.0567 135.319C68.7601 134.387 70.7316 133.965 72.2458 134.056C73.7441 134.146 74.7851 134.748 75.274 135.59C75.763 136.418 75.7156 137.486 74.9113 138.329C74.0911 139.171 72.5139 139.773 70.6054 140.074C68.697 140.375 66.4573 140.345 64.9432 140.315C63.4291 140.285 62.6247 140.255 61.8203 140.209C62.0254 139.848 62.2462 139.487 63.0821 138.6Z" fill="#BA4F53"/>
<path fill-rule="evenodd" clip-rule="evenodd" d="M57.3088 149.448C57.5296 148.259 57.7978 146.288 57.4823 144.437C57.1669 142.587 56.2679 140.856 55.2584 139.803C54.2332 138.75 53.0976 138.359 52.104 138.524C51.1103 138.69 50.2744 139.382 50.1009 140.525C49.9274 141.654 50.4164 143.219 51.3785 144.814C52.3406 146.408 53.7758 148.064 54.7537 149.162C55.7316 150.275 56.2679 150.847 56.8041 151.419C56.9303 151.013 57.088 150.636 57.3088 149.448Z" fill="#BA4F53"/>
<path fill-rule="evenodd" clip-rule="evenodd" d="M57.861 149.914C58.6023 148.951 59.9114 147.402 61.536 146.333C63.1605 145.265 65.0847 144.693 66.5988 144.663C68.0972 144.633 69.1855 145.16 69.7533 145.942C70.3211 146.74 70.3684 147.793 69.6271 148.696C68.8858 149.598 67.3717 150.336 65.4948 150.772C63.6179 151.223 61.3782 151.374 59.8641 151.449C58.35 151.539 57.5456 151.569 56.7412 151.599C56.9147 151.238 57.104 150.862 57.861 149.914Z" fill="#BA4F53"/>
<path fill-rule="evenodd" clip-rule="evenodd" d="M53.0666 161.048C52.9562 159.86 52.7038 157.874 51.8994 156.158C51.1108 154.443 49.786 152.984 48.5084 152.201C47.2309 151.419 46.0322 151.329 45.1174 151.72C44.2026 152.111 43.5875 152.999 43.7137 154.127C43.8398 155.271 44.7388 156.655 46.0953 157.964C47.4517 159.288 49.2655 160.522 50.5115 161.364C51.7575 162.192 52.4199 162.613 53.0824 163.049C53.1297 162.658 53.177 162.252 53.0666 161.048Z" fill="#BA4F53"/>
<path fill-rule="evenodd" clip-rule="evenodd" d="M53.7287 161.364C54.2019 160.251 55.0536 158.43 56.3311 157.016C57.6087 155.602 59.3278 154.578 60.7789 154.187C62.2299 153.796 63.4128 154.037 64.1699 154.669C64.927 155.301 65.2424 156.324 64.785 157.377C64.3118 158.43 63.0343 159.499 61.3309 160.386C59.6275 161.274 57.514 161.951 56.063 162.402C54.6119 162.854 53.8549 163.08 53.082 163.29C53.1767 162.884 53.2555 162.478 53.7287 161.364Z" fill="#BA4F53"/>
<path fill-rule="evenodd" clip-rule="evenodd" d="M51.1266 173.326C50.7796 172.167 50.1171 170.287 48.9973 168.737C47.8617 167.202 46.2687 166.014 44.865 165.487C43.4613 164.96 42.2626 165.081 41.4424 165.637C40.6223 166.194 40.1964 167.172 40.5434 168.255C40.9062 169.339 42.0575 170.542 43.6505 171.581C45.2435 172.619 47.2781 173.507 48.6661 174.093C50.054 174.68 50.7953 174.981 51.5366 175.267C51.5209 174.891 51.4735 174.469 51.1266 173.326Z" fill="#BA4F53"/>
<path fill-rule="evenodd" clip-rule="evenodd" d="M51.8362 173.507C52.0728 172.333 52.5459 170.392 53.5238 168.752C54.5017 167.127 55.9685 165.803 57.3249 165.156C58.6656 164.509 59.88 164.524 60.7475 165.005C61.615 165.487 62.1354 166.42 61.8831 167.548C61.6307 168.662 60.6055 169.956 59.1072 171.129C57.6246 172.318 55.6688 173.371 54.344 174.078C53.0191 174.785 52.3094 175.147 51.5996 175.508C51.5996 175.101 51.5996 174.68 51.8362 173.507Z" fill="#BA4F53"/>
<path fill-rule="evenodd" clip-rule="evenodd" d="M50.7952 186.732C50.4009 185.589 49.6596 183.738 48.4767 182.233C47.278 180.744 45.6377 179.615 44.2182 179.149C42.7987 178.667 41.6 178.848 40.7956 179.435C40.007 180.021 39.6127 181.015 40.0227 182.098C40.4328 183.166 41.6315 184.325 43.2718 185.303C44.9121 186.281 46.9941 187.093 48.3978 187.62C49.8173 188.161 50.5586 188.417 51.3157 188.673C51.2368 188.282 51.1895 187.876 50.7952 186.732Z" fill="#BA4F53"/>
<path fill-rule="evenodd" clip-rule="evenodd" d="M51.5044 186.882C51.6936 185.694 52.0722 183.738 52.9712 182.068C53.8702 180.398 55.2897 179.028 56.6146 178.321C57.9237 177.614 59.1381 177.599 60.0214 178.035C60.9204 178.487 61.4724 179.39 61.2674 180.518C61.0623 181.646 60.0844 182.97 58.6492 184.204C57.2139 185.438 55.3212 186.582 54.0279 187.349C52.7346 188.101 52.0406 188.492 51.3466 188.869C51.3309 188.492 51.3151 188.071 51.5044 186.882Z" fill="#BA4F53"/>
<path fill-rule="evenodd" clip-rule="evenodd" d="M59.028 207.119C58.2078 205.419 56.4413 203.493 55.4004 201.312C47.4512 184.746 52.8295 158.385 60.8891 142.436C68.7437 126.909 76.2197 124.893 77.2764 123.027L76.3932 123.177C76.2355 123.237 75.8885 123.403 75.7308 123.493C72.1505 125.479 68.8541 128.925 66.4725 131.964C61.867 137.847 57.9555 145.807 55.6527 152.622C54.454 156.143 53.2869 159.95 52.6875 163.245C51.9462 167.217 51.2523 170.332 51.063 174.199C50.9684 176.125 50.7949 177.734 50.7318 179.721C50.5425 184.716 51.2365 191.276 52.656 196.346C53.2238 198.348 53.902 200.228 54.9114 202.199C55.5108 203.358 56.7725 205.6 57.7504 206.593C58.4444 207.315 58.334 207.24 59.028 207.119Z" fill="#BA4F53"/>
<path fill-rule="evenodd" clip-rule="evenodd" d="M73.5699 126.141C74.5635 125.991 76.3142 125.75 77.7022 125.374C79.0902 124.998 80.1469 124.471 80.8566 123.884C81.5664 123.298 81.9449 122.666 82.0553 122.019C82.1657 121.387 81.9922 120.74 81.6926 120.228C81.3771 119.717 80.9355 119.31 80.3992 119.085C79.863 118.874 79.2479 118.829 78.6012 118.994C77.9545 119.16 77.2606 119.551 76.6139 119.987C75.9672 120.424 75.3364 120.935 74.7528 121.582C74.1692 122.229 73.6172 123.027 73.1756 123.869C72.7339 124.697 72.387 125.57 72.2135 126.006C72.04 126.442 72.04 126.442 72.1819 126.397C72.3081 126.352 72.5762 126.292 73.5699 126.141Z" fill="#BA4F53"/>
<path fill-rule="evenodd" clip-rule="evenodd" d="M95.2573 151.9C86.0778 158.355 81.7247 162.102 74.6588 170.798C69.9586 176.576 64.0914 183.994 61.1735 190.569C59.6909 193.909 58.7604 197.099 57.5459 200.484C58.3818 197.249 59.5963 193.548 60.9212 190.463C63.7759 183.828 69.6116 176.335 74.2802 170.497C81.2989 161.725 85.6835 157.904 94.863 151.389L95.2573 151.9Z" fill="#FEFEFE"/>
<path fill-rule="evenodd" clip-rule="evenodd" d="M36.4266 196.978C36.3951 196.497 36.1112 198.483 36.1112 198.498C35.9535 199.627 35.985 200.409 35.985 201.537C35.985 202.952 36.19 204.652 36.3951 206.081C36.6474 207.857 37.2941 210.836 37.8461 212.596L37.9881 213.063C38.0038 213.138 38.0196 213.213 38.0512 213.303C38.0827 213.394 38.0985 213.424 38.13 213.529C38.5874 214.974 39.5337 217.516 40.1489 218.84C40.7324 220.074 41.2529 221.308 41.9311 222.527L42.3727 223.294C42.7671 224.031 43.114 224.513 43.5241 225.175C43.6818 225.431 44.0288 225.927 44.2023 226.123C44.4862 226.424 44.6439 226.499 45.1329 226.559C45.4956 226.604 45.8269 226.604 46.2369 226.604C46.4104 226.604 46.5524 226.634 46.7574 226.634H46.8521C47.0413 226.634 47.1675 226.604 47.3725 226.604L51.0948 226.574C54.8486 226.574 58.5077 226.589 62.2615 226.604C62.5139 226.604 62.6716 226.574 62.9082 226.574C63.1605 226.574 63.334 226.544 63.4917 226.439C63.9334 226.183 64.4381 225.25 64.7535 224.814C64.8639 224.663 64.9428 224.513 65.0374 224.362C65.6368 223.399 66.2046 222.346 66.7251 221.308L67.2613 220.18C67.2771 220.134 67.3086 220.089 67.3244 220.059L67.8764 218.81C67.9237 218.705 67.9395 218.675 67.9868 218.555C68.0499 218.374 68.1446 218.209 68.2076 218.043C68.8228 216.553 69.2959 215.29 69.8164 213.755C70.3211 212.28 70.8731 210.054 71.1886 208.474L71.4252 207.21C71.6302 206.021 71.9457 203.719 71.9614 202.53C71.9614 202.38 71.993 202.35 71.993 202.199C71.993 202.064 71.993 201.944 71.993 201.808L71.9772 199.792C71.9772 199.702 71.9772 199.612 71.9772 199.521C71.8983 198.739 71.8826 198.378 71.7248 197.565C71.6933 197.43 71.646 197.219 71.6302 197.099C71.7091 197.084 71.6618 197.099 71.7091 197.039C71.5671 197.009 71.504 196.918 71.2044 196.873L61.2521 196.858C61.0155 196.858 60.8736 196.888 60.6212 196.888H38.8713C38.3351 196.888 37.2783 196.798 36.7894 196.903C36.7263 196.918 36.6947 196.918 36.6159 196.948C36.5528 196.933 36.5213 196.963 36.4266 196.978Z" fill="#C89434"/>
<path fill-rule="evenodd" clip-rule="evenodd" d="M36.3947 206.066C36.6471 207.842 37.2937 210.821 37.8458 212.581L37.9877 213.048C38.0035 213.123 38.0193 213.198 38.0508 213.288C38.0823 213.379 38.0981 213.409 38.1297 213.514C38.5871 214.959 39.5334 217.501 40.1485 218.825C40.7321 220.059 41.2526 221.293 41.9308 222.512L42.3724 223.279C42.7667 224.016 43.1137 224.498 43.5238 225.16C43.6815 225.416 44.0285 225.912 44.202 226.108C44.4859 226.409 44.6436 226.484 45.1325 226.544C45.4953 226.589 45.8265 226.589 46.2366 226.589C46.4101 226.589 46.552 226.619 46.7571 226.619H46.8517C47.041 226.619 47.1671 226.589 47.3722 226.589L51.0944 226.559C53.6022 226.559 56.0784 226.574 58.5547 226.574C59.0594 225.701 59.5326 224.799 59.9742 223.911L60.6839 222.452C60.7155 222.391 60.7313 222.346 60.7628 222.286L61.4883 220.661C61.5514 220.541 61.5672 220.48 61.6303 220.345C61.7249 220.119 61.8353 219.894 61.9299 219.668C62.7343 217.742 63.3337 216.087 64.0119 214.101C64.6585 212.19 65.3841 209.301 65.7784 207.255L66.0938 205.615C66.3619 204.065 66.772 201.086 66.7878 199.551C66.7878 199.341 66.8193 199.311 66.8193 199.115C66.8193 198.949 66.8193 198.769 66.8193 198.603L66.8036 196.828H61.2675C61.0309 196.828 60.889 196.858 60.6366 196.858H38.871C38.7448 196.858 36.4105 196.723 36.3947 196.738C35.9846 197.099 35.8427 199.581 35.9373 201.914C36.0162 203.779 36.3159 205.54 36.3947 206.066Z" fill="#F6BF50"/>
<path fill-rule="evenodd" clip-rule="evenodd" d="M20.6704 164.073C24.7396 165.276 28.9508 166.615 33.0358 167.729C32.7204 164.419 32.1526 160.793 31.7267 157.482C31.6163 156.67 31.6321 156.775 31.5217 155.963C31.5059 155.797 31.6321 155.632 31.8056 155.617C31.9949 155.602 32.1526 155.722 32.1684 155.888C32.6573 159.649 33.1778 163.441 33.6194 167.217C33.714 168.045 33.9506 168.647 33.0201 168.376C28.8246 167.172 24.645 165.893 20.4654 164.659C20.2919 164.614 20.1972 164.434 20.2446 164.268C20.3076 164.118 20.4969 164.027 20.6704 164.073Z" fill="#FEFEFE"/>
<path fill-rule="evenodd" clip-rule="evenodd" d="M40.3383 199.657C40.496 203.779 41.0165 207.812 42.294 211.784C42.4517 212.25 42.4044 212.145 42.6095 212.536C42.8618 212.942 42.7356 213.454 42.3098 213.695C41.8997 213.95 41.3477 213.815 41.0953 213.424C40.7641 212.777 40.7956 212.912 40.5906 212.265C39.2657 208.173 38.7295 203.96 38.5718 199.702C38.556 199.235 38.9345 198.844 39.4235 198.814C39.9124 198.829 40.3225 199.19 40.3383 199.657Z" fill="#FEFEFE"/>
<path fill-rule="evenodd" clip-rule="evenodd" d="M330.373 185.438H258.436C257.931 185.438 257.474 185.558 257.08 185.769C257.821 188.222 258.294 191.577 258.294 195.293C258.294 199.1 257.805 202.545 257.017 205.013C257.427 205.254 257.916 205.389 258.436 205.389H330.373C331.84 205.389 333.039 204.306 333.039 202.967V187.845C333.039 186.521 331.84 185.438 330.373 185.438Z" fill="#FBEBB9"/>
<path fill-rule="evenodd" clip-rule="evenodd" d="M264.241 183.948H328.654C332.377 183.948 335.421 186.702 335.421 190.072V200.845C335.421 204.216 332.377 206.969 328.654 206.969H327.03H324.427H322.866H313.308H311.683H309.444H264.383C264.335 206.969 264.272 206.984 264.225 206.984H254.43C253.594 206.984 252.916 206.367 252.916 205.615C252.916 204.863 253.594 204.246 254.43 204.246H256.165V204.231H309.444H311.683H317.661H318.686H324.412H326.998H328.623C330.673 204.231 332.361 202.711 332.361 200.845V190.072C332.361 188.207 330.689 186.687 328.623 186.687H256.149H254.415C253.579 186.687 252.9 186.07 252.9 185.318C252.9 184.565 253.579 183.948 254.415 183.948H264.241Z" fill="#628DC2"/>
<path d="M324.505 190.554H263.972V191.066H324.505V190.554Z" fill="#C3B483"/>
<path d="M324.427 195.203H263.894V195.715H324.427V195.203Z" fill="#C3B483"/>
<path d="M324.348 199.867H263.814V200.379H324.348V199.867Z" fill="#C3B483"/>
<path fill-rule="evenodd" clip-rule="evenodd" d="M312.298 194.917H325.026V207.887L318.528 203.794L312.298 207.887V194.917Z" fill="#BA4F53"/>
<path fill-rule="evenodd" clip-rule="evenodd" d="M262.521 146.213H325.894C326.335 146.213 326.745 146.318 327.092 146.514C326.43 148.665 326.02 151.629 326.02 154.91C326.02 158.265 326.446 161.304 327.14 163.471C326.777 163.681 326.351 163.802 325.894 163.802H262.521C261.228 163.802 260.171 162.839 260.171 161.68V148.364C260.171 147.176 261.228 146.213 262.521 146.213Z" fill="#FBEBB9"/>
<path fill-rule="evenodd" clip-rule="evenodd" d="M320.785 144.919H264.036C260.755 144.919 258.074 147.341 258.074 150.305V159.8C258.074 162.764 260.755 165.186 264.036 165.186H265.471H267.758H269.131H277.553H278.972H280.944H320.643C320.69 165.186 320.737 165.186 320.785 165.186H329.412C330.137 165.186 330.737 164.644 330.737 163.982C330.737 163.32 330.137 162.779 329.412 162.779H327.882V162.764H280.944H278.972H273.704H272.79H267.743H265.456H264.02C262.207 162.764 260.724 161.424 260.724 159.784V150.29C260.724 148.65 262.207 147.311 264.02 147.311H327.898H329.428C330.153 147.311 330.768 146.77 330.768 146.108C330.768 145.446 330.169 144.904 329.428 144.904H320.785V144.919Z" fill="#BA4F53"/>
<path d="M321.005 150.742H267.679V151.194H321.005V150.742Z" fill="#C3B483"/>
<path d="M321.083 154.834H267.757V155.286H321.083V154.834Z" fill="#C3B483"/>
<path d="M321.147 158.927H267.821V159.379H321.147V158.927Z" fill="#C3B483"/>
</svg>
