<svg width="117" height="146" viewBox="0 0 117 146" fill="none" xmlns="http://www.w3.org/2000/svg">
<mask id="mask0_3491_30342" style="mask-type:alpha" maskUnits="userSpaceOnUse" x="3" y="3" width="114" height="140">
<rect x="3" y="3" width="114" height="139.949" rx="8" fill="#2642CA"/>
</mask>
<g mask="url(#mask0_3491_30342)">
<path d="M11.4089 51.8079C12.827 49.3553 15.9677 48.5151 18.4239 49.931L52.4547 69.549C54.9109 70.965 55.7525 74.101 54.3344 76.5535L-1.82568 173.679C-3.73446 176.98 -8.45517 177.121 -10.5586 173.94L-20.039 159.603C-20.9416 158.238 -22.4423 157.385 -24.0787 157.307L-40.4932 156.521C-44.3334 156.337 -46.617 152.16 -44.6947 148.835L11.4089 51.8079Z" fill="#D1D6EB"/>
<path d="M44.6693 51.8079C43.2512 49.3553 40.1104 48.5151 37.6542 49.931L3.62342 69.549C1.1672 70.965 0.325634 74.101 1.74373 76.5535L57.9038 173.679C59.8126 176.98 64.5333 177.121 66.6367 173.94L76.1171 159.603C77.0198 158.238 78.5205 157.385 80.1568 157.307L96.5713 156.521C100.412 156.337 102.695 152.16 100.773 148.835L44.6693 51.8079Z" fill="#D1D6EB"/>
<path d="M19.166 -28.0703C24.1645 -33.2266 32.4456 -33.2266 37.444 -28.0703L38.914 -26.554C42.4162 -22.9412 47.7234 -21.7317 52.4488 -23.4694L54.432 -24.1988C61.1761 -26.6789 68.6371 -23.0913 70.9 -16.2802L71.5654 -14.2773C73.1509 -9.50492 77.407 -6.11596 82.4195 -5.63445L84.5233 -5.43237C91.6771 -4.74517 96.8403 1.7195 95.9194 8.83641L95.6486 10.9293C95.0034 15.9159 97.3653 20.8131 101.672 23.4185L103.48 24.512C109.627 28.2304 111.469 36.2917 107.547 42.3049L106.394 44.0732C103.645 48.2864 103.645 53.7219 106.394 57.9351L107.547 59.7035C111.469 65.7166 109.627 73.7779 103.48 77.4963L101.672 78.5898C97.3653 81.1952 95.0034 86.0924 95.6486 91.079L95.9194 93.1719C96.8403 100.289 91.6772 106.753 84.5233 107.441L82.4195 107.643C77.407 108.124 73.1509 111.513 71.5654 116.286L70.9 118.289C68.6371 125.1 61.1761 128.687 54.432 126.207L52.4488 125.478C47.7234 123.74 42.4162 124.95 38.914 128.562L37.444 130.079C32.4456 135.235 24.1645 135.235 19.166 130.079L17.6961 128.562C14.1938 124.95 8.88663 123.74 4.16127 125.478L2.17802 126.207C-4.566 128.687 -12.027 125.1 -14.2899 118.289L-14.9554 116.286C-16.5409 111.513 -20.7969 108.124 -25.8095 107.643L-27.9132 107.441C-35.0671 106.753 -40.2303 100.289 -39.3094 93.1719L-39.0386 91.079C-38.3933 86.0924 -40.7552 81.1952 -45.0621 78.5898L-46.8697 77.4963C-53.0165 73.7779 -54.8593 65.7166 -50.937 59.7035L-49.7835 57.9351C-47.0353 53.7219 -47.0353 48.2864 -49.7836 44.0732L-50.937 42.3049C-54.8593 36.2917 -53.0165 28.2304 -46.8697 24.512L-45.0621 23.4185C-40.7552 20.8131 -38.3933 15.9159 -39.0386 10.9293L-39.3094 8.8364C-40.2303 1.7195 -35.0671 -4.74517 -27.9132 -5.43237L-25.8094 -5.63446C-20.7969 -6.11596 -16.5409 -9.50492 -14.9554 -14.2773L-14.2899 -16.2802C-12.027 -23.0913 -4.566 -26.6789 2.17803 -24.1988L4.16128 -23.4694C8.88663 -21.7317 14.1938 -22.9412 17.6961 -26.554L19.166 -28.0703Z" fill="url(#paint0_linear_3491_30342)"/>
<path fill-rule="evenodd" clip-rule="evenodd" d="M36.058 -23.7938L34.5881 -25.3101C31.1517 -28.855 25.4584 -28.855 22.022 -25.3101L20.5521 -23.7938C15.9553 -19.052 8.98961 -17.4645 2.78758 -19.7453L0.80433 -20.4746C-3.83219 -22.1797 -8.96165 -19.7132 -10.5174 -15.0306L-11.1828 -13.0277C-13.2638 -6.76399 -18.8499 -2.31597 -25.4288 -1.684L-27.5326 -1.48191C-32.4509 -1.00946 -36.0006 3.435 -35.3674 8.32787L-35.0966 10.4208C-34.2497 16.9657 -37.3498 23.3933 -43.0026 26.8128L-44.8102 27.9063C-49.0361 30.4627 -50.303 36.0049 -47.6064 40.1389L-46.453 41.9072C-42.8459 47.4371 -42.8459 54.5712 -46.453 60.1011L-47.6064 61.8694C-50.303 66.0034 -49.0361 71.5456 -44.8102 74.102L-43.0026 75.1955C-37.3498 78.615 -34.2497 85.0426 -35.0966 91.5875L-35.3674 93.6804C-36.0006 98.5733 -32.4509 103.018 -27.5326 103.49L-25.4288 103.692C-18.8499 104.324 -13.2638 108.772 -11.1828 115.036L-10.5174 117.039C-8.96165 121.722 -3.83219 124.188 0.80433 122.483L2.78757 121.754C8.9896 119.473 15.9553 121.06 20.5521 125.802L22.022 127.318C25.4584 130.863 31.1517 130.863 34.5881 127.318L36.058 125.802C40.6548 121.06 47.6205 119.473 53.8225 121.754L55.8057 122.483C60.4423 124.188 65.5717 121.722 67.1274 117.039L67.7929 115.036C69.8739 108.772 75.4599 104.324 82.0389 103.692L84.1426 103.49C89.0609 103.018 92.6106 98.5733 91.9775 93.6804L91.7067 91.5875C90.8598 85.0426 93.9598 78.615 99.6126 75.1955L101.42 74.102C105.646 71.5456 106.913 66.0034 104.216 61.8694L103.063 60.1011C99.456 54.5712 99.456 47.4371 103.063 41.9072L104.216 40.1389C106.913 36.0049 105.646 30.4627 101.42 27.9063L99.6126 26.8128C93.9598 23.3933 90.8598 16.9657 91.7067 10.4208L91.9775 8.32787C92.6106 3.435 89.0609 -1.00946 84.1427 -1.48191L82.0389 -1.684C75.4599 -2.31597 69.8739 -6.76398 67.7929 -13.0277L67.1274 -15.0306C65.5717 -19.7132 60.4423 -22.1797 55.8057 -20.4746L53.8225 -19.7453C47.6205 -17.4645 40.6548 -19.052 36.058 -23.7938ZM37.444 -28.0703C32.4456 -33.2266 24.1645 -33.2266 19.166 -28.0703L17.6961 -26.554C14.1938 -22.9412 8.88663 -21.7317 4.16128 -23.4694L2.17803 -24.1988C-4.566 -26.6789 -12.027 -23.0913 -14.2899 -16.2802L-14.9554 -14.2773C-16.5409 -9.50492 -20.7969 -6.11596 -25.8094 -5.63446L-27.9132 -5.43237C-35.0671 -4.74517 -40.2303 1.7195 -39.3094 8.8364L-39.0386 10.9293C-38.3933 15.9159 -40.7552 20.8131 -45.0621 23.4185L-46.8697 24.512C-53.0165 28.2304 -54.8593 36.2917 -50.937 42.3049L-49.7836 44.0732C-47.0353 48.2864 -47.0353 53.7219 -49.7835 57.9351L-50.937 59.7035C-54.8593 65.7166 -53.0165 73.7779 -46.8697 77.4963L-45.0621 78.5898C-40.7552 81.1952 -38.3933 86.0924 -39.0386 91.079L-39.3094 93.1719C-40.2303 100.289 -35.0671 106.753 -27.9132 107.441L-25.8095 107.643C-20.7969 108.124 -16.5409 111.513 -14.9554 116.286L-14.2899 118.289C-12.027 125.1 -4.566 128.687 2.17802 126.207L4.16127 125.478C8.88662 123.74 14.1938 124.95 17.6961 128.562L19.166 130.079C24.1645 135.235 32.4456 135.235 37.444 130.079L38.914 128.562C42.4162 124.95 47.7234 123.74 52.4488 125.478L54.432 126.207C61.1761 128.687 68.6371 125.1 70.9 118.289L71.5654 116.286C73.1509 111.513 77.407 108.124 82.4195 107.643L84.5233 107.441C91.6771 106.753 96.8403 100.289 95.9194 93.1719L95.6486 91.079C95.0034 86.0924 97.3653 81.1952 101.672 78.5898L103.48 77.4963C109.627 73.7779 111.469 65.7166 107.547 59.7035L106.394 57.9351C103.645 53.7219 103.645 48.2864 106.394 44.0732L107.547 42.3049C111.469 36.2917 109.627 28.2304 103.48 24.512L101.672 23.4185C97.3653 20.8131 95.0034 15.9159 95.6486 10.9293L95.9194 8.83641C96.8403 1.71951 91.6772 -4.74517 84.5233 -5.43237L82.4195 -5.63445C77.407 -6.11596 73.151 -9.50492 71.5654 -14.2773L70.9 -16.2802C68.6371 -23.0913 61.1761 -26.6789 54.432 -24.1988L52.4488 -23.4694C47.7234 -21.7317 42.4162 -22.9412 38.914 -26.554L37.444 -28.0703Z" fill="#F88A2E" fill-opacity="0.36"/>
<g filter="url(#filter0_d_3491_30342)">
<path d="M23.3847 23.4048C25.4725 19.4536 31.1399 19.4536 33.2278 23.4048L38.3276 33.0562C39.1328 34.58 40.6003 35.6446 42.3005 35.9383L53.0693 37.7988C57.478 38.5605 59.2294 43.9424 56.111 47.1461L48.4941 54.9714C47.2915 56.2069 46.7309 57.9294 46.9766 59.6347L48.5322 70.4359C49.1691 74.8579 44.5841 78.1841 40.569 76.2129L30.7616 71.3978C29.2132 70.6376 27.3993 70.6376 25.8509 71.3978L16.0435 76.2129C12.0284 78.1841 7.44336 74.8579 8.08024 70.4359L9.63591 59.6347C9.88152 57.9294 9.32097 56.2069 8.11841 54.9714L0.501464 47.1461C-2.6169 43.9424 -0.865568 38.5605 3.54316 37.7988L14.312 35.9383C16.0122 35.6446 17.4797 34.58 18.2848 33.0562L23.3847 23.4048Z" fill="white"/>
</g>
<path fill-rule="evenodd" clip-rule="evenodd" d="M28.3263 97.437C54.0097 97.437 74.8302 76.6479 74.8302 51.0032C74.8302 25.3585 54.0097 4.56944 28.3263 4.56944C2.64293 4.56944 -18.1776 25.3585 -18.1776 51.0032C-18.1776 76.6479 2.64293 97.437 28.3263 97.437ZM28.3263 104.581C57.961 104.581 81.9847 80.5932 81.9847 51.0032C81.9847 21.4132 57.961 -2.57422 28.3263 -2.57422C-1.30836 -2.57422 -25.332 21.4132 -25.332 51.0032C-25.332 80.5932 -1.30836 104.581 28.3263 104.581Z" fill="#FFAA46"/>
<path fill-rule="evenodd" clip-rule="evenodd" d="M85.8482 51.2141C85.8482 82.9959 60.045 108.76 28.2151 108.76C-3.61477 108.76 -29.418 82.9959 -29.418 51.2141C-29.418 19.4322 -3.61477 -6.33203 28.2151 -6.33203C60.045 -6.33203 85.8482 19.4322 85.8482 51.2141ZM28.2151 104.792C57.8498 104.792 81.8735 80.8041 81.8735 51.2141C81.8735 21.6241 57.8498 -2.36333 28.2151 -2.36333C-1.41961 -2.36333 -25.4433 21.6241 -25.4433 51.2141C-25.4433 80.8041 -1.41961 104.792 28.2151 104.792Z" fill="white"/>
</g>
<defs>
<filter id="filter0_d_3491_30342" x="-9.21376" y="18.8143" width="75.0408" height="72.6228" filterUnits="userSpaceOnUse" color-interpolation-filters="sRGB">
<feFlood flood-opacity="0" result="BackgroundImageFix"/>
<feColorMatrix in="SourceAlpha" type="matrix" values="0 0 0 0 0 0 0 0 0 0 0 0 0 0 0 0 0 0 127 0" result="hardAlpha"/>
<feOffset dy="6.50851"/>
<feGaussianBlur stdDeviation="4.06782"/>
<feComposite in2="hardAlpha" operator="out"/>
<feColorMatrix type="matrix" values="0 0 0 0 0.883333 0 0 0 0 0.658672 0 0 0 0 0.0809722 0 0 0 0.41 0"/>
<feBlend mode="normal" in2="BackgroundImageFix" result="effect1_dropShadow_3491_30342"/>
<feBlend mode="normal" in="SourceGraphic" in2="effect1_dropShadow_3491_30342" result="shape"/>
</filter>
<linearGradient id="paint0_linear_3491_30342" x1="-42.4445" y1="-26.3854" x2="107.572" y2="123.858" gradientUnits="userSpaceOnUse">
<stop stop-color="#FDB83D"/>
<stop offset="1" stop-color="#F9D534"/>
</linearGradient>
</defs>
</svg>
