<svg id="Layer_1" data-name="Layer 1" xmlns="http://www.w3.org/2000/svg" viewBox="0 0 71.38985 63.14961"><defs><style>.cls-1{fill:#c5deea;opacity:0.5;isolation:isolate;}.cls-2{fill:none;stroke:#23d2e2;stroke-miterlimit:10;stroke-width:2.56667px;}.cls-3{fill:#fff;}.cls-4{fill:#23d2e2;}.cls-5{fill:#7651f8;}</style></defs><path class="cls-1" d="M39.81505,63.14961A31.57481,31.57481,0,1,0,8.24023,31.57481,31.57478,31.57478,0,0,0,39.81505,63.14961Z"/><path class="cls-2" d="M16.20565,20.88131,0,20.82231"/><path class="cls-2" d="M68.274,26.78911H59.34375"/><path class="cls-2" d="M40.265,8.34122h17.8605"/><rect class="cls-3" x="14.95867" y="22.80893" width="27.12687" height="31.84459"/><rect class="cls-3" x="17.31753" y="13.37349" width="22.40915" height="2.35886"/><rect class="cls-3" x="16.1381" y="18.09121" width="24.76801" height="2.35886"/><path class="cls-4" d="M34.77308,44.81707a9.12288,9.12288,0,1,1,6.45148-2.6655A9.06444,9.06444,0,0,1,34.77308,44.81707Zm0-15.81614a6.63625,6.63625,0,0,0-4.72951,1.95785,6.69271,6.69271,0,1,0,9.459,0A6.56811,6.56811,0,0,0,34.77308,29.00093Z"/><path class="cls-4" d="M34.77308,44.22736A8.53907,8.53907,0,1,1,40.81176,41.727,8.48455,8.48455,0,0,1,34.77308,44.22736Zm0-15.82794a7.283,7.283,0,1,0,5.15411,2.13477A7.23487,7.23487,0,0,0,34.77308,28.39942Z"/><rect class="cls-4" x="40.71046" y="40.05373" width="2.4296" height="5.57865" transform="translate(-18.01499 42.19407) rotate(-45)"/><rect class="cls-4" x="41.30005" y="40.64343" width="1.25018" height="4.39923" transform="translate(-18.01502 42.19399) rotate(-45)"/><path class="cls-4" d="M52.724,57.74362a4.05594,4.05594,0,0,1-3.00755-1.33276l-7.2299-7.94935a3.58182,3.58182,0,0,1,5.05975-5.05975l7.94936,7.2299a4.10626,4.10626,0,0,1-2.77166,7.112Zm-7.57194-12.844a1.12329,1.12329,0,0,0-.802.33024,1.14581,1.14581,0,0,0-.07077,1.59223l7.2417,7.94935a1.63984,1.63984,0,0,0,2.35886.059,1.627,1.627,0,0,0-.0118-2.39424l-7.94935-7.2299A1.1095,1.1095,0,0,0,45.15206,44.89963Z"/><path class="cls-4" d="M52.724,57.1539a3.49148,3.49148,0,0,1-2.57116-1.13225l-7.2299-7.94935a2.97166,2.97166,0,0,1,.09435-4.10442l.03539-.03538a2.96621,2.96621,0,0,1,4.10441-.09436l7.94935,7.22991a3.47776,3.47776,0,0,1,.118,5.02437l-.04718.04718A3.47272,3.47272,0,0,1,52.724,57.1539Zm-7.57194-12.844a1.67521,1.67521,0,0,0-1.21481.50715l-.03538.03538a1.72149,1.72149,0,0,0-.059,2.37066l7.2299,7.94935a2.21185,2.21185,0,0,0,3.20805.08256l.04718-.04718a2.2233,2.2233,0,0,0-.07077-3.208l-7.94935-7.2299A1.70567,1.70567,0,0,0,45.15206,44.30992Z"/><path class="cls-5" d="M13.18953,56.08062V22.08947H43.25318v9.58876l-1.06149-1.45069a10.80113,10.80113,0,0,0-.89636-1.0497c-.09436-.09435-.18871-.17691-.27127-.25947l-.18871-.17691V24.5309H15.61915V53.651H40.81176V48.09589l1.10867-.28307a3.36438,3.36438,0,0,0,.50715.70766l.8256.89636v6.66378Z"/><path class="cls-5" d="M41.70813,28.765a9.42373,9.42373,0,0,1,.95534,1.12046V22.691H13.77925V55.49091H42.66347V49.65273l-.67228-.73124a4.40482,4.40482,0,0,1-.58971-.82561v6.14483h-26.372V23.94118h26.372V28.482C41.50763,28.56454,41.602,28.67069,41.70813,28.765Z"/><polygon class="cls-4" points="39.562 22.019 39.562 19.672 16.881 19.672 16.881 22.019 14.44 22.019 14.44 17.242 41.991 17.242 41.991 22.019 39.562 22.019"/><polygon class="cls-4" points="41.401 21.429 40.151 21.429 40.151 19.082 16.291 19.082 16.291 21.429 15.029 21.429 15.029 17.832 41.401 17.832 41.401 21.429"/><polygon class="cls-4" points="38.3 17.159 38.3 14.824 18.131 14.824 18.131 17.159 15.702 17.159 15.702 12.383 40.741 12.383 40.741 17.159 38.3 17.159"/><polygon class="cls-4" points="40.151 16.57 38.889 16.57 38.889 14.234 17.542 14.234 17.542 16.57 16.291 16.57 16.291 12.972 40.151 12.972 40.151 16.57"/><path class="cls-5" d="M18.46158,29.83832V27.3969H30.421l-1.33275,1.0497a9.48885,9.48885,0,0,0-.81381.73124c-.14153.14153-.28306.29486-.42459.44818l-.17692.20051H18.46158Z"/><path class="cls-5" d="M28.72261,27.98662a8.96459,8.96459,0,0,0-.87277.77842c-.15333.15333-.30666.31845-.44819.48357H19.05129v-1.2502h9.67132Z"/><path class="cls-5" d="M18.46158,34.48527V32.04386h7.81961l-.25947.77842a8.2126,8.2126,0,0,0-.29486,1.17943l-.09435.48356Z"/><path class="cls-5" d="M19.05129,32.63357h6.4161a9.24927,9.24927,0,0,0-.31845,1.25019H19.05129Z"/><path class="cls-5" d="M18.46158,39.12043V36.679h7.15913l.08256.49536a10.05163,10.05163,0,0,0,.27127,1.17943l.23589.76663Z"/><path class="cls-5" d="M25.11356,37.28052a9.16174,9.16174,0,0,0,.29486,1.2502H19.05129v-1.2502Z"/><path class="cls-5" d="M18.46158,43.76738V41.326H27.5078l.17691.2123c.17692.22409.37742.43639.57792.64869.18871.18871.37742.36562.57792.53074l1.2384,1.0379H18.46158Z"/><path class="cls-5" d="M28.47493,43.17767H19.05129v-1.2502h8.17345a6.81766,6.81766,0,0,0,.62509.68407C28.05034,42.812,28.26264,43.00075,28.47493,43.17767Z"/><rect class="cls-5" x="18.46158" y="45.98471" width="19.50776" height="2.44142"/><rect class="cls-5" x="19.05129" y="46.57442" width="18.34012" height="1.2502"/><polygon class="cls-5" points="29.749 34.78 31.754 33.388 34.077 36.703 37.804 31.372 39.797 32.763 34.077 40.949 29.749 34.78"/><polygon class="cls-5" points="34.077 39.922 30.574 34.922 31.6 34.202 34.077 37.729 37.946 32.185 38.984 32.917 34.077 39.922"/></svg>