<svg xmlns="http://www.w3.org/2000/svg" viewBox="0 0 35.78418 39.06055"><defs><style>.cls-1{fill:#2642ca;}</style></defs><g id="icon"><path class="cls-1" d="M17.8916,18.57129l.46387.94531.46338.94556,1.04248.15259,1.063.15551-.77784.7627-.74707.73266.17579,1.0315.18066,1.05981-.92871-.4917-.93555-.49487-.93506.49487-.93017.49219.18066-1.0603.17578-1.03125-.74707-.73267-.77734-.76294,1.06348-.15551,1.04248-.15259.46337-.94556.46387-.94531m0-4.54175-2.25928,4.6062-5.05224.7395,3.65527,3.5857-.86328,5.06323,4.51953-2.39111,4.51856,2.39111-.86328-5.06323,3.65624-3.5857-5.05224-.7395-2.25928-4.6062Z"/><path class="cls-1" d="M19.24023,11.544a1.14113,1.14113,0,0,1-1.13964-1.14063V7.17383a1.13064,1.13064,0,0,1,.334-.80664,1.144,1.144,0,0,1,.80566-.334h.377L17.91406,3.29883,16.21094,6.0332h.377a1.142,1.142,0,0,1,1.14063,1.14063v3.22949a1.14063,1.14063,0,1,1-2.28125,0V8.31445h-1.291a1.1407,1.1407,0,0,1-.96777-1.74511L16.94531.53711a1.14132,1.14132,0,0,1,1.93653,0l3.75878,6.03418a1.1402,1.1402,0,0,1-.96777,1.74414h-1.292v2.08789A1.142,1.142,0,0,1,19.24023,11.544Z"/><path class="cls-1" d="M16.22461,36.22461a1.15315,1.15315,0,0,1-.56836-.15039L4.21191,29.43555a1.14075,1.14075,0,0,1,1.14454-1.97364l11.44043,6.63575a1.13992,1.13992,0,0,1-.57227,2.127Z"/><path class="cls-1" d="M19.5166,36.25a1.141,1.141,0,0,1-.57324-2.12793l11.43457-6.627a1.14117,1.14117,0,0,1,1.14453,1.97461l-11.43457,6.627A1.15186,1.15186,0,0,1,19.5166,36.25Z"/><path class="cls-1" d="M32.72852,26.61719a1.142,1.142,0,0,1-1.14063-1.14063V12.0752a1.14063,1.14063,0,1,1,2.28125,0V25.47656A1.142,1.142,0,0,1,32.72852,26.61719Z"/><path class="cls-1" d="M30.99707,10.34277a1.152,1.152,0,0,1-.57324-.15429L23.12891,5.91113a1.14023,1.14023,0,0,1-.40723-1.56152,1.13973,1.13973,0,0,1,1.56152-.40723l7.292,4.27539a1.14062,1.14062,0,0,1-.57813,2.125Z"/><path class="cls-1" d="M4.78418,10.34375a1.14042,1.14042,0,0,1-.582-2.12207l6.88867-4.07422a1.14164,1.14164,0,0,1,1.5625.40234A1.14107,1.14107,0,0,1,12.252,6.1123L5.36426,10.18555A1.14916,1.14916,0,0,1,4.78418,10.34375Z"/><path class="cls-1" d="M3.05469,26.61719a1.142,1.142,0,0,1-1.14063-1.14063V12.0752a1.14063,1.14063,0,1,1,2.28125,0V25.47656A1.142,1.142,0,0,1,3.05469,26.61719Z"/><path class="cls-1" d="M17.8916,35.23242A1.142,1.142,0,0,1,16.751,34.0918V30.74121a1.14063,1.14063,0,0,1,2.28125,0V34.0918A1.142,1.142,0,0,1,17.8916,35.23242Z"/><path class="cls-1" d="M4.63184,27.34277a1.14058,1.14058,0,0,1-.5752-2.126l4.32715-2.52149A1.13135,1.13135,0,0,1,8.95605,22.54,1.14112,1.14112,0,0,1,9.53223,24.667L5.20508,27.18848A1.13855,1.13855,0,0,1,4.63184,27.34277Z"/><path class="cls-1" d="M26.30762,15.0498a1.14053,1.14053,0,0,1-.5752-2.126l4.66309-2.72071a1.14049,1.14049,0,0,1,1.56054.41211,1.14229,1.14229,0,0,1-.41015,1.55957l-4.66309,2.72071A1.149,1.149,0,0,1,26.30762,15.0498Z"/><path class="cls-1" d="M9.19629,15.08984a1.14,1.14,0,0,1-.58691-.16211L4.22266,12.2959a1.141,1.141,0,1,1,1.17382-1.957L9.7832,12.97168a1.1382,1.1382,0,0,1,.39063,1.56543A1.14259,1.14259,0,0,1,9.19629,15.08984Z"/><path class="cls-1" d="M30.78418,27.76855a1.15442,1.15442,0,0,1-.541-.13574L25.044,24.80371a1.141,1.141,0,1,1,1.09179-2.00391L31.33008,25.626a1.1406,1.1406,0,0,1-.5459,2.14257Z"/><path class="cls-1" d="M17.8916,39.06055a3.05469,3.05469,0,1,1,3.05469-3.05469A3.05788,3.05788,0,0,1,17.8916,39.06055Zm0-3.82813a.77393.77393,0,1,0,.77442.77344A.77521.77521,0,0,0,17.8916,35.23242Z"/><path class="cls-1" d="M32.72852,13.21582a3.05518,3.05518,0,1,1,3.05566-3.05566A3.05809,3.05809,0,0,1,32.72852,13.21582Zm0-3.8291a.77393.77393,0,1,0,.77441.77344A.77521.77521,0,0,0,32.72852,9.38672Z"/><path class="cls-1" d="M32.72852,30.44531a3.05469,3.05469,0,1,1,3.05566-3.05469A3.05788,3.05788,0,0,1,32.72852,30.44531Zm0-3.82812a.77393.77393,0,1,0,.77441.77343A.7752.7752,0,0,0,32.72852,26.61719Z"/><path class="cls-1" d="M3.05469,30.44531a3.05469,3.05469,0,1,1,3.05469-3.05469A3.05788,3.05788,0,0,1,3.05469,30.44531Zm0-3.82812a.77393.77393,0,1,0,.77343.77343A.77541.77541,0,0,0,3.05469,26.61719Z"/><path class="cls-1" d="M3.05469,13.21582a3.05518,3.05518,0,1,1,3.05469-3.05566A3.05809,3.05809,0,0,1,3.05469,13.21582Zm0-3.8291a.77393.77393,0,1,0,.77343.77344A.77542.77542,0,0,0,3.05469,9.38672Z"/></g></svg>