<svg width="49" height="44" viewBox="0 0 49 44" fill="none" xmlns="http://www.w3.org/2000/svg">
<path d="M7.068 29.9672L3.76279 29.4078C2.7458 29.2384 2 28.357 2 27.323V20.9329C2 19.9668 2.66104 19.1193 3.61023 18.882L7.068 18.0176V29.9672Z" stroke="#2642CA" stroke-width="2.5" stroke-miterlimit="10"/>
<path d="M28.0174 29.187C28.0174 30.9498 26.5767 32.3905 24.8139 32.3905C23.0511 32.3905 21.6104 30.9498 21.6104 29.187" stroke="#2642CA" stroke-width="2.5" stroke-miterlimit="10"/>
<path d="M16.9336 24.4411C16.9336 23.2885 17.8658 22.3394 19.0354 22.3394C20.2049 22.3394 21.1371 23.2716 21.1371 24.4411" stroke="#2642CA" stroke-width="2.5" stroke-miterlimit="10"/>
<path d="M28.5264 24.4411C28.5264 23.2885 29.4586 22.3394 30.6281 22.3394C31.7807 22.3394 32.7299 23.2716 32.7299 24.4411" stroke="#2642CA" stroke-width="2.5" stroke-miterlimit="10"/>
<path d="M20.8818 9.7627V11.7119C20.8818 15.2205 23.7294 18.0681 27.238 18.0681H38.6283" stroke="#2642CA" stroke-width="2.5" stroke-miterlimit="10"/>
<path d="M20.8824 9.7627V11.7119C20.8824 15.2205 18.0348 18.0681 14.5262 18.0681H11.0176" stroke="#2642CA" stroke-width="2.5" stroke-miterlimit="10"/>
<path d="M11.0176 17.2207V24.4074C11.0176 28.2211 12.56 31.662 15.0516 34.1705C16.8822 36.0011 19.2382 37.3232 21.8655 37.8995" stroke="#2642CA" stroke-width="2.5" stroke-miterlimit="10"/>
<path d="M38.629 17.2207V23.5599C38.629 28.7805 36.612 32.662 33.4424 35.1875" stroke="#2642CA" stroke-width="2.5" stroke-miterlimit="10"/>
<path d="M32.2221 42.6791H27.2898C25.9338 42.6791 24.832 41.5774 24.832 40.2214C24.832 38.8654 25.9338 37.7637 27.2898 37.7637H32.2221C33.5781 37.7637 34.6799 38.8654 34.6799 40.2214C34.6799 41.5774 33.5781 42.6791 32.2221 42.6791Z" stroke="#2642CA" stroke-width="2.5" stroke-miterlimit="10"/>
<path d="M42.6797 18.0171L45.9849 18.5764C47.0019 18.7459 47.7477 19.6273 47.7477 20.6613V27.0513C47.7477 28.0175 47.0866 28.865 46.1375 29.1023L42.6797 29.9667" stroke="#2642CA" stroke-width="2.5" stroke-miterlimit="10"/>
<path d="M7.06836 29.9672V19.7465C7.06836 14.848 9.0515 10.4071 12.272 7.20359C15.4755 3.98312 19.9163 2 24.8318 2C34.6288 2 42.5782 9.94946 42.5782 19.7465V31.8317C42.5782 37.815 37.7136 42.6796 31.7304 42.6796" stroke="#2642CA" stroke-width="2.5" stroke-miterlimit="10"/>
</svg>
