<svg id="Layer_1" data-name="Layer 1" xmlns="http://www.w3.org/2000/svg" viewBox="0 0 71.38985 63.14961"><defs><style>.cls-1{fill:#c5deea;opacity:0.5;isolation:isolate;}.cls-2{fill:none;stroke:#23d2e2;stroke-miterlimit:10;stroke-width:2.56667px;}.cls-3{fill:#fff;}.cls-4{fill:#23d2e2;}.cls-5{fill:#7850f7;}</style></defs><path class="cls-1" d="M36.9729,63.368A31.57482,31.57482,0,1,0,5.3981,31.79323,31.57484,31.57484,0,0,0,36.9729,63.368Z"/><path class="cls-2" d="M36.4552,6.98643l-16.2085-.0513"/><path class="cls-2" d="M67.255,30.087l-16.2085-.0513"/><path class="cls-2" d="M20.1439,14.63533H2.27991"/><path class="cls-2" d="M61.2113,40.30233H43.3473"/><path class="cls-3" d="M47.18989,51.188H3.44216V23.84568h11.4154l-.47843-5.46842H34.88582l.46488,5.46842H46.7251V45.97936l.46479,1.10731Z"/><path class="cls-4" d="M4.42628,52.74684a2.15007,2.15007,0,0,1-2.14637-2.14637V25.10371a2.15,2.15,0,0,1,2.14637-2.14638h10.5131v1.5722H4.42628a.57765.57765,0,0,0-.57419.57418V50.60047a.57765.57765,0,0,0,.57419.57418H45.31672a.57763.57763,0,0,0,.57418-.57418V25.10371a.57763.57763,0,0,0-.57418-.57418H34.81729v-1.5722H45.31672a2.15,2.15,0,0,1,2.14638,2.14638V50.60047a2.15,2.15,0,0,1-2.14638,2.14637Z"/><path class="cls-5" d="M39.94506,47.00321l-2.29672-7.19105,7.191,2.29672-3.58187,1.31245Zm-.72453-5.61886.77923,2.46081.45113-1.23045,1.23045-.45114Z"/><path class="cls-5" d="M41.21857,42.65621l-.725.725,2.407,2.407.725-.725Z"/><path class="cls-5" d="M38.71406,36.48829H23.94926V25.53771h14.7648ZM24.97458,35.47662H37.68874V26.57668H24.97458Z"/><path class="cls-5" d="M24.83889,35.29842l-.75183-.68358,3.78683-4.1697L29.323,32.031l2.06438-2.6522,3.63657,3.992,1.4628-1.5995,2.10533,2.31038-.76557.68357-1.33976-1.47645-1.4628,1.5995-3.58187-3.92362-2.06438,2.63856-1.50384-1.64054Z"/><path class="cls-5" d="M34.91431,30.89582a1.62685,1.62685,0,1,1,1.6269-1.6268A1.63074,1.63074,0,0,1,34.91431,30.89582Zm0-2.21473a.60153.60153,0,1,0,.60158.60158A.58972.58972,0,0,0,34.91431,28.68109Z"/><path class="cls-5" d="M10.74219,38.0252V32.95314l4.96267,2.52925Zm1.01167-3.40413v1.72255l1.69523-.86123Z"/><path class="cls-5" d="M18.52217,39.95114H7.31186V31.03755H18.52217ZM8.32352,38.92583h9.17333V32.04922H8.32352Z"/><path class="cls-3" d="M38.98736,19.74524H14.37922l1.36715-2.7343,1.36715-1.36706H36.25315l2.73421,2.73421Z"/><path class="cls-5" d="M35.88411,19.15658h-1.5722v7.45079h1.5722Z"/><path class="cls-5" d="M35.61108,19.42943H34.58567v6.90391h1.02541Z"/><path class="cls-3" d="M30.97192,52.50827H19.06135v4.581H30.97192Z"/><path class="cls-5" d="M13.88713,43.23223V39.15817h1.57219V41.66H34.31191V35.53535h1.55845v7.69688Z"/><path class="cls-5" d="M35.59734,42.95829H14.161V39.43111H15.1863V41.933H34.58567V35.80828h1.01167Z"/><path class="cls-4" d="M46.94417,47.972H2.78633v1.5722H46.94417Z"/><path class="cls-5" d="M37.55168,41.65884h-25.36V43.231h25.36Z"/><path class="cls-5" d="M37.27865,41.93178H12.46547v1.02531H37.27865Z"/><path class="cls-4" d="M34.32529,59.52689H15.418V56.3278H34.32529ZM16.42967,58.51522H33.3v-1.162H16.42967Z"/><path class="cls-4" d="M31.2771,57.353H18.46729v-5.9059H31.2771ZM19.49261,56.32771H30.25179V52.47244H19.49261Z"/><path class="cls-5" d="M13.88805,31.81705V18.7201a3.511,3.511,0,0,1,3.26743-3.49987v-.01365l.27339-.01365h18.8799A3.12762,3.12762,0,0,1,39.41211,18.474c0,.2734-.0273.98428-.0273.98428l-.0274.76566L19.958,20.21021l-.875-.1367.17774-.82027a3.60906,3.60906,0,0,0,.06835-.51948,1.94129,1.94129,0,1,0-3.88257,0V31.8307H13.88805ZM37.83991,18.638v-.17765a1.57613,1.57613,0,0,0-1.53114-1.70889H20.31352a3.52309,3.52309,0,0,1,.58783,1.87289H37.83991Z"/><path class="cls-5" d="M15.18721,31.54311h-1.0254V18.71956a3.23819,3.23819,0,0,1,3.24013-3.24005h.0273v-.01374H36.30913a2.85407,2.85407,0,0,1,2.82995,3.0077c0,.25974-.02739.97062-.02739.97062l-.01365.49218-19.126-.01366-.54678-.082.123-.53322a2.87687,2.87687,0,0,0,.06835-.58783,2.21473,2.21473,0,1,0-4.42945,0ZM20.62833,18.911H38.1c0-.16409.01375-.34174.01375-.45114a1.84124,1.84124,0,0,0-1.80464-1.98237H19.767a3.237,3.237,0,0,1,.88862,2.22846C20.642,18.77425,20.642,18.8426,20.62833,18.911Z"/></svg>