<svg id="Layer_1" data-name="Layer 1" xmlns="http://www.w3.org/2000/svg" xmlns:xlink="http://www.w3.org/1999/xlink" viewBox="0 0 61.00396 55.03988"><defs><style>.cls-1{fill:none;}.cls-2{clip-path:url(#clip-path);}.cls-3{fill:#0068e7;}.cls-4{fill:#ffbe50;}.cls-5{fill:#fff;}.cls-6{fill:#1cade3;}.cls-7{fill:#0099dc;}.cls-8{fill:#efac4d;}.cls-9{fill:#f4f4f4;}.cls-10{fill:#939393;}</style><clipPath id="clip-path"><rect class="cls-1" y="4.8057" width="61.00396" height="45.42848"/></clipPath></defs><g id="Layer_2" data-name="Layer 2"><g id="Design"><g class="cls-2"><path class="cls-3" d="M54.22421,37.17725H6.79343a1.38269,1.38269,0,0,1-1.36965-1.38751V6.19321A1.38274,1.38274,0,0,1,6.79343,4.8057H54.22421a1.38268,1.38268,0,0,1,1.3696,1.38751V35.78974A1.3826,1.3826,0,0,1,54.22421,37.17725Z"/><path class="cls-4" d="M54.21149,35.77624H6.79445a1.38867,1.38867,0,0,1-1.38332-1.394l0-.00753v1.40153A1.38864,1.38864,0,0,0,6.787,37.17759l.00752,0H54.19787a1.38868,1.38868,0,0,0,1.38341-1.39393l-.00005-.00747V34.37471a1.37731,1.37731,0,0,1-1.35286,1.40134Z"/><path class="cls-5" d="M52.49845,34.62391H8.50551a.68264.68264,0,0,1-.68491-.68037q0-.00669.00008-.01338V8.05229a.68263.68263,0,0,1,.6714-.69368q.00672-.00012.01343-.00009H52.49845a.68272.68272,0,0,1,.685.68043q0,.00666-.00008.01334V33.93016a.68273.68273,0,0,1-.6716.69367Q52.50512,34.62394,52.49845,34.62391Z"/><path class="cls-4" d="M52.49871,7.35852H8.51946a.69137.69137,0,0,0-.68483.69377v.69378a.69132.69132,0,0,1,.68483-.69378H52.49871a.69134.69134,0,0,1,.6848.69378V8.05229A.70046.70046,0,0,0,52.49871,7.35852Z"/><path class="cls-3" d="M57.5536,50.23418H3.45268A3.49561,3.49561,0,0,1,.549,44.85051l4.25959-6.71575a2.07443,2.07443,0,0,1,1.73944-.9575H54.45825a2.07417,2.07417,0,0,1,1.73939.9575l4.25963,6.71575a3.49559,3.49559,0,0,1-2.90367,5.38367Z"/><path class="cls-4" d="M57.55269,47.68136H3.4518a3.42953,3.42953,0,0,1-3.21867-2.22A3.489,3.489,0,0,0,3.4518,50.23444H57.55269a3.50012,3.50012,0,0,0,3.21868-4.77311A3.42938,3.42938,0,0,1,57.55269,47.68136Z"/><path class="cls-4" d="M39.26864,45.53025H21.73714a.69762.69762,0,0,1-.57525-1.08223L22.559,42.24175a1.36823,1.36823,0,0,1,1.16413-.6382H37.29626a1.38579,1.38579,0,0,1,1.16427.6382l1.397,2.20627a.70729.70729,0,0,1-.58888,1.08223Z"/><path class="cls-5" d="M6.1366,48.65223a.39732.39732,0,0,0-.39718.38861v1.19321h.7807V49.04084a.37692.37692,0,0,0-.365-.38849Q6.14587,48.65207,6.1366,48.65223Z"/><path class="cls-5" d="M7.8896,48.65223a.39733.39733,0,0,0-.39717.38861v1.19321h.78069V49.04084a.38548.38548,0,0,0-.38236-.3886Z"/><path class="cls-5" d="M9.6426,48.65223a.39732.39732,0,0,0-.39718.38861v1.19321h.7807V49.04084A.39458.39458,0,0,0,9.6426,48.65223Z"/><path class="cls-5" d="M51.37624,48.65223a.39726.39726,0,0,0-.39718.38861v1.19321h.78059V49.04084a.38538.38538,0,0,0-.38215-.3886Z"/><path class="cls-5" d="M53.12925,48.65223a.39725.39725,0,0,0-.39717.38861v1.19321h.78059V49.04084A.39449.39449,0,0,0,53.12925,48.65223Z"/><path class="cls-5" d="M54.86826,48.65223a.39732.39732,0,0,0-.39717.38861v1.19321h.78072V49.04084a.37693.37693,0,0,0-.365-.38849Q54.87754,48.65207,54.86826,48.65223Z"/><path class="cls-6" d="M26.14682,12.70117h-10.149a2.40056,2.40056,0,0,0-2.38317,2.41434V29.42118a2.40052,2.40052,0,0,0,2.38317,2.41433h10.149A2.4006,2.4006,0,0,0,28.53,29.42118V15.1294a2.4038,2.4038,0,0,0-2.37919-2.42819Z"/><path class="cls-7" d="M25.74886,12.31268H15.59975A2.40064,2.40064,0,0,0,13.21657,14.727V29.03271A2.40061,2.40061,0,0,0,15.59975,31.447H25.74886A2.40061,2.40061,0,0,0,28.132,29.03271V14.727A2.40064,2.40064,0,0,0,25.74886,12.31268Z"/><path class="cls-4" d="M25.32417,11.86841h-10.149A2.4006,2.4006,0,0,0,12.792,14.28275V28.58842a2.40057,2.40057,0,0,0,2.38322,2.41432h10.149a2.40053,2.40053,0,0,0,2.38318-2.41432V14.29663a2.40372,2.40372,0,0,0-2.379-2.42818Z"/><path class="cls-8" d="M22.44829,11.25809H12.79236a.765.765,0,0,0-.75331.76319V29.64313a.76506.76506,0,0,0,.75331.7632H26.21483a.76505.76505,0,0,0,.75333-.7632V15.837Z"/><path class="cls-9" d="M26.5436,15.40668V29.21286a.76493.76493,0,0,1-.75333.76307H12.36773a.76494.76494,0,0,1-.7533-.76307V11.59091a.765.765,0,0,1,.7533-.7632h9.656Z"/><path class="cls-10" d="M26.543,15.40668H22.76278a.765.765,0,0,1-.75333-.7632V10.82776Z"/><path class="cls-10" d="M18.81816,16.22546H14.16135a.40237.40237,0,0,1,0-.80474h4.65681a.40014.40014,0,0,1,.39718.40237.38352.38352,0,0,1-.36394.40215Q18.8348,16.22606,18.81816,16.22546Z"/><path class="cls-10" d="M23.83126,18.55651H14.17537a.40246.40246,0,0,1,0-.80484h9.65589a.40246.40246,0,0,1,0,.80484Z"/><path class="cls-10" d="M23.83126,20.18012H14.17537a.40237.40237,0,0,1,0-.80473h9.65589a.40237.40237,0,0,1,0,.80473Z"/><path class="cls-10" d="M23.83126,21.80322H14.17537a.40237.40237,0,0,1,0-.80473h9.65589a.40006.40006,0,0,1,.39718.40236A.40916.40916,0,0,1,23.83126,21.80322Z"/><path class="cls-10" d="M23.83126,23.41307H14.17537a.40247.40247,0,0,1,0-.80486h9.65589a.40247.40247,0,0,1,0,.80486Z"/><path class="cls-10" d="M18.81816,14.67147H14.16135a.40237.40237,0,0,1,0-.80474h4.65681a.40012.40012,0,0,1,.39718.40237.38352.38352,0,0,1-.36394.40215Q18.8348,14.67208,18.81816,14.67147Z"/><path class="cls-10" d="M16.81853,26.02158H14.16135a.40237.40237,0,0,1,0-.80474h2.65718a.40014.40014,0,0,1,.39718.40237.38369.38369,0,0,1-.3643.40215Q16.835,26.02217,16.81853,26.02158Z"/><path class="cls-10" d="M23.83178,26.02158H21.17461a.40237.40237,0,0,1,0-.80474h2.65717a.40237.40237,0,0,1,0,.80474Z"/><path class="cls-6" d="M47.80141,12.70117h-10.149a2.40056,2.40056,0,0,0-2.38317,2.41434V29.42118a2.40052,2.40052,0,0,0,2.38317,2.41433h10.149a2.40061,2.40061,0,0,0,2.38318-2.41433V15.1294a2.40382,2.40382,0,0,0-2.37919-2.42819Z"/><path class="cls-7" d="M47.40345,12.31268H37.25434A2.40064,2.40064,0,0,0,34.87116,14.727V29.03271A2.40061,2.40061,0,0,0,37.25434,31.447H47.40345a2.40061,2.40061,0,0,0,2.38318-2.41433V14.727A2.40064,2.40064,0,0,0,47.40345,12.31268Z"/><path class="cls-4" d="M46.97876,11.86841h-10.149a2.40058,2.40058,0,0,0-2.38318,2.41434V28.58842a2.40052,2.40052,0,0,0,2.38318,2.41432h10.149a2.40052,2.40052,0,0,0,2.38318-2.41432V14.29663a2.40372,2.40372,0,0,0-2.379-2.42818Z"/><path class="cls-8" d="M44.10288,11.25809H34.447a.765.765,0,0,0-.75334.76319V29.64313a.76507.76507,0,0,0,.75334.7632H47.86942a.76506.76506,0,0,0,.75333-.7632V15.837Z"/><path class="cls-9" d="M48.19819,15.40668V29.21286a.765.765,0,0,1-.75333.76307H34.0223a.76494.76494,0,0,1-.75334-.76307V11.59091a.765.765,0,0,1,.75334-.7632h9.656Z"/><path class="cls-10" d="M48.19754,15.40668H44.41737a.765.765,0,0,1-.75333-.7632V10.82776Z"/><path class="cls-10" d="M40.48664,16.22546H35.82983a.40237.40237,0,0,1,0-.80474h4.65681a.40237.40237,0,0,1,0,.80474Z"/><path class="cls-10" d="M45.48585,18.55651h-9.656a.40246.40246,0,0,1,0-.80484h9.656a.40246.40246,0,0,1,0,.80484Z"/><path class="cls-10" d="M45.48585,20.18012h-9.656a.40237.40237,0,0,1,0-.80473h9.656a.40237.40237,0,0,1,0,.80473Z"/><path class="cls-10" d="M45.48585,21.80322h-9.656a.40237.40237,0,0,1,0-.80473h9.656a.4.4,0,0,1,.39718.40236A.40916.40916,0,0,1,45.48585,21.80322Z"/><path class="cls-10" d="M45.48585,23.41307h-9.656a.40247.40247,0,0,1,0-.80486h9.656a.40247.40247,0,0,1,0,.80486Z"/><path class="cls-10" d="M40.48664,14.67147H35.82983a.40237.40237,0,0,1,0-.80474h4.65681a.40237.40237,0,0,1,0,.80474Z"/><path class="cls-10" d="M38.47312,26.02158H35.81594a.40237.40237,0,0,1,0-.80474h2.65718a.40013.40013,0,0,1,.39717.40237.38368.38368,0,0,1-.36429.40215Q38.48958,26.02217,38.47312,26.02158Z"/><path class="cls-10" d="M45.48637,26.02158H42.82919a.40237.40237,0,0,1,0-.80474h2.65718a.40237.40237,0,0,1,0,.80474Z"/></g></g></g></svg>