<svg id="Layer_1" data-name="Layer 1" xmlns="http://www.w3.org/2000/svg" viewBox="0 0 71.38985 63.14961"><defs><style>.cls-1{fill:#c5deea;opacity:0.5;isolation:isolate;}.cls-2{fill:none;stroke:#23d2e2;stroke-miterlimit:10;stroke-width:2.56667px;}.cls-3{fill:#7850f7;}.cls-4{fill:#23d2e2;}</style></defs><path class="cls-1" d="M38.3961,62.93667A31.57476,31.57476,0,1,0,6.82135,31.36192,31.57481,31.57481,0,0,0,38.3961,62.93667Z"/><path class="cls-2" d="M17.35415,11.40272l-16.20565-.059"/><path class="cls-2" d="M62.27015,30.65272l-16.2056-.059"/><path class="cls-2" d="M22.85855,20.32622H4.99811"/><path class="cls-2" d="M58.79215,39.57622H40.93175"/><path class="cls-3" d="M36.49135,11.12822l-.0101-.2148c-.0304-.0717.0104-.1534-.0312-.2235l-.012-.2091c-.0315-.0704.0124-.1518-.0323-.2202l-.1184-.9897c.0374-.0345-.042-.1307.0672-.1273.351,1.1895.625,2.3979.8681,3.6129q.23175,1.15785.4212,2.3241c.1075.6669.1833,1.3389.2746,2.0084.0126.0916.0336.182.0506.273.0343.069-.0131.1509.0343.218l.0101.1716c.0321.0693-.0138.1506.0331.2177l.0101.1716c.0304.0717-.0103.1534.0313.2235l.0132.2094c.0281.072-.0111.153.03.2231l.0146.253c.0253.0723-.0118.1526.0287.2229l.012.2524c.0314.0881-.0107.1844.0302.2715l.0143.2912c.0327.0999-.0173.2082.031.3065l.0135.3428c.0301.1159-.0176.2381.0287.3527l.0146.426a4.71425,4.71425,0,0,0,.0287.4825l.0109.5982c.0293.3133.0039.6274.0138.9409a.49188.49188,0,0,0,.0196.2313l-.0011.981a8.46666,8.46666,0,0,0-.0195.8969,1.0724,1.0724,0,0,1-.0106.2348l-.0121.6021c-.0519.1571.0045.3213-.0311.4795l-.0111.3882c-.0513.112.0009.2332-.0307.3469l-.0145.3396c-.0469.0996.0043.2095-.0323.3103l-.011.2521c-.0449.0849.0027.181-.0323.267l-.009.2147c-.0499.082.0023.1774-.0343.2612-.1237,1.0116-.2318,2.0256-.4025,3.0305a45.58392,45.58392,0,0,1-1.2311,5.3632,38.17743,38.17743,0,0,1-2.7929,6.8751q-.5847,1.114-1.2525,2.1814c-.0389.0622-.0767.1219-.1634.1134a2.34055,2.34055,0,0,0-.6676-.0021l-.594.0142c-.1157.033-.2385-.0169-.353.0301l-.2959.0132c-.0843.0319-.1784-.0168-.2607.032l-.2151.0113c-.0697.0298-.1502-.0145-.2174.0319a20.3481,20.3481,0,0,0-2.0276.2739c-1.1574.2067-2.3062.455-3.4429.7577-.0325.0087-.0987.0657-.1059-.0327a6.08168,6.08168,0,0,0,0-1.1305l-.0101-.2581c-.0314-.0704.0124-.1518-.0323-.2202a5.95444,5.95444,0,0,0-.1862-1.0457c-.0382-.1287.0039-.1387.0871-.1749a8.43545,8.43545,0,0,0,1.5139-.8031,2.813,2.813,0,0,0,1.3555-1.8514.9336.9336,0,0,0-.001-.4108,2.00209,2.00209,0,0,0-.5998-1.2654,1.6666,1.6666,0,0,0-.9518-.4162,1.58732,1.58732,0,0,0-.5405-.0011,3.6556,3.6556,0,0,0-1.0283.3288c-.549.1879-1.0873.4075-1.6277.6201-.0704.0277-.0802.0055-.1198-.0448a12.76766,12.76766,0,0,0-.895-1.0945,10.28539,10.28539,0,0,0-1.167-1.1925c-.2452-.1796-.4478-.4173-.6763-.6224-.5232-.4699-1.0746-.9059-1.6384-1.3225-.6405-.4734-1.2964-.9274-1.9744-1.349-.8185-.509-1.6451-1.002-2.4896-1.467-.9207-.5069-1.8592-.9775-2.80551-1.4327-.56607-.2723-1.12938-.5528-1.717-.7786-.02785-.0107-.0445-.0505-.06637-.0769l-.0021.003a6.61248,6.61248,0,0,1,1.12378.3118q1.862.53565,3.76313.902c.8878.1715,1.7816.3003,2.6768.4187a3.39938,3.39938,0,0,0,.7708.0554c.0724.0374.1541.0023.2278.0289l.2559.0122c.0982.0489.2071-.003.3068.0323l.3013.0101c.1414.0535.2914-.005.434.0332l.5584.0109a11.87119,11.87119,0,0,0,1.5656-.0008l.5173-.0091c.1301-.0387.2677.0169.3969-.0323l.2955-.012c.0863-.0328.1818.0132.2667-.0313l.2089-.0109c.0733-.0312.156.0072.2283-.0312a15.88743,15.88743,0,0,0,2.659-.447,15.56949,15.56949,0,0,0,3.8363-1.4701,13.92558,13.92558,0,0,0,2.0563-1.3857,12.29589,12.29589,0,0,0,1.4426-1.3696,13.13279,13.13279,0,0,0,1.8607-2.6589c.2958-.5612.5723-1.1285.8125-1.7138a17.69345,17.69345,0,0,0,.9064-2.9414c.1505-.6881.2659-1.3841.3867-2.0784.0443-.2548.0588-.5149.0869-.7725.0447-.0685.0008-.1499.0323-.2203l.012-.2091c.0411-.0702.002-.1512.0301-.2232l.0121-.2559c.049-.0982-.003-.2071.0323-.3068l.0101-.3014c.0511-.1269-.0011-.2618.0306-.3902l.0156-.5511a11.05426,11.05426,0,0,0,.0158-1.1797c-.0011-.436.0277-.8727-.0169-1.3082l-.0109-.555c-.0385-.1463.0159-.2991-.0312-.4447l-.0131-.3775c-.0362-.1134.0185-.2355-.0331-.3475l-.0127-.302c-.0275-.0868.0145-.1811-.0287-.2661l-.012-.2524C36.49015,11.30522,36.54075,11.21042,36.49135,11.12822Z"/><path class="cls-3" d="M35.92655,59.10472c.4856-.3313.986-.6433,1.452-1.0003a9.23293,9.23293,0,0,0,1.0532-.8714c.1734-.1792.3788-.3206.5532-.5019a8.40838,8.40838,0,0,0,1.2208-1.5441,3.40542,3.40542,0,0,0,.5256-1.5702.30475.30475,0,0,0,.0029-.2324,2.13158,2.13158,0,0,0-.4982-1.2836,4.3,4.3,0,0,0-1.7801-1.1754,10.969,10.969,0,0,0-2.0441-.5115c-.2815-.0555-.5725-.0627-.8593-.0919-.0871-.0403-.1828,0-.2711-.029l-.3424-.0121c-.2009-.0536-.4078.007-.6095-.0323h-.9113c-.2162.0381-.4372-.0196-.6528.0323l-.3853.011c-.1135.0361-.2356-.0185-.3476.0331l-.258.0101c-.0851.0337-.1801-.0149-.2635.0323l-.2124.011c-.0717.0304-.1533-.0104-.2234.0312-.4505.0324-.8949.1122-1.3422.1671-.6819.0837-1.3537.2156-2.0265.3469-1.1481.224-2.2785.52-3.402.8422-1.2364.3547-2.4519.7739-3.6476,1.2466-.6969.2755-1.3835.577-2.0644.893-.7817.3628-1.548.7516-2.2975,1.1751-.3514.1985-.698.4056-1.0468.6089-.0801.0538-.1192-.0139-.1575-.0598-.3862-.4625-.7486-.9436-1.1141-1.4224a.253.253,0,0,1-.0547-.1589,4.48123,4.48123,0,0,1,.882-.6349,32.06436,32.06436,0,0,1,3.7737-2.0623c1.1192-.5293,2.2679-.9885,3.4326-1.4085a44.3275,44.3275,0,0,1,5.7709-1.6362c.8751-.1873,1.7577-.3461,2.6488-.4476.2049-.0234.408-.0618.6118-.0932.0691-.0343.1509.0131.218-.0343l.1715-.0101c.0704-.0314.1518.0124.2202-.0323l.2124-.0109c.084-.0343.1789.0162.261-.0332l.2587-.0126c.0886-.0262.1836.012.2708-.0276l.3342-.0132c.1435-.0371.294.0186.4365-.0323l.6888-.0135q.49545-.02295.9909,0l.6455.0135c.1278.0509.2643-.0045.3933.0323l.291.0132c.0725.0368.1534.0036.2274.0276l.2155.0126c.0671.0469.1484.001.2178.0332a14.01805,14.01805,0,0,1,2.8561.6567,6.008,6.008,0,0,1,1.7482.9614,3.1326,3.1326,0,0,1,1.1606,1.9401c.0291.0707-.0131.1514.031.22l.0009.3812c-.0499.082.0023.1775-.0343.2613a6.66127,6.66127,0,0,1-1.8951,3.3389,20.002,20.002,0,0,1-4.4569,3.4165c-.1745.1039-.3537.2-.5307.2997C35.92785,59.16832,35.91685,59.14672,35.92655,59.10472Z"/><path class="cls-3" d="M25.02535,21.89342a4.55361,4.55361,0,0,1,4.1218,4.2963,1.95354,1.95354,0,0,1-.0023.4729,4.55978,4.55978,0,0,1-4.033,4.2525c-.0868.0275-.1811-.0145-.2661.0287h-.4586c-.0851-.0432-.1794-.0011-.2662-.0287a4.42865,4.42865,0,0,1-3.5893-2.5329,4.61992,4.61992,0,0,1-.4287-2.3325,4.36538,4.36538,0,0,1,1.0269-2.5526,4.43879,4.43879,0,0,1,3.0774-1.6023A6.82863,6.82863,0,0,1,25.02535,21.89342Z"/><path class="cls-4" d="M10.29108,49.37652a3.17224,3.17224,0,0,1,.65117-.6314c.2664-.2568.5725-.4725.8627-.7044a32.14794,32.14794,0,0,1,3.1743-2.2095,45.40857,45.40857,0,0,1,4.4182-2.3942q2.1297-1.011,4.3362-1.8431a5.65384,5.65384,0,0,1,.7784-.2658,1.236,1.236,0,0,1,1.4974.8905,1.26624,1.26624,0,0,1-.8501,1.5041q-2.13255.6756-4.2061,1.5188c-1.4123.5771-2.7871,1.2362-4.137,1.9443a32.70165,32.70165,0,0,0-4.6125,2.9283c-.2731.2077-.5357.4291-.8032.6443-.097.0308-.1431-.0366-.1923-.0992q-.418-.5316-.83139-1.067A.37885.37885,0,0,1,10.29108,49.37652Z"/><path class="cls-4" d="M35.34772,6.72169a1.92971,1.92971,0,0,0,.042.48667c.02537.0587-.006.12523.02529.18311l.00959.16535c.02529.05871-.00613.12524.02521.18312l.01055.16554c.02449.05761-.00854.1233.02521.17961v.25613c-.20507-.122-.39154-.22894-.57406-.3422-.53379-.33117-1.0658-.6652-1.59919-.997a.16682.16682,0,0,0-.17318-.00693c-.71284.32207-1.428.63891-2.14312.95591a1.79414,1.79414,0,0,1-.17253.05552c.17019-.69637.336-1.37522.50221-2.05392.03061-.12484.06557-.24864.09489-.37373a.2283.2283,0,0,0-.06646-.23223c-.25863-.28362-.509-.57606-.7664-.86009-.25059-.27651-.48844-.56568-.75361-.82938-.04985-.04961-.12058-.09372-.094-.18449.079-.03145.16681.01387.2447-.02792l.20813-.00816c.08015-.02832.16778.0135.24672-.026l.20588-.00792c.08095-.02959.16947.01181.24962-.02618l.23866-.01056c.07088-.02346.14772.00943.21756-.02343l.23519-.01048c.08015-.02832.16778.0135.2468-.026l.20588-.00792c.081-.0296.16939.01181.24954-.02618a1.90049,1.90049,0,0,0,.34079-.52443c.3234-.54736.63375-1.1024.9499-1.65406.01707-.02976.04059-.05579.07676-.10474.16561.404.31929.77761.47193,1.15164.16625.40745.33322.81462.49585,1.22353a.18859.18859,0,0,0,.15843.11143c.7706.1662,1.54192.32909,2.31276.494a1.18845,1.18845,0,0,1,.13564.0484c-.58582.49238-1.16.96475-1.71944,1.454-.11011.09632-.32421.15068-.25945.37813.024.05606-.01168.12087.02578.175l.01023.17377c.02175.0563-.01233.12047.02457.17463l.01023.17383C35.34482,6.60334,35.31075,6.66753,35.34772,6.72169Z"/><path class="cls-3" d="M12.256,62.61242c.509-.3613,1.0415-.6839,1.5586-1.0315.8328-.5598,1.6503-1.1391,2.4398-1.7598.682-.5362,1.3381-1.1003,1.9856-1.6772.5802-.5168,1.1315-1.0643,1.6577-1.6303a18.78927,18.78927,0,0,0,2.1997-2.8139.4745.4745,0,0,1,.2643-.2006,35.49143,35.49143,0,0,1,5.008-1.4546c.2318-.0441.4643-.0906.6988-.1128a1.35227,1.35227,0,0,1,.5292-.028A41.932,41.932,0,0,1,12.256,62.61242Z"/><path class="cls-4" d="M20.31115,47.07342a1.25669,1.25669,0,0,1,.1757,2.4219c-.7401.2874-1.4717.5925-2.1934.9232q-1.173.53745-2.3033,1.1585a25.612,25.612,0,0,0-2.6389,1.6515c-.0698.0248-.1095-.0282-.1574-.0604a.79656.79656,0,0,1-.2156-.2695.5711.5711,0,0,0-.1343-.1736.8851.8851,0,0,1-.1714-.2223.59639.59639,0,0,0-.1384-.1726,2.15348,2.15348,0,0,1-.4706-.6614,24.86205,24.86205,0,0,1,3.2515-2.2852,38.49294,38.49294,0,0,1,3.5208-1.8819,4.32983,4.32983,0,0,1,1.0897-.4323A1.36479,1.36479,0,0,1,20.31115,47.07342Z"/><path class="cls-4" d="M31.24805,60.40692a1.56066,1.56066,0,0,1,1.3081-1.3082,2.81254,2.81254,0,0,1,.5588-.0016,1.62082,1.62082,0,1,1-1.8194,2.1141c-.0263-.0832-.0064-.1703-.0504-.2458A2.98573,2.98573,0,0,1,31.24805,60.40692Z"/><path class="cls-3" d="M13.92145,54.04882q.61365.7851,1.2264,1.5708c.0277.0356.0511.0688.1.0702a2.46631,2.46631,0,0,1-.515.3067,13.437,13.437,0,0,1-.8874-1.1424.58156.58156,0,0,0-.1363-.18c-.0809-.1027-.2016-.1784-.2218-.3228A1.77481,1.77481,0,0,1,13.92145,54.04882Z"/><path class="cls-4" d="M13.00725,52.88112l.2091.2538c.0185.0547.1043.0942.0377.1679l-.3412.2246c-.0724.0254-.1071-.0285-.1479-.07a.58228.58228,0,0,0-.1531-.1673c-.2904-.3445-.551-.7125-.836-1.0615a.32663.32663,0,0,1-.099-.2087c.0679-.1836.2691-.2202.3858-.35l.504.6381a1.27574,1.27574,0,0,0,.1384.1838l.1643.2035A1.16474,1.16474,0,0,0,13.00725,52.88112Z"/><path class="cls-4" d="M10.29119,49.376c.32508.4272.65116.8537.97416,1.2826a.36989.36989,0,0,0,.1353.0991c-.1536.1032-.2519.2755-.4314.3467-.053.0197-.08036-.0189-.10559-.0514-.29893-.3853-.5954-.7726-.9004-1.1532a.25855.25855,0,0,1-.06366-.1779C9.97857,49.54822,10.15173,49.48122,10.29119,49.376Z"/><path class="cls-3" d="M13.47175,56.94332c-.346.2947-.3349.2868-.598-.0846-.2509-.3542-.5205-.6961-.7973-1.0306-.1627-.1967-.2153-.1963.0872-.3946a.46827.46827,0,0,0,.0622-.0589.12746.12746,0,0,1,.1472.058c.3472.4546.7072.8992,1.0481,1.3585C13.45335,56.83442,13.50515,56.87612,13.47175,56.94332Z"/><path class="cls-4" d="M11.65525,54.57612c-.2889.3047-.2987.3128-.5581.0035-.28866-.3442-.56013-.703-.83328-1.0599-.1105-.1444.03043-.3378.27078-.3811.10794.0288.14038.1327.20432.2053.27148.3397.53428.6862.80628,1.0254A.55719.55719,0,0,1,11.65525,54.57612Z"/><path class="cls-3" d="M13.07655,57.26812c-.3256.2479-.324.2466-.56-.0532-.2828-.359-.5628-.7208-.8559-1.0714-.1513-.181.0014-.2523.0951-.3542.1287-.1398.171.0095.2217.0734C12.34525,56.32672,12.70765,56.795,13.07655,57.26812Z"/><path class="cls-3" d="M12.38055,57.88432c-.3505-.4474-.6965-.8855-1.0376-1.3275-.0687-.0891-.1777-.1744-.0446-.31.1573-.1604.178-.165.3184.0174.3053.3966.5999.8026.9263,1.1811.1383.1603.1092.2327-.0415.3267A.90627.90627,0,0,0,12.38055,57.88432Z"/><path class="cls-4" d="M11.26235,54.94232a1.49657,1.49657,0,0,1-.2726.2548c-.09388.052-.0891-.081-.13143-.1276-.34305-.3773-.63407-.7961-.94693-1.1974-.15368-.1971.08978-.2268.15684-.3187.08156-.1119.1205.0151.16381.0707q.47382.608.94771,1.2158C11.20485,54.87212,11.231,54.90342,11.26235,54.94232Z"/><path class="cls-4" d="M10.88785,55.31142a1.18576,1.18576,0,0,1-.24857.2719c-.08616.0489-.10553-.083-.15042-.1395q-.42756-.53835-.85538-1.0764a.28475.28475,0,0,1,.083-.4256c.104-.0589.139.0499.17924.1006.27509.3467.54213.6998.81271,1.05C10.76488,55.16542,10.82533,55.23532,10.88785,55.31142Z"/><path class="cls-3" d="M12.27075,57.96342a.55556.55556,0,0,1-.2012.2238c-.0441.0341-.0957.0096-.1289-.038-.31-.4445-.6758-.8459-.9883-1.2894-.1256-.1782.0159-.2322.0948-.3119.1098-.1109.145.0323.1867.0842.3304.411.6544.8272.9797,1.2423C12.23505,57.90182,12.25155,57.93322,12.27075,57.96342Z"/><path class="cls-4" d="M9.01752,52.02452a3.23814,3.23814,0,0,0,.37813.5106c.14844.1859-.05861.2301-.12216.3241-.083.1226-.14915.0141-.19675-.0455-.26379-.3299-.52309-.6634-.78224-.997a.31365.31365,0,0,1,.10985-.4459c.0553-.0205.09345.0097.129.051.046.0533.06387.1302.13525.162A.93592.93592,0,0,1,9.01752,52.02452Z"/><path class="cls-4" d="M10.52423,55.71772a1.251,1.251,0,0,1-.21955.2535c-.093.0629-.10266-.0693-.138-.1135-.30276-.3793-.592-.7693-.8967-1.147-.14012-.1738.05162-.2372.10619-.323.073-.1147.1247.0256.16348.0746.30985.3908.61456.7858.921,1.1793C10.4782,55.66412,10.49718,55.68542,10.52423,55.71772Z"/><path class="cls-3" d="M10.769,56.88672c.03827.0447.06784.0763.09419.1104.32309.418.63889.8418.97159,1.2519.1342.1653-.0116.2301-.0869.3044-.0955.0943-.1273-.0089-.1823-.081q-.47385-.62085-.96856-1.2258a.09588.09588,0,0,1-.00658-.1393C10.64108,57.03382,10.70245,56.96762,10.769,56.88672Z"/><path class="cls-4" d="M8.87565,53.38192c-.29918-.3814-.587-.7542-.88191-1.1213a.30242.30242,0,0,1,.09064-.4444c.0708-.0315.09346.0217.12.0557.28944.3714.57341.747.86577,1.116.05185.0655.02257.1021-.00992.1474C9.002,53.21642,8.94071,53.29532,8.87565,53.38192Z"/><path class="cls-3" d="M11.55945,58.78332c-.0617.0765-.11.1798-.1905.2229-.0659.0352-.0957-.075-.1388-.1281-.3194-.3941-.63214-.7929-.92942-1.2043-.11219-.1552.04877-.2093.09771-.2831.07117-.1073.11434.0299.14649.07.32087.4.63572.8049.95092,1.2094A.86093.86093,0,0,1,11.55945,58.78332Z"/><path class="cls-4" d="M10.17585,56.14632a1.21454,1.21454,0,0,1-.17615.2167c-.07753.062-.10987-.0408-.14265-.0817q-.43621-.545-.86156-1.0986a.29265.29265,0,0,1,.08162-.386c.055-.0302.08088.0108.10522.0417q.4764.6069.9494,1.2165A.54949.54949,0,0,1,10.17585,56.14632Z"/><path class="cls-4" d="M7.80541,52.23142c.03258.0382.05543.0633.07638.0899q.42308.5361.84538,1.0727c.13033.1663-.05306.2455-.11872.335-.06971.0951-.12877-.0344-.16532-.0795-.26534-.3275-.52363-.6607-.78056-.9949-.05047-.0656-.09051-.142-.02008-.2245C7.69581,52.36782,7.74669,52.30332,7.80541,52.23142Z"/><path class="cls-4" d="M9.68552,56.84042a.151.151,0,0,1-.11438-.0734q-.44645-.573-.89382-1.1454c-.12075-.154.02969-.2453.0998-.3215.08067-.0877.11462.0421.15573.0942.28223.3579.5627.7171.8447,1.0751.04007.0509.09353.0961.04561.1687C9.777,56.708,9.729,56.77662,9.68552,56.84042Z"/><path class="cls-3" d="M11.23175,59.20512a.83265.83265,0,0,1-.1718.2335c-.0506.0337-.0866-.0696-.1248-.1184-.28471-.3644-.562-.7353-.863-1.0859-.13548-.1578-.04837-.2609.02328-.3838.02967-.0508.06837-.0466.10135-.004q.50208.6489,1.00239,1.2991A.46388.46388,0,0,1,11.23175,59.20512Z"/><path class="cls-4" d="M7.49213,52.67972c.32777.4195.61808.7902.90706,1.1618a.31633.31633,0,0,1-.0884.3664c-.0614.0262-.08308-.0189-.11507-.0599-.27211-.349-.55707-.6885-.81655-1.0465C7.27385,52.95622,7.46452,52.857,7.49213,52.67972Z"/><path class="cls-4" d="M9.56487,57.06082c-.0786.0643-.06678.1902-.1595.2218-.09442.0322-.097-.0754-.14046-.1252-.28763-.3295-.543-.6841-.81432-1.0263-.1148-.1448-.01063-.2429.06315-.3173.08522-.0859.12863.044.16869.0936.25962.3217.513.6484.76658.9749C9.49149,56.937,9.525,56.99882,9.56487,57.06082Z"/><path class="cls-4" d="M7.24576,53.22362c.303.3866.59192.7552.88068,1.1238.11257.1437-.01863.2593-.08463.3312-.08356.091-.12868-.0506-.17462-.11-.20653-.2671-.4106-.536-.61463-.805C7.073,53.52692,7.07357,53.52652,7.24576,53.22362Z"/><path class="cls-3" d="M9.89636,58.32622l.0705.0883c.294.3758.58958.7503.88014,1.1287.04806.0626.12235.1301.0466.2268-.03764.0481-.03814.142-.10127.1484-.06366.0065-.08671-.0764-.12526-.126-.28891-.3719-.57517-.7466-.88285-1.1026-.10208-.1181-.00508-.1689.01682-.2516a.1641.1641,0,0,1,.09532-.112Z"/><path class="cls-4" d="M9.15367,57.849c-.29836-.3774-.583-.7504-.883-1.1106-.13247-.1591-.0115-.2783.02138-.465.20329.2568.38227.4817.56.7077.09294.1182.17658.2445.27717.3556C9.27589,57.49872,9.33475,57.65822,9.15367,57.849Z"/><path class="cls-4" d="M7.776,55.239c-.28616-.2953-.49918-.6606-.78389-.9644-.15852-.1692-.0858-.3155-.0124-.5002a3.78829,3.78829,0,0,1,.49829.584c.10217.1087.17776.2422.27928.3517C7.91664,54.88232,7.967,55.05092,7.776,55.239Z"/><path class="cls-3" d="M9.649,58.87992q.37441.47655.7486.9535a2.92973,2.92973,0,0,0,.20755.2705c.09268.0934.04943.1791.01827.2744-.03135.0957-.08531.0963-.138.0299q-.46146-.5814-.9157-1.1684c-.09371-.1208.06207-.2207.02069-.3394Z"/><path class="cls-4" d="M7.5938,55.84032c-.20982-.2614-.399-.4959-.58691-.7313-.08762-.1098-.17165-.2224-.25988-.3317-.03576-.0443-.08011-.0731-.03046-.1444.04544-.0652.00009-.1975.09274-.219.09942-.0231.11874.1049.16922.1669q.29109.358.56818.7272C7.71166,55.52662,7.7086,55.52892,7.5938,55.84032Z"/><path class="cls-4" d="M8.97547,58.45132c-.29739-.3765-.58942-.7486-.88431-1.1184-.11065-.1388.00914-.2673.03382-.4208.26108.3398.50657.6934.78948,1.014a.3946.3946,0,0,1,.061.5252Z"/><path class="cls-3" d="M9.4768,59.52542c.212.2686.39179.4958.5709.7235.10577.1344.2085.2714.31629.4042a.39691.39691,0,0,1,.07979.4713,2.23911,2.23911,0,0,1-.38221-.4455,7.3318,7.3318,0,0,0-.52673-.677C9.37382,59.85242,9.45663,59.72852,9.4768,59.52542Z"/><path class="cls-3" d="M9.542,60.44942c.26581.3374.52415.6811.80031,1.0099a1.21152,1.21152,0,0,1,.21242.664c-.175-.2203-.35227-.4389-.52409-.6616a3.82766,3.82766,0,0,0-.35382-.4701.57539.57539,0,0,1-.17948-.4541C9.471,60.48722,9.46189,60.44572,9.542,60.44942Z"/><path class="cls-4" d="M6.67189,55.05172c.28371.3599.55539.6991.82009,1.0435.07864.1023.01519.2221-.00561.3277-.01284.0652-.06128.0404-.10295-.0135-.23626-.3059-.48887-.5996-.71518-.9124a.40612.40612,0,0,1,.00365-.4453Z"/><path class="cls-4" d="M8.00892,57.62892c.312.4026.5962.7691.87969,1.1362a.14485.14485,0,0,1,.03977.0733c-.00087.0919.02263.2368-.023.2651-.10366.0642-.12359-.0818-.17067-.1388-.22389-.271-.43725-.5506-.65522-.8265a.5742.5742,0,0,1-.07058-.5093Z"/><path class="cls-4" d="M8.114,58.588c.21641.2828.42016.5765.65323.8447a1.1985,1.1985,0,0,1,.271.7501c-.23451-.302-.4601-.6114-.70678-.903a1.21834,1.21834,0,0,1-.26926-.607C8.05065,58.627,8.03546,58.57892,8.114,58.588Z"/><path class="cls-4" d="M7.44171,57.27962c-.24047-.2421-.40913-.5221-.62234-.764a.74452.74452,0,0,1-.20154-.6631c.21827.282.4133.5497.62571.8028a.63853.63853,0,0,1,.19817.6243Z"/><path class="cls-4" d="M7.67785,58.41782a3.38848,3.38848,0,0,1-.87114-1.4315,3.7452,3.7452,0,0,1,.92072,1.3819C7.74149,58.41532,7.72041,58.42732,7.67785,58.41782Z"/><path class="cls-3" d="M13.74925,56.35992q-.46485-.61035-.9432-1.2101c-.053-.0579-.0816-.1548-.1924-.12-.072.0986-.212.1162-.2721.2288-.0068.0727.042.1193.0811.1697q.517.665,1.0354,1.3286c.0368.047.0601.1236.1478.0961l.3007-.2482A.66823.66823,0,0,0,13.74925,56.35992Z"/><path class="cls-4" d="M10.16963,51.76022c-.07651-.0898-.14219-.188-.22017-.2765-.22091-.2967-.45363-.5842-.681-.8758-.0405-.0519-.08189-.1021-.15951-.0749-.12422.1187-.26933.2273-.21229.4346.086.0052.11276.0809.1554.1346q.42667.5379.85,1.078a1.11939,1.11939,0,0,1,.284-.2956C10.23657,51.83582,10.20152,51.79772,10.16963,51.76022Z"/><path class="cls-3" d="M36.66605,13.93652c.0626.7079.0282,1.4171.0265,2.1257-.0003.1208-.0166.2414-.0254.3622Z"/><path class="cls-3" d="M20.53145,33.84282a9.895,9.895,0,0,1-1.5656.0008Z"/><path class="cls-3" d="M35.92585,59.10452l.0487.0489a1.672,1.672,0,0,1-.5917.2897A2.35438,2.35438,0,0,1,35.92585,59.10452Z"/><path class="cls-4" d="M9.72533,52.04112c-.20122-.2594-.39856-.5219-.60664-.7756-.07019-.0855-.108-.2045-.22764-.2447-.05626-.0144-.06529-.122-.15454-.074a.31953.31953,0,0,0-.099.485c.026.0337.05745.0631.08632.0945a1.77168,1.77168,0,0,1,.33605.4447c.08015.0992.15524.203.24133.2968.25921.2823.26086.2807.53354-.0224A.39227.39227,0,0,0,9.72533,52.04112Z"/><path class="cls-3" d="M38.39185,23.76892c-.0371-.39-.0311-.7813-.0334-1.1722a3.969,3.969,0,0,1,.0348.85C38.39935,23.55372,38.39265,23.66142,38.39185,23.76892Z"/><path class="cls-3" d="M24.11925,46.90432a3.93663,3.93663,0,0,1,0,1.1306Z"/><path class="cls-3" d="M38.36045,25.88072c.0024-.3774-.0049-.7551.0301-1.1317A7.10541,7.10541,0,0,1,38.36045,25.88072Z"/><path class="cls-3" d="M35.10415,47.54442h-.9908A3.12439,3.12439,0,0,1,35.10415,47.54442Z"/><path class="cls-4" d="M10.42767,51.26992c-.02144-.0784-.09851-.1151-.13633-.1813-.09361-.1311-.194-.2571-.297-.3809-.04819-.1066-.15635-.1665-.20921-.2695-.03339-.0714-.11647-.1044-.14185-.1821-.04772-.0622-.08229-.1474-.18839-.1069-.11656.0714-.14385.2189-.25268.297l.76449,1.0077c.11758.099.1664.2607.30764.3384.05974-.1403.2801-.1476.27939-.3379C10.55451,51.36362,10.45805,51.33932,10.42767,51.26992Z"/><path class="cls-3" d="M25.02525,21.89252l-.8182.0013A2.07891,2.07891,0,0,1,25.02525,21.89252Z"/><path class="cls-3" d="M32.76565,50.28152a3.05458,3.05458,0,0,1,.6528-.0323A2.40136,2.40136,0,0,1,32.76565,50.28152Z"/><path class="cls-3" d="M31.63285,46.90432a2.19751,2.19751,0,0,1,.6676.0021Z"/><path class="cls-3" d="M34.32815,50.24942a2.63111,2.63111,0,0,1,.6096.0323A2.1314,2.1314,0,0,1,34.32815,50.24942Z"/><path class="cls-4" d="M31.24725,60.40922l-.003.5584A.9809.9809,0,0,1,31.24725,60.40922Z"/><path class="cls-4" d="M33.11455,59.10022l-.5588.0016A.96268.96268,0,0,1,33.11455,59.10022Z"/><path class="cls-3" d="M24.755,40.45842a.979.979,0,0,1,.5404.001Z"/><path class="cls-3" d="M38.34785,21.999a1.87575,1.87575,0,0,1-.0288-.4824A1.37165,1.37165,0,0,1,38.34785,21.999Z"/><path class="cls-3" d="M8.5491,32.02752c-.12642.0346-.19679-.0954-.30587-.1115.11165.0085.23564-.0178.30372.1145Z"/><path class="cls-3" d="M29.14455,26.65852l.0023-.473A.6992.6992,0,0,1,29.14455,26.65852Z"/><path class="cls-3" d="M38.31735,26.96382a1.86657,1.86657,0,0,1,.0312-.4794A1.34356,1.34356,0,0,1,38.31735,26.96382Z"/><path class="cls-3" d="M33.42485,47.56042a1.58784,1.58784,0,0,1-.4365.0324A1.10522,1.10522,0,0,1,33.42485,47.56042Z"/><path class="cls-3" d="M36.35425,9.14362l-.0672.1273-.0185-.3004c-.0138-.0434.0028-.0532.0419-.0381Z"/><path class="cls-3" d="M36.62415,12.93362a1.68484,1.68484,0,0,1,.0313.4447C36.582,13.23452,36.63375,13.08192,36.62415,12.93362Z"/><path class="cls-3" d="M18.40775,33.83512a1.40851,1.40851,0,0,1-.4341-.0332A1.11779,1.11779,0,0,1,18.40775,33.83512Z"/><path class="cls-3" d="M21.44575,33.805a1.299,1.299,0,0,1-.3969.0323C21.17625,33.76632,21.31335,33.81482,21.44575,33.805Z"/><path class="cls-3" d="M36.65185,16.97462a1.12031,1.12031,0,0,1-.0306.3902C36.63335,17.23492,36.58675,17.10042,36.65185,16.97462Z"/><path class="cls-3" d="M26.84675,42.14162a.60221.60221,0,0,1,.001.4106Z"/><path class="cls-4" d="M20.31055,47.07412l-.3857-.004a.486.486,0,0,1,.3857.004Z"/><path class="cls-3" d="M36.14235,47.59012a1.32394,1.32394,0,0,1-.3933-.0324C35.88015,47.56912,36.01605,47.52062,36.14235,47.59012Z"/><path class="cls-4" d="M7.6778,58.41872l.04957-.0496a.29528.29528,0,0,1,.08667.209C7.7104,58.55872,7.72751,58.46272,7.6778,58.41872Z"/><path class="cls-3" d="M38.30425,21.089a.978.978,0,0,1-.0287-.3527C38.33935,20.84942,38.296,20.97142,38.30425,21.089Z"/><path class="cls-3" d="M32.03225,50.32452a.91561.91561,0,0,1,.3476-.0331C32.26955,50.36042,32.148,50.31192,32.03225,50.32452Z"/><path class="cls-3" d="M36.57825,12.209a.91291.91291,0,0,1,.0331.3475C36.54235,12.44622,36.59085,12.32472,36.57825,12.209Z"/><path class="cls-3" d="M38.27545,27.69952a.99028.99028,0,0,1,.0306-.347C38.29455,27.46812,38.33965,27.58862,38.27545,27.69952Z"/><path class="cls-3" d="M30.68565,46.94812a.95333.95333,0,0,1,.353-.0301C30.92575,46.98442,30.80335,46.93922,30.68565,46.94812Z"/><path class="cls-3" d="M35.19415,59.54492a.18051.18051,0,0,1-.2244.1095Z"/><path class="cls-3" d="M36.611,17.665a.75029.75029,0,0,1-.0323.3068C36.58835,17.86942,36.54455,17.76142,36.611,17.665Z"/><path class="cls-4" d="M12.28565,53.64712c-.0395-.0868-.123-.1413-.1658-.2257-.0413-.0742-.1238-.1185-.1487-.2046a4.158,4.158,0,0,1-.3274-.4015c-.0882-.1376-.2312-.2379-.2757-.4052l-.0899-.0478c-.1016.1246-.3122.14-.3396.339l.0723.0921,1.0845,1.3819a.83048.83048,0,0,0,.3414-.3025l.003.0037A.595.595,0,0,0,12.28565,53.64712Z"/><path class="cls-3" d="M38.26185,20.39532a.752.752,0,0,1-.0311-.3065C38.29505,20.18562,38.25255,20.293,38.26185,20.39532Z"/><path class="cls-3" d="M38.22865,28.34632a.83228.83228,0,0,1,.0323-.3102C38.25265,28.13982,38.297,28.24892,38.22865,28.34632Z"/><path class="cls-3" d="M17.67205,33.79062a.74963.74963,0,0,1-.3067-.0323C17.46765,33.76792,17.57565,33.72412,17.67205,33.79062Z"/><path class="cls-3" d="M24.84475,30.94142a.69911.69911,0,0,1,.2662-.0287C25.02755,30.97182,24.934,30.93582,24.84475,30.94142Z"/><path class="cls-3" d="M24.12115,30.91272a.69859.69859,0,0,1,.2661.0287C24.29815,30.93582,24.20445,30.97182,24.12115,30.91272Z"/><path class="cls-3" d="M22.00805,33.75872a.596.596,0,0,1-.2668.0313C21.824,33.72672,21.91865,33.765,22.00805,33.75872Z"/><path class="cls-3" d="M36.53605,11.63962a.57864.57864,0,0,1,.0287.2661C36.50575,11.82242,36.54175,11.72872,36.53605,11.63962Z"/><path class="cls-3" d="M30.129,46.99432a.53182.53182,0,0,1,.2607-.032C30.309,47.02362,30.21615,46.98552,30.129,46.99432Z"/><path class="cls-3" d="M36.49115,11.12692a.5492.5492,0,0,1,.0331.261C36.46105,11.30762,36.50025,11.21412,36.49115,11.12692Z"/><path class="cls-3" d="M32.65365,47.60362a.63576.63576,0,0,1-.2708.0276C32.46805,47.572,32.56285,47.60782,32.65365,47.60362Z"/><path class="cls-3" d="M32.12435,47.64542a.55154.55154,0,0,1-.261.0331C31.94375,47.61532,32.03715,47.65452,32.12435,47.64542Z"/><path class="cls-3" d="M35.28135,50.29172a.59425.59425,0,0,1,.271.029C35.46155,50.316,35.36615,50.35312,35.28135,50.29172Z"/><path class="cls-3" d="M38.14145,29.34332a.53943.53943,0,0,1,.0342-.2613C38.16625,29.16942,38.20645,29.26322,38.14145,29.34332Z"/><path class="cls-3" d="M31.51085,50.36832a.55255.55255,0,0,1,.2634-.0323C31.69285,50.39922,31.599,50.36052,31.51085,50.36832Z"/><path class="cls-3" d="M42.858,52.09912a.60612.60612,0,0,1,.0342-.2612C42.88285,51.92522,42.92285,52.01912,42.858,52.09912Z"/><path class="cls-3" d="M38.18575,28.86562a.6164.6164,0,0,1,.0323-.267C38.21145,28.68812,38.25085,28.78322,38.18575,28.86562Z"/><path class="cls-3" d="M38.21615,19.79582a.65217.65217,0,0,1-.0302-.2714C38.24945,19.609,38.21115,19.70482,38.21615,19.79582Z"/><path class="cls-3" d="M40.73445,53.38572a.29055.29055,0,0,1-.0029.2324Z"/><path class="cls-3" d="M36.311,8.93362l-.0419.038a.13319.13319,0,0,1-.0272-.1474.1311.1311,0,0,1,.0691.1094Z"/><path class="cls-4" d="M8.1139,58.59012c-.06608-.0016-.041.0526-.05182.0848a.092.092,0,0,1-.01912-.1315C8.07441,58.51192,8.09775,58.56072,8.1139,58.59012Z"/><path class="cls-3" d="M42.89095,51.45822a.46155.46155,0,0,1-.031-.2199C42.91685,51.305,42.88575,51.38422,42.89095,51.45822Z"/><path class="cls-3" d="M31.07525,50.40882a.4257.4257,0,0,1,.2235-.0312C31.23105,50.43652,31.15065,50.40472,31.07525,50.40882Z"/><path class="cls-3" d="M9.54216,60.45032c-.03715.018-.03665.0552-.04466.088-.03568-.0481-.06581-.1027-.01649-.1521C9.49431,60.37292,9.53243,60.41652,9.54216,60.45032Z"/><path class="cls-3" d="M36.40625,10.26172a.39321.39321,0,0,1,.0323.2202C36.37985,10.41552,36.41165,10.33592,36.40625,10.26172Z"/><path class="cls-3" d="M31.25905,47.73042a.38105.38105,0,0,1-.218.0343C31.10605,47.70452,31.18565,47.73722,31.25905,47.73042Z"/><path class="cls-3" d="M31.65085,47.68842a.39212.39212,0,0,1-.2201.0323C31.49705,47.662,31.57665,47.69382,31.65085,47.68842Z"/><path class="cls-3" d="M37.09475,47.67772a.38946.38946,0,0,1-.2177-.0332C36.95035,47.65112,37.02945,47.619,37.09475,47.67772Z"/><path class="cls-3" d="M36.66105,47.63042a.46065.46065,0,0,1-.2274-.0276C36.51025,47.60522,36.59085,47.57482,36.66105,47.63042Z"/><path class="cls-3" d="M36.44935,10.68852a.42348.42348,0,0,1,.0312.2234C36.42165,10.84422,36.45345,10.76382,36.44935,10.68852Z"/><path class="cls-3" d="M29.69635,47.03642a.4021.4021,0,0,1,.2175-.032C29.84815,47.06142,29.76945,47.02992,29.69635,47.03642Z"/><path class="cls-3" d="M24.07715,46.42582a.39212.39212,0,0,1,.0323.2201C24.05065,46.57962,24.08255,46.5,24.07715,46.42582Z"/><path class="cls-3" d="M22.44525,33.716a.45411.45411,0,0,1-.2284.0312C22.28605,33.68642,22.36805,33.719,22.44525,33.716Z"/><path class="cls-3" d="M17.10965,33.745a.45184.45184,0,0,1-.2277-.029C16.95865,33.71872,17.03975,33.68742,17.10965,33.745Z"/><path class="cls-3" d="M38.17475,19.27272a.417.417,0,0,1-.0287-.2229C38.20115,19.11822,38.17105,19.19762,38.17475,19.27272Z"/><path class="cls-3" d="M36.52445,18.65922a.39259.39259,0,0,1-.0323.2202C36.49765,18.80522,36.46575,18.72552,36.52445,18.65922Z"/><path class="cls-3" d="M38.13105,18.79632a.41126.41126,0,0,1-.0301-.2231C38.15825,18.64122,38.12715,18.72122,38.13105,18.79632Z"/><path class="cls-3" d="M36.56635,18.22652a.40963.40963,0,0,1-.0301.2232C36.54015,18.37452,36.50915,18.29462,36.56635,18.22652Z"/><path class="cls-3" d="M38.08765,18.36312a.42475.42475,0,0,1-.0313-.2235C38.11535,18.20732,38.08345,18.28772,38.08765,18.36312Z"/><path class="cls-3" d="M38.04655,17.96772a.38946.38946,0,0,1-.0332-.2177C38.07205,17.81532,38.04,17.89452,38.04655,17.96772Z"/><path class="cls-3" d="M38.00375,17.57932a.38017.38017,0,0,1-.0342-.218C38.02975,17.42632,37.997,17.50592,38.00375,17.57932Z"/><path class="cls-3" d="M14.25865,56.20442l-.074-.0892c.0195.0264.0402.0518.0578.0795l.0202.0171Z"/><path class="cls-3" d="M13.77535,55.572a.05983.05983,0,0,1-.0046-.0277.05858.05858,0,0,1,.0087-.0267Z"/><path class="cls-3" d="M14.61235,55.77262c-.2422-.3183-.4918-.631-.7386-.9457a1.19108,1.19108,0,0,1-.1386-.1851l-.2476-.2912c-.1481.0493-.2366.1827-.3654.2594l.0537.1272a1.11107,1.11107,0,0,1,.2097.2626l.2996.3895.0951.1286.1732.2157.1691.2177c.0468.0647.1168.1129.139.1949.059.0299.0702.1357.1673.1046.0848-.1049.2394-.1262.3041-.255A.41.41,0,0,0,14.61235,55.77262Z"/><path class="cls-4" d="M11.36915,52.409l.2921.3827.3386.4332.1366.1736.1693.2164c.0493.0828.1639.1318.134.2558a1.51445,1.51445,0,0,0,.4743-.3447l-.1218-.0839c-.0505-.0584-.0948-.1217-.1482-.1776l-.966-1.246a.91959.91959,0,0,0-.3987.3427.18116.18116,0,0,0,.0601.0952c.016.0174.0294.0369.0444.0551A.2373.2373,0,0,1,11.36915,52.409Z"/><path class="cls-4" d="M11.94835,53.229l.051-.0034a.03761.03761,0,0,1-.051.0034Z"/><path class="cls-4" d="M12.36825,53.78612c.0154.0231.0331.0446.0469.0688l.0222.0181Z"/><path class="cls-3" d="M14.27675,56.20852a1.67375,1.67375,0,0,0-.1728-.2257c-.0394-.0865-.1222-.1412-.1652-.225-.0387-.0742-.1229-.1153-.1464-.2004a1.4738,1.4738,0,0,1-.1301-.15c-.0936-.1276-.1895-.2534-.2922-.3741a3.33088,3.33088,0,0,0-.2111-.274c-.0299-.0362-.0511-.0866-.1136-.0708a1.44958,1.44958,0,0,0-.2942.2243c-.0543.1002.0572.1406.0772.2139q.4956.5889.9461,1.2128l.177.2154c.1387-.0357.2177-.1666.3471-.2172C14.34455,56.28572,14.31,56.24732,14.27675,56.20852Z"/><path class="cls-4" d="M9.89948,49.72262c-.13238.1174-.29647.2054-.35938.3873a.23189.23189,0,0,1,.132.1726c.07052.0154.0959.0759.12906.1287l.20991.2625.30037.3896.16106.2085.15944.1725a2.06613,2.06613,0,0,0,.33714-.3392Z"/><path class="cls-4" d="M11.97045,54.07142c-.3314-.4153-.6499-.8408-.9806-1.2567-.0402-.0446-.0688-.1121-.15-.0759a1.25467,1.25467,0,0,0-.16608.1571c-.04122.0554-.16679.0777-.09161.1903a.6795.6795,0,0,1,.17321.2168c.28737.3366.55757.6866.81517,1.0464l.1379.1693a1.94223,1.94223,0,0,0,.3397-.2979A.49173.49173,0,0,0,11.97045,54.07142Z"/></svg>