<svg width="71" height="64" viewBox="0 0 71 64" fill="none" xmlns="http://www.w3.org/2000/svg">
<path opacity="0.5" d="M38.5056 63.4427C55.9412 63.4427 70.0756 49.3084 70.0756 31.8727C70.0756 14.4371 55.9412 0.302734 38.5056 0.302734C21.0699 0.302734 6.93555 14.4371 6.93555 31.8727C6.93555 49.3084 21.0699 63.4427 38.5056 63.4427Z" fill="#C5DEEA"/>
<path fill-rule="evenodd" clip-rule="evenodd" d="M21.7874 5.73047L37.9959 5.7818L37.9878 8.34846L21.7793 8.29712L21.7874 5.73047Z" fill="#23D2E2"/>
<path fill-rule="evenodd" clip-rule="evenodd" d="M52.5872 28.8301L68.7957 28.8814L68.7876 31.4481L52.5791 31.3967L52.5872 28.8301Z" fill="#23D2E2"/>
<path fill-rule="evenodd" clip-rule="evenodd" d="M3.81641 13.4297H21.6804V15.9964H3.81641V13.4297Z" fill="#23D2E2"/>
<path fill-rule="evenodd" clip-rule="evenodd" d="M44.8828 39.0977H62.7468V41.6643H44.8828V39.0977Z" fill="#23D2E2"/>
<path d="M40.5809 26.9091C40.5809 33.5964 35.9953 39.217 29.8016 40.7933C28.6711 41.0799 29.0691 46.0158 27.8431 46.0158C27.0789 46.0158 24.7383 41.1754 24.0059 41.064C17.1593 39.9812 11.9209 34.0582 11.9209 26.9091C11.9209 18.9958 18.3376 12.5791 26.2509 12.5791C34.1642 12.5791 40.5809 18.9958 40.5809 26.9091Z" fill="white"/>
<path d="M51.7262 61.9386H5.55176V28.502H48.5418V55.8723L51.7262 57.162V61.9386Z" fill="white"/>
<path d="M49.5621 57.0004H4.23153C3.64241 57.0004 3.18066 56.5227 3.18066 55.9495V31.3178C3.18066 29.6301 4.54997 28.2607 6.23773 28.2607H8.27578C8.8649 28.2607 9.32664 28.7384 9.32664 29.3116C9.32664 29.9007 8.84898 30.3625 8.27578 30.3625H6.23773C5.7123 30.3625 5.2824 30.7924 5.2824 31.3178V54.8827H48.5112V31.3178C48.5112 30.7924 48.0813 30.3625 47.5559 30.3625H45.2631C44.674 30.3625 44.2122 29.8848 44.2122 29.3116C44.2122 28.7225 44.6899 28.2607 45.2631 28.2607H47.5559C49.2437 28.2607 50.613 29.6301 50.613 31.3178V55.9495C50.6289 56.5227 50.1512 57.0004 49.5621 57.0004Z" fill="#23D2E2"/>
<path d="M50.9622 63.5335H2.82936C1.69888 63.5335 0.775391 62.61 0.775391 61.4795V56.9417C0.775391 55.8112 1.69888 54.8877 2.82936 54.8877H50.9463C52.0768 54.8877 53.0003 55.8112 53.0003 56.9417V61.4795C53.0162 62.61 52.0927 63.5335 50.9622 63.5335ZM50.8986 56.9417L2.82936 56.9894L2.87712 61.4795L50.8986 61.4317V56.9417Z" fill="#23D2E2"/>
<path d="M30.0569 60.2668H23.7198C23.1307 60.2668 22.6689 59.7891 22.6689 59.2159C22.6689 58.6427 23.1466 58.165 23.7198 58.165H30.0569C30.646 58.165 31.1077 58.6427 31.1077 59.2159C31.1077 59.7891 30.646 60.2668 30.0569 60.2668Z" fill="#7850F7"/>
<path d="M26.9043 47.8331C26.5222 47.8331 26.1719 47.6261 25.9808 47.2917L22.5575 41.0661C18.5929 39.9038 15.2174 37.1811 13.2749 33.519C13.1475 33.2643 13.0201 33.0254 12.8927 32.7707C10.4566 27.5482 11.1254 21.4659 14.6124 16.8962C16.125 14.89 18.0675 13.3296 20.3762 12.2469C28.0985 8.66442 37.3015 12.024 40.8999 19.7463C43.1927 24.6822 42.6992 30.5416 39.5943 35.0475C38.0499 37.2926 35.9163 39.1077 33.4006 40.27C32.5408 40.6681 31.6173 41.0025 30.646 41.2413L27.8437 47.2599C27.6686 47.6261 27.3183 47.849 26.9202 47.8649C26.9202 47.8331 26.9043 47.8331 26.9043 47.8331ZM26.8725 12.8997C24.9936 12.8997 23.083 13.2978 21.2678 14.1417C19.2776 15.0652 17.6057 16.4185 16.2842 18.1541C13.259 22.1028 12.7017 27.3571 14.7875 31.8631C14.883 32.0701 14.9945 32.293 15.1059 32.5159C16.8574 35.7959 19.9145 38.2161 23.5129 39.1396C23.7995 39.2192 24.0383 39.3943 24.1657 39.6491L26.7929 44.4417L28.9424 39.8401C29.0857 39.5376 29.3563 39.3147 29.6748 39.251C30.6779 39.044 31.6173 38.7256 32.493 38.3275C34.6584 37.3244 36.5054 35.764 37.8429 33.8215C40.5337 29.9365 40.9636 24.8732 38.9734 20.6061C36.7283 15.7657 31.9039 12.8997 26.8725 12.8997Z" fill="#7850F7"/>
<path d="M27.1888 33.2163C27.0296 33.2163 26.8544 33.2163 26.6952 33.2163C23.5267 33.1208 20.3582 32.1336 20.4218 30.1592L20.5015 25.5418C20.5174 24.9527 21.0269 24.5228 21.5682 24.5068C22.1574 24.5228 22.6191 25.0004 22.6032 25.5736L22.5236 30.0796C22.8579 30.414 24.3546 31.0349 26.7589 31.0986C29.1631 31.1782 30.6917 30.6528 31.042 30.3344L31.1216 25.8602C31.1375 25.2711 31.6629 24.7934 32.1884 24.8253C32.7775 24.8412 33.2392 25.3189 33.2233 25.8921L33.1437 30.5095C33.1278 31.2101 32.6979 32.1495 30.8031 32.7386C29.8 33.0411 28.5263 33.2163 27.1888 33.2163ZM22.5077 30.1751C22.5077 30.1911 22.5077 30.1911 22.5077 30.1751V30.1751Z" fill="#7850F7"/>
<path d="M26.791 28.8981C26.6477 28.8981 26.4885 28.8662 26.3611 28.8025L17.8905 24.9812C17.5084 24.806 17.2695 24.4239 17.2695 24.0099C17.2695 23.596 17.5243 23.2138 17.9223 23.0546L26.6159 19.3925C26.9025 19.281 27.2209 19.281 27.4916 19.4243L35.9622 23.596C36.3444 23.787 36.5673 24.1692 36.5513 24.5991C36.5354 25.013 36.2647 25.3792 35.8667 25.5385L27.1732 28.8503C27.0458 28.8821 26.9184 28.8981 26.791 28.8981ZM20.9476 24.0577L26.8229 26.7167L32.8415 24.4239L26.9821 21.5261L20.9476 24.0577Z" fill="#7850F7"/>
</svg>
