<svg width="77" height="77" viewBox="0 0 77 77" fill="none" xmlns="http://www.w3.org/2000/svg">
<path opacity="0.5" d="M43.5046 70.4418C60.9402 70.4418 75.0746 56.3074 75.0746 38.8718C75.0746 21.4361 60.9402 7.30176 43.5046 7.30176C26.0689 7.30176 11.9346 21.4361 11.9346 38.8718C11.9346 56.3074 26.0689 70.4418 43.5046 70.4418Z" fill="#C5DEEA"/>
<path d="M42.9917 14.065L26.7832 14.0137" stroke="#23D2E2" stroke-width="2.56667" stroke-miterlimit="10"/>
<path d="M73.7915 43.5816L57.583 43.5303" stroke="#23D2E2" stroke-width="2.56667" stroke-miterlimit="10"/>
<path d="M64.8081 32.0318L48.5996 31.9805" stroke="#23D2E2" stroke-width="2.56667" stroke-miterlimit="10"/>
<path d="M26.6804 21.7139H8.81641" stroke="#23D2E2" stroke-width="2.56667" stroke-miterlimit="10"/>
<path d="M69.031 57.6475H51.167" stroke="#23D2E2" stroke-width="2.56667" stroke-miterlimit="10"/>
<path d="M32.84 39.86C33.3148 39.321 33.8538 38.8334 34.1747 38.1789C34.7008 37.1009 34.457 36.2026 33.4175 35.5994C32.378 35.0091 31.223 34.8422 30.068 34.8422C25.2812 34.8037 20.8537 36.1256 16.6828 38.3842C16.4775 38.4997 16.2593 38.6024 16.0412 38.7179C15.3995 38.6794 15.0273 38.2687 15.0273 37.5757C17.286 35.9074 19.8398 34.8679 22.5092 34.0722C25.5122 33.161 28.5665 32.6477 31.7107 32.9429C32.7502 33.0456 33.764 33.2509 34.6752 33.7771C36.0355 34.5599 36.4077 35.7534 35.689 37.1522C35.073 38.3586 34.1105 39.2697 32.994 40.0012C32.917 39.9627 32.8657 39.9242 32.84 39.86Z" fill="#23D2E2"/>
<path d="M41.7462 48.9841C42.2852 47.6622 42.8627 46.3404 43.3632 45.0057C43.5428 44.5437 43.761 44.3512 44.2615 44.4154C44.8005 44.4924 45.3523 44.2871 45.8785 44.5309C45.6475 45.0057 45.4422 45.4934 45.1983 45.9554C44.1845 47.9189 43.3246 49.9594 42.1568 51.8459C41.3226 53.1934 40.3473 54.3997 38.833 55.0414C38.3068 55.2724 37.9988 55.2981 37.8577 54.5666C37.6523 53.4501 37.601 53.4757 38.5378 52.9367C38.7688 52.8084 38.987 52.6416 39.1923 52.4747C39.8725 51.9229 40.2062 51.3197 39.9367 50.3572C39.449 48.5734 39.1282 46.7511 38.7175 44.9416C38.6148 44.5181 38.6662 44.3641 39.1282 44.4026C39.7057 44.4411 40.3987 44.2486 40.8222 44.5052C41.22 44.7491 41.066 45.5191 41.1558 46.0581C41.2328 46.5586 41.3098 47.0591 41.3868 47.5596C41.451 48.0216 41.5152 48.4836 41.5793 48.9584C41.6435 48.9584 41.6948 48.9712 41.7462 48.9841Z" fill="#7850F7"/>
<path d="M24.9734 55.0303C24.6782 54.9148 24.1392 55.0816 24.1007 54.7608C24.0366 54.2859 24.2291 53.7726 24.3189 53.2721C24.3189 53.2464 24.4472 53.2208 24.5114 53.2208C25.5124 53.3363 25.7306 52.6048 25.8846 51.8861C26.2952 49.8584 26.6802 47.8308 27.0524 45.7903C27.3091 44.4043 27.2962 44.4299 28.7207 44.3914C29.3111 44.3786 29.5549 44.4171 29.4009 45.1358C28.9132 47.4329 28.5154 49.7686 28.0662 52.0786C27.9251 52.8358 27.6812 53.5673 27.1551 54.1704C26.5776 54.8506 25.7947 54.9661 24.9734 55.0303Z" fill="#7850F7"/>
<path d="M11.8447 51.8472C12.2297 49.4345 12.8457 47.1245 12.9997 44.7503C13.0126 44.4937 13.1409 44.4167 13.3591 44.4295C13.4746 44.4295 13.6029 44.4295 13.7184 44.4295C14.8991 44.4295 14.8991 44.4295 14.8862 45.5973C15.1557 45.5845 15.2071 45.3278 15.3482 45.1867C15.6434 44.8915 15.9386 44.622 16.3236 44.4552C16.7086 44.3012 17.1706 44.1343 17.5042 44.3397C17.8122 44.5322 17.4529 44.9428 17.4401 45.2637C17.4401 45.5203 17.3502 45.777 17.2989 46.0465C17.2604 46.239 17.2091 46.393 16.9396 46.4058C15.5921 46.4443 15.0017 47.3427 14.7066 48.4848C14.4756 49.4088 14.2959 50.3585 14.1419 51.3082C14.0777 51.7188 13.9237 51.8857 13.4874 51.8472C12.9869 51.8215 12.4607 51.8472 11.8447 51.8472Z" fill="#7850F7"/>
<path d="M12.1271 34.3798C13.7056 32.7885 15.5792 31.6335 17.5299 30.5812C19.0956 29.7342 20.7254 29.0027 22.3937 28.4123C22.9969 28.1942 23.5359 28.4252 23.6899 28.9257C23.8567 29.4775 23.6129 29.9395 22.9841 30.1448C19.3137 31.3255 15.8872 32.981 12.8586 35.3937C12.2554 35.3295 12.0244 35.0087 12.1271 34.3798Z" fill="#23D2E2"/>
<path d="M13.4106 36.0617C15.0789 34.5602 17.0168 33.5207 19.0316 32.6095C19.5706 32.3657 20.0454 32.5582 20.2636 33.1228C20.4946 33.7132 20.2123 34.1238 19.6733 34.3292C17.7868 35.0607 16.0158 36.0232 14.3346 37.1525C13.6544 37.1012 13.3978 36.8188 13.4106 36.0617Z" fill="#23D2E2"/>
<path d="M29.9265 42.3869C29.9394 43.0286 29.3875 43.5933 28.7459 43.6061C28.117 43.6189 27.5395 43.0671 27.5139 42.4254C27.501 41.8094 28.0785 41.2063 28.7074 41.2063C29.3362 41.1934 29.9137 41.7453 29.9265 42.3869Z" fill="#7850F7"/>
<path d="M15.0271 37.5615C15.2709 38.0235 15.4763 38.524 16.0409 38.7037C15.7458 38.8962 15.4634 39.0887 15.1683 39.2812C14.7576 39.0117 14.4881 38.601 14.1416 38.2674C14.3598 37.9465 14.6806 37.7412 15.0271 37.5615Z" fill="#23D2E2"/>
<path d="M12.1278 34.3809C12.1534 34.8814 12.4999 35.1509 12.8721 35.3947C12.6154 35.6257 12.3716 35.8695 12.1149 36.1005C12.0764 36.0877 12.0508 36.0749 12.0123 36.0749C11.7428 35.7669 11.3963 35.5102 11.4989 35.0225C11.6658 34.7659 11.8454 34.522 12.1278 34.3809Z" fill="#23D2E2"/>
<path d="M11.9478 37.5359C11.935 37.2921 12.1531 37.2408 12.2943 37.1124C12.9616 37.0483 13.1413 37.4333 13.1541 37.9979C13.013 38.1519 12.8718 38.3059 12.7306 38.4599C12.3071 38.2931 12.0376 37.9979 11.9478 37.5359Z" fill="#23D2E2"/>
<path d="M13.4102 36.0605C13.5899 36.5354 13.7952 36.9845 14.3342 37.1385C14.1802 37.3567 13.9749 37.4979 13.7439 37.6134C13.3974 37.3439 13.1536 36.9845 12.8969 36.6509C12.8841 36.6252 12.8712 36.5867 12.8584 36.561C12.9867 36.33 13.1664 36.1632 13.4102 36.0605Z" fill="#23D2E2"/>
<path d="M13.1538 38.0118C12.9613 37.6268 12.7944 37.2162 12.2939 37.1263C12.4479 36.9082 12.6019 36.6772 12.8586 36.5488L12.8971 36.5745C13.1409 36.9467 13.4618 37.2803 13.6029 37.7167C13.5131 37.9092 13.3463 37.9862 13.1538 38.0118Z" fill="#23D2E2"/>
<path d="M12.9739 39.386C12.9868 39.2063 13.0894 39.1293 13.2563 39.0908C13.7696 39.2063 13.9236 39.6812 14.2059 40.0405C14.0391 40.1817 13.8851 40.31 13.7183 40.4512C13.3589 40.1688 12.9611 39.925 12.9739 39.386Z" fill="#23D2E2"/>
<path d="M13.2949 39.0011C13.4874 38.8214 13.6799 38.6417 13.8724 38.4492C14.1804 38.8086 14.4628 39.2064 14.7579 39.5786C14.6424 39.7069 14.5526 39.8609 14.3601 39.8866C13.7954 39.8352 13.7569 39.1679 13.2949 39.0011Z" fill="#23D2E2"/>
<path d="M11.9474 37.5361C12.204 37.8441 12.4735 38.1521 12.7302 38.473C12.7174 38.6398 12.6404 38.7296 12.4735 38.7296C11.9217 38.781 11.9089 38.1906 11.5752 37.9853C11.6522 37.8056 11.7677 37.6388 11.9474 37.5361Z" fill="#23D2E2"/>
<path d="M10.6514 36.0876C10.754 35.9464 10.8567 35.8052 10.9465 35.6641C11.4984 35.7026 11.6524 36.0747 11.7037 36.5496C11.6652 36.7036 11.5754 36.8062 11.4085 36.8319C10.9337 36.8704 10.9209 36.3827 10.677 36.1774C10.6642 36.1517 10.6642 36.1132 10.6514 36.0876Z" fill="#23D2E2"/>
<path d="M10.3692 36.6241C10.3563 36.3803 10.4847 36.2263 10.6515 36.0723L10.7028 36.1236C10.9467 36.3931 11.0108 36.7909 11.3702 36.9578C11.2547 37.1246 11.2162 37.3556 10.9595 37.3941C10.5745 37.2914 10.2922 37.0989 10.3692 36.6241Z" fill="#23D2E2"/>
<path d="M14.1285 38.2686C14.6803 38.3969 14.9241 38.8332 15.1551 39.2824C15.1166 39.4107 15.0011 39.4364 14.8856 39.4749C14.4493 39.2311 14.09 38.9102 13.9873 38.3969C14.0386 38.3456 14.09 38.3071 14.1285 38.2686Z" fill="#23D2E2"/>
<path d="M14.0004 38.3965C14.3597 38.7173 14.6421 39.0767 14.8987 39.4745C14.8474 39.513 14.8089 39.5515 14.7576 39.59C14.2186 39.3975 13.9619 38.9997 13.8721 38.4607C13.9106 38.435 13.9491 38.4093 14.0004 38.3965Z" fill="#23D2E2"/>
<path d="M12.974 39.3838C13.2178 39.7431 13.4745 40.0896 13.7183 40.449C13.7055 40.6158 13.59 40.6158 13.4617 40.603C13.128 40.7056 13.0895 40.3848 12.9227 40.2436C12.82 40.0768 12.7173 39.91 12.666 39.7175C12.666 39.4993 12.7687 39.3966 12.974 39.3838Z" fill="#23D2E2"/>
<path d="M11.7035 36.5501C11.4468 36.2549 11.3056 35.8699 10.9463 35.6646C10.9848 35.5106 11.1003 35.4208 11.2286 35.3438C11.6521 35.4336 11.7291 35.9212 12.0885 36.0881L12.1141 36.1137C12.0243 36.2934 11.896 36.4474 11.7035 36.5501Z" fill="#23D2E2"/>
<path d="M11.7039 39.6163C11.7039 39.7318 11.7039 39.8473 11.5627 39.873C11.2676 39.9756 11.1392 39.7575 10.9852 39.5778C10.9082 39.3083 10.9339 39.0645 11.1392 38.8591C11.4344 38.8335 11.4857 39.103 11.6526 39.2441C11.7167 39.3596 11.7937 39.4751 11.7039 39.6163Z" fill="#23D2E2"/>
<path d="M13.2953 39C13.8856 39.0128 13.9626 39.6417 14.3604 39.8855C14.3091 39.9368 14.2578 39.9882 14.2064 40.0395C13.7188 39.8983 13.5904 39.385 13.2568 39.0898C13.2439 39.0513 13.2568 39.0257 13.2953 39Z" fill="#23D2E2"/>
<path d="M10.5486 38.1666C10.5486 38.2565 10.5486 38.3463 10.5486 38.4361C10.2663 38.5131 10.1251 38.295 9.94543 38.1666C9.71443 37.8458 9.7401 37.5891 10.0994 37.3838C10.3946 37.5506 10.6128 37.7816 10.5486 38.1666Z" fill="#23D2E2"/>
<path d="M12.102 36.0876C11.5759 36.1133 11.4989 35.6256 11.2422 35.3433C11.2807 35.1893 11.3834 35.0995 11.5245 35.0225C11.717 35.3818 11.9095 35.7283 12.102 36.0876Z" fill="#23D2E2"/>
<path d="M13.6023 37.7037C13.1917 37.4342 13.012 37.0107 12.8965 36.5615C13.2815 36.8182 13.628 37.1134 13.7435 37.601C13.6922 37.6395 13.6408 37.678 13.6023 37.7037Z" fill="#23D2E2"/>
<path d="M10.3693 36.627C10.5746 36.8836 10.7671 37.1403 10.9725 37.397C10.8056 37.4483 10.9083 37.705 10.7158 37.7306C10.4335 37.6793 10.318 37.4611 10.2153 37.2301C10.2153 37.0248 10.0356 36.7681 10.3693 36.627Z" fill="#23D2E2"/>
<path d="M10.8305 40.5915C10.8305 40.3862 10.7663 40.168 10.946 40.0012C11.2283 39.9114 11.331 40.091 11.408 40.3092C11.3695 40.4889 11.4721 40.7584 11.1385 40.7455C11.1 40.7969 11.0486 40.8097 10.9845 40.7969C10.9075 40.7455 10.8818 40.6557 10.8305 40.5915Z" fill="#23D2E2"/>
<path d="M11.3566 38.6784C11.3823 38.4859 11.177 38.2164 11.5235 38.1137C11.9213 38.1009 11.9726 38.3832 12.024 38.6784C11.9598 38.8324 11.8443 38.9094 11.6903 38.9222C11.5235 38.9222 11.408 38.8452 11.3566 38.6784Z" fill="#23D2E2"/>
<path d="M11.9606 38.7167C11.8579 38.4986 11.8066 38.2291 11.5371 38.1264C11.5499 38.0751 11.5628 38.0366 11.5628 37.9852C12.1018 37.9339 12.0633 38.6012 12.4611 38.7296C12.4226 38.8451 12.4354 38.9862 12.2558 38.9862C12.1018 38.9734 11.9349 38.9477 11.9606 38.7167Z" fill="#23D2E2"/>
<path d="M11.4085 40.3092C11.2545 40.2065 11.1005 40.1038 10.9465 40.0012C10.8567 39.8472 10.8824 39.706 10.985 39.5777C11.2417 39.5648 11.3572 39.7958 11.5625 39.8728C11.4984 40.014 11.6139 40.2193 11.4085 40.3092Z" fill="#23D2E2"/>
<path d="M10.1897 37.2402C10.4207 37.3429 10.5876 37.5097 10.6902 37.7407C10.8186 37.9461 10.7031 38.0744 10.5362 38.1642C10.3822 37.9076 10.2282 37.6509 10.0742 37.3942C10.1256 37.3429 10.1641 37.2916 10.1897 37.2402Z" fill="#23D2E2"/>
<path d="M12.4602 41.618C12.5501 41.7977 12.4987 42.0158 12.3191 41.9773C12.0496 41.9132 11.8442 41.6693 11.7544 41.4127C11.6902 41.2458 11.8956 41.3485 11.9854 41.3228C12.2677 41.2458 12.3704 41.4127 12.4602 41.618Z" fill="#23D2E2"/>
<path d="M12.4605 41.6182C12.3065 41.5155 12.1525 41.4129 11.9857 41.323C11.96 41.1562 11.9857 41.0022 12.1012 40.8739C12.345 40.7584 12.4605 40.9637 12.6145 41.092C12.6915 41.2075 12.7813 41.3102 12.6915 41.4514C12.6273 41.5155 12.5375 41.5669 12.4605 41.6182Z" fill="#23D2E2"/>
<path d="M11.3695 36.9719C10.792 36.9719 10.8176 36.497 10.7021 36.1377C11.1385 36.1762 11.0615 36.728 11.4208 36.8435C11.4208 36.882 11.408 36.9334 11.3695 36.9719Z" fill="#23D2E2"/>
<path d="M12.6787 39.7051C12.884 39.7821 12.9995 39.9232 12.9995 40.1542C12.9867 40.2569 12.9225 40.3339 12.8198 40.3724C12.6017 40.4237 12.4477 40.3339 12.3193 40.1542C12.4348 40.0002 12.5503 39.8591 12.6787 39.7051Z" fill="#23D2E2"/>
<path d="M12.5636 41.17C12.4096 41.0673 12.2556 40.9775 12.1145 40.8748C12.076 40.6952 12.1658 40.554 12.2941 40.4513C12.5636 40.4 12.6535 40.6438 12.7946 40.7722C12.8588 40.8492 12.8973 40.9262 12.8716 41.0288C12.8075 41.1315 12.692 41.17 12.5636 41.17Z" fill="#23D2E2"/>
<path d="M12.7173 40.8593C12.5761 40.7181 12.435 40.577 12.3066 40.4358C12.3195 40.3331 12.3195 40.2433 12.3323 40.1406C12.512 40.192 12.6916 40.2433 12.8585 40.2818C12.9355 40.346 12.9611 40.423 12.974 40.5128C12.974 40.577 12.9611 40.6283 12.9355 40.6925C12.8841 40.7951 12.7943 40.8208 12.7173 40.8593Z" fill="#23D2E2"/>
<path d="M10.0478 39.4105C10.0863 39.5517 10.3943 39.7057 10.0991 39.8469C9.84246 39.9752 9.80396 39.7442 9.79113 39.5517C9.77829 39.4105 9.56013 39.2822 9.79113 39.141C10.0478 39.0512 10.035 39.2437 10.0478 39.4105Z" fill="#23D2E2"/>
<path d="M12.8457 40.5797C12.8457 40.4899 12.8457 40.3872 12.8457 40.2974C12.897 40.2461 12.9355 40.1947 12.9869 40.1562C13.1409 40.3102 13.3077 40.4514 13.4617 40.6054C13.4489 40.6952 13.4232 40.7722 13.4104 40.8621C13.128 40.9647 13.0125 40.7337 12.8457 40.5797Z" fill="#23D2E2"/>
<path d="M11.9606 38.7168C12.0632 38.8066 12.1659 38.8965 12.2557 38.9863C12.2172 39.1275 12.2044 39.2686 12.0247 39.3071C11.7681 39.4098 11.7167 39.2045 11.6397 39.0505C11.6141 38.9735 11.6397 38.9093 11.7039 38.858C11.7937 38.8066 11.8836 38.7681 11.9606 38.7168Z" fill="#23D2E2"/>
<path d="M11.7035 38.8592C11.6906 38.9106 11.6906 38.949 11.6906 39.0004C11.7933 39.1672 11.7805 39.2827 11.5495 39.2956C11.3185 39.2314 11.2928 38.9747 11.1388 38.8592C11.1131 38.6667 11.2543 38.7052 11.3698 38.6924C11.4725 38.7437 11.588 38.7951 11.7035 38.8592Z" fill="#23D2E2"/>
<path d="M11.1259 41.0277C11.1259 41.2073 11.1259 41.387 11.1259 41.5667C10.7024 41.3228 10.7024 41.3228 10.9206 41.0148C10.9976 40.9507 11.0618 40.9635 11.1259 41.0277Z" fill="#23D2E2"/>
<path d="M10.0478 39.4118C9.95799 39.322 9.86815 39.2321 9.77832 39.1423C9.80399 39.0268 9.77832 38.86 9.85532 38.8086C10.0222 38.6803 10.0863 38.8856 10.1633 38.9755C10.3173 39.1551 10.3045 39.322 10.0478 39.4118Z" fill="#23D2E2"/>
<path d="M32.8399 39.8604C32.8913 39.8989 32.9426 39.9374 32.9811 39.9887C32.8528 40.194 32.6603 40.3224 32.3779 40.3994C32.4164 40.0657 32.6603 39.9887 32.8399 39.8604Z" fill="#23D2E2"/>
<path d="M10.4076 38.5638C10.3691 38.6537 10.4333 38.7948 10.2793 38.8462C10.2408 38.6023 9.59909 38.705 9.93275 38.243C10.1894 38.2045 10.2793 38.4098 10.4076 38.5638Z" fill="#23D2E2"/>
<path d="M12.8457 40.5781C13.1024 40.5396 13.205 40.7963 13.4104 40.8605C13.3334 40.976 13.3077 41.13 13.128 41.1428C13.0125 41.0273 12.9227 40.8861 12.8585 40.7321C12.8457 40.6808 12.8457 40.6295 12.8457 40.5781Z" fill="#23D2E2"/>
<path d="M12.5635 41.1695C12.6276 41.054 12.7303 41.0283 12.8586 41.0283C12.9485 41.0412 12.9998 41.0925 13.0255 41.1823C13.0126 41.3748 12.9998 41.5673 12.7175 41.4518C12.6533 41.362 12.602 41.2593 12.5635 41.1695Z" fill="#23D2E2"/>
<path d="M11.5498 39.2952C11.6653 39.231 11.691 39.1155 11.691 39C11.8065 39.1027 11.922 39.2053 12.0375 39.308C11.9861 39.4748 11.9476 39.6545 11.7166 39.616C11.6525 39.5005 11.6011 39.3978 11.5498 39.2952Z" fill="#23D2E2"/>
<path d="M13.0121 41.1815C12.9608 41.1301 12.8966 41.0788 12.8453 41.0274C12.7939 40.9761 12.7554 40.9248 12.7041 40.8735C12.7554 40.835 12.7939 40.7836 12.8453 40.7451C13.0378 40.8221 13.1276 40.9505 13.1148 41.1558C13.0891 41.1686 13.0506 41.1686 13.0121 41.1815Z" fill="#23D2E2"/>
<path d="M10.4073 38.564C10.2533 38.4613 10.0993 38.3458 9.93246 38.2431C9.93246 38.2175 9.91963 38.1918 9.93246 38.1661C10.2276 38.0378 10.2918 38.4356 10.5356 38.4356C10.4971 38.4741 10.4586 38.5255 10.4073 38.564Z" fill="#23D2E2"/>
<path d="M11.9729 42.3236C11.9986 42.221 11.7676 42.1055 11.9601 42.0541C12.1654 41.9771 12.2039 42.1953 12.2681 42.3236C12.2296 42.375 12.1782 42.4006 12.1269 42.4006C12.0627 42.4006 12.0114 42.375 11.9729 42.3236Z" fill="#23D2E2"/>
<path d="M11.9729 42.3242C12.0243 42.3242 12.0628 42.3242 12.1141 42.3242C12.1654 42.3756 12.2681 42.3884 12.2809 42.4911C12.2039 42.6322 12.1013 42.6322 11.9986 42.5424C11.9216 42.4782 11.8446 42.4012 11.9729 42.3242Z" fill="#23D2E2"/>
<path d="M11.1261 41.0291C11.0619 41.0163 10.9849 41.0163 10.9208 41.0035C10.8951 40.9136 10.8694 40.811 10.8438 40.7211C10.8822 40.6698 10.9208 40.6698 10.9721 40.7211C11.0363 40.7211 11.0876 40.734 11.1517 40.734C11.0747 40.8366 11.3443 40.9393 11.1261 41.0291Z" fill="#23D2E2"/>
<path d="M12.2811 42.4911C12.2298 42.4397 12.1784 42.3884 12.1143 42.3242C12.1656 42.3242 12.2169 42.3242 12.2683 42.3242C12.3966 42.3756 12.3453 42.4269 12.2811 42.4911Z" fill="#23D2E2"/>
<path d="M10.9592 40.733C10.9207 40.733 10.8822 40.733 10.8308 40.733C10.8052 40.6945 10.8052 40.6431 10.818 40.5918C10.8693 40.6431 10.9207 40.6816 10.9592 40.733Z" fill="#23D2E2"/>
<path d="M52.7957 44.4788C52.0385 44.3248 51.2685 44.2478 50.4985 44.2734C46.6357 44.4274 45.1983 47.6871 45.5962 50.0998C45.84 51.5756 47.1233 52.3199 48.5607 51.8964C49.2665 51.6911 49.7285 51.2034 50.2675 50.5233C50.2418 50.9724 50.229 51.2419 50.229 51.4986C50.229 51.6398 50.2162 51.8194 50.4087 51.8323C50.9605 51.8451 51.5123 51.8451 52.077 51.8194C52.2695 51.8194 52.2567 51.6269 52.2567 51.4858C52.2438 49.3041 52.8342 47.2123 53.2448 45.0948C53.3218 44.6713 53.1807 44.5558 52.7957 44.4788ZM50.6653 46.7503C50.5242 47.4048 50.3958 48.0721 50.1905 48.7009C50.0878 49.0346 49.8825 49.3554 49.6643 49.6378C49.3563 50.0356 48.9713 50.3436 48.4323 50.1639C47.8548 49.9714 47.8677 49.4581 47.842 49.0731C47.8548 47.6614 48.7018 46.3653 49.767 46.0316C50.6012 45.7621 50.8322 45.9418 50.6653 46.7503Z" fill="#7850F7"/>
<path d="M35.8435 44.2859C32.3785 43.9779 29.7862 46.3264 29.9658 49.6246C30.0172 50.6256 30.3893 51.4726 31.3903 51.8576C32.417 52.2426 33.3282 51.9603 34.111 51.2031C34.3035 51.0234 34.4575 50.8181 34.7142 50.5229C34.6115 51.8319 34.6115 51.8319 35.8435 51.8319C35.959 51.8319 36.0873 51.8191 36.2028 51.8319C36.5493 51.8832 36.652 51.7421 36.652 51.3956C36.6905 49.6759 37.0498 48.0076 37.3963 46.3393C37.7813 44.4528 37.7813 44.4527 35.8435 44.2859ZM35.0863 46.7627C34.9708 47.3017 34.8682 47.8408 34.7398 48.3798C34.6372 48.8289 34.4318 49.2396 34.1495 49.5989C33.8287 50.0096 33.418 50.3561 32.8533 50.1636C32.3015 49.9711 32.2502 49.4706 32.263 48.9701C32.2758 47.6482 33.1742 46.3136 34.265 46.0056C35.0863 45.7746 35.266 45.9414 35.0863 46.7627Z" fill="#7850F7"/>
<path d="M23.2919 44.2735C19.8525 44.0168 17.35 46.314 17.4784 49.625C17.5169 50.5746 17.8634 51.3831 18.7745 51.7938C19.7242 52.2301 20.6097 52.012 21.4054 51.3831C21.6877 51.165 21.9059 50.8698 22.2267 50.5361C22.1882 50.9083 22.1625 51.2035 22.1369 51.4858C22.124 51.627 22.124 51.8066 22.3165 51.8066C22.8684 51.8195 23.433 51.8323 23.9849 51.8066C24.1774 51.8066 24.1645 51.6141 24.1645 51.473C24.1774 49.7276 24.5624 48.0336 24.896 46.3396C25.2939 44.4146 25.2939 44.4275 23.2919 44.2735ZM22.5989 46.776C22.4705 47.4048 22.3935 48.0465 22.1625 48.6625C22.0214 49.0218 21.8674 49.3683 21.6235 49.6635C21.3027 50.0613 20.9049 50.3308 20.3659 50.1383C19.8397 49.9586 19.814 49.471 19.7884 49.009C19.7755 47.7 20.6739 46.3268 21.7519 46.006C22.5732 45.7621 22.7657 45.929 22.5989 46.776Z" fill="#7850F7"/>
<path d="M9.5091 44.3377C6.30077 43.7987 4.2346 46.6477 4.51694 49.2786C4.70944 51.1137 5.74894 51.9864 7.59694 52.0121C8.1616 52.0249 8.7006 51.9607 9.25244 51.8452C10.4716 51.6014 10.4716 51.5886 10.3818 50.3951C10.3689 50.2282 10.3561 50.0614 10.3304 49.8304C9.5476 50.1256 8.82894 50.3437 8.07177 50.2796C7.49427 50.2282 6.98094 50.0614 6.71144 49.4839C6.5446 49.1246 6.5831 48.9834 7.03227 48.9962C7.90494 49.0219 8.76477 48.9577 9.59894 48.6882C10.3048 48.4572 10.9336 48.1107 11.2288 47.3792C11.8063 46.0061 11.0106 44.5944 9.5091 44.3377ZM8.79044 47.1354C8.17444 47.3536 7.53277 47.4049 6.87827 47.3664C7.09644 46.4424 7.72527 45.9034 8.52094 45.9034C8.88027 45.9034 9.21394 45.9932 9.30377 46.3911C9.40644 46.7889 9.13694 47.0071 8.79044 47.1354Z" fill="#7850F7"/>
</svg>
