<svg width="77" height="77" viewBox="0 0 77 77" fill="none" xmlns="http://www.w3.org/2000/svg">
<path opacity="0.5" d="M43.5046 70.4418C60.9402 70.4418 75.0746 56.3074 75.0746 38.8718C75.0746 21.4361 60.9402 7.30176 43.5046 7.30176C26.0689 7.30176 11.9346 21.4361 11.9346 38.8718C11.9346 56.3074 26.0689 70.4418 43.5046 70.4418Z" fill="#C5DEEA"/>
<path d="M42.9917 14.065L26.7832 14.0137" stroke="#23D2E2" stroke-width="2.56667" stroke-miterlimit="10"/>
<path d="M73.7915 43.5816L57.583 43.5303" stroke="#23D2E2" stroke-width="2.56667" stroke-miterlimit="10"/>
<path d="M64.8081 32.0318L48.5996 31.9805" stroke="#23D2E2" stroke-width="2.56667" stroke-miterlimit="10"/>
<path d="M26.6804 21.7139H8.81641" stroke="#23D2E2" stroke-width="2.56667" stroke-miterlimit="10"/>
<path d="M69.031 57.6475H51.167" stroke="#23D2E2" stroke-width="2.56667" stroke-miterlimit="10"/>
<path d="M32.8455 21.4096C41.3837 21.8782 47.9301 25.7006 52.2065 33.1697C56.7465 41.0928 55.6481 51.6081 49.6582 58.5646C49.1017 59.209 48.5452 59.8387 47.8569 60.3366C46.9049 61.0103 46.0409 61.0396 45.2061 60.2488C43.7269 58.8428 42.2917 57.3783 40.9004 55.8991C40.1828 55.1229 40.2413 54.3614 40.959 53.512C41.4569 52.9115 42.0427 52.3696 42.5113 51.7545C47.9008 44.7102 44.6349 34.4438 36.1553 31.8223C34.1489 31.1926 32.1279 31.134 30.0629 31.6173C27.2949 32.2617 24.7027 30.3432 24.4245 27.502C24.2194 25.4224 25.0396 23.7674 26.7384 22.5519C27.4853 22.01 28.3933 21.9368 29.2574 21.7757C30.4437 21.5267 31.6299 21.3656 32.8455 21.4096Z" fill="#7850F7"/>
<path d="M31.9964 66.59C23.4582 66.136 16.8825 62.3575 12.5914 54.8885C8.05138 46.9947 9.0912 36.5233 14.9786 29.5815C15.5498 28.9078 16.1209 28.2194 16.8532 27.7069C17.8784 26.9746 18.7424 26.9453 19.6504 27.8094C21.0857 29.2007 22.4916 30.6359 23.8536 32.0858C24.5273 32.8034 24.5273 33.5503 23.9122 34.3265C23.5021 34.8684 22.9895 35.3224 22.5648 35.8496C17.0436 42.5864 19.5918 52.5745 27.676 55.8258C29.9314 56.7338 32.2307 56.9681 34.6325 56.3823C37.1808 55.7525 39.4215 57.1731 40.1977 59.7507C40.886 62.0646 39.568 65.0083 37.3858 65.7552C35.6577 66.3557 33.8417 66.5754 31.9964 66.59Z" fill="#23D2E2"/>
</svg>
