<svg width="36" height="36" viewBox="0 0 36 36" fill="none" xmlns="http://www.w3.org/2000/svg">
<path d="M18.0002 34.6668C27.2049 34.6668 34.6668 27.2049 34.6668 18.0002C34.6668 8.79542 27.2049 1.3335 18.0002 1.3335C8.79542 1.3335 1.3335 8.79542 1.3335 18.0002C1.3335 27.2049 8.79542 34.6668 18.0002 34.6668Z" stroke="#2642CA" stroke-width="2.5" stroke-linecap="round" stroke-linejoin="round"/>
<path d="M13.1499 13C13.5417 11.8861 14.3152 10.9468 15.3332 10.3485C16.3512 9.75024 17.5481 9.53154 18.7119 9.73116C19.8757 9.93078 20.9313 10.5358 21.6917 11.4392C22.4521 12.3425 22.8683 13.4858 22.8666 14.6666C22.8666 18 17.8666 19.6666 17.8666 19.6666" stroke="#2642CA" stroke-width="2.5" stroke-linecap="round" stroke-linejoin="round"/>
<path d="M18 26.3335H18.0167" stroke="#2642CA" stroke-width="2.5" stroke-linecap="round" stroke-linejoin="round"/>
</svg>
