<svg width="67" height="58" viewBox="0 0 67 58" fill="none" xmlns="http://www.w3.org/2000/svg">
<path d="M11.5908 2.7555V25.8749C11.5908 27.3534 12.7968 28.6304 14.3378 28.6304H49.6468C51.1208 28.6304 52.3938 27.4206 52.3938 25.8749V2.7555C52.3938 1.27694 51.1878 0 49.6468 0H14.3378C12.8638 0 11.5908 1.20973 11.5908 2.7555Z" fill="#0068E7"/>
<path d="M45.962 2.28516H16.75V14.3153H45.962V2.28516Z" fill="white"/>
<path d="M47.9717 15.3237H50.0487V13.2402H47.9717V15.3237ZM49.5127 14.2483C49.5127 14.5172 49.3117 14.7188 49.0437 14.7188C48.7757 14.7188 48.5747 14.5172 48.5747 14.2483C48.5747 13.9795 48.7757 13.7779 49.0437 13.7779C49.3117 13.7779 49.5127 13.9795 49.5127 14.2483Z" fill="#7D7F7F"/>
<path d="M14.1367 10.3496C14.4717 10.3496 14.7397 10.6184 14.7397 10.9545V17.4736C14.7397 17.8096 14.4717 18.0785 14.1367 18.0785C13.8017 18.0785 13.5337 17.8096 13.5337 17.4736V10.9545C13.4667 10.6856 13.7347 10.3496 14.1367 10.3496Z" fill="#4B4C4C"/>
<path d="M45.962 14.248H16.75V26.2782H45.962V14.248Z" fill="white"/>
<path d="M54.6339 23.3944L53.4532 16.6151C53.4532 16.6151 53.4532 16.6151 53.4345 16.6796C52.9744 14.1672 51.5 14.4354 50.7796 14.994L50.6797 14.6151C50.382 12.9895 48.2823 13.0048 47.7346 14.1734C47.3641 12.3167 44.8305 12.6248 44.6589 14.1831L44.5674 14.0165C44.1969 12.1598 41.5989 12.4491 41.473 14.0907L39.8621 6.62605C39.681 5.80381 38.8355 5.34675 38.0797 5.54532C37.2594 5.72505 36.805 6.57126 37.0047 7.32902L38.8676 16.336L39.8318 21.933L37.6378 20.1025C33.5448 16.3879 32.6089 17.9325 32.5258 17.9782C31.853 18.1311 31.6748 18.9881 32.1797 19.4155L38.3463 25.1352C40.9938 28.7768 40.2417 27.9974 43.2624 30.3494L44.0474 34.6352L53.9511 33.4752L53.2101 29.7618C54.3681 27.9324 55.2499 26.0922 54.6339 23.3944Z" fill="#FFBE50"/>
<path d="M56.1129 33.1144L42.5625 34.8301L43.6598 43.4424L57.2102 41.7267L56.1129 33.1144Z" fill="#03B2E8"/>
<path d="M55.3982 33.2382L43.248 34.7764L45.059 48.9885L57.2092 47.4503L55.3982 33.2382Z" fill="#03B2E8"/>
<path d="M42.9075 32.0055L42.4119 32.0684L42.4751 32.5648L42.7646 34.8394L42.8278 35.3358L43.3234 35.2729L55.4843 33.7296L55.9799 33.6667L55.9167 33.1703L55.6272 30.8958L55.564 30.3993L55.0684 30.4622L42.9075 32.0055Z" fill="white" stroke="#03B2E8"/>
<path d="M23.2857 11.913L26.1429 14.7826L33.8571 8L35 9.04348L26.7143 16.4783L26 17L25.4286 16.3478L22 12.9565L23.2857 11.913Z" fill="#FFBE50"/>
</svg>
