<svg width="41" height="37" viewBox="0 0 41 37" fill="none" xmlns="http://www.w3.org/2000/svg">
<path d="M13.2167 1V7.46743L10.7016 6.03022L8.18652 7.46743V1H13.2167Z" stroke="#2642CA" stroke-width="2" stroke-miterlimit="10"/>
<path d="M1 6.03027V34.0558H13.8486C14.3373 34.0558 14.7972 34.3289 15.0128 34.7744C15.2283 35.2199 15.6882 35.493 16.1769 35.493H21.7533C22.2419 35.493 22.7018 35.2199 22.9174 34.7744C23.133 34.3289 23.5929 34.0558 24.0815 34.0558H38.3674V24.714" stroke="#2642CA" stroke-width="2" stroke-miterlimit="10"/>
<path d="M13.2158 2.4375H13.5751C16.5501 2.4375 18.9646 4.85201 18.9646 7.82702C18.9646 4.85201 21.3792 2.4375 24.3542 2.4375H34.7739V5.45563" stroke="#2642CA" stroke-width="2" stroke-miterlimit="10"/>
<path d="M34.7751 25.6484V30.463H24.1398C22.4295 30.463 20.7623 31.081 19.4688 32.1877L18.9658 32.6188L18.4628 32.1877C17.1549 31.0667 15.5021 30.463 13.7919 30.463H4.59375V2.4375H8.18677" stroke="#2642CA" stroke-width="2" stroke-miterlimit="10"/>
<path d="M18.9648 7.46729V31.8998" stroke="#2642CA" stroke-width="2" stroke-miterlimit="10"/>
<path d="M27.9783 22.0986H26.5986C25.5638 22.0986 24.7158 21.2507 24.7158 20.2159V9.70989C24.7158 8.6751 25.5638 7.82715 26.5986 7.82715H37.1189C38.1537 7.82715 39.0017 8.6751 39.0017 9.70989V20.2302C39.0017 21.265 38.1537 22.113 37.1189 22.113H33.2672" stroke="#2642CA" stroke-width="2" stroke-miterlimit="10"/>
<path d="M33.7253 22.0981H32.6474L28.4651 25.8636V22.0981H27.7178" stroke="#2642CA" stroke-width="2" stroke-miterlimit="10"/>
<path d="M31.9004 10.3418V11.779" stroke="#2642CA" stroke-width="2" stroke-miterlimit="10"/>
<path d="M31.9009 18.247V13.2168H29.7451" stroke="#2642CA" stroke-width="2" stroke-miterlimit="10"/>
<path d="M29.7451 18.2466H34.0567" stroke="#2642CA" stroke-width="2" stroke-miterlimit="10"/>
</svg>
