<svg id="Layer_1" data-name="Layer 1" xmlns="http://www.w3.org/2000/svg" viewBox="0 0 66.04512 63.3"><defs><style>.cls-1{opacity:0.5;}.cls-2{fill:#c5deea;}.cls-3{fill:#fff;}.cls-4{fill:#7651f8;}.cls-5{fill:#23d2e2;}.cls-6{fill:none;stroke:#23d2e2;stroke-miterlimit:10;stroke-width:2.56667px;}</style></defs><g class="cls-1"><path class="cls-2" d="M34.39512,63.3a31.65,31.65,0,1,0-31.65-31.65A31.65,31.65,0,0,0,34.39512,63.3Z"/></g><path class="cls-3" d="M0,23.3835v29.37a1.61326,1.61326,0,0,0,1.62,1.62H27.66a1.61326,1.61326,0,0,0,1.62-1.62V17.8485a1.61326,1.61326,0,0,0-1.62-1.62H7.155l-.315.315L.315,23.0685Zm6.525-.63H3.675l2.85-2.85Z"/><path class="cls-3" d="M22.54532,53.6542l-1.05,1.605h-8.34l17.82,4.77a1.61918,1.61918,0,0,0,1.98-1.14l9.03-33.72a1.61918,1.61918,0,0,0-1.14-1.98l-10.695-2.865-1.605.33"/><path class="cls-4" d="M0,23.3835v29.37a1.61326,1.61326,0,0,0,1.62,1.62H27.66a1.61326,1.61326,0,0,0,1.62-1.62V17.8485a1.61326,1.61326,0,0,0-1.62-1.62H7.155l-.315.315L.315,23.0685Zm6.525-.63H3.675l2.85-2.85Zm-4.365,2.16H7.065a1.61326,1.61326,0,0,0,1.62-1.62v-4.905H27.12v33.825H2.16Z"/><path class="cls-5" d="M24.79472,28.5582a.90265.90265,0,0,1-.9.9H5.36973a.9.9,0,1,1,0-1.8h18.525A.8931.8931,0,0,1,24.79472,28.5582Z"/><path class="cls-5" d="M5.36973,32.6992h18.525a.9.9,0,1,1,0,1.8H5.36973a.9.9,0,1,1,0-1.8Z"/><path class="cls-5" d="M5.36973,37.7383h18.525a.9.9,0,0,1,0,1.8H5.36973a.90265.90265,0,0,1-.9-.9A.89311.89311,0,0,1,5.36973,37.7383Z"/><path class="cls-4" d="M40.84532,23.1736l-10.695-2.865v2.235l9.615,2.58-8.76,32.67-9.51-2.55h-8.34l17.82,4.77a1.61918,1.61918,0,0,0,1.98-1.14l9.03-33.72A1.621,1.621,0,0,0,40.84532,23.1736Z"/><path class="cls-5" d="M5.36973,42.7637h18.525a.9.9,0,1,1,0,1.8H5.36973a.9.9,0,1,1,0-1.8Z"/><path class="cls-6" d="M18.28724,11.04926l-16.20565-.059"/><path class="cls-6" d="M63.20324,30.29926l-16.2056-.059"/><path class="cls-6" d="M59.72524,39.22276H41.86484"/></svg>