<svg width="53" height="43" viewBox="0 0 53 43" fill="none" xmlns="http://www.w3.org/2000/svg">
<path d="M45.432 28.4538C45.163 26.8141 44.7087 25.4443 44.2723 24.3907C44.2643 24.3706 44.2544 24.3504 44.2464 24.3303C43.2999 22.3743 41.9848 20.0557 40.1515 17.6384C38.133 14.9773 36.0527 12.9367 34.2693 11.4259C34.0182 11.2123 33.8728 10.8961 33.8728 10.5637V9.82841C33.8728 9.62093 33.9286 9.41948 34.0362 9.24221C35.1002 7.4816 36.1623 5.71898 37.2264 3.95837C37.7245 3.13245 37.0271 2.09704 36.0846 2.26423C35.2796 2.40726 34.4725 2.55028 33.6675 2.69331C33.3069 2.75777 32.9382 2.6369 32.6812 2.37301L30.7025 0.336425C30.2661 -0.112793 29.5507 -0.112793 29.1144 0.336425L27.1357 2.37301C26.8786 2.6369 26.51 2.75575 26.1493 2.69331C25.3443 2.55028 24.5373 2.40726 23.7323 2.26423C22.7898 2.09704 22.0903 3.13245 22.5905 3.95837C23.6546 5.71898 24.7166 7.4816 25.7807 9.24221C25.8863 9.41948 25.9441 9.62093 25.9441 9.82841V10.5637C25.9441 10.8961 25.7986 11.2123 25.5476 11.4259C23.7641 12.9387 21.6838 14.9773 19.6653 17.6384C17.8321 20.0557 16.515 22.3743 15.5724 24.3303C15.5625 24.3504 15.5545 24.3686 15.5465 24.3907C15.1082 25.4443 14.6558 26.8141 14.3868 28.4538C14.0202 30.6939 14.1338 32.6156 14.327 33.9814C14.331 34.0036 14.333 34.0257 14.339 34.0479C14.5761 35.2304 15.2616 37.7746 17.4037 40.0851C18.137 40.8748 18.8981 41.4831 19.6035 41.9505C20.6337 42.6314 21.8373 42.994 23.0687 42.994H29.9134H36.7581C37.9895 42.994 39.1931 42.6314 40.2233 41.9505C40.9287 41.4852 41.6899 40.8768 42.4231 40.0851C44.5652 37.7766 45.2507 35.2304 45.4878 34.0479C45.4918 34.0257 45.4958 34.0036 45.4998 33.9814C45.6831 32.6156 45.7987 30.6939 45.432 28.4538Z" fill="#0068E7"/>
<path opacity="0.12" d="M24.0811 2.32651C25.2029 5.01376 26.3228 7.701 27.4446 10.3883C25.0953 14.3607 24.0173 16.4114 24.2106 16.5423C24.4178 16.6813 26.0737 14.6306 29.1802 10.3883C28.7338 7.47337 28.2895 4.55648 27.8431 1.6416C27.6877 1.80678 27.5462 1.95182 27.4287 2.07067C27.0202 2.48363 26.8807 2.59644 26.6755 2.65889C26.532 2.70119 26.3925 2.70925 26.3766 2.70925C26.271 2.71328 26.1893 2.70321 25.9481 2.6609C25.7848 2.6327 25.7031 2.6186 25.5775 2.59241C25.5018 2.57831 25.3245 2.54608 24.9698 2.48162C24.7585 2.44133 24.4577 2.38895 24.0811 2.32651Z" fill="black"/>
<path opacity="0.12" d="M32.6791 2.37281C32.9361 2.6367 33.3048 2.75555 33.6654 2.69311C34.4705 2.55008 35.2775 2.40706 36.0825 2.26403C37.025 2.09684 37.7244 3.13225 37.2243 3.95817C36.1602 5.71878 35.0981 7.4814 34.0341 9.24201C33.9285 9.41928 33.8707 9.62073 33.8707 9.82821V10.5635C33.8707 10.8959 34.0161 11.2121 34.2672 11.4257C36.0506 12.9385 38.1309 14.9771 40.1495 17.6382C41.9827 20.0555 43.2998 22.3741 44.2423 24.3301C44.2523 24.3502 44.2603 24.3684 44.2682 24.3905C44.7066 25.4441 45.1589 26.8139 45.4279 28.4536C45.7946 30.6937 45.681 32.6154 45.4877 33.9812C45.4837 34.0034 45.4817 34.0255 45.4758 34.0477C45.2386 35.2302 44.5532 37.7744 42.4111 40.0849C41.6778 40.8746 40.9166 41.4829 40.2112 41.9503C39.181 42.6312 37.9775 42.9938 36.7461 42.9938H29.9014C34.9328 42.4056 37.3159 40.0487 38.111 39.1543C43.1703 33.4635 40.7154 23.1053 37.575 19.2094C35.5007 16.637 32.2248 12.5699 31.4915 12.0139C31.4357 11.9716 31.1846 11.7903 31.0172 11.4579C30.808 11.0409 30.8519 10.6259 30.8817 10.3439C31.0591 8.59941 30.9415 9.11108 31.0431 8.32545C31.3799 5.73691 32.1052 3.70435 32.6791 2.37281Z" fill="black"/>
<path d="M33.8632 11.1499H25.9505C25.534 11.1499 25.1973 10.8094 25.1973 10.3884C25.1973 9.96739 25.534 9.62695 25.9505 9.62695H33.8632C34.2797 9.62695 34.6164 9.96739 34.6164 10.3884C34.6164 10.8094 34.2797 11.1499 33.8632 11.1499Z" fill="#FFB94D"/>
<path d="M29.1258 34.5775V32.8451C28.0239 32.8088 26.918 32.4825 26.2764 32.0736L26.7566 30.3935C27.45 30.8045 28.4324 31.1691 29.4985 31.1691C30.6143 31.1691 31.3695 30.6212 31.3695 29.7811C31.3695 28.9673 30.7538 28.4677 29.4486 27.9843C27.6094 27.3094 26.4019 26.4473 26.4019 24.8075C26.4019 23.2786 27.466 22.1001 29.2294 21.7778V20.0454H30.6761V21.6852C31.786 21.7214 32.5472 21.9954 33.0991 22.2834L32.6189 23.9151C32.2064 23.7076 31.4273 23.3007 30.2317 23.3007C29.0023 23.3007 28.5679 23.9494 28.5679 24.5456C28.5679 25.2729 29.1956 25.6939 30.704 26.2922C32.6687 27.0375 33.5395 27.9863 33.5395 29.5837C33.5395 31.0905 32.5013 32.414 30.5745 32.7424V34.5755H29.1258V34.5775Z" fill="#F2F2F2"/>
<path d="M46.7915 40.5527H36.3223V42.9902H46.7915V40.5527Z" fill="#FFC000"/>
<path d="M36.9896 40.7222H36.6748V42.8232H36.9896V40.7222Z" fill="#DEA700"/>
<path d="M37.6195 40.7222H37.3047V42.8232H37.6195V40.7222Z" fill="#DEA700"/>
<path d="M38.2494 40.7222H37.9346V42.8232H38.2494V40.7222Z" fill="#DEA700"/>
<path d="M38.8783 40.7222H38.5635V42.8232H38.8783V40.7222Z" fill="#E8AF00"/>
<path d="M39.5101 40.7222H39.1953V42.8232H39.5101V40.7222Z" fill="#E8AF00"/>
<path d="M40.14 40.7222H39.8252V42.8232H40.14V40.7222Z" fill="#E8AF00"/>
<path d="M40.7699 40.7222H40.4551V42.8232H40.7699V40.7222Z" fill="#F2B700"/>
<path d="M41.3998 40.7222H41.085V42.8232H41.3998V40.7222Z" fill="#F2B700"/>
<path d="M42.0287 40.7222H41.7139V42.8232H42.0287V40.7222Z" fill="#F2B700"/>
<path d="M42.6605 40.7222H42.3457V42.8232H42.6605V40.7222Z" fill="#F2B700"/>
<path d="M43.2904 40.7222H42.9756V42.8232H43.2904V40.7222Z" fill="#F2C63D"/>
<path d="M43.9203 40.7222H43.6055V42.8232H43.9203V40.7222Z" fill="#F2C63D"/>
<path d="M44.5492 40.7222H44.2344V42.8232H44.5492V40.7222Z" fill="#F2C63D"/>
<path d="M45.1791 40.7222H44.8643V42.8232H45.1791V40.7222Z" fill="#F2CF61"/>
<path d="M45.8109 40.7222H45.4961V42.8232H45.8109V40.7222Z" fill="#F2CF61"/>
<path d="M46.4408 40.7222H46.126V42.8232H46.4408V40.7222Z" fill="#F2CF61"/>
<path d="M46.7915 40.5527H36.3223V40.724H46.7915V40.5527Z" fill="#F2DB94"/>
<path d="M46.7915 42.8188V42.9901H36.3223V42.8188" fill="#CC9900"/>
<g opacity="0.14">
<path d="M46.792 40.5527V41.3525L46.4413 41.709L46.1264 42.0273L45.172 42.9902H41.9658L42.6612 42.2872L42.9761 41.9689L43.2909 41.6506L43.6058 41.3323L44.3769 40.5527H46.792Z" fill="white"/>
<path d="M36.3223 42.6457L38.3926 40.5527H40.6184L40.1401 41.0362L39.8253 41.3545L39.5105 41.6728L39.1956 41.9931L38.8788 42.3113L38.564 42.6296L38.2073 42.9902H36.4877H36.3223V42.6457Z" fill="white"/>
<path d="M42.6406 40.5527L42.4752 40.7219L42.4732 40.724L42.3457 40.8529L42.0288 41.1712L41.714 41.4894L41.3992 41.8077L41.0843 42.126L40.7695 42.4443L40.4547 42.7646L40.3989 42.819L40.2295 42.9902H41.184L41.3494 42.823L41.3533 42.819L41.3992 42.7726L41.714 42.4544L42.0288 42.1341L42.3457 41.8158L42.6605 41.4975L42.9753 41.1792L43.2902 40.8609L43.4257 40.724L43.595 40.5527H42.6406Z" fill="white"/>
</g>
<path d="M47.9927 38.1152H37.5234V40.5527H47.9927V38.1152Z" fill="#FFC000"/>
<path d="M38.1908 38.2847H37.876V40.3857H38.1908V38.2847Z" fill="#DEA700"/>
<path d="M38.8207 38.2847H38.5059V40.3857H38.8207V38.2847Z" fill="#DEA700"/>
<path d="M39.4506 38.2847H39.1357V40.3857H39.4506V38.2847Z" fill="#DEA700"/>
<path d="M40.0814 38.2847H39.7666V40.3857H40.0814V38.2847Z" fill="#E8AF00"/>
<path d="M40.7113 38.2847H40.3965V40.3857H40.7113V38.2847Z" fill="#E8AF00"/>
<path d="M41.3412 38.2847H41.0264V40.3857H41.3412V38.2847Z" fill="#E8AF00"/>
<path d="M41.9711 38.2847H41.6562V40.3857H41.9711V38.2847Z" fill="#F2B700"/>
<path d="M42.601 38.2847H42.2861V40.3857H42.601V38.2847Z" fill="#F2B700"/>
<path d="M43.2318 38.2847H42.917V40.3857H43.2318V38.2847Z" fill="#F2B700"/>
<path d="M43.8617 38.2847H43.5469V40.3857H43.8617V38.2847Z" fill="#F2B700"/>
<path d="M44.4916 38.2847H44.1768V40.3857H44.4916V38.2847Z" fill="#F2C63D"/>
<path d="M45.1215 38.2847H44.8066V40.3857H45.1215V38.2847Z" fill="#F2C63D"/>
<path d="M45.7504 38.2847H45.4355V40.3857H45.7504V38.2847Z" fill="#F2C63D"/>
<path d="M46.3822 38.2847H46.0674V40.3857H46.3822V38.2847Z" fill="#F2CF61"/>
<path d="M47.0121 38.2847H46.6973V40.3857H47.0121V38.2847Z" fill="#F2CF61"/>
<path d="M47.642 38.2847H47.3271V40.3857H47.642V38.2847Z" fill="#F2CF61"/>
<path d="M47.9927 38.1152H37.5234V38.2865H47.9927V38.1152Z" fill="#F2DB94"/>
<path d="M47.9927 40.3813V40.5526H37.5234V40.3813" fill="#CC9900"/>
<g opacity="0.14">
<path d="M47.9951 38.1152V38.915L47.6424 39.2695L47.3276 39.5898L46.3751 40.5527H43.167L43.8624 39.8497L44.1773 39.5314L44.4921 39.2131L44.8069 38.8948L45.5781 38.1152H47.9951Z" fill="white"/>
<path d="M37.5234 40.2082L39.5938 38.1152H41.8195L41.3413 38.5987L41.0265 38.917L40.7116 39.2353L40.3968 39.5556L40.082 39.8738L39.7671 40.1921L39.4085 40.5527H37.6888H37.5234V40.2082Z" fill="white"/>
<path d="M43.8437 38.1152L43.6763 38.2844L43.6743 38.2865L43.5468 38.4154L43.232 38.7337L42.9171 39.0519L42.6023 39.3702L42.2855 39.6885L41.9706 40.0068L41.6558 40.3271L41.602 40.3815L41.4326 40.5527H42.3851L42.5525 40.3835L42.5545 40.3815L42.6023 40.3351L42.9171 40.0169L43.232 39.6966L43.5468 39.3783L43.8616 39.06L44.1765 38.7417L44.4913 38.4234L44.6268 38.2865L44.7962 38.1152H43.8437Z" fill="white"/>
</g>
<path d="M47.3658 35.6777H36.8965V38.1152H47.3658V35.6777Z" fill="#FFC000"/>
<path d="M37.5639 35.8472H37.249V37.9482H37.5639V35.8472Z" fill="#DEA700"/>
<path d="M38.1937 35.8472H37.8789V37.9482H38.1937V35.8472Z" fill="#DEA700"/>
<path d="M38.8236 35.8472H38.5088V37.9482H38.8236V35.8472Z" fill="#DEA700"/>
<path d="M39.4525 35.8472H39.1377V37.9482H39.4525V35.8472Z" fill="#E8AF00"/>
<path d="M40.0844 35.8472H39.7695V37.9482H40.0844V35.8472Z" fill="#E8AF00"/>
<path d="M40.7142 35.8472H40.3994V37.9482H40.7142V35.8472Z" fill="#E8AF00"/>
<path d="M41.3441 35.8472H41.0293V37.9482H41.3441V35.8472Z" fill="#F2B700"/>
<path d="M41.974 35.8472H41.6592V37.9482H41.974V35.8472Z" fill="#F2B700"/>
<path d="M42.6029 35.8472H42.2881V37.9482H42.6029V35.8472Z" fill="#F2B700"/>
<path d="M43.2348 35.8472H42.9199V37.9482H43.2348V35.8472Z" fill="#F2B700"/>
<path d="M43.8646 35.8472H43.5498V37.9482H43.8646V35.8472Z" fill="#F2C63D"/>
<path d="M44.4945 35.8472H44.1797V37.9482H44.4945V35.8472Z" fill="#F2C63D"/>
<path d="M45.1234 35.8472H44.8086V37.9482H45.1234V35.8472Z" fill="#F2C63D"/>
<path d="M45.7533 35.8472H45.4385V37.9482H45.7533V35.8472Z" fill="#F2CF61"/>
<path d="M46.3851 35.8472H46.0703V37.9482H46.3851V35.8472Z" fill="#F2CF61"/>
<path d="M47.015 35.8472H46.7002V37.9482H47.015V35.8472Z" fill="#F2CF61"/>
<path d="M47.3658 35.6777H36.8965V35.849H47.3658V35.6777Z" fill="#F2DB94"/>
<path d="M47.3658 37.9438V38.1151H36.8965V37.9438" fill="#CC9900"/>
<g opacity="0.14">
<path d="M47.3662 35.6777V36.4775L47.0155 36.832L46.7007 37.1523L45.7462 38.1152H42.54L43.2355 37.4122L43.5503 37.0939L43.8651 36.7756L44.18 36.4573L44.9511 35.6777H47.3662Z" fill="white"/>
<path d="M36.8965 37.7707L38.9668 35.6777H41.1926L40.7144 36.1612L40.3995 36.4795L40.0847 36.7978L39.7699 37.116L39.453 37.4363L39.1382 37.7546L38.7815 38.1152H37.0619H36.8965V37.7707Z" fill="white"/>
<path d="M43.2148 35.6777L43.0494 35.8469L43.0474 35.849L42.9199 35.9779L42.6031 36.2962L42.2882 36.6144L41.9734 36.9327L41.6586 37.251L41.3437 37.5693L41.0289 37.8876L40.9731 37.944L40.8037 38.1152H41.7582L41.9236 37.946L41.9276 37.944L41.9734 37.8976L42.2882 37.5773L42.6031 37.2591L42.9199 36.9408L43.2347 36.6225L43.5496 36.3042L43.8644 35.9859L43.9999 35.849L44.1693 35.6777H43.2148Z" fill="white"/>
</g>
<path d="M48.5178 32.3835L46.3389 33.4272L50.8218 42.9918L53.0007 41.9481L48.5178 32.3835Z" fill="#FFC000"/>
<path d="M48.6524 33.066L48.5176 32.7783L46.6394 33.678L46.7742 33.9656L48.6524 33.066Z" fill="#DEA700"/>
<path d="M48.9209 33.6411L48.7861 33.3535L46.908 34.2532L47.0428 34.5408L48.9209 33.6411Z" fill="#DEA700"/>
<path d="M49.1905 34.2163L49.0557 33.9287L47.1775 34.8284L47.3123 35.116L49.1905 34.2163Z" fill="#DEA700"/>
<path d="M49.4629 34.7925L49.3281 34.5049L47.45 35.4046L47.5848 35.6922L49.4629 34.7925Z" fill="#E8AF00"/>
<path d="M49.7315 35.3677L49.5967 35.0801L47.7185 35.9797L47.8533 36.2674L49.7315 35.3677Z" fill="#E8AF00"/>
<path d="M50.001 35.9444L49.8662 35.6567L47.988 36.5564L48.1229 36.844L50.001 35.9444Z" fill="#E8AF00"/>
<path d="M50.2706 36.5196L50.1357 36.2319L48.2576 37.1316L48.3924 37.4192L50.2706 36.5196Z" fill="#F2B700"/>
<path d="M50.5411 37.0938L50.4062 36.8062L48.5281 37.7058L48.6629 37.9935L50.5411 37.0938Z" fill="#F2B700"/>
<path d="M50.8116 37.6709L50.6768 37.3833L48.7986 38.283L48.9334 38.5706L50.8116 37.6709Z" fill="#F2B700"/>
<path d="M51.0801 38.2461L50.9453 37.9585L49.0671 38.8582L49.202 39.1458L51.0801 38.2461Z" fill="#F2B700"/>
<path d="M51.3497 38.8228L51.2148 38.5352L49.3367 39.4348L49.4715 39.7225L51.3497 38.8228Z" fill="#F2C63D"/>
<path d="M51.6211 39.397L51.4863 39.1094L49.6082 40.009L49.743 40.2967L51.6211 39.397Z" fill="#F2C63D"/>
<path d="M51.8897 39.9722L51.7549 39.6846L49.8767 40.5842L50.0115 40.8719L51.8897 39.9722Z" fill="#F2C63D"/>
<path d="M52.1602 40.5493L52.0254 40.2617L50.1472 41.1614L50.282 41.449L52.1602 40.5493Z" fill="#F2CF61"/>
<path d="M52.4288 41.1245L52.2939 40.8369L50.4158 41.7366L50.5506 42.0242L52.4288 41.1245Z" fill="#F2CF61"/>
<path d="M52.6983 41.7012L52.5635 41.4136L50.6853 42.3132L50.8201 42.6009L52.6983 41.7012Z" fill="#F2CF61"/>
<path d="M48.5173 32.3813L48.3643 32.4546L52.8472 42.0192L53.0003 41.9459L48.5173 32.3813Z" fill="#F2DB94"/>
<path d="M50.9738 42.9175L50.8203 42.9901L46.3369 33.4255L46.4904 33.353" fill="#CC9900"/>
<g opacity="0.14">
<path d="M53.0002 41.9486L52.2848 42.2911L51.8166 42.1219L51.3961 41.9708L50.1268 41.5115L48.7539 38.5825L49.6805 38.9169L50.0989 39.068L50.5194 39.2191L50.9378 39.3702L51.966 39.7408L53.0002 41.9486Z" fill="white"/>
<path d="M46.6458 33.2783L49.4036 34.2734L50.3561 36.308L49.7184 36.0784L49.3 35.9253L48.8795 35.7742L48.4591 35.6231L48.0406 35.472L47.6202 35.321L47.1439 35.1477L46.4087 33.5785L46.3369 33.4254L46.6458 33.2783Z" fill="white"/>
<path d="M51.2229 38.1554L51.0017 38.0768L50.9977 38.0748L50.8283 38.0144L50.4079 37.8613L49.9874 37.7102L49.569 37.5591L49.1485 37.408L48.7301 37.2569L48.3096 37.1058L48.2359 37.0776L48.0107 36.9971L48.4192 37.8673L48.6404 37.9479L48.6444 37.9499L48.7062 37.9721L49.1266 38.1231L49.5471 38.2742L49.9655 38.4273L50.386 38.5784L50.8044 38.7295L51.2249 38.8806L51.4062 38.945L51.6314 39.0276L51.2229 38.1554Z" fill="white"/>
</g>
<path d="M23.5375 21.05L22.0312 19.5273L20.9844 20.5857L22.4906 22.1084L23.5375 21.05Z" fill="#1D4B6B"/>
<path opacity="0.16" d="M23.5312 21.054L22.0264 19.5327L21.8601 19.7008L23.3649 21.2221L23.5312 21.054Z" fill="black"/>
<path d="M23.3979 21.0264L22.033 19.6465C21.9174 19.5297 21.9174 19.3383 22.033 19.2195L23.3979 17.8396C23.5135 17.7227 23.7028 17.7227 23.8204 17.8396L25.1853 19.2195C25.3009 19.3363 25.3009 19.5277 25.1853 19.6465L23.8204 21.0264C23.7028 21.1453 23.5155 21.1453 23.3979 21.0264Z" fill="#0098D5"/>
<path opacity="0.1" d="M21.7295 21.3325L22.4927 22.1041L23.5029 21.0827C23.6165 21.123 23.748 21.0989 23.8377 21.0062L25.1708 19.6585C25.2963 19.5316 25.2963 19.3262 25.1708 19.1992L24.5032 18.5244L21.7295 21.3325Z" fill="black"/>
<path d="M3.42223 19.5266L1.91602 21.0493L2.96289 22.1076L4.4691 20.585L3.42223 19.5266Z" fill="#1D4B6B"/>
<path opacity="0.16" d="M3.41984 19.5276L1.91504 21.0488L2.0813 21.2169L3.5861 19.6956L3.41984 19.5276Z" fill="black"/>
<path d="M3.39722 19.6465L2.03227 21.0264C1.9167 21.1432 1.7274 21.1432 1.60983 21.0264L0.244883 19.6465C0.12931 19.5297 0.12931 19.3383 0.244883 19.2195L1.60983 17.8396C1.72541 17.7227 1.91471 17.7227 2.03227 17.8396L3.39722 19.2195C3.51479 19.3383 3.51479 19.5297 3.39722 19.6465Z" fill="#0098D5"/>
<path opacity="0.1" d="M3.70644 21.3466L4.46962 20.575L3.45935 19.5537C3.4992 19.4389 3.47529 19.3059 3.38363 19.2153L2.05056 17.8676C1.92503 17.7407 1.72178 17.7407 1.59624 17.8676L0.928711 18.5425L3.70644 21.3466Z" fill="black"/>
<path d="M14.0037 15.6841H11.501V17.9725H14.0037V15.6841Z" fill="#1D4B6B"/>
<path d="M13.8443 18.2748H11.6704L11.501 17.9746H14.0017L13.8443 18.2748Z" fill="#205275"/>
<path d="M14.4205 15.6843H11.0948C10.9294 15.6843 10.7959 15.5493 10.7959 15.3821V13.686C10.7959 13.5188 10.9294 13.3838 11.0948 13.3838H14.4205C14.5859 13.3838 14.7194 13.5188 14.7194 13.686V15.3821C14.7174 15.5493 14.5839 15.6843 14.4205 15.6843Z" fill="#0098D5"/>
<path opacity="0.1" d="M12.7471 13.3857H14.387C14.5644 13.3857 14.7079 13.5308 14.7079 13.7101V15.3599C14.7079 15.5392 14.5644 15.6842 14.387 15.6842H14.0025V17.9726L13.8331 18.2727H12.7451V13.3857H12.7471Z" fill="black"/>
<path opacity="0.16" d="M14.0037 15.6841H11.501V15.9218H14.0037V15.6841Z" fill="black"/>
<path opacity="0.16" d="M11.4779 13.3857H11.1172V15.6842H11.4779V13.3857Z" fill="black"/>
<path opacity="0.16" d="M12.1995 13.3857H11.8389V15.6842H12.1995V13.3857Z" fill="black"/>
<path opacity="0.16" d="M12.9466 13.3857H12.5859V15.6842H12.9466V13.3857Z" fill="black"/>
<path opacity="0.16" d="M13.6673 13.3857H13.3066V15.6842H13.6673V13.3857Z" fill="black"/>
<path opacity="0.16" d="M14.387 13.3857H14.0264V15.6842H14.387V13.3857Z" fill="black"/>
<path d="M24.4996 30.009C24.4159 25.7545 22.0765 21.9512 18.6472 19.8744C18.4559 19.7595 18.2626 19.6488 18.0654 19.544C16.7781 18.8611 15.3534 18.4139 13.851 18.2648C13.847 18.2648 13.845 18.2648 13.841 18.2648C13.4803 18.2286 13.1157 18.2104 12.747 18.2104C12.7092 18.2104 12.6713 18.2104 12.6354 18.2104C12.3067 18.2145 11.9839 18.2306 11.663 18.2608C5.52574 18.847 0.787266 24.3887 0.986529 30.6375C1.16985 36.3887 5.48988 41.328 11.0772 42.164C11.7109 42.2587 12.3605 42.301 13.022 42.2849C13.6338 42.2708 14.2315 42.2063 14.8154 42.0996C16.005 41.88 17.1288 41.4731 18.163 40.9151C18.3284 40.8264 18.4918 40.7318 18.6532 40.6351C22.23 38.4675 24.5872 34.4246 24.4996 30.009Z" fill="white"/>
<path d="M12.7625 30.138H23.6184V27.3561C23.4311 26.3912 22.8532 24.0786 20.8945 21.9655C18.8221 19.7315 16.417 19.0244 15.4785 18.8008L12.7207 18.688L12.7625 30.138Z" fill="#FF3F86"/>
<path d="M22.5706 22.0278C22.3414 21.7438 22.1023 21.4718 21.8512 21.2099C21.6081 20.9561 21.3551 20.7124 21.092 20.4787C20.5002 19.9529 19.8586 19.4836 19.1751 19.0746C18.9878 18.9618 18.7945 18.8531 18.6012 18.7523C17.2024 18.011 15.6482 17.5276 14.0042 17.3604C13.5918 17.3181 13.1713 17.2959 12.7489 17.2959H12.713C12.3045 17.2959 11.9 17.316 11.4995 17.3543C8.77559 17.6142 6.30273 18.7443 4.35394 20.4646C4.35195 20.4666 4.34995 20.4686 4.34796 20.4706C4.07896 20.7083 3.81991 20.9581 3.57083 21.218C3.32574 21.4738 3.09061 21.7417 2.86744 22.0177C1.07407 24.2336 -0.00195312 27.0659 -0.00195312 30.15C-0.00195312 35.7078 3.48714 40.4397 8.37108 42.2345C9.72607 42.7321 11.1867 43.002 12.711 43.002C14.3948 43.002 16.0009 42.6717 17.4714 42.0714C17.9257 41.886 18.3661 41.6745 18.7925 41.4388C18.948 41.3522 19.1014 41.2636 19.2548 41.1709C22.9512 38.9228 25.424 34.8275 25.424 30.15C25.428 27.0679 24.356 24.2417 22.5706 22.0278ZM18.8105 39.2914C18.5156 39.4929 18.2087 39.6802 17.8939 39.8535C17.7145 39.9522 17.5332 40.0428 17.3499 40.1315C17.2204 40.1939 17.0888 40.2523 16.9573 40.3087C16.2998 40.5908 15.6123 40.8063 14.9129 40.9513C14.1936 41.1004 13.4543 41.1749 12.713 41.1749C11.9718 41.1749 11.2325 41.0984 10.5132 40.9513C9.81375 40.8063 9.12629 40.5908 8.46872 40.3087C7.82311 40.0328 7.19942 39.6903 6.61757 39.2935C6.0397 38.8986 5.49572 38.4454 5.00154 37.9458C4.9876 37.9317 4.97564 37.9196 4.96169 37.9055C4.48346 37.416 4.04707 36.8802 3.66847 36.3121C3.27393 35.7219 2.93718 35.0934 2.66419 34.4407C2.38522 33.7759 2.17201 33.081 2.02854 32.3739C1.88108 31.6467 1.80736 30.8993 1.80736 30.15C1.80736 29.4006 1.88108 28.6512 2.02854 27.926C2.17201 27.219 2.38522 26.524 2.66419 25.8592C2.93718 25.2066 3.27592 24.576 3.66847 23.9878C4.05903 23.4036 4.50737 22.8537 5.00154 22.3541C5.49572 21.8546 6.0397 21.4013 6.61757 21.0065C7.20141 20.6076 7.82311 20.2672 8.46872 19.9912C9.12629 19.7092 9.81375 19.4936 10.5132 19.3486C11.2325 19.1995 11.9718 19.125 12.713 19.125H12.721C13.4583 19.125 14.1975 19.2015 14.9129 19.3486C15.6123 19.4936 16.2998 19.7092 16.9573 19.9912C17.1705 20.0819 17.3818 20.1806 17.589 20.2853C17.7902 20.388 17.9895 20.4948 18.1828 20.6096C18.3701 20.7184 18.5534 20.8332 18.7328 20.9541C18.7387 20.9581 18.7447 20.9622 18.7507 20.9662C18.7706 20.9803 18.7905 20.9924 18.8105 21.0065C18.8384 21.0266 18.8663 21.0448 18.8942 21.0649C18.9101 21.077 18.926 21.0871 18.942 21.0991C19.47 21.4718 19.9682 21.8928 20.4245 22.3541C20.9187 22.8537 21.367 23.4036 21.7576 23.9878C22.1521 24.5781 22.4889 25.2066 22.7639 25.8592C23.0428 26.524 23.256 27.219 23.3995 27.926C23.535 28.5948 23.6087 29.2838 23.6207 29.9747C23.6207 30.0331 23.6227 30.0916 23.6227 30.15C23.6227 30.8993 23.549 31.6467 23.4015 32.3739C23.258 33.081 23.0448 33.7759 22.7658 34.4407C22.4929 35.0934 22.1541 35.7239 21.7596 36.3121C21.369 36.8963 20.9207 37.4462 20.4265 37.9458C19.9323 38.4434 19.3883 38.8966 18.8105 39.2914Z" fill="#0098D5"/>
<path opacity="0.19" d="M18.9443 21.0949C18.9284 21.0828 18.9124 21.0727 18.8965 21.0606C18.8686 21.0405 18.8407 21.0223 18.8128 21.0022C18.7929 20.9881 18.773 20.976 18.753 20.9619C18.7471 20.9579 18.7411 20.9539 18.7351 20.9498C18.7251 20.9438 18.7152 20.9357 18.7052 20.9297C18.5358 20.8169 18.3625 20.7081 18.1871 20.6054C17.9918 20.4905 17.7946 20.3818 17.5933 20.281C17.3383 20.1521 17.0772 20.0312 16.8122 19.9225C16.1626 19.6566 15.4831 19.4531 14.7917 19.3181C14.1122 19.1852 13.4168 19.1167 12.7253 19.1167C12.7193 19.1167 12.7134 19.1167 12.7074 19.1167C12.008 19.1167 11.3066 19.1852 10.6231 19.3181C9.93165 19.4531 9.25217 19.6566 8.60257 19.9225C7.94101 20.1944 7.30337 20.5328 6.70758 20.9297C6.09584 21.3386 5.51997 21.814 4.99591 22.3438C4.47184 22.8736 4.00158 23.4558 3.59708 24.0742C3.20453 24.6765 2.86778 25.3211 2.60076 25.9899C2.33774 26.6466 2.13648 27.3336 2.00297 28.0326C1.86947 28.7255 1.80371 29.4346 1.80371 30.1397C1.80371 30.8447 1.87146 31.5558 2.00297 32.2467C2.13648 32.9458 2.33774 33.6327 2.60076 34.2894C2.86977 34.9582 3.20453 35.6028 3.59708 36.2051C4.00158 36.8235 4.47184 37.4057 4.99591 37.9355C4.98594 37.9234 4.97598 37.9133 4.96602 37.9012C1.22386 33.5622 1.38725 27.0133 5.25495 22.9381C7.26352 20.8209 9.96951 19.6908 12.7233 19.5901C14.3314 19.5317 15.9554 19.8238 17.4698 20.4744C17.679 20.5631 17.8842 20.6598 18.0895 20.7645C18.9124 21.1815 19.6955 21.7073 20.4149 22.3478C19.9606 21.8845 19.4664 21.4635 18.9443 21.0949Z" fill="black"/>
<path d="M16.9521 37.0954L16.5225 37.3462L17.5447 39.136L17.9744 38.8852L16.9521 37.0954Z" fill="#0098D5"/>
<path d="M12.869 22.0761H12.598C12.5362 22.0761 12.4844 22.0258 12.4844 21.9613V20.1221C12.4844 20.0597 12.5342 20.0073 12.598 20.0073H12.869C12.9307 20.0073 12.9825 20.0577 12.9825 20.1221V21.9613C12.9825 22.0258 12.9307 22.0761 12.869 22.0761Z" fill="#0098D5"/>
<path d="M8.44642 23.1881L7.53579 21.5947C7.50391 21.5403 7.52384 21.4698 7.57764 21.4395L7.81277 21.3026C7.86657 21.2703 7.93631 21.2905 7.9662 21.3449L8.87683 22.9383C8.90871 22.9927 8.88879 23.0632 8.83499 23.0934L8.59986 23.2304C8.54606 23.2606 8.47831 23.2425 8.44642 23.1881Z" fill="#0098D5"/>
<path d="M5.55722 26.2902L3.98105 25.3696C3.92725 25.3374 3.90931 25.2689 3.9392 25.2145L4.0747 24.9768C4.10658 24.9224 4.17433 24.9043 4.22813 24.9345L5.80431 25.8551C5.85811 25.8873 5.87604 25.9558 5.84615 26.0102L5.71065 26.2479C5.67877 26.3023 5.61102 26.3204 5.55722 26.2902Z" fill="#0098D5"/>
<path d="M4.58715 30.4382H2.76788C2.70611 30.4382 2.6543 30.3878 2.6543 30.3234V30.0494C2.6543 29.9869 2.70411 29.9346 2.76788 29.9346H4.58715C4.64892 29.9346 4.70073 29.9849 4.70073 30.0494V30.3234C4.70073 30.3858 4.65091 30.4382 4.58715 30.4382Z" fill="#0098D5"/>
<path d="M4.0707 35.3977L3.93521 35.16C3.90332 35.1056 3.92325 35.0351 3.97705 35.0049L5.55322 34.0843C5.60702 34.0521 5.67677 34.0722 5.70665 34.1266L5.84215 34.3643C5.87404 34.4187 5.85411 34.4892 5.80031 34.5194L4.22414 35.44C4.17034 35.4702 4.10059 35.4521 4.0707 35.3977Z" fill="#0098D5"/>
<path d="M7.80505 39.0757L7.56992 38.9387C7.51611 38.9065 7.49818 38.838 7.52807 38.7836L8.4387 37.1902C8.47059 37.1358 8.53833 37.1176 8.59214 37.1479L8.82727 37.2848C8.88107 37.3171 8.899 37.3856 8.86911 37.4399L7.95848 39.0334C7.9266 39.0898 7.85885 39.1079 7.80505 39.0757Z" fill="#0098D5"/>
<path d="M12.8582 40.3755H12.5872C12.5254 40.3755 12.4736 40.3251 12.4736 40.2606V38.4215C12.4736 38.359 12.5234 38.3066 12.5872 38.3066H12.8582C12.92 38.3066 12.9718 38.357 12.9718 38.4215V40.2606C12.9718 40.3231 12.92 40.3755 12.8582 40.3755Z" fill="#0098D5"/>
<path d="M21.2271 35.4479L19.651 34.5273C19.5972 34.4951 19.5792 34.4266 19.6091 34.3722L19.7446 34.1345C19.7765 34.0801 19.8443 34.062 19.8981 34.0922L21.4742 35.0128C21.528 35.045 21.546 35.1135 21.5161 35.1679L21.3806 35.4056C21.3507 35.46 21.2809 35.4801 21.2271 35.4479Z" fill="#0098D5"/>
<path d="M22.6877 30.4479H20.8685C20.8067 30.4479 20.7549 30.3976 20.7549 30.3331V30.0592C20.7549 29.9967 20.8047 29.9443 20.8685 29.9443H22.6877C22.7495 29.9443 22.8013 29.9947 22.8013 30.0592V30.3331C22.8013 30.3956 22.7495 30.4479 22.6877 30.4479Z" fill="#0098D5"/>
<path d="M19.7514 26.2561L19.6159 26.0184C19.584 25.964 19.6039 25.8935 19.6577 25.8633L21.2339 24.9427C21.2877 24.9105 21.3574 24.9306 21.3873 24.985L21.5228 25.2227C21.5547 25.2771 21.5348 25.3476 21.481 25.3778L19.9048 26.2984C19.851 26.3306 19.7813 26.3105 19.7514 26.2561Z" fill="#0098D5"/>
<path d="M16.8636 23.2344L16.6285 23.0974C16.5747 23.0651 16.5568 22.9967 16.5867 22.9423L17.4973 21.3489C17.5292 21.2945 17.5969 21.2763 17.6507 21.3065L17.8859 21.4435C17.9397 21.4758 17.9576 21.5443 17.9277 21.5986L17.0171 23.1921C16.9872 23.2464 16.9174 23.2666 16.8636 23.2344Z" fill="#0098D5"/>
<path d="M20.1989 30.257L11.1025 30.6035V29.6729C14.1353 29.7373 17.1661 29.9106 20.1989 29.977C20.2906 29.967 20.3663 30.0354 20.3703 30.108C20.3762 30.1845 20.3005 30.2671 20.1989 30.257Z" fill="#0098D5"/>
<path opacity="0.15" d="M20.3722 30.106C20.3782 30.1845 20.3005 30.2671 20.2009 30.257L11.1045 30.6035V30.1462L20.3722 30.106Z" fill="black"/>
<path d="M12.8699 22.612L13.2126 31.8079H12.29C12.3538 28.742 12.5252 25.678 12.5909 22.612C12.581 22.5194 12.6487 22.4428 12.7204 22.4388C12.7982 22.4328 12.8799 22.5113 12.8699 22.612Z" fill="#0098D5"/>
<path opacity="0.15" d="M12.7207 22.4388C12.7984 22.4328 12.8801 22.5113 12.8702 22.612L13.2129 31.8079H12.7606L12.7207 22.4388Z" fill="black"/>
<path d="M12.7624 31.0204C13.2433 31.0204 13.6332 30.6262 13.6332 30.1401C13.6332 29.6539 13.2433 29.2598 12.7624 29.2598C12.2815 29.2598 11.8916 29.6539 11.8916 30.1401C11.8916 30.6262 12.2815 31.0204 12.7624 31.0204Z" fill="#1D4B6B"/>
<path d="M13.2111 30.2502C13.2698 29.999 13.1159 29.7473 12.8674 29.688C12.619 29.6287 12.37 29.7842 12.3113 30.0354C12.2526 30.2866 12.4065 30.5383 12.655 30.5976C12.9035 30.6569 13.1524 30.5014 13.2111 30.2502Z" fill="#2B709E"/>
</svg>
