<svg width="191" height="173" viewBox="0 0 191 173" fill="none" xmlns="http://www.w3.org/2000/svg">
<path d="M24.2031 28.8164C24.2208 28.8527 24.2336 28.8911 24.2413 28.9307L24.3346 29.2694C24.3817 29.4561 24.4397 29.6399 24.5085 29.8197C24.5849 30.0314 24.6654 30.2812 24.7884 30.5479L24.9751 30.9713L25.2168 31.4285C25.2998 31.5965 25.3933 31.7591 25.4968 31.9153C25.6028 32.0762 25.6961 32.254 25.8234 32.4234C27.0148 34.1626 28.6833 35.5222 30.6289 36.3394C31.2192 36.586 31.8312 36.7773 32.4569 36.9109C33.1225 37.0427 33.7952 37.136 34.4716 37.1903C35.8586 37.3258 37.36 37.402 38.7979 37.9777C40.2501 38.6204 41.5378 39.5828 42.5643 40.793C43.6506 41.9429 44.5289 43.2722 45.16 44.7217C45.4453 45.4215 45.6199 46.1613 45.6775 46.9146C45.7269 47.6344 45.6812 48.3574 45.5418 49.0653C45.2582 50.3627 44.8753 51.6365 44.3966 52.8754C43.9883 53.9502 43.6844 55.0617 43.4889 56.1945C43.3304 57.1288 43.3665 58.0858 43.5949 59.0055C43.7676 59.6994 44.0809 60.3506 44.5153 60.9191C44.7897 61.2798 45.1257 61.5893 45.5078 61.8335C45.7665 61.9986 45.932 62.0621 45.932 62.0706C45.7847 62.0124 45.6428 61.9416 45.5078 61.8589C45.1168 61.6204 44.772 61.3135 44.4899 60.953C44.0404 60.3845 43.7153 59.7283 43.5356 59.0267C43.2956 58.0962 43.2509 57.1262 43.4041 56.1776C43.5977 55.0384 43.8988 53.92 44.3033 52.8373C44.7741 51.5972 45.1513 50.3236 45.4315 49.0272C45.5633 48.3298 45.606 47.6185 45.5587 46.9104C45.502 46.1724 45.3287 45.4481 45.0455 44.764C44.4188 43.3295 43.5494 42.0134 42.4752 40.8734C41.4623 39.6799 40.1922 38.7305 38.7597 38.0963C37.3558 37.5247 35.8671 37.4485 34.4759 37.3088C33.7954 37.2491 33.1186 37.153 32.4485 37.0209C31.8103 36.893 31.1855 36.7059 30.5822 36.4621C28.6201 35.6317 26.9439 34.247 25.7597 32.4784C25.6325 32.309 25.5349 32.1312 25.4331 31.9661C25.3325 31.806 25.2405 31.6407 25.1574 31.4708L24.9199 31.0136L24.7375 30.5902C24.6329 30.3501 24.5422 30.1042 24.4661 29.8536C24.4024 29.6722 24.35 29.4869 24.3092 29.299C24.2752 29.1509 24.2455 29.0365 24.2286 28.9561C24.2166 28.9102 24.2081 28.8635 24.2031 28.8164Z" fill="#455A64"/>
<path d="M32.8242 24.3281L32.9175 24.4128L33.1805 24.6668C33.295 24.7811 33.4223 24.9335 33.6046 25.0902C33.787 25.2468 33.927 25.4796 34.0966 25.7337C34.5251 26.3432 34.877 27.0029 35.1443 27.698C35.5072 28.6168 35.7233 29.5868 35.7847 30.5725C35.8135 31.1448 35.7923 31.7185 35.7211 32.2871C35.6343 32.9031 35.5011 33.5116 35.3224 34.1075C34.9704 35.3437 34.4741 36.6138 34.1009 38.0066C33.9175 38.7169 33.8137 39.4452 33.7913 40.1784C33.7747 40.9429 33.8531 41.7065 34.0245 42.4518C34.3826 44.0323 35.0994 45.5096 36.1198 46.7699C37.1432 48.0195 38.4082 49.0504 39.8395 49.8011C41.1678 50.5098 42.5989 51.0069 44.081 51.2744C45.4976 51.5369 46.8718 51.6046 48.1443 51.7993C49.3356 51.9413 50.4927 52.291 51.5628 52.8323C53.09 53.6866 54.2851 55.0285 54.956 56.6425C55.1377 57.0761 55.2797 57.5253 55.3801 57.9845C55.4056 58.1411 55.4225 58.2597 55.4395 58.3486C55.4424 58.3895 55.4424 58.4305 55.4395 58.4714C55.4395 58.4714 55.4395 58.429 55.4098 58.3486C55.3801 58.2681 55.3674 58.1454 55.3377 57.993C55.233 57.539 55.0912 57.0944 54.9136 56.6637C54.6161 55.9882 54.2265 55.357 53.7557 54.7882C53.1319 54.0347 52.3687 53.4081 51.5077 52.9424C50.444 52.4128 49.2956 52.0732 48.1146 51.9391C46.8421 51.7485 45.4722 51.685 44.0428 51.4268C42.5469 51.156 41.102 50.6562 39.759 49.9451C38.3101 49.1861 37.0292 48.1437 35.9926 46.88C34.9657 45.606 34.2407 44.1168 33.8718 42.5237C33.704 41.7665 33.6271 40.9919 33.6428 40.2165C33.6657 39.4734 33.771 38.7351 33.9567 38.0151C34.3172 36.6095 34.8389 35.3395 35.1952 34.1118C35.3818 33.5235 35.5236 32.9221 35.6193 32.3125C35.695 31.7514 35.7191 31.1846 35.6914 30.6191C35.594 28.8979 35.0295 27.2355 34.0585 25.8099C33.8931 25.5516 33.7192 25.3484 33.5792 25.1579C33.4392 24.9674 33.2993 24.8277 33.189 24.7345L32.9387 24.4678C32.8964 24.4248 32.8581 24.3781 32.8242 24.3281Z" fill="#455A64"/>
<path d="M53.8994 54.6641C53.7992 54.7748 53.6884 54.8755 53.5685 54.9646C53.348 55.1552 53.0214 55.4176 52.61 55.7309C51.5428 56.5537 50.4328 57.3196 49.2847 58.0255C48.1355 58.731 46.9506 59.3767 45.7346 59.9602C45.2681 60.1846 44.8863 60.3581 44.6234 60.4682C44.4882 60.5368 44.346 60.5907 44.1992 60.6291C44.3255 60.5493 44.4573 60.4786 44.5937 60.4174L45.688 59.8713C46.6083 59.4056 47.8638 58.7282 49.2041 57.9027C50.5444 57.0772 51.715 56.2601 52.5463 55.6505L53.5261 54.9223C53.6436 54.8266 53.7684 54.7403 53.8994 54.6641V54.6641Z" fill="#455A64"/>
<path d="M51.6206 52.8867C51.5159 52.9641 51.4036 53.0308 51.2855 53.0857L50.3609 53.5852C49.5804 54.0086 48.5116 54.6098 47.3537 55.3167C46.1958 56.0237 45.1778 56.7096 44.4483 57.2134L43.6 57.8145C43.4964 57.8915 43.3872 57.9609 43.2734 58.022C43.3628 57.9283 43.4608 57.8433 43.5661 57.768C43.7612 57.6113 44.0496 57.3954 44.4144 57.1329C45.1312 56.6037 46.1491 55.9094 47.307 55.1982C48.4649 54.487 49.5465 53.8985 50.3397 53.5048C50.7383 53.3016 51.0607 53.145 51.2897 53.0434C51.3956 52.9823 51.5062 52.9299 51.6206 52.8867V52.8867Z" fill="#455A64"/>
<path d="M48.3545 52.1992C48.1498 52.3775 47.9298 52.5376 47.6971 52.6776C47.273 52.9528 46.7004 53.3253 46.0472 53.7191C45.394 54.1128 44.796 54.4472 44.3506 54.6843C44.1182 54.8225 43.8741 54.9401 43.6211 55.0357C43.8353 54.8762 44.0623 54.7346 44.2997 54.6123L45.9708 53.6132L47.642 52.6099C47.8664 52.4515 48.1049 52.314 48.3545 52.1992V52.1992Z" fill="#455A64"/>
<path d="M45.3083 48.6016C45.1572 48.74 44.9907 48.8607 44.8121 48.9614L43.5863 49.7827L42.369 50.6294C42.2089 50.7565 42.0354 50.8658 41.8516 50.9554C41.9839 50.7938 42.138 50.6513 42.3096 50.532C42.6065 50.295 43.0264 49.9859 43.5057 49.6599C43.985 49.334 44.4304 49.0588 44.7781 48.8725C44.9425 48.7599 45.1207 48.6689 45.3083 48.6016Z" fill="#455A64"/>
<path d="M45.0702 45.3945C45.0702 45.4157 44.7096 45.6104 44.1286 45.9449C43.5475 46.2793 42.7543 46.7662 41.9188 47.3504C41.0832 47.9346 40.3537 48.5189 39.8405 48.9507C39.57 49.1967 39.2868 49.4284 38.9922 49.645C39.05 49.5655 39.1153 49.4918 39.1873 49.4248C39.3188 49.2894 39.5181 49.1031 39.7684 48.8745C41.0749 47.6971 42.5206 46.6834 44.0734 45.856C44.3703 45.6993 44.6163 45.5808 44.786 45.5004C44.8756 45.4527 44.9712 45.4171 45.0702 45.3945V45.3945Z" fill="#455A64"/>
<path d="M43.4762 42.9071C43.4974 42.9409 42.0087 44.012 40.151 45.3075C38.2932 46.6029 36.7578 47.619 36.7578 47.5893C36.7578 47.5597 38.2211 46.4801 40.0788 45.1889C41.9366 43.8977 43.4508 42.8732 43.4762 42.9071Z" fill="#455A64"/>
<path d="M42.2078 40.0977C42.1195 40.1783 42.0228 40.2493 41.9193 40.3093C41.7073 40.4533 41.4401 40.6353 41.1177 40.847C40.4391 41.3 39.506 41.935 38.4923 42.6547C37.4786 43.3744 36.5794 44.0518 35.9474 44.5428L35.1755 45.1271C35.0851 45.2034 34.9871 45.2701 34.8828 45.326C34.9592 45.2345 35.046 45.1521 35.1415 45.0805C35.3112 44.9323 35.5657 44.7206 35.8838 44.4624C36.52 43.9501 37.4107 43.2601 38.4286 42.5404C39.4466 41.8207 40.3882 41.1941 41.0795 40.7623C41.4273 40.5464 41.7115 40.3771 41.9278 40.2628C42.0152 40.1983 42.109 40.143 42.2078 40.0977V40.0977Z" fill="#455A64"/>
<path d="M39.5932 38.5439C39.6186 38.5736 38.3547 39.488 36.7769 40.5845C35.199 41.681 33.8969 42.5361 33.8715 42.5065C33.846 42.4769 35.1142 41.5582 36.692 40.4659C38.2698 39.3737 39.572 38.5101 39.5932 38.5439Z" fill="#455A64"/>
<path d="M36.8457 36.9766C36.3962 37.4308 35.9112 37.8484 35.3951 38.2254C34.9107 38.6423 34.396 39.023 33.8555 39.3643C34.3067 38.9055 34.7916 38.481 35.306 38.0942C35.7912 37.6846 36.3058 37.3111 36.8457 36.9766V36.9766Z" fill="#455A64"/>
<path d="M35.0001 33.0469C34.8112 33.2555 34.6039 33.4468 34.3808 33.6184C33.9864 33.9528 33.4265 34.4058 32.7903 34.8884C32.1541 35.3711 31.5645 35.769 31.1276 36.0527C30.9004 36.2172 30.6574 36.359 30.4023 36.476C30.6123 36.2884 30.8363 36.1172 31.0725 35.9638C31.4966 35.659 32.0735 35.2398 32.7054 34.7699C33.3374 34.3 33.9058 33.8597 34.3172 33.5422C34.5312 33.3591 34.7595 33.1935 35.0001 33.0469V33.0469Z" fill="#455A64"/>
<path d="M35.7984 30.3711C35.7118 30.4543 35.6165 30.5281 35.5143 30.5912C35.3319 30.7267 35.0562 30.913 34.7169 31.1374C34.034 31.5903 33.0754 32.1957 31.9939 32.8308C30.9123 33.4658 29.9071 33.9823 29.1733 34.3464C28.8086 34.5284 28.5074 34.6723 28.2996 34.7697C28.1948 34.8272 28.0838 34.8726 27.9688 34.9052C28.0647 34.8352 28.1669 34.7742 28.2741 34.7231L29.1224 34.2617C29.8435 33.8764 30.819 33.3345 31.9175 32.708C33.016 32.0814 33.9619 31.4972 34.6575 31.0654L35.4803 30.5574C35.5788 30.4833 35.6856 30.4208 35.7984 30.3711V30.3711Z" fill="#455A64"/>
<path d="M34.5275 27.5117C34.431 27.5978 34.3274 27.6757 34.2179 27.7446C34.0143 27.8885 33.7174 28.0917 33.3441 28.3415C32.6019 28.8326 31.567 29.5015 30.4091 30.2169C29.2512 30.9324 28.195 31.559 27.4401 31.9992C27.0541 32.2194 26.7402 32.3972 26.5197 32.5157C26.4084 32.5812 26.2921 32.6379 26.1719 32.6851C26.2707 32.6018 26.3772 32.5281 26.49 32.4649L27.3892 31.9103L30.3582 30.0942L33.3272 28.2568L34.2263 27.698C34.3206 27.6265 34.4214 27.5642 34.5275 27.5117V27.5117Z" fill="#455A64"/>
<path d="M146.126 111.905C146.104 111.926 145.79 111.613 145.18 111.092C144.874 110.834 144.497 110.521 144.039 110.186C143.522 109.808 142.978 109.468 142.41 109.17C142.083 109.002 141.742 108.861 141.392 108.747C141.025 108.613 140.638 108.544 140.247 108.544C140.054 108.544 139.864 108.589 139.691 108.675C139.522 108.763 139.388 108.904 139.31 109.077C139.227 109.267 139.188 109.472 139.195 109.678C139.199 109.901 139.227 110.122 139.28 110.339C139.393 110.798 139.559 111.242 139.772 111.664C139.995 112.112 140.246 112.546 140.523 112.964C141.711 114.715 143.198 116.244 144.917 117.481C145.323 117.771 145.748 118.034 146.189 118.268C146.606 118.496 147.047 118.675 147.504 118.802C147.718 118.861 147.939 118.897 148.161 118.907C148.367 118.919 148.572 118.886 148.764 118.81C148.943 118.739 149.093 118.609 149.188 118.442C149.278 118.272 149.329 118.084 149.336 117.891C149.349 117.501 149.291 117.111 149.167 116.74C149.051 116.387 148.909 116.043 148.742 115.711C148.459 115.137 148.135 114.583 147.771 114.056C147.449 113.59 147.152 113.209 146.897 112.892C146.397 112.269 146.092 111.943 146.113 111.922C146.134 111.901 146.206 111.986 146.363 112.134C146.52 112.282 146.736 112.502 147.004 112.803C147.332 113.166 147.642 113.547 147.932 113.941C148.321 114.466 148.667 115.021 148.967 115.601C149.14 115.943 149.289 116.297 149.413 116.659C149.555 117.067 149.623 117.498 149.612 117.929C149.608 118.168 149.546 118.401 149.434 118.611C149.312 118.836 149.118 119.013 148.882 119.115C148.649 119.212 148.397 119.257 148.144 119.246C147.897 119.238 147.651 119.203 147.411 119.14C146.929 119.009 146.464 118.825 146.024 118.59C145.564 118.338 145.122 118.055 144.7 117.743C142.938 116.489 141.419 114.925 140.217 113.129C139.931 112.7 139.675 112.254 139.45 111.791C139.23 111.344 139.06 110.874 138.945 110.39C138.887 110.15 138.859 109.904 138.86 109.657C138.853 109.405 138.905 109.154 139.013 108.925C139.121 108.692 139.305 108.503 139.534 108.387C139.748 108.283 139.983 108.229 140.221 108.23C140.648 108.235 141.07 108.315 141.468 108.468C141.828 108.601 142.177 108.761 142.512 108.946C143.083 109.262 143.627 109.623 144.141 110.025C144.594 110.381 144.963 110.707 145.256 110.987C145.549 111.266 145.765 111.49 145.905 111.647C146.045 111.804 146.134 111.897 146.126 111.905Z" fill="#455A64"/>
<path d="M142.056 112.929C142.081 112.929 141.958 113.352 141.797 114.105C141.716 114.487 141.627 114.952 141.555 115.494C141.473 116.107 141.439 116.726 141.453 117.344C141.462 117.701 141.499 118.056 141.564 118.407C141.625 118.779 141.753 119.138 141.941 119.465C142.037 119.626 142.168 119.763 142.323 119.867C142.478 119.968 142.66 120.018 142.845 120.011C143.046 120.006 143.245 119.957 143.426 119.867C143.618 119.769 143.797 119.648 143.96 119.507C144.307 119.208 144.619 118.87 144.889 118.5C145.175 118.11 145.434 117.701 145.665 117.276C146.629 115.471 147.254 113.506 147.51 111.476C147.565 110.997 147.59 110.515 147.582 110.033C147.575 109.575 147.517 109.119 147.408 108.674C147.353 108.466 147.276 108.265 147.179 108.073C147.09 107.895 146.962 107.739 146.806 107.616C146.66 107.502 146.482 107.436 146.297 107.429C146.11 107.426 145.925 107.463 145.754 107.539C145.412 107.698 145.1 107.916 144.834 108.183C144.578 108.434 144.343 108.704 144.13 108.991C143.755 109.485 143.42 110.007 143.129 110.554C142.874 111.036 142.679 111.468 142.527 111.824C142.221 112.539 142.081 112.946 142.056 112.937C142.059 112.831 142.081 112.727 142.119 112.628C142.175 112.429 142.264 112.141 142.395 111.781C142.527 111.421 142.709 110.973 142.951 110.473C143.225 109.904 143.547 109.359 143.914 108.843C144.127 108.54 144.367 108.257 144.63 107.997C144.915 107.697 145.253 107.451 145.627 107.273C145.836 107.178 146.063 107.13 146.293 107.133C146.541 107.139 146.781 107.222 146.98 107.37C147.173 107.52 147.332 107.709 147.447 107.925C147.56 108.137 147.648 108.361 147.71 108.593C147.83 109.061 147.896 109.541 147.905 110.024C147.919 110.523 147.898 111.023 147.841 111.519C147.594 113.596 146.953 115.607 145.954 117.446C145.714 117.888 145.443 118.312 145.144 118.716C144.857 119.105 144.525 119.458 144.155 119.77C143.972 119.924 143.771 120.056 143.557 120.164C143.339 120.277 143.099 120.34 142.853 120.35C142.606 120.356 142.364 120.286 142.158 120.151C141.968 120.019 141.809 119.849 141.691 119.651C141.49 119.29 141.356 118.896 141.297 118.487C141.233 118.122 141.202 117.753 141.203 117.382C141.2 116.749 141.253 116.118 141.36 115.494C141.437 115.026 141.537 114.563 141.661 114.105C141.763 113.729 141.861 113.441 141.929 113.259C141.95 113.142 141.993 113.03 142.056 112.929V112.929Z" fill="#455A64"/>
<path d="M143.451 110.975C143.451 111.005 143.026 111.115 142.31 111.377C141.945 111.509 141.504 111.678 140.999 111.902C140.434 112.155 139.889 112.453 139.37 112.791C139.069 112.984 138.786 113.202 138.522 113.443C138.237 113.69 137.999 113.987 137.822 114.32C137.736 114.485 137.686 114.667 137.678 114.853C137.674 115.039 137.729 115.221 137.835 115.374C137.945 115.536 138.09 115.672 138.259 115.772C138.444 115.882 138.64 115.971 138.844 116.038C139.283 116.172 139.736 116.258 140.193 116.292C140.676 116.324 141.161 116.324 141.644 116.292C142.665 116.232 143.677 116.075 144.668 115.823C145.661 115.575 146.628 115.235 147.556 114.806C147.995 114.601 148.42 114.368 148.829 114.108C149.216 113.868 149.573 113.584 149.893 113.261C150.044 113.107 150.175 112.935 150.284 112.749C150.389 112.581 150.456 112.391 150.479 112.194C150.498 112.011 150.461 111.827 150.373 111.665C150.277 111.498 150.147 111.354 149.991 111.242C149.674 111.04 149.324 110.897 148.956 110.819C148.609 110.733 148.256 110.675 147.9 110.645C147.282 110.597 146.66 110.597 146.042 110.645C145.495 110.687 145.024 110.747 144.638 110.802C143.875 110.92 143.455 111.017 143.446 110.988C143.539 110.938 143.639 110.902 143.743 110.882C143.938 110.823 144.231 110.747 144.617 110.666C145.003 110.586 145.465 110.509 146.025 110.45C146.655 110.383 147.289 110.369 147.921 110.408C148.291 110.43 148.659 110.484 149.02 110.569C149.426 110.651 149.813 110.809 150.161 111.034C150.352 111.161 150.513 111.329 150.631 111.525C150.757 111.739 150.812 111.986 150.788 112.232C150.767 112.477 150.69 112.712 150.564 112.923C150.444 113.128 150.302 113.32 150.139 113.494C149.804 113.844 149.428 114.154 149.02 114.417C148.601 114.69 148.165 114.935 147.713 115.149C146.76 115.593 145.765 115.943 144.744 116.195C143.732 116.453 142.696 116.61 141.652 116.665C141.153 116.693 140.653 116.684 140.155 116.64C139.672 116.602 139.195 116.506 138.734 116.356C138.505 116.282 138.286 116.181 138.081 116.055C137.872 115.928 137.693 115.757 137.555 115.556C137.42 115.35 137.352 115.107 137.36 114.861C137.371 114.631 137.433 114.405 137.542 114.201C137.742 113.84 138.007 113.519 138.323 113.253C138.603 113.009 138.902 112.788 139.218 112.592C139.759 112.263 140.326 111.98 140.914 111.746C141.354 111.565 141.803 111.407 142.259 111.271C142.632 111.161 142.929 111.089 143.128 111.047C143.231 111.006 143.34 110.982 143.451 110.975V110.975Z" fill="#455A64"/>
<path d="M145.583 113.413C145.638 113.631 145.626 113.86 145.551 114.071C145.475 114.282 145.338 114.466 145.157 114.6C144.977 114.734 144.76 114.811 144.536 114.822C144.311 114.833 144.088 114.777 143.896 114.661C143.703 114.546 143.549 114.376 143.453 114.173C143.357 113.97 143.323 113.743 143.356 113.521C143.389 113.299 143.487 113.092 143.639 112.926C143.79 112.76 143.987 112.642 144.205 112.588C144.497 112.516 144.806 112.562 145.064 112.717C145.323 112.872 145.509 113.122 145.583 113.413V113.413Z" fill="#455A64"/>
<path d="M168.757 93.9792L168.63 93.9199L168.261 93.7337L166.84 92.997L161.619 90.258H161.665L145.582 96.3923L145.438 96.4473L145.48 96.2992L145.972 94.5253C147.096 90.4781 148.16 86.6468 149.094 83.2769V83.2515L158.001 76.588L160.545 74.7083L161.22 74.213L161.394 74.0902C161.431 74.0591 161.452 74.0464 161.457 74.0521L161.402 74.0987L161.233 74.2341L160.571 74.7421L158.06 76.6515L149.178 83.3616L149.204 83.3235C148.271 86.7103 147.215 90.5204 146.095 94.5804C145.925 95.1858 145.76 95.7911 145.603 96.3542L145.501 96.2611L161.619 90.169H161.644L166.84 92.9505L168.244 93.7083L168.608 93.9115L168.757 93.9792Z" fill="#2642CA"/>
<path d="M147.647 96.1973L146.684 96.4809L146.374 97.4334L145.806 96.6079H144.801L145.412 95.812L145.102 94.8595L146.048 95.1939L146.858 94.6055L146.832 95.6088L147.647 96.1973Z" fill="#2642CA"/>
<path d="M150.425 82.9636L149.819 83.1838L149.653 83.8103L149.254 83.3023L148.605 83.3404L148.97 82.8028L148.733 82.2016L149.356 82.3794L149.857 81.9688L149.878 82.6165L150.425 82.9636Z" fill="#2642CA"/>
<path d="M162.606 73.6457L162.165 74.3104L162.458 75.047L161.69 74.8311L161.079 75.3391L161.045 74.5432L160.375 74.1199L161.121 73.8447L161.317 73.0742L161.813 73.6965L162.606 73.6457Z" fill="#2642CA"/>
<path d="M169.735 93.1418L169.29 93.8065L169.587 94.5431L168.819 94.3272L168.204 94.8352L168.174 94.0393L167.5 93.616L168.246 93.3408L168.446 92.5703L168.938 93.1926L169.735 93.1418Z" fill="#2642CA"/>
<path d="M162.249 89.8761L161.965 90.2995L162.156 90.7694L161.664 90.6297L161.274 90.9557L161.257 90.4477L160.824 90.1767L161.304 89.9989L161.427 89.5078L161.745 89.91L162.249 89.8761Z" fill="#2642CA"/>
<path d="M120.722 22.5887C121.447 18.1582 118.436 13.9803 113.997 13.2572C109.558 12.5341 105.372 15.5395 104.648 19.97C103.923 24.4005 106.934 28.5784 111.373 29.3016C115.812 30.0247 119.998 27.0193 120.722 22.5887Z" fill="#2642CA"/>
<g opacity="0.3">
<path d="M111.616 23.8212C111.616 24.0833 111.538 24.3395 111.392 24.5574C111.246 24.7753 111.039 24.9451 110.797 25.0454C110.554 25.1457 110.287 25.1719 110.03 25.1208C109.772 25.0697 109.535 24.9435 109.35 24.7582C109.164 24.5728 109.038 24.3367 108.986 24.0797C108.935 23.8227 108.962 23.5562 109.062 23.3141C109.162 23.072 109.333 22.865 109.551 22.7194C109.769 22.5738 110.026 22.4961 110.289 22.4961C110.641 22.4961 110.978 22.6357 111.227 22.8842C111.476 23.1327 111.616 23.4697 111.616 23.8212V23.8212Z" fill="white"/>
</g>
<g opacity="0.3">
<path d="M109.747 19.9932C109.747 20.1455 109.702 20.2945 109.617 20.4212C109.532 20.5479 109.412 20.6467 109.27 20.705C109.129 20.7633 108.974 20.7786 108.824 20.7488C108.675 20.7191 108.537 20.6457 108.429 20.538C108.321 20.4302 108.248 20.2929 108.218 20.1435C108.188 19.994 108.203 19.8391 108.262 19.6983C108.32 19.5575 108.419 19.4372 108.546 19.3525C108.673 19.2678 108.822 19.2227 108.975 19.2227C109.18 19.2227 109.376 19.3038 109.521 19.4483C109.666 19.5928 109.747 19.7888 109.747 19.9932V19.9932Z" fill="white"/>
</g>
<path d="M104.792 23.2587C104.83 23.3984 97.823 30.1085 99.6298 31.5394C101.437 32.9703 109.033 29.2999 115.51 24.08C121.986 18.86 127.899 12.5183 126.279 10.8418C124.659 9.16532 116.57 14.1312 116.57 14.1312L117.554 14.7451C117.554 14.7451 122.444 11.6123 123.993 12.8273C125.541 14.0423 121.13 18.7965 114.903 23.3349C108.677 27.8732 102.658 31.0568 101.725 29.8121C100.792 28.5675 105.199 24.4229 105.199 24.4229L104.792 23.2587Z" fill="#2642CA"/>
<g opacity="0.3">
<path d="M104.788 23.2587C104.826 23.3984 97.8191 30.1085 99.6259 31.5394C101.433 32.9703 109.029 29.2999 115.506 24.08C121.983 18.86 127.895 12.5183 126.275 10.8418C124.655 9.16532 116.566 14.1312 116.566 14.1312L117.55 14.7451C117.55 14.7451 122.441 11.6123 123.989 12.8273C125.537 14.0423 121.126 18.7965 114.899 23.3349C108.673 27.8732 102.654 31.0568 101.721 29.8121C100.788 28.5675 105.195 24.4229 105.195 24.4229L104.788 23.2587Z" fill="black"/>
</g>
<g opacity="0.3">
<path d="M108.224 15.5563C108.288 15.6368 107.737 16.1024 107.113 17.0423C106.284 18.2469 105.827 19.6674 105.798 21.1283C105.768 22.5893 106.168 24.0268 106.948 25.2637C107.537 26.2248 108.067 26.7158 108 26.792C107.932 26.8682 107.304 26.4703 106.579 25.522C106.159 24.9578 105.826 24.3343 105.59 23.672C104.989 22.0251 105.025 20.2133 105.692 18.5917C105.953 17.9397 106.311 17.3303 106.753 16.784C107.499 15.8527 108.169 15.5013 108.224 15.5563Z" fill="white"/>
</g>
<path d="M125.009 28.4449C125.031 27.5115 125.33 26.6056 125.868 25.8417C126.406 25.0779 127.159 24.4905 128.031 24.1537C128.904 23.8169 129.857 23.746 130.769 23.9498C131.682 24.1536 132.514 24.6231 133.16 25.2988C133.805 25.9745 134.235 26.8261 134.396 27.7459C134.557 28.6657 134.44 29.6124 134.062 30.4662C133.683 31.32 133.06 32.0427 132.27 32.5427C131.48 33.0427 130.559 33.2977 129.624 33.2753C128.37 33.2454 127.18 32.7197 126.314 31.8138C125.449 30.908 124.98 29.6962 125.009 28.4449V28.4449Z" fill="#2642CA"/>
<g opacity="0.4">
<path d="M131.282 26.7533C131.285 26.6008 131.334 26.4527 131.421 26.3278C131.509 26.203 131.632 26.1069 131.775 26.0519C131.917 25.9969 132.073 25.9853 132.222 26.0187C132.371 26.052 132.507 26.1288 132.613 26.2393C132.718 26.3499 132.788 26.4891 132.814 26.6394C132.84 26.7897 132.821 26.9444 132.759 27.0838C132.696 27.2231 132.594 27.341 132.465 27.4223C132.336 27.5037 132.185 27.5449 132.032 27.5407C131.931 27.5385 131.831 27.5164 131.739 27.4756C131.646 27.4347 131.563 27.376 131.493 27.3029C131.423 27.2297 131.368 27.1434 131.332 27.0491C131.296 26.9548 131.279 26.8543 131.282 26.7533Z" fill="black"/>
</g>
<g opacity="0.4">
<path d="M132.82 28.5525C132.823 28.4633 132.852 28.3769 132.904 28.3044C132.957 28.2319 133.029 28.1765 133.113 28.1454C133.197 28.1142 133.288 28.1088 133.375 28.1296C133.462 28.1505 133.541 28.1968 133.601 28.2626C133.662 28.3283 133.701 28.4106 133.714 28.4989C133.728 28.5871 133.714 28.6773 133.676 28.758C133.638 28.8387 133.576 28.9061 133.499 28.9517C133.423 28.9973 133.334 29.019 133.245 29.014C133.128 29.0064 133.019 28.9542 132.94 28.8682C132.861 28.7822 132.818 28.6692 132.82 28.5525V28.5525Z" fill="black"/>
</g>
<g opacity="0.4">
<path d="M132.216 29.9219C132.261 29.923 132.303 29.9413 132.334 29.9729C132.365 30.0046 132.382 30.047 132.382 30.0912C132.381 30.1129 132.376 30.1343 132.368 30.1541C132.359 30.1739 132.346 30.1918 132.33 30.2067C132.315 30.2217 132.296 30.2334 132.276 30.2412C132.256 30.2489 132.234 30.2527 132.212 30.2521C132.19 30.2521 132.169 30.2477 132.148 30.2391C132.128 30.2305 132.11 30.2179 132.095 30.202C132.08 30.1862 132.068 30.1674 132.061 30.1469C132.053 30.1264 132.05 30.1046 132.051 30.0828C132.052 30.0397 132.07 29.9988 132.101 29.9687C132.132 29.9387 132.173 29.9219 132.216 29.9219V29.9219Z" fill="black"/>
</g>
<path d="M144.537 63.6652C144.495 63.6652 144.465 57.6875 144.465 50.317C144.465 42.9465 144.495 36.9688 144.537 36.9688C144.579 36.9688 144.609 42.9422 144.609 50.317C144.609 57.6918 144.575 63.6652 144.537 63.6652Z" fill="#263238"/>
<path d="M145.338 37.2009C144.997 36.7078 144.693 36.1899 144.43 35.6515H144.557V35.6853C144.339 36.2576 144.079 36.8136 143.781 37.3491C143.948 36.7594 144.164 36.1846 144.426 35.6303V35.5964L144.485 35.4609L144.553 35.5879C144.858 36.1038 145.12 36.6432 145.338 37.2009Z" fill="#263238"/>
<path d="M144.389 33.8131C144.364 33.8427 144.143 33.6988 143.965 33.4321C143.787 33.1654 143.744 32.9071 143.782 32.8987C143.821 32.8902 143.922 33.1104 144.084 33.3559C144.245 33.6014 144.414 33.7835 144.389 33.8131Z" fill="#263238"/>
<path d="M143.969 34.5792C144.049 34.251 144.163 33.9319 144.308 33.6267C144.405 33.3033 144.536 32.9911 144.698 32.6953C144.672 33.0356 144.585 33.3684 144.44 33.6775C144.339 34.0044 144.18 34.3101 143.969 34.5792V34.5792Z" fill="#263238"/>
<path d="M142.621 40.4844C142.718 40.2153 142.8 39.9411 142.867 39.6631C142.882 39.3811 142.882 39.0985 142.867 38.8164C143.018 39.084 143.062 39.3985 142.99 39.697C142.969 39.9961 142.838 40.2768 142.621 40.4844Z" fill="#263238"/>
<path d="M142.884 39.3673C142.884 39.3673 142.85 39.4816 142.68 39.5239C142.58 39.5453 142.475 39.5271 142.388 39.4731C142.336 39.4361 142.293 39.3879 142.263 39.3321C142.232 39.2764 142.215 39.2145 142.211 39.1511C142.208 39.0877 142.219 39.0243 142.244 38.9657C142.269 38.9072 142.306 38.8549 142.354 38.8127C142.437 38.7533 142.54 38.7262 142.642 38.7365C142.816 38.7365 142.875 38.8635 142.858 38.872C142.841 38.8805 142.769 38.8297 142.638 38.8381C142.598 38.8374 142.559 38.845 142.523 38.8603C142.486 38.8756 142.453 38.8983 142.426 38.927C142.399 38.9557 142.378 38.9897 142.365 39.0269C142.352 39.0641 142.346 39.1036 142.349 39.1429C142.351 39.1825 142.361 39.2212 142.378 39.2569C142.395 39.2926 142.419 39.3245 142.448 39.3507C142.478 39.3768 142.513 39.3966 142.551 39.4089C142.588 39.4212 142.628 39.4258 142.667 39.4223C142.799 39.4266 142.867 39.3504 142.884 39.3673Z" fill="#263238"/>
<path d="M165.361 61.7634C165.361 61.8015 160.237 61.8353 153.909 61.8353C147.581 61.8353 142.457 61.8015 142.457 61.7634C142.457 61.7253 147.576 61.6914 153.909 61.6914C160.241 61.6914 165.361 61.7253 165.361 61.7634Z" fill="#263238"/>
<path d="M165.591 61.7353C165.259 61.6836 164.936 61.5838 164.633 61.439C164.318 61.34 164.018 61.1975 163.742 61.0156C164.069 61.0687 164.387 61.17 164.684 61.3162C165.005 61.411 165.311 61.5522 165.591 61.7353V61.7353Z" fill="#263238"/>
<path d="M165.842 61.8203C165.359 62.0944 164.83 62.2794 164.281 62.3664C164.515 62.2141 164.771 62.0998 165.04 62.0278C165.294 61.9126 165.565 61.8424 165.842 61.8203V61.8203Z" fill="#263238"/>
<path d="M143.461 62.4883C143.541 62.5428 143.608 62.6131 143.659 62.6946C143.71 62.7762 143.744 62.8673 143.758 62.9624C143.809 63.1696 143.793 63.3875 143.711 63.5848C143.665 63.7066 143.585 63.8134 143.482 63.8938C143.419 63.9346 143.346 63.9563 143.27 63.9563C143.195 63.9563 143.121 63.9346 143.058 63.8938C142.95 63.8141 142.864 63.709 142.806 63.5879C142.748 63.4668 142.721 63.3335 142.727 63.1995C142.724 63.0913 142.746 62.9838 142.79 62.8849C142.834 62.786 142.899 62.6982 142.982 62.628C143.037 62.5805 143.101 62.5444 143.17 62.5218C143.239 62.4993 143.312 62.4908 143.385 62.4968C143.487 62.4968 143.533 62.5433 143.529 62.5476C143.525 62.5518 143.474 62.5476 143.385 62.5476C143.259 62.5589 143.141 62.6126 143.05 62.7C142.984 62.7632 142.933 62.8399 142.901 62.9247C142.868 63.0094 142.853 63.1003 142.859 63.191C142.856 63.3015 142.879 63.411 142.927 63.5109C142.974 63.6109 143.043 63.6985 143.13 63.7668C143.172 63.7936 143.221 63.8079 143.27 63.8079C143.32 63.8079 143.369 63.7936 143.41 63.7668C143.494 63.7029 143.56 63.6183 143.601 63.5213C143.676 63.3479 143.699 63.1571 143.669 62.9709C143.625 62.8004 143.555 62.6376 143.461 62.4883V62.4883Z" fill="#263238"/>
<path d="M162.088 62.7918C162.088 62.7918 162.169 62.7452 162.279 62.8383C162.312 62.8666 162.338 62.9018 162.354 62.9414C162.371 62.981 162.379 63.0239 162.377 63.0669C162.366 63.1769 162.318 63.2799 162.241 63.3591C162.08 63.5369 161.783 63.6046 161.647 63.8205C161.616 63.8769 161.6 63.9402 161.6 64.0047C161.6 64.0691 161.616 64.1324 161.647 64.1888C161.683 64.2479 161.734 64.2957 161.796 64.3264C161.857 64.3572 161.927 64.3697 161.995 64.3624C162.064 64.3566 162.13 64.3301 162.184 64.2862C162.238 64.2424 162.277 64.1834 162.296 64.1169C162.317 64.0551 162.321 63.9891 162.308 63.9253C162.296 63.8615 162.267 63.8021 162.224 63.7528C162.138 63.6538 162.035 63.572 161.919 63.5115C161.856 63.4879 161.798 63.4507 161.751 63.4023C161.704 63.354 161.669 63.2958 161.647 63.232C161.635 63.1771 161.635 63.1201 161.647 63.0651C161.66 63.0102 161.684 62.9587 161.719 62.9145C161.77 62.8511 161.835 62.8015 161.91 62.7706C162.033 62.7283 162.105 62.7367 162.11 62.7452C162.114 62.7537 162.042 62.7452 161.936 62.8214C161.874 62.8547 161.822 62.9027 161.783 62.9611C161.759 62.9966 161.743 63.0371 161.736 63.0796C161.729 63.122 161.732 63.1655 161.745 63.2066C161.787 63.3887 162.127 63.4141 162.326 63.6723C162.383 63.7388 162.423 63.8188 162.441 63.9047C162.458 63.9906 162.454 64.0797 162.428 64.1634C162.399 64.2555 162.343 64.3368 162.267 64.3971C162.192 64.4574 162.1 64.494 162.004 64.5021C161.908 64.5123 161.812 64.495 161.726 64.4522C161.641 64.4094 161.569 64.343 161.52 64.2608C161.476 64.1833 161.453 64.0958 161.453 64.0068C161.453 63.9178 161.476 63.8303 161.52 63.7528C161.607 63.6315 161.724 63.5351 161.859 63.4734C161.964 63.4226 162.062 63.3601 162.152 63.2871C162.219 63.2276 162.264 63.1469 162.279 63.0585C162.283 63.026 162.28 62.9932 162.27 62.9619C162.261 62.9307 162.245 62.9016 162.224 62.8764C162.173 62.7918 162.088 62.8045 162.088 62.7918Z" fill="#263238"/>
<path d="M162.03 62.2544C161.933 61.8367 161.933 61.4021 162.03 60.9844C162.128 61.4021 162.128 61.8367 162.03 62.2544V62.2544Z" fill="#263238"/>
<path d="M168.154 61.7917C168.029 61.8363 167.896 61.8564 167.764 61.8509L167.339 61.8763C167.308 61.887 167.273 61.887 167.242 61.8763C167.221 61.863 167.205 61.8436 167.196 61.8209C167.187 61.7981 167.185 61.7731 167.191 61.7493C167.206 61.6959 167.237 61.6485 167.28 61.6139L167.467 61.4191C167.594 61.3204 167.678 61.1762 167.7 61.0169C167.704 60.9596 167.688 60.9027 167.656 60.8552C167.624 60.8077 167.576 60.7722 167.522 60.7545C167.436 60.744 167.348 60.7603 167.272 60.801C167.208 60.8264 167.174 60.8434 167.165 60.8349C167.157 60.8264 167.187 60.7968 167.242 60.7545C167.324 60.6839 167.43 60.6476 167.539 60.6528C167.623 60.6698 167.699 60.7161 167.753 60.7835C167.806 60.851 167.834 60.9351 167.831 61.0212C167.816 61.2134 167.724 61.3915 167.577 61.5165L167.382 61.707C167.348 61.7366 167.322 61.7663 167.322 61.779H167.348H167.772C167.899 61.7618 168.028 61.7661 168.154 61.7917V61.7917Z" fill="#263238"/>
<path d="M147.587 61.7657C147.587 61.7657 147.587 61.6218 147.587 61.372C147.587 61.1222 147.587 60.7539 147.566 60.3263C147.566 59.4373 147.54 58.2096 147.536 56.8041L147.604 56.876H146.276L146.348 56.8041V58.2731C146.348 58.743 146.348 59.1918 146.348 59.6151C146.348 60.4618 146.348 61.1815 146.327 61.7615L146.285 61.7192L147.252 61.7403C147.481 61.7403 147.608 61.7403 147.612 61.7615C147.501 61.7687 147.389 61.7687 147.277 61.7615L146.285 61.7827H146.242V61.7403C146.242 61.1604 146.242 60.4322 146.242 59.594C146.242 59.1706 146.242 58.7219 146.242 58.2519V56.7829L146.314 56.7109H147.672V56.7787C147.672 58.2138 147.672 59.4627 147.638 60.3475C147.638 60.7709 147.638 61.118 147.638 61.3805C147.632 61.5101 147.615 61.639 147.587 61.7657V61.7657Z" fill="#263238"/>
<path d="M160.245 61.7647C160.24 61.7141 160.24 61.663 160.245 61.6123C160.245 61.5023 160.245 61.3668 160.245 61.189C160.245 60.808 160.245 60.2915 160.223 59.6522C160.223 58.3568 160.198 56.5618 160.194 54.5254L160.266 54.5932H158.934L159.006 54.5254V55.6431C159.006 56.0114 159.006 56.3713 159.006 56.7226C159.006 57.4296 159.006 58.0943 159.006 58.7166C159.006 59.9443 158.985 60.9858 158.981 61.7478L158.943 61.7097H159.914H160.177H160.274C160.163 61.7175 160.051 61.7175 159.939 61.7097L158.943 61.7309H158.904V61.6928C158.904 60.9307 158.904 59.8893 158.879 58.6616C158.879 58.0393 158.879 57.3915 158.879 56.6676C158.879 56.3162 158.879 55.9564 158.879 55.5881V54.4704L158.951 54.3984H160.351V54.4704C160.351 56.5364 160.351 58.3568 160.321 59.648C160.321 60.2788 160.321 60.791 160.3 61.1678C160.3 61.3287 160.3 61.4642 160.3 61.5912C160.3 61.7182 160.245 61.769 160.245 61.7647Z" fill="#263238"/>
<path d="M150.786 61.7661C150.781 61.7041 150.781 61.6418 150.786 61.5799C150.786 61.4444 150.786 61.2708 150.786 61.0549C150.786 60.5934 150.786 59.9457 150.764 59.1414C150.764 57.5199 150.764 55.2804 150.735 52.753L150.807 52.825H149.475C149.619 52.681 149.513 52.7869 149.547 52.7572V54.1881C149.547 54.6581 149.547 55.1153 149.547 55.564C149.547 56.4573 149.547 57.2998 149.547 58.0745C149.547 59.6155 149.526 60.8856 149.517 61.7661L149.483 61.7323H150.463H150.722H150.815H150.735H150.48H149.483H149.45V61.6984C149.45 60.8178 149.45 59.5478 149.424 58.0068C149.424 57.232 149.424 56.3896 149.424 55.4963C149.424 55.0476 149.424 54.5903 149.424 54.1204V52.6895C149.458 52.6556 149.352 52.7572 149.496 52.6133H150.896V52.681C150.896 55.2211 150.875 57.4861 150.866 59.1202C150.866 59.9161 150.866 60.5596 150.845 61.0168C150.845 61.2285 150.845 61.3978 150.845 61.5248C150.845 61.6518 150.786 61.7704 150.786 61.7661Z" fill="#263238"/>
<path d="M153.916 61.7375C153.914 61.7136 153.914 61.6895 153.916 61.6656V61.4412C153.916 61.2465 153.916 60.9755 153.916 60.6326C153.916 59.9256 153.916 58.9138 153.895 57.6691C153.895 55.1544 153.874 51.6787 153.861 47.7754L153.933 47.8474H152.589L152.657 47.7797V52.2545C152.657 53.6685 152.657 54.9978 152.657 56.2086C152.657 58.6132 152.631 60.5395 152.623 61.7121L152.597 61.6867H153.577H153.925C153.925 61.6867 153.899 61.6867 153.844 61.6867H153.607H152.61H152.58V61.6571C152.58 60.4633 152.58 58.537 152.551 56.1536C152.551 54.9428 152.551 53.6134 152.551 52.1995C152.551 51.4882 152.551 50.7601 152.551 50.0107V47.7246C152.58 47.6908 152.478 47.7924 152.623 47.6484H154.022V47.7204C154.022 51.6406 154.022 55.1375 153.993 57.6649C153.993 58.9096 153.993 59.9171 153.971 60.6284C153.971 60.9671 153.971 61.2338 153.971 61.4243V61.6275C153.92 61.7206 153.92 61.7418 153.916 61.7375Z" fill="#263238"/>
<path d="M157.127 61.7353C157.127 61.7353 157.127 61.693 157.127 61.6125C157.127 61.5321 157.127 61.4051 157.127 61.2527C157.127 60.9352 157.127 60.4737 157.127 59.8852C157.127 58.6956 157.127 56.9768 157.106 54.8558C157.106 50.6223 157.106 44.7251 157.076 38.1631L157.148 38.2351H155.816C155.956 38.0954 155.859 38.2012 155.889 38.1716V42.2231C155.889 43.5439 155.889 44.8309 155.889 46.0713C155.889 48.5564 155.889 50.8594 155.889 52.9211C155.889 57.0276 155.859 60.1477 155.85 61.7353H156.847H157.182C157.182 61.7353 157.157 61.7353 157.102 61.7353H156.86H155.85H155.829V61.7099C155.829 60.1223 155.808 57.0022 155.795 52.8957C155.795 50.834 155.795 48.531 155.795 46.0459C155.795 44.8055 155.795 43.5058 155.795 42.1977V38.1547C155.829 38.1208 155.723 38.2182 155.867 38.0742H157.267V38.1547C157.267 44.7378 157.267 50.635 157.237 54.8982C157.237 57.0149 157.237 58.7083 157.216 59.9106C157.216 60.4949 157.216 60.9479 157.216 61.2654C157.216 61.4135 157.216 61.5278 157.216 61.6125C157.216 61.6972 157.127 61.7395 157.127 61.7353Z" fill="#263238"/>
<path d="M14.7422 63.1289L15.8746 82.9544L49.1062 81.062L14.7422 63.1289ZM20.2942 70.8212L34.5878 78.4415L20.7735 79.2162L20.2942 70.8212Z" fill="#2642CA"/>
<path d="M18.041 64.8594C17.935 65.2962 17.7573 65.7125 17.515 66.0913C17.3362 66.5068 17.0881 66.889 16.7812 67.2217C16.8851 66.7802 17.0629 66.3594 17.3072 65.977C17.4883 65.5666 17.7363 65.189 18.041 64.8594V64.8594Z" fill="#263238"/>
<path d="M23.1418 67.4883C23.0357 67.9198 22.8579 68.3304 22.6159 68.7033C22.4404 69.1084 22.1949 69.4795 21.8906 69.7998C21.9933 69.3678 22.1697 68.9568 22.4123 68.5848C22.5871 68.1782 22.8342 67.8067 23.1418 67.4883V67.4883Z" fill="#263238"/>
<path d="M28.2313 70.1211C28.0834 70.5374 27.8654 70.9254 27.5866 71.2684C27.3688 71.6562 27.0812 72.0007 26.7383 72.2844C26.8856 71.8666 27.1036 71.4771 27.383 71.1329C27.603 70.7478 27.8903 70.4052 28.2313 70.1211V70.1211Z" fill="#263238"/>
<path d="M33.2469 72.8672C33.1039 73.2869 32.8854 73.6771 32.6022 74.0187C32.3794 74.4031 32.0925 74.7467 31.7539 75.0347C31.8969 74.615 32.1154 74.2248 32.3986 73.8832C32.6214 73.4988 32.9083 73.1552 33.2469 72.8672V72.8672Z" fill="#263238"/>
<path d="M38.4829 75.5469C38.3588 75.9849 38.1609 76.3987 37.8976 76.7704C37.7009 77.1782 37.4371 77.5503 37.1172 77.8711C37.4321 77.0223 37.8944 76.2355 38.4829 75.5469V75.5469Z" fill="#263238"/>
<path d="M43.9143 78.375C43.8141 78.7899 43.6387 79.183 43.3968 79.535C43.2203 79.9233 42.9762 80.2774 42.6758 80.5807C42.7782 80.1645 42.955 79.7701 43.1975 79.4164C43.3696 79.0279 43.6127 78.6748 43.9143 78.375V78.375Z" fill="#263238"/>
<path d="M19.6319 65.6927C19.687 65.7266 19.5937 66.0145 19.4198 66.3447C19.2459 66.6749 19.0593 66.9078 18.9956 66.8781C18.932 66.8485 19.0338 66.5564 19.2077 66.2304C19.3816 65.9044 19.5767 65.6716 19.6319 65.6927Z" fill="#263238"/>
<path d="M21.2971 66.5254C21.3565 66.555 21.259 66.8471 21.0851 67.1731C20.9112 67.4991 20.7288 67.7404 20.6609 67.7107C20.5931 67.6811 20.7033 67.389 20.873 67.0588C21.0427 66.7286 21.242 66.5 21.2971 66.5254Z" fill="#263238"/>
<path d="M25.0186 68.4868C25.0737 68.5207 24.9804 68.8086 24.8065 69.1388C24.6326 69.469 24.446 69.7061 24.3824 69.6722C24.3187 69.6384 24.4205 69.3505 24.5944 69.0245C24.7683 68.6985 24.9634 68.4572 25.0186 68.4868Z" fill="#263238"/>
<path d="M26.6904 69.3229C26.7456 69.3525 26.6523 69.6446 26.4784 69.9706C26.3045 70.2966 26.1179 70.5379 26.0542 70.5082C25.9906 70.4786 26.0924 70.1865 26.2663 69.8563C26.4402 69.5261 26.6311 69.2932 26.6904 69.3229Z" fill="#263238"/>
<path d="M30.0554 71.2011C30.1148 71.2308 30.0172 71.5229 29.8433 71.8489C29.6694 72.1748 29.487 72.4162 29.4192 72.3865C29.3513 72.3569 29.4573 72.0648 29.6312 71.7346C29.8051 71.4044 30.0002 71.1757 30.0554 71.2011Z" fill="#263238"/>
<path d="M31.6491 72.0234C31.7085 72.0531 31.611 72.3452 31.4371 72.6712C31.2632 72.9971 31.0808 73.2385 31.0129 73.2088C30.9451 73.1792 31.0511 72.8828 31.225 72.5569C31.3989 72.2309 31.594 72.0234 31.6491 72.0234Z" fill="#263238"/>
<path d="M35.0866 73.8228C35.1418 73.8566 35.0485 74.1445 34.8746 74.4747C34.7007 74.8049 34.5183 75.0378 34.4504 75.0082C34.3826 74.9785 34.4886 74.6864 34.6625 74.3604C34.8364 74.0344 35.0315 73.7931 35.0866 73.8228Z" fill="#263238"/>
<path d="M36.9365 74.7954C36.9917 74.8293 36.8984 75.1172 36.7245 75.4474C36.5506 75.7776 36.3639 76.0147 36.3003 75.9808C36.2367 75.9469 36.3385 75.6591 36.5124 75.3331C36.6863 75.0071 36.8814 74.7658 36.9365 74.7954Z" fill="#263238"/>
<path d="M40.2647 76.5416C40.3198 76.5712 40.2265 76.8634 40.0526 77.1893C39.8787 77.5153 39.6921 77.7566 39.6285 77.727C39.5648 77.6974 39.6666 77.4052 39.8405 77.075C40.0144 76.7448 40.2053 76.512 40.2647 76.5416Z" fill="#263238"/>
<path d="M42.1787 77.522C42.2339 77.5559 42.1406 77.848 41.9667 78.174C41.7928 78.4999 41.6061 78.7412 41.5425 78.7074C41.4789 78.6735 41.5807 78.3856 41.7546 78.0597C41.9285 77.7337 42.1236 77.4924 42.1787 77.522Z" fill="#263238"/>
<path d="M71.5761 35.5463C71.5761 35.5463 71.5761 35.5209 71.5761 35.4743C71.5761 35.4277 71.5761 35.3515 71.5761 35.2626C71.5761 35.0763 71.5761 34.8054 71.5761 34.454C71.5761 33.7428 71.5761 32.7098 71.5761 31.3974C71.5761 28.7726 71.5548 25.0472 71.5421 20.5427L71.6057 20.602H56.5741L56.642 20.53C56.642 26.0336 56.642 31.173 56.642 35.5336L56.5826 35.4701L67.4576 35.5039H70.5199H70.5454H67.5L56.5826 35.5336H56.4766V35.4701C56.4766 31.1095 56.4766 25.9616 56.4766 20.4665V20.3945H56.5487H71.5803H71.6397V20.458C71.6397 24.9625 71.6185 28.7176 71.61 31.3551C71.61 32.659 71.61 33.6877 71.61 34.3947C71.61 34.7419 71.61 35.0044 71.61 35.1906V35.4616L71.5761 35.5463Z" fill="#2642CA"/>
<path d="M71.5785 35.5507C71.6148 35.5213 71.653 35.4945 71.693 35.4703L72.0366 35.2502L73.3684 34.4035L78.263 31.385L78.2375 31.4315C78.2375 27.5155 78.2375 22.3295 78.2375 16.6524L78.3054 16.7243H78.2672H63.4477H63.4731L58.4131 19.5311L57.0304 20.3016L56.6699 20.4964L56.5469 20.5599C56.5837 20.5326 56.622 20.5072 56.6614 20.4837L57.0177 20.272L58.3834 19.4803L63.4053 16.6016H78.2248H78.3351V16.6735C78.3351 22.3507 78.3351 27.5367 78.3351 31.4527V31.4823H78.3096L73.3896 34.4839L72.0451 35.2967L71.693 35.5042L71.5785 35.5507Z" fill="#2642CA"/>
<path d="M78.2881 16.6299C78.3093 16.6638 76.8248 17.5655 74.9713 18.645C73.1178 19.7246 71.5781 20.5755 71.5781 20.5417C71.5781 20.5078 73.0414 19.606 74.8992 18.5223C76.7569 17.4385 78.2711 16.596 78.2881 16.6299Z" fill="#2642CA"/>
<path d="M57.2569 34.931C57.2569 34.9648 57.1297 35.0876 56.9346 35.1977C56.7395 35.3077 56.5613 35.3755 56.5444 35.3416C56.5274 35.3078 56.6674 35.1892 56.8625 35.0749C57.0576 34.9606 57.2357 34.8971 57.2569 34.931Z" fill="#2642CA"/>
<path d="M58.6827 34.1146C58.7039 34.1484 58.5597 34.2712 58.3604 34.3813C58.161 34.4913 57.9871 34.5591 57.9701 34.5252C57.9532 34.4913 58.0931 34.3728 58.2925 34.2585C58.4918 34.1442 58.6615 34.0807 58.6827 34.1146Z" fill="#2642CA"/>
<path d="M60.1053 33.2903C60.1265 33.3242 59.9822 33.447 59.7871 33.5571C59.592 33.6671 59.4139 33.7349 59.3927 33.701C59.3715 33.6671 59.5157 33.5486 59.715 33.4343C59.9144 33.32 60.0883 33.2565 60.1053 33.2903Z" fill="#2642CA"/>
<path d="M61.5391 32.4818C61.5391 32.5156 61.4119 32.6342 61.2168 32.7485C61.0217 32.8628 60.8435 32.9263 60.8223 32.8924C60.8011 32.8585 60.9496 32.74 61.1447 32.6257C61.3398 32.5114 61.5179 32.4479 61.5391 32.4818Z" fill="#2642CA"/>
<path d="M62.9639 31.6614C62.9639 31.6953 62.8409 31.8138 62.6416 31.9282C62.4423 32.0425 62.2684 32.106 62.2514 32.0721C62.2344 32.0382 62.3744 31.9197 62.5695 31.8054C62.7646 31.6911 62.9427 31.6276 62.9639 31.6614Z" fill="#2642CA"/>
<path d="M63.3224 30.2266C63.3606 30.2266 63.3903 30.4087 63.3903 30.65C63.3903 30.8913 63.3564 31.0733 63.314 31.0733C63.2715 31.0733 63.2461 30.8913 63.2461 30.65C63.2461 30.4087 63.2843 30.2224 63.3224 30.2266Z" fill="#2642CA"/>
<path d="M63.3342 28.5859C63.3723 28.5859 63.4063 28.768 63.402 29.0093C63.3978 29.2506 63.3681 29.4326 63.3299 29.4326C63.2917 29.4326 63.2578 29.2464 63.2578 29.0093C63.2578 28.7722 63.296 28.5859 63.3342 28.5859Z" fill="#2642CA"/>
<path d="M63.3498 26.9414C63.388 26.9414 63.4219 27.1277 63.4176 27.3648C63.4134 27.6018 63.3837 27.7881 63.3455 27.7881C63.3074 27.7881 63.2734 27.6018 63.2734 27.3648C63.2734 27.1277 63.3116 26.9414 63.3498 26.9414Z" fill="#2642CA"/>
<path d="M63.3615 25.2969C63.3997 25.2969 63.4336 25.4831 63.4294 25.7202C63.4251 25.9573 63.3955 26.1436 63.3573 26.1436C63.3191 26.1436 63.2852 25.9615 63.2894 25.7202C63.2937 25.4789 63.3234 25.2969 63.3615 25.2969Z" fill="#2642CA"/>
<path d="M63.3772 23.6602C63.4153 23.6602 63.4493 23.8422 63.445 24.0835C63.4408 24.3248 63.4111 24.5069 63.3729 24.5069C63.3347 24.5069 63.3008 24.3248 63.305 24.0835C63.3093 23.8422 63.339 23.6602 63.3772 23.6602Z" fill="#2642CA"/>
<path d="M63.385 22.0195C63.4274 22.0195 63.4571 22.2016 63.4528 22.4429C63.4486 22.6842 63.4189 22.8662 63.3807 22.8662C63.3426 22.8662 63.3086 22.68 63.3129 22.4429C63.3171 22.2058 63.3468 22.0195 63.385 22.0195Z" fill="#2642CA"/>
<path d="M63.4006 20.3789C63.443 20.3789 63.4727 20.5652 63.4685 20.8023C63.4642 21.0393 63.4345 21.2256 63.3963 21.2256C63.3582 21.2256 63.3242 21.0393 63.3285 20.8023C63.3327 20.5652 63.3624 20.3789 63.4006 20.3789Z" fill="#2642CA"/>
<path d="M63.4123 18.7344C63.4547 18.7344 63.4844 18.9206 63.4802 19.1577C63.4759 19.3948 63.4462 19.5811 63.4081 19.5811C63.3699 19.5811 63.336 19.399 63.3402 19.1577C63.3444 18.9164 63.3741 18.7344 63.4123 18.7344Z" fill="#2642CA"/>
<path d="M63.4279 17.0898C63.4703 17.0898 63.5 17.2719 63.4958 17.5132C63.4915 17.7545 63.4619 17.9365 63.4237 17.9365C63.3855 17.9365 63.3516 17.7545 63.3558 17.5132C63.3601 17.2719 63.3898 17.0898 63.4279 17.0898Z" fill="#2642CA"/>
<path d="M77.4688 31.4229C77.4688 31.389 77.6511 31.3594 77.8929 31.3594C78.1347 31.3594 78.317 31.389 78.317 31.4229C78.317 31.4567 78.1347 31.4906 77.8929 31.4906C77.6511 31.4906 77.4688 31.461 77.4688 31.4229Z" fill="#2642CA"/>
<path d="M75.8203 31.4229C75.8203 31.389 76.0027 31.3594 76.2445 31.3594C76.4862 31.3594 76.6686 31.389 76.6686 31.4229C76.6686 31.4567 76.482 31.4906 76.2445 31.4906C76.0069 31.4906 75.8203 31.461 75.8203 31.4229Z" fill="#2642CA"/>
<path d="M74.1797 31.4229C74.1797 31.389 74.3621 31.3594 74.6038 31.3594C74.8456 31.3594 75.028 31.389 75.028 31.4229C75.028 31.4567 74.8456 31.4906 74.6038 31.4906C74.3621 31.4906 74.1797 31.461 74.1797 31.4229Z" fill="#2642CA"/>
<path d="M72.5312 31.4229C72.5312 31.389 72.7179 31.3594 72.9554 31.3594C73.1929 31.3594 73.3795 31.389 73.3795 31.4229C73.3795 31.4567 73.1972 31.4906 72.9554 31.4906C72.7136 31.4906 72.5312 31.461 72.5312 31.4229Z" fill="#2642CA"/>
<path d="M70.8984 31.4229C70.8984 31.389 71.0808 31.3594 71.3226 31.3594C71.5643 31.3594 71.7467 31.389 71.7467 31.4229C71.7467 31.4567 71.5643 31.4906 71.3226 31.4906C71.0808 31.4906 70.8984 31.461 70.8984 31.4229Z" fill="#2642CA"/>
<path d="M69.2422 31.4229C69.2422 31.389 69.4246 31.3594 69.6663 31.3594C69.9081 31.3594 70.0905 31.389 70.0905 31.4229C70.0905 31.4567 69.9039 31.4906 69.6663 31.4906C69.4288 31.4906 69.2422 31.461 69.2422 31.4229Z" fill="#2642CA"/>
<path d="M67.5977 31.4229C67.5977 31.389 67.78 31.3594 68.0218 31.3594C68.2636 31.3594 68.4459 31.389 68.4459 31.4229C68.4459 31.4567 68.2636 31.4906 68.0218 31.4906C67.78 31.4906 67.5977 31.461 67.5977 31.4229Z" fill="#2642CA"/>
<path d="M65.9531 31.4229C65.9531 31.389 66.1397 31.3594 66.3773 31.3594C66.6148 31.3594 66.8014 31.389 66.8014 31.4229C66.8014 31.4567 66.619 31.4906 66.3773 31.4906C66.1355 31.4906 65.9531 31.461 65.9531 31.4229Z" fill="#2642CA"/>
<path d="M64.3125 31.4229C64.3125 31.389 64.4949 31.3594 64.7366 31.3594C64.9784 31.3594 65.1608 31.389 65.1608 31.4229C65.1608 31.4567 64.9784 31.4906 64.7366 31.4906C64.4949 31.4906 64.3125 31.461 64.3125 31.4229Z" fill="#2642CA"/>
<path d="M63.3125 31.4229C63.3125 31.389 63.3507 31.3594 63.3973 31.3594C63.444 31.3594 63.4864 31.389 63.4864 31.4229C63.4864 31.4567 63.4482 31.4906 63.3973 31.4906C63.3873 31.4918 63.3771 31.491 63.3674 31.4882C63.3577 31.4854 63.3486 31.4807 63.3407 31.4744C63.3328 31.4681 63.3263 31.4603 63.3214 31.4515C63.3166 31.4426 63.3136 31.4329 63.3125 31.4229V31.4229Z" fill="#2642CA"/>
<path d="M80.108 26.4171C80.2335 26.4292 80.3599 26.4292 80.4854 26.4171C80.6502 26.3807 80.8052 26.3093 80.9399 26.2077C81.0746 26.1062 81.1858 25.9769 81.2659 25.8286C81.3718 25.6043 81.4232 25.3581 81.4159 25.1102C81.4085 24.8623 81.3426 24.6196 81.2234 24.4019C81.1959 24.3421 81.1546 24.2895 81.1031 24.2483C81.0516 24.2071 80.9911 24.1786 80.9265 24.1648C80.7909 24.1479 80.654 24.1843 80.5448 24.2664C80.3185 24.4857 80.1533 24.76 80.0655 25.0623C79.9468 25.3907 79.8754 25.7342 79.8535 26.0826H79.7135C79.7135 24.9946 79.6923 24.0463 79.6923 23.3689C79.6923 23.0514 79.6923 22.7847 79.6923 22.573C79.6807 22.4774 79.6807 22.3808 79.6923 22.2852C79.7118 22.3799 79.7217 22.4763 79.722 22.573C79.722 22.7847 79.722 23.0514 79.7559 23.3689C79.7814 24.0463 79.8068 24.9946 79.828 26.0826H79.688C79.7108 25.7212 79.7851 25.3648 79.9086 25.0242C79.967 24.865 80.0349 24.7095 80.1122 24.5585C80.189 24.4051 80.2991 24.2706 80.4345 24.1648C80.504 24.1121 80.5833 24.0738 80.6678 24.052C80.7522 24.0302 80.8402 24.0254 80.9265 24.0378C81.0087 24.0576 81.0854 24.0952 81.1514 24.1479C81.2173 24.2005 81.2709 24.267 81.3083 24.3426C81.4338 24.5809 81.4995 24.8461 81.4995 25.1153C81.4995 25.3845 81.4338 25.6496 81.3083 25.8879C81.2206 26.0436 81.0988 26.1774 80.9519 26.2794C80.8049 26.3813 80.6368 26.4486 80.46 26.4763C80.3645 26.492 80.2671 26.492 80.1716 26.4763C80.1472 26.4602 80.1257 26.4402 80.108 26.4171V26.4171Z" fill="#2642CA"/>
<path d="M38.4179 96.679C38.4179 96.679 38.4773 96.679 38.5918 96.7298C38.7063 96.7806 38.876 96.8187 39.0923 96.9076C39.7258 97.157 40.3314 97.472 40.8991 97.8474C41.8036 98.4413 42.6058 99.1776 43.2743 100.028C44.1716 101.151 44.7802 102.477 45.0472 103.889C45.3503 105.609 45.121 107.381 44.3898 108.969C43.9874 109.853 43.4268 110.656 42.7357 111.34C42.3739 111.697 41.9775 112.017 41.5523 112.296C41.3275 112.423 41.1282 112.559 40.8737 112.677C40.6192 112.796 40.4071 112.91 40.1569 112.999C38.1804 113.782 35.9154 113.816 33.642 113.6C32.5053 113.49 31.3601 113.325 30.1938 113.143C29.0091 112.974 27.8413 112.703 26.7031 112.334C25.5521 111.969 24.4883 111.373 23.5771 110.582C23.1404 110.183 22.7557 109.73 22.4319 109.236C22.1249 108.74 21.8786 108.21 21.6982 107.656C21.3564 106.578 21.2423 105.441 21.3631 104.316C21.4825 103.243 21.7958 102.2 22.2877 101.238C23.2565 99.481 24.719 98.0448 26.4952 97.1065C28.0257 96.2818 29.6973 95.7505 31.4238 95.5402C32.8434 95.3721 34.2773 95.3622 35.6991 95.5105C36.7699 95.6239 37.8334 95.7978 38.8844 96.0312C39.7327 96.226 40.4114 96.4038 40.8609 96.5266L41.3699 96.6747L41.5438 96.734L41.3657 96.6917L40.8525 96.5604C40.4029 96.4461 39.737 96.2768 38.8717 96.0947C37.82 95.8726 36.7565 95.7101 35.6864 95.6079C34.2752 95.4659 32.8524 95.483 31.445 95.6587C29.7371 95.8766 28.0846 96.4092 26.5716 97.2293C24.8248 98.1594 23.3877 99.5776 22.4362 101.31C21.9557 102.258 21.6524 103.285 21.5412 104.342C21.4252 105.444 21.5379 106.558 21.8721 107.614C22.0456 108.155 22.2849 108.672 22.5846 109.155C22.898 109.638 23.2714 110.079 23.6959 110.467C24.5913 111.241 25.6345 111.826 26.7624 112.186C27.894 112.551 29.0547 112.819 30.2319 112.986C31.3898 113.168 32.5393 113.334 33.6675 113.444C35.9154 113.66 38.1676 113.63 40.1102 112.859C41.9626 112.145 43.4579 110.731 44.2711 108.922C44.9954 107.36 45.229 105.616 44.9412 103.918C44.6789 102.527 44.0838 101.22 43.2065 100.108C42.5495 99.2626 41.7621 98.5266 40.8737 97.9278C40.3108 97.5498 39.7128 97.2266 39.088 96.9626C38.8717 96.8737 38.7063 96.8187 38.5918 96.7721L38.4179 96.679Z" fill="#263238"/>
<path d="M27.0923 107.614C26.98 107.643 26.8646 107.657 26.7487 107.657L25.8029 107.703H25.489C25.3694 107.72 25.2481 107.72 25.1285 107.703C25.0529 107.68 24.9891 107.628 24.9504 107.559C24.9183 107.496 24.8995 107.427 24.8952 107.356L24.8698 106.971C24.8401 106.437 24.8061 105.862 24.7722 105.277C24.7383 104.693 24.7001 104.096 24.6959 103.559C24.6887 103.295 24.7501 103.034 24.874 102.801C24.9967 102.608 25.178 102.46 25.3915 102.378C25.6976 102.271 26.0238 102.235 26.3458 102.272C26.4629 102.275 26.5789 102.296 26.6893 102.335C26.5736 102.345 26.4573 102.345 26.3415 102.335C26.0334 102.322 25.7258 102.372 25.4381 102.483C25.2565 102.568 25.1075 102.709 25.014 102.886C24.9079 103.098 24.8569 103.334 24.8655 103.571C24.8655 104.088 24.9292 104.676 24.9546 105.265C24.98 105.853 25.014 106.446 25.0437 106.958C25.0691 107.208 25.014 107.521 25.1879 107.564C25.2934 107.579 25.4005 107.579 25.506 107.564H26.7784C26.8848 107.567 26.9903 107.584 27.0923 107.614V107.614Z" fill="#263238"/>
<path d="M26.6202 104.844C26.3347 104.931 26.0358 104.965 25.738 104.945C25.4409 104.978 25.1403 104.955 24.8516 104.878C25.1366 104.789 25.4359 104.754 25.7338 104.776C26.0309 104.744 26.3315 104.766 26.6202 104.844V104.844Z" fill="#263238"/>
<path d="M31.0286 104.057C30.5833 104.119 30.1333 104.142 29.684 104.125C29.238 104.16 28.7898 104.16 28.3438 104.125C28.7755 103.988 29.2273 103.927 29.6798 103.942C30.1326 103.907 30.5882 103.946 31.0286 104.057Z" fill="#263238"/>
<path d="M31.2915 106.08C30.8551 106.179 30.4058 106.211 29.9597 106.173C29.5145 106.19 29.0693 106.138 28.6406 106.016C29.0807 105.974 29.5239 105.974 29.9639 106.016C30.4075 105.997 30.8518 106.018 31.2915 106.08Z" fill="#263238"/>
<path d="M38.424 107.297C38.424 107.297 38.424 107.115 38.424 106.781C38.4036 106.308 38.3179 105.841 38.1695 105.392C38.1016 105.077 37.928 104.795 37.6775 104.592C37.6058 104.551 37.524 104.533 37.4419 104.538C37.3598 104.543 37.281 104.572 37.2152 104.621C37.0655 104.732 36.9448 104.878 36.8631 105.045C36.5238 105.878 36.3787 106.777 36.439 107.674H36.2736C36.322 107.025 36.3135 106.374 36.2481 105.726C36.2247 105.464 36.1879 105.202 36.1378 104.943C36.0959 104.704 35.9695 104.488 35.7816 104.334C35.6914 104.269 35.583 104.234 35.4719 104.234C35.3608 104.234 35.2525 104.269 35.1623 104.334C34.9719 104.458 34.8332 104.648 34.7721 104.867C34.7113 105.087 34.6715 105.312 34.6533 105.54C34.6279 105.764 34.6067 105.985 34.5982 106.201C34.5748 106.602 34.5748 107.005 34.5982 107.407H34.4667C34.4328 106.455 34.4031 105.676 34.3819 105.104C34.3819 104.85 34.3819 104.643 34.3819 104.477C34.3727 104.404 34.3727 104.33 34.3819 104.257C34.3988 104.33 34.4087 104.403 34.4116 104.477L34.4625 105.104C34.4964 105.671 34.5473 106.45 34.6067 107.399H34.4752C34.4536 106.992 34.4536 106.585 34.4752 106.179C34.4752 105.963 34.5006 105.756 34.5261 105.51C34.5434 105.273 34.5846 105.037 34.6491 104.808C34.7188 104.552 34.8783 104.329 35.0987 104.181C35.2255 104.101 35.3729 104.06 35.5228 104.063C35.6755 104.063 35.824 104.112 35.947 104.202C36.1688 104.38 36.3194 104.63 36.3711 104.909C36.4252 105.175 36.4648 105.444 36.4899 105.714C36.5469 106.371 36.5469 107.033 36.4899 107.691H36.3245C36.2684 106.771 36.4282 105.85 36.791 105.002C36.8875 104.807 37.0338 104.641 37.2152 104.52C37.302 104.458 37.4051 104.422 37.5119 104.416C37.6188 104.411 37.7248 104.437 37.8174 104.49C38.0915 104.711 38.2791 105.021 38.3476 105.367C38.4877 105.828 38.5592 106.307 38.5597 106.789C38.5597 106.958 38.5597 107.09 38.5385 107.174C38.5072 107.221 38.4685 107.262 38.424 107.297V107.297Z" fill="#263238"/>
<path d="M42.1351 107.03C42.1351 107.03 42.0757 107.102 41.9315 107.174C41.7263 107.273 41.5022 107.328 41.2741 107.334C40.9295 107.345 40.5896 107.252 40.2985 107.068C39.9416 106.832 39.6873 106.47 39.5867 106.054C39.486 105.639 39.5463 105.201 39.7556 104.828C39.9313 104.532 40.1911 104.295 40.5021 104.147C40.7075 104.048 40.9317 103.994 41.1596 103.99C41.243 103.984 41.3269 103.995 41.4056 104.024C41.1113 104.048 40.8239 104.126 40.5573 104.252C40.2802 104.404 40.051 104.63 39.8956 104.904C39.7178 105.246 39.6697 105.64 39.7601 106.014C39.8505 106.389 40.0734 106.718 40.3876 106.941C40.6523 107.115 40.9613 107.21 41.2783 107.216C41.5731 107.208 41.8639 107.145 42.1351 107.03V107.03Z" fill="#263238"/>
<path d="M43.1389 102.229C42.4996 102.268 41.8666 102.377 41.2515 102.555L40.9673 102.648L41.1794 102.433C41.5878 102.06 41.9419 101.633 42.2313 101.163C42.4574 100.769 42.5356 100.308 42.4518 99.8628C42.4052 99.6639 42.2864 99.5072 42.1252 99.503C41.9575 99.5059 41.793 99.5495 41.6459 99.63C41.421 99.7455 41.2219 99.9054 41.0606 100.1C40.9461 100.24 40.8994 100.333 40.8867 100.324C40.9041 100.228 40.9465 100.137 41.0097 100.062C41.156 99.8386 41.3557 99.6552 41.5908 99.5284C41.7541 99.4267 41.9413 99.3697 42.1337 99.3633C42.1928 99.3651 42.2509 99.3792 42.3042 99.4047C42.3575 99.4302 42.4049 99.4666 42.4433 99.5115C42.5194 99.6006 42.5732 99.7066 42.6003 99.8205C42.7051 100.306 42.6265 100.812 42.3797 101.243C42.0844 101.734 41.7137 102.175 41.2812 102.551L41.2091 102.424C41.6608 102.289 42.1287 102.215 42.6003 102.204C42.7799 102.181 42.9623 102.189 43.1389 102.229Z" fill="#263238"/>
<path d="M71.5445 97.2204L80.583 95.4805L97.922 99.4515L106.71 101.28L106.837 113.265L87.2336 116.868L74.0046 112.956L69.0039 105.611L71.5445 97.2204Z" fill="#FFBE9D"/>
<path d="M65.1209 98.4168L73.6504 96.4102C73.6504 96.4102 79.6817 115.038 94.5649 114.221C106.695 113.564 106.708 101.283 106.708 101.283L115.577 102.845C115.577 102.845 119.297 125.321 115.221 141.086C111.828 154.21 108.816 172.194 108.816 172.194H49.8984L65.1209 98.4168V98.4168Z" fill="#2642CA"/>
<path d="M151.552 156.006C151.552 156.006 127.253 113.514 122.88 108.061C118.091 102.092 114.27 102.782 114.27 102.782L111.699 131.405L132.359 160.663L137.284 162.437L151.552 156.006Z" fill="#2642CA"/>
<path d="M66.1406 98.1797C66.1406 98.1797 52.3305 99.2804 47.3765 121.887C45.137 132.103 42.2868 144.075 41.4894 152.119C40.8956 157.957 44.5051 164.028 50.337 164.773L57.6577 166.127C59.5918 166.486 61.5899 166.09 63.2406 165.022C64.8912 163.954 66.0688 162.295 66.5308 160.387L69.0036 150.167L62.4166 147.957L63.9393 117.514L66.1406 98.1797Z" fill="#2642CA"/>
<path d="M116.707 118.645C116.739 118.746 116.76 118.851 116.77 118.958C116.808 119.186 116.851 119.491 116.91 119.868C116.94 120.067 116.97 120.291 117.008 120.528C117.046 120.766 117.059 121.032 117.084 121.316C117.143 121.879 117.211 122.522 117.241 123.238C117.343 124.911 117.355 126.589 117.275 128.263C117.176 130.313 116.972 132.356 116.664 134.385C116.346 136.544 115.947 138.584 115.544 140.43C115.141 142.276 114.739 143.931 114.395 145.32C114.051 146.708 113.75 147.822 113.547 148.592C113.445 148.961 113.364 149.257 113.301 149.477C113.275 149.581 113.242 149.683 113.203 149.782C113.212 149.676 113.23 149.571 113.258 149.469C113.309 149.24 113.381 148.944 113.466 148.571L114.247 145.265C114.573 143.872 114.963 142.217 115.349 140.371C115.735 138.525 116.134 136.489 116.452 134.334C116.77 132.179 116.986 130.1 117.076 128.233C117.165 126.366 117.173 124.652 117.076 123.229C117.076 122.518 116.999 121.875 116.953 121.307C116.931 121.028 116.91 120.766 116.893 120.52C116.876 120.274 116.838 120.063 116.817 119.86C116.774 119.483 116.745 119.178 116.719 118.949C116.708 118.848 116.704 118.746 116.707 118.645V118.645Z" fill="#263238"/>
<path d="M69.6489 151.26C69.6196 151.2 69.5955 151.138 69.5768 151.074C69.5344 150.934 69.475 150.756 69.4029 150.528L69.1315 149.651C69.055 149.253 68.8866 148.877 68.6395 148.555C68.2762 148.207 67.8423 147.942 67.367 147.776C66.8083 147.565 66.2321 147.404 65.645 147.293C64.2455 147.034 62.8267 146.893 61.4036 146.87H61.2891V146.76L62.536 138.644C63.3377 133.534 64.0672 128.907 64.5974 125.52C64.8731 123.861 65.0936 122.51 65.2506 121.554C65.3269 121.101 65.3905 120.741 65.4372 120.474C65.4372 120.364 65.4754 120.271 65.4923 120.195C65.4953 120.162 65.5039 120.131 65.5178 120.102C65.5243 120.134 65.5243 120.167 65.5178 120.199C65.5178 120.275 65.5178 120.368 65.4838 120.483C65.4499 120.749 65.399 121.109 65.3396 121.566C65.1997 122.527 65.0003 123.882 64.7586 125.546C64.2411 128.933 63.537 133.551 62.7566 138.67C62.2985 141.591 61.8701 144.355 61.4842 146.781L61.3866 146.667C62.827 146.704 64.2616 146.864 65.6747 147.145C66.2699 147.264 66.8533 147.435 67.4179 147.657C67.9126 147.838 68.3605 148.128 68.7285 148.504C68.8801 148.674 68.993 148.875 69.0594 149.093L69.2163 149.656C69.3138 149.999 69.3944 150.295 69.4623 150.54C69.5302 150.786 69.5726 150.964 69.6065 151.095C69.6258 151.149 69.64 151.204 69.6489 151.26V151.26Z" fill="#263238"/>
<path d="M50.625 154.714C50.6386 154.521 50.6756 154.331 50.7353 154.147C50.8687 153.637 51.0475 153.139 51.2697 152.661C51.993 151.062 53.1206 149.678 54.5416 148.646C55.9627 147.614 57.6284 146.968 59.3751 146.772C59.8984 146.708 60.4265 146.691 60.9529 146.721C61.1473 146.724 61.3408 146.748 61.5297 146.793C60.8209 146.797 60.1129 146.841 59.409 146.925C57.702 147.16 56.0797 147.812 54.6863 148.824C53.2929 149.836 52.1717 151.176 51.4224 152.725C51.1212 153.373 50.855 154.037 50.625 154.714V154.714Z" fill="#263238"/>
<path d="M53.8203 143.458C53.9283 143.431 54.04 143.421 54.1511 143.428C54.4557 143.423 54.7603 143.437 55.0631 143.471C56.0645 143.571 57.0461 143.817 57.9769 144.199C58.9075 144.583 59.7787 145.098 60.5642 145.727C60.8023 145.915 61.0276 146.119 61.2386 146.337C61.387 146.493 61.4676 146.582 61.4549 146.595C61.4422 146.608 61.0816 146.299 60.4709 145.85C58.8693 144.679 57.0059 143.914 55.0418 143.623C54.2911 143.513 53.8203 143.496 53.8203 143.458Z" fill="#263238"/>
<path d="M68.1132 114.223C68.0854 114.022 68.0755 113.82 68.0835 113.617C68.0835 113.228 68.058 112.669 68.0071 111.979C67.8798 110.179 67.57 108.396 67.0825 106.657C66.5881 104.922 65.9217 103.24 65.0933 101.637C64.7709 101.023 64.4995 100.532 64.3001 100.201C64.1884 100.032 64.0919 99.8539 64.0117 99.668C64.1471 99.8185 64.2678 99.9815 64.3722 100.155C64.597 100.477 64.8897 100.955 65.2205 101.565C66.9858 104.762 67.9873 108.323 68.1471 111.971C68.1768 112.665 68.1726 113.241 68.1471 113.617C68.1559 113.82 68.1445 114.023 68.1132 114.223V114.223Z" fill="#263238"/>
<g opacity="0.3">
<path d="M116.079 137.608C119.599 131.652 119.675 123.913 116.6 117.711C117.589 124.319 117.377 131.05 115.973 137.583" fill="black"/>
</g>
<g opacity="0.3">
<path d="M84.7369 144.346C82.0648 145.129 78.3748 145.319 75.7578 144.346C77.7979 147.237 81.7297 148.283 85.1399 147.343C88.55 146.403 91.6971 142.995 91.9601 139.469C90.3102 141.696 87.4133 143.575 84.7369 144.346Z" fill="black"/>
</g>
<path d="M94.5673 134.723C94.5549 134.804 94.5336 134.883 94.5036 134.96C94.4527 135.112 94.3934 135.345 94.2746 135.625C93.9654 136.434 93.5806 137.212 93.1252 137.949C92.4537 139.048 91.6425 140.055 90.7118 140.946C88.4283 143.165 85.4806 144.577 82.318 144.968C81.0396 145.133 79.7452 145.133 78.4668 144.968C77.6034 144.861 76.7515 144.675 75.9219 144.413C75.625 144.324 75.4087 144.227 75.256 144.172C75.1786 144.146 75.1034 144.113 75.0312 144.075C75.3393 144.144 75.6437 144.229 75.9432 144.329C79.5343 145.325 83.3641 145.008 86.7418 143.435C90.0858 141.795 92.7275 139.009 94.1855 135.586C94.4315 135.036 94.5461 134.714 94.5673 134.723Z" fill="#263238"/>
<path d="M64.7754 164.363C64.7754 164.363 64.7457 164.41 64.6693 164.478C64.5625 164.584 64.4477 164.681 64.3258 164.77C63.8821 165.1 63.3899 165.36 62.8667 165.54C62.0888 165.798 61.2771 165.941 60.4576 165.964C59.4667 165.995 58.4747 165.96 57.4886 165.858C55.3679 165.676 53.4847 165.367 52.1232 165.125C51.4403 165.003 50.8889 164.897 50.5114 164.816C50.3104 164.789 50.1128 164.741 49.9219 164.672C50.1239 164.675 50.3254 164.695 50.5242 164.732L52.1486 164.969C53.5144 165.176 55.406 165.456 57.5098 165.638C58.496 165.739 59.4875 165.78 60.4788 165.76C61.2816 165.744 62.0781 165.615 62.8455 165.379C63.5362 165.139 64.1867 164.797 64.7754 164.363V164.363Z" fill="#263238"/>
<path d="M112.679 52.9707L114.422 51.2773C116.742 52.2849 117.815 54.9732 118.21 57.471C118.604 59.9687 118.545 62.5935 119.609 64.8881C120.424 66.6534 121.904 68.2749 121.73 70.2265C121.565 72.0681 119.894 73.5583 119.885 75.4083C119.885 77.1906 121.37 78.5581 122.235 80.116C123.987 83.27 125.123 96.1737 124.207 99.6663C116.5 99.0017 102.852 98.1804 95.1406 96.4108C97.1723 83.1514 105.727 64.4393 112.679 52.9707Z" fill="#263238"/>
<path d="M116.126 64.7973C116.66 55.7842 110.103 47.5373 100.963 46.4493C91.2626 45.2978 82.6822 52.2323 81.8763 61.6645L79.6029 99.7407C79.5614 100.477 79.7674 101.205 80.1882 101.811C82.4277 105.079 86.4825 107.636 90.1089 108.14C93.6166 108.627 97.1751 107.717 100.161 106.057C100.656 105.778 101.07 105.373 101.359 104.884C101.649 104.395 101.804 103.839 101.811 103.271L101.968 94.7494C101.967 94.742 101.968 94.7346 101.971 94.7276C101.973 94.7206 101.977 94.7143 101.983 94.709C101.988 94.7038 101.994 94.6998 102.001 94.6972C102.008 94.6947 102.016 94.6937 102.023 94.6944C102.822 94.7545 103.625 94.7318 104.419 94.6266C106.676 94.0763 112.432 91.8664 114.366 83.4332C115.01 80.6391 115.655 72.7013 116.126 64.7973Z" fill="#FFBE9D"/>
<path d="M103.578 77.2416C103.578 77.1569 104.524 77.0638 106.055 76.9791C106.441 76.9791 106.81 76.9156 106.903 76.6616C106.96 76.2732 106.895 75.8768 106.717 75.527L105.767 72.5635C104.452 68.3639 103.527 64.922 103.697 64.8755C103.867 64.8289 105.075 68.1861 106.39 72.3857C106.704 73.4229 107.005 74.4093 107.294 75.3492C107.412 75.7725 107.629 76.289 107.395 76.8436C107.33 76.9729 107.237 77.0855 107.121 77.1729C107.006 77.2602 106.872 77.3199 106.73 77.3474C106.513 77.3904 106.292 77.406 106.072 77.394C104.528 77.3855 103.582 77.3262 103.578 77.2416Z" fill="#263238"/>
<path d="M113.632 67.981C113.466 68.1631 112.465 67.3248 111.032 67.2825C109.598 67.2402 108.529 67.9895 108.377 67.7948C108.3 67.7059 108.474 67.3714 108.941 67.0243C109.557 66.5821 110.303 66.3558 111.062 66.3808C111.819 66.4069 112.547 66.6856 113.127 67.1724C113.572 67.5534 113.738 67.9006 113.632 67.981Z" fill="#263238"/>
<path d="M99.0666 68.3426C98.8715 68.5246 97.8281 67.5805 96.263 67.4451C94.6979 67.3096 93.4806 68.025 93.3237 67.8134C93.2473 67.716 93.4594 67.39 93.9896 67.0429C94.7 66.6227 95.5259 66.4389 96.3478 66.5179C97.1706 66.5907 97.9474 66.9279 98.5618 67.4789C99.0242 67.8896 99.1599 68.2621 99.0666 68.3426Z" fill="#263238"/>
<path d="M101.967 94.6859C101.967 94.6859 96.1227 94.7494 89.1328 89.957C89.1328 89.957 90.9397 97.6536 101.921 97.4122L101.967 94.6859Z" fill="#EB996E"/>
<path d="M102.711 80.7561C102.445 80.3813 102.089 80.0791 101.675 79.8772C101.262 79.6753 100.804 79.5801 100.344 79.6003C100.012 79.6052 99.6845 79.6767 99.3806 79.8105C99.0768 79.9443 98.803 80.1377 98.5756 80.3793C98.3584 80.6106 98.2192 80.904 98.1773 81.2183C98.1355 81.5326 98.1932 81.852 98.3423 82.132C98.7113 82.7204 99.5511 82.9109 100.285 82.7585C101.012 82.5601 101.692 82.2206 102.287 81.7594C102.464 81.6466 102.619 81.5032 102.745 81.3361C102.805 81.258 102.84 81.164 102.846 81.066C102.852 80.968 102.828 80.8705 102.779 80.7857" fill="#EB996E"/>
<path d="M99.0797 77.9492C99.3257 77.9492 99.2281 79.558 100.551 80.7941C101.875 82.0303 103.626 81.9711 103.626 82.1954C103.626 82.3013 103.202 82.4833 102.481 82.4494C101.525 82.3964 100.617 82.015 99.911 81.3699C99.2383 80.7559 98.8333 79.9033 98.7828 78.9949C98.7615 78.3218 98.9694 77.9492 99.0797 77.9492Z" fill="#263238"/>
<path d="M99.3194 62.4428C99.1412 62.8323 97.6525 62.5317 95.8753 62.6037C94.0982 62.6757 92.6349 63.027 92.4228 62.6672C92.3337 62.4852 92.6052 62.1295 93.2117 61.7824C94.0182 61.3631 94.9089 61.1301 95.8178 61.1008C96.7267 61.0715 97.6306 61.2466 98.4626 61.6131C99.0776 61.9179 99.3787 62.2565 99.3194 62.4428Z" fill="#263238"/>
<path d="M113.941 62.763C113.635 63.1017 112.427 62.763 110.972 62.763C109.517 62.763 108.295 63.0043 108.003 62.6529C107.876 62.4836 108.066 62.1449 108.601 61.8062C109.341 61.4192 110.167 61.2255 111.002 61.2433C111.837 61.2611 112.654 61.4897 113.377 61.9078C113.903 62.2507 114.077 62.5979 113.941 62.763Z" fill="#263238"/>
<path d="M102.284 44.5407C101.495 43.2029 100.031 42.5933 98.3942 42.3478C91.7097 41.336 84.2533 45.3536 80.5081 50.9672C76.7629 56.5808 76.5636 64.9589 79.3035 71.1229L83.4729 68.5235C91.8412 65.0775 97.7495 57.0296 103.132 48.715C103.883 47.5846 102.983 45.7049 102.284 44.5407Z" fill="#263238"/>
<path d="M112.583 48.2161C109.788 45.041 107.756 41.8658 101.954 44.0842C101.105 45.7056 102.802 47.8097 104.261 49.0374C106.382 50.8409 108.201 52.0559 109.584 53.3471C112.375 55.9507 115.547 64.7098 115.823 69.4895C115.823 69.79 116.353 65.3872 116.671 65.3406C117.062 65.2814 118.635 63.3593 118.419 60.7346C117.672 51.7638 115.378 51.387 112.583 48.2161Z" fill="#263238"/>
<path d="M98.4142 42.3488C98.85 42.2639 99.301 42.302 99.7163 42.4589C100.743 42.7732 101.658 43.374 102.354 44.1904C102.553 44.4199 102.729 44.668 102.88 44.9312C103.012 45.1856 103.115 45.454 103.186 45.7314C103.337 46.1786 103.452 46.6373 103.529 47.103C103.644 47.9201 103.449 48.4154 103.406 48.4027C103.364 48.39 103.428 47.9032 103.249 47.1538C103.132 46.7105 102.99 46.2738 102.825 45.8457C102.75 45.5954 102.65 45.3529 102.528 45.1217C102.385 44.8791 102.22 44.6496 102.036 44.4359C101.38 43.6765 100.549 43.0868 99.6145 42.7171C98.8935 42.4589 98.4057 42.4165 98.4142 42.3488Z" fill="#455A64"/>
<path d="M112.31 70.7586C112.31 71.0833 112.186 71.3959 111.963 71.6321C111.739 71.8684 111.434 72.0102 111.109 72.0287C110.948 72.0437 110.785 72.0265 110.631 71.978C110.476 71.9295 110.333 71.8507 110.209 71.7462C110.086 71.6417 109.984 71.5137 109.911 71.3695C109.837 71.2254 109.793 71.0681 109.782 70.9068C109.773 70.577 109.894 70.2569 110.118 70.0143C110.342 69.7717 110.652 69.6257 110.982 69.6071C111.146 69.5914 111.311 69.6092 111.468 69.6593C111.624 69.7093 111.769 69.7907 111.893 69.8984C112.018 70.0061 112.118 70.1379 112.19 70.2858C112.262 70.4337 112.302 70.5945 112.31 70.7586V70.7586Z" fill="#263238"/>
<path d="M98.337 70.8229C98.3452 71.1527 98.2246 71.4728 98.0005 71.7153C97.7765 71.9579 97.4667 72.104 97.1367 72.1226C96.9756 72.1382 96.813 72.1216 96.6585 72.0736C96.5039 72.0256 96.3606 71.9472 96.2369 71.843C96.1132 71.7389 96.0116 71.6111 95.9381 71.4671C95.8647 71.3232 95.8208 71.166 95.8091 71.0049C95.7997 70.6744 95.9199 70.3532 96.1441 70.1097C96.3682 69.8662 96.6787 69.7196 97.0094 69.701C97.1708 69.6853 97.3338 69.7021 97.4885 69.7504C97.6433 69.7987 97.7869 69.8774 97.9106 69.982C98.0344 70.0866 98.1359 70.2149 98.2091 70.3593C98.2824 70.5038 98.3258 70.6614 98.337 70.8229V70.8229Z" fill="#263238"/>
<path d="M59.8915 81.4186C60.6805 80.1231 61.5881 78.9039 63.0302 78.3662C64.4723 77.8285 66.1095 77.5195 67.2419 76.4696C69.0191 74.8397 68.9385 72.1302 68.7773 69.7679C68.6162 67.4057 68.5737 64.6877 70.3891 63.1002C71.9075 61.7751 74.3209 61.6565 75.6357 60.1367C76.5137 59.1249 76.6876 57.7279 76.993 56.4366C77.8413 52.9779 79.7372 46.9366 89.9505 43.4609L80.9163 77.7269C81.5907 77.9175 83.2024 79.45 83.2915 80.4872C83.3721 81.4567 82.9522 82.4388 82.9437 83.4125C82.9437 84.6022 84.2416 85.3134 85.0644 86.194C86.1078 87.3158 86.4302 88.933 86.269 90.4275C85.9345 92.4699 85.3872 94.4719 84.636 96.4009C76.255 95.5542 64.0227 95.2833 57.6351 89.9491C56.4772 88.9838 58.1356 84.3016 59.8915 81.4186Z" fill="#263238"/>
<path d="M83.4897 68.5203C83.3327 68.4356 77.1614 65.9802 76.767 72.4786C76.3725 78.977 82.9764 78.0118 82.9977 77.8297C83.0189 77.6477 83.4897 68.5203 83.4897 68.5203Z" fill="#FFBE9D"/>
<path d="M81.1685 75.2641C81.1388 75.2387 81.0497 75.3361 80.8504 75.408C80.5745 75.5088 80.2702 75.4981 80.0021 75.3784C79.332 75.0821 78.8187 73.9602 78.8569 72.7917C78.8785 72.235 79.0233 71.6899 79.281 71.1957C79.355 70.9972 79.4757 70.8193 79.6329 70.6771C79.7901 70.5349 79.9793 70.4326 80.1845 70.3786C80.3167 70.3522 80.4541 70.3729 80.5726 70.4371C80.6912 70.5013 80.7835 70.605 80.8334 70.73C80.9098 70.9163 80.8589 71.0433 80.8928 71.056C80.9267 71.0687 81.0412 70.9544 81.0031 70.6835C80.9787 70.5199 80.8976 70.3702 80.774 70.2601C80.604 70.1138 80.3829 70.0407 80.159 70.0569C79.8892 70.0927 79.6332 70.1972 79.4156 70.3603C79.1979 70.5234 79.026 70.7396 78.9163 70.9883C78.6063 71.5343 78.4345 72.1475 78.4158 72.7748C78.3776 74.083 78.9714 75.3445 79.8961 75.6705C80.0669 75.7325 80.2497 75.7548 80.4305 75.7358C80.6113 75.7167 80.7854 75.6567 80.9394 75.5605C81.1473 75.4165 81.1897 75.2768 81.1685 75.2641Z" fill="#EB996E"/>
<path d="M106.586 70.2173C106.62 69.729 106.69 69.2437 106.794 68.7652C106.99 67.9646 107.351 67.2136 107.855 66.5603C108.358 65.9069 108.992 65.3655 109.717 64.9707C110.442 64.5759 111.242 64.3363 112.064 64.2673C112.887 64.1983 113.715 64.3013 114.496 64.5698C115.034 64.7508 115.54 65.0136 115.998 65.3488C116.486 65.6858 116.916 66.1005 117.27 66.5765C118.03 67.5698 118.451 68.7802 118.471 70.0298C118.491 71.2795 118.108 72.5026 117.38 73.5194C117.044 74.0055 116.632 74.4343 116.159 74.7895C115.713 75.1401 115.215 75.4187 114.683 75.615C113.699 75.9934 112.631 76.1016 111.591 75.9283C110.684 75.7789 109.825 75.4177 109.084 74.8742C108 74.0867 107.212 72.9579 106.849 71.6694C106.732 71.193 106.647 70.7093 106.594 70.2215C106.593 70.254 106.593 70.2865 106.594 70.3189C106.594 70.3994 106.594 70.4925 106.594 70.6068C106.598 70.7616 106.614 70.9159 106.641 71.0683C106.664 71.2785 106.704 71.4865 106.76 71.6906C107.1 73.0161 107.886 74.1848 108.987 75.0012C109.801 75.6097 110.757 76.0026 111.765 76.1433C112.773 76.2839 113.8 76.1677 114.751 75.8055C115.879 75.3798 116.855 74.6281 117.554 73.6465C118.311 72.593 118.708 71.3249 118.687 70.0291C118.666 68.7333 118.229 67.4784 117.44 66.4495C117.072 65.9588 116.628 65.53 116.125 65.1794C115.655 64.8425 115.135 64.5798 114.585 64.4005C113.624 64.0688 112.594 63.9853 111.591 64.1578C110.588 64.3302 109.646 64.7531 108.851 65.3869C107.775 66.2388 107.026 67.4349 106.73 68.7737C106.682 68.9799 106.648 69.1893 106.628 69.4002C106.608 69.5546 106.598 69.7102 106.599 69.8659C106.599 69.9802 106.599 70.0734 106.599 70.1496C106.593 70.172 106.589 70.1946 106.586 70.2173V70.2173Z" fill="#455A64"/>
<path d="M90.1969 70.4846C90.2309 69.9964 90.2989 69.5112 90.4004 69.0325C90.7194 67.7339 91.4663 66.5799 92.5212 65.7557C93.2449 65.1893 94.0919 64.8006 94.9939 64.6212C96.0283 64.4171 97.0984 64.4916 98.0944 64.8371C98.6313 65.0198 99.1375 65.2825 99.5959 65.616C100.083 65.9542 100.513 66.3688 100.868 66.8438C101.627 67.8365 102.048 69.0457 102.069 70.2943C102.089 71.5429 101.709 72.7653 100.983 73.7825C100.645 74.2684 100.231 74.6971 99.757 75.0525C99.3115 75.4033 98.8134 75.6819 98.281 75.8781C97.2969 76.2564 96.2292 76.3646 95.189 76.1913C94.2832 76.0421 93.4257 75.6808 92.6866 75.1372C91.6013 74.3497 90.8126 73.2211 90.4471 71.9324C90.3302 71.4562 90.2466 70.9724 90.1969 70.4846C90.1923 70.5169 90.1923 70.5496 90.1969 70.5819C90.1969 70.6581 90.1969 70.7555 90.1969 70.8698C90.1967 71.0246 90.2109 71.1791 90.2393 71.3313C90.2621 71.5419 90.3033 71.7501 90.3623 71.9536C90.6992 73.2807 91.486 74.4505 92.589 75.2642C93.3393 75.8266 94.2107 76.2064 95.1339 76.3734C96.2067 76.5579 97.3094 76.4526 98.3277 76.0686C99.4581 75.646 100.435 74.8937 101.131 73.9095C101.888 72.8561 102.285 71.5879 102.264 70.2921C102.243 68.9963 101.806 67.7414 101.017 66.7125C100.287 65.7528 99.2874 65.0321 98.1453 64.6423C97.115 64.2909 96.009 64.2222 94.943 64.4434C93.8076 64.6763 92.7636 65.2311 91.9361 66.0413C91.1086 66.8515 90.5327 67.8827 90.2774 69.0113C90.2248 69.2167 90.1907 69.4264 90.1757 69.6379C90.1505 69.7918 90.1405 69.9477 90.146 70.1036V70.3872C90.1556 70.423 90.173 70.4562 90.1969 70.4846V70.4846Z" fill="#455A64"/>
<path d="M101.902 70.0371C101.936 70.0583 102.106 69.7831 102.5 69.4656C103.006 69.047 103.639 68.8127 104.296 68.8012C104.953 68.7896 105.594 69.0015 106.114 69.4021C106.538 69.7026 106.699 69.9736 106.729 69.9482C106.624 69.6808 106.444 69.4488 106.212 69.2793C105.68 68.8151 104.995 68.5653 104.289 68.5786C103.583 68.5919 102.908 68.8674 102.394 69.3513C102.169 69.5293 101.999 69.7669 101.902 70.0371V70.0371Z" fill="#455A64"/>
<path d="M82 68.1095C82.3904 68.2331 82.7927 68.3154 83.2003 68.3551C83.9511 68.4736 84.9902 68.5837 86.1354 68.6853L89.0747 68.9478C89.4775 69.0097 89.8844 69.0408 90.292 69.0409C89.9017 68.9163 89.4994 68.8326 89.0917 68.7911C88.3452 68.6768 87.306 68.5667 86.1566 68.4651L83.2215 68.2027C82.8176 68.1381 82.4091 68.107 82 68.1095V68.1095Z" fill="#455A64"/>
<path d="M116.055 73.8853C116.584 73.2748 117.013 72.5847 117.327 71.8405C117.573 71.07 117.698 70.2658 117.696 69.457C117.791 69.6848 117.834 69.9304 117.823 70.1767C117.839 70.7697 117.741 71.3602 117.535 71.9167C117.33 72.4733 117.019 72.9851 116.619 73.4238C116.309 73.754 116.072 73.9064 116.055 73.8853Z" fill="white"/>
<path d="M117.076 67.1948C117.11 67.144 117.352 67.2667 117.501 67.5546C117.649 67.8425 117.585 68.105 117.526 68.1007C117.467 68.0965 117.416 67.8806 117.301 67.6478C117.187 67.4149 117.038 67.2413 117.076 67.1948Z" fill="white"/>
<path d="M101.084 72.6007C101.05 72.6007 101.168 72.262 101.266 71.7159C101.516 70.2834 101.24 68.809 100.49 67.5628C100.206 67.0887 99.9765 66.8262 100.002 66.8008C100.252 66.9828 100.462 67.2131 100.621 67.4781C101.047 68.0937 101.34 68.791 101.481 69.5258C101.622 70.2605 101.608 71.0165 101.44 71.7455C101.38 72.0516 101.259 72.3425 101.084 72.6007Z" fill="white"/>
<path d="M78.5356 77.7424C78.5356 77.7424 78.4465 77.8694 78.3193 78.1022C78.1368 78.433 78.0405 78.8042 78.0393 79.1818C78.0325 79.4555 78.0825 79.7277 78.1861 79.9813C78.2898 80.2348 78.4449 80.4642 78.6416 80.655C78.8789 80.8904 79.1686 81.0664 79.487 81.1687C79.8055 81.271 80.1436 81.2966 80.4739 81.2435C80.802 81.1761 81.1099 81.0336 81.3734 80.8271C81.6369 80.6207 81.8488 80.356 81.9923 80.0539C82.1083 79.8057 82.1722 79.5365 82.1803 79.2628C82.1883 78.9891 82.1402 78.7166 82.039 78.4621C81.9052 78.1098 81.6867 77.7958 81.4028 77.5476C81.1992 77.3741 81.0635 77.3021 81.0719 77.2852C81.2121 77.321 81.3425 77.3875 81.4537 77.4799C81.7772 77.7147 82.0297 78.0341 82.1832 78.4028C82.3061 78.6757 82.3696 78.9715 82.3696 79.2707C82.3696 79.5699 82.3061 79.8657 82.1832 80.1385C82.0372 80.4788 81.8089 80.7775 81.5187 81.0079C81.2286 81.2383 80.8856 81.3932 80.5207 81.4587C80.1557 81.5242 79.7802 81.4982 79.4278 81.383C79.0754 81.2679 78.7572 81.0672 78.5016 80.799C78.2903 80.5873 78.1262 80.3334 78.0202 80.054C77.9142 79.7745 77.8687 79.4758 77.8866 79.1775C77.9013 78.7789 78.0261 78.3921 78.2472 78.0599C78.3956 77.827 78.5356 77.7339 78.5356 77.7424Z" fill="#E0E0E0"/>
<path d="M114.36 82.737C114.719 82.8803 115.115 82.9041 115.488 82.8047C115.888 82.693 116.248 82.4715 116.527 82.1655C116.872 81.7943 117.104 81.3335 117.197 80.8362C117.295 80.3386 117.232 79.8231 117.019 79.3629C116.845 78.9856 116.585 78.6538 116.26 78.3934C115.947 78.1647 115.604 77.9782 115.242 77.8388C115.35 77.8292 115.459 77.8437 115.56 77.8812C115.847 77.9606 116.117 78.0911 116.358 78.2664C116.718 78.5307 117.009 78.8777 117.206 79.2782C117.448 79.7732 117.523 80.3334 117.418 80.8743C117.314 81.4149 117.055 81.9136 116.672 82.3094C116.36 82.6332 115.961 82.8585 115.522 82.9571C115.228 83.0264 114.921 83.0102 114.636 82.9106C114.436 82.8301 114.351 82.7455 114.36 82.737Z" fill="#E0E0E0"/>
<path d="M90.8326 166.797L97.1227 168.655C97.1227 168.655 100.592 170.141 102.28 170.526C104.376 171.005 105.805 170.357 105.881 169.193C105.958 168.029 104.329 167.88 104.329 167.88C102.945 167.354 101.598 166.733 100.3 166.022C99.3564 165.368 98.5853 164.497 98.0515 163.482L100.3 163.791C100.3 163.791 105.029 167.178 106.81 168.202C108.591 169.227 108.982 167.427 109.134 166.885C109.287 166.344 103.867 160.853 103.867 160.853C103.867 160.853 109.058 164.18 109.987 165.01C110.916 165.84 112.315 166.111 112.625 165.573C112.935 165.035 113.787 165.031 112.625 162.737C111.463 160.442 102.161 154.27 102.161 154.27L104.706 153.728L107.497 154.968C107.692 155.924 108.088 156.827 108.659 157.618C109.665 159.109 111.45 157.618 111.45 157.618L110.343 151.903L104.829 148.457C104.829 148.457 99.0949 149.156 98.2424 149.541C97.3899 149.926 96.4568 151.547 96.4568 151.547L94.9086 152.174C92.5038 152.868 92.5843 155.269 91.8082 155.345C91.032 155.421 68.4082 151.018 68.4082 151.018L66.3596 150.485C62.9664 153.055 61.6134 157.301 61.0154 161.069C61.0154 161.069 60.3919 162.914 61.0154 163.931L90.8326 166.797Z" fill="#FFBE9D"/>
<path d="M86.6836 162.781C86.6568 162.66 86.6496 162.536 86.6624 162.413C86.6608 162.271 86.6736 162.129 86.7005 161.989C86.7203 161.797 86.7572 161.608 86.8108 161.422C87.1293 160.353 87.6682 159.362 88.3929 158.514C89.0966 157.66 89.8806 156.876 90.7341 156.173C91.0724 155.865 91.4404 155.591 91.8327 155.355C91.5189 155.68 91.1861 155.985 90.8359 156.27C90.0201 157 89.2602 157.789 88.5625 158.632C87.8582 159.463 87.3159 160.418 86.9635 161.447C86.7133 162.256 86.7302 162.785 86.6836 162.781Z" fill="#EB996E"/>
<path d="M96.4788 151.555C96.4788 151.555 96.2922 151.652 96.0038 151.885C95.6018 152.224 95.2542 152.622 94.9731 153.066C94.7703 153.366 94.597 153.685 94.4557 154.019C94.3252 154.411 94.2427 154.817 94.2097 155.229C94.1513 155.709 93.9798 156.167 93.7092 156.567C93.4022 156.954 93.1497 157.382 92.9585 157.837C92.6681 158.607 92.6681 159.455 92.9585 160.225L92.9882 160.305L92.9161 160.352C91.9327 160.986 91.2206 161.962 90.9183 163.091C90.8142 163.536 90.7503 163.989 90.7275 164.446C90.693 164.328 90.6787 164.205 90.6851 164.082C90.6805 163.738 90.7175 163.396 90.7953 163.061C91.0659 161.876 91.7866 160.841 92.8058 160.174L92.7634 160.301C92.4563 159.482 92.4563 158.58 92.7634 157.761C92.9591 157.292 93.2219 156.855 93.5438 156.461C93.8018 156.082 93.9647 155.646 94.0188 155.191C94.0699 154.384 94.3658 153.612 94.8671 152.977C95.1665 152.527 95.5426 152.133 95.9784 151.813C96.0957 151.725 96.224 151.652 96.3601 151.597C96.3977 151.578 96.4376 151.564 96.4788 151.555V151.555Z" fill="#EB996E"/>
<path d="M101.926 154.081C101.383 154.151 100.832 154.093 100.316 153.911C99.8 153.728 99.3344 153.427 98.957 153.031C98.9994 152.981 99.5678 153.417 100.386 153.7C101.205 153.984 101.926 154.018 101.926 154.081Z" fill="#EB996E"/>
<path d="M103.373 160.335C102.554 160.106 101.757 159.803 100.993 159.429C100.2 159.125 99.4337 158.754 98.7031 158.32C99.5201 158.556 100.316 158.859 101.083 159.226C101.876 159.53 102.642 159.902 103.373 160.335V160.335Z" fill="#EB996E"/>
<path d="M98.2724 163.424C97.449 163.146 96.6443 162.815 95.8633 162.434C96.306 162.453 96.7395 162.566 97.1357 162.764C97.5584 162.898 97.9464 163.124 98.2724 163.424Z" fill="#EB996E"/>
<path d="M102.6 160.739C102.235 160.934 101.914 161.202 101.656 161.526C101.399 161.85 101.21 162.224 101.103 162.623C101.073 162.623 101.048 162.475 101.103 162.238C101.163 161.927 101.297 161.636 101.493 161.387C101.689 161.139 101.942 160.941 102.231 160.811C102.439 160.722 102.592 160.714 102.6 160.739Z" fill="#EB996E"/>
<path d="M104.869 157.309C104.894 157.368 104.479 157.58 104.199 158.054C104.056 158.355 103.937 158.666 103.842 158.986C103.782 158.811 103.766 158.624 103.796 158.441C103.825 158.259 103.9 158.087 104.012 157.94C104.334 157.398 104.86 157.25 104.869 157.309Z" fill="#EB996E"/>
<path d="M104.227 151.085C104.206 151.085 104.121 150.987 104.057 150.784C103.981 150.507 103.981 150.214 104.057 149.937C104.131 149.664 104.278 149.415 104.481 149.218C104.634 149.069 104.761 149.019 104.774 149.04C104.572 149.335 104.408 149.655 104.286 149.992C104.223 150.353 104.203 150.719 104.227 151.085V151.085Z" fill="#EB996E"/>
<path d="M150.083 153.037C150.083 153.037 149.799 147.483 144.03 146.331C138.262 145.18 128.159 150.074 128.159 150.074L99.8516 169.764L100.7 172.198L129.431 168.202L132.061 169.209L152.242 155.975L171.286 142.233L169.165 140.578C169.165 140.578 163.829 144.249 160.3 145.828C156.772 147.407 151.669 150.175 150.083 153.037Z" fill="#F5F5F5"/>
<path d="M99.4141 172.999L123.37 158.143L148.695 154.083C148.695 154.083 149.968 155.921 152.118 155.472L172.943 141.078L173.338 141.946L132.951 170.268C132.358 170.484 131.717 170.535 131.097 170.414C130.478 170.293 129.903 170.006 129.435 169.582L99.4141 172.999Z" fill="#455A64"/>
<path d="M148.698 154.078C148.64 154.14 148.575 154.194 148.503 154.239L147.917 154.662C147.408 155.026 146.675 155.556 145.797 156.225C143.998 157.558 141.555 159.459 138.917 161.614C136.279 163.769 133.908 165.771 132.211 167.232L130.188 168.967L129.637 169.433C129.577 169.492 129.51 169.543 129.438 169.585C129.438 169.585 129.488 169.518 129.607 169.403L130.129 168.904C130.587 168.481 131.253 167.862 132.093 167.122C133.764 165.631 136.109 163.616 138.76 161.453C141.411 159.29 143.85 157.41 145.686 156.106C146.594 155.45 147.345 154.942 147.871 154.599L148.477 154.209C148.547 154.159 148.62 154.115 148.698 154.078Z" fill="#263238"/>
<path d="M148.438 150.997C146.143 148.537 142.53 147.661 139.17 147.924C135.811 148.186 132.626 149.435 129.492 150.675L100.188 170.696L100.45 171.449L129.911 151.552C129.911 151.552 136.494 149.435 139.408 149.071C144.277 148.466 148.438 150.997 148.438 150.997Z" fill="#E0E0E0"/>
<path d="M153.035 153.624L167.125 144.137C167.125 144.137 155.58 150.131 153.035 153.624Z" fill="#E0E0E0"/>
<path d="M100.188 170.691C100.223 170.655 100.263 170.622 100.306 170.594L100.671 170.336L102.075 169.349L107.266 165.759L124.444 153.986L129.432 150.599C132.27 149.321 135.265 148.423 138.339 147.928C140.822 147.578 143.354 147.934 145.643 148.956C146.499 149.354 147.287 149.882 147.98 150.523C148.498 151.004 148.938 151.563 149.286 152.178C149.505 152.564 149.676 152.975 149.795 153.401C149.825 153.541 149.85 153.651 149.872 153.736C149.881 153.774 149.888 153.812 149.893 153.85C149.74 153.279 149.515 152.73 149.223 152.216C148.866 151.617 148.423 151.073 147.908 150.603C147.213 149.982 146.43 149.469 145.584 149.079C143.316 148.095 140.82 147.761 138.373 148.114C135.324 148.613 132.353 149.505 129.534 150.768H129.555L124.567 154.155L107.377 165.886L102.143 169.421L100.718 170.369L100.34 170.615C100.292 170.646 100.241 170.671 100.188 170.691V170.691Z" fill="#263238"/>
<path d="M125.84 155.553C125.907 155.498 125.981 155.452 126.06 155.418C126.209 155.337 126.429 155.215 126.714 155.071C127.286 154.774 128.122 154.36 129.174 153.885C131.901 152.609 134.795 151.724 137.771 151.256C140.762 150.806 143.818 151.085 146.678 152.069C147.537 152.379 148.363 152.774 149.142 153.25C149.422 153.411 149.622 153.568 149.761 153.674C149.836 153.719 149.905 153.772 149.969 153.83C149.969 153.83 149.66 153.653 149.1 153.335C148.311 152.893 147.483 152.523 146.627 152.23C143.78 151.298 140.755 151.044 137.792 151.489C134.838 151.955 131.959 152.81 129.229 154.029C128.173 154.487 127.329 154.876 126.743 155.151L126.073 155.46C125.999 155.499 125.92 155.53 125.84 155.553V155.553Z" fill="#263238"/>
<path d="M170.527 141.637C170.527 141.637 170.468 141.692 170.345 141.776L169.798 142.14L167.766 143.444C166.044 144.545 163.673 146.065 161.073 147.775C158.473 149.486 156.149 151.056 154.452 152.199L152.446 153.546L151.895 153.905C151.833 153.95 151.766 153.987 151.695 154.015C151.748 153.96 151.806 153.91 151.869 153.867L152.399 153.474C152.857 153.135 153.528 152.657 154.363 152.068C156.034 150.895 158.359 149.299 160.963 147.589C163.567 145.879 165.955 144.38 167.694 143.313C168.563 142.78 169.272 142.356 169.764 142.069L170.336 141.738C170.397 141.699 170.461 141.665 170.527 141.637Z" fill="#263238"/>
<path d="M157.714 156.857C157.426 157.548 157.06 158.205 156.624 158.813C156.081 159.457 154.308 160.354 154.168 161.578C154.028 162.801 154.316 165.671 152.399 167.856C151.163 169.215 149.6 170.235 147.857 170.819L140.294 170.083L128.215 165.337C127.945 165.269 127.712 165.098 127.568 164.86C127.423 164.622 127.378 164.337 127.443 164.067C127.517 163.773 127.679 163.508 127.905 163.306C128.132 163.104 128.414 162.974 128.715 162.932L129.003 162.886C129.003 162.886 128.308 162.319 129.305 161.324C130.153 160.477 131.964 160.955 132.897 161.264C133.83 161.573 139.302 163.855 140.281 164.207C141.151 164.516 141.821 164.791 141.821 164.791C141.821 164.791 134.818 160.075 134.721 159.457C134.606 158.716 134.683 158.377 135.4 157.861C136.248 157.247 137.639 157.903 138.988 158.47C139.993 158.894 146.402 162.052 146.402 162.052C146.402 162.052 146.69 161.772 146.402 161.205C146.113 160.638 143.984 157.903 143.649 157.395C143.314 156.887 143.225 156.599 143.56 156.171C144.027 155.566 145.257 155.278 146.389 156.311C147.106 156.972 149.655 158.682 149.655 158.682L161.421 150.113C161.421 150.113 162.884 150.075 162.375 152.112C161.866 154.148 157.714 156.857 157.714 156.857Z" fill="#FFBE9D"/>
<path d="M148.941 163.998C148.47 163.894 148.032 163.678 147.663 163.368C147.294 163.059 147.005 162.665 146.82 162.22C146.875 162.186 147.219 162.711 147.804 163.198C148.39 163.685 148.971 163.935 148.941 163.998Z" fill="#EB996E"/>
<path d="M149.906 158.886C149.906 158.861 150.063 158.814 150.33 158.848C150.664 158.896 150.977 159.035 151.237 159.249C151.497 159.464 151.692 159.745 151.802 160.063C151.883 160.308 151.87 160.486 151.84 160.486C151.663 160.091 151.409 159.734 151.094 159.436C150.738 159.178 150.334 158.991 149.906 158.886Z" fill="#EB996E"/>
<path d="M150.462 161.249C150.399 161.249 150.369 160.619 150.119 159.899C149.869 159.179 149.517 158.65 149.567 158.629C149.94 158.946 150.205 159.37 150.327 159.844C150.516 160.287 150.564 160.778 150.462 161.249V161.249Z" fill="#EB996E"/>
<path d="M157.427 156.244C157.427 156.265 157.278 156.18 157.126 155.977C156.932 155.707 156.811 155.393 156.774 155.063C156.737 154.733 156.785 154.399 156.914 154.093C157.015 153.865 157.13 153.75 157.151 153.767C157 154.173 156.946 154.608 156.994 155.038C157.042 155.468 157.19 155.881 157.427 156.244V156.244Z" fill="#EB996E"/>
<path d="M146.788 166.954C146.516 167.016 146.233 167.016 145.961 166.954C145.302 166.837 144.67 166.602 144.095 166.259C143.523 165.924 142.984 165.534 142.487 165.095C142.266 164.933 142.07 164.739 141.906 164.52C142.15 164.642 142.378 164.794 142.585 164.973C143.102 165.371 143.643 165.737 144.205 166.069C144.762 166.398 145.363 166.645 145.991 166.801C146.474 166.903 146.788 166.92 146.788 166.954Z" fill="#EB996E"/>
<path d="M148.761 165.738C148.82 165.738 148.824 166.162 148.468 166.513C148.112 166.865 147.679 166.848 147.688 166.788C147.696 166.729 148.023 166.644 148.311 166.365C148.6 166.086 148.697 165.73 148.761 165.738Z" fill="#EB996E"/>
<path d="M151.648 163.626C151.674 163.626 151.674 163.74 151.593 163.893C151.482 164.08 151.314 164.229 151.114 164.316C150.915 164.412 150.691 164.445 150.473 164.409C150.304 164.375 150.219 164.308 150.232 164.282C150.244 164.257 150.622 164.316 151.021 164.117C151.419 163.918 151.589 163.605 151.648 163.626Z" fill="#EB996E"/>
<path d="M141.461 168.437C141.44 168.492 138.628 167.324 135.184 165.821C131.74 164.318 128.966 163.052 129.008 163.002C129.051 162.951 131.846 164.119 135.29 165.622C138.734 167.125 141.487 168.382 141.461 168.437Z" fill="#EB996E"/>
<path d="M191 172.204C191 172.263 148.238 172.314 95.5042 172.314C42.7706 172.314 0 172.263 0 172.204C0 172.145 42.7536 172.094 95.5042 172.094C148.255 172.094 191 172.14 191 172.204Z" fill="#263238"/>
<path d="M5.46076 127.099L14.6647 172.199H94.552C94.9749 172.199 95.3806 172.031 95.6796 171.733C95.9787 171.434 96.1467 171.029 96.1467 170.607V170.607C96.1473 170.398 96.1065 170.19 96.0266 169.997C95.9467 169.803 95.8293 169.627 95.6811 169.479C95.533 169.33 95.357 169.213 95.1632 169.133C94.9695 169.052 94.7617 169.011 94.552 169.011H78.4685L69.9347 127.053C69.8557 126.661 69.6437 126.309 69.3347 126.055C69.0256 125.801 68.6383 125.662 68.2381 125.66L7.19126 125.008C6.93077 125.005 6.67297 125.061 6.43673 125.17C6.20049 125.28 5.99179 125.441 5.8259 125.641C5.66001 125.842 5.54113 126.077 5.47795 126.329C5.41477 126.581 5.4089 126.844 5.46076 127.099V127.099Z" fill="#E0E0E0"/>
<path d="M5.46027 127.101L5.43482 126.965C5.41756 126.825 5.41756 126.682 5.43482 126.542C5.46495 126.272 5.5572 126.013 5.70436 125.784C5.85151 125.556 6.04959 125.365 6.28311 125.225C6.44528 125.126 6.62308 125.054 6.80905 125.014C7.0164 124.979 7.22678 124.966 7.43678 124.975H8.87462L12.4714 125.005L35.5574 125.221L51.6494 125.386L60.6667 125.475L65.3917 125.526L67.8093 125.551C68.0171 125.551 68.208 125.551 68.4285 125.551C68.644 125.575 68.8535 125.637 69.0478 125.733C69.4393 125.924 69.7493 126.248 69.9215 126.648C70.001 126.845 70.0579 127.051 70.0912 127.262L70.2142 127.867C70.2947 128.29 70.3796 128.68 70.4644 129.086C70.6284 129.902 70.7952 130.723 70.9649 131.55C71.3014 133.201 71.6421 134.873 71.9871 136.567C72.677 139.954 73.3839 143.415 74.1078 146.952C75.5456 154.022 77.0471 161.375 78.5867 168.966L78.4807 168.881H94.297C94.5056 168.873 94.7144 168.886 94.9205 168.919C95.345 169.01 95.7184 169.26 95.9639 169.618C96.2122 169.974 96.3139 170.412 96.248 170.841C96.2095 171.101 96.1108 171.349 95.9599 171.564C95.809 171.779 95.61 171.956 95.3786 172.082C95.1456 172.206 94.8874 172.275 94.6236 172.285H52.1711H14.6642H14.5963V172.217C11.78 158.352 9.50659 147.079 7.90758 139.264C7.11867 135.36 6.5079 132.321 6.09224 130.255C5.88866 129.222 5.73314 128.439 5.62569 127.905C5.51965 127.372 5.473 127.101 5.473 127.101C5.473 127.101 5.53662 127.372 5.64689 127.897C5.75717 128.422 5.92683 129.217 6.1389 130.242C6.56304 132.308 7.19502 135.343 8.00089 139.247C9.60415 147.057 11.9157 158.327 14.7617 172.183L14.6769 172.116L52.1838 172.094H94.6066C94.8345 172.085 95.0576 172.026 95.2598 171.921C95.4605 171.811 95.6332 171.656 95.7648 171.469C95.8964 171.282 95.9833 171.067 96.019 170.841C96.0737 170.466 95.986 170.084 95.773 169.77C95.5559 169.461 95.2304 169.245 94.8611 169.165C94.6703 169.136 94.4772 169.125 94.2843 169.131H78.3789V169.046C76.8393 161.464 75.342 154.11 73.9084 147.032C73.1874 143.493 72.4805 140.03 71.7877 136.643L70.7698 131.626C70.6044 130.801 70.4347 129.979 70.2693 129.167C70.1887 128.743 70.1039 128.35 70.0233 127.947L69.9003 127.338C69.8685 127.141 69.8174 126.948 69.7476 126.762C69.6309 126.495 69.4455 126.263 69.2101 126.091C68.9747 125.918 68.6977 125.811 68.4073 125.78C68.2207 125.78 68.0086 125.78 67.8093 125.78L65.3917 125.75L60.6625 125.699L51.6494 125.594L35.5532 125.403L12.4671 125.119L8.87462 125.073L7.43678 125.052C7.22974 125.039 7.02194 125.05 6.81753 125.086C6.63528 125.123 6.46046 125.19 6.30007 125.285C6.07127 125.418 5.87594 125.602 5.72895 125.822C5.58196 126.042 5.48717 126.292 5.45179 126.555C5.43494 126.736 5.43779 126.919 5.46027 127.101V127.101Z" fill="#263238"/>
<path d="M39.6343 150.376C41.0913 150.376 42.2724 149.197 42.2724 147.743C42.2724 146.288 41.0913 145.109 39.6343 145.109C38.1772 145.109 36.9961 146.288 36.9961 147.743C36.9961 149.197 38.1772 150.376 39.6343 150.376Z" fill="white"/>
<path d="M5.53906 127.48C5.53906 127.48 5.63237 127.48 5.81475 127.48H9.72535L21.1475 127.536L58.8326 127.798L64.2828 127.845H65.6231C65.8516 127.836 66.0804 127.85 66.306 127.887C66.6511 127.957 66.9701 128.121 67.2276 128.361C67.4851 128.601 67.6712 128.907 67.7651 129.246C67.8668 129.669 67.9389 130.093 68.028 130.516L69.9748 140.312C71.2091 146.557 72.3246 152.166 73.2577 156.903C74.1908 161.641 74.9543 165.442 75.4548 168.088C75.7092 169.405 75.9044 170.429 76.0401 171.132C76.1037 171.475 76.1546 171.742 76.1885 171.928C76.2225 172.114 76.2309 172.199 76.2309 172.199C76.2309 172.199 76.2055 172.11 76.1673 171.932C76.1291 171.754 76.0698 171.484 75.9977 171.141L75.3699 168.122C74.8355 165.476 74.0636 161.662 73.105 156.95C72.1464 152.238 71.0267 146.607 69.7755 140.367C69.152 137.247 68.5031 133.97 67.8159 130.575C67.7269 130.152 67.6505 129.728 67.5572 129.305C67.4453 128.903 67.1885 128.556 66.8362 128.331C66.6615 128.22 66.4672 128.142 66.2636 128.103C66.0506 128.068 65.8345 128.055 65.6189 128.065H64.2828L58.8326 128.022L21.1475 127.692L9.72535 127.565L6.62063 127.48H5.81051H5.53906Z" fill="#263238"/>
</svg>
