<svg width="77" height="65" viewBox="0 0 77 65" fill="none" xmlns="http://www.w3.org/2000/svg">
<path opacity="0.5" d="M38.0488 63C55.4458 63 69.5488 48.897 69.5488 31.5C69.5488 14.103 55.4458 0 38.0488 0C20.6519 0 6.54883 14.103 6.54883 31.5C6.54883 48.897 20.6519 63 38.0488 63Z" fill="#C5DEEA"/>
<path fill-rule="evenodd" clip-rule="evenodd" d="M21.8253 1.30273L40.659 1.37131L40.6481 4.35418L21.8145 4.28561L21.8253 1.30273Z" fill="#23D2E2"/>
<path fill-rule="evenodd" clip-rule="evenodd" d="M57.6202 28.1484L76.4539 28.217L76.443 31.1999L57.6094 31.1313L57.6202 28.1484Z" fill="#23D2E2"/>
<path fill-rule="evenodd" clip-rule="evenodd" d="M0.939453 10.2539H21.6962V13.2368H0.939453V10.2539Z" fill="#23D2E2"/>
<path fill-rule="evenodd" clip-rule="evenodd" d="M48.666 40.082H69.4228V43.0649H48.666V40.082Z" fill="#23D2E2"/>
<path d="M32.6824 44.5391H13.3711V59.3939H32.6824V44.5391Z" fill="white"/>
<path fill-rule="evenodd" clip-rule="evenodd" d="M12.7793 60.2944H37.5426C38.9383 60.4337 40.3467 60.2255 41.6424 59.6884C42.938 59.1512 44.0806 58.3018 44.9682 57.2158L62.8402 37.8904C63.5043 37.2164 63.8765 36.3083 63.8765 35.3621C63.8765 34.416 63.5043 33.5078 62.8402 32.8339C62.1546 32.1748 61.2406 31.8066 60.2896 31.8066C59.3386 31.8066 58.4245 32.1748 57.7389 32.8339L42.1551 46.9935" fill="white"/>
<path fill-rule="evenodd" clip-rule="evenodd" d="M56.9259 31.9608C57.832 31.096 59.0366 30.6133 60.2896 30.6133C61.5486 30.6133 62.7587 31.1006 63.6662 31.9732L63.6778 31.9844L63.6891 31.9958C64.5729 32.8927 65.0684 34.1014 65.0684 35.3606C65.0684 36.613 64.5783 37.8155 63.7033 38.7109L45.8672 57.9976C44.8585 59.2219 43.5646 60.1801 42.0988 60.7878C40.6404 61.3925 39.0566 61.6315 37.4852 61.4846H12.7793V59.101H37.602L37.6611 59.1069C38.861 59.2267 40.072 59.0477 41.1859 58.5859C42.2999 58.124 43.2823 57.3937 44.0454 56.46L44.0685 56.4318L61.978 37.0657L61.9913 37.0523C62.4356 36.6014 62.6847 35.9937 62.6847 35.3606C62.6847 34.7329 62.4398 34.1301 62.0025 33.6804C61.5403 33.2417 60.9272 32.9969 60.2896 32.9969C59.6466 32.9969 59.0285 33.2459 58.565 33.6915L58.5529 33.7032L42.9566 47.8741L41.3536 46.1099L56.9259 31.9608Z" fill="#7850F7"/>
<path fill-rule="evenodd" clip-rule="evenodd" d="M30.3574 50.4797H38.6401C39.1003 50.4837 39.5568 50.3965 39.9831 50.2231C40.4094 50.0497 40.7972 49.7936 41.124 49.4696C41.4508 49.1455 41.7103 48.76 41.8873 48.3351C42.0643 47.9103 42.1555 47.4546 42.1555 46.9944C42.1555 46.5342 42.0643 46.0785 41.8873 45.6537C41.7103 45.2289 41.4508 44.8433 41.124 44.5193C40.7972 44.1952 40.4094 43.9391 39.9831 43.7657C39.5568 43.5924 39.1003 43.5051 38.6401 43.5091H30.3574C28.0719 42.1859 25.4129 41.6558 22.7947 42.0014C20.1765 42.3469 17.7461 43.5488 15.8821 45.4197H12.7793" fill="white"/>
<path fill-rule="evenodd" clip-rule="evenodd" d="M30.6694 42.3157H38.6354C39.2511 42.3112 39.8617 42.4282 40.4321 42.6602C41.0042 42.8929 41.5245 43.2365 41.9631 43.6714C42.4017 44.1062 42.7498 44.6236 42.9874 45.1937C43.225 45.7638 43.3473 46.3753 43.3473 46.9929C43.3473 47.6105 43.225 48.222 42.9874 48.7921C42.7498 49.3622 42.4017 49.8796 41.9631 50.3144C41.5245 50.7492 41.0042 51.0929 40.4321 51.3256C39.8617 51.5576 39.2511 51.6746 38.6353 51.67H30.3574V49.2864H38.6503C38.9532 49.289 39.2535 49.2316 39.5341 49.1175C39.8146 49.0034 40.0698 48.8349 40.2849 48.6217C40.4999 48.4084 40.6707 48.1547 40.7872 47.8752C40.9037 47.5956 40.9636 47.2957 40.9636 46.9929C40.9636 46.69 40.9037 46.3902 40.7872 46.1106C40.6707 45.831 40.4999 45.5773 40.2849 45.3641C40.0698 45.1509 39.8146 44.9823 39.5341 44.8682C39.2535 44.7541 38.9532 44.6967 38.6503 44.6993L38.6401 44.6994L30.0373 44.6994L29.7603 44.539C27.7024 43.3476 25.3081 42.8703 22.9507 43.1814C20.5932 43.4926 18.4048 44.5748 16.7264 46.2593L16.3771 46.61H12.7793V44.2263H15.4008C17.3982 42.3696 19.9269 41.1762 22.6387 40.8183C25.4094 40.4525 28.2217 40.9787 30.6694 42.3157Z" fill="#7850F7"/>
<path d="M12.7793 41.9219H2.66797V63.7891H12.7793V41.9219Z" fill="white"/>
<path fill-rule="evenodd" clip-rule="evenodd" d="M1.47656 40.7305H13.9716V64.9813H1.47656V40.7305ZM3.86022 43.1141V62.5976H11.5879V43.1141H3.86022Z" fill="#7850F7"/>
<path fill-rule="evenodd" clip-rule="evenodd" d="M39.8319 13.1182V37.3032H37.4482V13.1182H39.8319Z" fill="#7850F7"/>
<path fill-rule="evenodd" clip-rule="evenodd" d="M38.6402 10.5262C38.2158 10.5262 37.9071 10.859 37.9071 11.2264C37.9071 11.5938 38.2158 11.9265 38.6402 11.9265C39.0645 11.9265 39.3732 11.5938 39.3732 11.2264C39.3732 10.859 39.0645 10.5262 38.6402 10.5262ZM35.5234 11.2264C35.5234 9.50395 36.9383 8.14258 38.6402 8.14258C40.342 8.14258 41.7569 9.50395 41.7569 11.2264C41.7569 12.9488 40.342 14.3102 38.6402 14.3102C36.9383 14.3102 35.5234 12.9488 35.5234 11.2264Z" fill="#7850F7"/>
<path fill-rule="evenodd" clip-rule="evenodd" d="M25 10.0361H36.7151V12.4198H25V10.0361Z" fill="#7850F7"/>
<path fill-rule="evenodd" clip-rule="evenodd" d="M52.2805 12.4198H40.5654V10.0361H52.2805V12.4198Z" fill="#7850F7"/>
<path fill-rule="evenodd" clip-rule="evenodd" d="M30.2913 24.1162C30.2859 25.0252 30.0379 25.9163 29.5728 26.6974C29.1077 27.4784 28.4424 28.1211 27.6457 28.5589C26.8368 29.0096 25.9261 29.2462 25.0001 29.2462C24.0741 29.2462 23.1635 29.0096 22.3546 28.5589C21.5579 28.1211 20.8926 27.4784 20.4275 26.6974C19.9624 25.9163 19.7143 25.0252 19.709 24.1162H30.2913Z" fill="white"/>
<path fill-rule="evenodd" clip-rule="evenodd" d="M19.0596 23.4687C19.2317 23.2956 19.4657 23.1982 19.7098 23.1982H30.2921C30.5361 23.1982 30.7701 23.2956 30.9422 23.4687C31.1143 23.6418 31.2103 23.8763 31.2088 24.1204C31.2025 25.1927 30.9099 26.2439 30.3613 27.1653C29.8131 28.0859 29.0291 28.8435 28.0904 29.3599C27.1456 29.8858 26.0822 30.1618 25.0009 30.1618C23.9196 30.1618 22.8562 29.8858 21.9115 29.3599C20.9727 28.8435 20.1888 28.0859 19.6405 27.1653C19.0919 26.2439 18.7993 25.1927 18.793 24.1204C18.7916 23.8763 18.8875 23.6418 19.0596 23.4687ZM20.7349 25.0318C20.8322 25.4509 20.9939 25.8543 21.216 26.2271C21.5975 26.8679 22.1433 27.3951 22.7969 27.7542L22.8016 27.7568L22.8016 27.7568C23.474 28.1315 24.2311 28.3282 25.0009 28.3282C25.7707 28.3282 26.5278 28.1315 27.2003 27.7568L27.205 27.7542L27.205 27.7542C27.8585 27.3951 28.4043 26.8679 28.7859 26.2271C29.0079 25.8543 29.1696 25.4509 29.2669 25.0318H20.7349Z" fill="#23D2E2"/>
<path fill-rule="evenodd" clip-rule="evenodd" d="M19.71 24.1147L24.9999 11.2246L30.2916 24.1147" fill="white"/>
<path fill-rule="evenodd" clip-rule="evenodd" d="M25.0003 10.3066C25.3722 10.3066 25.7072 10.5312 25.8485 10.8753L31.1402 23.7654L29.444 24.4617L25.0005 13.6379L20.5586 24.4616L18.8623 23.7655L24.1522 10.8754C24.2934 10.5313 24.6284 10.3067 25.0003 10.3066Z" fill="#23D2E2"/>
<path fill-rule="evenodd" clip-rule="evenodd" d="M46.9893 24.1162C46.9946 25.0252 47.2427 25.9163 47.7078 26.6974C48.1729 27.4784 48.8382 28.1211 49.6348 28.5589C50.4438 29.0096 51.3544 29.2462 52.2804 29.2462C53.2064 29.2462 54.1171 29.0096 54.926 28.5589C55.7227 28.1211 56.388 27.4784 56.8531 26.6974C57.3182 25.9163 57.5662 25.0252 57.5716 24.1162H46.9893Z" fill="white"/>
<path fill-rule="evenodd" clip-rule="evenodd" d="M46.3389 23.4687C46.511 23.2956 46.745 23.1982 46.9891 23.1982H57.5714C57.8155 23.1982 58.0495 23.2956 58.2216 23.4687C58.3936 23.6418 58.4896 23.8763 58.4882 24.1204C58.4819 25.1928 58.1892 26.2439 57.6406 27.1653C57.0924 28.0859 56.3084 28.8435 55.3697 29.3599C54.4249 29.8858 53.3615 30.1618 52.2802 30.1618C51.1989 30.1618 50.1355 29.8858 49.1908 29.3599C48.252 28.8435 47.4681 28.0859 46.9199 27.1653C46.3712 26.2439 46.0786 25.1928 46.0723 24.1204C46.0708 23.8763 46.1668 23.6418 46.3389 23.4687ZM48.0142 25.0318C48.1115 25.4509 48.2733 25.8543 48.4953 26.2271C48.8768 26.8679 49.4226 27.3951 50.0762 27.7542L50.0809 27.7568L50.0809 27.7568C50.7533 28.1315 51.5104 28.3282 52.2802 28.3282C53.05 28.3282 53.8071 28.1315 54.4796 27.7568L54.4843 27.7542L54.4843 27.7542C55.1378 27.3951 55.6836 26.8679 56.0652 26.2271C56.2872 25.8543 56.4489 25.4509 56.5462 25.0318H48.0142Z" fill="#23D2E2"/>
<path fill-rule="evenodd" clip-rule="evenodd" d="M57.5717 24.1147L52.28 11.2246L46.9883 24.1147" fill="white"/>
<path fill-rule="evenodd" clip-rule="evenodd" d="M52.2805 10.3066C52.6523 10.3066 52.9873 10.5313 53.1286 10.8753L58.4203 23.7654L56.7241 24.4617L52.2805 13.6375L47.8368 24.4617L46.1406 23.7654L51.4324 10.8753C51.5736 10.5313 51.9086 10.3066 52.2805 10.3066Z" fill="#23D2E2"/>
</svg>
