<svg width="38" height="38" viewBox="0 0 38 38" fill="none" xmlns="http://www.w3.org/2000/svg">
<path d="M6.30912 19.25H15.6909C15.8952 19.25 16.0406 19.116 16.1218 18.9846C16.2058 18.8488 16.25 18.6768 16.25 18.5C16.25 18.3232 16.2058 18.1512 16.1218 18.0154C16.0406 17.884 15.8952 17.75 15.6909 17.75H6.30912C6.10483 17.75 5.95943 17.884 5.87816 18.0154C5.79419 18.1512 5.75 18.3232 5.75 18.5C5.75 18.6768 5.79419 18.8488 5.87816 18.9846C5.95943 19.116 6.10483 19.25 6.30912 19.25Z" fill="#2642CA" stroke="#2642CA" stroke-width="0.5"/>
<path d="M6.31866 24.25H12.6813C12.8846 24.25 13.0325 24.1203 13.1172 23.9875C13.204 23.8513 13.25 23.6782 13.25 23.5C13.25 23.3218 13.204 23.1487 13.1172 23.0125C13.0325 22.8797 12.8846 22.75 12.6813 22.75H6.31866C6.11544 22.75 5.96746 22.8797 5.88278 23.0125C5.79596 23.1487 5.75 23.3218 5.75 23.5C5.75 23.6782 5.79596 23.8513 5.88278 23.9875C5.96746 24.1203 6.11544 24.25 6.31866 24.25Z" fill="#2642CA" stroke="#2642CA" stroke-width="0.5"/>
<path d="M6.30221 14.25H18.7027C18.9079 14.25 19.0516 14.1127 19.1301 13.9813C19.2113 13.8455 19.2527 13.674 19.2499 13.4977C19.2495 13.3228 19.2066 13.1525 19.125 13.0176C19.0463 12.8873 18.9028 12.75 18.6977 12.75H6.30221C6.09704 12.75 5.95356 12.8873 5.87482 13.0176C5.79293 13.153 5.75 13.3243 5.75 13.5C5.75 13.6757 5.79293 13.847 5.87482 13.9824C5.95356 14.1127 6.09704 14.25 6.30221 14.25Z" fill="#2642CA" stroke="#2642CA" stroke-width="0.5"/>
<path d="M6.32432 29.25H11.6757C11.8783 29.25 12.0278 29.1228 12.1145 28.9892C12.203 28.8527 12.25 28.679 12.25 28.5C12.25 28.321 12.203 28.1473 12.1145 28.0108C12.0278 27.8772 11.8783 27.75 11.6757 27.75H6.32432C6.12165 27.75 5.97218 27.8772 5.88553 28.0108C5.79702 28.1473 5.75 28.321 5.75 28.5C5.75 28.679 5.79702 28.8527 5.88553 28.9892C5.97218 29.1228 6.12165 29.25 6.32432 29.25Z" fill="#2642CA" stroke="#2642CA" stroke-width="0.5"/>
<path d="M9.67346 2.65811L9.67417 2.65742C10.0753 2.26824 10.608 2.05253 11.172 2.05253H27.1222C27.2049 2.05253 27.2735 2.12117 27.2735 2.20379V10.7708C27.2735 11.1295 27.566 11.422 27.9248 11.422C28.2835 11.422 28.576 11.1295 28.576 10.7708V2.20379C28.576 1.40363 27.9224 0.75 27.1222 0.75H11.1787C10.2795 0.75 9.42094 1.08845 8.77139 1.71627C8.77135 1.71632 8.7713 1.71636 8.77126 1.71641L1.81689 8.40999C1.81678 8.41009 1.81668 8.41019 1.81657 8.4103C1.13868 9.05951 0.75 9.97402 0.75 10.9112V35.7962C0.75 36.5964 1.40363 37.25 2.20379 37.25H27.1155C27.9157 37.25 28.5693 36.5964 28.5693 35.7962V19.6454C28.5693 19.2866 28.2768 18.9941 27.9181 18.9941C27.5593 18.9941 27.2668 19.2866 27.2668 19.6454V35.7962C27.2668 35.8788 27.1982 35.9475 27.1155 35.9475H2.20379C2.12117 35.9475 2.05253 35.8788 2.05253 35.7962V10.9112C2.05253 10.3319 2.29802 9.76095 2.71865 9.35212C2.71878 9.35198 2.71892 9.35185 2.71906 9.35171L9.67346 2.65811Z" fill="#2642CA" stroke="#2642CA" stroke-width="0.5"/>
<path d="M1.60195 10.9072H9.2527C10.1606 10.9072 10.9071 10.1591 10.9071 9.24605V1.73574C10.9071 1.37697 10.6146 1.08447 10.2559 1.08447C9.89709 1.08447 9.60459 1.37697 9.60459 1.73574V9.25273C9.60459 9.44905 9.44901 9.60463 9.2527 9.60463H1.60195C1.24318 9.60463 0.950684 9.89713 0.950684 10.2559C0.950684 10.6147 1.24318 10.9072 1.60195 10.9072Z" fill="#2642CA" stroke="#2642CA" stroke-width="0.5"/>
<path d="M14.4042 27.6641L14.4038 27.6653C14.2911 28.0381 14.3857 28.449 14.667 28.7303C14.8659 28.9292 15.1294 29.0443 15.4189 29.0443C15.5261 29.0443 15.6288 29.0266 15.7188 29.002L15.7188 29.0021L15.7257 29L20.1931 27.6424L20.1204 27.4032L20.1931 27.6424C20.9153 27.4229 21.5812 27.0194 22.1063 26.4731C22.1063 26.473 22.1063 26.473 22.1063 26.473L36.7644 11.3134C36.7645 11.3133 36.7646 11.3132 36.7647 11.313C37.4374 10.6243 37.4129 9.51589 36.7258 8.85225L33.9915 6.20484C33.9914 6.20476 33.9913 6.20469 33.9913 6.20462C33.6632 5.88445 33.2325 5.7124 32.7803 5.7124C32.3055 5.7124 31.8588 5.89979 31.5299 6.24398C31.5297 6.24417 31.5296 6.24436 31.5294 6.24455L16.8175 21.4579L16.8167 21.4588C16.3353 21.9615 15.9674 22.5839 15.7619 23.25L15.7618 23.2502L14.4042 27.6641ZM19.8136 26.3949L15.7768 27.6217L17.0016 23.6398C17.0016 23.6395 17.0017 23.6392 17.0018 23.6389C17.1509 23.1673 17.4119 22.7265 17.7523 22.3738L32.4568 7.15434C32.5447 7.0671 32.655 7.02162 32.7736 7.02162C32.8813 7.02162 32.9908 7.06432 33.0937 7.15084L35.8225 9.7929C35.8226 9.79299 35.8227 9.79309 35.8228 9.79318C35.9903 9.95683 35.9971 10.2342 35.8298 10.4107C35.8297 10.4109 35.8295 10.4111 35.8293 10.4113L21.1727 25.5693C21.1725 25.5696 21.1722 25.5699 21.1719 25.5701C20.7926 25.9554 20.3275 26.2402 19.8142 26.3948L19.8136 26.3949Z" fill="#2642CA" stroke="#2642CA" stroke-width="0.5"/>
<path d="M19.2852 24.0794L19.2851 24.0795L19.2892 24.0832C19.4122 24.196 19.5717 24.2626 19.739 24.2626C19.9122 24.2626 20.0761 24.1962 20.2034 24.069L20.2034 24.069L20.2063 24.066L33.7824 10.0218L33.7832 10.021C34.0282 9.76532 34.0336 9.35269 33.769 9.09908C33.5134 8.85417 33.101 8.84866 32.8474 9.11291C32.8473 9.11304 32.8472 9.11316 32.847 9.11329L19.2717 23.1567L19.271 23.1575C19.0259 23.4132 19.0205 23.8258 19.2852 24.0794Z" fill="#2642CA" stroke="#2642CA" stroke-width="0.5"/>
<path d="M16.2616 25.4915L16.2613 25.4913L17.8466 27.1501L17.8465 27.15C17.8464 27.1499 17.8464 27.1499 17.8463 27.1498L16.2616 25.4915ZM17.3716 28.2549C17.5284 28.2549 17.6945 28.2017 17.8273 28.0699L15.499 26.2193L15.3183 26.392L15.3184 26.3922C15.3184 26.3922 15.3185 26.3922 15.3185 26.3923L16.8987 28.0458C17.0271 28.1933 17.2062 28.2549 17.3716 28.2549Z" fill="#2642CA" stroke="#2642CA" stroke-width="0.5"/>
</svg>
