<svg width="47" height="48" viewBox="0 0 47 48" fill="none" xmlns="http://www.w3.org/2000/svg">
<g clip-path="url(#clip0_3312_4435)">
<path d="M46.2959 2.76074H12.4981C12.0874 2.76074 11.7354 3.11464 11.7354 3.52752V46.1721C11.7354 46.585 12.0874 46.9389 12.4981 46.9389H47.0587V3.52752C47 3.11464 46.7066 2.76074 46.2959 2.76074Z" fill="#2642CA"/>
<path opacity="0.4" d="M43.5992 0H8.62241C8.19735 0 7.83301 0.363539 7.83301 0.787668V44.5941C7.83301 45.0183 8.19735 45.3818 8.62241 45.3818H44.3886V0.787668C44.3886 0.363539 44.0242 0 43.5992 0Z" fill="#777777"/>
<path d="M43.5381 0.873047H9.74034C9.3296 0.873047 8.97754 1.22694 8.97754 1.63982V44.2844C8.97754 44.6973 9.3296 45.0512 9.74034 45.0512H44.3009V1.63982C44.3009 1.22694 43.9488 0.873047 43.5381 0.873047Z" fill="#FAFAFA"/>
<path d="M37.0251 41.2172C39.1963 41.2172 40.9564 39.4479 40.9564 37.2653C40.9564 35.0828 39.1963 33.3135 37.0251 33.3135C34.8539 33.3135 33.0938 35.0828 33.0938 37.2653C33.0938 39.4479 34.8539 41.2172 37.0251 41.2172Z" fill="#7B7B7B"/>
<path d="M37.0256 43.6348C33.505 43.6348 30.6885 40.7447 30.6885 37.2647C30.6885 33.7847 33.5636 30.8945 37.0256 30.8945C40.5462 30.8945 43.3626 33.7847 43.3626 37.2647C43.3626 40.7447 40.4875 43.6348 37.0256 43.6348ZM37.0256 32.0152C34.1504 32.0152 31.862 34.3745 31.862 37.2057C31.862 40.0958 34.2091 42.3962 37.0256 42.3962C39.9007 42.3962 42.1891 40.0369 42.1891 37.2057C42.1891 34.3745 39.9007 32.0152 37.0256 32.0152Z" fill="#7B7B7B"/>
<path d="M42.1302 6.41699H23.9404V7.83258H42.1302V6.41699Z" fill="#7B7B7B"/>
<path d="M31.8031 10.1328H23.9404V11.5484H31.8031V10.1328Z" fill="#7B7B7B"/>
<path d="M42.1302 17.9189H23.9404V19.3345H42.1302V17.9189Z" fill="#7B7B7B"/>
<path d="M31.8031 21.6348H23.9404V23.0504H31.8031V21.6348Z" fill="#7B7B7B"/>
<path d="M20.7127 4.82422H15.2558C14.493 4.82422 13.9062 5.47303 13.9062 6.18082V11.6662C13.9062 12.433 14.5517 13.0228 15.2558 13.0228H20.7127C21.4755 13.0228 22.0623 12.374 22.0623 11.6662V6.23981C22.0623 5.47303 21.4755 4.82422 20.7127 4.82422ZM20.5954 12.315H15.3732C14.9624 12.315 14.669 12.0201 14.669 11.6072V6.35777C14.669 5.94489 14.9624 5.64998 15.3732 5.64998H20.5954C21.0061 5.64998 21.2995 5.94489 21.2995 6.35777V11.6072C21.2995 11.9611 20.9474 12.315 20.5954 12.315Z" fill="#7B7B7B"/>
<path d="M20.7127 16.3262H15.2558C14.493 16.3262 13.9062 16.975 13.9062 17.6828V23.1682C13.9062 23.935 14.5517 24.5248 15.2558 24.5248H20.7127C21.4755 24.5248 22.0623 23.876 22.0623 23.1682V17.6828C22.0623 16.975 21.4755 16.3262 20.7127 16.3262ZM20.5954 23.817H15.3732C14.9624 23.817 14.669 23.5221 14.669 23.1092V17.8597C14.669 17.4468 14.9624 17.1519 15.3732 17.1519H20.5954C21.0061 17.1519 21.2995 17.4468 21.2995 17.8597V23.1092C21.2995 23.4631 20.9474 23.817 20.5954 23.817Z" fill="#7B7B7B"/>
<path d="M2.5231 11.4894V47.9998H0V10.7227L0.762796 11.4894L1.70162 10.7227L2.5231 11.4894Z" fill="#0068E7"/>
<path d="M2.5231 7.30176V11.4895L1.70162 10.7228L0.762796 11.4895L0 10.7228L1.70162 7.30176H2.5231Z" fill="#FFCB57"/>
<path d="M2.52265 5.65039L1.70117 7.30191H3.40279L2.52265 5.65039Z" fill="#0068E7"/>
<path d="M5.10423 10.7227V47.9998H2.52246V11.4894L3.40261 10.7227L4.22408 11.4894L5.10423 10.7227Z" fill="#005CCB"/>
<path d="M5.10423 10.7228L4.22408 11.4895L3.40261 10.7228L2.52246 11.4895V7.30176H3.40261L5.10423 10.7228Z" fill="#F2B946"/>
<path d="M14.9617 8.26425L16.9164 10.224L22.1943 5.5918L22.9762 6.30445L17.3074 11.3821L16.8187 11.7384L16.4277 11.293L14.082 8.9769L14.9617 8.26425Z" fill="#FFBE50"/>
<path d="M14.9617 20.0601L16.9164 22.0199L22.1943 17.3877L22.9762 18.1003L17.3074 23.178L16.8187 23.5343L16.4277 23.0889L14.082 20.7728L14.9617 20.0601Z" fill="#FFBE50"/>
<path d="M34.325 35.9859L36.2797 37.9457L41.5576 33.3135L42.3395 34.0261L36.6707 39.1038L36.182 39.4601L35.791 39.0147L33.4453 36.6986L34.325 35.9859Z" fill="#FFBE50"/>
</g>
<defs>
<clipPath id="clip0_3312_4435">
<rect width="47" height="48" fill="white"/>
</clipPath>
</defs>
</svg>
