<svg id="Layer_1" data-name="Layer 1" xmlns="http://www.w3.org/2000/svg" xmlns:xlink="http://www.w3.org/1999/xlink" viewBox="0 0 61.00396 55.03988"><defs><style>.cls-1{fill:none;}.cls-2{clip-path:url(#clip-path);}.cls-3{fill:#0068e7;}.cls-4{fill:#0098d5;}.cls-5{fill:#2642ca;}.cls-6{fill:#e6e7e8;}.cls-7{fill:#db9e46;}.cls-8{fill:#d0d2d3;}.cls-9{fill:#ffbe50;}.cls-10{fill:#efac4d;}.cls-11{fill:#fff;}.cls-12{fill:#ff3f86;}.cls-13{fill:#e2377d;}.cls-14{fill:#ef6ea8;}</style><clipPath id="clip-path"><rect class="cls-1" x="0.00379" y="0.03977" width="61" height="55"/></clipPath></defs><g id="Layer_2" data-name="Layer 2"><g id="Design"><g class="cls-2"><path class="cls-3" d="M46.92009,55.03977H4.12289A4.11612,4.11612,0,0,1,.04,50.36357l1.37311-9.8491a8.66145,8.66145,0,0,1,5.15219-6.76l4.75117-1.5991,1.8349-.6178,3.6697-1.2357,1.9564-.6542h13.4759l4.5932,1.5507.4496.1453,7.1693,2.4108a8.66132,8.66132,0,0,1,5.1522,6.76l.4618,3.34361.5468,3.94929.3524,2.5562a4.08561,4.08561,0,0,1-4.0586,4.6762Z"/><path class="cls-4" d="M1.41294,41.85917a8.66111,8.66111,0,0,1,5.15219-6.75989l12.21216-4.10691h13.4759l12.2121,4.10691a8.661,8.661,0,0,1,5.1522,6.75989l1.361,9.74011a4.20361,4.20361,0,0,0,.0121-1.2357l-1.3731-9.84911a8.6613,8.6613,0,0,0-5.1522-6.76l-12.2121-4.1068H18.77729l-12.2,4.0947a8.66127,8.66127,0,0,0-5.1522,6.75991L.03979,50.36357a4.20292,4.20292,0,0,0,.01215,1.2357Z"/><path class="cls-5" d="M50.86929,49.41867a4.12484,4.12484,0,0,1-3.9492,2.9317H4.12289a4.12489,4.12489,0,0,1-3.9492-2.9317L.04,50.36357a4.11613,4.11613,0,0,0,4.08287,4.6763H46.908a4.11615,4.11615,0,0,0,4.0828-4.6763Z"/><path class="cls-6" d="M34.29459,30.45947l-2.0293-2.3987-6.7441,5.4515-6.744-5.4394-2.0293,2.3987a3.32,3.32,0,0,0,.0243,2.859l6.3431,13.13219,2.4059,4.9912,8.7491-18.13549A3.32,3.32,0,0,0,34.29459,30.45947Z"/><path class="cls-5" d="M27.92709,46.46277l-1.1544-9.631h-2.5032l-1.1544,9.631,2.406,4.9912Z"/><path class="cls-7" d="M18.77719,21.68867v6.3844l6.7441,5.4394,6.744-5.4394v-6.3844Z"/><path class="cls-8" d="M25.52119,33.51237l-5.383,6.7963-3.366-6.978a3.34678,3.34678,0,0,1-.0243-2.8711l2.0293-2.3866Z"/><path class="cls-8" d="M25.52139,33.51237l5.383,6.7963,3.366-6.978a3.34678,3.34678,0,0,0,.0243-2.8711l-2.0293-2.3866Z"/><path class="cls-4" d="M28.04879,36.57707l-1.8592,1.8536a.9483.9483,0,0,1-1.34107.00773l-.00773-.00773-1.8592-1.8536A.94128.94128,0,0,1,22.968,35.246l.01358-.01359,1.1666-1.163a1.92564,1.92564,0,0,1,2.7219,0l1.1665,1.163a.93091.93091,0,0,1,.0405,1.31589Z"/><path class="cls-3" d="M27.62359,34.79658l-1.4217,1.4174a.94812.94812,0,0,1-1.34082.008l-.008-.008-1.4218-1.4174-.4253.424a.94157.94157,0,0,0-.01327,1.33152l.01327.01327,1.8592,1.8535a.94831.94831,0,0,0,1.34108.00773l.00772-.00773,1.8592-1.8535a.94139.94139,0,0,0,.01351-1.33128l-.01351-.01351Z"/><path class="cls-5" d="M16.77229,34.67537a3.32187,3.32187,0,0,1-.2673-2.13219,3.23505,3.23505,0,0,1-.0607-.7632l-3.2809,1.10249-1.8349.61781a5.03332,5.03332,0,0,0,.2187,3.2952,43.62817,43.62817,0,0,0,1.4461,4.2158l2.9163-.3271-1.8835,2.5198a49.50149,49.50149,0,0,0,3.9128,5.1124c2.6247,2.9438,7.5946,4.5066,7.5946,4.5066l-2.406-4.9912Z"/><path class="cls-5" d="M25.52169,51.45367l-.3767-.7874h-.5103V52.435h1.7741v-1.7687h-.5104Z"/><path class="cls-4" d="M25.52179,51.45378s-4.9699-1.56281-7.5946-4.5066a49.50415,49.50415,0,0,1-3.9128-5.1123l1.8835-2.51991-2.9164.3271s-.401-.8964-1.446-4.2158a5.03331,5.03331,0,0,1-.2187-3.2952l1.8349-.6178,3.6697-1.2357-.0729.1696a3.31961,3.31961,0,0,0,.0243,2.859l6.343,13.1322Z"/><path class="cls-5" d="M39.72639,33.48807l-1.8349-.6178-3.2809-1.1025a3.23444,3.23444,0,0,1-.0607.7632,3.32126,3.32126,0,0,1-.2674,2.1322l-6.343,13.1322-2.4181,5.0033s4.9699-1.5628,7.5946-4.5066a49.51421,49.51421,0,0,0,3.9128-5.1124l-1.8835-2.51979,2.91631.32709s.401-.89649,1.446-4.2159A4.99908,4.99908,0,0,0,39.72639,33.48807Z"/><path class="cls-4" d="M25.52139,51.45378s4.9699-1.56281,7.5946-4.5066a49.52184,49.52184,0,0,0,3.9128-5.1123L35.14529,39.315l2.9163.3271s.401-.8964,1.446-4.2158a5.03365,5.03365,0,0,0,.2188-3.2952l-1.8349-.6178-3.6697-1.2357.0729.1696a3.32,3.32,0,0,1-.0243,2.859l-6.343,13.1322Z"/><path class="cls-9" d="M35.18189,13.22037c0,5.69381-1.0328,15.1431-9.6603,15.1431s-9.6604-9.44929-9.6604-15.1431c0-5.69387.8992-10.30951,9.6604-10.30951C34.28269,2.91086,35.18189,7.5265,35.18189,13.22037Z"/><path class="cls-10" d="M25.52159,25.67427c-7.9713,0-9.466-8.0804-9.6361-13.7864-.0121.4362-.0243.8844-.0243,1.3326,0,5.6939,1.0329,15.1432,9.6604,15.1432s9.6603-9.4493,9.6603-15.1432c0-.4482,0-.8964-.0243-1.3326C34.98749,17.59387,33.49289,25.67427,25.52159,25.67427Z"/><path class="cls-9" d="M16.42729,18.86377c1.2331-.1441,2.039-1.9093,1.8-3.9427-.2391-2.0334-1.4325-3.5651-2.6656-3.421s-2.0389,1.9093-1.7999,3.9427C14.00079,17.47627,15.19419,19.00787,16.42729,18.86377Z"/><path class="cls-9" d="M37.18719,15.44217c.239-2.0334-.5668-3.7986-1.7999-3.9427s-2.4265,1.3875-2.6655,3.421c-.2391,2.0334.5668,3.7986,1.7999,3.9427S36.94819,17.47557,37.18719,15.44217Z"/><path class="cls-10" d="M16.33439,15.48587a10.37363,10.37363,0,0,1,.0364-2.8348.69571.69571,0,0,0-.1579.0121c-.9843.1091-1.6405,1.3811-1.4703,2.8348.1701,1.4538,1.1057,2.532,2.0778,2.4108.0243,0,.0365-.0121.0608-.0121A10.85631,10.85631,0,0,1,16.33439,15.48587Z"/><path class="cls-10" d="M34.70739,15.48587a10.37324,10.37324,0,0,0-.0364-2.8348.69579.69579,0,0,1,.15791.0121c.98429.1091,1.64049,1.3811,1.47029,2.8348a3.57054,3.57054,0,0,1-.60749,1.6355,2.36482,2.36482,0,0,1-.5225.52091,1.06849,1.06849,0,0,1-.6319.2544.737.737,0,0,0-.0486-.3634c-.0122-.0242-.0365-.0606-.0486-.0848-.1215-.27861.0486-.63.1093-.9086C34.61019,16.18857,34.671,15.83727,34.70739,15.48587Z"/><path class="cls-3" d="M30.40649,7.21168a8.25109,8.25109,0,0,1-5.6869,3.50109c-3.6089.2908-6.1486.5209-7.1571,2.2897-1.0086,1.7808.0243,5.1244-.7777,5.1244s-2.6612-7.6685.1093-13.19273A8.72654,8.72654,0,0,1,27.79389.54868c2.5761.93282,3.4146,2.41079,3.4146,3.94934A5.29543,5.29543,0,0,1,30.40649,7.21168Z"/><path class="cls-5" d="M29.36139,1.31177a3.46181,3.46181,0,0,1,.4982,1.8293,5.4052,5.4052,0,0,1-.7899,2.71365,8.2947,8.2947,0,0,1-5.699,3.51322c-3.6089.29075-6.1486.52092-7.1571,2.28966-.6198,1.0903-.4618,2.7863-.4496,3.9251.3037,1.5385.729,2.5441,1.0207,2.5441.802,0-.2309-3.3437.7777-5.1245,1.0085-1.7808,3.5482-1.9989,7.1571-2.2896a8.25141,8.25141,0,0,0,5.6869-3.50115,5.40558,5.40558,0,0,0,.7898-2.71365A3.62894,3.62894,0,0,0,29.36139,1.31177Z"/><path class="cls-3" d="M31.07479,3.50463s3.7426-.41189,4.897,2.75c1.5189,4.16744-.7412,11.66634-1.4096,11.66634-.6804,0,.2188-3.6707-.802-6.9659-1.0207-3.283-3.4996-3.53744-3.4996-3.53744Z"/><path class="cls-5" d="M35.109,9.61023c-1.0207-3.283-3.4874-3.53746-3.4874-3.53746l.5225-2.544a5.74761,5.74761,0,0,0-1.0693-.01211l-.8142,3.90088s2.4668.2544,3.4875,3.53747c1.0207,3.283.1215,6.9658.802,6.9658.243,0,.6683-.9328,1.0693-2.3138A19.96925,19.96925,0,0,0,35.109,9.61023Z"/><path class="cls-4" d="M17.16079,5.60044A8.71855,8.71855,0,0,1,28.06059,1.2271a5.21733,5.21733,0,0,1,3.0136,2.26541c-.3281-1.15088-1.2759-2.20484-3.2809-2.94383a8.72651,8.72651,0,0,0-10.8998,4.38546c-2.3817,4.7489-1.3367,11.09693-.4861,12.76873C15.64189,15.389,15.02219,9.86477,17.16079,5.60044Z"/><path class="cls-4" d="M35.972,6.25463c-1.1544-3.16189-4.897-2.75-4.897-2.75l-.1337.65419c.8749-.02423,3.6576.12114,4.62971,2.76211,1.22729,3.37994-.0243,8.95264-.89921,10.93944C35.43729,17.182,37.40579,10.21607,35.972,6.25463Z"/><path class="cls-10" d="M25.52089,19.93177a1.68467,1.68467,0,0,1-1.6648-1.0297,1.019,1.019,0,0,0-.0486.32711,1.56443,1.56443,0,0,0,1.7134,1.3568,1.56439,1.56439,0,0,0,1.7133-1.3568,1.52087,1.52087,0,0,0-.0486-.32711A1.68451,1.68451,0,0,1,25.52089,19.93177Z"/><path class="cls-11" d="M25.52119,33.51237l-5.8448,5.8271-2.9042-6.0088a3.34678,3.34678,0,0,1-.0243-2.8711l2.0293-2.3866Z"/><path class="cls-11" d="M25.52139,33.51227l5.8448,5.8271,2.9042-6.0209a3.34675,3.34675,0,0,0,.0243-2.8711l-2.0293-2.3866Z"/><path class="cls-5" d="M50.63869,47.80757a12.29725,12.29725,0,0,1-10.0492-2.956c-.0972-.0848-.1944-.1696-.2916-.2665-.073-.0727-.1459-.1454-.2309-.2181a12.128,12.128,0,0,1-3.5847-8.6376,12.28978,12.28978,0,0,1,.8142-4.3976l7.1693,2.4108a8.66137,8.66137,0,0,1,5.1522,6.7599l.4617,3.3436Z"/><path class="cls-11" d="M48.74309,46.74127a12.2608,12.2608,0,1,0-.00011,0Z"/><path class="cls-8" d="M48.74309,44.70617a12.24271,12.24271,0,0,1-12.2122-11.206c-.0243.3393-.0486.6785-.0486,1.0177a12.26081,12.26081,0,0,0,24.5215,0,9.497,9.497,0,0,0-.0486-1.0177A12.24262,12.24262,0,0,1,48.74309,44.70617Z"/><path class="cls-6" d="M51.53729,34.91788l2.5032-2.49561a1.97325,1.97325,0,0,0-2.7948-2.7864l-2.5032,2.49561-2.5032-2.4956a1.97325,1.97325,0,0,0-2.7948,2.7864l2.5032,2.4956-2.5032,2.4956A1.97322,1.97322,0,0,0,46.23412,40.205l.00517-.0052,2.5032-2.4956,2.5032,2.4956a1.97322,1.97322,0,1,0,2.79716-2.78393l-.00236-.00237Z"/><path class="cls-12" d="M51.53729,33.706l2.5032-2.4956a1.97325,1.97325,0,0,0-2.7948-2.7864l-2.5032,2.4956-2.5032-2.4956a1.97325,1.97325,0,1,0-2.7948,2.7864l2.5032,2.4956-2.5032,2.4956a1.97322,1.97322,0,1,0,2.79244,2.78867l.00236-.00237,2.5032-2.4956,2.5032,2.4956a1.97322,1.97322,0,1,0,2.79716-2.78393l-.00236-.00237Z"/><path class="cls-13" d="M54.04079,36.56568a1.96984,1.96984,0,0,1-2.78576.009l-.009-.009-2.5032-2.49561-2.5032,2.49561a1.96984,1.96984,0,0,1-2.78576.009l-.009-.009a2.11369,2.11369,0,0,1-.158-.18171,1.97231,1.97231,0,0,0,2.9528,2.6046l2.5032-2.4956,2.5032,2.4956a1.97231,1.97231,0,0,0,2.9528-2.6046A1.13462,1.13462,0,0,1,54.04079,36.56568Z"/><path class="cls-13" d="M45.948,33.70637l1.2151-1.2114-3.7183-3.7071a2.08468,2.08468,0,0,1-.158-.1817,1.96064,1.96064,0,0,0,.158,2.60461Z"/><path class="cls-13" d="M54.04049,28.78787l-3.7183,3.7071,1.2151,1.2114,2.5032-2.4956a1.9606,1.9606,0,0,0,.158-2.6046A2.117,2.117,0,0,1,54.04049,28.78787Z"/><path class="cls-14" d="M43.44429,36.80717l4.0222-4.0099-.3038-.30289-3.7184,3.707a1.99946,1.99946,0,0,0-.5589,1.69609A1.93109,1.93109,0,0,1,43.44429,36.80717Z"/><path class="cls-14" d="M43.44429,29.02977A1.96978,1.96978,0,0,1,46.23,29.02055l.00922.00922,2.5032,2.4956,2.5031-2.4956a1.96978,1.96978,0,0,1,2.78568-.00922l.00922.00922a2.05107,2.05107,0,0,1,.5589,1.0903,1.91794,1.91794,0,0,0-.5589-1.6961,1.97,1.97,0,0,0-2.786-.00891l-.00891.00891-2.5031,2.4956-2.5032-2.4956a1.97,1.97,0,0,0-2.786-.00891l-.00891.00891a1.99941,1.99941,0,0,0-.5589,1.6961A1.89432,1.89432,0,0,1,43.44429,29.02977Z"/><path class="cls-14" d="M50.32219,32.49438l-.3038.30289,4.02221,4.0099a2.05105,2.05105,0,0,1,.55889,1.0903,1.91788,1.91788,0,0,0-.55889-1.69609Z"/></g></g></g></svg>