<svg id="Layer_1" data-name="Layer 1" xmlns="http://www.w3.org/2000/svg" xmlns:xlink="http://www.w3.org/1999/xlink" viewBox="0 0 71.38985 63.14961"><defs><style>.cls-1{fill:#fff;}.cls-2{fill:#c5deea;opacity:0.5;isolation:isolate;}.cls-3{fill:none;stroke:#23d2e2;stroke-miterlimit:10;stroke-width:2.56667px;}.cls-4{mask:url(#mask);}.cls-5{fill:#7850f7;}.cls-6{fill:#23d2e2;}</style><mask id="mask" x="5.93945" y="14.45121" width="55.3748" height="54.1461" maskUnits="userSpaceOnUse"><g id="mask0_3957_5530" data-name="mask0 3957 5530"><path class="cls-1" d="M61.31425,14.45121H5.93945v40.6081h55.3748Z"/></g></mask></defs><path class="cls-2" d="M39.81505,63.14961A31.57481,31.57481,0,1,0,8.24023,31.57481,31.57478,31.57478,0,0,0,39.81505,63.14961Z"/><path class="cls-3" d="M16.20565,20.88131,0,20.82231"/><path class="cls-3" d="M57.64365,34.27341H39.78325"/><g class="cls-4"><path class="cls-1" d="M33.62675,68.59731A26.45685,26.45685,0,1,0,7.16992,42.14041,26.457,26.457,0,0,0,33.62675,68.59731Z"/></g><path class="cls-5" d="M24.89285,44.65731a9.428,9.428,0,1,1,17.9904-.0004l-1.6355-.5122a7.71383,7.71383,0,1,0-14.7194-.0005Z"/><path class="cls-5" d="M45.63625,31.293l-1.212-1.212-10.0977,10.0979a1.69741,1.69741,0,0,0-.4383-.0639,1.716,1.716,0,0,0-1.7143,1.7142,1.69753,1.69753,0,0,0,.0639.4384l-1.5269,1.5269,1.2119,1.2121,1.527-1.527a1.69324,1.69324,0,0,0,.4384.0639,1.71616,1.71616,0,0,0,1.7142-1.7141,1.69753,1.69753,0,0,0-.0639-.4384Z"/><path class="cls-5" d="M61.31445,41.82851a27.42676,27.42676,0,1,0-51.6457,12.8563H7.318v1.7141H60.45735v-1.7141h-2.3505A27.39785,27.39785,0,0,0,61.31445,41.82851Zm-53.13933,0a25.7126,25.7126,0,1,1,47.96923,12.8563H11.63075A25.66358,25.66358,0,0,1,8.17512,41.82851Z"/><path class="cls-6" d="M46.74385,52.97031H21.03125v-5.9996h25.7126Zm-23.9984-1.7142h22.2842v-2.5712H22.74545Z"/><path class="cls-6" d="M33.88775,22.11621c-10.6855,0-19.7129,9.42-19.7129,20.5701h5.9995v-1.7142h-4.2041a19.2173,19.2173,0,0,1,3.109-8.8427l3.2103,2.3325,1.0078-1.3869-3.2127-2.3343a18.55821,18.55821,0,0,1,7.4635-5.6498l1.2867,3.9607,1.6305-.5299-1.2992-3.9988a16.44151,16.44151,0,0,1,9.4432,0l-1.299,3.9988,1.6304.5298,1.2867-3.9606a18.55821,18.55821,0,0,1,7.4635,5.6498l-3.2126,2.3343,1.0077,1.3869,3.2103-2.3325a19.215,19.215,0,0,1,3.109,8.8427h-4.2041v1.7142h5.9996C53.60075,31.53621,44.57375,22.11621,33.88775,22.11621Z"/><path class="cls-3" d="M25.0531,8.34122H42.9136"/><path class="cls-3" d="M68.274,26.78911H59.34375"/></svg>