<svg width="75" height="75" viewBox="0 0 75 75" fill="none" xmlns="http://www.w3.org/2000/svg">
<g opacity="0.5">
<path d="M40.3502 69.6447C57.83 69.6447 72.0002 55.4745 72.0002 37.9947C72.0002 20.5149 57.83 6.34473 40.3502 6.34473C22.8704 6.34473 8.7002 20.5149 8.7002 37.9947C8.7002 55.4745 22.8704 69.6447 40.3502 69.6447Z" fill="#C5DEEA"/>
</g>
<path d="M17.6852 26.61L28.4402 15.915L32.2952 19.515C32.2952 19.515 30.3452 22.32 33.1652 26.16C35.9852 30 40.4402 33.6 40.4402 33.6L43.9952 35.385L46.3502 33.765L49.9952 36.57L47.3552 41.13L43.4102 44.895L38.3552 48.6L34.7102 45.795L35.2352 43.785L35.4902 42.405L33.7952 38.805L31.3202 40.17L12.4052 57.405L8.86523 54.75L11.5352 50.52L21.3452 40.35L25.8152 36.06L27.5552 33.675L25.7252 31.335L23.1902 30.435L20.9702 31.23L16.8602 27.3L17.6852 26.61Z" fill="white"/>
<path d="M12.4052 59.3253C11.7302 59.3253 11.1302 59.0853 10.6802 58.6353L7.83015 55.7853C7.24515 55.2003 7.02015 54.3453 7.20015 53.4303C7.35015 52.7403 7.72515 52.0503 8.28015 51.4953L27.3302 32.4453L27.6302 32.6403C27.9152 32.8203 28.2152 33.0303 28.5152 33.2403L28.9501 33.5553L9.64515 52.8603C9.36015 53.1453 9.15015 53.5053 9.07515 53.8353C9.01515 54.0903 9.06015 54.3153 9.18015 54.4353L12.0302 57.2853C12.1202 57.3753 12.2402 57.4053 12.4052 57.4053C12.7802 57.4053 13.2302 57.1803 13.6052 56.8203L32.8952 37.5303L33.2102 37.9503C33.4352 38.2503 33.6301 38.5503 33.8251 38.8203L34.0202 39.1203L14.9702 58.1703C14.2202 58.9053 13.2902 59.3253 12.4052 59.3253Z" fill="#7651F8"/>
<path d="M10.9954 58.3203C11.3704 58.6953 11.8654 58.8753 12.4054 58.8753C13.1554 58.8753 13.9654 58.5303 14.6404 57.8553L33.4354 39.0603C33.2554 38.7903 33.0604 38.5053 32.8504 38.2053L13.9204 57.1353C13.1854 57.8703 12.1954 58.0803 11.7154 57.6003L8.86543 54.7503C8.38543 54.2703 8.59543 53.2803 9.33043 52.5453L28.2604 33.6153C27.9754 33.4053 27.6754 33.2103 27.4054 33.0303L8.61043 51.8253C8.11543 52.3203 7.77043 52.9203 7.65043 53.5353C7.48543 54.2853 7.68043 54.9903 8.16043 55.4703L10.9954 58.3203Z" fill="#7651F8"/>
<path d="M12.4052 58.3053C12.0002 58.3053 11.6552 58.1703 11.4002 57.9153L8.55016 55.0653C8.29516 54.8103 8.16016 54.4653 8.16016 54.0603C8.16016 53.4453 8.47516 52.7703 9.01516 52.2303L28.2152 33.0303L28.5302 33.2553C28.8152 33.4503 29.0852 33.6753 29.3702 33.9003L29.7602 34.2153L10.3652 53.5953C10.2452 53.7153 10.1702 53.8503 10.1252 53.9403L12.5402 56.3553C12.6302 56.3103 12.7502 56.2353 12.8852 56.1153L32.2502 36.7203L32.5652 37.1103C32.8052 37.3953 33.0152 37.6803 33.2102 37.9503L33.4352 38.2653L14.2352 57.4503C13.6952 57.9903 13.0202 58.3053 12.4052 58.3053Z" fill="#7651F8"/>
<path d="M13.1853 56.4149C12.8403 56.7599 12.5103 56.8349 12.3903 56.8349L9.63027 54.0749C9.63027 53.9549 9.70527 53.6249 10.0503 53.2799L29.0703 34.2599C28.8003 34.0349 28.5153 33.8249 28.2453 33.6299L9.33027 52.5449C8.59527 53.2799 8.38527 54.2699 8.86527 54.7499L11.7153 57.5999C12.1953 58.0799 13.1853 57.8699 13.9203 57.1349L32.8503 38.2049C32.6553 37.9349 32.4453 37.6649 32.2203 37.3949L13.1853 56.4149Z" fill="#7651F8"/>
<path d="M20.9848 33.1496C20.3548 33.1496 19.7548 32.9096 19.3348 32.4896L16.3048 29.4596C15.2998 28.4546 15.4498 26.7446 16.6348 25.5596L26.7298 15.4646C27.3598 14.8346 28.1848 14.4746 28.9798 14.4746C29.6098 14.4746 30.1948 14.7146 30.6298 15.1346L33.6598 18.1646C34.6648 19.1696 34.5148 20.8796 33.3298 22.0646L32.2498 23.1446L31.9948 22.4996C31.8448 22.1246 31.7698 21.8996 31.7698 21.8846L31.5148 21.1496L31.9648 20.6996C32.3998 20.2646 32.5048 19.7246 32.2948 19.5146L29.2798 16.4996C29.2048 16.4246 29.0848 16.4096 28.9948 16.4096C28.7098 16.4096 28.3798 16.5746 28.1098 16.8446L17.9998 26.9246C17.7748 27.1496 17.6248 27.4196 17.5798 27.6596C17.5648 27.7646 17.5348 27.9746 17.6698 28.0946L20.6998 31.1246C20.7748 31.1996 20.9098 31.2296 20.9848 31.2296C21.2698 31.2296 21.5998 31.0646 21.8698 30.7946L22.3348 30.3296L23.1748 30.5396C23.1748 30.5396 23.3848 30.5996 23.7448 30.7196L24.4198 30.9596L23.2348 32.1446C22.6048 32.7896 21.7798 33.1496 20.9848 33.1496Z" fill="#7651F8"/>
<path d="M22.4699 30.8404L22.1849 31.1254C21.5849 31.7254 20.7749 31.8754 20.3699 31.4554L17.3399 28.4254C16.9349 28.0204 17.0849 27.2104 17.6699 26.6104L27.7649 16.5154C28.3649 15.9154 29.1749 15.7654 29.5799 16.1854L32.6099 19.2154C33.0149 19.6204 32.8649 20.4304 32.2799 21.0304L32.0249 21.2854L32.1899 21.7654C32.1899 21.7804 32.2649 21.9904 32.4149 22.3504L33.0149 21.7504C34.0199 20.7454 34.1699 19.3054 33.3449 18.4954L30.3149 15.4654C29.9699 15.1204 29.5049 14.9404 28.9799 14.9404C28.3049 14.9404 27.5999 15.2554 27.0449 15.8104L16.9499 25.9054C15.9449 26.9104 15.7949 28.3504 16.6199 29.1604L19.6499 32.1904C19.9949 32.5354 20.4599 32.7154 20.9849 32.7154C21.6599 32.7154 22.3649 32.4004 22.9199 31.8454L23.5949 31.1704C23.2649 31.0504 23.0699 31.0054 23.0549 31.0054L22.4699 30.8404Z" fill="#7651F8"/>
<path d="M20.9853 32.1298C20.6103 32.1298 20.2953 32.0098 20.0553 31.7698L17.0253 28.7398C16.4253 28.1398 16.5753 27.0748 17.3553 26.2948L27.4503 16.1998C27.8853 15.7648 28.4553 15.5098 28.9803 15.5098C29.3553 15.5098 29.6703 15.6298 29.9103 15.8698L32.9403 18.8998C33.5253 19.4998 33.3903 20.5648 32.6103 21.3448L31.8453 22.1098L31.4853 21.0298L22.2003 30.2998L23.3553 30.5998L22.5153 31.4398C22.0653 31.8748 21.5103 32.1298 20.9853 32.1298ZM21.1203 30.1048C21.1353 30.0898 31.2753 19.9498 31.2903 19.9348L28.8603 17.5048C28.8453 17.5198 18.7053 27.6598 18.6903 27.6748L21.1203 30.1048ZM31.5153 20.2498L31.5903 20.2348L31.2603 19.9948L31.5153 20.2498Z" fill="#7651F8"/>
<path d="M32.6247 19.2002L29.5947 16.1702C29.1897 15.7652 28.3797 15.9152 27.7797 16.5002L17.6847 26.5952C17.0847 27.1952 16.9347 28.0052 17.3547 28.4102L20.3847 31.4402C20.7897 31.8452 21.5997 31.6952 22.1997 31.1102L22.4847 30.8252L21.3447 30.5252L22.6047 29.2652L31.6797 20.1902L32.0397 21.2702L32.2947 21.0152C32.8797 20.4302 33.0297 19.6052 32.6247 19.2002ZM31.5597 20.2952L21.4647 30.3902C21.2997 30.5552 21.1197 30.6302 21.0297 30.6452L18.1497 27.7652C18.1647 27.6752 18.2397 27.4952 18.4047 27.3302L28.4997 17.2352C28.6647 17.0702 28.8447 16.9952 28.9497 16.9802L31.8297 19.8602C31.8147 19.9502 31.7397 20.1152 31.5597 20.2952Z" fill="#7651F8"/>
<path d="M38.3698 50.5346C37.7248 50.5346 37.1398 50.2946 36.7198 49.8746L33.6898 46.8446C33.1498 46.3046 32.9248 45.5246 33.0748 44.6996C33.1948 44.0696 33.5248 43.4396 34.0198 42.9446L35.2948 41.6697L35.4898 42.4197C35.5648 42.7197 35.5948 42.8847 35.5948 42.9146L35.6998 43.9646L35.3548 44.3097C34.9198 44.7447 34.8148 45.2846 35.0248 45.4946L38.0548 48.5246C38.1148 48.5846 38.2198 48.6296 38.3398 48.6296C38.6248 48.6296 38.9548 48.4647 39.2248 48.1947L49.3198 38.0996C49.5898 37.8296 49.7548 37.4846 49.7548 37.2146C49.7548 37.1246 49.7398 37.0046 49.6498 36.9296L46.6198 33.8996C46.5448 33.8246 46.4098 33.7946 46.3348 33.7946C46.0498 33.7946 45.7198 33.9596 45.4498 34.2296L45.0748 34.6046L44.1898 34.4246C44.0998 34.4096 43.9198 34.3646 43.6348 34.2746L42.9298 34.0496L44.0998 32.8796C44.7298 32.2496 45.5548 31.8896 46.3498 31.8896C46.9798 31.8896 47.5798 32.1296 47.9998 32.5496L51.0298 35.5796C51.5698 36.1196 51.7948 36.8996 51.6448 37.7246C51.5248 38.3546 51.1948 38.9846 50.6998 39.4796L40.6048 49.5746C39.9898 50.1746 39.1648 50.5346 38.3698 50.5346Z" fill="#7651F8"/>
<path d="M44.97 34.0946L45.165 33.8996C45.765 33.2996 46.575 33.1646 46.98 33.5696L50.01 36.5996C50.415 37.0046 50.265 37.8146 49.68 38.4146L39.585 48.5096C38.985 49.1096 38.175 49.2596 37.77 48.8396L34.74 45.8096C34.335 45.4046 34.485 44.5946 35.07 43.9946L35.265 43.7996L35.175 42.9896C35.175 42.9746 35.145 42.8096 35.07 42.5396L34.335 43.2746C33.9 43.7096 33.615 44.2496 33.51 44.7896C33.39 45.4646 33.57 46.0946 34.005 46.5296L37.035 49.5596C37.38 49.9046 37.845 50.0846 38.37 50.0846C39.045 50.0846 39.75 49.7696 40.305 49.2146L50.4 39.1196C50.835 38.6846 51.12 38.1446 51.225 37.6046C51.345 36.9296 51.165 36.2996 50.73 35.8646L47.7 32.8346C47.355 32.4896 46.89 32.3096 46.365 32.3096C45.69 32.3096 44.985 32.6246 44.43 33.1796L43.785 33.8246C44.1 33.9296 44.295 33.9596 44.295 33.9746L44.97 34.0946Z" fill="#7651F8"/>
<path d="M38.3701 49.5149C37.9951 49.5149 37.6801 49.3949 37.4401 49.1549L34.4101 46.1249C33.8101 45.5249 33.9601 44.4599 34.7401 43.6799L35.5951 42.8249L35.8051 44.7449L36.1051 45.0449C36.0901 45.0599 36.0901 45.0749 36.0751 45.0749L38.5051 47.5049C38.5201 47.4899 48.6601 37.3499 48.6751 37.3349L46.2451 34.9049C46.2301 34.9199 46.2151 34.9199 46.2151 34.9349L46.0651 34.7849L44.0701 34.3649L44.8651 33.5699C45.3001 33.1349 45.8701 32.8799 46.3951 32.8799C46.7701 32.8799 47.0851 32.9999 47.3251 33.2399L50.3551 36.2699C50.5951 36.5099 50.7151 36.8249 50.7151 37.1999C50.7151 37.7249 50.4601 38.2799 50.0251 38.7299L39.9301 48.8249C39.4501 49.2599 38.8951 49.5149 38.3701 49.5149Z" fill="#7651F8"/>
<path d="M45.8854 34.6197C46.0504 34.4547 46.2154 34.3797 46.3204 34.3647L49.2004 37.2447C49.1854 37.3347 49.1104 37.5147 48.9454 37.6797L38.8504 47.7747C38.6854 47.9397 38.5054 48.0147 38.4154 48.0297L35.5354 45.1497C35.5504 45.0597 35.6254 44.8797 35.7904 44.7147L35.4004 45.1047L35.2654 43.7997L35.0704 43.9947C34.4704 44.5947 34.3204 45.4047 34.7404 45.8097L37.7704 48.8397C38.1754 49.2447 38.9854 49.0947 39.5854 48.5097L49.6804 38.4147C50.2804 37.8147 50.4304 37.0047 50.0104 36.5997L46.9804 33.5697C46.5754 33.1647 45.7654 33.3147 45.1654 33.8997L44.9704 34.0947L46.1704 34.3497L45.8854 34.6197Z" fill="#7651F8"/>
<path d="M34.6345 42.6603C34.4845 42.0903 34.0645 40.8903 33.0445 39.3153L32.8495 39.0003L33.1795 38.6703L27.7795 33.2703L27.4495 33.6003L27.1495 33.4053C25.5295 32.3703 24.1345 31.8153 23.4445 31.5753L22.7695 31.3353L24.2845 29.8203L24.5545 29.9253C26.0245 30.4953 28.9195 31.8453 31.6195 34.5453C34.5445 37.4703 35.7895 39.9753 36.3145 41.5653L36.4045 41.8353L34.8295 43.4103L34.6345 42.6603Z" fill="#7651F8"/>
<path d="M28.5154 33.3604L29.2354 34.0804L33.1054 37.9504L33.8254 38.6704L33.4354 39.0604C34.4854 40.6654 34.9054 41.9104 35.0854 42.5404L35.9104 41.7154C35.4454 40.3354 34.2604 37.8154 31.3204 34.8754C28.6954 32.2504 25.8904 30.9304 24.4054 30.3604L23.6104 31.1554C24.3454 31.4104 25.7704 31.9804 27.4054 33.0304L27.7954 32.6404L28.5154 33.3604Z" fill="#7651F8"/>
<path d="M42.8397 35.0404C41.4297 34.5304 38.6247 33.2254 35.7897 30.3904C33.4047 28.0054 31.9047 24.9154 31.2147 23.2954L31.0947 23.0104L32.5797 21.5254L32.8347 22.1554C33.3447 23.4304 34.7847 26.6554 37.1547 29.0254C40.0647 31.9354 42.8697 33.0304 43.9497 33.3754L44.6547 33.6004L43.1247 35.1304L42.8397 35.0404Z" fill="#7651F8"/>
<path d="M32.3702 37.8602L32.1752 38.0552L31.8602 37.6652C31.3652 37.0652 30.8402 36.4652 30.2702 35.9102C29.8202 35.4602 29.3252 35.0102 28.8002 34.5902L28.4102 34.2752L29.2352 33.4502L33.4202 37.6352L32.7902 38.2652L32.3702 37.8602Z" fill="#7651F8"/>
<path d="M28.8278 33.0423L28.1914 33.6787L28.9126 34.4L29.549 33.7636L28.8278 33.0423Z" fill="#7651F8"/>
<path d="M29.2346 34.0804L28.5146 33.3604L29.2346 34.0804Z" fill="#7651F8"/>
<path d="M27.9896 33.9898C27.7046 33.7798 27.4196 33.5998 27.1496 33.4198L26.6846 33.1198L27.7946 32.0098L29.1596 33.3748L28.3046 34.2148L27.9896 33.9898Z" fill="#7651F8"/>
<path d="M28.5153 33.3596L27.7953 32.6396L27.4053 33.0296C27.6903 33.2096 27.9753 33.4046 28.2603 33.6146L28.5153 33.3596Z" fill="#7651F8"/>
<path d="M33.0596 39.2997C32.8796 39.0297 32.6996 38.7597 32.4896 38.4747L32.2646 38.1597L33.1196 37.3047L34.4846 38.6697L33.3896 39.7647L33.0596 39.2997Z" fill="#7651F8"/>
<path d="M33.1046 37.9502L32.8496 38.2052C33.0596 38.5052 33.2696 38.7902 33.4346 39.0602L33.8246 38.6702L33.1046 37.9502Z" fill="#7651F8"/>
<path d="M28.8003 34.5898C28.5303 34.3798 28.2603 34.1698 28.0053 33.9748L27.5703 33.6598L28.5153 32.7148L29.8653 34.0798L29.1003 34.8448L28.8003 34.5898Z" fill="#7651F8"/>
<path d="M29.2348 34.0804L28.5148 33.3604L28.2598 33.6154C28.5298 33.8104 28.7998 34.0204 29.0848 34.2454L29.2348 34.0804Z" fill="#7651F8"/>
<path d="M32.4755 38.4746C32.2805 38.2196 32.0855 37.9496 31.8605 37.6796L31.6055 37.3646L32.3705 36.5996L33.7355 37.9646L32.7905 38.9096L32.4755 38.4746Z" fill="#7651F8"/>
<path d="M32.3701 37.2305L32.2051 37.3955C32.4301 37.6805 32.6401 37.9505 32.8351 38.2055L33.0901 37.9505L32.3701 37.2305Z" fill="#7651F8"/>
<path d="M23.4446 31.5747C23.1596 31.4697 22.9796 31.4247 22.9496 31.4097L21.5996 31.0647L32.2196 20.4297L32.6096 21.5997C32.6096 21.6147 32.6846 21.8247 32.8196 22.1547L32.9246 22.4247L31.4546 23.8947C31.4546 23.8947 31.0796 22.9947 31.0346 22.8747L24.1346 29.7747C24.2546 29.8197 25.1846 30.1647 25.1846 30.1647L23.6996 31.6497L23.4446 31.5747Z" fill="#7651F8"/>
<path d="M23.3097 29.9995L31.2297 22.0795C31.2297 22.0795 31.3647 22.4845 31.6347 23.1145L32.4147 22.3345C32.2647 21.9745 32.1897 21.7645 32.1897 21.7495L32.0247 21.2695L22.4697 30.8245L23.0547 30.9745C23.0697 30.9745 23.2647 31.0345 23.5947 31.1395L24.3897 30.3445C23.7147 30.0895 23.3097 29.9995 23.3097 29.9995Z" fill="#7651F8"/>
<path d="M20.4453 30.7802L31.8603 19.3652L32.5503 21.3902L22.6053 31.3352L20.4453 30.7802Z" fill="#7651F8"/>
<path d="M45.571 34.2903L35.4736 44.3877L36.11 45.0241L46.2074 34.9267L45.571 34.2903Z" fill="#7651F8"/>
<path d="M45.885 34.6201L35.79 44.7151L45.885 34.6201Z" fill="#7651F8"/>
<path d="M44.0097 35.3998C44.0097 35.3998 43.5747 35.3098 42.8397 35.0398L42.1797 34.7998L43.6797 33.2998L43.9347 33.3748C44.1897 33.4498 44.3547 33.4948 44.3997 33.5098L45.8697 33.8098L44.2497 35.4298L44.0097 35.3998Z" fill="#7651F8"/>
<path d="M44.1002 34.9499L44.9702 34.0799L44.3102 33.9449C44.2952 33.9449 44.1152 33.8999 43.8002 33.7949L42.9902 34.6049C43.6952 34.8749 44.1002 34.9499 44.1002 34.9499Z" fill="#7651F8"/>
<path d="M34.7252 43.0346C34.7252 43.0346 34.6952 42.8846 34.6352 42.6596L34.5752 42.4046L36.0902 40.8896L36.3152 41.5796C36.5702 42.3446 36.6302 42.8096 36.6302 42.8246L36.6602 43.0346L34.9202 44.7746L34.7252 43.0346Z" fill="#7651F8"/>
<path d="M35.265 43.7998L36.195 42.8698C36.195 42.8698 36.15 42.4498 35.91 41.7148L35.085 42.5398C35.16 42.8098 35.175 42.9748 35.19 42.9898L35.265 43.7998Z" fill="#7651F8"/>
<path d="M34.7852 43.6346L44.8202 33.5996L47.0702 34.0796L35.0552 46.0796L34.7852 43.6346Z" fill="#7651F8"/>
<path d="M36.1946 42.8697L35.2646 43.7997L35.3996 45.1047L35.7896 44.7147L45.8846 34.6197L46.1546 34.3497L44.9696 34.0947L44.0996 34.9497L36.1946 42.8697Z" fill="#7651F8"/>
<path d="M35.4747 41.865C35.0697 40.635 33.9297 38.145 30.9897 35.205C28.3947 32.61 25.6497 31.32 24.2397 30.78L23.5947 30.525L25.0797 29.04L25.3497 29.16C27.1347 29.895 29.8047 31.305 32.3397 33.84C35.1597 36.66 36.4947 39.165 37.1097 40.77L37.2147 41.04L35.6997 42.555L35.4747 41.865Z" fill="#7651F8"/>
<path d="M42.0451 35.82C40.3201 35.13 37.7251 33.75 35.0701 31.11C32.9551 28.995 31.5001 26.355 30.7201 24.675L25.5001 29.88L24.8701 29.25L31.7851 22.335L32.0401 22.95C32.7001 24.525 34.1551 27.495 36.4201 29.76C39.1351 32.475 41.8051 33.705 43.1401 34.2L43.8001 34.44L42.3001 35.94L42.0451 35.82Z" fill="#7651F8"/>
<path d="M24.2404 30.7799C23.6104 30.5399 23.2204 30.4349 23.2054 30.4349L22.4404 30.2399L31.4254 21.2549L31.6654 21.9449C31.6654 21.9599 31.8004 22.3349 32.0554 22.9499L32.1754 23.2349L24.5254 30.8849L24.2404 30.7799Z" fill="#7651F8"/>
<path d="M35.7448 42.9151C35.7448 42.9151 35.6998 42.5251 35.4748 41.8501L35.3848 41.5801L42.8848 34.0801L43.1548 34.1851C43.7998 34.4251 44.1748 34.5001 44.1898 34.5001L44.9998 34.6801L35.8348 43.8451L35.7448 42.9151Z" fill="#7651F8"/>
<path d="M44.0995 34.9505C44.0995 34.9505 43.6795 34.8605 42.9895 34.6055L42.1945 35.4005L36.6895 40.9055L35.8945 41.7005C36.1345 42.4355 36.1795 42.8555 36.1795 42.8555L44.0995 34.9505Z" fill="#7651F8"/>
<path d="M29.8951 59.295C28.0651 59.295 26.5801 57.81 26.5801 55.98V55.065C26.5801 53.235 28.0651 51.75 29.8951 51.75H51.1501C52.9801 51.75 54.4651 53.235 54.4651 55.065V55.98C54.4651 57.81 52.9801 59.295 51.1501 59.295H29.8951ZM29.8951 53.685C29.1301 53.685 28.5001 54.315 28.5001 55.08V55.995C28.5001 56.76 29.1301 57.39 29.8951 57.39H51.1501C51.9151 57.39 52.5451 56.76 52.5451 55.995V55.08C52.5451 54.315 51.9151 53.685 51.1501 53.685H29.8951Z" fill="#23D2E2"/>
<path d="M28.3652 53.4902L51.1352 53.6852L52.5002 56.8802L49.7252 57.7352L28.2002 57.2702L28.3652 53.4902Z" fill="white"/>
<path d="M29.8953 52.2148C28.3203 52.2148 27.0303 53.5048 27.0303 55.0798V55.9948C27.0303 57.5698 28.3203 58.8598 29.8953 58.8598H51.1503C52.7253 58.8598 54.0153 57.5698 54.0153 55.9948V55.0798C54.0153 53.5048 52.7253 52.2148 51.1503 52.2148H29.8953ZM52.9803 55.0798V55.9948C52.9803 57.0148 52.1553 57.8398 51.1353 57.8398H29.8953C28.8753 57.8398 28.0503 57.0148 28.0503 55.9948V55.0798C28.0503 54.0598 28.8753 53.2348 29.8953 53.2348H51.1503C52.1553 53.2348 52.9803 54.0598 52.9803 55.0798Z" fill="#23D2E2"/>
<path d="M29.8946 58.2745C28.6346 58.2745 27.5996 57.2545 27.5996 55.9795V55.0645C27.5996 53.8045 28.6196 52.7695 29.8946 52.7695H51.1496C52.4096 52.7695 53.4446 53.7895 53.4446 55.0645V55.9795C53.4446 57.2395 52.4246 58.2745 51.1496 58.2745H29.8946ZM29.8946 54.7045C29.6996 54.7045 29.5196 54.8695 29.5196 55.0645V55.9795C29.5196 56.1745 29.6846 56.3545 29.8946 56.3545H51.1496C51.3446 56.3545 51.5246 56.1895 51.5246 55.9795V55.0645C51.5246 54.8695 51.3596 54.7045 51.1496 54.7045H29.8946Z" fill="#23D2E2"/>
<path d="M29.8948 53.2354C28.8748 53.2354 28.0498 54.0604 28.0498 55.0804V55.9954C28.0498 57.0154 28.8748 57.8404 29.8948 57.8404H51.1498C52.1698 57.8404 52.9948 57.0154 52.9948 55.9954V55.0804C52.9948 54.0604 52.1698 53.2354 51.1498 53.2354H29.8948ZM51.9598 55.0804V55.9954C51.9598 56.4454 51.5998 56.8053 51.1498 56.8053H29.8948C29.4448 56.8053 29.0848 56.4454 29.0848 55.9954V55.0804C29.0848 54.6304 29.4448 54.2703 29.8948 54.2703H51.1498C51.5848 54.2553 51.9598 54.6304 51.9598 55.0804Z" fill="#23D2E2"/>
</svg>
