<svg width="40" height="36" viewBox="0 0 40 36" fill="none" xmlns="http://www.w3.org/2000/svg">
<path d="M30.6909 5.00567V5.00646V5.01053V26.8773V29.6147C30.6909 31.7516 28.9319 33.4984 26.7624 33.4984C25.7782 33.4984 24.8504 33.1202 24.1565 32.4299L24.1561 32.4295C23.4579 31.7388 23.0764 30.826 23.0764 29.8506V26.8773C23.0764 26.4068 22.6887 26.0265 22.2185 26.0265H7.88629V4.99833C7.88629 3.62233 9.01989 2.50159 10.4126 2.50159H31.5321C31.0059 3.20101 30.6946 4.06899 30.6909 5.00567ZM34.9455 0.8H34.9454H34.9454H34.9453H34.9453H34.9452H34.9452H34.9451H34.9451H34.945H34.945H34.9449H34.9449H34.9448H34.9448H34.9447H34.9447H34.9446H34.9446H34.9445H34.9445H34.9445H34.9444H34.9444H34.9443H34.9443H34.9442H34.9442H34.9441H34.9441H34.944H34.944H34.9439H34.9439H34.9438H34.9438H34.9437H34.9437H34.9436H34.9436H34.9435H34.9435H34.9434H34.9434H34.9433H34.9433H34.9432H34.9432H34.9431H34.9431H34.9431H34.943H34.943H34.9429H34.9429H34.9428H34.9428H34.9427H34.9427H34.9426H34.9426H34.9425H34.9425H34.9424H34.9424H34.9423H34.9423H34.9422H34.9422H34.9421H34.9421H34.942H34.942H34.9419H34.9419H34.9418H34.9418H34.9417H34.9417H34.9417H34.9416H34.9416H34.9415H34.9415H34.9414H34.9414H34.9413H34.9413H34.9412H34.9412H34.9411H34.9411H34.941H34.941H34.9409H34.9409H34.9408H34.9408H34.9407H34.9407H34.9406H34.9406H34.9405H34.9405H34.9404H34.9404H34.9404H34.9403H34.9403H34.9402H34.9402H34.9401H34.9401H34.94H34.94H34.9399H34.9399H34.9398H34.9398H34.9397H34.9397H34.9396H34.9396H34.9395H34.9395H34.9394H34.9394H34.9393H34.9393H34.9392H34.9392H34.9391H34.9391H34.9391H34.939H34.939H34.9389H34.9389H34.9388H34.9388H34.9387H34.9387H34.9386H34.9386H34.9385H34.9385H34.9384H34.9384H34.9383H34.9383H34.9382H34.9382H34.9381H34.9381H34.938H34.938H34.9379H34.9379H34.9378H34.9378H34.9378H34.9377H34.9377H34.9376H34.9376H34.9375H34.9375H34.9374H34.9374H34.9373H34.9373H34.9372H34.9372H34.9371H34.9371H34.937H34.937H34.9369H34.9369H34.9368H34.9368H34.9367H34.9367H34.9366H34.9366H34.9365H34.9365H34.9365H34.9364H34.9364H34.9363H34.9363H34.9362H34.9362H34.9361H34.9361H34.936H34.936H34.9359H34.9359H34.9358H34.9358H34.9357H34.9357H34.9356H34.9356H34.9355H34.9355H34.9354H34.9354H34.9353H34.9353H34.9352H34.9352H34.9352H34.9351H34.9351H34.935H34.935H34.9349H34.9349H34.9348H34.9348H34.9347H34.9347H34.9346H34.9346H34.9345H34.9345H34.9344H34.9344H34.9343H34.9343H34.9342H34.9342H34.9341H34.9341H34.934H34.934H34.9339H34.9339H34.9338H34.9338H34.9338H34.9337H34.9337H34.9336H34.9336H34.9335H34.9335H34.9334H34.9334H34.9333H34.9333H34.9332H34.9332H34.9331H10.4126C8.07546 0.8 6.17041 2.68125 6.17041 4.99833V26.0265H1.65794C1.18768 26.0265 0.8 26.4068 0.8 26.8773V29.8506C0.8 32.8021 3.22718 35.2 6.20182 35.2H7.02424H22.2185H26.7624C29.8726 35.2 32.4068 32.6964 32.4068 29.6147V26.8773V11.3565H38.3421C38.8123 11.3565 39.2 10.9761 39.2 10.5057V5.01053C39.2 2.68531 37.2908 0.8 34.9455 0.8ZM22.2185 33.4984H7.02835H6.20593C4.17205 33.4984 2.51999 31.8614 2.51999 29.8506V27.7281H21.3647V29.8506C21.3647 31.2166 21.8807 32.5057 22.8179 33.4984H22.2185ZM32.4068 9.65489V5.01053C32.4068 3.63433 33.5366 2.50943 34.9337 2.50159H34.9455H34.9493C36.3504 2.50551 37.4841 3.63046 37.4841 5.01053V9.65489H32.4068Z" fill="#2642CA" stroke="#2642CA" stroke-width="0.4"/>
<path d="M12.1023 22.6354H26.3425C26.8128 22.6354 27.2004 22.255 27.2004 21.7846C27.2004 21.3141 26.8128 20.9338 26.3425 20.9338H12.1023C11.632 20.9338 11.2443 21.3141 11.2443 21.7846C11.2443 22.2599 11.6328 22.6354 12.1023 22.6354Z" fill="#2642CA" stroke="#2642CA" stroke-width="0.4"/>
<path d="M15.0158 16.0483L15.0158 16.0483C15.0129 16.0462 15.009 16.0433 15.0047 16.0398L15.0158 16.0483ZM15.0158 16.0483L15.0172 16.0496L15.0316 16.0596L18.4611 18.4309L18.4611 18.431L18.4634 18.4325C18.6101 18.531 18.7802 18.5844 18.9532 18.5844C19.1261 18.5844 19.2963 18.531 19.4429 18.4325L19.443 18.4325L19.4454 18.4308L22.8667 16.0595L22.881 16.0495L22.8823 16.0483L22.8823 16.0483C22.8852 16.0462 22.8891 16.0433 22.8935 16.0397L15.0158 16.0483ZM22.8938 16.0395C23.9894 15.2251 24.6428 13.9353 24.6428 12.576V8.11809C24.6428 7.79209 24.454 7.49517 24.1601 7.35246L24.1598 7.35233L19.3256 5.01431C19.3253 5.01417 19.325 5.01403 19.3247 5.01389L22.8938 16.0395ZM14.9712 8.65025L18.9491 6.72549L22.927 8.65025V12.5801C22.927 13.398 22.5347 14.1797 21.8711 14.6752L18.953 16.7011L16.0269 14.6751C15.3634 14.1796 14.9712 13.398 14.9712 12.5801V8.65025Z" fill="#2642CA" stroke="#2642CA" stroke-width="0.4"/>
<path d="M17.7106 13.5677L17.7111 13.5681C17.8771 13.7324 18.0967 13.8171 18.3164 13.8171C18.529 13.8171 18.749 13.7385 18.9167 13.5731L21.4284 11.1456L21.4289 11.1451C21.7672 10.8158 21.773 10.278 21.4447 9.94259L21.4447 9.94259L21.4436 9.94143C21.1118 9.60794 20.5719 9.60235 20.2341 9.92585L20.2341 9.92585L20.2335 9.9264L18.3263 11.7675L17.5688 11.0182C17.2359 10.6889 16.6911 10.6889 16.3582 11.0182C16.0242 11.3486 16.0241 11.8911 16.3579 12.2216C16.358 12.2216 16.3581 12.2217 16.3582 12.2218L17.7106 13.5677Z" fill="#2642CA" stroke="#2642CA" stroke-width="0.4"/>
</svg>
