<svg width="44" height="53" viewBox="0 0 44 53" fill="none" xmlns="http://www.w3.org/2000/svg">
<path d="M41.9014 53H5.56639C5.32834 52.9967 5.09341 52.9542 4.87503 52.8749C4.65666 52.7956 4.45912 52.6811 4.29372 52.5379C4.12831 52.3948 3.99829 52.2258 3.91108 52.0406C3.82386 51.8554 3.78117 51.6577 3.78545 51.4587V5.0355C3.78117 4.83651 3.82386 4.63877 3.91108 4.45359C3.99829 4.2684 4.12831 4.0994 4.29372 3.95625C4.45912 3.8131 4.65666 3.6986 4.87503 3.61931C5.09341 3.54002 5.32834 3.49748 5.56639 3.49414H41.9014C42.1393 3.49748 42.3742 3.54003 42.5925 3.61933C42.8108 3.69864 43.0082 3.81316 43.1735 3.95633C43.3388 4.0995 43.4687 4.26851 43.5557 4.45369C43.6427 4.63887 43.6852 4.83658 43.6808 5.0355V51.4613C43.6848 51.66 43.642 51.8574 43.5548 52.0423C43.4676 52.2272 43.3376 52.3959 43.1724 52.5388C43.0072 52.6817 42.8099 52.7959 42.5918 52.8751C42.3737 52.9542 42.1391 52.9967 41.9014 53Z" fill="#0068E7"/>
<path d="M40.2961 6.4707H7.7832V49.4889H40.2961V6.4707Z" fill="white"/>
<path d="M36.0546 16.2602H12.0822C11.8993 16.2602 11.7239 16.1875 11.5946 16.0582C11.4652 15.9288 11.3926 15.7534 11.3926 15.5705C11.3926 15.3876 11.4652 15.2122 11.5946 15.0829C11.7239 14.9535 11.8993 14.8809 12.0822 14.8809H36.0546C36.2375 14.8809 36.4129 14.9535 36.5423 15.0829C36.6716 15.2122 36.7443 15.3876 36.7443 15.5705C36.7443 15.7534 36.6716 15.9288 36.5423 16.0582C36.4129 16.1875 36.2375 16.2602 36.0546 16.2602Z" fill="#FFAA46"/>
<path d="M32.3676 11.224H17.2873C17.1044 11.224 16.929 11.1514 16.7997 11.0221C16.6703 10.8927 16.5977 10.7173 16.5977 10.5344C16.5977 10.3515 16.6703 10.1761 16.7997 10.0467C16.929 9.91739 17.1044 9.84473 17.2873 9.84473H32.3676C32.5505 9.84473 32.7259 9.91739 32.8553 10.0467C32.9846 10.1761 33.0573 10.3515 33.0573 10.5344C33.0573 10.7173 32.9846 10.8927 32.8553 11.0221C32.7259 11.1514 32.5505 11.224 32.3676 11.224Z" fill="#2642CA"/>
<path d="M32.6505 19.0365H15.4865C15.3036 19.0365 15.1282 18.9639 14.9989 18.8346C14.8695 18.7052 14.7969 18.5298 14.7969 18.3469C14.7969 18.164 14.8695 17.9886 14.9989 17.8592C15.1282 17.7299 15.3036 17.6572 15.4865 17.6572H32.6505C32.7411 17.6572 32.8308 17.6751 32.9144 17.7097C32.9981 17.7444 33.0741 17.7952 33.1382 17.8592C33.2022 17.9233 33.253 17.9993 33.2877 18.083C33.3223 18.1666 33.3402 18.2563 33.3402 18.3469C33.3402 18.4375 33.3223 18.5271 33.2877 18.6108C33.253 18.6945 33.2022 18.7705 33.1382 18.8346C33.0741 18.8986 32.9981 18.9494 32.9144 18.984C32.8308 19.0187 32.7411 19.0365 32.6505 19.0365Z" fill="#FFAA46"/>
<path d="M24.901 31.1391H11.6945C11.5116 31.1391 11.3362 31.0664 11.2069 30.9371C11.0775 30.8078 11.0049 30.6323 11.0049 30.4494C11.0049 30.3589 11.0227 30.2692 11.0574 30.1855C11.092 30.1018 11.1428 30.0258 11.2069 29.9618C11.2709 29.8977 11.3469 29.8469 11.4306 29.8123C11.5143 29.7776 11.604 29.7598 11.6945 29.7598H24.901C24.9916 29.7598 25.0813 29.7776 25.1649 29.8123C25.2486 29.8469 25.3246 29.8977 25.3887 29.9618C25.4527 30.0258 25.5035 30.1018 25.5382 30.1855C25.5728 30.2692 25.5907 30.3589 25.5907 30.4494C25.5907 30.6323 25.518 30.8078 25.3887 30.9371C25.2593 31.0664 25.0839 31.1391 24.901 31.1391Z" fill="#FFAA46"/>
<path d="M35.6669 28.2481H11.6945C11.5116 28.2481 11.3362 28.1754 11.2069 28.0461C11.0775 27.9168 11.0049 27.7414 11.0049 27.5584C11.0049 27.4679 11.0227 27.3783 11.0574 27.2947C11.0921 27.2111 11.1429 27.1352 11.207 27.0712C11.271 27.0073 11.3471 26.9566 11.4307 26.9221C11.5144 26.8876 11.604 26.8699 11.6945 26.8701H35.6669C35.7574 26.8699 35.8471 26.8876 35.9307 26.9221C36.0144 26.9566 36.0904 27.0073 36.1545 27.0712C36.2186 27.1352 36.2694 27.2111 36.3041 27.2947C36.3387 27.3783 36.3566 27.4679 36.3566 27.5584C36.3566 27.649 36.3387 27.7387 36.3041 27.8224C36.2694 27.906 36.2186 27.9821 36.1546 28.0461C36.0905 28.1101 36.0145 28.1609 35.9308 28.1956C35.8472 28.2303 35.7575 28.2481 35.6669 28.2481Z" fill="#FFAA46"/>
<path d="M35.6663 36.1719H14.6838C14.3029 36.1719 13.9941 36.4806 13.9941 36.8615C13.9941 37.2424 14.3029 37.5512 14.6838 37.5512H35.6663C36.0472 37.5512 36.356 37.2424 36.356 36.8615C36.356 36.4806 36.0472 36.1719 35.6663 36.1719Z" fill="#FFAA46"/>
<path d="M35.6669 40.4948H11.6945C11.5116 40.4948 11.3362 40.4222 11.2069 40.2928C11.0775 40.1635 11.0049 39.9881 11.0049 39.8051C11.0056 39.6227 11.0786 39.448 11.2078 39.3192C11.3371 39.1905 11.5121 39.1182 11.6945 39.1182H35.6669C35.7575 39.1182 35.8472 39.136 35.9308 39.1707C36.0145 39.2053 36.0905 39.2561 36.1546 39.3202C36.2186 39.3842 36.2694 39.4602 36.3041 39.5439C36.3387 39.6276 36.3566 39.7173 36.3566 39.8078C36.3559 39.9903 36.2829 40.165 36.1536 40.2938C36.0244 40.4225 35.8494 40.4948 35.6669 40.4948Z" fill="#FFAA46"/>
<path d="M35.6669 43.4906H11.6945C11.5116 43.4906 11.3362 43.418 11.2069 43.2886C11.0775 43.1593 11.0049 42.9839 11.0049 42.801C11.0049 42.6181 11.0775 42.4427 11.2069 42.3133C11.3362 42.184 11.5116 42.1113 11.6945 42.1113H35.6669C35.7575 42.1113 35.8472 42.1292 35.9308 42.1638C36.0145 42.1985 36.0905 42.2493 36.1546 42.3133C36.2186 42.3774 36.2694 42.4534 36.3041 42.5371C36.3387 42.6207 36.3566 42.7104 36.3566 42.801C36.3566 42.9839 36.2839 43.1593 36.1546 43.2886C36.0253 43.418 35.8498 43.4906 35.6669 43.4906Z" fill="#FFAA46"/>
<path d="M12.7726 36.8599C12.7726 37.0017 12.7306 37.1402 12.6518 37.2581C12.573 37.3759 12.4611 37.4677 12.3301 37.5219C12.1991 37.5761 12.055 37.5902 11.916 37.5625C11.777 37.5347 11.6493 37.4664 11.5492 37.366C11.4491 37.2657 11.3809 37.1379 11.3534 36.9989C11.326 36.8598 11.3403 36.7157 11.3948 36.5849C11.4492 36.454 11.5412 36.3422 11.6592 36.2636C11.7772 36.1851 11.9158 36.1433 12.0576 36.1436C12.2473 36.1439 12.4292 36.2195 12.5633 36.3539C12.6973 36.4882 12.7726 36.6702 12.7726 36.8599Z" fill="#2642CA"/>
<path d="M35.6677 25.5551H14.6838C14.5009 25.5551 14.3255 25.4824 14.1961 25.3531C14.0668 25.2238 13.9941 25.0484 13.9941 24.8654C13.9941 24.6825 14.0668 24.5071 14.1961 24.3778C14.3255 24.2484 14.5009 24.1758 14.6838 24.1758H35.6677C35.7582 24.1758 35.8479 24.1936 35.9316 24.2283C36.0153 24.2629 36.0913 24.3137 36.1553 24.3778C36.2194 24.4418 36.2702 24.5178 36.3048 24.6015C36.3395 24.6852 36.3573 24.7749 36.3573 24.8654C36.3573 24.956 36.3395 25.0457 36.3048 25.1294C36.2702 25.213 36.2194 25.2891 36.1553 25.3531C36.0913 25.4171 36.0153 25.4679 35.9316 25.5026C35.8479 25.5373 35.7582 25.5551 35.6677 25.5551Z" fill="#FFAA46"/>
<path d="M12.0582 25.5812C12.4538 25.5812 12.7746 25.2605 12.7746 24.8648C12.7746 24.4692 12.4538 24.1484 12.0582 24.1484C11.6625 24.1484 11.3418 24.4692 11.3418 24.8648C11.3418 25.2605 11.6625 25.5812 12.0582 25.5812Z" fill="#2642CA"/>
<path d="M34.9988 47.877H29.6192C29.3278 47.877 29.0483 47.7612 28.8423 47.5552C28.6363 47.3492 28.5205 47.0697 28.5205 46.7783C28.5205 46.487 28.6363 46.2075 28.8423 46.0015C29.0483 45.7954 29.3278 45.6797 29.6192 45.6797H34.9988C35.2901 45.6797 35.5696 45.7954 35.7756 46.0015C35.9817 46.2075 36.0974 46.487 36.0974 46.7783C36.0974 47.0697 35.9817 47.3492 35.7756 47.5552C35.5696 47.7612 35.2901 47.877 34.9988 47.877Z" fill="#2642CA"/>
<path d="M7.26349 0.0567787L1.68739 2.85418C1.48335 2.94093 1.30931 3.08575 1.18693 3.27063C1.06455 3.45552 0.999217 3.6723 0.99907 3.89402V6.50297C0.992474 8.87736 1.68408 11.2013 2.98786 13.1857C3.99295 14.7121 5.32415 16.6688 7.54149 17.7861H8.54123C11.0085 17.0337 12.8503 15.0275 13.977 13.3127C15.2808 11.3283 15.9724 9.00433 15.9658 6.62994V3.89402C15.9661 3.6729 15.9015 3.45655 15.7801 3.27173C15.6588 3.08691 15.4858 2.94174 15.2828 2.85418L8.92616 0.143655C8.64281 0.0273748 7.54683 -0.0635109 7.26349 0.0567787Z" fill="#162674"/>
<path opacity="0.3" d="M7.26349 0.0567787L1.68739 2.85418C1.48335 2.94093 1.30931 3.08575 1.18693 3.27063C1.06455 3.45552 0.999217 3.6723 0.99907 3.89402V6.50297C0.992474 8.87736 1.68408 11.2013 2.98786 13.1857C3.99295 14.7121 5.32415 16.6688 7.54149 17.7861H8.54123C11.0085 17.0337 12.8503 15.0275 13.977 13.3127C15.2808 11.3283 15.9724 9.00433 15.9658 6.62994V3.89402C15.9661 3.6729 15.9015 3.45655 15.7801 3.27173C15.6588 3.08691 15.4858 2.94174 15.2828 2.85418L8.92616 0.143655C8.64281 0.0273748 7.54683 -0.0635109 7.26349 0.0567787Z" fill="#162674"/>
<path d="M7.03961 0.14435L0.686987 2.85488C0.48309 2.94168 0.309236 3.08656 0.187079 3.27146C0.0649227 3.45636 -0.000138016 3.67311 2.19827e-07 3.89471V6.50366C0.000323618 8.91945 0.717064 11.2809 2.05957 13.2893C3.40208 15.2977 5.31005 16.8629 7.54216 17.7868C10.0094 17.0343 11.8512 15.0282 12.9766 13.3134C14.2809 11.3292 14.9726 9.00512 14.9654 6.63063V3.89471C14.9655 3.67311 14.9004 3.45636 14.7783 3.27146C14.6561 3.08656 14.4823 2.94168 14.2784 2.85488L7.93243 0.14435C7.79137 0.0839028 7.63949 0.0527344 7.48602 0.0527344C7.33255 0.0527344 7.18068 0.0839028 7.03961 0.14435Z" fill="#2642CA"/>
<path d="M14.9457 5.92676C14.9474 5.93694 14.9474 5.94732 14.9457 5.9575C14.9457 5.98156 14.9457 6.01096 14.9457 6.04705C14.9457 6.13259 14.9524 6.24753 14.9577 6.39321C14.9631 6.5389 14.9711 6.72602 14.9577 6.93986C14.9577 7.04679 14.9577 7.1604 14.947 7.28068C14.947 7.34217 14.947 7.40365 14.947 7.4678C14.947 7.53196 14.935 7.60146 14.9283 7.66427C14.9016 7.93158 14.8842 8.22563 14.8281 8.53704C14.8027 8.69208 14.7826 8.85514 14.7506 9.01954C14.7185 9.18393 14.6784 9.35368 14.641 9.52743C14.4644 10.2787 14.2188 11.012 13.9072 11.718C13.5888 12.4208 13.2086 13.094 12.7711 13.7295C12.56 14.0156 12.3702 14.2922 12.1563 14.5315C12.0534 14.6518 11.9599 14.7734 11.8596 14.8803L11.5709 15.1877C11.3918 15.3882 11.2074 15.5473 11.0537 15.6956C10.9748 15.7678 10.904 15.8373 10.8358 15.8974L10.6487 16.0485L10.3814 16.2677L10.3105 16.3238C10.2945 16.3358 10.2852 16.3412 10.2852 16.3398C10.2852 16.3385 10.2852 16.3318 10.3052 16.3171L10.372 16.257L10.63 16.0284L10.8184 15.864C10.8866 15.8039 10.9521 15.7304 11.0323 15.6582C11.1833 15.5085 11.3638 15.3481 11.5402 15.1463L11.8249 14.8362C11.9238 14.7293 12.016 14.6077 12.1162 14.4874C12.3234 14.2495 12.5172 13.9728 12.723 13.6854C13.1562 13.0512 13.5332 12.3804 13.8497 11.6806C14.1586 10.9781 14.4042 10.2495 14.5835 9.50337C14.6223 9.33095 14.6584 9.16255 14.6958 8.99949C14.7332 8.83643 14.7492 8.67337 14.776 8.51833C14.8348 8.20825 14.8548 7.91555 14.8842 7.64957C14.8922 7.58408 14.8989 7.51592 14.9056 7.45577C14.9123 7.39563 14.9056 7.33014 14.9136 7.26999C14.919 7.1497 14.9243 7.0361 14.9297 6.92917C14.9444 6.71666 14.9404 6.52821 14.9404 6.38386V6.04838V5.9575C14.9401 5.947 14.9419 5.93656 14.9457 5.92676Z" fill="#263238"/>
<path d="M9.99894 9.43263H9.3213V5.74508C9.30937 5.33563 9.13833 4.94694 8.84449 4.66154C8.55065 4.37614 8.15714 4.21649 7.74751 4.21649C7.33788 4.21649 6.94438 4.37614 6.65054 4.66154C6.3567 4.94694 6.18566 5.33563 6.17373 5.74508V9.43263H5.49609V5.74508C5.51041 5.15747 5.7539 4.59873 6.17456 4.18819C6.59523 3.77766 7.15972 3.54785 7.74751 3.54785C8.3353 3.54785 8.8998 3.77766 9.32047 4.18819C9.74113 4.59873 9.98462 5.15747 9.99894 5.74508V9.43263Z" fill="#F5F5F5"/>
<path d="M10.0053 6.93164H5.4904C5.06153 6.93164 4.71387 7.27931 4.71387 7.70818V10.9106C4.71387 11.3394 5.06153 11.6871 5.4904 11.6871H10.0053C10.4341 11.6871 10.7818 11.3394 10.7818 10.9106V7.70818C10.7818 7.27931 10.4341 6.93164 10.0053 6.93164Z" fill="white"/>
<path d="M10.0052 11.6865C10.0731 11.6793 10.1406 11.6677 10.207 11.6518C10.3689 11.605 10.5111 11.5066 10.6117 11.3714C10.7124 11.2362 10.766 11.0718 10.7643 10.9033C10.7643 10.7469 10.7643 10.5772 10.7643 10.3941C10.7643 10.0292 10.7643 9.61351 10.7643 9.15374C10.7643 8.69396 10.7643 8.19276 10.7643 7.65279C10.7543 7.51821 10.708 7.38887 10.6303 7.2785C10.5527 7.16813 10.4466 7.08086 10.3233 7.02595C10.1918 6.97182 10.0493 6.94982 9.90762 6.96179H9.45854L5.49032 6.96046C5.32352 6.9604 5.16157 7.01655 5.03062 7.11986C4.89966 7.22317 4.80735 7.3676 4.76858 7.52983C4.75124 7.61059 4.74405 7.69321 4.74719 7.77575V8.52823C4.74719 9.19651 4.74719 9.82736 4.74719 10.4355C4.75922 10.7375 4.6964 11.049 4.85144 11.2869C4.92008 11.4037 5.01906 11.4998 5.13789 11.565C5.25672 11.6302 5.39096 11.662 5.5264 11.6571H7.03002L9.20726 11.6691H9.79802H9.95172C9.9695 11.6674 9.9874 11.6674 10.0052 11.6691C9.98742 11.6711 9.96949 11.6711 9.95172 11.6691H9.79802H9.20726L7.03002 11.6798H5.5264C5.41597 11.6848 5.30569 11.667 5.20238 11.6277C5.09908 11.5883 5.00493 11.5282 4.92577 11.4511C4.8466 11.3739 4.7841 11.2813 4.74212 11.1791C4.70015 11.0768 4.67958 10.967 4.6817 10.8565V10.4355C4.6817 9.82736 4.6817 9.18982 4.6817 8.52823V7.7811C4.67769 7.69139 4.68532 7.60153 4.70442 7.51379C4.74785 7.33862 4.8491 7.18322 4.99178 7.07273C5.13564 6.95894 5.31358 6.8968 5.497 6.8963H9.45052H9.8996C10.0503 6.8848 10.2015 6.90955 10.3407 6.96847C10.4736 7.02783 10.5879 7.12227 10.6712 7.24165C10.7546 7.36102 10.8039 7.50085 10.8138 7.64611C10.8138 8.19142 10.8138 8.69129 10.8138 9.15106C10.8138 9.61084 10.8138 10.0265 10.8138 10.3914C10.8138 10.5745 10.8138 10.7442 10.8138 10.9006C10.8139 11.047 10.7732 11.1905 10.6962 11.3149C10.5914 11.4878 10.4229 11.6126 10.2271 11.6624C10.1552 11.6842 10.08 11.6924 10.0052 11.6865Z" fill="#263238"/>
<path d="M8.21341 9.43155C8.27458 9.37054 8.32308 9.29804 8.35611 9.21822C8.38915 9.13839 8.40606 9.05282 8.40587 8.96643C8.40666 8.84191 8.37264 8.71965 8.30765 8.61343C8.24265 8.50722 8.14928 8.42127 8.03805 8.36529C7.92683 8.30931 7.80217 8.28552 7.67814 8.2966C7.55411 8.30768 7.43565 8.35319 7.33611 8.428C7.23657 8.50282 7.15991 8.60395 7.11478 8.72001C7.06964 8.83606 7.05783 8.96242 7.08068 9.08482C7.10352 9.20723 7.16012 9.32082 7.24407 9.41278C7.32802 9.50475 7.436 9.57142 7.55583 9.6053L7.41282 10.2388H8.04768L7.91402 9.6053C8.02495 9.57362 8.12579 9.51376 8.20673 9.43155" fill="#162674"/>
</svg>
