<svg id="Layer_1" data-name="Layer 1" xmlns="http://www.w3.org/2000/svg" viewBox="0 0 61.00396 55.03988"><defs><style>.cls-1{fill:#0068e7;}.cls-2{fill:#0098d5;}.cls-3{fill:#2642ca;}.cls-4{fill:#03b2e8;}.cls-5{fill:#fff;}.cls-6{fill:#d0d2d3;}.cls-7{fill:#db9e46;}.cls-8{fill:#ffbe50;}.cls-9{fill:#efac4d;}</style></defs><path class="cls-1" d="M28.731,50.03832l-6.6036,1.2049a1.02125,1.02125,0,0,1-1.0238-1.0126v-1.2555a1.31583,1.31583,0,0,1,.819-1.215l6.8084-4.0096Z"/><path class="cls-2" d="M21.11433,49.03573v1.20489a1.02117,1.02117,0,0,0,1.0238,1.0125l6.6037-1.20489V48.84332l-6.6037,1.2049A1.0211,1.0211,0,0,1,21.11433,49.03573Z"/><path class="cls-1" d="M32.27353,50.03832l6.6036,1.2049a1.02124,1.02124,0,0,0,1.0238-1.0126v-1.2555a1.31579,1.31579,0,0,0-.819-1.215l-6.8084-4.0096Z"/><path class="cls-2" d="M38.87713,50.03842l-6.6036-1.2049v1.2049l6.6036,1.2049a1.02116,1.02116,0,0,0,1.0238-1.0125V49.02593a1.01468,1.01468,0,0,1-1.01682,1.01253Z"/><path class="cls-3" d="M10.10719,29.49422a1.77735,1.77735,0,0,1-1.79163-1.76295l0-.00895v-2.6022a1.79179,1.79179,0,0,1,3.58336,0v2.6022a1.7709,1.7709,0,0,1-1.76977,1.772Q10.11814,29.49435,10.10719,29.49422Z"/><path class="cls-3" d="M16.45483,25.85942a1.77735,1.77735,0,0,1-1.79162-1.763l0-.00894v-2.6022a1.7918,1.7918,0,0,1,3.58337,0v2.6022A1.78382,1.78382,0,0,1,16.45483,25.85942Z"/><path class="cls-3" d="M50.89623,29.49422a1.77736,1.77736,0,0,0,1.79165-1.763l.00005-.00893v-2.6022a1.79181,1.79181,0,0,0-3.5834,0v2.6022a1.77737,1.77737,0,0,0,1.78277,1.772Z"/><path class="cls-3" d="M44.54863,25.85942a1.77736,1.77736,0,0,0,1.79165-1.763l.00005-.00893v-2.6022a1.79181,1.79181,0,0,0-3.5834,0v2.6022A1.79041,1.79041,0,0,0,44.54863,25.85942Z"/><path class="cls-1" d="M7.83467,33.64572l20.50706-4.688V14.33692L7.21014,27.40862A2.329,2.329,0,0,0,6.002,29.57532v1.7618A2.11082,2.11082,0,0,0,7.83467,33.64572Z"/><path class="cls-2" d="M6.02251,29.24112c-.01024.1113-.02048.2227-.02048.3341V31.337a2.11077,2.11077,0,0,0,1.83264,2.3085l20.50706-4.6879v-2.42l-20.50706,4.688A2.03025,2.03025,0,0,1,6.02251,29.24112Z"/><path class="cls-1" d="M53.16933,33.64572l-20.50709-4.688V14.33692l21.13159,13.0717a2.3452,2.3452,0,0,1,1.2081,2.1769v1.7618A2.107,2.107,0,0,1,53.16933,33.64572Z"/><path class="cls-2" d="M53.16933,31.22562l-20.50709-4.688v2.42l20.50709,4.6879a2.11079,2.11079,0,0,0,1.8326-2.3085v-1.7618c0-.1114-.0102-.2228-.0205-.3341A2.02216,2.02216,0,0,1,53.16933,31.22562Z"/><path class="cls-2" d="M33.93193,47.10212l-2.2832,7.0876a1.201,1.201,0,0,1-2.2831,0l-2.2831-7.0876L24.267,10.25652c-.1536-3.50329,2.1807-6.90535,4.2386-9.28477a2.5741,2.5741,0,0,1,3.9929,0c2.0681,2.38954,4.3922,5.79161,4.2386,9.28477Z"/><path class="cls-4" d="M32.89763,47.10212l-1.5971,7.0876c-.2458,1.1036-1.3412,1.1036-1.5972,0l-1.5972-7.0876-1.9657-36.8456c-.1024-3.50329,1.5153-6.90535,2.9588-9.28477a1.49585,1.49585,0,0,1,2.7848,0c1.4436,2.38954,3.0715,5.79161,2.9589,9.28477Z"/><path class="cls-5" d="M33.28713,9.63882a1.0513,1.0513,0,0,1-.7474-.30376,2.90865,2.90865,0,0,0-4.06449,0,1.06515,1.06515,0,0,1-1.50511,0,1.03711,1.03711,0,0,1-.02185-1.46654l.02185-.02186a5.0575,5.0575,0,0,1,7.0746,0A1.03694,1.03694,0,0,1,34.06685,9.313l-.02212.02211A1.09263,1.09263,0,0,1,33.28713,9.63882Z"/><path class="cls-3" d="M41.34423,30.42572l-6.0303-1.377-1.075,13.8917a11.2649,11.2649,0,0,1-7.4739,0l-1.0647-13.8917-6.0303,1.377a11.092,11.092,0,0,1,21.6742,0Z"/><path class="cls-5" d="M30.50233,40.10552a10.21693,10.21693,0,1,0-10.3304-10.2163A10.21693,10.21693,0,0,0,30.50233,40.10552Z"/><path class="cls-6" d="M30.50233,38.40442a10.28251,10.28251,0,0,1-10.2894-9.3658c-.0205.2835-.041.567-.041.8505a10.331,10.331,0,0,0,20.6607,0,7.86132,7.86132,0,0,0-.041-.8505A10.27518,10.27518,0,0,1,30.50233,38.40442Z"/><path class="cls-7" d="M37.14723,27.87412v6.2776a1.043,1.043,0,0,1-1.0443,1.0328H24.91253a1.043,1.043,0,0,1-1.0443-1.0328v-6.2776a1.043,1.043,0,0,1,1.0443-1.0328h11.1904A1.043,1.043,0,0,1,37.14723,27.87412Z"/><path class="cls-8" d="M37.14723,26.63922v6.2777a1.04292,1.04292,0,0,1-1.0443,1.0327H24.91253a1.04294,1.04294,0,0,1-1.0443-1.0327v-6.2777a1.04294,1.04294,0,0,1,1.0443-1.0327h11.1904A1.03643,1.03643,0,0,1,37.14721,26.635Z"/><path class="cls-7" d="M37.14723,27.05432v2.106a1.043,1.043,0,0,1-1.0443,1.03281H24.91253a1.043,1.043,0,0,1-1.0443-1.03281v-2.106a1.043,1.043,0,0,1,1.0443-1.03281h11.1904a1.0365,1.0365,0,0,1,1.04428,1.02867Z"/><path class="cls-9" d="M37.14723,26.63922v2.1061a1.043,1.043,0,0,1-1.0443,1.0328H24.91253a1.043,1.043,0,0,1-1.0443-1.0328v-2.1061a1.04294,1.04294,0,0,1,1.0443-1.0327h11.1904A1.03643,1.03643,0,0,1,37.14721,26.635Z"/><path class="cls-8" d="M36.10293,25.60652H24.91253a1.04294,1.04294,0,0,0-1.0443,1.0327v.4152a1.043,1.043,0,0,1,1.0443-1.0328h11.1904a1.043,1.043,0,0,1,1.0443,1.0328v-.4152a1.03641,1.03641,0,0,0-1.0401-1.03272Z"/><path class="cls-7" d="M27.82,31.175h-.4607a.413.413,0,0,1-.41975-.40614l0-.009v-1.1543a.41288.41288,0,0,1,.41061-.41515l.00918,0H27.82a.4129.4129,0,0,1,.41975.40592l.00005.00918v1.1543a.413.413,0,0,1-.41084.41515Z"/><path class="cls-5" d="M27.82,30.77022h-.4607a.41288.41288,0,0,1-.41974-.40591l0-.00919v-1.1543a.41288.41288,0,0,1,.41061-.41515l.00918.00005H27.82a.4129.4129,0,0,1,.41975.40592l.00005.00918v1.1543A.41933.41933,0,0,1,27.82,30.77022Z"/><path class="cls-6" d="M27.82,30.35512h-.4607a.41288.41288,0,0,1-.41974-.40591l0-.00919v.4151a.41289.41289,0,0,0,.41061.41516l.00918-.00006H27.82a.41289.41289,0,0,0,.41975-.40591l.00005-.00919V29.94a.41289.41289,0,0,1-.41061.41516Z"/><path class="cls-7" d="M33.64523,31.175h-.4607a.413.413,0,0,1-.41975-.40614l-.00005-.009v-1.1543a.4129.4129,0,0,1,.41062-.41515l.00918,0h.4607a.41281.41281,0,0,1,.41965.40584l0,.00926v1.1543a.41284.41284,0,0,1-.41055.41515Z"/><path class="cls-5" d="M33.64523,30.77022h-.4607a.41288.41288,0,0,1-.41974-.40591l-.00006-.00919v-1.1543a.41289.41289,0,0,1,.41062-.41515l.00918.00005h.4607a.41281.41281,0,0,1,.41965.40584l0,.00926v1.1543A.41924.41924,0,0,1,33.64523,30.77022Z"/><path class="cls-6" d="M33.64523,30.35512h-.4607a.41288.41288,0,0,1-.41974-.40591L32.76473,29.94v.4151a.41291.41291,0,0,0,.41062.41516l.00918-.00006h.4607a.41279.41279,0,0,0,.41965-.40583l0-.00927V29.94a.4128.4128,0,0,1-.41043.41516Z"/><path class="cls-9" d="M34.04493,25.60642h-1.2491v-.972a.48882.48882,0,0,0-.4914-.486H28.721a.4888.4888,0,0,0-.4914.486v.972h-1.2491v-.972a1.72951,1.72951,0,0,1,1.73767-1.72131l.00283,0h3.5834a1.72952,1.72952,0,0,1,1.74049,1.71847l0,.00283Z"/><path class="cls-8" d="M32.29463,22.90292h-3.5834a1.72948,1.72948,0,0,0-1.74038,1.71849l0,.00271v.9721h.2764v-.8809a1.59488,1.59488,0,0,1,1.6-1.58974l.00742,0h3.3069a1.59487,1.59487,0,0,1,1.60736,1.58229l0,.00741v.8809h.2764v-.9721A1.74486,1.74486,0,0,0,32.29463,22.90292Z"/><path class="cls-7" d="M33.42083,25.60652v-.9721a1.11245,1.11245,0,0,0-1.116-1.10359h-3.5833a1.11246,1.11246,0,0,0-1.116,1.10359v.9721H28.23v-.9721a.489.489,0,0,1,.4915-.486h3.5833a.48889.48889,0,0,1,.49151.486v.9721Z"/></svg>