<svg width="47" height="47" viewBox="0 0 47 47" fill="none" xmlns="http://www.w3.org/2000/svg">
<path d="M8.01793 26.4209L2.23633 29.0449L8.96683 44.6054L14.7484 41.9813L8.01793 26.4209Z" stroke="#2642CA" stroke-width="2.5" stroke-miterlimit="10"/>
<path d="M10.5757 40.315L9.60547 38.0967" stroke="#2642CA" stroke-width="2.5" stroke-miterlimit="10"/>
<path d="M15.4273 23.2072C15.0461 22.2666 14.1452 21.6455 13.1404 21.6455H9.9873V15.5939H13.1404C14.1452 15.5939 15.0288 14.9728 15.4273 14.0322C15.8084 13.0916 15.6005 11.9913 14.8902 11.2637L12.6726 9.0099L16.8479 4.73298L19.0828 7.02229C19.7931 7.7499 20.8499 7.96286 21.7681 7.57243C22.6863 7.18201 23.2927 6.25918 23.2927 5.22988V2H29.2004V5.22988C29.2004 6.25918 29.8068 7.18201 30.725 7.57243C31.6432 7.96286 32.7 7.7499 33.4104 7.02229L35.6452 4.73298L39.8205 9.0099L37.6029 11.2815C36.8926 12.0091 36.6847 13.0916 37.0659 14.0499C37.447 14.9905 38.3479 15.6116 39.3527 15.6116H42.5058V21.6632H39.3527C38.3479 21.6632 37.447 22.2844 37.0659 23.2249C36.6847 24.1655 36.8926 25.248 37.6029 25.9757" stroke="#2642CA" stroke-width="2.5" stroke-miterlimit="10"/>
<path d="M30.1537 22.4972C31.1065 21.4856 31.6783 20.1191 31.6783 18.6107C31.6783 15.5228 29.2355 13.0205 26.221 13.0205C23.2065 13.0205 20.7637 15.5228 20.7637 18.6107C20.7637 20.1191 21.3527 21.4856 22.2882 22.4972" stroke="#2642CA" stroke-width="2.5" stroke-miterlimit="10"/>
<path d="M13.5732 39.7114H19.8621C20.2433 39.7114 20.6071 39.6937 20.9709 39.6404L30.898 38.3272C32.3013 38.132 33.6526 37.5996 34.8134 36.7655L44.4806 29.7201C44.983 29.3652 44.9657 28.6021 44.4459 28.2471C42.7481 27.1113 40.5825 27.0049 38.7807 27.9809L34.8134 30.1283C33.566 30.8026 32.18 31.1576 30.7767 31.1576H29.9798H24.3146" stroke="#2642CA" stroke-width="2.5" stroke-miterlimit="10"/>
<path d="M19.36 31.1398H24.3149H25.3544C27.9011 31.1398 29.9801 29.028 29.9801 26.4015C29.9801 25.9046 29.599 25.5142 29.1139 25.5142H16.4668C15.0635 25.5142 13.6949 25.8691 12.4475 26.5257L8.72266 28.5133" stroke="#2642CA" stroke-width="2.5" stroke-miterlimit="10"/>
</svg>
