<svg width="29" height="29" viewBox="0 0 29 29" fill="none" xmlns="http://www.w3.org/2000/svg">
<rect width="29" height="29" rx="14.5" fill="#FFEEDA"/>
<path d="M18.7487 7.36719H14.4987V12.3255L12.7279 11.263L10.957 12.3255V7.36719H10.2487C9.87297 7.36719 9.51264 7.51644 9.24696 7.78212C8.98129 8.0478 8.83203 8.40813 8.83203 8.78385V20.1172C8.83203 20.4929 8.98129 20.8532 9.24696 21.1189C9.51264 21.3846 9.87297 21.5339 10.2487 21.5339H18.7487C19.1244 21.5339 19.4848 21.3846 19.7504 21.1189C20.0161 20.8532 20.1654 20.4929 20.1654 20.1172V8.78385C20.1654 8.40813 20.0161 8.0478 19.7504 7.78212C19.4848 7.51644 19.1244 7.36719 18.7487 7.36719ZM15.9154 14.4505C16.1956 14.4505 16.4695 14.5336 16.7024 14.6893C16.9354 14.8449 17.117 15.0662 17.2242 15.3251C17.3314 15.5839 17.3595 15.8688 17.3048 16.1436C17.2501 16.4184 17.1152 16.6708 16.9171 16.8689C16.719 17.067 16.4665 17.202 16.1917 17.2566C15.9169 17.3113 15.6321 17.2832 15.3732 17.176C15.1144 17.0688 14.8931 16.8872 14.7374 16.6542C14.5818 16.4213 14.4987 16.1474 14.4987 15.8672C14.4987 15.4915 14.648 15.1311 14.9136 14.8655C15.1793 14.5998 15.5396 14.4505 15.9154 14.4505ZM18.7487 20.1172H13.082V19.4089C13.082 18.4668 14.9733 17.9922 15.9154 17.9922C16.8574 17.9922 18.7487 18.4668 18.7487 19.4089V20.1172Z" fill="#FFAA46"/>
</svg>
