<svg width="79" height="79" viewBox="0 0 79 79" fill="none" xmlns="http://www.w3.org/2000/svg">
<path opacity="0.5" d="M44.0951 73.7068C61.9836 73.7068 76.4851 59.2053 76.4851 41.3168C76.4851 23.4283 61.9836 8.92676 44.0951 8.92676C26.2066 8.92676 11.7051 23.4283 11.7051 41.3168C11.7051 59.2053 26.2066 73.7068 44.0951 73.7068Z" fill="#C5DEEA"/>
<path fill-rule="evenodd" clip-rule="evenodd" d="M27.4829 13.0615L44.1124 13.1142L44.1041 15.7475L27.4746 15.6948L27.4829 13.0615Z" fill="#23D2E2"/>
<path fill-rule="evenodd" clip-rule="evenodd" d="M59.0826 36.7617L75.7121 36.8144L75.7037 39.4477L59.0742 39.395L59.0826 36.7617Z" fill="#23D2E2"/>
<path fill-rule="evenodd" clip-rule="evenodd" d="M9.0459 20.9609H27.3739V23.5943H9.0459V20.9609Z" fill="#23D2E2"/>
<path fill-rule="evenodd" clip-rule="evenodd" d="M51.1787 47.2949H69.5067V49.9283H51.1787V47.2949Z" fill="#23D2E2"/>
<path d="M36.2085 69.7307H13.8252V28.9141H36.2085V40.0531L45.4252 41.6726V45.4514L44.1085 45.9386V50.7576L45.4252 51.3106V55.3132L36.2085 56.5509V69.7307Z" fill="white"/>
<path d="M18.9992 57.3668C17.5903 57.3668 16.458 56.2213 16.458 54.8256V51.4154C16.458 50.7703 16.9847 50.2436 17.6298 50.2436C18.6042 50.2436 19.3942 49.4536 19.3942 48.4661C19.3942 47.4918 18.6042 46.7018 17.6298 46.7018C16.9847 46.7018 16.458 46.1751 16.458 45.5299V42.1066C16.458 40.6978 17.6035 39.5654 18.9992 39.5654H45.1218C46.5307 39.5654 47.663 40.7109 47.663 42.1066V45.5299C47.663 46.1751 47.1363 46.7018 46.4912 46.7018C45.5168 46.7018 44.7268 47.4918 44.7268 48.4661C44.7268 49.4404 45.5168 50.2436 46.4912 50.2436C47.1363 50.2436 47.663 50.7703 47.663 51.4154V54.8256C47.663 56.2344 46.5175 57.3668 45.1218 57.3668H18.9992ZM18.8017 54.8256C18.8017 54.9309 18.8938 55.0231 18.9992 55.0231H45.1218C45.2272 55.0231 45.3193 54.9309 45.3193 54.8256V52.4161C43.5945 51.9026 42.37 50.2963 42.37 48.4661C42.37 46.6359 43.5945 45.0296 45.3193 44.5161V42.1066C45.3193 42.0013 45.2272 41.9091 45.1218 41.9091H18.9992C18.8938 41.9091 18.8017 42.0013 18.8017 42.1066V44.5161C20.5265 45.0296 21.751 46.6359 21.751 48.4661C21.751 50.2963 20.5265 51.9026 18.8017 52.4161V54.8256Z" fill="#7850F7"/>
<path d="M37.8007 57.3672C37.1556 57.3672 36.6289 56.8406 36.6289 56.1954V40.7246C36.6289 40.0794 37.1556 39.5527 37.8007 39.5527C38.4459 39.5527 38.9726 40.0794 38.9726 40.7246V56.1954C38.9726 56.8406 38.4459 57.3672 37.8007 57.3672Z" fill="#7850F7"/>
<path d="M23.0673 45.8593C22.4222 45.8593 21.8955 45.3326 21.8955 44.6875C21.8955 44.0423 22.4222 43.5156 23.0673 43.5156H33.4295C34.0747 43.5156 34.6013 44.0423 34.6013 44.6875C34.6013 45.3326 34.0747 45.8593 33.4295 45.8593H23.0673Z" fill="#23D2E2"/>
<path d="M25.1875 49.6386C24.5423 49.6386 24.0156 49.1119 24.0156 48.4668C24.0156 47.8216 24.5423 47.2949 25.1875 47.2949H33.4298C34.075 47.2949 34.6016 47.8216 34.6016 48.4668C34.6016 49.1119 34.075 49.6386 33.4298 49.6386H25.1875Z" fill="#23D2E2"/>
<path d="M23.0673 53.4169C22.4222 53.4169 21.8955 52.8902 21.8955 52.2451C21.8955 51.5999 22.4222 51.0732 23.0673 51.0732H33.4295C34.0747 51.0732 34.6013 51.5999 34.6013 52.2451C34.6013 52.8902 34.0747 53.4169 33.4295 53.4169H23.0673Z" fill="#23D2E2"/>
<path d="M15.5892 71.0477C13.6405 71.0477 12.0605 69.4677 12.0605 67.519V31.1263C12.0605 29.1777 13.6405 27.5977 15.5892 27.5977H33.9962C35.9449 27.5977 37.5249 29.1777 37.5249 31.1263V34.6418C37.5249 35.287 36.9982 35.8137 36.353 35.8137C35.7079 35.8137 35.1812 35.287 35.1812 34.6418V31.1263C35.1812 30.4812 34.6545 29.9413 33.9962 29.9413H15.5892C14.944 29.9413 14.4042 30.468 14.4042 31.1263V67.5058C14.4042 68.151 14.9309 68.6908 15.5892 68.6908H33.9962C34.6414 68.6908 35.1812 68.1642 35.1812 67.5058V62.3445C35.1812 61.6993 35.7079 61.1727 36.353 61.1727C36.9982 61.1727 37.5249 61.6993 37.5249 62.3445V67.5058C37.5249 69.4545 35.9449 71.0345 33.9962 71.0345H15.5892V71.0477Z" fill="#7850F7"/>
<path d="M20.7506 33.2062C19.1311 33.2062 17.8145 31.8895 17.8145 30.27V28.7822C17.8145 28.137 18.3411 27.6104 18.9863 27.6104H30.5993C31.2445 27.6104 31.7711 28.137 31.7711 28.7822V30.27C31.7711 31.8895 30.4545 33.2062 28.835 33.2062H20.7506ZM20.1581 30.27C20.1581 30.5992 20.4215 30.8625 20.7506 30.8625H28.8218C29.151 30.8625 29.4143 30.5992 29.4143 30.27V29.954H20.1581V30.27Z" fill="#7850F7"/>
<path d="M15.3654 66.7024C13.5484 66.7024 12.0605 65.2146 12.0605 63.3976V60.5009C12.0605 59.8558 12.5872 59.3291 13.2324 59.3291C13.8775 59.3291 14.4042 59.8558 14.4042 60.5009V63.3976C14.4042 63.9243 14.8387 64.3588 15.3654 64.3588H34.2332C34.7599 64.3588 35.1944 63.9243 35.1944 63.3976V62.3574C35.1944 61.7123 35.721 61.1856 36.3662 61.1856C37.0114 61.1856 37.538 61.7123 37.538 62.3574V63.3976C37.538 65.2146 36.0502 66.7024 34.2332 66.7024H15.3654Z" fill="#7850F7"/>
</svg>
