<svg id="Layer_1" data-name="Layer 1" xmlns="http://www.w3.org/2000/svg" viewBox="0 0 61.00396 55.03988"><defs><style>.cls-1{fill:#fff;}.cls-2{fill:#d0d2d3;}.cls-3{fill:#0068e7;}.cls-4{fill:#2642ca;}.cls-5{fill:#e6e7e8;}.cls-6{fill:#0098d5;}.cls-7{fill:#028fba;}.cls-8{fill:#106ea0;}.cls-9{fill:#e5a548;}.cls-10{fill:#ffbe50;}</style></defs><g id="Layer_2" data-name="Layer 2"><g id="Design"><path class="cls-1" d="M54.89662,22.17852V44.687a1.83359,1.83359,0,0,1-1.78988,1.87384H6.70354A1.77889,1.77889,0,0,1,5.03747,45.349a1.81858,1.81858,0,0,1-.11257-.662V22.17852a1.83364,1.83364,0,0,1,1.78993-1.87384H53.12924a1.70346,1.70346,0,0,1,.54036.08978A1.85687,1.85687,0,0,1,54.89662,22.17852Z"/><path class="cls-2" d="M53.77092,21.05646V43.56494A1.8336,1.8336,0,0,1,51.981,45.43878H5.57783a1.704,1.704,0,0,1-.54036-.08978,1.81858,1.81858,0,0,1-.11257-.662V22.17852a1.83364,1.83364,0,0,1,1.78993-1.87384H53.12924a1.70346,1.70346,0,0,1,.54036.08978A2.46954,2.46954,0,0,1,53.77092,21.05646Z"/><path class="cls-1" d="M52.645,19.93461V42.44308a1.8336,1.8336,0,0,1-1.78988,1.87384H4.45194a1.77887,1.77887,0,0,1-1.6661-1.21183,1.81858,1.81858,0,0,1-.11257-.662V19.93461A1.83362,1.83362,0,0,1,4.4632,18.06077H50.87763a1.70369,1.70369,0,0,1,.54036.08978A1.857,1.857,0,0,1,52.645,19.93461Z"/><path class="cls-2" d="M51.51931,18.81255V41.321a1.83367,1.83367,0,0,1-1.79,1.87384H3.3262a1.70341,1.70341,0,0,1-.54036-.08978,1.81849,1.81849,0,0,1-.11257-.662V19.93461A1.83362,1.83362,0,0,1,4.4632,18.06077H50.87763a1.70369,1.70369,0,0,1,.54036.08978A2.47318,2.47318,0,0,1,51.51931,18.81255Z"/><path class="cls-1" d="M50.3941,17.6903V40.19877a1.83367,1.83367,0,0,1-1.79,1.87384H2.201A1.8436,1.8436,0,0,1,.411,40.18753V17.6903A1.83362,1.83362,0,0,1,2.201,15.81646H48.61532a1.81753,1.81753,0,0,1,1.77927,1.855Z"/><path class="cls-3" d="M49.04306,18.83485v20.197A1.68363,1.68363,0,0,1,47.359,40.715l-.00455,0H3.45044a1.68362,1.68362,0,0,1-1.68861-1.67861l0-.00452v-20.197a1.68362,1.68362,0,0,1,1.68409-1.68314l.00453,0h43.904A1.69085,1.69085,0,0,1,49.04306,18.83485Z"/><path class="cls-1" d="M3.59723,20.56277V37.31515a1.68359,1.68359,0,0,0,1.68415,1.683l.00447,0H45.50868a1.68359,1.68359,0,0,0,1.68865-1.67854l0-.00449V20.56277a1.6836,1.6836,0,0,0-1.68417-1.683l-.00449,0H5.28585a1.6836,1.6836,0,0,0-1.68861,1.67857Z"/><path class="cls-3" d="M49.04267,18.83485v5.83462a7.53055,7.53055,0,0,1-7.54242-7.51775h5.85386A1.69082,1.69082,0,0,1,49.04267,18.83485Z"/><path class="cls-4" d="M47.35411,40.71516H41.50025a7.53057,7.53057,0,0,1,7.54242-7.51776v5.83473a1.6836,1.6836,0,0,1-1.68414,1.683Z"/><path class="cls-3" d="M1.76182,39.03212V33.1974a7.5306,7.5306,0,0,1,7.54252,7.51776H3.45044a1.6836,1.6836,0,0,1-1.68861-1.67857Z"/><path class="cls-3" d="M3.45044,17.15172H9.30431a7.5306,7.5306,0,0,1-7.54252,7.51775V18.83485A1.69084,1.69084,0,0,1,3.45044,17.15172Z"/><path class="cls-5" d="M13.80712,30.81862a1.89122,1.89122,0,1,0-.00018,0Z"/><path class="cls-5" d="M36.99782,30.81862a1.885,1.885,0,1,0-1.8912-1.88508A1.885,1.885,0,0,0,36.99782,30.81862Z"/><path class="cls-5" d="M29.20727,30.75085a3.3872,3.3872,0,0,0-1.1257-1.21184,9.032,9.032,0,0,0-2.12769-.95374,4.81969,4.81969,0,0,1-1.71115-.85281,1.285,1.285,0,0,1-.37145-.99863,1.40977,1.40977,0,0,1,.41654-1.08832,1.79466,1.79466,0,0,1,1.29461-.41516,1.59087,1.59087,0,0,1,1.26077.50484,2.17836,2.17836,0,0,1,.47287,1.52607v.61712H29.4775v-.61712a4.31846,4.31846,0,0,0-.88931-2.82758,3.45576,3.45576,0,0,0-1.97014-1.15579v-1.6494H24.59179v1.63824a3.6516,3.6516,0,0,0-1.9363.99863,3.39575,3.39575,0,0,0-.95689,2.47971,3.35973,3.35973,0,0,0,.87806,2.37878,6.31949,6.31949,0,0,0,2.713,1.46993,4.70464,4.70464,0,0,1,1.73365.88635,1.23424,1.23424,0,0,1,.37155.965,1.305,1.305,0,0,1-.47288,1.066,2.09905,2.09905,0,0,1-1.39593.43755,2.14427,2.14427,0,0,1-1.54224-.50493,1.89888,1.89888,0,0,1-.51787-1.44744v-.61711H21.2933v.61711a3.91015,3.91015,0,0,0,1.02448,2.82759A3.862,3.862,0,0,0,24.558,35.92357v1.526h2.01512V35.90107a3.76427,3.76427,0,0,0,2.00377-.98739,3.33288,3.33288,0,0,0,.97939-2.49095A3.08268,3.08268,0,0,0,29.20727,30.75085Z"/><path class="cls-6" d="M29.20727,30.04415a3.38728,3.38728,0,0,0-1.1257-1.21184,9.0282,9.0282,0,0,0-2.12769-.95374,4.82142,4.82142,0,0,1-1.71115-.85281,1.285,1.285,0,0,1-.37145-.99863,1.41012,1.41012,0,0,1,.41654-1.08842,1.795,1.795,0,0,1,1.29461-.41515,1.59084,1.59084,0,0,1,1.26077.50494,2.17832,2.17832,0,0,1,.47287,1.52606v.61712H29.4775v-.61712a4.31846,4.31846,0,0,0-.88931-2.82758,3.45576,3.45576,0,0,0-1.97014-1.15579v-1.6494H24.59179V22.56a3.65162,3.65162,0,0,0-1.9363.99864,3.39573,3.39573,0,0,0-.95689,2.4797,3.35973,3.35973,0,0,0,.87806,2.37878,6.31949,6.31949,0,0,0,2.713,1.46993,4.70466,4.70466,0,0,1,1.73365.88636,1.23423,1.23423,0,0,1,.37155.965,1.3047,1.3047,0,0,1-.47288,1.06591,2.09922,2.09922,0,0,1-1.39593.43766,2.14432,2.14432,0,0,1-1.54224-.50494,1.899,1.899,0,0,1-.51787-1.44744v-.61711H21.2933v.61711a3.91011,3.91011,0,0,0,1.02448,2.82758A3.86118,3.86118,0,0,0,24.558,35.21676v1.52607h2.01512V35.19437a3.76427,3.76427,0,0,0,2.00377-.98739,3.33288,3.33288,0,0,0,.97939-2.491A3.0825,3.0825,0,0,0,29.20727,30.04415Z"/><path class="cls-7" d="M24.59169,34.499a3.93028,3.93028,0,0,1-2.24027-1.09966,3.841,3.841,0,0,1-1.02438-2.7378v.61711a3.9105,3.9105,0,0,0,1.02438,2.82758,3.86244,3.86244,0,0,0,2.24027,1.09966Z"/><path class="cls-7" d="M23.88213,25.30918a1.65124,1.65124,0,0,0,.03384.34778,1.2917,1.2917,0,0,1,.394-.74054,1.79519,1.79519,0,0,1,1.29461-.41516,1.59122,1.59122,0,0,1,1.26086.50494,2.17785,2.17785,0,0,1,.47278,1.526v.61721H29.4996v-.70689H27.33817v-.61722a2.25279,2.25279,0,0,0-.47278-1.526,1.60711,1.60711,0,0,0-1.26087-.50494,1.79517,1.79517,0,0,0-1.29461.41515A1.40312,1.40312,0,0,0,23.88213,25.30918Z"/><path class="cls-7" d="M25.31249,29.87593a4.70253,4.70253,0,0,1,1.73365.88646,1.16346,1.16346,0,0,1,.33771.60587,1.73135,1.73135,0,0,0,.03384-.34788,1.29091,1.29091,0,0,0-.37155-.96489,4.70251,4.70251,0,0,0-1.73365-.88645,6.18248,6.18248,0,0,1-2.713-1.46993,3.20807,3.20807,0,0,1-.85557-2.01966c-.01125.11218-.01125.2356-.01125.34777A3.35974,3.35974,0,0,0,22.6107,28.406,6.199,6.199,0,0,0,25.31249,29.87593Z"/><path class="cls-7" d="M26.60631,36.02469h-2.015v.70689h2.015Z"/><path class="cls-7" d="M28.61068,33.489a3.7654,3.7654,0,0,1-2.00377.98748v.7069a3.76542,3.76542,0,0,0,2.00377-.98749,3.33257,3.33257,0,0,0,.97939-2.49095c0-.12342-.01124-.2356-.01124-.34787A3.27777,3.27777,0,0,1,28.61068,33.489Z"/><path class="cls-5" d="M9.1017,18.87974a7.54875,7.54875,0,0,1-2.02633,3.613,9.20653,9.20653,0,0,0,15.54648-3.613Z"/><path class="cls-5" d="M4.65487,17.15172H22.95946a8.06,8.06,0,0,0,.045-.90885c0-.14582,0-.29174-.01124-.43756H4.6211c-.01126.14582-.01126.29174-.01126.43756A7.92824,7.92824,0,0,0,4.65487,17.15172Z"/><path class="cls-8" d="M5.00411,18.90253A2.37716,2.37716,0,0,1,5.2968,18.88H22.6333a8.75524,8.75524,0,0,0,.33771-1.71678H4.65513A8.98679,8.98679,0,0,0,5.00411,18.90253Z"/><path class="cls-8" d="M4.65513,17.15172a9.12332,9.12332,0,0,0,2.42035,5.341,7.49893,7.49893,0,0,0,2.229-5.341Z"/><path class="cls-9" d="M13.80722,24.2998a9.16728,9.16728,0,1,0-9.19737-9.16724,9.16728,9.16728,0,0,0,9.19737,9.16724Z"/><path class="cls-10" d="M13.80722,23.08777a9.16728,9.16728,0,1,0-9.19737-9.16725,9.16729,9.16729,0,0,0,9.19737,9.16725Z"/><path class="cls-10" d="M13.80712,21.13539a7.21485,7.21485,0,1,0-7.23854-7.21477A7.21484,7.21484,0,0,0,13.80712,21.13539Z"/><path class="cls-9" d="M16.57689,15.08757a2.49158,2.49158,0,0,0-.82184-.89761,6.6572,6.6572,0,0,0-1.576-.70689,3.64574,3.64574,0,0,1-1.26087-.62837.965.965,0,0,1-.27013-.74053,1.0387,1.0387,0,0,1,.31521-.80793,1.34047,1.34047,0,0,1,.9568-.303,1.19032,1.19032,0,0,1,.93441.37027,1.636,1.636,0,0,1,.349,1.122v.44891h1.58733v-.44891a3.21515,3.21515,0,0,0-.65293-2.08694,2.58858,2.58858,0,0,0-1.45217-.8528V8.35524H13.18843V9.56705a2.66056,2.66056,0,0,0-1.42968.74056,2.52718,2.52718,0,0,0-.70926,1.82895,2.46959,2.46959,0,0,0,.64168,1.75042,4.59627,4.59627,0,0,0,2.00377,1.08841,3.691,3.691,0,0,1,1.28337.65076.89692.89692,0,0,1,.27023.70689.95989.95989,0,0,1-.349.78543,1.50858,1.50858,0,0,1-1.03573.32548,1.53053,1.53053,0,0,1-1.137-.38152,1.39009,1.39009,0,0,1-.3827-1.066v-.4488H10.75677v.4488a2.70556,2.70556,0,0,0,2.40916,2.895v1.12206h1.48591V18.86889a2.82417,2.82417,0,0,0,1.47476-.72929,2.44737,2.44737,0,0,0,.72052-1.829A2.39315,2.39315,0,0,0,16.57689,15.08757Z"/><path class="cls-1" d="M16.57689,14.56013a2.49107,2.49107,0,0,0-.82184-.8977,6.66139,6.66139,0,0,0-1.576-.7069,3.64371,3.64371,0,0,1-1.26087-.62836.965.965,0,0,1-.27013-.74054,1.03884,1.03884,0,0,1,.31521-.80792,1.34042,1.34042,0,0,1,.9568-.30288,1.19029,1.19029,0,0,1,.93441.37027,1.63566,1.63566,0,0,1,.349,1.122v.4488h1.58733v-.4488a3.21545,3.21545,0,0,0-.65293-2.087,2.58883,2.58883,0,0,0-1.45217-.85277V7.82774H13.18843V9.03956a2.66049,2.66049,0,0,0-1.42968.74056,2.527,2.527,0,0,0-.70926,1.82891,2.46959,2.46959,0,0,0,.64168,1.75042,4.59627,4.59627,0,0,0,2.00377,1.08841,3.69045,3.69045,0,0,1,1.28337.65085.89667.89667,0,0,1,.27023.7069.96.96,0,0,1-.349.78543,1.50907,1.50907,0,0,1-1.03573.32538,1.53057,1.53057,0,0,1-1.137-.38152,1.39,1.39,0,0,1-.3827-1.06592v-.4489H10.75677v.4489a2.70537,2.70537,0,0,0,2.40916,2.89487v1.12206h1.48591V18.34146a2.82506,2.82506,0,0,0,1.47476-.72939,2.44737,2.44737,0,0,0,.72052-1.82895A2.39261,2.39261,0,0,0,16.57689,14.56013Z"/><path class="cls-2" d="M13.16593,17.84766a2.89055,2.89055,0,0,1-1.65491-.80792,2.83185,2.83185,0,0,1-.75425-2.01966v.44881a2.70537,2.70537,0,0,0,2.40916,2.89486Z"/><path class="cls-2" d="M12.64807,11.07055a1.83677,1.83677,0,0,0,.02249.25809.91005.91005,0,0,1,.29273-.53858,1.3405,1.3405,0,0,1,.95689-.30289,1.19032,1.19032,0,0,1,.93441.37027,1.63566,1.63566,0,0,1,.349,1.122v.44881h1.58723v-.51619H15.20355v-.4488a1.636,1.636,0,0,0-.349-1.12206,1.19029,1.19029,0,0,0-.93441-.37027,1.34029,1.34029,0,0,0-.9569.303A.99821.99821,0,0,0,12.64807,11.07055Z"/><path class="cls-2" d="M13.7058,14.43691a3.69255,3.69255,0,0,1,1.28336.65085.84613.84613,0,0,1,.24763.44881.96021.96021,0,0,0,.0225-.2581.93728.93728,0,0,0-.27013-.70689,3.69312,3.69312,0,0,0-1.28336-.65076,4.48534,4.48534,0,0,1-2.00388-1.08841,2.40208,2.40208,0,0,1-.63033-1.49233,1.96559,1.96559,0,0,0-.01135.2581,2.4696,2.4696,0,0,0,.64168,1.75041A4.48537,4.48537,0,0,0,13.7058,14.43691Z"/><path class="cls-2" d="M14.65145,18.96982h-1.486v.51608h1.486Z"/><path class="cls-2" d="M16.13746,17.10732a2.825,2.825,0,0,1-1.47477.72939v.51609a2.8242,2.8242,0,0,0,1.47477-.72929,2.44734,2.44734,0,0,0,.72041-1.82895,1.98106,1.98106,0,0,0-.01125-.25809A2.45669,2.45669,0,0,1,16.13746,17.10732Z"/><path class="cls-10" d="M13.80682,6.70567H14.032V4.7533h-.23638V6.70567Z"/><path class="cls-10" d="M8.90993,8.60184,7.52526,7.22171c-.05629.0561-.11258.11221-.18012.16831L8.72981,8.77015C8.78609,8.714,8.85363,8.65793,8.90993,8.60184Z"/><path class="cls-10" d="M7.24429,10.86869l-1.81247-.75175c-.03377.07855-.06755.14588-.10132.22441l1.80119.75179C7.17674,11.01461,7.21051,10.93607,7.24429,10.86869Z"/><path class="cls-10" d="M11.30778,7.14319l-.743-1.80652c-.07883.03367-.14641.05611-.22514.08978l.743,1.80652C11.16137,7.1993,11.229,7.17685,11.30778,7.14319Z"/><path class="cls-10" d="M21.04567,13.88668h1.95878v-.24684H21.04567Z"/><path class="cls-10" d="M20.5057,11.18262l1.81238-.74054a1.89221,1.89221,0,0,1-.09008-.22446l-1.81237.74055A1.88591,1.88591,0,0,1,20.5057,11.18262Z"/><path class="cls-10" d="M18.98507,8.87132l1.38468-1.38014-.16881-.1683L18.81626,8.703Z"/><path class="cls-10" d="M16.73385,7.3229l.75425-1.79529a1.87941,1.87941,0,0,0-.22514-.08978l-.75425,1.7953A1.34115,1.34115,0,0,1,16.73385,7.3229Z"/><path class="cls-10" d="M10.94737,20.55182l-.75425,1.79531a1.8984,1.8984,0,0,0,.2251.08978l.75426-1.79531A1.35407,1.35407,0,0,1,10.94737,20.55182Z"/><path class="cls-10" d="M6.56864,13.63984H4.60984v.24684h1.9588Z"/><path class="cls-10" d="M16.59928,20.58537l.743,1.80655c.07883-.03374.14632-.06738.22515-.101l-.743-1.80655C16.75684,20.51808,16.67811,20.55172,16.59928,20.58537Z"/><path class="cls-10" d="M20.51675,16.63622,22.318,17.388c.03374-.07853.05624-.14592.09008-.22445l-1.80123-.75179A1.86856,1.86856,0,0,1,20.51675,16.63622Z"/><path class="cls-10" d="M18.97421,18.98116l1.38469,1.38015c.05633-.056.11257-.11218.1689-.17946L19.14312,18.8017C19.08678,18.869,19.03055,18.92512,18.97421,18.98116Z"/><path class="cls-10" d="M7.01869,16.45656l-1.81246.74054c.03377.07864.05624.14592.09007.22445L7.10874,16.681C7.08623,16.61363,7.05246,16.5351,7.01869,16.45656Z"/><path class="cls-10" d="M13.80682,21.14674h-.01124v1.95237H14.032V21.14674Z"/><path class="cls-10" d="M8.57276,18.91388,7.18809,20.294l.16887.16831,1.38467-1.38015Z"/><path class="cls-10" d="M23.00445,12.19221v-.29174a8.88132,8.88132,0,0,0-.68667-3.19783c0-.01122-.01124-.02244-.01124-.03366-.01125-.03366-.03375-.06732-.045-.101-.01125-.02245-.0226-.05611-.03384-.07854a8.90112,8.90112,0,0,0-1.85747-2.71535l-.02249-.02245-.07883-.07854-.06748-.06731a9.241,9.241,0,0,0-2.713-1.80652c-.01135-.01123-.03384-.01123-.04509-.02244-.03374-.01122-.07883-.03367-.11257-.04488a.15987.15987,0,0,0-.06758-.02245,9.11817,9.11817,0,0,0-3.2308-.662h-.23649a9.32119,9.32119,0,0,0-3.2308.58347c-.07883.03366-.14641.05611-.22514.08978A9.25006,9.25006,0,0,0,7.52552,5.516c-.05629.0561-.11257.1122-.18011.16831A9.32613,9.32613,0,0,0,5.43164,8.4109c-.03377.07856-.06754.14587-.10132.22442a8.98684,8.98684,0,0,0-.72048,3.31v.29174c0,.202.01126.404.02252.606-.01126.202-.02252.40391-.02252.60587a9.19735,9.19735,0,0,0,18.39461,0c0-.202-.01124-.40391-.02249-.60587C22.99321,12.59622,23.00445,12.39426,23.00445,12.19221Z"/><path class="cls-9" d="M13.80722,22.11123A9.16726,9.16726,0,1,0,4.60985,12.944a9.16726,9.16726,0,0,0,9.19737,9.16724Z"/><path class="cls-10" d="M13.80722,20.91074A9.16726,9.16726,0,1,0,4.60985,11.7435a9.16725,9.16725,0,0,0,9.19737,9.16724Z"/><path class="cls-10" d="M13.80712,18.95847A7.21487,7.21487,0,1,0,6.56858,11.7436,7.21487,7.21487,0,0,0,13.80712,18.95847Z"/><path class="cls-9" d="M16.57689,12.8991a2.49107,2.49107,0,0,0-.82184-.8977,6.66139,6.66139,0,0,0-1.576-.7069,3.64371,3.64371,0,0,1-1.26087-.62836.965.965,0,0,1-.27013-.74054,1.03867,1.03867,0,0,1,.31521-.80788,1.3404,1.3404,0,0,1,.9568-.303,1.19026,1.19026,0,0,1,.93441.37028,1.63581,1.63581,0,0,1,.349,1.12207v.4488h1.58733v-.4488a3.2154,3.2154,0,0,0-.65293-2.087,2.58877,2.58877,0,0,0-1.45217-.85277V6.16671H13.18843V7.37853a2.66056,2.66056,0,0,0-1.42968.74056,2.5271,2.5271,0,0,0-.70926,1.829,2.46949,2.46949,0,0,0,.64168,1.75036,4.59525,4.59525,0,0,0,2.00377,1.08842,3.69045,3.69045,0,0,1,1.28337.65085.89666.89666,0,0,1,.27023.7069.95989.95989,0,0,1-.349.78543,1.509,1.509,0,0,1-1.03573.32537,1.53052,1.53052,0,0,1-1.137-.38151,1.39,1.39,0,0,1-.3827-1.06592v-.4488H10.75677v.4488a2.70537,2.70537,0,0,0,2.40916,2.89487v1.12205h1.48591V16.68042A2.82491,2.82491,0,0,0,16.1266,15.951a2.44721,2.44721,0,0,0,.72052-1.82895A2.39258,2.39258,0,0,0,16.57689,12.8991Z"/><path class="cls-1" d="M16.57689,12.38311a2.49078,2.49078,0,0,0-.82184-.8976,6.65723,6.65723,0,0,0-1.576-.7069,3.64509,3.64509,0,0,1-1.26087-.62839.965.965,0,0,1-.27013-.74056,1.03867,1.03867,0,0,1,.31521-.80788,1.34036,1.34036,0,0,1,.9568-.30295,1.19032,1.19032,0,0,1,.93441.37027,1.63589,1.63589,0,0,1,.349,1.12207V10.24h1.58733V9.79117a3.21537,3.21537,0,0,0-.65293-2.087,2.58877,2.58877,0,0,0-1.45217-.85277V5.65079H13.18843v1.2118a2.66056,2.66056,0,0,0-1.42968.74056,2.5271,2.5271,0,0,0-.70926,1.829,2.46959,2.46959,0,0,0,.64168,1.75042,4.59731,4.59731,0,0,0,2.00377,1.08841,3.691,3.691,0,0,1,1.28337.65075.89679.89679,0,0,1,.27023.7069.95989.95989,0,0,1-.349.78543,1.50853,1.50853,0,0,1-1.03573.32538,1.5309,1.5309,0,0,1-1.137-.38142,1.3901,1.3901,0,0,1-.3827-1.066v-.4488H10.75677v.4488a2.70557,2.70557,0,0,0,2.40916,2.895v1.122h1.48591V16.16443a2.824,2.824,0,0,0,1.47476-.72929,2.44734,2.44734,0,0,0,.72052-1.829A2.39317,2.39317,0,0,0,16.57689,12.38311Z"/><path class="cls-2" d="M13.16593,15.6591a2.89047,2.89047,0,0,1-1.65491-.80782,2.83213,2.83213,0,0,1-.75425-2.01976v.4488a2.70557,2.70557,0,0,0,2.40916,2.895Z"/><path class="cls-2" d="M12.64807,8.88207a1.83623,1.83623,0,0,0,.02249.25807.90987.90987,0,0,1,.29273-.53859,1.34047,1.34047,0,0,1,.95689-.30295,1.1903,1.1903,0,0,1,.93441.37028,1.63576,1.63576,0,0,1,.349,1.122v.44882h1.58723V9.72361H15.20355V9.27479a1.6358,1.6358,0,0,0-.349-1.12206,1.1903,1.1903,0,0,0-.93441-.37028,1.34052,1.34052,0,0,0-.9569.303A1.014,1.014,0,0,0,12.64807,8.88207Z"/><path class="cls-2" d="M13.7058,12.25949a3.69483,3.69483,0,0,1,1.28336.65076.84676.84676,0,0,1,.24763.4489.96013.96013,0,0,0,.0225-.25809.93708.93708,0,0,0-.27013-.7069,3.69157,3.69157,0,0,0-1.28336-.65076A4.48534,4.48534,0,0,1,11.70192,10.655a2.40234,2.40234,0,0,1-.63033-1.49237,1.96514,1.96514,0,0,0-.01135.25807,2.46946,2.46946,0,0,0,.64168,1.75039A4.59613,4.59613,0,0,0,13.7058,12.25949Z"/><path class="cls-2" d="M14.65145,16.7924h-1.486v.51609h1.486Z"/><path class="cls-2" d="M16.13746,14.91886a2.8242,2.8242,0,0,1-1.47477.72929v.51618a2.825,2.825,0,0,0,1.47477-.72938,2.44717,2.44717,0,0,0,.72041-1.829,1.98129,1.98129,0,0,0-.01125-.2581A2.4062,2.4062,0,0,1,16.13746,14.91886Z"/><path class="cls-10" d="M13.80682,4.51749H14.032V2.57633h-.23638V4.52871a.011.011,0,0,1,.01079-.01122Z"/><path class="cls-10" d="M8.90993,6.42488,7.52526,5.04475c-.05629.0561-.11258.11221-.18012.1683L8.72981,6.59319C8.78609,6.5259,8.85363,6.481,8.90993,6.42488Z"/><path class="cls-10" d="M7.24429,8.68019,5.43182,7.92842c-.03377.07854-.06755.14587-.10132.22441l1.80122.75175A2.09336,2.09336,0,0,0,7.24429,8.68019Z"/><path class="cls-10" d="M11.30778,4.96623l-.743-1.80652c-.07883.03367-.14641.05611-.22514.08978l.743,1.80652A1.87143,1.87143,0,0,1,11.30778,4.96623Z"/><path class="cls-10" d="M21.04567,11.69871h1.95878v-.24685H21.04567Z"/><path class="cls-10" d="M20.5057,8.99455,22.31808,8.254a1.885,1.885,0,0,1-.09008-.22441l-1.81237.74056C20.44937,8.84868,20.48311,8.92727,20.5057,8.99455Z"/><path class="cls-10" d="M18.98507,6.69435l1.38468-1.38013-.16881-.1683L18.81626,6.526Z"/><path class="cls-10" d="M16.73385,5.13437l.75425-1.79529A1.88276,1.88276,0,0,0,17.263,3.2493l-.75425,1.7953A1.34082,1.34082,0,0,1,16.73385,5.13437Z"/><path class="cls-10" d="M10.94737,18.3749l-.75425,1.79521a1.8636,1.8636,0,0,0,.2251.08978l.75426-1.79531C11.09379,18.43094,11.015,18.40854,10.94737,18.3749Z"/><path class="cls-10" d="M6.56864,11.46291H4.60984v.24685h1.9588Z"/><path class="cls-10" d="M16.59928,18.3973l.743,1.80655c.07883-.03364.14632-.06738.22515-.101l-.743-1.80645A.8125.8125,0,0,1,16.59928,18.3973Z"/><path class="cls-10" d="M20.51675,14.44766l1.80123.75179c.03374-.07854.05624-.14582.09008-.22446l-1.80123-.75178A1.33233,1.33233,0,0,1,20.51675,14.44766Z"/><path class="cls-10" d="M18.97421,16.7927l1.38469,1.38014c.05633-.05613.11257-.11227.1689-.17956l-1.38468-1.38014C19.08678,16.68052,19.03055,16.73656,18.97421,16.7927Z"/><path class="cls-10" d="M7.01869,14.27915l-1.81246.74054c.03377.07853.05624.14592.09007.22445l1.81244-.74054A1.86179,1.86179,0,0,0,7.01869,14.27915Z"/><path class="cls-10" d="M13.80682,18.95827h-.01124v1.95238H14.032V18.95827Z"/><path class="cls-10" d="M8.57276,16.72541,7.18809,18.10556l.16887.16831,1.38467-1.369C8.68533,16.84884,8.629,16.7927,8.57276,16.72541Z"/><path class="cls-10" d="M23.00445,10.00419V9.71247a8.88128,8.88128,0,0,0-.68667-3.19787c0-.01122-.01124-.02245-.01124-.03366-.01125-.03367-.03375-.06733-.045-.101-.01125-.02244-.0226-.0561-.03384-.07854A8.90125,8.90125,0,0,0,20.37024,3.586l-.02249-.02244L20.26892,3.485l-.06748-.06732a9.24143,9.24143,0,0,0-2.713-1.80652C17.477,1.6,17.45456,1.6,17.44331,1.58877c-.03374-.01123-.07883-.03367-.11257-.04489a.16.16,0,0,0-.06758-.02244,9.11817,9.11817,0,0,0-3.2308-.662h-.23649a9.32119,9.32119,0,0,0-3.2308.58347c-.07883.03366-.14641.0561-.22514.08978A9.25,9.25,0,0,0,7.52552,3.328c-.05629.05609-.11257.1122-.18011.1683a9.32618,9.32618,0,0,0-1.91377,2.7266c-.03377.07855-.06754.14587-.10132.22441a8.98684,8.98684,0,0,0-.72048,3.31V10.049c0,.202.01126.404.02252.60591-.01126.202-.02252.40391-.02252.60587a9.19735,9.19735,0,0,0,18.39461,0c0-.202-.01124-.40391-.02249-.60587C22.99321,10.40815,23.00445,10.20617,23.00445,10.00419Z"/><path class="cls-9" d="M13.80722,19.9348a9.16728,9.16728,0,1,0-9.19737-9.16724,9.16728,9.16728,0,0,0,9.19737,9.16724Z"/><path class="cls-10" d="M13.80722,18.72267a9.19738,9.19738,0,1,0-.0001,0Z"/><path class="cls-10" d="M13.80712,16.7704A7.21486,7.21486,0,1,0,6.56858,9.5556,7.21485,7.21485,0,0,0,13.80712,16.7704Z"/><path class="cls-9" d="M16.57689,10.72257a2.49107,2.49107,0,0,0-.82184-.89764,6.66015,6.66015,0,0,0-1.576-.70689,3.64458,3.64458,0,0,1-1.26087-.62836.96506.96506,0,0,1-.27013-.74056,1.03864,1.03864,0,0,1,.31521-.80788,1.34036,1.34036,0,0,1,.9568-.303,1.1903,1.1903,0,0,1,.93441.37028,1.63576,1.63576,0,0,1,.349,1.12205v.44882h1.58733V8.13062a3.21536,3.21536,0,0,0-.65293-2.087,2.58877,2.58877,0,0,0-1.45217-.85277V3.99023H13.18843V5.20205a2.66049,2.66049,0,0,0-1.42968.74056,2.52708,2.52708,0,0,0-.70926,1.829A2.46959,2.46959,0,0,0,11.69117,9.522a4.59681,4.59681,0,0,0,2.00377,1.08842,3.69085,3.69085,0,0,1,1.28337.65076.89676.89676,0,0,1,.27023.70689.95989.95989,0,0,1-.349.78543,1.50853,1.50853,0,0,1-1.03573.32538,1.5309,1.5309,0,0,1-1.137-.38142,1.39022,1.39022,0,0,1-.3827-1.066v-.44881H10.75677v.4488a2.70556,2.70556,0,0,0,2.40916,2.895v1.12206h1.48591V14.5039a2.82417,2.82417,0,0,0,1.47476-.72929,2.44737,2.44737,0,0,0,.72052-1.82895A2.39321,2.39321,0,0,0,16.57689,10.72257Z"/><path class="cls-1" d="M16.57689,10.195a2.49141,2.49141,0,0,0-.82184-.89764,6.66059,6.66059,0,0,0-1.576-.7069,3.64456,3.64456,0,0,1-1.26087-.62835.96506.96506,0,0,1-.27013-.74056,1.03864,1.03864,0,0,1,.31521-.80788,1.34036,1.34036,0,0,1,.9568-.303,1.19029,1.19029,0,0,1,.93441.37027,1.6358,1.6358,0,0,1,.349,1.12206v.44882h1.58733V7.60312a3.21535,3.21535,0,0,0-.65293-2.087,2.58877,2.58877,0,0,0-1.45217-.85277V3.46273H13.18843V4.67455a2.66056,2.66056,0,0,0-1.42968.74056,2.52707,2.52707,0,0,0-.70926,1.829,2.46951,2.46951,0,0,0,.64168,1.75041,4.59651,4.59651,0,0,0,2.00377,1.0884,3.69271,3.69271,0,0,1,1.28337.65075.89694.89694,0,0,1,.27023.7069.96023.96023,0,0,1-.349.78553,1.509,1.509,0,0,1-1.03573.32537,1.53052,1.53052,0,0,1-1.137-.38151,1.3901,1.3901,0,0,1-.3827-1.066v-.4488H10.75677v.4488a2.70557,2.70557,0,0,0,2.40916,2.895v1.122h1.48591V13.97636a2.824,2.824,0,0,0,1.47476-.72929,2.44734,2.44734,0,0,0,.72052-1.829A2.39307,2.39307,0,0,0,16.57689,10.195Z"/><path class="cls-2" d="M13.16593,13.48267a2.89055,2.89055,0,0,1-1.65491-.80792,2.832,2.832,0,0,1-.75425-2.01976v.4489a2.70537,2.70537,0,0,0,2.40916,2.89487Z"/><path class="cls-2" d="M12.64807,6.70558a1.8365,1.8365,0,0,0,.02249.25808.90978.90978,0,0,1,.29273-.53858,1.3404,1.3404,0,0,1,.95689-.303,1.19033,1.19033,0,0,1,.93441.37028,1.6359,1.6359,0,0,1,.349,1.12206v.44883h1.58723V7.54713H15.20355V7.09831a1.63594,1.63594,0,0,0-.349-1.12207,1.19036,1.19036,0,0,0-.93441-.37028,1.34048,1.34048,0,0,0-.9569.303A.99834.99834,0,0,0,12.64807,6.70558Z"/><path class="cls-2" d="M13.7058,10.07194a3.69225,3.69225,0,0,1,1.28336.65083.84614.84614,0,0,1,.24763.4488.96013.96013,0,0,0,.0225-.25809.93708.93708,0,0,0-.27013-.7069A3.69308,3.69308,0,0,0,13.7058,9.5558a4.48492,4.48492,0,0,1-2.00388-1.0884,2.40224,2.40224,0,0,1-.63033-1.49234,1.96537,1.96537,0,0,0-.01135.25808,2.46958,2.46958,0,0,0,.64168,1.75036A4.48469,4.48469,0,0,0,13.7058,10.07194Z"/><path class="cls-2" d="M14.65145,14.60483h-1.486v.51608h1.486Z"/><path class="cls-2" d="M16.13746,12.74233a2.825,2.825,0,0,1-1.47477.72939v.51609a2.8242,2.8242,0,0,0,1.47477-.72929,2.44734,2.44734,0,0,0,.72041-1.829,1.98106,1.98106,0,0,0-.01125-.25809A2.45669,2.45669,0,0,1,16.13746,12.74233Z"/><path class="cls-10" d="M13.80682,2.34067H14.032V.38829h-.23638V2.34067Z"/><path class="cls-10" d="M8.90993,4.23684,7.52526,2.85675c-.05629.05611-.11258.1122-.18012.16831L8.72981,4.40514C8.78609,4.349,8.85363,4.29293,8.90993,4.23684Z"/><path class="cls-10" d="M7.24429,6.50372,5.43182,5.75193c-.03377.07854-.06755.14587-.10132.22441l1.80122.75181C7.17674,6.64958,7.21051,6.571,7.24429,6.50372Z"/><path class="cls-10" d="M11.30778,2.77819l-.743-1.80652c-.07882.03366-.14641.0561-.22514.08978l.743,1.80652A1.87143,1.87143,0,0,1,11.30778,2.77819Z"/><path class="cls-10" d="M21.04567,9.52172h1.95878V9.27486H21.04567Z"/><path class="cls-10" d="M20.5057,6.81759,22.31808,6.077a1.885,1.885,0,0,1-.09008-.22441l-1.81237.74056A1.88412,1.88412,0,0,1,20.5057,6.81759Z"/><path class="cls-10" d="M18.98507,4.50634l1.38468-1.38013-.16881-.16832L18.81626,4.338Z"/><path class="cls-10" d="M16.73385,2.94682l.75425-1.7953a1.87874,1.87874,0,0,0-.22514-.08978L16.50871,2.857C16.58754,2.89071,16.66637,2.92437,16.73385,2.94682Z"/><path class="cls-10" d="M10.94737,16.18683l-.75425,1.79531a1.8984,1.8984,0,0,0,.2251.08978l.75426-1.79531A1.35493,1.35493,0,0,1,10.94737,16.18683Z"/><path class="cls-10" d="M6.56864,9.27486H4.60984v.24686h1.9588Z"/><path class="cls-10" d="M16.59928,16.22037l.743,1.80646c.07883-.03364.14632-.06729.22515-.10093l-.743-1.80656C16.75684,16.153,16.67811,16.18673,16.59928,16.22037Z"/><path class="cls-10" d="M20.51675,12.27074l1.80123.75178c.03374-.07863.05624-.14591.09008-.22445l-1.80123-.75178A1.86989,1.86989,0,0,1,20.51675,12.27074Z"/><path class="cls-10" d="M18.97421,14.61617l1.38469,1.38015c.05633-.05614.11257-.11218.1689-.17956l-1.38468-1.38005C19.08678,14.49275,19.03055,14.56013,18.97421,14.61617Z"/><path class="cls-10" d="M7.019,12.09157l-1.80119.75179c.03378.07853.05629.14582.09006.22445l1.81245-.74064Z"/><path class="cls-10" d="M13.80682,16.78145h-.01124v1.95237H14.032V16.7702C13.95323,16.7702,13.88565,16.78145,13.80682,16.78145Z"/><path class="cls-10" d="M8.57276,14.54888,7.18809,15.929l.16887.16832L8.74163,14.7172Z"/><path class="cls-9" d="M31.49262,37.07995c0,8.67345,14.54458,17.57135,14.54458,17.57135s14.54468-8.8979,14.54468-17.57135V34.39819a7.62488,7.62488,0,0,0-14.53343-3.19785,7.62482,7.62482,0,0,0-14.53333,3.19785v2.68176Z"/><path class="cls-10" d="M52.94958,26.79026a7.62282,7.62282,0,0,0-6.91208,4.39853,7.6248,7.6248,0,0,0-14.53334,3.19785c0,8.67346,14.54468,17.57146,14.54468,17.57146s14.54458-8.898,14.54458-17.57146A7.63392,7.63392,0,0,0,52.94958,26.79026Z"/></g></g></svg>