<svg width="50" height="50" viewBox="0 0 50 50" fill="none" xmlns="http://www.w3.org/2000/svg">
<g clip-path="url(#clip0_3311_4342)">
<path d="M4.57854 7.47363C2.47327 7.47363 0.789062 9.15784 0.789062 11.2631V44.421C0.789062 46.5263 2.47327 48.2105 4.57854 48.2105H18.6838V7.47363H4.57854Z" fill="#0068E7"/>
<path d="M36.5783 11.2631V44.421C36.5783 46.5263 34.8941 48.2105 32.7889 48.2105H18.6836V7.47363H32.7889C34.8415 7.47363 36.5783 9.21047 36.5783 11.2631Z" fill="#0068E7"/>
<path d="M30.5567 12.2227H6.10824C5.83146 12.2227 5.55469 12.4562 5.55469 12.783V43.8845C5.55469 44.1647 5.78533 44.4449 6.10824 44.4449H31.1102V12.783C31.1102 12.5028 30.8335 12.2227 30.5567 12.2227Z" fill="white"/>
<path d="M12.1921 24.508L15.8936 28.1998L25.8878 19.4736L27.3685 20.8161L16.6339 30.3813L15.7086 31.0526L14.9682 30.2135L10.5264 25.8504L12.1921 24.508Z" fill="#FFBE50"/>
<path d="M18.6836 1.47368V0H18.3152C16.7889 0 15.5784 1.21053 15.5784 2.73684V4.63158C13.3679 4.78947 11.21 6.57895 11.21 9.73684H18.6836V3.47368C18.1047 3.47368 17.6836 3 17.6836 2.47368C17.6836 1.89474 18.1047 1.47368 18.6836 1.47368Z" fill="#FF3F86"/>
<path d="M26.1573 9.68421H18.6836V3.47368H18.7362C19.2625 3.42105 19.6836 3 19.6836 2.47368C19.6836 1.94737 19.2625 1.52632 18.7362 1.47368H18.6836V0H19.052C20.5783 0 21.7889 1.21053 21.7889 2.73684V4.63158C22.7889 4.73684 23.7362 5.10526 24.5257 5.78947C25.4731 6.63158 26.1573 7.94737 26.1573 9.68421Z" fill="#E2377D"/>
<path d="M34.4738 22.789L26.737 25.9469C26.4212 25.8416 25.8949 25.4732 26.2107 24.5784C26.5264 23.6837 29.9475 21.7363 29.9475 21.7363L34.4738 22.789Z" fill="#FFBE50"/>
<path d="M32.421 28.6313C32.421 28.6313 34.0526 27.6313 34.7368 27.7366C35.421 27.8418 36.7894 29.3155 36.7894 29.3155L37.421 28.684L35.9473 26.3155L33.2105 25.3682L30.4736 26.4208L32.421 28.6313Z" fill="#E7A940"/>
<path d="M26.9477 27.3157L47.9477 16.9473L48.6846 18.4209L27.2109 28.9999L27.4214 28.3157L26.6846 27.9999L26.9477 27.3157Z" fill="#0068E7"/>
<path d="M24.5264 28.4733L26.9474 27.3154L26.6843 27.9996L27.4211 28.3154L27.2106 28.9996H24.7369L24.5264 28.4733Z" fill="#FFCB57"/>
<path d="M23.5264 28.9474L24.7369 29L24.2632 28L23.5264 28.9474Z" fill="#0068E7"/>
<path d="M25.7373 26.0526L47.2636 15.4736L47.9478 16.9473L26.9478 27.3157L26.211 27.0526L26.4215 26.3157L25.7373 26.0526Z" fill="#005CCB"/>
<path d="M25.7374 26.0527L26.4216 26.3159L26.211 27.0527L26.9479 27.3159L24.5268 28.4738L24.2637 28.0001L25.7374 26.0527Z" fill="#F2B946"/>
<path d="M42.7363 36.2103L42.21 30.5261C42.1047 29.4208 41.6837 28.3156 41.0521 27.4208L39.1047 24.684C38.6837 24.1051 38.21 23.8945 37.5258 23.8945L33.6837 25.7893L35.9468 26.263C38.3679 30.2103 35.1573 31.684 33.8416 30.0524C32.5784 28.5261 30.7363 25.9998 29.8942 25.684C29.2626 25.4735 28.3152 25.8419 28.21 26.9998C28.1573 28.0524 30.21 30.8945 31.9468 34.4208L36.6837 39.5261L37.6837 42.4208L43.9995 38.4208L42.7363 36.2103Z" fill="#FFBE50"/>
<path d="M46.2539 37.074L35.6094 43.2676L39.5002 49.9545L50.1448 43.7609L46.2539 37.074Z" fill="#03B2E8"/>
</g>
<defs>
<clipPath id="clip0_3311_4342">
<rect width="50" height="50" fill="white"/>
</clipPath>
</defs>
</svg>
