<svg width="36" height="36" viewBox="0 0 36 36" fill="none" xmlns="http://www.w3.org/2000/svg">
<path d="M13.3333 33.5H4.16667C2.13167 33.5 0.5 31.8683 0.5 29.8333V4.16667C0.5 2.13167 2.13167 0.5 4.16667 0.5H29.8333C31.8683 0.5 33.5 2.13167 33.5 4.16667V13.9383C32.95 13.7183 32.345 13.59 31.74 13.59C31.0617 13.59 30.42 13.7367 29.8333 14.0117V4.16667H4.16667V29.8333H13.535L13.3333 30.035V33.5ZM7.83333 11.5H26.1667V7.83333H7.83333V11.5ZM7.83333 26.1667H17.2017L20.6667 22.72V22.5H7.83333V26.1667ZM7.83333 18.8333H24.5533L26.1667 17.22V15.1667H7.83333V18.8333ZM34.7833 19.8967L32.4367 17.55C32.0517 17.165 31.41 17.165 31.025 17.55L29.1917 19.3833L32.95 23.1417L34.7833 21.3083C35.1683 20.9233 35.1683 20.2817 34.7833 19.8967ZM17 35.3333H20.7767L31.8683 24.205L28.11 20.4467L17 31.5567V35.3333Z" fill="#FFAA46"/>
</svg>
