<svg width="43" height="40" viewBox="0 0 43 40" fill="none" xmlns="http://www.w3.org/2000/svg">
<path d="M34.625 0.875L25.25 10.25V30.875L34.625 22.4375V0.875ZM38.375 8.375V33.6875C36.3125 33.0312 34.0625 32.75 31.8125 32.75C28.625 32.75 24.0312 33.9688 21.5 35.5625V10.25C18.7812 8.1875 14.8438 7.4375 11.1875 7.4375C7.53125 7.4375 3.59375 8.1875 0.875 10.25V37.7188C0.875 38.1875 1.34375 38.6562 1.8125 38.6562C2 38.6562 2.09375 38.5625 2.28125 38.5625C4.8125 37.3438 8.46875 36.5 11.1875 36.5C14.8438 36.5 18.7812 37.25 21.5 39.3125C24.0312 37.7188 28.625 36.5 31.8125 36.5C34.9062 36.5 38.0938 37.0625 40.7188 38.4688C40.9062 38.5625 41 38.5625 41.1875 38.5625C41.6562 38.5625 42.125 38.0938 42.125 37.625V10.25C41 9.40625 39.7812 8.84375 38.375 8.375ZM17.75 33.5187C15.4062 32.9188 13.0625 32.75 11.1875 32.75C9.2 32.75 6.8375 33.1063 4.625 33.6875V12.3688C6.33125 11.6188 8.6375 11.1875 11.1875 11.1875C13.7375 11.1875 16.0437 11.6188 17.75 12.3688V33.5187Z" fill="#2642CA"/>
</svg>
