<svg width="43" height="45" viewBox="0 0 43 45" fill="none" xmlns="http://www.w3.org/2000/svg">
<path d="M4.75 38.5H19.625V42.75H4.75C2.39125 42.75 0.5 40.8587 0.5 38.5V4.5C0.5 2.1625 2.39125 0.25 4.75 0.25H30.25C32.6087 0.25 34.5 2.1625 34.5 4.5V22.6475L31.3125 20.905L30.25 21.5V4.5H19.625V21.5L14.3125 16.7188L9 21.5V4.5H4.75V38.5ZM43 32.125L31.3125 25.75L19.625 32.125L31.3125 38.5L43 32.125ZM23.875 36.5662V40.8162L31.3125 44.875L38.75 40.8162V36.5662L31.3125 40.625L23.875 36.5662Z" fill="#19CB98"/>
</svg>
