<svg xmlns="http://www.w3.org/2000/svg" xmlns:xlink="http://www.w3.org/1999/xlink" viewBox="0 0 1486.24 448.06"><defs><style>.cls-1,.cls-6{fill:#fff;}.cls-2{fill:#f7931e;}.cls-3{clip-path:url(#clip-path);}.cls-4{clip-path:url(#clip-path-2);}.cls-5{clip-path:url(#clip-path-3);}.cls-6{fill-rule:evenodd;}</style><clipPath id="clip-path"><path class="cls-1" d="M191.93,359.3c-39,1.78-75.18-8.66-107.53-31C49,303.76,25.61,270,14.93,227.82a160.7,160.7,0,0,1-4.82-45.41c1.52-41.86,16.41-78.84,44.26-109.91,22.15-24.7,49.9-41.95,82.49-51.27a173.35,173.35,0,0,1,32.51-5.9c2.68-.23,5.38-.41,8-.53a169.37,169.37,0,0,1,75.95,13.65c47.57,20.69,80.31,55.9,97.32,104.63a154.83,154.83,0,0,1,7.27,32,170.33,170.33,0,0,1-11.17,86.2l-13.38-12.2q-15.52-14.16-31.05-28.29a74.31,74.31,0,0,0-13.72-10c.38-3.49.76-7.08.9-10.81a94.13,94.13,0,0,0-3.25-27.25,96.38,96.38,0,0,0-24.15-43.43c-18-18.73-40-29.35-65.23-31.58A113.57,113.57,0,0,0,182,87.33,98.77,98.77,0,0,0,123,110c-22.56,18.33-35.1,42-37.29,70.38-2.26,29.18,6.83,55,27,76.63,17.34,18.61,39.43,29.32,65.67,31.82a96.44,96.44,0,0,0,13.32.31c3.5-.16,7.1-.51,10.74-1a75.27,75.27,0,0,0,14.82,17.66c12.86,11.51,25.82,23.39,38.35,34.87l2.94,2.7c-1.31.6-2.6,1.16-3.85,1.7a170.79,170.79,0,0,1-45,12.65C203.79,358.49,197.78,359,191.93,359.3Z"/></clipPath><clipPath id="clip-path-2"><path class="cls-1" d="M19.45,226.56C9.8,188.73,12.69,151.18,28,115c16.81-39.65,45.16-69.4,84.27-88.4A160.93,160.93,0,0,1,155.8,12.64c41.3-7,80.53.09,116.6,21.06,28.67,16.68,51.19,40.36,66.93,70.38a173.74,173.74,0,0,1,12.37,30.64c.77,2.57,1.49,5.18,2.15,7.76a169.48,169.48,0,0,1,2,77.14c-10.62,50.77-38.45,90-82.73,116.51a154,154,0,0,1-29.84,13.6,170.26,170.26,0,0,1-86.67,6.54l9.24-15.58q10.71-18.06,21.4-36.14a73.81,73.81,0,0,0,7.05-15.47c3.49-.33,7.09-.69,10.77-1.31a94.44,94.44,0,0,0,26-8.7,96.35,96.35,0,0,0,37.62-32.46c14.69-21.43,20.64-45.07,17.7-70.27a113.62,113.62,0,0,0-2.7-14.7,98.84,98.84,0,0,0-34.15-53.09c-22.52-18.37-48.26-25.86-76.48-22.25-29,3.71-52.43,17.84-69.55,42C88.85,149,82.85,172.85,85.72,199.05a94.58,94.58,0,0,0,2.4,13.11,107.4,107.4,0,0,0,3.2,10.3A75,75,0,0,0,77,240.55c-8.66,14.93-17.67,30-26.37,44.62l-2,3.44c-.84-1.17-1.66-2.32-2.44-3.43a170.63,170.63,0,0,1-21.51-41.47C22.64,238,20.89,232.23,19.45,226.56Z"/></clipPath><clipPath id="clip-path-3"><path class="cls-2" d="M310.79,356.65c-10.77,0-21-4.39-30.34-13-.33-.3-.63-.63-.94-.95a32.17,32.17,0,0,0-2.91-2.75l0,0c-.48-.52-1-1-1.47-1.54l-12.88-12.88c-11.83-11.84-24.08-24.09-36.17-36.09a46.77,46.77,0,0,1-10.75-16,13.74,13.74,0,0,0-1.12-2.2l-.57-1-.23-.25c-.06-.26-.13-.59-.19-.86l-.14-.66c-4-18,.57-32.79,13.93-45.1,6.55-6,14.61-9.55,24.64-10.73a43.23,43.23,0,0,1,5.07-.3,45.39,45.39,0,0,1,16,3l.77.55a13.46,13.46,0,0,0,2.53,1.62,47.94,47.94,0,0,1,13,9.62c13,13.07,26.3,26.32,39.14,39.13l11.4,11.39c.63.63,1.22,1.15,1.73,1.61l.41.36a49.48,49.48,0,0,1,9,11.63,44.91,44.91,0,0,1,2.2,37.63,42.69,42.69,0,0,1-26.32,25A48.76,48.76,0,0,1,310.79,356.65Z"/></clipPath></defs><title>Asset 1</title><g id="Layer_2" data-name="Layer 2"><g id="Layer_1-2" data-name="Layer 1"><path class="cls-1" d="M191.93,359.3c-39,1.78-75.18-8.66-107.53-31C49,303.76,25.61,270,14.93,227.82a160.7,160.7,0,0,1-4.82-45.41c1.52-41.86,16.41-78.84,44.26-109.91,22.15-24.7,49.9-41.95,82.49-51.27a173.35,173.35,0,0,1,32.51-5.9c2.68-.23,5.38-.41,8-.53a169.37,169.37,0,0,1,75.95,13.65c47.57,20.69,80.31,55.9,97.32,104.63a154.83,154.83,0,0,1,7.27,32,170.33,170.33,0,0,1-11.17,86.2l-13.38-12.2q-15.52-14.16-31.05-28.29a74.31,74.31,0,0,0-13.72-10c.38-3.49.76-7.08.9-10.81a94.13,94.13,0,0,0-3.25-27.25,96.38,96.38,0,0,0-24.15-43.43c-18-18.73-40-29.35-65.23-31.58A113.57,113.57,0,0,0,182,87.33,98.77,98.77,0,0,0,123,110c-22.56,18.33-35.1,42-37.29,70.38-2.26,29.18,6.83,55,27,76.63,17.34,18.61,39.43,29.32,65.67,31.82a96.44,96.44,0,0,0,13.32.31c3.5-.16,7.1-.51,10.74-1a75.27,75.27,0,0,0,14.82,17.66c12.86,11.51,25.82,23.39,38.35,34.87l2.94,2.7c-1.31.6-2.6,1.16-3.85,1.7a170.79,170.79,0,0,1-45,12.65C203.79,358.49,197.78,359,191.93,359.3Z"/><g class="cls-3"><path class="cls-1" d="M275.17,345.93a119.31,119.31,0,0,1-16.44,8.28,180.34,180.34,0,0,1-47.61,13.39c-48.1,6.48-92.48-3.5-132.41-31.11C41,310.4,16.51,274.78,5.23,230.28A170.73,170.73,0,0,1,.11,182.05Q2.54,115.52,46.93,65.83c23.74-26.49,53-44.43,87.18-54.21A182.25,182.25,0,0,1,168.5,5.37C199.27,2.69,229,7,257.34,19.28,307.59,41.14,342,78,360.11,129.79a165.07,165.07,0,0,1,7.75,34,179.65,179.65,0,0,1-16.35,101.46c-.34.72-.73,1.41-1.1,2.12-1.35-.08-2.05-1.16-2.91-1.95q-26-23.62-51.89-47.27A59.36,59.36,0,0,0,280,207.59c-.86-.39-1.85-.68-2-1.85.51-5.4,1.29-10.76,1.5-16.21a84.76,84.76,0,0,0-2.95-24.39,86.3,86.3,0,0,0-21.67-39c-16.07-16.71-35.68-26.5-58.89-28.54-24.88-2.2-47.34,4.42-66.68,20.13-20,16.28-31.62,37.45-33.62,63.39-2,26.54,6.27,49.61,24.36,69,16,17.18,36,26.46,59.3,28.68a92.8,92.8,0,0,0,25.54-1.31,7.05,7.05,0,0,1,2.38-.15c1,.17,1.37,1,1.75,1.79A62.14,62.14,0,0,0,224,298.31c16.54,14.81,32.86,29.87,49.25,44.85C274.05,343.92,275.35,344.44,275.17,345.93Z"/></g><path class="cls-1" d="M19.45,226.56C9.8,188.73,12.69,151.18,28,115c16.81-39.65,45.16-69.4,84.27-88.4A160.93,160.93,0,0,1,155.8,12.64c41.3-7,80.53.09,116.6,21.06,28.67,16.68,51.19,40.36,66.93,70.38a173.74,173.74,0,0,1,12.37,30.64c.77,2.57,1.49,5.18,2.15,7.76a169.48,169.48,0,0,1,2,77.14c-10.62,50.77-38.45,90-82.73,116.51a154,154,0,0,1-29.84,13.6,170.26,170.26,0,0,1-86.67,6.54l9.24-15.58q10.71-18.06,21.4-36.14a73.81,73.81,0,0,0,7.05-15.47c3.49-.33,7.09-.69,10.77-1.31a94.44,94.44,0,0,0,26-8.7,96.35,96.35,0,0,0,37.62-32.46c14.69-21.43,20.64-45.07,17.7-70.27a113.62,113.62,0,0,0-2.7-14.7,98.84,98.84,0,0,0-34.15-53.09c-22.52-18.37-48.26-25.86-76.48-22.25-29,3.71-52.43,17.84-69.55,42C88.85,149,82.85,172.85,85.72,199.05a94.58,94.58,0,0,0,2.4,13.11,107.4,107.4,0,0,0,3.2,10.3A75,75,0,0,0,77,240.55c-8.66,14.93-17.67,30-26.37,44.62l-2,3.44c-.84-1.17-1.66-2.32-2.44-3.43a170.63,170.63,0,0,1-21.51-41.47C22.64,238,20.89,232.23,19.45,226.56Z"/><g class="cls-4"><path class="cls-1" d="M49.42,305.36A118.63,118.63,0,0,1,38,290.93,179.87,179.87,0,0,1,15.22,247c-16.1-45.79-15.33-91.27,3.61-136,17.9-42.23,47.82-73.43,89.11-93.49a170.48,170.48,0,0,1,46.19-14.8q65.63-11.11,123.3,22.28c30.75,17.88,54.24,42.86,70.76,74.38a182.11,182.11,0,0,1,13.09,32.41c8.86,29.59,10.71,59.6,4.39,89.81-11.22,53.64-40.29,94.83-87.38,123a164.63,164.63,0,0,1-31.75,14.5,179.66,179.66,0,0,1-102.66,4.56c-.78-.19-1.54-.43-2.31-.65-.19-1.34.73-2.25,1.32-3.25q17.88-30.19,35.77-60.39a59.6,59.6,0,0,0,7.21-17.41c.21-.91.3-1.94,1.41-2.33,5.39-.6,10.79-.92,16.17-1.82a84.29,84.29,0,0,0,23.29-7.83A86.36,86.36,0,0,0,260.5,241c13.11-19.13,18.72-40.31,16-63.46-2.9-24.81-13.93-45.46-33.24-61.2-20-16.32-43.08-23.38-68.89-20.08-26.41,3.37-47.31,16.2-62.67,37.86C98.15,153.22,93.11,174.72,95.66,198a93,93,0,0,0,6.46,24.74,6.93,6.93,0,0,1,.64,2.3c0,1-.71,1.55-1.41,2.08a62.21,62.21,0,0,0-15.68,18.49c-11.15,19.2-22.58,38.24-33.94,57.32C51.16,303.85,50.92,305.23,49.42,305.36Z"/></g><path class="cls-2" d="M310.79,356.65c-10.77,0-21-4.39-30.34-13-.33-.3-.63-.63-.94-.95a32.17,32.17,0,0,0-2.91-2.75l0,0c-.48-.52-1-1-1.47-1.54l-12.88-12.88c-11.83-11.84-24.08-24.09-36.17-36.09a46.77,46.77,0,0,1-10.75-16,13.74,13.74,0,0,0-1.12-2.2l-.57-1-.23-.25c-.06-.26-.13-.59-.19-.86l-.14-.66c-4-18,.57-32.79,13.93-45.1,6.55-6,14.61-9.55,24.64-10.73a43.23,43.23,0,0,1,5.07-.3,45.39,45.39,0,0,1,16,3l.77.55a13.46,13.46,0,0,0,2.53,1.62,47.94,47.94,0,0,1,13,9.62c13,13.07,26.3,26.32,39.14,39.13l11.4,11.39c.63.63,1.22,1.15,1.73,1.61l.41.36a49.48,49.48,0,0,1,9,11.63,44.91,44.91,0,0,1,2.2,37.63,42.69,42.69,0,0,1-26.32,25A48.76,48.76,0,0,1,310.79,356.65Z"/><g class="cls-5"><path class="cls-2" d="M269.85,347.33c-.61-.64-1.19-1.29-1.82-1.91q-24.49-24.5-49-49a56.59,56.59,0,0,1-13-19.35,11.6,11.6,0,0,0-.57-1c-1.43-1.55-1.74-3.58-2.16-5.5-4.73-21.4.82-39.78,16.91-54.61,8.45-7.78,18.77-12,30.25-13.31a54.68,54.68,0,0,1,26.35,3.49,4.44,4.44,0,0,1,2.58,1.62,7.14,7.14,0,0,0,1,.69A57.92,57.92,0,0,1,296.11,220q25.22,25.3,50.53,50.51c.62.61,1.29,1.18,1.94,1.77a59.53,59.53,0,0,1,10.91,14.19c15.29,28.64,2.81,65.68-29.7,76.82C308.89,370.47,290,366,273.66,351A43.38,43.38,0,0,0,269.85,347.33Z"/></g><path class="cls-6" d="M775.51,356.48A126.12,126.12,0,0,1,650.45,246.06a127.23,127.23,0,0,1,0-31.2,126,126,0,0,1,250.13,0,128.56,128.56,0,0,1,0,31.2L899,259.11H713a69.2,69.2,0,0,0,62.49,40.06,68.27,68.27,0,0,0,48.59-20.12l4.52-4.52,40.51,40.52-4.52,4.52A125.2,125.2,0,0,1,775.51,356.48ZM838,201.81a68.75,68.75,0,0,0-125,0Z"/><path class="cls-6" d="M1067.22,357.23a127.47,127.47,0,0,1-15.6-1,126,126,0,0,1,0-250.12,129.23,129.23,0,0,1,15.6-1,126,126,0,0,1,126,126V353.42h-57.31V336.88a125.38,125.38,0,0,1-53.11,19.39A127.35,127.35,0,0,1,1067.22,357.23Zm0-194.73a69.6,69.6,0,0,0-11.34.94,68.72,68.72,0,0,0-.89,135.4l.89.14a68.72,68.72,0,0,0,23.52-135.4l-.84-.14A69.6,69.6,0,0,0,1067.22,162.5Z"/><path class="cls-6" d="M1344.62,355.27a125.43,125.43,0,0,1-53.11-19.39V448.06H1234.2V230.21a126.1,126.1,0,0,1,110.42-125,127.48,127.48,0,0,1,15.6-1,129.23,129.23,0,0,1,15.6,1,126,126,0,0,1,0,250.12,127.23,127.23,0,0,1-31.2,0Zm4.26-192.83-.84.14A68.72,68.72,0,0,0,1371.57,298l.88-.14a68.72,68.72,0,0,0-.89-135.4,68.87,68.87,0,0,0-22.68,0Z"/><path class="cls-1" d="M529.69,294.32V103.06h-57.2V298.49c0,38.17,26.28,58.63,61,58.63,19.36,0,82-.06,82-.06v-50h-59C542.48,307.06,529.69,308.22,529.69,294.32Z"/></g></g></svg>