<?xml version="1.0" encoding="utf-8"?>
<!-- Generator: Adobe Illustrator 25.2.3, SVG Export Plug-In . SVG Version: 6.00 Build 0)  -->
<svg version="1.1" id="Layer_1" xmlns="http://www.w3.org/2000/svg" xmlns:xlink="http://www.w3.org/1999/xlink" x="0px" y="0px"
	 viewBox="0 0 1605 800" style="enable-background:new 0 0 1605 800;" xml:space="preserve">
<style type="text/css">
	.st0{fill:url(#SVGID_1_);}
	.st1{fill:url(#SVGID_2_);}
	.st2{filter:url(#Adobe_OpacityMaskFilter);}
	.st3{clip-path:url(#SVGID_6_);fill:#FFFFFF;}
	.st4{clip-path:url(#SVGID_6_);mask:url(#SVGID_7_);}
	.st5{fill:#FFFFFF;}
	.st6{fill:#CE1126;}
	.st7{fill:url(#SVGID_10_);}
	.st8{fill:url(#SVGID_11_);}
	.st9{fill:url(#SVGID_12_);}
	.st10{fill:url(#SVGID_13_);}
	.st11{fill:url(#SVGID_14_);}
	.st12{fill:url(#SVGID_15_);}
	.st13{fill:url(#SVGID_16_);}
	.st14{fill:url(#SVGID_17_);}
	.st15{fill:url(#SVGID_18_);}
	.st16{fill:url(#SVGID_19_);}
	.st17{fill:url(#SVGID_20_);}
	.st18{fill:url(#SVGID_21_);}
	.st19{fill:url(#SVGID_22_);}
	.st20{fill:url(#SVGID_23_);}
	.st21{fill:url(#SVGID_24_);}
	.st22{fill:url(#SVGID_25_);}
	.st23{fill:url(#SVGID_26_);}
	.st24{fill:url(#SVGID_27_);}
	.st25{fill:url(#SVGID_28_);}
	.st26{fill:url(#SVGID_29_);}
	.st27{fill:url(#SVGID_30_);}
	.st28{fill:url(#SVGID_31_);}
	.st29{fill:url(#SVGID_32_);}
	.st30{fill:url(#SVGID_33_);}
	.st31{fill:url(#SVGID_34_);}
	.st32{fill:url(#SVGID_35_);}
	.st33{fill:url(#SVGID_36_);}
	.st34{fill:url(#SVGID_37_);}
	.st35{fill:url(#SVGID_38_);}
	.st36{fill:url(#SVGID_39_);}
	.st37{fill:url(#SVGID_40_);}
	.st38{fill:url(#SVGID_41_);}
	.st39{fill:url(#SVGID_42_);}
	.st40{fill:url(#SVGID_43_);}
	.st41{fill:url(#SVGID_44_);}
	.st42{fill:url(#SVGID_45_);}
	.st43{fill:url(#SVGID_46_);}
	.st44{fill:url(#SVGID_47_);}
	.st45{fill:url(#SVGID_48_);}
	.st46{fill:url(#SVGID_49_);}
	.st47{fill:url(#SVGID_50_);}
	.st48{fill:url(#SVGID_51_);}
	.st49{fill:url(#SVGID_52_);}
	.st50{fill:url(#SVGID_53_);}
	.st51{fill:url(#SVGID_54_);}
	.st52{fill:url(#SVGID_55_);}
	.st53{fill:url(#SVGID_56_);}
	.st54{fill:url(#SVGID_57_);}
	.st55{fill:url(#SVGID_58_);}
	.st56{fill:url(#SVGID_59_);}
	.st57{fill:url(#SVGID_60_);}
	.st58{fill:url(#SVGID_61_);}
	.st59{fill:url(#SVGID_62_);}
	.st60{fill:url(#SVGID_63_);}
	.st61{fill:url(#SVGID_64_);}
	.st62{fill:url(#SVGID_65_);}
	.st63{fill:url(#SVGID_66_);}
	.st64{fill:url(#SVGID_67_);}
	.st65{fill:url(#SVGID_68_);}
	.st66{fill:url(#SVGID_69_);}
	.st67{fill:url(#SVGID_70_);}
	.st68{fill:url(#SVGID_71_);}
	.st69{fill:url(#SVGID_72_);}
	.st70{fill:url(#SVGID_73_);}
	.st71{fill:url(#SVGID_74_);}
	.st72{fill:url(#SVGID_75_);}
	.st73{fill:url(#SVGID_76_);}
	.st74{fill:url(#SVGID_77_);}
	.st75{fill:url(#SVGID_78_);}
	.st76{fill:url(#SVGID_79_);}
	.st77{fill:url(#SVGID_80_);}
	.st78{fill:url(#SVGID_81_);}
	.st79{fill:url(#SVGID_82_);}
	.st80{fill:url(#SVGID_83_);}
	.st81{fill:url(#SVGID_84_);}
	.st82{fill:url(#SVGID_85_);}
	.st83{fill:url(#SVGID_86_);}
	.st84{fill:url(#SVGID_87_);}
	.st85{fill:url(#SVGID_88_);}
	.st86{fill-rule:evenodd;clip-rule:evenodd;fill:#0A50B8;}
	.st87{fill:#F7931E;}
	.st88{fill:#0A50B8;}
	.st89{fill:none;}
	.st90{fill-rule:evenodd;clip-rule:evenodd;fill:#FFFFFF;}
	.st91{clip-path:url(#SVGID_90_);fill:#FFFFFF;}
	.st92{clip-path:url(#SVGID_92_);fill:#FFFFFF;}
	.st93{clip-path:url(#SVGID_94_);fill:#F7931E;}
	.st94{opacity:0.77;fill:#E1E515;}
	.st95{fill:#5F65F3;}
	.st96{fill:url(#SVGID_95_);}
	.st97{fill:url(#SVGID_96_);}
	.st98{fill:url(#SVGID_97_);}
	.st99{fill:url(#SVGID_98_);}
	.st100{fill:url(#SVGID_99_);}
	.st101{fill:url(#SVGID_100_);}
	.st102{fill:url(#SVGID_101_);}
	.st103{fill:url(#SVGID_102_);}
	.st104{fill:url(#SVGID_103_);}
	.st105{fill:url(#SVGID_104_);}
	.st106{fill:url(#SVGID_105_);}
	.st107{fill:url(#SVGID_106_);}
	.st108{fill:url(#SVGID_107_);}
	.st109{fill:url(#SVGID_108_);}
	.st110{fill:url(#SVGID_109_);}
	.st111{fill:url(#SVGID_110_);}
	.st112{fill:url(#SVGID_111_);}
	.st113{fill:url(#SVGID_112_);}
	.st114{fill:url(#SVGID_113_);}
	.st115{fill:url(#SVGID_114_);}
	.st116{fill:url(#SVGID_115_);}
	.st117{fill:url(#SVGID_116_);}
	.st118{fill:url(#SVGID_117_);}
	.st119{fill:url(#SVGID_118_);}
	.st120{fill:url(#SVGID_119_);}
	.st121{fill:url(#SVGID_120_);}
	.st122{fill:url(#SVGID_121_);}
	.st123{fill:url(#SVGID_122_);}
	.st124{fill:url(#SVGID_123_);}
	.st125{fill:url(#SVGID_124_);}
	.st126{fill:url(#SVGID_125_);}
	.st127{fill:url(#SVGID_126_);}
	.st128{fill:url(#SVGID_127_);}
	.st129{fill:url(#SVGID_128_);}
	.st130{fill:url(#SVGID_129_);}
	.st131{fill:url(#SVGID_130_);}
	.st132{fill:url(#SVGID_131_);}
	.st133{fill:url(#SVGID_132_);}
	.st134{fill:url(#SVGID_133_);}
	.st135{fill:url(#SVGID_134_);}
	.st136{fill:url(#SVGID_135_);}
	.st137{fill:url(#SVGID_136_);}
	.st138{fill:url(#SVGID_137_);}
	.st139{fill:url(#SVGID_138_);}
	.st140{fill:url(#SVGID_139_);}
	.st141{fill:url(#SVGID_140_);}
	.st142{fill:url(#SVGID_141_);}
	.st143{fill:url(#SVGID_142_);}
	.st144{fill:url(#SVGID_143_);}
	.st145{fill:url(#SVGID_144_);}
</style>
<path class="st90" d="M737.3,523.9c-76.1,0-140.5-56.9-149.9-132.3c-0.8-6.2-1.1-12.4-1.1-18.7c0-6.2,0.4-12.5,1.1-18.7
	c9.3-75.4,73.8-132.3,149.9-132.3c76.1,0,140.5,56.9,149.9,132.3c0.8,6.2,1.1,12.4,1.1,18.7c0,6.2-0.4,12.5-1.1,18.7l-1.9,15.6
	H662.4c13.2,28.8,42.6,48,74.9,48c22,0,42.7-8.6,58.2-24.1l5.4-5.4l48.5,48.6l-5.4,5.4C815.5,508.1,777.6,523.9,737.3,523.9z
	 M812.2,338.5c-13.2-28.8-42.6-48-74.9-48s-61.6,19.3-74.9,48H812.2z"/>
<path class="st90" d="M1086.9,524.8c-6.2,0-12.5-0.4-18.7-1.2c-75.4-9.3-132.3-73.7-132.3-149.9c0-76.1,56.9-140.5,132.3-149.9
	c6.2-0.8,12.5-1.2,18.7-1.2c6.2,0,12.5,0.4,18.7,1.2c75.4,9.3,132.3,73.7,132.3,149.9v146.4h-68.7v-19.8
	c-19.1,12.5-40.8,20.4-63.6,23.2C1099.4,524.4,1093.1,524.8,1086.9,524.8z M1086.9,291.4c-4.5,0-9.1,0.4-13.6,1.1
	c-39.8,6.6-68.7,40.8-68.7,81.2c0,39.9,28.5,74,67.7,81l1.1,0.2c4.5,0.7,9.1,1.1,13.6,1.1c4.5,0,9.1-0.4,13.6-1.1
	c39.8-6.6,68.7-40.8,68.7-81.2c0-40-28.5-74-67.7-81.1l-1-0.2C1096,291.8,1091.4,291.4,1086.9,291.4z"/>
<path class="st90" d="M1419.3,522.4c-22.8-2.8-44.5-10.8-63.6-23.2v134.4H1287V372.5c0-76.1,56.9-140.5,132.3-149.9
	c6.2-0.8,12.5-1.2,18.7-1.2c6.2,0,12.5,0.4,18.7,1.2c75.4,9.3,132.3,73.7,132.3,149.9c0,76.1-56.9,140.5-132.3,149.9
	c-6.2,0.8-12.5,1.2-18.7,1.2S1425.5,523.2,1419.3,522.4z M1424.4,291.3l-1,0.2c-39.3,7-67.7,41.1-67.7,81.1
	c0,40.5,28.9,74.6,68.7,81.2c4.5,0.7,9.1,1.1,13.6,1.1c4.5,0,9.1-0.4,13.6-1.1l1.1-0.2c39.2-7,67.7-41.1,67.7-81
	c0-40.5-28.9-74.6-68.7-81.2c-4.5-0.7-9.1-1.1-13.6-1.1C1433.5,290.2,1428.9,290.6,1424.4,291.3z"/>
<path class="st5" d="M435.6,449.3l0-227.3h-68l0,232.3c0,45.4,31.2,69.7,72.6,69.7c23,0,97.4-0.1,97.4-0.1l0-59.4c0,0-66.6,0-70.1,0
	C450.9,464.5,435.6,465.8,435.6,449.3z"/>
<g>
	<g>
		<path class="st5" d="M161.6,280.5c51.6,0,93.6,42,93.6,93.6c0,51.6-42,93.6-93.6,93.6S68,425.7,68,374.1
			C68,322.5,110,280.5,161.6,280.5 M161.6,222.5C77.9,222.5,10,290.4,10,374.1c0,83.7,67.9,151.6,151.6,151.6
			s151.6-67.9,151.6-151.6C313.2,290.4,245.3,222.5,161.6,222.5L161.6,222.5z"/>
	</g>
</g>
<path class="st87" d="M248.6,509.9L184,452c-14-12.5-15.3-33.9-2.9-48l0,0c12.5-14,33.9-15.3,48-2.9l64.5,57.9
	c14,12.5,15.3,33.9,2.9,48l0,0C284.1,521,262.6,522.3,248.6,509.9z"/>
</svg>
