<?xml version="1.0" encoding="utf-8"?>
<!-- Generator: Adobe Illustrator 23.1.0, SVG Export Plug-In . SVG Version: 6.00 Build 0)  -->
<svg version="1.1" id="Layer_1" xmlns="http://www.w3.org/2000/svg" xmlns:xlink="http://www.w3.org/1999/xlink" x="0px" y="0px"
	 viewBox="0 0 40.7 40.6" style="enable-background:new 0 0 40.7 40.6;" xml:space="preserve">
<style type="text/css">
	.st0{fill:#FFFFFF;}
	.st1{fill:#2956A6;}
	.st2{fill:#F79421;}
	.st3{clip-path:url(#SVGID_2_);}
</style>
<title>Asset 1</title>
<rect x="0" y="0" class="st0" width="40.6" height="40.6"/>
<g>
	<g id="Layer_2-2">
		<path class="st1" d="M20,9.4c5.9,0,10.7,4.8,10.6,10.7S25.9,30.7,20,30.7c-5.9,0-10.6-4.8-10.6-10.6C9.3,14.2,14.1,9.4,20,9.4
			C20,9.4,20,9.4,20,9.4 M20,1.8C9.9,1.8,1.8,10,1.8,20.1S9.9,38.3,20,38.3s18.2-8.2,18.2-18.2S30.1,1.8,20,1.8z"/>
		<path class="st2" d="M33.1,37.8c-1.2,0-2.3-0.5-3.2-1.3l-0.1-0.1c-0.1-0.1-0.2-0.2-0.3-0.3l0,0c0-0.1-0.1-0.1-0.2-0.2L28,34.6
			l-3.8-3.8c-0.5-0.5-0.9-1-1.1-1.6c0-0.1-0.1-0.2-0.1-0.2L23,28.9l0,0c0,0,0-0.1,0-0.1v-0.1c-0.5-1.7,0.1-3.5,1.4-4.7
			c0.7-0.7,1.6-1.1,2.5-1.2c0.2,0,0.3,0,0.5,0c0.6,0,1.1,0.1,1.7,0.3l0.1,0.1c0.1,0.1,0.2,0.1,0.3,0.2c0.5,0.3,1,0.6,1.3,1l4.1,4.1
			l1.2,1.2l0.2,0.2l0,0c0.4,0.4,0.7,0.8,0.9,1.2c0.6,1.2,0.7,2.6,0.2,3.9c-0.5,1.2-1.5,2.2-2.7,2.6C34.2,37.7,33.6,37.8,33.1,37.8z"
			/>
		<g>
			<defs>
				<path id="SVGID_1_" d="M33.1,37.8c-1.2,0-2.3-0.5-3.2-1.3l-0.1-0.1c-0.1-0.1-0.2-0.2-0.3-0.3l0,0c0-0.1-0.1-0.1-0.2-0.2L28,34.6
					l-3.8-3.8c-0.5-0.5-0.9-1-1.1-1.6c0-0.1-0.1-0.2-0.1-0.2L23,28.9l0,0c0,0,0-0.1,0-0.1v-0.1c-0.5-1.7,0.1-3.5,1.4-4.7
					c0.7-0.7,1.6-1.1,2.5-1.2c0.2,0,0.3,0,0.5,0c0.6,0,1.1,0.1,1.7,0.3l0.1,0.1c0.1,0.1,0.2,0.1,0.3,0.2c0.5,0.3,1,0.6,1.3,1
					l4.1,4.1l1.2,1.2l0.2,0.2l0,0c0.4,0.4,0.7,0.8,0.9,1.2c0.6,1.2,0.7,2.6,0.2,3.9c-0.5,1.2-1.5,2.2-2.7,2.6
					C34.2,37.7,33.6,37.8,33.1,37.8z"/>
			</defs>
			<clipPath id="SVGID_2_">
				<use xlink:href="#SVGID_1_"  style="overflow:visible;"/>
			</clipPath>
			<g class="st3">
				<path class="st2" d="M28.8,36.9l-0.2-0.2c-1.7-1.7-3.4-3.4-5.1-5.1c-0.6-0.6-1-1.3-1.3-2c0,0,0-0.1-0.1-0.1
					c-0.1-0.2-0.2-0.4-0.2-0.6c-0.6-2.1,0.1-4.3,1.7-5.7c0.9-0.8,2-1.3,3.1-1.4c0.9-0.1,1.9,0,2.7,0.4c0.1,0,0.2,0.1,0.3,0.2
					l0.1,0.1c0.6,0.3,1.2,0.7,1.6,1.2l5.3,5.2l0.2,0.2c0.4,0.4,0.8,0.9,1.1,1.5c1.5,2.7,0.5,6.1-2.2,7.6c-0.3,0.1-0.6,0.3-0.9,0.4
					c-2,0.8-4.3,0.3-5.8-1.3C29.1,37.1,29,37,28.8,36.9z"/>
			</g>
		</g>
	</g>
</g>
</svg>
