<svg id="Layer_1" data-name="Layer 1" xmlns="http://www.w3.org/2000/svg" viewBox="0 0 108 54"><defs><style>.cls-1,.cls-2{fill:#2554a2;}.cls-1{fill-rule:evenodd;}.cls-3{fill:#f39323;}</style></defs><path class="cls-1" d="M49.7908,37.75527A10.329,10.329,0,0,1,39.548,28.71191a10.45076,10.45076,0,0,1,0-2.55525,10.32224,10.32224,0,0,1,20.48545,0,10.45209,10.45209,0,0,1,0,2.55525l-.13221,1.06879H44.67366a5.667,5.667,0,0,0,5.11746,3.28109,5.59181,5.59181,0,0,0,3.97933-1.64794l.37032-.37,3.31771,3.3186-.36983.37A10.25335,10.25335,0,0,1,49.7908,37.75527Zm5.118-12.66741a5.63116,5.63116,0,0,0-10.23533,0Z"/><path class="cls-1" d="M73.682,37.81686a10.46308,10.46308,0,0,1-1.27787-.07886,10.32176,10.32176,0,0,1,0-20.48454,10.40339,10.40339,0,0,1,2.55574.00016,10.32784,10.32784,0,0,1,9.043,10.24217v10.0089H79.30947V36.15036A10.26271,10.26271,0,0,1,74.95991,37.738,10.4632,10.4632,0,0,1,73.682,37.81686Zm0-15.9485a5.68665,5.68665,0,0,0-.92907.07674,5.62849,5.62849,0,0,0-.07286,11.0895l.0727.01191a5.665,5.665,0,0,0,1.85822,0,5.6284,5.6284,0,0,0,.06862-11.09013l-.06878-.0114A5.69691,5.69691,0,0,0,73.682,21.86836Z"/><path class="cls-1" d="M96.40106,37.6561a10.26284,10.26284,0,0,1-4.34956-1.58764v9.18773H87.358V27.41389a10.32784,10.32784,0,0,1,9.043-10.24217,10.40339,10.40339,0,0,1,2.55574-.00016,10.32176,10.32176,0,0,1,0,20.48454,10.39292,10.39292,0,0,1-2.55574,0Zm.349-15.793-.06878.0114a5.6284,5.6284,0,0,0,.06862,11.09013,5.66576,5.66576,0,0,0,1.85822,0l.0727-.01191A5.62849,5.62849,0,0,0,98.608,21.8632a5.66528,5.66528,0,0,0-1.8579-.00012Z"/><path class="cls-2" d="M29.17555,32.6608l0-15.53767h-4.6471v15.876c0,3.101,2.13545,4.76312,4.959,4.76312,1.57266,0,6.6579-.00445,6.6579-.00445V33.69584H31.35228C30.21493,33.69584,29.17555,33.79007,29.17555,32.6608Z"/><path class="cls-2" d="M10.35407,17.17578a10.354,10.354,0,1,0,10.354,10.354,10.35391,10.35391,0,0,0-10.354-10.354Zm0,16.71a6.356,6.356,0,1,1,6.356-6.356,6.35606,6.35606,0,0,1-6.356,6.356Z"/><path class="cls-3" d="M16.32908,36.79234l-4.41157-3.95382a2.32181,2.32181,0,0,1-.19621-3.27768h0a2.32181,2.32181,0,0,1,3.27768-.19621l4.41157,3.95382a2.32182,2.32182,0,0,1,.19621,3.27768h0A2.32181,2.32181,0,0,1,16.32908,36.79234Z"/></svg>