<svg id="Layer_1" data-name="Layer 1" xmlns="http://www.w3.org/2000/svg" xmlns:xlink="http://www.w3.org/1999/xlink" viewBox="0 0 1116.11214 196"><defs><style>.cls-1{opacity:0.2;isolation:isolate;fill:url(#linear-gradient);}.cls-2{fill:#fff;}.cls-3{fill:#97a9ff;}.cls-4{fill:url(#linear-gradient-2);}.cls-5{mask:url(#mask);}.cls-6{mask:url(#mask-2);}.cls-7{mask:url(#mask-3);}.cls-8{mask:url(#mask-4);}.cls-9{mask:url(#mask-5);}</style><linearGradient id="linear-gradient" x1="-326.2207" y1="2573.60899" x2="303.0013" y2="1937.63164" gradientTransform="matrix(1, 0, 0, -1, 564, 2347.83704)" gradientUnits="userSpaceOnUse"><stop offset="0" stop-color="#adbbff"/><stop offset="1" stop-color="#3c5dff"/></linearGradient><linearGradient id="linear-gradient-2" x1="-346.2536" y1="2575.60899" x2="282.9684" y2="1939.63164" gradientTransform="translate(532.19138 2349.83704) rotate(180)" xlink:href="#linear-gradient"/><mask id="mask" x="0.11214" y="0" width="1116" height="196" maskUnits="userSpaceOnUse"><g id="mask0_0_1" data-name="mask0 0 1"><rect class="cls-1" x="0.11214" width="1116" height="196" rx="9"/></g></mask><mask id="mask-2" x="868.60811" y="-6.66002" width="404.25403" height="410.22301" maskUnits="userSpaceOnUse"><g id="mask1_0_1" data-name="mask1 0 1"><path class="cls-2" d="M1070.35213,308.255c64.53,0,116.76-53.083,116.76-118.496,0-65.483-52.30005-118.4963-116.76-118.4963-64.52,0-116.758,53.0833-116.758,118.4963C953.52614,255.172,1005.83211,308.255,1070.35213,308.255Z"/></g></mask><mask id="mask-3" x="451.32915" y="-268.867" width="594.30301" height="603.039" maskUnits="userSpaceOnUse"><g id="mask2_0_1" data-name="mask2 0 1"><path class="cls-2" d="M747.87514,194.081c94.794,0,171.673-78.022,171.673-174.22659,0-96.2042-76.879-174.22639-171.673-174.22639S576.20217-76.3498,576.20217,19.8544C576.20217,116.059,653.08114,194.081,747.87514,194.081Z"/></g></mask><mask id="mask-4" x="310.13515" y="-18.8804" width="244.70099" height="284.09241" maskUnits="userSpaceOnUse"><g id="mask3_0_1" data-name="mask3 0 1"><path class="cls-2" d="M498.97213,196.735c42.923-37.035,48.216-102.248,11.917-145.662a100.64514,100.64514,0,0,0-143.43-11.6273c-42.923,37.0347-48.216,102.24729-11.917,145.66129A100.60709,100.60709,0,0,0,498.97213,196.735Z"/></g></mask><mask id="mask-5" x="-25.11005" y="-8.47297" width="328.50119" height="414.77497" maskUnits="userSpaceOnUse"><g id="mask4_0_1" data-name="mask4 0 1"><path class="cls-2" d="M221.20014,305.669c63.061-54.409,70.907-150.318,17.521-214.16791A148.00521,148.00521,0,0,0,27.83544,74.4053c-63.0609,54.4097-70.9075,150.3187-17.5216,214.1677A148.00534,148.00534,0,0,0,221.20014,305.669Z"/></g></mask></defs><path class="cls-3" d="M.11214,6.82641A6.82641,6.82641,0,0,1,6.93855,0H1109.28219a6.82958,6.82958,0,0,1,6.83,6.82641V189.174a6.82931,6.82931,0,0,1-6.83,6.826H6.93856a6.82615,6.82615,0,0,1-6.82642-6.826Z"/><rect class="cls-4" x="0.11214" width="1116" height="196" rx="9"/><g class="cls-5"><g class="cls-6"><path class="cls-2" d="M1081.58211-6.66l-212.974,216.146,1.942,1.971L1083.53219-4.68968Z"/><path class="cls-2" d="M1091.0721,2.94356,878.08913,219.09l1.941,1.97,212.982-216.1461Z"/><path class="cls-2" d="M1100.53219,12.5363,887.55513,228.683l1.942,1.97,212.975-216.1463Z"/><path class="cls-2" d="M1110.02218,22.1613,897.04415,238.308l1.941,1.97,212.977-216.1464Z"/><path class="cls-2" d="M1119.49215,31.757l-212.974,216.146,1.942,1.971L1121.4421,33.7274Z"/><path class="cls-2" d="M1128.9222,41.4103,915.94613,257.557l1.941,1.97,212.975-216.14641Z"/><path class="cls-2" d="M1138.34212,50.9582l-212.98,216.1458,1.941,1.971L1140.28219,52.9285Z"/><path class="cls-2" d="M1147.8221,60.5919,934.84212,276.738l1.942,1.971,212.978-216.14671Z"/><path class="cls-2" d="M1157.30208,70.177,944.32515,286.323l1.941,1.971,212.976-216.14671Z"/><path class="cls-2" d="M1166.77218,79.7922,953.79616,295.938l1.941,1.971,212.975-216.1465Z"/><path class="cls-2" d="M1176.25216,89.3751,963.27016,305.521l1.942,1.971,212.98-216.1465Z"/><path class="cls-2" d="M1185.74215,99.01l-212.974,216.146,1.942,1.971L1187.6921,100.98Z"/><path class="cls-2" d="M1195.21212,108.603l-212.975,216.146,1.941,1.97,212.98407-216.146Z"/><path class="cls-2" d="M1204.6921,118.216l-212.978,216.146,1.941,1.971,212.977-216.147Z"/><path class="cls-2" d="M1214.09212,127.849l-212.97,216.146,1.94,1.97,212.98-216.146Z"/><path class="cls-2" d="M1223.53219,137.434l-212.98,216.146,1.94,1.97,212.98-216.146Z"/><path class="cls-2" d="M1233.01217,147.029l-212.98,216.146,1.95,1.97,212.97-216.146Z"/><path class="cls-2" d="M1242.50216,156.63l-212.98,216.146,1.93994,1.971,212.98-216.147Z"/><path class="cls-2" d="M1251.96212,166.221l-212.98,216.146,1.94006,1.971,212.98-216.147Z"/><path class="cls-2" d="M1261.43209,175.858l-212.98,216.146,1.95007,1.97,212.97-216.146Z"/><path class="cls-2" d="M1270.91219,185.446,1057.9421,401.593l1.94006,1.97,212.98-216.146Z"/></g><g class="cls-7"><path class="cls-2" d="M764.43416-268.867,451.32915,48.8057l2.912,2.9559L767.34615-265.911Z"/><path class="cls-2" d="M778.27517-254.777,465.21413,62.9404l2.912,2.9555,313.061-317.7169Z"/><path class="cls-2" d="M792.23116-240.622,479.12615,77.0508l2.911,2.9559,313.106-317.6727Z"/><path class="cls-2" d="M806.16115-226.536,493.10015,91.1816l2.912,2.9556L809.07412-223.58Z"/><path class="cls-2" d="M820.04415-212.379l-313.061,317.718,2.912,2.955,313.061-317.717Z"/><path class="cls-2" d="M833.94313-198.312l-313.061,317.717,2.912,2.956,313.061-317.718Z"/><path class="cls-2" d="M847.89412-184.17l-313.061,317.717,2.912,2.955,313.061-317.717Z"/><path class="cls-2" d="M861.83114-170.047,548.77016,147.67l2.912,2.955,313.062-317.717Z"/><path class="cls-2" d="M875.68111-155.95l-313.061,317.718,2.912,2.955,313.061-317.717Z"/><path class="cls-2" d="M889.60115-141.827l-313.061,317.718,2.91205,2.955,313.061-317.717Z"/><path class="cls-2" d="M903.57216-127.683l-313.062,317.717,2.913,2.956,313.061-317.718Z"/><path class="cls-2" d="M917.39217-113.59l-313.061,317.717,2.912,2.955,313.061-317.717Z"/><path class="cls-2" d="M931.35115-99.4488,618.29012,218.269l2.91205,2.955,313.061-317.7173Z"/><path class="cls-2" d="M945.29415-85.3463,632.23311,232.371l2.91205,2.956,313.061-317.7178Z"/><path class="cls-2" d="M959.23812-71.2008,646.17617,246.517l2.913,2.955,313.061-317.7173Z"/><path class="cls-2" d="M973.07015-57.0777,660.00814,260.64l2.913,2.955,313.061-317.7172Z"/><path class="cls-2" d="M987.04812-42.9087,673.94216,274.764l2.912,2.956,313.105-317.6728Z"/><path class="cls-2" d="M1000.94216-28.8316,687.88515,288.886l2.913,2.955,313.064-317.7171Z"/><path class="cls-2" d="M1014.80214-14.7125,701.73714,303.005l2.912,2.955,313.063-317.717Z"/><path class="cls-2" d="M1028.73214-.5914,715.67415,317.126l2.913,2.955L1031.65218,2.36411Z"/><path class="cls-2" d="M1042.71212,13.5434,729.61013,331.216l2.912,2.956L1045.63216,16.4993Z"/></g><g class="cls-8"><path class="cls-2" d="M331.57213-18.8804l-21.437,265.7014,2.356.193,21.437-265.70141Z"/><path class="cls-2" d="M343.19915-17.929l-21.437,265.701,2.356.193,21.437-265.701Z"/><path class="cls-2" d="M354.82415-16.9857l-21.437,265.7017,2.356.193,21.437-265.7017Z"/><path class="cls-2" d="M366.48815-16.02l-21.437,265.702,2.356.193,21.437-265.702Z"/><path class="cls-2" d="M378.10115-15.0775,356.66515,250.624l2.356.193,21.436-265.7015Z"/><path class="cls-2" d="M389.73815-14.064l-21.437,265.702,2.356.193,21.437-265.70189Z"/><path class="cls-2" d="M401.31813-13.1292,379.88213,252.572l2.355.193,21.437-265.7012Z"/><path class="cls-2" d="M412.96315-12.1587l-21.437,265.7017,2.356.193,21.437-265.70166Z"/><path class="cls-2" d="M424.56615-11.219l-21.436,265.701,2.355.193,21.437-265.701Z"/><path class="cls-2" d="M436.22115-10.264l-21.437,265.702,2.356.193,21.436-265.702Z"/><path class="cls-2" d="M447.82015-9.3208,426.38314,256.381l2.356.193,21.437-265.70179Z"/><path class="cls-2" d="M459.48613-8.35483,438.05013,257.347l2.355.193,21.437-265.70182Z"/><path class="cls-2" d="M471.12514-7.4126l-21.437,265.7016,2.356.193,21.437-265.70157Z"/><path class="cls-2" d="M482.73015-6.45633,461.29415,259.245l2.355.193,21.437-265.7013Z"/><path class="cls-2" d="M494.36315-5.45556,472.92614,260.246l2.356.193,21.437-265.70155Z"/><path class="cls-2" d="M505.95113-4.49637,484.51415,261.205l2.356.193,21.437-265.70136Z"/><path class="cls-2" d="M517.59414-3.54428,496.15715,262.157l2.356.193,21.436-265.70127Z"/><path class="cls-2" d="M529.21914-2.59717,507.78215,263.104l2.356.194,21.436-265.70215Z"/><path class="cls-2" d="M540.83614-1.66049,519.39913,264.041l2.356.193,21.437-265.70148Z"/><path class="cls-2" d="M552.48012-.6831,531.04415,265.019l2.355.193,21.437-265.7021Z"/></g><g class="cls-9"><path class="cls-2" d="M9.30244-8.473l-31.5653,390.555,3.5338.29L12.83624-8.18293Z"/><path class="cls-2" d="M26.37114-7.08892-5.13981,383.471l3.53379.289,31.511-390.5594Z"/><path class="cls-2" d="M43.48054-5.64263,11.96954,384.917l3.5338.29L47.01434-5.3531Z"/><path class="cls-2" d="M60.51374-4.25884,29.00274,386.301l3.5338.289L64.04754-3.96932Z"/><path class="cls-2" d="M77.65634-2.8565,46.14534,387.703l3.5338.29,31.511-390.56Z"/><path class="cls-2" d="M94.75784-1.46587,63.247,389.094l3.53379.289L98.29214-1.17635Z"/><path class="cls-2" d="M111.80314-.03228,80.29184,390.527l3.5338.29L115.33614.25725Z"/><path class="cls-2" d="M128.92414,1.35347,97.41314,391.913l3.534.29,31.511-390.56Z"/><path class="cls-2" d="M146.02713,2.77143,114.51614,393.331l3.534.29,31.511-390.56Z"/><path class="cls-2" d="M163.06014,4.19722l-31.51,390.55977,3.533.289,31.511-390.55925Z"/><path class="cls-2" d="M180.18215,5.60054,148.67115,396.16l3.533.29,31.511-390.55995Z"/><path class="cls-2" d="M197.27514,6.97944,165.76413,397.539l3.534.29,31.511-390.56Z"/><path class="cls-2" d="M214.42214,8.3818,182.91114,398.941l3.534.29L217.95614,8.6713Z"/><path class="cls-2" d="M231.46714,9.8349,199.95614,400.395l3.534.289,31.511-390.55959Z"/><path class="cls-2" d="M248.61113,11.2389,217.04615,401.794l3.533.29,31.566-390.555Z"/><path class="cls-2" d="M265.67415,12.6162,234.16314,403.176l3.534.289,31.511-390.5593Z"/><path class="cls-2" d="M282.71914,14.0624,251.20813,404.622l3.533.29,31.511-390.56Z"/><path class="cls-2" d="M299.85714,15.4531l-31.511,390.5599,3.534.289,31.511-390.5594Z"/></g></g></svg>