<svg width="305" height="308" viewBox="0 0 305 308" fill="none" xmlns="http://www.w3.org/2000/svg">
<g clip-path="url(#clip0_103_21)">
<rect width="305" height="308" rx="8" fill="white"/>
<circle cx="113" cy="110" r="17" fill="#2642CA"/>
<circle cx="113" cy="189" r="17" fill="#2642CA"/>
<circle cx="113" cy="229" r="17" fill="#2642CA"/>
<circle cx="113" cy="269" r="17" fill="#2642CA"/>
<circle cx="73" cy="269" r="16" stroke="#2642CA" stroke-width="2"/>
<circle cx="152" cy="150" r="17" fill="#19CB98"/>
<path d="M107.594 109.658C107.594 108.282 107.818 107.21 108.266 106.442C108.714 105.666 109.498 105.278 110.618 105.278C111.73 105.278 112.51 105.666 112.958 106.442C113.406 107.21 113.63 108.282 113.63 109.658C113.63 111.058 113.406 112.146 112.958 112.922C112.51 113.698 111.73 114.086 110.618 114.086C109.498 114.086 108.714 113.698 108.266 112.922C107.818 112.146 107.594 111.058 107.594 109.658ZM112.55 109.658C112.55 108.962 112.502 108.374 112.406 107.894C112.318 107.406 112.13 107.014 111.842 106.718C111.562 106.422 111.154 106.274 110.618 106.274C110.074 106.274 109.658 106.422 109.37 106.718C109.09 107.014 108.902 107.406 108.806 107.894C108.718 108.374 108.674 108.962 108.674 109.658C108.674 110.378 108.718 110.982 108.806 111.47C108.902 111.958 109.09 112.35 109.37 112.646C109.658 112.942 110.074 113.09 110.618 113.09C111.154 113.09 111.562 112.942 111.842 112.646C112.13 112.35 112.318 111.958 112.406 111.47C112.502 110.982 112.55 110.378 112.55 109.658ZM114.841 106.406V105.41H117.097V114.086H115.993V106.406H114.841Z" fill="white"/>
<path d="M145.744 109.658C145.744 108.282 145.968 107.21 146.416 106.442C146.864 105.666 147.648 105.278 148.768 105.278C149.88 105.278 150.66 105.666 151.108 106.442C151.556 107.21 151.78 108.282 151.78 109.658C151.78 111.058 151.556 112.146 151.108 112.922C150.66 113.698 149.88 114.086 148.768 114.086C147.648 114.086 146.864 113.698 146.416 112.922C145.968 112.146 145.744 111.058 145.744 109.658ZM150.7 109.658C150.7 108.962 150.652 108.374 150.556 107.894C150.468 107.406 150.28 107.014 149.992 106.718C149.712 106.422 149.304 106.274 148.768 106.274C148.224 106.274 147.808 106.422 147.52 106.718C147.24 107.014 147.052 107.406 146.956 107.894C146.868 108.374 146.824 108.962 146.824 109.658C146.824 110.378 146.868 110.982 146.956 111.47C147.052 111.958 147.24 112.35 147.52 112.646C147.808 112.942 148.224 113.09 148.768 113.09C149.304 113.09 149.712 112.942 149.992 112.646C150.28 112.35 150.468 111.958 150.556 111.47C150.652 110.982 150.7 110.378 150.7 109.658ZM153.147 113.21C154.163 112.394 154.959 111.726 155.535 111.206C156.111 110.678 156.595 110.13 156.987 109.562C157.387 108.986 157.587 108.422 157.587 107.87C157.587 107.35 157.459 106.942 157.203 106.646C156.955 106.342 156.551 106.19 155.991 106.19C155.447 106.19 155.023 106.362 154.719 106.706C154.423 107.042 154.263 107.494 154.239 108.062H153.183C153.215 107.166 153.487 106.474 153.999 105.986C154.511 105.498 155.171 105.254 155.979 105.254C156.803 105.254 157.455 105.482 157.935 105.938C158.423 106.394 158.667 107.022 158.667 107.822C158.667 108.486 158.467 109.134 158.067 109.766C157.675 110.39 157.227 110.942 156.723 111.422C156.219 111.894 155.575 112.446 154.791 113.078H158.919V113.99H153.147V113.21Z" fill="black"/>
<path d="M185.394 109.658C185.394 108.282 185.618 107.21 186.066 106.442C186.514 105.666 187.298 105.278 188.418 105.278C189.53 105.278 190.31 105.666 190.758 106.442C191.206 107.21 191.43 108.282 191.43 109.658C191.43 111.058 191.206 112.146 190.758 112.922C190.31 113.698 189.53 114.086 188.418 114.086C187.298 114.086 186.514 113.698 186.066 112.922C185.618 112.146 185.394 111.058 185.394 109.658ZM190.35 109.658C190.35 108.962 190.302 108.374 190.206 107.894C190.118 107.406 189.93 107.014 189.642 106.718C189.362 106.422 188.954 106.274 188.418 106.274C187.874 106.274 187.458 106.422 187.17 106.718C186.89 107.014 186.702 107.406 186.606 107.894C186.518 108.374 186.474 108.962 186.474 109.658C186.474 110.378 186.518 110.982 186.606 111.47C186.702 111.958 186.89 112.35 187.17 112.646C187.458 112.942 187.874 113.09 188.418 113.09C188.954 113.09 189.362 112.942 189.642 112.646C189.93 112.35 190.118 111.958 190.206 111.47C190.302 110.982 190.35 110.378 190.35 109.658ZM192.905 107.594C192.961 106.858 193.245 106.282 193.757 105.866C194.269 105.45 194.933 105.242 195.749 105.242C196.293 105.242 196.761 105.342 197.153 105.542C197.553 105.734 197.853 105.998 198.053 106.334C198.261 106.67 198.365 107.05 198.365 107.474C198.365 107.97 198.221 108.398 197.933 108.758C197.653 109.118 197.285 109.35 196.829 109.454V109.514C197.349 109.642 197.761 109.894 198.065 110.27C198.369 110.646 198.521 111.138 198.521 111.746C198.521 112.202 198.417 112.614 198.209 112.982C198.001 113.342 197.689 113.626 197.273 113.834C196.857 114.042 196.357 114.146 195.773 114.146C194.925 114.146 194.229 113.926 193.685 113.486C193.141 113.038 192.837 112.406 192.773 111.59H193.829C193.885 112.07 194.081 112.462 194.417 112.766C194.753 113.07 195.201 113.222 195.761 113.222C196.321 113.222 196.745 113.078 197.033 112.79C197.329 112.494 197.477 112.114 197.477 111.65C197.477 111.05 197.277 110.618 196.877 110.354C196.477 110.09 195.873 109.958 195.065 109.958H194.789V109.046H195.077C195.813 109.038 196.369 108.918 196.745 108.686C197.121 108.446 197.309 108.078 197.309 107.582C197.309 107.158 197.169 106.818 196.889 106.562C196.617 106.306 196.225 106.178 195.713 106.178C195.217 106.178 194.817 106.306 194.513 106.562C194.209 106.818 194.029 107.162 193.973 107.594H192.905Z" fill="black"/>
<path d="M224.544 109.658C224.544 108.282 224.768 107.21 225.216 106.442C225.664 105.666 226.448 105.278 227.568 105.278C228.68 105.278 229.46 105.666 229.908 106.442C230.356 107.21 230.58 108.282 230.58 109.658C230.58 111.058 230.356 112.146 229.908 112.922C229.46 113.698 228.68 114.086 227.568 114.086C226.448 114.086 225.664 113.698 225.216 112.922C224.768 112.146 224.544 111.058 224.544 109.658ZM229.5 109.658C229.5 108.962 229.452 108.374 229.356 107.894C229.268 107.406 229.08 107.014 228.792 106.718C228.512 106.422 228.104 106.274 227.568 106.274C227.024 106.274 226.608 106.422 226.32 106.718C226.04 107.014 225.852 107.406 225.756 107.894C225.668 108.374 225.624 108.962 225.624 109.658C225.624 110.378 225.668 110.982 225.756 111.47C225.852 111.958 226.04 112.35 226.32 112.646C226.608 112.942 227.024 113.09 227.568 113.09C228.104 113.09 228.512 112.942 228.792 112.646C229.08 112.35 229.268 111.958 229.356 111.47C229.452 110.982 229.5 110.378 229.5 109.658ZM231.815 112.154V111.326L236.027 105.494H237.335V111.206H238.535V112.154H237.335V114.086H236.255V112.154H231.815ZM236.303 106.634L233.075 111.206H236.303V106.634Z" fill="black"/>
<path d="M270.515 109.141V110.441C270.515 111.141 270.452 111.73 270.327 112.211C270.202 112.691 270.022 113.078 269.788 113.371C269.554 113.664 269.271 113.877 268.938 114.01C268.61 114.139 268.239 114.203 267.825 114.203C267.497 114.203 267.194 114.162 266.917 114.08C266.64 113.998 266.39 113.867 266.167 113.688C265.948 113.504 265.761 113.266 265.604 112.973C265.448 112.68 265.329 112.324 265.247 111.906C265.165 111.488 265.124 111 265.124 110.441V109.141C265.124 108.441 265.187 107.855 265.312 107.383C265.44 106.91 265.622 106.531 265.856 106.246C266.091 105.957 266.372 105.75 266.7 105.625C267.032 105.5 267.403 105.438 267.813 105.438C268.146 105.438 268.45 105.479 268.728 105.561C269.009 105.639 269.259 105.766 269.478 105.941C269.696 106.113 269.882 106.344 270.034 106.633C270.19 106.918 270.31 107.268 270.392 107.682C270.474 108.096 270.515 108.582 270.515 109.141ZM269.425 110.617V108.959C269.425 108.576 269.401 108.24 269.354 107.951C269.312 107.658 269.247 107.408 269.161 107.201C269.075 106.994 268.966 106.826 268.833 106.697C268.704 106.568 268.554 106.475 268.382 106.416C268.214 106.354 268.024 106.322 267.813 106.322C267.556 106.322 267.327 106.371 267.128 106.469C266.929 106.562 266.761 106.713 266.624 106.92C266.491 107.127 266.39 107.398 266.319 107.734C266.249 108.07 266.214 108.479 266.214 108.959V110.617C266.214 111 266.235 111.338 266.278 111.631C266.325 111.924 266.394 112.178 266.483 112.393C266.573 112.604 266.683 112.777 266.812 112.914C266.94 113.051 267.089 113.152 267.257 113.219C267.429 113.281 267.618 113.312 267.825 113.312C268.091 113.312 268.323 113.262 268.522 113.16C268.722 113.059 268.888 112.9 269.021 112.686C269.157 112.467 269.259 112.188 269.325 111.848C269.392 111.504 269.425 111.094 269.425 110.617ZM273.28 110.025L272.413 109.803L272.841 105.555H277.218V106.557H273.761L273.503 108.877C273.659 108.787 273.856 108.703 274.095 108.625C274.337 108.547 274.614 108.508 274.927 108.508C275.321 108.508 275.675 108.576 275.987 108.713C276.3 108.846 276.565 109.037 276.784 109.287C277.007 109.537 277.177 109.838 277.294 110.189C277.411 110.541 277.47 110.934 277.47 111.367C277.47 111.777 277.413 112.154 277.3 112.498C277.19 112.842 277.024 113.143 276.802 113.4C276.579 113.654 276.298 113.852 275.958 113.992C275.622 114.133 275.226 114.203 274.769 114.203C274.425 114.203 274.099 114.156 273.79 114.062C273.485 113.965 273.212 113.818 272.97 113.623C272.731 113.424 272.536 113.178 272.384 112.885C272.235 112.588 272.142 112.24 272.103 111.842H273.134C273.181 112.162 273.274 112.432 273.415 112.65C273.556 112.869 273.739 113.035 273.966 113.148C274.196 113.258 274.464 113.312 274.769 113.312C275.026 113.312 275.255 113.268 275.454 113.178C275.653 113.088 275.821 112.959 275.958 112.791C276.095 112.623 276.198 112.42 276.269 112.182C276.343 111.943 276.38 111.676 276.38 111.379C276.38 111.109 276.343 110.859 276.269 110.629C276.194 110.398 276.083 110.197 275.935 110.025C275.79 109.854 275.612 109.721 275.401 109.627C275.19 109.529 274.948 109.48 274.675 109.48C274.312 109.48 274.036 109.529 273.849 109.627C273.665 109.725 273.476 109.857 273.28 110.025Z" fill="black"/>
<path d="M26.2938 149.314C26.2938 147.938 26.5178 146.866 26.9658 146.098C27.4138 145.322 28.1978 144.934 29.3178 144.934C30.4298 144.934 31.2098 145.322 31.6578 146.098C32.1058 146.866 32.3298 147.938 32.3298 149.314C32.3298 150.714 32.1058 151.802 31.6578 152.578C31.2098 153.354 30.4298 153.742 29.3178 153.742C28.1978 153.742 27.4138 153.354 26.9658 152.578C26.5178 151.802 26.2938 150.714 26.2938 149.314ZM31.2498 149.314C31.2498 148.618 31.2018 148.03 31.1058 147.55C31.0178 147.062 30.8298 146.67 30.5418 146.374C30.2618 146.078 29.8538 145.93 29.3178 145.93C28.7738 145.93 28.3578 146.078 28.0698 146.374C27.7898 146.67 27.6018 147.062 27.5058 147.55C27.4178 148.03 27.3738 148.618 27.3738 149.314C27.3738 150.034 27.4178 150.638 27.5058 151.126C27.6018 151.614 27.7898 152.006 28.0698 152.302C28.3578 152.598 28.7738 152.746 29.3178 152.746C29.8538 152.746 30.2618 152.598 30.5418 152.302C30.8298 152.006 31.0178 151.614 31.1058 151.126C31.2018 150.638 31.2498 150.034 31.2498 149.314ZM38.665 147.13C38.489 146.242 37.941 145.798 37.021 145.798C36.309 145.798 35.777 146.074 35.425 146.626C35.073 147.17 34.901 148.07 34.909 149.326C35.093 148.91 35.397 148.586 35.821 148.354C36.253 148.114 36.733 147.994 37.261 147.994C38.085 147.994 38.741 148.25 39.229 148.762C39.725 149.274 39.973 149.982 39.973 150.886C39.973 151.43 39.865 151.918 39.649 152.35C39.441 152.782 39.121 153.126 38.689 153.382C38.265 153.638 37.749 153.766 37.141 153.766C36.317 153.766 35.673 153.582 35.209 153.214C34.745 152.846 34.421 152.338 34.237 151.69C34.053 151.042 33.961 150.242 33.961 149.29C33.961 146.354 34.985 144.886 37.033 144.886C37.817 144.886 38.433 145.098 38.881 145.522C39.329 145.946 39.593 146.482 39.673 147.13H38.665ZM37.033 148.918C36.689 148.918 36.365 148.99 36.061 149.134C35.757 149.27 35.509 149.482 35.317 149.77C35.133 150.05 35.041 150.394 35.041 150.802C35.041 151.41 35.217 151.906 35.569 152.29C35.921 152.666 36.425 152.854 37.081 152.854C37.641 152.854 38.085 152.682 38.413 152.338C38.749 151.986 38.917 151.514 38.917 150.922C38.917 150.298 38.757 149.81 38.437 149.458C38.117 149.098 37.649 148.918 37.033 148.918Z" fill="black"/>
<path d="M66.4437 149.314C66.4437 147.938 66.6677 146.866 67.1157 146.098C67.5637 145.322 68.3477 144.934 69.4677 144.934C70.5797 144.934 71.3597 145.322 71.8077 146.098C72.2557 146.866 72.4797 147.938 72.4797 149.314C72.4797 150.714 72.2557 151.802 71.8077 152.578C71.3597 153.354 70.5797 153.742 69.4677 153.742C68.3477 153.742 67.5637 153.354 67.1157 152.578C66.6677 151.802 66.4437 150.714 66.4437 149.314ZM71.3997 149.314C71.3997 148.618 71.3517 148.03 71.2557 147.55C71.1677 147.062 70.9797 146.67 70.6917 146.374C70.4117 146.078 70.0037 145.93 69.4677 145.93C68.9237 145.93 68.5077 146.078 68.2197 146.374C67.9397 146.67 67.7517 147.062 67.6557 147.55C67.5677 148.03 67.5237 148.618 67.5237 149.314C67.5237 150.034 67.5677 150.638 67.6557 151.126C67.7517 151.614 67.9397 152.006 68.2197 152.302C68.5077 152.598 68.9237 152.746 69.4677 152.746C70.0037 152.746 70.4117 152.598 70.6917 152.302C70.9797 152.006 71.1677 151.614 71.2557 151.126C71.3517 150.638 71.3997 150.034 71.3997 149.314ZM79.3189 145.918L75.9829 153.742H74.8789L78.2629 146.026H73.6309V145.09H79.3189V145.918Z" fill="black"/>
<path d="M105.594 149.314C105.594 147.938 105.818 146.866 106.266 146.098C106.714 145.322 107.498 144.934 108.618 144.934C109.73 144.934 110.51 145.322 110.958 146.098C111.406 146.866 111.63 147.938 111.63 149.314C111.63 150.714 111.406 151.802 110.958 152.578C110.51 153.354 109.73 153.742 108.618 153.742C107.498 153.742 106.714 153.354 106.266 152.578C105.818 151.802 105.594 150.714 105.594 149.314ZM110.55 149.314C110.55 148.618 110.502 148.03 110.406 147.55C110.318 147.062 110.13 146.67 109.842 146.374C109.562 146.078 109.154 145.93 108.618 145.93C108.074 145.93 107.658 146.078 107.37 146.374C107.09 146.67 106.902 147.062 106.806 147.55C106.718 148.03 106.674 148.618 106.674 149.314C106.674 150.034 106.718 150.638 106.806 151.126C106.902 151.614 107.09 152.006 107.37 152.302C107.658 152.598 108.074 152.746 108.618 152.746C109.154 152.746 109.562 152.598 109.842 152.302C110.13 152.006 110.318 151.614 110.406 151.126C110.502 150.638 110.55 150.034 110.55 149.314ZM114.713 149.23C114.265 149.054 113.921 148.798 113.681 148.462C113.441 148.126 113.321 147.718 113.321 147.238C113.321 146.806 113.429 146.418 113.645 146.074C113.861 145.722 114.181 145.446 114.605 145.246C115.037 145.038 115.557 144.934 116.165 144.934C116.773 144.934 117.289 145.038 117.713 145.246C118.145 145.446 118.469 145.722 118.685 146.074C118.909 146.418 119.021 146.806 119.021 147.238C119.021 147.702 118.897 148.11 118.649 148.462C118.401 148.806 118.061 149.062 117.629 149.23C118.125 149.382 118.517 149.65 118.805 150.034C119.101 150.41 119.249 150.866 119.249 151.402C119.249 151.922 119.121 152.378 118.865 152.77C118.609 153.154 118.245 153.454 117.773 153.67C117.309 153.878 116.773 153.982 116.165 153.982C115.557 153.982 115.021 153.878 114.557 153.67C114.101 153.454 113.745 153.154 113.489 152.77C113.233 152.378 113.105 151.922 113.105 151.402C113.105 150.866 113.249 150.406 113.537 150.022C113.825 149.638 114.217 149.374 114.713 149.23ZM117.965 147.37C117.965 146.882 117.805 146.506 117.485 146.242C117.165 145.978 116.725 145.846 116.165 145.846C115.613 145.846 115.177 145.978 114.857 146.242C114.537 146.506 114.377 146.886 114.377 147.382C114.377 147.83 114.541 148.19 114.869 148.462C115.205 148.734 115.637 148.87 116.165 148.87C116.701 148.87 117.133 148.734 117.461 148.462C117.797 148.182 117.965 147.818 117.965 147.37ZM116.165 149.71C115.573 149.71 115.089 149.85 114.713 150.13C114.337 150.402 114.149 150.814 114.149 151.366C114.149 151.878 114.329 152.29 114.689 152.602C115.057 152.914 115.549 153.07 116.165 153.07C116.781 153.07 117.269 152.914 117.629 152.602C117.989 152.29 118.169 151.878 118.169 151.366C118.169 150.83 117.985 150.422 117.617 150.142C117.249 149.854 116.765 149.71 116.165 149.71Z" fill="black"/>
<path d="M145.244 149.314C145.244 147.938 145.468 146.866 145.916 146.098C146.364 145.322 147.148 144.934 148.268 144.934C149.38 144.934 150.16 145.322 150.608 146.098C151.056 146.866 151.28 147.938 151.28 149.314C151.28 150.714 151.056 151.802 150.608 152.578C150.16 153.354 149.38 153.742 148.268 153.742C147.148 153.742 146.364 153.354 145.916 152.578C145.468 151.802 145.244 150.714 145.244 149.314ZM150.2 149.314C150.2 148.618 150.152 148.03 150.056 147.55C149.968 147.062 149.78 146.67 149.492 146.374C149.212 146.078 148.804 145.93 148.268 145.93C147.724 145.93 147.308 146.078 147.02 146.374C146.74 146.67 146.552 147.062 146.456 147.55C146.368 148.03 146.324 148.618 146.324 149.314C146.324 150.034 146.368 150.638 146.456 151.126C146.552 151.614 146.74 152.006 147.02 152.302C147.308 152.598 147.724 152.746 148.268 152.746C148.804 152.746 149.212 152.598 149.492 152.302C149.78 152.006 149.968 151.614 150.056 151.126C150.152 150.638 150.2 150.034 150.2 149.314ZM154.183 151.414C154.263 151.87 154.447 152.222 154.735 152.47C155.031 152.718 155.427 152.842 155.923 152.842C156.587 152.842 157.075 152.582 157.387 152.062C157.707 151.542 157.859 150.666 157.843 149.434C157.675 149.794 157.395 150.078 157.003 150.286C156.611 150.486 156.175 150.586 155.695 150.586C155.159 150.586 154.679 150.478 154.255 150.262C153.839 150.038 153.511 149.714 153.271 149.29C153.031 148.866 152.911 148.354 152.911 147.754C152.911 146.898 153.159 146.21 153.655 145.69C154.151 145.162 154.855 144.898 155.767 144.898C156.887 144.898 157.671 145.262 158.119 145.99C158.575 146.718 158.803 147.802 158.803 149.242C158.803 150.25 158.711 151.082 158.527 151.738C158.351 152.394 158.047 152.894 157.615 153.238C157.191 153.582 156.607 153.754 155.863 153.754C155.047 153.754 154.411 153.534 153.955 153.094C153.499 152.654 153.239 152.094 153.175 151.414H154.183ZM155.875 149.662C156.411 149.662 156.851 149.498 157.195 149.17C157.539 148.834 157.711 148.382 157.711 147.814C157.711 147.214 157.543 146.73 157.207 146.362C156.871 145.994 156.399 145.81 155.791 145.81C155.231 145.81 154.783 145.986 154.447 146.338C154.119 146.69 153.955 147.154 153.955 147.73C153.955 148.314 154.119 148.782 154.447 149.134C154.775 149.486 155.251 149.662 155.875 149.662Z" fill="white"/>
<path d="M186.606 146.062V145.066H188.862V153.742H187.758V146.062H186.606ZM190.738 149.314C190.738 147.938 190.962 146.866 191.41 146.098C191.858 145.322 192.642 144.934 193.762 144.934C194.874 144.934 195.654 145.322 196.102 146.098C196.55 146.866 196.774 147.938 196.774 149.314C196.774 150.714 196.55 151.802 196.102 152.578C195.654 153.354 194.874 153.742 193.762 153.742C192.642 153.742 191.858 153.354 191.41 152.578C190.962 151.802 190.738 150.714 190.738 149.314ZM195.694 149.314C195.694 148.618 195.646 148.03 195.55 147.55C195.462 147.062 195.274 146.67 194.986 146.374C194.706 146.078 194.298 145.93 193.762 145.93C193.218 145.93 192.802 146.078 192.514 146.374C192.234 146.67 192.046 147.062 191.95 147.55C191.862 148.03 191.818 148.618 191.818 149.314C191.818 150.034 191.862 150.638 191.95 151.126C192.046 151.614 192.234 152.006 192.514 152.302C192.802 152.598 193.218 152.746 193.762 152.746C194.298 152.746 194.706 152.598 194.986 152.302C195.274 152.006 195.462 151.614 195.55 151.126C195.646 150.638 195.694 150.034 195.694 149.314Z" fill="black"/>
<path d="M228.256 146.062V145.066H230.512V153.742H229.408V146.062H228.256ZM232.1 146.062V145.066H234.356V153.742H233.252V146.062H232.1Z" fill="black"/>
<path d="M268.722 145.164V153.742H267.638V146.518L265.452 147.314V146.336L268.552 145.164H268.722ZM277.499 152.852V153.742H271.915V152.963L274.71 149.852C275.054 149.469 275.319 149.145 275.507 148.879C275.698 148.609 275.831 148.369 275.905 148.158C275.983 147.943 276.022 147.725 276.022 147.502C276.022 147.221 275.964 146.967 275.847 146.74C275.733 146.51 275.565 146.326 275.343 146.189C275.12 146.053 274.851 145.984 274.534 145.984C274.155 145.984 273.839 146.059 273.585 146.207C273.335 146.352 273.147 146.555 273.022 146.816C272.897 147.078 272.835 147.379 272.835 147.719H271.751C271.751 147.238 271.856 146.799 272.067 146.4C272.278 146.002 272.591 145.686 273.005 145.451C273.419 145.213 273.929 145.094 274.534 145.094C275.073 145.094 275.534 145.189 275.917 145.381C276.3 145.568 276.593 145.834 276.796 146.178C277.003 146.518 277.106 146.916 277.106 147.373C277.106 147.623 277.063 147.877 276.978 148.135C276.896 148.389 276.78 148.643 276.632 148.896C276.487 149.15 276.317 149.4 276.122 149.646C275.931 149.893 275.726 150.135 275.507 150.373L273.222 152.852H277.499Z" fill="black"/>
<path d="M28.5058 185.703V184.707H30.7618V193.383H29.6578V185.703H28.5058ZM32.6136 186.891C32.6696 186.155 32.9536 185.579 33.4656 185.163C33.9776 184.747 34.6416 184.539 35.4576 184.539C36.0016 184.539 36.4696 184.639 36.8616 184.839C37.2616 185.031 37.5616 185.295 37.7616 185.631C37.9696 185.967 38.0736 186.347 38.0736 186.771C38.0736 187.267 37.9296 187.695 37.6416 188.055C37.3616 188.415 36.9936 188.647 36.5376 188.751V188.811C37.0576 188.939 37.4696 189.191 37.7736 189.567C38.0776 189.943 38.2296 190.435 38.2296 191.043C38.2296 191.499 38.1256 191.911 37.9176 192.279C37.7096 192.639 37.3976 192.923 36.9816 193.131C36.5656 193.339 36.0656 193.443 35.4816 193.443C34.6336 193.443 33.9376 193.223 33.3936 192.783C32.8496 192.335 32.5456 191.703 32.4816 190.887H33.5376C33.5936 191.367 33.7896 191.759 34.1256 192.063C34.4616 192.367 34.9096 192.519 35.4696 192.519C36.0296 192.519 36.4536 192.375 36.7416 192.087C37.0376 191.791 37.1856 191.411 37.1856 190.947C37.1856 190.347 36.9856 189.915 36.5856 189.651C36.1856 189.387 35.5816 189.255 34.7736 189.255H34.4976V188.343H34.7856C35.5216 188.335 36.0776 188.215 36.4536 187.983C36.8296 187.743 37.0176 187.375 37.0176 186.879C37.0176 186.455 36.8776 186.115 36.5976 185.859C36.3256 185.603 35.9336 185.475 35.4216 185.475C34.9256 185.475 34.5256 185.603 34.2216 185.859C33.9176 186.115 33.7376 186.459 33.6816 186.891H32.6136Z" fill="black"/>
<path d="M67.6557 185.703V184.707H69.9117V193.383H68.8077V185.703H67.6557ZM71.5235 191.451V190.623L75.7355 184.791H77.0435V190.503H78.2435V191.451H77.0435V193.383H75.9635V191.451H71.5235ZM76.0115 185.931L72.7835 190.503H76.0115V185.931Z" fill="black"/>
<path d="M107.306 185.703V184.707H109.562V193.383H108.458V185.703H107.306ZM116.97 185.655H112.758V188.391C112.942 188.135 113.214 187.927 113.574 187.767C113.934 187.599 114.322 187.515 114.738 187.515C115.402 187.515 115.942 187.655 116.358 187.935C116.774 188.207 117.07 188.563 117.246 189.003C117.43 189.435 117.522 189.895 117.522 190.383C117.522 190.959 117.414 191.475 117.198 191.931C116.982 192.387 116.65 192.747 116.202 193.011C115.762 193.275 115.214 193.407 114.558 193.407C113.718 193.407 113.038 193.191 112.518 192.759C111.998 192.327 111.682 191.751 111.57 191.031H112.638C112.742 191.487 112.962 191.843 113.298 192.099C113.634 192.355 114.058 192.483 114.57 192.483C115.202 192.483 115.678 192.295 115.998 191.919C116.318 191.535 116.478 191.031 116.478 190.407C116.478 189.783 116.318 189.303 115.998 188.967C115.678 188.623 115.206 188.451 114.582 188.451C114.158 188.451 113.786 188.555 113.466 188.763C113.154 188.963 112.926 189.239 112.782 189.591H111.75V184.695H116.97V185.655Z" fill="white"/>
<path d="M146.956 185.703V184.707H149.212V193.383H148.108V185.703H146.956ZM155.923 186.771C155.747 185.883 155.199 185.439 154.279 185.439C153.567 185.439 153.035 185.715 152.683 186.267C152.331 186.811 152.159 187.711 152.167 188.967C152.351 188.551 152.655 188.227 153.079 187.995C153.511 187.755 153.991 187.635 154.519 187.635C155.343 187.635 155.999 187.891 156.487 188.403C156.983 188.915 157.231 189.623 157.231 190.527C157.231 191.071 157.123 191.559 156.907 191.991C156.699 192.423 156.379 192.767 155.947 193.023C155.523 193.279 155.007 193.407 154.399 193.407C153.575 193.407 152.931 193.223 152.467 192.855C152.003 192.487 151.679 191.979 151.495 191.331C151.311 190.683 151.219 189.883 151.219 188.931C151.219 185.995 152.243 184.527 154.291 184.527C155.075 184.527 155.691 184.739 156.139 185.163C156.587 185.587 156.851 186.123 156.931 186.771H155.923ZM154.291 188.559C153.947 188.559 153.623 188.631 153.319 188.775C153.015 188.911 152.767 189.123 152.575 189.411C152.391 189.691 152.299 190.035 152.299 190.443C152.299 191.051 152.475 191.547 152.827 191.931C153.179 192.307 153.683 192.495 154.339 192.495C154.899 192.495 155.343 192.323 155.671 191.979C156.007 191.627 156.175 191.155 156.175 190.563C156.175 189.939 156.015 189.451 155.695 189.099C155.375 188.739 154.907 188.559 154.291 188.559Z" fill="black"/>
<path d="M187.106 185.703V184.707H189.362V193.383H188.258V185.703H187.106ZM196.578 185.559L193.242 193.383H192.138L195.522 185.667H190.89V184.731H196.578V185.559Z" fill="black"/>
<path d="M226.256 185.703V184.707H228.512V193.383H227.408V185.703H226.256ZM231.972 188.871C231.524 188.695 231.18 188.439 230.94 188.103C230.7 187.767 230.58 187.359 230.58 186.879C230.58 186.447 230.688 186.059 230.904 185.715C231.12 185.363 231.44 185.087 231.864 184.887C232.296 184.679 232.816 184.575 233.424 184.575C234.032 184.575 234.548 184.679 234.972 184.887C235.404 185.087 235.728 185.363 235.944 185.715C236.168 186.059 236.28 186.447 236.28 186.879C236.28 187.343 236.156 187.751 235.908 188.103C235.66 188.447 235.32 188.703 234.888 188.871C235.384 189.023 235.776 189.291 236.064 189.675C236.36 190.051 236.508 190.507 236.508 191.043C236.508 191.563 236.38 192.019 236.124 192.411C235.868 192.795 235.504 193.095 235.032 193.311C234.568 193.519 234.032 193.623 233.424 193.623C232.816 193.623 232.28 193.519 231.816 193.311C231.36 193.095 231.004 192.795 230.748 192.411C230.492 192.019 230.364 191.563 230.364 191.043C230.364 190.507 230.508 190.047 230.796 189.663C231.084 189.279 231.476 189.015 231.972 188.871ZM235.224 187.011C235.224 186.523 235.064 186.147 234.744 185.883C234.424 185.619 233.984 185.487 233.424 185.487C232.872 185.487 232.436 185.619 232.116 185.883C231.796 186.147 231.636 186.527 231.636 187.023C231.636 187.471 231.8 187.831 232.128 188.103C232.464 188.375 232.896 188.511 233.424 188.511C233.96 188.511 234.392 188.375 234.72 188.103C235.056 187.823 235.224 187.459 235.224 187.011ZM233.424 189.351C232.832 189.351 232.348 189.491 231.972 189.771C231.596 190.043 231.408 190.455 231.408 191.007C231.408 191.519 231.588 191.931 231.948 192.243C232.316 192.555 232.808 192.711 233.424 192.711C234.04 192.711 234.528 192.555 234.888 192.243C235.248 191.931 235.428 191.519 235.428 191.007C235.428 190.471 235.244 190.063 234.876 189.783C234.508 189.495 234.024 189.351 233.424 189.351Z" fill="black"/>
<path d="M268.722 184.805V193.383H267.638V186.158L265.452 186.955V185.977L268.552 184.805H268.722ZM272.987 192.475H273.099C273.724 192.475 274.231 192.387 274.622 192.211C275.013 192.035 275.313 191.799 275.524 191.502C275.735 191.205 275.88 190.871 275.958 190.5C276.036 190.125 276.075 189.74 276.075 189.346V188.039C276.075 187.652 276.03 187.309 275.94 187.008C275.854 186.707 275.733 186.455 275.577 186.252C275.425 186.049 275.251 185.895 275.056 185.789C274.86 185.684 274.653 185.631 274.435 185.631C274.185 185.631 273.96 185.682 273.761 185.783C273.565 185.881 273.399 186.02 273.263 186.199C273.13 186.379 273.028 186.59 272.958 186.832C272.888 187.074 272.853 187.338 272.853 187.623C272.853 187.877 272.884 188.123 272.946 188.361C273.009 188.6 273.104 188.814 273.233 189.006C273.362 189.197 273.522 189.35 273.714 189.463C273.909 189.572 274.138 189.627 274.399 189.627C274.642 189.627 274.868 189.58 275.079 189.486C275.294 189.389 275.483 189.258 275.647 189.094C275.815 188.926 275.948 188.736 276.046 188.525C276.147 188.314 276.206 188.094 276.222 187.863H276.737C276.737 188.188 276.673 188.508 276.544 188.824C276.419 189.137 276.243 189.422 276.017 189.68C275.79 189.938 275.524 190.145 275.22 190.301C274.915 190.453 274.583 190.529 274.224 190.529C273.802 190.529 273.437 190.447 273.128 190.283C272.819 190.119 272.565 189.9 272.366 189.627C272.171 189.354 272.024 189.049 271.927 188.713C271.833 188.373 271.786 188.029 271.786 187.682C271.786 187.275 271.843 186.895 271.956 186.539C272.069 186.184 272.237 185.871 272.46 185.602C272.683 185.328 272.958 185.115 273.286 184.963C273.618 184.811 274.001 184.734 274.435 184.734C274.923 184.734 275.339 184.832 275.683 185.027C276.026 185.223 276.306 185.484 276.521 185.812C276.739 186.141 276.899 186.51 277.001 186.92C277.103 187.33 277.153 187.752 277.153 188.186V188.578C277.153 189.02 277.124 189.469 277.065 189.926C277.011 190.379 276.903 190.812 276.743 191.227C276.587 191.641 276.358 192.012 276.058 192.34C275.757 192.664 275.364 192.922 274.88 193.113C274.399 193.301 273.806 193.395 273.099 193.395H272.987V192.475Z" fill="black"/>
<path d="M26.6618 232.163C27.6778 231.347 28.4738 230.679 29.0498 230.159C29.6258 229.631 30.1098 229.083 30.5018 228.515C30.9018 227.939 31.1018 227.375 31.1018 226.823C31.1018 226.303 30.9738 225.895 30.7178 225.599C30.4698 225.295 30.0658 225.143 29.5058 225.143C28.9618 225.143 28.5378 225.315 28.2338 225.659C27.9378 225.995 27.7778 226.447 27.7538 227.015H26.6978C26.7298 226.119 27.0018 225.427 27.5138 224.939C28.0258 224.451 28.6858 224.207 29.4938 224.207C30.3178 224.207 30.9698 224.435 31.4498 224.891C31.9378 225.347 32.1818 225.975 32.1818 226.775C32.1818 227.439 31.9818 228.087 31.5818 228.719C31.1898 229.343 30.7418 229.895 30.2378 230.375C29.7338 230.847 29.0898 231.399 28.3058 232.031H32.4338V232.943H26.6618V232.163ZM33.6961 228.611C33.6961 227.235 33.9201 226.163 34.3681 225.395C34.8161 224.619 35.6001 224.231 36.7201 224.231C37.8321 224.231 38.6121 224.619 39.0601 225.395C39.5081 226.163 39.7321 227.235 39.7321 228.611C39.7321 230.011 39.5081 231.099 39.0601 231.875C38.6121 232.651 37.8321 233.039 36.7201 233.039C35.6001 233.039 34.8161 232.651 34.3681 231.875C33.9201 231.099 33.6961 230.011 33.6961 228.611ZM38.6521 228.611C38.6521 227.915 38.6041 227.327 38.5081 226.847C38.4201 226.359 38.2321 225.967 37.9441 225.671C37.6641 225.375 37.2561 225.227 36.7201 225.227C36.1761 225.227 35.7601 225.375 35.4721 225.671C35.1921 225.967 35.0041 226.359 34.9081 226.847C34.8201 227.327 34.7761 227.915 34.7761 228.611C34.7761 229.331 34.8201 229.935 34.9081 230.423C35.0041 230.911 35.1921 231.303 35.4721 231.599C35.7601 231.895 36.1761 232.043 36.7201 232.043C37.2561 232.043 37.6641 231.895 37.9441 231.599C38.2321 231.303 38.4201 230.911 38.5081 230.423C38.6041 229.935 38.6521 229.331 38.6521 228.611Z" fill="black"/>
<path d="M68.3117 232.163C69.3277 231.347 70.1237 230.679 70.6997 230.159C71.2757 229.631 71.7597 229.083 72.1517 228.515C72.5517 227.939 72.7517 227.375 72.7517 226.823C72.7517 226.303 72.6237 225.895 72.3677 225.599C72.1197 225.295 71.7157 225.143 71.1557 225.143C70.6117 225.143 70.1877 225.315 69.8837 225.659C69.5877 225.995 69.4277 226.447 69.4037 227.015H68.3477C68.3797 226.119 68.6517 225.427 69.1637 224.939C69.6757 224.451 70.3357 224.207 71.1437 224.207C71.9677 224.207 72.6197 224.435 73.0997 224.891C73.5877 225.347 73.8317 225.975 73.8317 226.775C73.8317 227.439 73.6317 228.087 73.2317 228.719C72.8397 229.343 72.3917 229.895 71.8877 230.375C71.3837 230.847 70.7397 231.399 69.9557 232.031H74.0837V232.943H68.3117V232.163ZM75.0581 225.359V224.363H77.3141V233.039H76.2101V225.359H75.0581Z" fill="black"/>
<path d="M106.462 232.163C107.478 231.347 108.274 230.679 108.85 230.159C109.426 229.631 109.91 229.083 110.302 228.515C110.702 227.939 110.902 227.375 110.902 226.823C110.902 226.303 110.774 225.895 110.518 225.599C110.27 225.295 109.866 225.143 109.306 225.143C108.762 225.143 108.338 225.315 108.034 225.659C107.738 225.995 107.578 226.447 107.554 227.015H106.498C106.53 226.119 106.802 225.427 107.314 224.939C107.826 224.451 108.486 224.207 109.294 224.207C110.118 224.207 110.77 224.435 111.25 224.891C111.738 225.347 111.982 225.975 111.982 226.775C111.982 227.439 111.782 228.087 111.382 228.719C110.99 229.343 110.542 229.895 110.038 230.375C109.534 230.847 108.89 231.399 108.106 232.031H112.234V232.943H106.462V232.163ZM113.364 232.163C114.38 231.347 115.176 230.679 115.752 230.159C116.328 229.631 116.812 229.083 117.204 228.515C117.604 227.939 117.804 227.375 117.804 226.823C117.804 226.303 117.676 225.895 117.42 225.599C117.172 225.295 116.768 225.143 116.208 225.143C115.664 225.143 115.24 225.315 114.936 225.659C114.64 225.995 114.48 226.447 114.456 227.015H113.4C113.432 226.119 113.704 225.427 114.216 224.939C114.728 224.451 115.388 224.207 116.196 224.207C117.02 224.207 117.672 224.435 118.152 224.891C118.64 225.347 118.884 225.975 118.884 226.775C118.884 227.439 118.684 228.087 118.284 228.719C117.892 229.343 117.444 229.895 116.94 230.375C116.436 230.847 115.792 231.399 115.008 232.031H119.136V232.943H113.364V232.163Z" fill="white"/>
<path d="M146.112 232.163C147.128 231.347 147.924 230.679 148.5 230.159C149.076 229.631 149.56 229.083 149.952 228.515C150.352 227.939 150.552 227.375 150.552 226.823C150.552 226.303 150.424 225.895 150.168 225.599C149.92 225.295 149.516 225.143 148.956 225.143C148.412 225.143 147.988 225.315 147.684 225.659C147.388 225.995 147.228 226.447 147.204 227.015H146.148C146.18 226.119 146.452 225.427 146.964 224.939C147.476 224.451 148.136 224.207 148.944 224.207C149.768 224.207 150.42 224.435 150.9 224.891C151.388 225.347 151.632 225.975 151.632 226.775C151.632 227.439 151.432 228.087 151.032 228.719C150.64 229.343 150.192 229.895 149.688 230.375C149.184 230.847 148.54 231.399 147.756 232.031H151.884V232.943H146.112V232.163ZM153.122 226.547C153.178 225.811 153.462 225.235 153.974 224.819C154.486 224.403 155.15 224.195 155.966 224.195C156.51 224.195 156.978 224.295 157.37 224.495C157.77 224.687 158.07 224.951 158.27 225.287C158.478 225.623 158.582 226.003 158.582 226.427C158.582 226.923 158.438 227.351 158.15 227.711C157.87 228.071 157.502 228.303 157.046 228.407V228.467C157.566 228.595 157.978 228.847 158.282 229.223C158.586 229.599 158.738 230.091 158.738 230.699C158.738 231.155 158.634 231.567 158.426 231.935C158.218 232.295 157.906 232.579 157.49 232.787C157.074 232.995 156.574 233.099 155.99 233.099C155.142 233.099 154.446 232.879 153.902 232.439C153.358 231.991 153.054 231.359 152.99 230.543H154.046C154.102 231.023 154.298 231.415 154.634 231.719C154.97 232.023 155.418 232.175 155.978 232.175C156.538 232.175 156.962 232.031 157.25 231.743C157.546 231.447 157.694 231.067 157.694 230.603C157.694 230.003 157.494 229.571 157.094 229.307C156.694 229.043 156.09 228.911 155.282 228.911H155.006V227.999H155.294C156.03 227.991 156.586 227.871 156.962 227.639C157.338 227.399 157.526 227.031 157.526 226.535C157.526 226.111 157.386 225.771 157.106 225.515C156.834 225.259 156.442 225.131 155.93 225.131C155.434 225.131 155.034 225.259 154.73 225.515C154.426 225.771 154.246 226.115 154.19 226.547H153.122Z" fill="black"/>
<path d="M185.262 232.163C186.278 231.347 187.074 230.679 187.65 230.159C188.226 229.631 188.71 229.083 189.102 228.515C189.502 227.939 189.702 227.375 189.702 226.823C189.702 226.303 189.574 225.895 189.318 225.599C189.07 225.295 188.666 225.143 188.106 225.143C187.562 225.143 187.138 225.315 186.834 225.659C186.538 225.995 186.378 226.447 186.354 227.015H185.298C185.33 226.119 185.602 225.427 186.114 224.939C186.626 224.451 187.286 224.207 188.094 224.207C188.918 224.207 189.57 224.435 190.05 224.891C190.538 225.347 190.782 225.975 190.782 226.775C190.782 227.439 190.582 228.087 190.182 228.719C189.79 229.343 189.342 229.895 188.838 230.375C188.334 230.847 187.69 231.399 186.906 232.031H191.034V232.943H185.262V232.163ZM192.032 231.107V230.279L196.244 224.447H197.552V230.159H198.752V231.107H197.552V233.039H196.472V231.107H192.032ZM196.52 225.587L193.292 230.159H196.52V225.587Z" fill="black"/>
<path d="M224.912 232.163C225.928 231.347 226.724 230.679 227.3 230.159C227.876 229.631 228.36 229.083 228.752 228.515C229.152 227.939 229.352 227.375 229.352 226.823C229.352 226.303 229.224 225.895 228.968 225.599C228.72 225.295 228.316 225.143 227.756 225.143C227.212 225.143 226.788 225.315 226.484 225.659C226.188 225.995 226.028 226.447 226.004 227.015H224.948C224.98 226.119 225.252 225.427 225.764 224.939C226.276 224.451 226.936 224.207 227.744 224.207C228.568 224.207 229.22 224.435 229.7 224.891C230.188 225.347 230.432 225.975 230.432 226.775C230.432 227.439 230.232 228.087 229.832 228.719C229.44 229.343 228.992 229.895 228.488 230.375C227.984 230.847 227.34 231.399 226.556 232.031H230.684V232.943H224.912V232.163ZM237.478 225.311H233.266V228.047C233.45 227.791 233.722 227.583 234.082 227.423C234.442 227.255 234.83 227.171 235.246 227.171C235.91 227.171 236.45 227.311 236.866 227.591C237.282 227.863 237.578 228.219 237.754 228.659C237.938 229.091 238.03 229.551 238.03 230.039C238.03 230.615 237.922 231.131 237.706 231.587C237.49 232.043 237.158 232.403 236.71 232.667C236.27 232.931 235.722 233.063 235.066 233.063C234.226 233.063 233.546 232.847 233.026 232.415C232.506 231.983 232.19 231.407 232.078 230.687H233.146C233.25 231.143 233.47 231.499 233.806 231.755C234.142 232.011 234.566 232.139 235.078 232.139C235.71 232.139 236.186 231.951 236.506 231.575C236.826 231.191 236.986 230.687 236.986 230.063C236.986 229.439 236.826 228.959 236.506 228.623C236.186 228.279 235.714 228.107 235.09 228.107C234.666 228.107 234.294 228.211 233.974 228.419C233.662 228.619 233.434 228.895 233.29 229.247H232.258V224.351H237.478V225.311Z" fill="black"/>
<path d="M270.749 232.148V233.039H265.165V232.26L267.96 229.148C268.304 228.766 268.569 228.441 268.757 228.176C268.948 227.906 269.081 227.666 269.155 227.455C269.233 227.24 269.272 227.021 269.272 226.799C269.272 226.518 269.214 226.264 269.097 226.037C268.983 225.807 268.815 225.623 268.593 225.486C268.37 225.35 268.101 225.281 267.784 225.281C267.405 225.281 267.089 225.355 266.835 225.504C266.585 225.648 266.397 225.852 266.272 226.113C266.147 226.375 266.085 226.676 266.085 227.016H265.001C265.001 226.535 265.106 226.096 265.317 225.697C265.528 225.299 265.841 224.982 266.255 224.748C266.669 224.51 267.179 224.391 267.784 224.391C268.323 224.391 268.784 224.486 269.167 224.678C269.55 224.865 269.843 225.131 270.046 225.475C270.253 225.814 270.356 226.213 270.356 226.67C270.356 226.92 270.313 227.174 270.228 227.432C270.146 227.686 270.03 227.939 269.882 228.193C269.737 228.447 269.567 228.697 269.372 228.943C269.181 229.189 268.976 229.432 268.757 229.67L266.472 232.148H270.749ZM276.069 224.496H276.163V225.416H276.069C275.495 225.416 275.015 225.51 274.628 225.697C274.241 225.881 273.935 226.129 273.708 226.441C273.481 226.75 273.317 227.098 273.216 227.484C273.118 227.871 273.069 228.264 273.069 228.662V229.916C273.069 230.295 273.114 230.631 273.204 230.924C273.294 231.213 273.417 231.457 273.573 231.656C273.729 231.855 273.905 232.006 274.101 232.107C274.3 232.209 274.507 232.26 274.722 232.26C274.972 232.26 275.194 232.213 275.39 232.119C275.585 232.021 275.749 231.887 275.882 231.715C276.019 231.539 276.122 231.332 276.192 231.094C276.263 230.855 276.298 230.594 276.298 230.309C276.298 230.055 276.267 229.811 276.204 229.576C276.142 229.338 276.046 229.127 275.917 228.943C275.788 228.756 275.626 228.609 275.431 228.504C275.239 228.395 275.011 228.34 274.745 228.34C274.444 228.34 274.163 228.414 273.901 228.562C273.644 228.707 273.431 228.898 273.263 229.137C273.099 229.371 273.005 229.627 272.981 229.904L272.407 229.898C272.462 229.461 272.563 229.088 272.712 228.779C272.864 228.467 273.052 228.213 273.274 228.018C273.501 227.818 273.753 227.674 274.03 227.584C274.312 227.49 274.608 227.443 274.921 227.443C275.347 227.443 275.714 227.523 276.022 227.684C276.331 227.844 276.585 228.059 276.784 228.328C276.983 228.594 277.13 228.895 277.224 229.23C277.321 229.562 277.37 229.904 277.37 230.256C277.37 230.658 277.313 231.035 277.2 231.387C277.087 231.738 276.917 232.047 276.69 232.312C276.468 232.578 276.192 232.785 275.864 232.934C275.536 233.082 275.155 233.156 274.722 233.156C274.261 233.156 273.858 233.062 273.515 232.875C273.171 232.684 272.886 232.43 272.659 232.113C272.433 231.797 272.263 231.445 272.149 231.059C272.036 230.672 271.979 230.279 271.979 229.881V229.371C271.979 228.77 272.04 228.18 272.161 227.602C272.282 227.023 272.491 226.5 272.788 226.031C273.089 225.562 273.505 225.189 274.036 224.912C274.567 224.635 275.245 224.496 276.069 224.496Z" fill="black"/>
<path d="M27.1618 271.811C28.1778 270.995 28.9738 270.327 29.5498 269.807C30.1258 269.279 30.6098 268.731 31.0018 268.163C31.4018 267.587 31.6018 267.023 31.6018 266.471C31.6018 265.951 31.4738 265.543 31.2178 265.247C30.9698 264.943 30.5658 264.791 30.0058 264.791C29.4618 264.791 29.0378 264.963 28.7338 265.307C28.4378 265.643 28.2778 266.095 28.2538 266.663H27.1978C27.2298 265.767 27.5018 265.075 28.0138 264.587C28.5258 264.099 29.1858 263.855 29.9938 263.855C30.8178 263.855 31.4698 264.083 31.9498 264.539C32.4378 264.995 32.6818 265.623 32.6818 266.423C32.6818 267.087 32.4818 267.735 32.0818 268.367C31.6898 268.991 31.2418 269.543 30.7378 270.023C30.2338 270.495 29.5898 271.047 28.8058 271.679H32.9338V272.591H27.1618V271.811ZM39.5361 264.863L36.2001 272.688H35.0961L38.4801 264.971H33.8481V264.035H39.5361V264.863Z" fill="black"/>
<path d="M66.3117 271.811C67.3277 270.995 68.1237 270.327 68.6997 269.807C69.2757 269.279 69.7597 268.731 70.1517 268.163C70.5517 267.587 70.7517 267.023 70.7517 266.471C70.7517 265.951 70.6237 265.543 70.3677 265.247C70.1197 264.943 69.7157 264.791 69.1557 264.791C68.6117 264.791 68.1877 264.963 67.8837 265.307C67.5877 265.643 67.4277 266.095 67.4037 266.663H66.3477C66.3797 265.767 66.6517 265.075 67.1637 264.587C67.6757 264.099 68.3357 263.855 69.1437 263.855C69.9677 263.855 70.6197 264.083 71.0997 264.539C71.5877 264.995 71.8317 265.623 71.8317 266.423C71.8317 267.087 71.6317 267.735 71.2317 268.367C70.8397 268.991 70.3917 269.543 69.8877 270.023C69.3837 270.495 68.7397 271.047 67.9557 271.679H72.0837V272.591H66.3117V271.811ZM74.9301 268.175C74.4821 267.999 74.1381 267.743 73.8981 267.407C73.6581 267.071 73.5381 266.663 73.5381 266.183C73.5381 265.751 73.6461 265.363 73.8621 265.019C74.0781 264.667 74.3981 264.391 74.8221 264.191C75.2541 263.983 75.7741 263.879 76.3821 263.879C76.9901 263.879 77.5061 263.983 77.9301 264.191C78.3621 264.391 78.6861 264.667 78.9021 265.019C79.1261 265.363 79.2381 265.751 79.2381 266.183C79.2381 266.647 79.1141 267.055 78.8661 267.407C78.6181 267.751 78.2781 268.007 77.8461 268.175C78.3421 268.327 78.7341 268.595 79.0221 268.979C79.3181 269.355 79.4661 269.811 79.4661 270.347C79.4661 270.867 79.3381 271.323 79.0821 271.715C78.8261 272.1 78.4621 272.4 77.9901 272.615C77.5261 272.824 76.9901 272.928 76.3821 272.928C75.7741 272.928 75.2381 272.824 74.7741 272.615C74.3181 272.4 73.9621 272.1 73.7061 271.715C73.4501 271.323 73.3221 270.867 73.3221 270.347C73.3221 269.811 73.4661 269.351 73.7541 268.967C74.0421 268.583 74.4341 268.319 74.9301 268.175ZM78.1821 266.315C78.1821 265.827 78.0221 265.451 77.7021 265.188C77.3821 264.923 76.9421 264.791 76.3821 264.791C75.8301 264.791 75.3941 264.923 75.0741 265.188C74.7541 265.451 74.5941 265.831 74.5941 266.327C74.5941 266.775 74.7581 267.135 75.0861 267.407C75.4221 267.679 75.8541 267.815 76.3821 267.815C76.9181 267.815 77.3501 267.679 77.6781 267.407C78.0141 267.127 78.1821 266.763 78.1821 266.315ZM76.3821 268.655C75.7901 268.655 75.3061 268.795 74.9301 269.075C74.5541 269.347 74.3661 269.759 74.3661 270.311C74.3661 270.823 74.5461 271.235 74.9061 271.547C75.2741 271.859 75.7661 272.015 76.3821 272.015C76.9981 272.015 77.4861 271.859 77.8461 271.547C78.2061 271.235 78.3861 270.823 78.3861 270.311C78.3861 269.775 78.2021 269.367 77.8341 269.087C77.4661 268.799 76.9821 268.655 76.3821 268.655Z" fill="black"/>
<path d="M105.962 271.811C106.978 270.995 107.774 270.327 108.35 269.807C108.926 269.279 109.41 268.731 109.802 268.163C110.202 267.587 110.402 267.023 110.402 266.471C110.402 265.951 110.274 265.543 110.018 265.247C109.77 264.943 109.366 264.791 108.806 264.791C108.262 264.791 107.838 264.963 107.534 265.307C107.238 265.643 107.078 266.095 107.054 266.663H105.998C106.03 265.767 106.302 265.075 106.814 264.587C107.326 264.099 107.986 263.855 108.794 263.855C109.618 263.855 110.27 264.083 110.75 264.539C111.238 264.995 111.482 265.623 111.482 266.423C111.482 267.087 111.282 267.735 110.882 268.367C110.49 268.991 110.042 269.543 109.538 270.023C109.034 270.495 108.39 271.047 107.606 271.679H111.734V272.591H105.962V271.811ZM114.4 270.359C114.48 270.815 114.664 271.167 114.952 271.415C115.248 271.663 115.644 271.787 116.14 271.787C116.804 271.787 117.292 271.527 117.604 271.007C117.924 270.487 118.076 269.611 118.06 268.379C117.892 268.739 117.612 269.023 117.22 269.231C116.828 269.431 116.392 269.531 115.912 269.531C115.376 269.531 114.896 269.423 114.472 269.207C114.056 268.983 113.728 268.659 113.488 268.235C113.248 267.811 113.128 267.299 113.128 266.699C113.128 265.843 113.376 265.155 113.872 264.635C114.368 264.107 115.072 263.843 115.984 263.843C117.104 263.843 117.888 264.207 118.336 264.935C118.792 265.663 119.02 266.747 119.02 268.187C119.02 269.195 118.928 270.027 118.744 270.683C118.568 271.339 118.264 271.839 117.832 272.183C117.408 272.527 116.824 272.7 116.08 272.7C115.264 272.7 114.628 272.479 114.172 272.039C113.716 271.599 113.456 271.039 113.392 270.359H114.4ZM116.092 268.607C116.628 268.607 117.068 268.443 117.412 268.115C117.756 267.779 117.928 267.327 117.928 266.759C117.928 266.159 117.76 265.675 117.424 265.307C117.088 264.939 116.616 264.755 116.008 264.755C115.448 264.755 115 264.931 114.664 265.283C114.336 265.635 114.172 266.099 114.172 266.675C114.172 267.259 114.336 267.727 114.664 268.079C114.992 268.431 115.468 268.607 116.092 268.607Z" fill="white"/>
<path d="M145.72 266.195C145.776 265.459 146.06 264.883 146.572 264.467C147.084 264.051 147.748 263.843 148.564 263.843C149.108 263.843 149.576 263.943 149.968 264.143C150.368 264.335 150.668 264.599 150.868 264.935C151.076 265.271 151.18 265.651 151.18 266.076C151.18 266.571 151.036 266.999 150.748 267.359C150.468 267.719 150.1 267.951 149.644 268.055V268.115C150.164 268.243 150.576 268.495 150.88 268.871C151.184 269.247 151.336 269.739 151.336 270.347C151.336 270.803 151.232 271.215 151.024 271.583C150.816 271.943 150.504 272.227 150.088 272.435C149.672 272.643 149.172 272.748 148.588 272.748C147.74 272.748 147.044 272.527 146.5 272.087C145.956 271.639 145.652 271.007 145.588 270.191H146.644C146.7 270.671 146.896 271.063 147.232 271.367C147.568 271.671 148.016 271.823 148.576 271.823C149.136 271.823 149.56 271.679 149.848 271.391C150.144 271.095 150.292 270.715 150.292 270.251C150.292 269.651 150.092 269.219 149.692 268.955C149.292 268.691 148.688 268.559 147.88 268.559H147.604V267.647H147.892C148.628 267.639 149.184 267.519 149.56 267.287C149.936 267.047 150.124 266.679 150.124 266.183C150.124 265.759 149.984 265.419 149.704 265.163C149.432 264.907 149.04 264.779 148.528 264.779C148.032 264.779 147.632 264.907 147.328 265.163C147.024 265.419 146.844 265.763 146.788 266.195H145.72ZM152.81 268.259C152.81 266.883 153.034 265.811 153.482 265.043C153.93 264.267 154.714 263.879 155.834 263.879C156.946 263.879 157.726 264.267 158.174 265.043C158.622 265.811 158.846 266.883 158.846 268.259C158.846 269.659 158.622 270.747 158.174 271.523C157.726 272.299 156.946 272.688 155.834 272.688C154.714 272.688 153.93 272.299 153.482 271.523C153.034 270.747 152.81 269.659 152.81 268.259ZM157.766 268.259C157.766 267.563 157.718 266.975 157.622 266.495C157.534 266.007 157.346 265.615 157.058 265.319C156.778 265.023 156.37 264.875 155.834 264.875C155.29 264.875 154.874 265.023 154.586 265.319C154.306 265.615 154.118 266.007 154.022 266.495C153.934 266.975 153.89 267.563 153.89 268.259C153.89 268.979 153.934 269.583 154.022 270.071C154.118 270.559 154.306 270.951 154.586 271.247C154.874 271.543 155.29 271.691 155.834 271.691C156.37 271.691 156.778 271.543 157.058 271.247C157.346 270.951 157.534 270.559 157.622 270.071C157.718 269.583 157.766 268.979 157.766 268.259Z" fill="black"/>
<path d="M187.37 266.195C187.426 265.459 187.71 264.883 188.222 264.467C188.734 264.051 189.398 263.843 190.214 263.843C190.758 263.843 191.226 263.943 191.618 264.143C192.018 264.335 192.318 264.599 192.518 264.935C192.726 265.271 192.83 265.651 192.83 266.076C192.83 266.571 192.686 266.999 192.398 267.359C192.118 267.719 191.75 267.951 191.294 268.055V268.115C191.814 268.243 192.226 268.495 192.53 268.871C192.834 269.247 192.986 269.739 192.986 270.347C192.986 270.803 192.882 271.215 192.674 271.583C192.466 271.943 192.154 272.227 191.738 272.435C191.322 272.643 190.822 272.748 190.238 272.748C189.39 272.748 188.694 272.527 188.15 272.087C187.606 271.639 187.302 271.007 187.238 270.191H188.294C188.35 270.671 188.546 271.063 188.882 271.367C189.218 271.671 189.666 271.823 190.226 271.823C190.786 271.823 191.21 271.679 191.498 271.391C191.794 271.095 191.942 270.715 191.942 270.251C191.942 269.651 191.742 269.219 191.342 268.955C190.942 268.691 190.338 268.559 189.53 268.559H189.254V267.647H189.542C190.278 267.639 190.834 267.519 191.21 267.287C191.586 267.047 191.774 266.679 191.774 266.183C191.774 265.759 191.634 265.419 191.354 265.163C191.082 264.907 190.69 264.779 190.178 264.779C189.682 264.779 189.282 264.907 188.978 265.163C188.674 265.419 188.494 265.763 188.438 266.195H187.37ZM194.172 265.007V264.011H196.428V272.688H195.324V265.007H194.172Z" fill="black"/>
<path d="M32.835 63.7177V72.0938H31.155V66.6457L28.911 72.0938H27.639L25.383 66.6457V72.0938H23.703V63.7177H25.611L28.275 69.9457L30.939 63.7177H32.835ZM37.448 72.2018C36.808 72.2018 36.232 72.0618 35.72 71.7817C35.208 71.4937 34.804 71.0897 34.508 70.5697C34.22 70.0497 34.076 69.4497 34.076 68.7697C34.076 68.0897 34.224 67.4897 34.52 66.9697C34.824 66.4497 35.236 66.0497 35.756 65.7697C36.276 65.4817 36.856 65.3377 37.496 65.3377C38.136 65.3377 38.716 65.4817 39.236 65.7697C39.756 66.0497 40.164 66.4497 40.46 66.9697C40.764 67.4897 40.916 68.0897 40.916 68.7697C40.916 69.4497 40.76 70.0497 40.448 70.5697C40.144 71.0897 39.728 71.4937 39.2 71.7817C38.68 72.0618 38.096 72.2018 37.448 72.2018ZM37.448 70.7377C37.752 70.7377 38.036 70.6657 38.3 70.5217C38.572 70.3697 38.788 70.1457 38.948 69.8497C39.108 69.5537 39.188 69.1937 39.188 68.7697C39.188 68.1377 39.02 67.6537 38.684 67.3177C38.356 66.9737 37.952 66.8017 37.472 66.8017C36.992 66.8017 36.588 66.9737 36.26 67.3177C35.94 67.6537 35.78 68.1377 35.78 68.7697C35.78 69.4017 35.936 69.8897 36.248 70.2337C36.568 70.5697 36.968 70.7377 37.448 70.7377Z" fill="black"/>
<path d="M71.1496 63.7177V65.0737H68.9176V72.0938H67.2376V65.0737H65.0056V63.7177H71.1496ZM78.6514 65.4457V72.0938H76.9594V71.2537C76.7434 71.5417 76.4594 71.7697 76.1074 71.9377C75.7634 72.0978 75.3874 72.1778 74.9794 72.1778C74.4594 72.1778 73.9994 72.0697 73.5994 71.8537C73.1994 71.6297 72.8834 71.3057 72.6514 70.8817C72.4274 70.4497 72.3154 69.9377 72.3154 69.3457V65.4457H73.9954V69.1057C73.9954 69.6337 74.1274 70.0417 74.3914 70.3298C74.6554 70.6097 75.0154 70.7497 75.4714 70.7497C75.9354 70.7497 76.2994 70.6097 76.5634 70.3298C76.8274 70.0417 76.9594 69.6337 76.9594 69.1057V65.4457H78.6514Z" fill="black"/>
<path d="M113.437 63.7177L111.097 72.0938H109.117L107.545 66.1297L105.901 72.0938L103.933 72.1058L101.677 63.7177H103.477L104.953 70.2217L106.657 63.7177H108.529L110.137 70.1857L111.625 63.7177H113.437ZM120.714 68.6257C120.714 68.8657 120.698 69.0817 120.666 69.2737H115.806C115.846 69.7537 116.014 70.1297 116.31 70.4017C116.606 70.6737 116.97 70.8097 117.402 70.8097C118.026 70.8097 118.47 70.5417 118.734 70.0057H120.546C120.354 70.6457 119.986 71.1737 119.442 71.5897C118.898 71.9977 118.23 72.2018 117.438 72.2018C116.798 72.2018 116.222 72.0618 115.71 71.7817C115.206 71.4937 114.81 71.0897 114.522 70.5697C114.242 70.0497 114.102 69.4497 114.102 68.7697C114.102 68.0817 114.242 67.4777 114.522 66.9577C114.802 66.4377 115.194 66.0377 115.698 65.7578C116.202 65.4777 116.782 65.3377 117.438 65.3377C118.07 65.3377 118.634 65.4737 119.13 65.7457C119.634 66.0177 120.022 66.4057 120.294 66.9097C120.574 67.4057 120.714 67.9777 120.714 68.6257ZM118.974 68.1457C118.966 67.7137 118.81 67.3697 118.506 67.1137C118.202 66.8497 117.83 66.7177 117.39 66.7177C116.974 66.7177 116.622 66.8457 116.334 67.1017C116.054 67.3497 115.882 67.6977 115.818 68.1457H118.974Z" fill="black"/>
<path d="M150.45 63.7177V65.0737H148.218V72.0938H146.538V65.0737H144.306V63.7177H150.45ZM155.42 65.3497C155.924 65.3497 156.372 65.4617 156.764 65.6857C157.156 65.9017 157.46 66.2257 157.676 66.6577C157.9 67.0817 158.012 67.5937 158.012 68.1937V72.0938H156.332V68.4217C156.332 67.8937 156.2 67.4897 155.936 67.2097C155.672 66.9217 155.312 66.7777 154.856 66.7777C154.392 66.7777 154.024 66.9217 153.752 67.2097C153.488 67.4897 153.356 67.8937 153.356 68.4217V72.0938H151.676V63.2137H153.356V66.2737C153.572 65.9857 153.86 65.7617 154.22 65.6017C154.58 65.4337 154.98 65.3497 155.42 65.3497Z" fill="black"/>
<path d="M191.669 63.7177V65.0737H188.177V67.2217H190.853V68.5537H188.177V72.0938H186.497V63.7177H191.669ZM194.54 66.4777C194.756 66.1257 195.036 65.8497 195.38 65.6497C195.732 65.4497 196.132 65.3497 196.58 65.3497V67.1137H196.136C195.608 67.1137 195.208 67.2377 194.936 67.4857C194.672 67.7337 194.54 68.1657 194.54 68.7817V72.0938H192.86V65.4457H194.54V66.4777Z" fill="black"/>
<path d="M226.561 72.1778C225.977 72.1778 225.449 72.0777 224.977 71.8777C224.513 71.6777 224.145 71.3897 223.873 71.0137C223.601 70.6377 223.461 70.1937 223.453 69.6817H225.253C225.277 70.0257 225.397 70.2977 225.613 70.4977C225.837 70.6977 226.141 70.7977 226.525 70.7977C226.917 70.7977 227.225 70.7057 227.449 70.5217C227.673 70.3297 227.785 70.0817 227.785 69.7777C227.785 69.5297 227.709 69.3257 227.557 69.1657C227.405 69.0057 227.213 68.8817 226.981 68.7937C226.757 68.6977 226.445 68.5937 226.045 68.4817C225.501 68.3217 225.057 68.1657 224.713 68.0137C224.377 67.8537 224.085 67.6177 223.837 67.3057C223.597 66.9857 223.477 66.5617 223.477 66.0338C223.477 65.5377 223.601 65.1057 223.849 64.7377C224.097 64.3697 224.445 64.0897 224.893 63.8977C225.341 63.6977 225.853 63.5977 226.429 63.5977C227.293 63.5977 227.993 63.8097 228.529 64.2337C229.073 64.6497 229.373 65.2337 229.429 65.9857H227.581C227.565 65.6977 227.441 65.4617 227.209 65.2777C226.985 65.0857 226.685 64.9897 226.309 64.9897C225.981 64.9897 225.717 65.0737 225.517 65.2417C225.325 65.4097 225.229 65.6537 225.229 65.9737C225.229 66.1977 225.301 66.3857 225.445 66.5377C225.597 66.6817 225.781 66.8017 225.997 66.8977C226.221 66.9857 226.533 67.0897 226.933 67.2097C227.477 67.3697 227.921 67.5297 228.265 67.6897C228.609 67.8497 228.905 68.0897 229.153 68.4097C229.401 68.7297 229.525 69.1497 229.525 69.6697C229.525 70.1177 229.409 70.5337 229.177 70.9177C228.945 71.3017 228.605 71.6097 228.157 71.8417C227.709 72.0657 227.177 72.1778 226.561 72.1778ZM230.549 68.7457C230.549 68.0737 230.681 67.4777 230.945 66.9577C231.217 66.4377 231.581 66.0377 232.037 65.7578C232.501 65.4777 233.017 65.3377 233.585 65.3377C234.081 65.3377 234.513 65.4377 234.881 65.6377C235.257 65.8377 235.557 66.0897 235.781 66.3937V65.4457H237.473V72.0938H235.781V71.1217C235.565 71.4337 235.265 71.6937 234.881 71.9017C234.505 72.1018 234.069 72.2018 233.573 72.2018C233.013 72.2018 232.501 72.0578 232.037 71.7697C231.581 71.4817 231.217 71.0777 230.945 70.5577C230.681 70.0297 230.549 69.4257 230.549 68.7457ZM235.781 68.7697C235.781 68.3617 235.701 68.0137 235.541 67.7257C235.381 67.4297 235.165 67.2057 234.893 67.0537C234.621 66.8937 234.329 66.8137 234.017 66.8137C233.705 66.8137 233.417 66.8897 233.153 67.0417C232.889 67.1937 232.673 67.4177 232.505 67.7137C232.345 68.0017 232.265 68.3457 232.265 68.7457C232.265 69.1457 232.345 69.4977 232.505 69.8017C232.673 70.0977 232.889 70.3257 233.153 70.4857C233.425 70.6457 233.713 70.7257 234.017 70.7257C234.329 70.7257 234.621 70.6497 234.893 70.4977C235.165 70.3377 235.381 70.1137 235.541 69.8257C235.701 69.5297 235.781 69.1777 235.781 68.7697Z" fill="black"/>
<path d="M267.961 67.8789C267.961 67.7148 267.936 67.5684 267.885 67.4395C267.838 67.3066 267.75 67.1875 267.621 67.082C267.496 66.9727 267.318 66.8672 267.088 66.7656C266.861 66.6602 266.568 66.5508 266.209 66.4375C265.811 66.3125 265.439 66.1719 265.096 66.0156C264.752 65.8594 264.449 65.6777 264.188 65.4707C263.93 65.2637 263.729 65.0254 263.584 64.7559C263.439 64.4824 263.367 64.166 263.367 63.8066C263.367 63.4551 263.441 63.1348 263.59 62.8457C263.742 62.5566 263.957 62.3086 264.234 62.1016C264.512 61.8906 264.838 61.7285 265.213 61.6152C265.592 61.502 266.01 61.4453 266.467 61.4453C267.1 61.4453 267.646 61.5605 268.107 61.791C268.572 62.0215 268.932 62.334 269.186 62.7285C269.439 63.123 269.566 63.5664 269.566 64.0586H267.961C267.961 63.793 267.904 63.5586 267.791 63.3555C267.682 63.1523 267.514 62.9922 267.287 62.875C267.064 62.7578 266.783 62.6992 266.443 62.6992C266.115 62.6992 265.842 62.748 265.623 62.8457C265.408 62.9434 265.246 63.0762 265.137 63.2441C265.031 63.4121 264.979 63.5996 264.979 63.8066C264.979 63.9629 265.016 64.1035 265.09 64.2285C265.164 64.3496 265.275 64.4648 265.424 64.5742C265.572 64.6797 265.756 64.7793 265.975 64.873C266.197 64.9629 266.455 65.0527 266.748 65.1426C267.217 65.2832 267.627 65.4395 267.979 65.6113C268.334 65.7832 268.629 65.9785 268.863 66.1973C269.102 66.416 269.279 66.6621 269.396 66.9355C269.518 67.209 269.578 67.5195 269.578 67.8672C269.578 68.2344 269.506 68.5625 269.361 68.8516C269.217 69.1406 269.01 69.3867 268.74 69.5898C268.471 69.793 268.146 69.9473 267.768 70.0527C267.393 70.1582 266.973 70.2109 266.508 70.2109C266.094 70.2109 265.684 70.1562 265.277 70.0469C264.875 69.9336 264.51 69.7656 264.182 69.543C263.854 69.3164 263.592 69.0312 263.396 68.6875C263.201 68.3398 263.104 67.9336 263.104 67.4688H264.721C264.721 67.7383 264.764 67.9688 264.85 68.1602C264.939 68.3477 265.064 68.502 265.225 68.623C265.389 68.7402 265.58 68.8262 265.799 68.8809C266.018 68.9355 266.254 68.9629 266.508 68.9629C266.836 68.9629 267.105 68.918 267.316 68.8281C267.531 68.7344 267.691 68.6055 267.797 68.4414C267.906 68.2773 267.961 68.0898 267.961 67.8789ZM274.477 68.5879V63.7539H276.035V70.0938H274.57L274.477 68.5879ZM274.676 67.2754L275.156 67.2637C275.156 67.6895 275.109 68.082 275.016 68.4414C274.922 68.8008 274.775 69.1133 274.576 69.3789C274.381 69.6406 274.133 69.8457 273.832 69.9941C273.531 70.1387 273.176 70.2109 272.766 70.2109C272.453 70.2109 272.168 70.168 271.91 70.082C271.652 69.9922 271.43 69.8535 271.242 69.666C271.059 69.4746 270.916 69.2305 270.814 68.9336C270.713 68.6328 270.662 68.2715 270.662 67.8496V63.7539H272.209V67.8613C272.209 68.0723 272.232 68.248 272.279 68.3887C272.33 68.5293 272.398 68.6445 272.484 68.7344C272.574 68.8203 272.678 68.8828 272.795 68.9219C272.916 68.957 273.045 68.9746 273.182 68.9746C273.557 68.9746 273.852 68.9004 274.066 68.752C274.285 68.5996 274.441 68.3965 274.535 68.1426C274.629 67.8848 274.676 67.5957 274.676 67.2754Z" fill="black"/>
<path d="M106.67 30.25H104.592L104.606 29.1768H106.67C107.381 29.1768 107.974 29.0286 108.448 28.7324C108.922 28.4316 109.277 28.0124 109.514 27.4746C109.756 26.9323 109.876 26.2988 109.876 25.5742V24.9658C109.876 24.3962 109.808 23.8903 109.671 23.4482C109.535 23.0016 109.334 22.6257 109.07 22.3203C108.806 22.0104 108.482 21.7757 108.099 21.6162C107.721 21.4567 107.286 21.377 106.793 21.377H104.551V20.2969H106.793C107.445 20.2969 108.04 20.4062 108.578 20.625C109.115 20.8392 109.578 21.1514 109.965 21.5615C110.357 21.9671 110.658 22.4593 110.868 23.0381C111.077 23.6123 111.182 24.2594 111.182 24.9795V25.5742C111.182 26.2943 111.077 26.9437 110.868 27.5225C110.658 28.0967 110.355 28.5866 109.958 28.9922C109.567 29.3978 109.093 29.71 108.537 29.9287C107.985 30.1429 107.363 30.25 106.67 30.25ZM105.296 20.2969V30.25H103.977V20.2969H105.296ZM116.042 30.3867C115.528 30.3867 115.06 30.3001 114.641 30.127C114.226 29.9492 113.869 29.7008 113.568 29.3818C113.272 29.0628 113.044 28.6846 112.884 28.2471C112.725 27.8096 112.645 27.3311 112.645 26.8115V26.5244C112.645 25.9229 112.734 25.3874 112.912 24.918C113.089 24.444 113.331 24.043 113.636 23.7148C113.942 23.3867 114.288 23.1383 114.675 22.9697C115.063 22.8011 115.464 22.7168 115.878 22.7168C116.407 22.7168 116.863 22.8079 117.246 22.9902C117.633 23.1725 117.95 23.4277 118.196 23.7559C118.442 24.0794 118.624 24.4622 118.743 24.9043C118.861 25.3418 118.92 25.8203 118.92 26.3398V26.9072H113.397V25.875H117.656V25.7793C117.638 25.4512 117.569 25.1322 117.451 24.8223C117.337 24.5124 117.154 24.2572 116.904 24.0566C116.653 23.8561 116.311 23.7559 115.878 23.7559C115.591 23.7559 115.327 23.8174 115.085 23.9404C114.844 24.0589 114.637 24.2367 114.463 24.4736C114.29 24.7106 114.156 25 114.06 25.3418C113.964 25.6836 113.917 26.0778 113.917 26.5244V26.8115C113.917 27.1624 113.964 27.4928 114.06 27.8027C114.16 28.1081 114.304 28.377 114.491 28.6094C114.682 28.8418 114.912 29.0241 115.181 29.1562C115.455 29.2884 115.764 29.3545 116.111 29.3545C116.557 29.3545 116.936 29.2633 117.246 29.0811C117.556 28.8988 117.827 28.6549 118.059 28.3496L118.825 28.958C118.665 29.1995 118.462 29.4297 118.216 29.6484C117.97 29.8672 117.667 30.0449 117.307 30.1816C116.952 30.3184 116.53 30.3867 116.042 30.3867ZM123.357 29.3477C123.658 29.3477 123.936 29.2861 124.191 29.1631C124.446 29.04 124.656 28.8714 124.82 28.6572C124.984 28.4385 125.077 28.1901 125.1 27.9121H126.303C126.28 28.3496 126.132 28.7575 125.859 29.1357C125.59 29.5094 125.237 29.8125 124.799 30.0449C124.362 30.2728 123.881 30.3867 123.357 30.3867C122.801 30.3867 122.316 30.2887 121.901 30.0928C121.491 29.8968 121.149 29.6279 120.875 29.2861C120.607 28.9443 120.404 28.5524 120.267 28.1104C120.135 27.6637 120.069 27.1921 120.069 26.6953V26.4082C120.069 25.9115 120.135 25.4421 120.267 25C120.404 24.5534 120.607 24.1592 120.875 23.8174C121.149 23.4756 121.491 23.2067 121.901 23.0107C122.316 22.8148 122.801 22.7168 123.357 22.7168C123.936 22.7168 124.442 22.8353 124.875 23.0723C125.307 23.3047 125.647 23.6237 125.893 24.0293C126.144 24.4303 126.28 24.8861 126.303 25.3965H125.1C125.077 25.0911 124.991 24.8154 124.84 24.5693C124.694 24.3232 124.494 24.1273 124.239 23.9814C123.988 23.8311 123.694 23.7559 123.357 23.7559C122.97 23.7559 122.644 23.8333 122.379 23.9883C122.12 24.1387 121.912 24.3438 121.757 24.6035C121.607 24.8587 121.498 25.1436 121.429 25.458C121.365 25.7679 121.333 26.0846 121.333 26.4082V26.6953C121.333 27.0189 121.365 27.3379 121.429 27.6523C121.493 27.9668 121.6 28.2516 121.75 28.5068C121.905 28.762 122.113 28.9671 122.373 29.1221C122.637 29.2725 122.965 29.3477 123.357 29.3477ZM130.794 30.3867C130.279 30.3867 129.812 30.3001 129.393 30.127C128.978 29.9492 128.621 29.7008 128.32 29.3818C128.024 29.0628 127.796 28.6846 127.636 28.2471C127.477 27.8096 127.397 27.3311 127.397 26.8115V26.5244C127.397 25.9229 127.486 25.3874 127.664 24.918C127.841 24.444 128.083 24.043 128.388 23.7148C128.694 23.3867 129.04 23.1383 129.427 22.9697C129.815 22.8011 130.216 22.7168 130.63 22.7168C131.159 22.7168 131.615 22.8079 131.998 22.9902C132.385 23.1725 132.702 23.4277 132.948 23.7559C133.194 24.0794 133.376 24.4622 133.495 24.9043C133.613 25.3418 133.672 25.8203 133.672 26.3398V26.9072H128.149V25.875H132.408V25.7793C132.389 25.4512 132.321 25.1322 132.203 24.8223C132.089 24.5124 131.906 24.2572 131.656 24.0566C131.405 23.8561 131.063 23.7559 130.63 23.7559C130.343 23.7559 130.079 23.8174 129.837 23.9404C129.596 24.0589 129.389 24.2367 129.215 24.4736C129.042 24.7106 128.908 25 128.812 25.3418C128.716 25.6836 128.668 26.0778 128.668 26.5244V26.8115C128.668 27.1624 128.716 27.4928 128.812 27.8027C128.912 28.1081 129.056 28.377 129.243 28.6094C129.434 28.8418 129.664 29.0241 129.933 29.1562C130.207 29.2884 130.516 29.3545 130.863 29.3545C131.309 29.3545 131.688 29.2633 131.998 29.0811C132.307 28.8988 132.579 28.6549 132.811 28.3496L133.577 28.958C133.417 29.1995 133.214 29.4297 132.968 29.6484C132.722 29.8672 132.419 30.0449 132.059 30.1816C131.704 30.3184 131.282 30.3867 130.794 30.3867ZM136.407 24.3232V30.25H135.135V22.8535H136.338L136.407 24.3232ZM136.147 26.2715L135.559 26.251C135.564 25.7451 135.63 25.278 135.757 24.8496C135.885 24.4167 136.074 24.0407 136.325 23.7217C136.575 23.4027 136.888 23.1566 137.261 22.9834C137.635 22.8057 138.068 22.7168 138.56 22.7168C138.906 22.7168 139.225 22.7669 139.517 22.8672C139.809 22.9629 140.062 23.1156 140.276 23.3252C140.49 23.5348 140.656 23.8037 140.775 24.1318C140.893 24.46 140.953 24.8564 140.953 25.3213V30.25H139.688V25.3828C139.688 24.9954 139.622 24.6855 139.49 24.4531C139.362 24.2207 139.18 24.0521 138.943 23.9473C138.706 23.8379 138.428 23.7832 138.109 23.7832C137.735 23.7832 137.423 23.8493 137.172 23.9814C136.922 24.1136 136.721 24.2959 136.571 24.5283C136.42 24.7607 136.311 25.0273 136.243 25.3281C136.179 25.6243 136.147 25.9388 136.147 26.2715ZM140.939 25.5742L140.091 25.834C140.096 25.4284 140.162 25.0387 140.29 24.665C140.422 24.2913 140.611 23.9587 140.857 23.667C141.108 23.3753 141.415 23.1452 141.78 22.9766C142.144 22.8034 142.561 22.7168 143.031 22.7168C143.427 22.7168 143.778 22.7692 144.083 22.874C144.393 22.9788 144.653 23.1406 144.863 23.3594C145.077 23.5736 145.239 23.8493 145.348 24.1865C145.458 24.5238 145.512 24.9248 145.512 25.3896V30.25H144.241V25.376C144.241 24.9613 144.175 24.64 144.042 24.4121C143.915 24.1797 143.733 24.0179 143.496 23.9268C143.263 23.8311 142.985 23.7832 142.662 23.7832C142.384 23.7832 142.138 23.8311 141.923 23.9268C141.709 24.0225 141.529 24.1546 141.383 24.3232C141.237 24.4873 141.126 24.6764 141.048 24.8906C140.975 25.1048 140.939 25.3327 140.939 25.5742ZM147.419 19.75H148.691V28.8145L148.582 30.25H147.419V19.75ZM153.688 26.4902V26.6338C153.688 27.1715 153.624 27.6706 153.497 28.1309C153.369 28.5866 153.182 28.9831 152.936 29.3203C152.69 29.6576 152.389 29.9196 152.034 30.1064C151.678 30.2933 151.27 30.3867 150.81 30.3867C150.341 30.3867 149.928 30.307 149.573 30.1475C149.222 29.9834 148.926 29.7487 148.684 29.4434C148.443 29.138 148.249 28.7689 148.103 28.3359C147.962 27.903 147.864 27.4154 147.809 26.873V26.2441C147.864 25.6973 147.962 25.2074 148.103 24.7744C148.249 24.3415 148.443 23.9723 148.684 23.667C148.926 23.3571 149.222 23.1224 149.573 22.9629C149.924 22.7988 150.332 22.7168 150.796 22.7168C151.261 22.7168 151.674 22.8079 152.034 22.9902C152.394 23.168 152.694 23.4232 152.936 23.7559C153.182 24.0885 153.369 24.4873 153.497 24.9521C153.624 25.4124 153.688 25.9251 153.688 26.4902ZM152.417 26.6338V26.4902C152.417 26.1211 152.382 25.7747 152.314 25.4512C152.246 25.123 152.136 24.8359 151.986 24.5898C151.835 24.3392 151.637 24.1432 151.391 24.002C151.145 23.8561 150.842 23.7832 150.482 23.7832C150.163 23.7832 149.885 23.8379 149.648 23.9473C149.416 24.0566 149.217 24.2048 149.053 24.3916C148.889 24.5739 148.755 24.7835 148.65 25.0205C148.55 25.2529 148.474 25.4945 148.424 25.7451V27.3926C148.497 27.7116 148.616 28.0192 148.78 28.3154C148.948 28.6071 149.172 28.8464 149.45 29.0332C149.732 29.2201 150.081 29.3135 150.496 29.3135C150.837 29.3135 151.129 29.2451 151.371 29.1084C151.617 28.9671 151.815 28.7734 151.965 28.5273C152.12 28.2812 152.234 27.9964 152.307 27.6729C152.38 27.3493 152.417 27.0029 152.417 26.6338ZM158.357 30.3867C157.842 30.3867 157.375 30.3001 156.956 30.127C156.541 29.9492 156.183 29.7008 155.882 29.3818C155.586 29.0628 155.358 28.6846 155.199 28.2471C155.039 27.8096 154.959 27.3311 154.959 26.8115V26.5244C154.959 25.9229 155.048 25.3874 155.226 24.918C155.404 24.444 155.645 24.043 155.951 23.7148C156.256 23.3867 156.602 23.1383 156.99 22.9697C157.377 22.8011 157.778 22.7168 158.193 22.7168C158.722 22.7168 159.177 22.8079 159.56 22.9902C159.947 23.1725 160.264 23.4277 160.51 23.7559C160.756 24.0794 160.939 24.4622 161.057 24.9043C161.176 25.3418 161.235 25.8203 161.235 26.3398V26.9072H155.711V25.875H159.97V25.7793C159.952 25.4512 159.884 25.1322 159.765 24.8223C159.651 24.5124 159.469 24.2572 159.218 24.0566C158.968 23.8561 158.626 23.7559 158.193 23.7559C157.906 23.7559 157.641 23.8174 157.4 23.9404C157.158 24.0589 156.951 24.2367 156.778 24.4736C156.605 24.7106 156.47 25 156.375 25.3418C156.279 25.6836 156.231 26.0778 156.231 26.5244V26.8115C156.231 27.1624 156.279 27.4928 156.375 27.8027C156.475 28.1081 156.618 28.377 156.805 28.6094C156.997 28.8418 157.227 29.0241 157.496 29.1562C157.769 29.2884 158.079 29.3545 158.425 29.3545C158.872 29.3545 159.25 29.2633 159.56 29.0811C159.87 28.8988 160.141 28.6549 160.374 28.3496L161.139 28.958C160.98 29.1995 160.777 29.4297 160.531 29.6484C160.285 29.8672 159.982 30.0449 159.622 30.1816C159.266 30.3184 158.845 30.3867 158.357 30.3867ZM163.976 24.0156V30.25H162.711V22.8535H163.942L163.976 24.0156ZM166.287 22.8125L166.28 23.9883C166.175 23.9655 166.075 23.9518 165.979 23.9473C165.888 23.9382 165.783 23.9336 165.665 23.9336C165.373 23.9336 165.115 23.9792 164.892 24.0703C164.669 24.1615 164.48 24.2891 164.325 24.4531C164.17 24.6172 164.047 24.8132 163.956 25.041C163.869 25.2643 163.812 25.5104 163.785 25.7793L163.429 25.9844C163.429 25.5378 163.472 25.1185 163.559 24.7266C163.65 24.3346 163.789 23.9883 163.976 23.6875C164.163 23.3822 164.4 23.1452 164.687 22.9766C164.979 22.8034 165.325 22.7168 165.726 22.7168C165.817 22.7168 165.922 22.7282 166.041 22.751C166.159 22.7692 166.241 22.7897 166.287 22.8125ZM167.756 28.7461V29.7646C167.756 30.1794 167.652 30.6169 167.442 31.0771C167.232 31.542 166.938 31.9294 166.56 32.2393L165.842 31.7402C165.988 31.5397 166.111 31.3346 166.211 31.125C166.312 30.9199 166.387 30.7057 166.437 30.4824C166.492 30.2637 166.519 30.0312 166.519 29.7852V28.7461H167.756ZM179.227 29.2109V30.25H172.712V29.3408L175.973 25.7109C176.374 25.2643 176.684 24.8861 176.903 24.5762C177.126 24.2617 177.281 23.9814 177.368 23.7354C177.459 23.4847 177.504 23.2295 177.504 22.9697C177.504 22.6416 177.436 22.3454 177.299 22.0811C177.167 21.8122 176.971 21.598 176.711 21.4385C176.452 21.279 176.137 21.1992 175.768 21.1992C175.326 21.1992 174.957 21.2858 174.661 21.459C174.369 21.6276 174.15 21.8646 174.004 22.1699C173.859 22.4753 173.786 22.8262 173.786 23.2227H172.521C172.521 22.6621 172.644 22.1494 172.89 21.6846C173.136 21.2197 173.501 20.8506 173.984 20.5771C174.467 20.2992 175.062 20.1602 175.768 20.1602C176.397 20.1602 176.935 20.2718 177.381 20.4951C177.828 20.7139 178.17 21.0238 178.407 21.4248C178.648 21.8213 178.769 22.2861 178.769 22.8193C178.769 23.111 178.719 23.4072 178.619 23.708C178.523 24.0042 178.389 24.3005 178.215 24.5967C178.047 24.8929 177.848 25.1846 177.621 25.4717C177.397 25.7588 177.158 26.0413 176.903 26.3193L174.237 29.2109H179.227ZM186.829 24.4805V25.998C186.829 26.8138 186.756 27.502 186.61 28.0625C186.464 28.623 186.254 29.0742 185.981 29.416C185.708 29.7578 185.377 30.0062 184.99 30.1611C184.607 30.3115 184.174 30.3867 183.691 30.3867C183.308 30.3867 182.955 30.3389 182.631 30.2432C182.308 30.1475 182.016 29.9948 181.756 29.7852C181.501 29.571 181.282 29.293 181.1 28.9512C180.918 28.6094 180.779 28.1947 180.683 27.707C180.587 27.2194 180.54 26.6497 180.54 25.998V24.4805C180.54 23.6647 180.612 22.9811 180.758 22.4297C180.909 21.8783 181.121 21.4362 181.394 21.1035C181.667 20.7663 181.996 20.5247 182.378 20.3789C182.766 20.2331 183.199 20.1602 183.677 20.1602C184.065 20.1602 184.42 20.208 184.744 20.3037C185.072 20.3949 185.363 20.543 185.619 20.748C185.874 20.9486 186.09 21.2174 186.268 21.5547C186.45 21.8874 186.589 22.2952 186.685 22.7783C186.781 23.2614 186.829 23.8288 186.829 24.4805ZM185.557 26.2031V24.2686C185.557 23.8219 185.53 23.43 185.475 23.0928C185.425 22.751 185.35 22.4593 185.25 22.2178C185.149 21.9762 185.022 21.7803 184.867 21.6299C184.716 21.4795 184.541 21.3701 184.34 21.3018C184.144 21.2288 183.923 21.1924 183.677 21.1924C183.376 21.1924 183.11 21.2493 182.877 21.3633C182.645 21.4727 182.449 21.6481 182.29 21.8896C182.135 22.1312 182.016 22.4479 181.934 22.8398C181.852 23.2318 181.811 23.708 181.811 24.2686V26.2031C181.811 26.6497 181.836 27.0439 181.886 27.3857C181.941 27.7275 182.021 28.0238 182.125 28.2744C182.23 28.5205 182.358 28.7233 182.508 28.8828C182.659 29.0423 182.832 29.1608 183.028 29.2383C183.228 29.3112 183.449 29.3477 183.691 29.3477C184.001 29.3477 184.272 29.2884 184.504 29.1699C184.737 29.0514 184.931 28.8669 185.085 28.6162C185.245 28.361 185.363 28.0352 185.441 27.6387C185.518 27.2376 185.557 26.7591 185.557 26.2031ZM194.977 29.2109V30.25H188.462V29.3408L191.723 25.7109C192.124 25.2643 192.434 24.8861 192.653 24.5762C192.876 24.2617 193.031 23.9814 193.118 23.7354C193.209 23.4847 193.254 23.2295 193.254 22.9697C193.254 22.6416 193.186 22.3454 193.049 22.0811C192.917 21.8122 192.721 21.598 192.461 21.4385C192.202 21.279 191.887 21.1992 191.518 21.1992C191.076 21.1992 190.707 21.2858 190.411 21.459C190.119 21.6276 189.9 21.8646 189.754 22.1699C189.609 22.4753 189.536 22.8262 189.536 23.2227H188.271C188.271 22.6621 188.394 22.1494 188.64 21.6846C188.886 21.2197 189.251 20.8506 189.734 20.5771C190.217 20.2992 190.812 20.1602 191.518 20.1602C192.147 20.1602 192.685 20.2718 193.131 20.4951C193.578 20.7139 193.92 21.0238 194.157 21.4248C194.398 21.8213 194.519 22.2861 194.519 22.8193C194.519 23.111 194.469 23.4072 194.369 23.708C194.273 24.0042 194.139 24.3005 193.965 24.5967C193.797 24.8929 193.598 25.1846 193.371 25.4717C193.147 25.7588 192.908 26.0413 192.653 26.3193L189.987 29.2109H194.977ZM200.487 20.2422V30.25H199.222V21.8213L196.672 22.751V21.6094L200.289 20.2422H200.487Z" fill="#1C1C1C"/>
<path d="M268.502 22.413H271.453L274.239 25.4462L271.453 28.4795H268.502L271.302 25.4462L268.502 22.413Z" fill="black"/>
<path d="M36.4976 22.413H33.5468L30.7606 25.4462L33.5468 28.4795H36.4976L33.6977 25.4462L36.4976 22.413Z" fill="black"/>
</g>
<defs>
<clipPath id="clip0_103_21">
<rect width="305" height="308" rx="8" fill="white"/>
</clipPath>
</defs>
</svg>
