<svg width="310" height="209" viewBox="0 0 310 209" fill="none" xmlns="http://www.w3.org/2000/svg">
<path d="M179.499 161.868C165.232 170.098 165.232 183.453 179.499 191.69C193.765 199.928 216.885 199.928 231.152 191.69C245.419 183.453 245.412 170.098 231.152 161.868C216.892 153.638 193.758 153.631 179.499 161.868Z" fill="#EBEBEB"/>
<path d="M29.2871 43.8096L67.506 31.9241L38.1035 52.293L29.2871 43.8096Z" fill="#2642CA"/>
<path d="M67.5062 31.9244L26.3413 38.7141L17.5249 30.2234L67.5062 31.9244Z" fill="#2642CA"/>
<path d="M26.3408 38.7137V48.8982L29.2869 43.8096L67.5057 31.9241L26.3408 38.7137Z" fill="#455A64"/>
<path d="M26.3408 48.8984L32.2257 46.64L29.2869 43.8098L26.3408 48.8984Z" fill="#2642CA"/>
<path d="M29.2871 43.8098L32.2259 46.64L31.2849 46.9947L29.2871 43.8098Z" fill="#455A64"/>
<path d="M20.0071 47.3639C19.8854 47.3662 19.7665 47.3275 19.6694 47.254C19.5723 47.1806 19.5028 47.0766 19.4719 46.9589C19.441 46.8411 19.4506 46.7164 19.4991 46.6048C19.5476 46.4931 19.6322 46.401 19.7393 46.3433C20.3908 45.9813 21.0495 45.6194 21.7009 45.3371C21.7655 45.3022 21.8365 45.2807 21.9097 45.274C21.9828 45.2673 22.0566 45.2755 22.1264 45.2981C22.1963 45.3207 22.2609 45.3573 22.3162 45.4056C22.3715 45.4539 22.4165 45.5129 22.4484 45.5791C22.4802 45.6453 22.4983 45.7172 22.5016 45.7906C22.5048 45.864 22.4931 45.9372 22.4673 46.006C22.4414 46.0747 22.4018 46.1375 22.3509 46.1905C22.3001 46.2435 22.239 46.2856 22.1714 46.3143C21.5417 46.6183 20.8975 46.9441 20.2677 47.2987C20.1872 47.3406 20.0979 47.3629 20.0071 47.3639Z" fill="#E0E0E0"/>
<path d="M13.3261 105.821C13.2152 105.822 13.1066 105.79 13.0149 105.727C11.8377 104.897 10.7224 103.983 9.67796 102.991C9.61177 102.948 9.55574 102.891 9.51378 102.824C9.47181 102.758 9.44492 102.682 9.43498 102.604C9.42503 102.526 9.43228 102.446 9.4562 102.371C9.48012 102.296 9.52015 102.227 9.5735 102.169C9.62685 102.111 9.69223 102.065 9.76509 102.034C9.83795 102.004 9.91655 101.99 9.9954 101.993C10.0742 101.996 10.1514 102.017 10.2216 102.053C10.2918 102.089 10.3533 102.14 10.4018 102.202C11.4092 103.158 12.4858 104.039 13.6229 104.837C13.7166 104.904 13.7866 104.999 13.8226 105.108C13.8587 105.218 13.8591 105.336 13.8236 105.446C13.7881 105.555 13.7187 105.651 13.6254 105.718C13.532 105.786 13.4196 105.822 13.3044 105.821H13.3261ZM7.6512 100.552C7.57106 100.553 7.49174 100.536 7.41908 100.502C7.34642 100.468 7.28228 100.418 7.23138 100.356C6.31929 99.2431 5.4895 98.065 4.7486 96.8312C4.67373 96.7074 4.65111 96.5589 4.68573 96.4184C4.72034 96.2779 4.80936 96.1569 4.93318 96.082C5.057 96.0071 5.2055 95.9845 5.346 96.0191C5.48649 96.0538 5.60749 96.1428 5.68236 96.2666C6.39604 97.4564 7.19433 98.5933 8.07103 99.6686C8.16145 99.7794 8.20457 99.9212 8.19102 100.064C8.17746 100.206 8.10834 100.337 7.99865 100.429C7.90169 100.511 7.77814 100.554 7.6512 100.552ZM3.57598 93.9648C3.47082 93.9658 3.36765 93.9362 3.27898 93.8797C3.19032 93.8231 3.11998 93.742 3.07652 93.6463C2.48503 92.3359 1.97732 90.9892 1.55646 89.6145C1.52557 89.4807 1.5465 89.3403 1.61502 89.2213C1.68354 89.1024 1.79457 89.0138 1.92576 88.9735C2.05696 88.9331 2.19857 88.9439 2.3221 89.0038C2.44563 89.0636 2.54191 89.168 2.59155 89.296C2.9917 90.6256 3.47522 91.9287 4.03924 93.1975C4.06957 93.2626 4.0867 93.333 4.08964 93.4047C4.09258 93.4764 4.08127 93.548 4.05636 93.6153C4.03145 93.6826 3.99344 93.7443 3.94453 93.7969C3.89562 93.8494 3.83678 93.8917 3.77141 93.9213C3.70981 93.9487 3.64336 93.9635 3.57598 93.9648ZM1.22349 86.5744C1.09794 86.5732 0.976669 86.5286 0.880324 86.4481C0.783979 86.3676 0.718518 86.2562 0.695086 86.1328C0.418772 84.7264 0.223015 83.3054 0.108773 81.8766C0.0972546 81.7326 0.143403 81.59 0.237068 81.48C0.330734 81.3701 0.464242 81.3018 0.608223 81.2903C0.752204 81.2788 0.894865 81.3249 1.00482 81.4186C1.11477 81.5123 1.18302 81.6458 1.19454 81.7898C1.30101 83.1774 1.48954 84.5575 1.75913 85.9229C1.77384 85.9928 1.7744 86.065 1.76078 86.1352C1.74717 86.2053 1.71965 86.272 1.67985 86.3314C1.64006 86.3908 1.58878 86.4416 1.52905 86.4808C1.46933 86.52 1.40235 86.5469 1.33206 86.5599L1.22349 86.5744ZM0.53584 78.8437C0.464263 78.8437 0.393407 78.8294 0.327458 78.8016C0.261508 78.7738 0.201803 78.733 0.15187 78.6818C0.101937 78.6305 0.062789 78.5697 0.0367379 78.503C0.0106868 78.4364 -0.00173883 78.3652 0.000195679 78.2936C0.0171257 76.861 0.113789 75.4304 0.289734 74.0085C0.290562 73.9321 0.307477 73.8568 0.339372 73.7875C0.371267 73.7181 0.417425 73.6563 0.474836 73.606C0.532247 73.5557 0.59962 73.5181 0.672557 73.4956C0.745494 73.4731 0.822356 73.4662 0.898125 73.4754C0.973895 73.4847 1.04687 73.5098 1.11229 73.5491C1.17771 73.5884 1.2341 73.6411 1.27778 73.7037C1.32146 73.7663 1.35145 73.8374 1.36579 73.9123C1.38014 73.9873 1.37851 74.0644 1.36102 74.1387C1.19366 75.5225 1.10184 76.9143 1.08596 78.3081C1.08501 78.3794 1.07004 78.4498 1.04188 78.5153C1.01372 78.5808 0.972935 78.6401 0.92185 78.6898C0.870765 78.7396 0.810383 78.7788 0.744151 78.8052C0.677918 78.8316 0.607134 78.8447 0.53584 78.8437ZM1.41893 71.1348C1.37821 71.1418 1.33659 71.1418 1.29587 71.1348C1.15599 71.1036 1.03412 71.0184 0.956827 70.8977C0.879535 70.777 0.853099 70.6307 0.883284 70.4906C1.20045 69.0884 1.60663 67.7079 2.09934 66.3574C2.12333 66.287 2.16155 66.2222 2.21164 66.1671C2.26172 66.112 2.3226 66.0679 2.39049 66.0373C2.45837 66.0068 2.53182 65.9905 2.60625 65.9895C2.68069 65.9886 2.75453 66.0029 2.82318 66.0317C2.89302 66.0566 2.95712 66.0953 3.01162 66.1456C3.06612 66.1958 3.10989 66.2566 3.14032 66.3242C3.17074 66.3918 3.18719 66.4649 3.18866 66.539C3.19014 66.6131 3.17662 66.6868 3.14891 66.7556C2.67396 68.0613 2.2823 69.3958 1.97629 70.7512C1.94053 70.8688 1.86593 70.9707 1.76468 71.0404C1.66344 71.1101 1.54154 71.1434 1.41893 71.1348ZM3.9958 63.824C3.91234 63.8273 3.82962 63.8073 3.75694 63.7661C3.69217 63.7359 3.63409 63.693 3.58614 63.6401C3.53818 63.5871 3.50131 63.525 3.4777 63.4576C3.45409 63.3901 3.44422 63.3186 3.44867 63.2473C3.45311 63.176 3.47179 63.1063 3.50359 63.0423C4.13538 61.7523 4.84609 60.5025 5.63169 59.3C5.71079 59.1879 5.82942 59.1098 5.96372 59.0816C6.09801 59.0534 6.238 59.0771 6.35553 59.148C6.47026 59.2248 6.55088 59.343 6.58055 59.4779C6.61023 59.6128 6.58666 59.7539 6.51477 59.8718C5.75119 61.0333 5.06215 62.2422 4.45182 63.491C4.41436 63.5835 4.35182 63.6637 4.27125 63.7225C4.19068 63.7813 4.09528 63.8165 3.9958 63.824ZM8.1579 57.3094C8.03682 57.3107 7.91909 57.2697 7.82493 57.1936C7.7685 57.1492 7.72144 57.094 7.68648 57.0313C7.65153 56.9685 7.62937 56.8995 7.62129 56.8281C7.61321 56.7567 7.61937 56.6845 7.63942 56.6155C7.65946 56.5466 7.69299 56.4823 7.73807 56.4263C8.64262 55.3089 9.60926 54.2432 10.6334 53.2342C10.7352 53.1325 10.8732 53.0754 11.0171 53.0754C11.1609 53.0754 11.2989 53.1325 11.4007 53.2342C11.5024 53.336 11.5595 53.474 11.5595 53.6178C11.5595 53.7617 11.5024 53.8997 11.4007 54.0015C10.4142 54.9856 9.48155 56.0222 8.60668 57.1067C8.55061 57.1687 8.48082 57.2167 8.40289 57.2468C8.32497 57.277 8.24107 57.2885 8.1579 57.2805V57.3094ZM13.6012 51.7503C13.5223 51.7501 13.4444 51.7325 13.373 51.6988C13.3017 51.665 13.2387 51.6158 13.1886 51.5549C13.0969 51.4439 13.0524 51.3014 13.0645 51.1579C13.0767 51.0145 13.1446 50.8815 13.2537 50.7876C14.3557 49.8713 15.5032 49.0112 16.692 48.2107C16.8087 48.1392 16.9481 48.1143 17.0823 48.1412C17.2165 48.168 17.3357 48.2446 17.4158 48.3555C17.4966 48.4757 17.5267 48.623 17.4996 48.7653C17.4725 48.9076 17.3904 49.0334 17.2711 49.1155C16.1113 49.8943 14.9926 50.7327 13.9197 51.6273C13.8288 51.7002 13.7175 51.7432 13.6012 51.7503Z" fill="#E0E0E0"/>
<path d="M18.3065 108.652C18.2288 108.652 18.1521 108.635 18.0821 108.601C17.409 108.297 16.743 107.971 16.106 107.624C16.0438 107.591 15.9885 107.546 15.9436 107.492C15.8986 107.438 15.8647 107.376 15.8438 107.308C15.823 107.241 15.8156 107.17 15.8221 107.1C15.8286 107.03 15.8488 106.962 15.8816 106.9C15.9492 106.776 16.0627 106.682 16.1979 106.641C16.3332 106.599 16.4794 106.611 16.6055 106.676C17.228 107.009 17.8722 107.327 18.5237 107.624C18.6354 107.676 18.7261 107.764 18.7809 107.875C18.8357 107.985 18.8514 108.111 18.8253 108.231C18.7991 108.351 18.7329 108.459 18.6373 108.537C18.5417 108.615 18.4225 108.658 18.2993 108.659L18.3065 108.652Z" fill="#E0E0E0"/>
<path d="M265.897 82.3834L296.515 62.7817L310.001 67.1103L265.897 82.3834Z" fill="#2642CA"/>
<path d="M265.897 82.3833L292.361 60.3206L286.476 53.531L265.897 82.3833Z" fill="#2642CA"/>
<path d="M292.361 60.3206V65.4381L265.897 82.3833L292.361 60.3206Z" fill="#455A64"/>
<path d="M298.332 58.1853C298.201 58.1858 298.074 58.1366 297.977 58.0477C297.87 57.9518 297.805 57.8178 297.796 57.6744C297.786 57.531 297.833 57.3896 297.927 57.2805C298.869 56.229 299.706 55.087 300.424 53.8712C300.497 53.7464 300.616 53.6557 300.756 53.619C300.896 53.5824 301.045 53.6028 301.169 53.6757C301.294 53.7487 301.385 53.8682 301.421 54.008C301.458 54.1479 301.438 54.2965 301.365 54.4213C300.607 55.6959 299.729 56.8956 298.744 58.0043C298.693 58.0623 298.629 58.1084 298.558 58.1396C298.487 58.1708 298.41 58.1864 298.332 58.1853ZM302.472 51.4391C302.408 51.4494 302.342 51.4494 302.277 51.4391C302.208 51.4129 302.146 51.3731 302.093 51.322C302.04 51.271 301.998 51.2098 301.97 51.1422C301.942 51.0745 301.927 51.0018 301.928 50.9284C301.928 50.855 301.943 50.7825 301.973 50.7152C302.484 49.3968 302.867 48.032 303.116 46.64C303.142 46.4979 303.224 46.372 303.342 46.2899C303.461 46.2077 303.608 46.1762 303.75 46.2021C303.892 46.228 304.018 46.3093 304.1 46.4281C304.182 46.5468 304.214 46.6934 304.188 46.8354C303.921 48.2941 303.516 49.7241 302.979 51.1061C302.938 51.2063 302.868 51.2917 302.777 51.3512C302.687 51.4106 302.58 51.4413 302.472 51.4391ZM304.021 43.6722C303.95 43.6713 303.88 43.6563 303.815 43.628C303.75 43.5998 303.691 43.5589 303.642 43.5077C303.593 43.4565 303.554 43.3961 303.529 43.3299C303.503 43.2637 303.491 43.1931 303.493 43.1221C303.493 42.9339 303.493 42.7457 303.493 42.5575C303.49 41.3287 303.393 40.1018 303.203 38.8876C303.182 38.7448 303.219 38.5995 303.304 38.483C303.389 38.3666 303.517 38.2883 303.659 38.2651C303.802 38.2462 303.946 38.283 304.062 38.368C304.178 38.453 304.257 38.5795 304.282 38.7212C304.477 39.9906 304.577 41.2731 304.579 42.5575C304.579 42.753 304.579 42.9484 304.579 43.1438C304.573 43.2872 304.512 43.4227 304.407 43.5214C304.303 43.6201 304.165 43.6742 304.021 43.6722ZM302.928 35.8258C302.812 35.8254 302.699 35.787 302.606 35.7165C302.513 35.646 302.446 35.5471 302.414 35.4349C301.999 34.0768 301.479 32.753 300.858 31.4755C300.826 31.4115 300.808 31.3418 300.803 31.2705C300.799 31.1991 300.809 31.1276 300.832 31.0602C300.856 30.9927 300.893 30.9307 300.941 30.8777C300.989 30.8247 301.047 30.7819 301.111 30.7517C301.241 30.6894 301.39 30.6812 301.526 30.7287C301.661 30.7762 301.773 30.8755 301.835 31.005C302.483 32.3325 303.022 33.7098 303.449 35.1237C303.471 35.1916 303.478 35.2631 303.471 35.3339C303.464 35.4047 303.443 35.4735 303.41 35.5362C303.376 35.5988 303.33 35.6542 303.275 35.6989C303.219 35.7437 303.156 35.777 303.088 35.7969C303.037 35.8169 302.983 35.8268 302.928 35.8258ZM299.57 28.6381C299.478 28.6389 299.388 28.616 299.308 28.5716C299.228 28.5272 299.161 28.4628 299.114 28.3847C298.338 27.1935 297.484 26.0546 296.558 24.9754C296.512 24.9213 296.476 24.8585 296.454 24.7906C296.431 24.7227 296.423 24.651 296.428 24.5797C296.433 24.5084 296.453 24.4389 296.485 24.3752C296.517 24.3114 296.562 24.2546 296.616 24.2081C296.67 24.1616 296.732 24.1262 296.799 24.1039C296.867 24.0816 296.938 24.0729 297.008 24.0783C297.079 24.0837 297.148 24.103 297.211 24.1353C297.274 24.1675 297.331 24.212 297.376 24.266C298.337 25.3831 299.222 26.5632 300.026 27.7984C300.092 27.9176 300.113 28.0572 300.084 28.1906C300.054 28.3241 299.977 28.4421 299.866 28.5222C299.78 28.5859 299.677 28.6236 299.57 28.6308V28.6381ZM294.503 22.5505C294.365 22.5501 294.232 22.4955 294.134 22.3985C293.091 21.423 291.997 20.5048 290.855 19.6479C290.798 19.6052 290.749 19.5516 290.713 19.4902C290.677 19.4289 290.653 19.361 290.643 19.2904C290.633 19.2198 290.637 19.148 290.654 19.0789C290.672 19.0098 290.703 18.9449 290.746 18.8879C290.789 18.8309 290.842 18.7828 290.904 18.7465C290.965 18.7102 291.033 18.6863 291.104 18.6762C291.174 18.6661 291.246 18.67 291.315 18.6877C291.384 18.7054 291.449 18.7365 291.506 18.7793C292.683 19.6587 293.809 20.6036 294.879 21.6095C294.96 21.6842 295.016 21.7814 295.04 21.8885C295.064 21.9956 295.055 22.1074 295.014 22.2093C294.973 22.3112 294.903 22.3984 294.811 22.4593C294.72 22.5202 294.612 22.552 294.503 22.5505ZM288.155 17.7298C288.052 17.7288 287.951 17.6987 287.865 17.6429C287.373 17.3389 286.859 17.0349 286.338 16.7381C285.614 16.3327 284.89 15.9274 284.123 15.5438C284.053 15.5157 283.989 15.4733 283.937 15.4193C283.884 15.3653 283.843 15.301 283.816 15.2303C283.79 15.1596 283.779 15.0842 283.783 15.0089C283.787 14.9335 283.807 14.8599 283.842 14.7927C283.876 14.7255 283.924 14.6662 283.982 14.6186C284.041 14.571 284.109 14.5362 284.182 14.5162C284.254 14.4963 284.331 14.4918 284.405 14.5029C284.48 14.5141 284.551 14.5407 284.615 14.581C285.375 14.9719 286.135 15.3773 286.873 15.7971C287.409 16.0939 287.93 16.4051 288.437 16.7236C288.554 16.7983 288.638 16.9149 288.671 17.0495C288.705 17.1841 288.686 17.3265 288.618 17.4475C288.571 17.5301 288.504 17.5994 288.423 17.6488C288.342 17.6982 288.25 17.726 288.155 17.7298ZM223.262 17.3606C223.167 17.3596 223.073 17.3337 222.991 17.2854C222.908 17.2372 222.839 17.1683 222.792 17.0855C222.723 16.9633 222.705 16.819 222.742 16.6837C222.778 16.5484 222.866 16.4328 222.987 16.3617C224.247 15.6378 225.542 14.914 226.852 14.306C226.981 14.2432 227.129 14.2339 227.265 14.28C227.401 14.3261 227.512 14.4239 227.576 14.5521C227.637 14.682 227.644 14.8303 227.597 14.9654C227.549 15.1006 227.451 15.212 227.323 15.2759C226.035 15.9057 224.761 16.5788 223.523 17.2954C223.442 17.3349 223.352 17.3523 223.262 17.3461V17.3606ZM281.097 14.0526C281.022 14.0531 280.947 14.0357 280.88 14.002C279.577 13.4301 278.231 12.8945 276.884 12.4168C276.748 12.3678 276.637 12.2667 276.575 12.1357C276.513 12.0047 276.506 11.8545 276.555 11.7182C276.604 11.5819 276.705 11.4707 276.836 11.4089C276.967 11.3471 277.117 11.3399 277.254 11.3889C278.622 11.8811 279.99 12.424 281.322 13.0103C281.438 13.0597 281.533 13.148 281.591 13.26C281.649 13.372 281.666 13.5008 281.64 13.6241C281.613 13.7475 281.545 13.8577 281.446 13.9359C281.347 14.0141 281.223 14.0554 281.097 14.0526ZM230.392 13.8282C230.285 13.829 230.18 13.7976 230.091 13.7383C230.002 13.6789 229.933 13.5943 229.893 13.4953C229.863 13.4289 229.847 13.3572 229.845 13.2845C229.844 13.2118 229.857 13.1396 229.884 13.0721C229.911 13.0046 229.951 12.9432 230.003 12.8915C230.054 12.8399 230.115 12.799 230.182 12.7714C231.521 12.2068 232.897 11.6857 234.272 11.2152C234.341 11.1865 234.415 11.1725 234.49 11.1739C234.565 11.1754 234.639 11.1922 234.707 11.2235C234.774 11.2548 234.835 11.2998 234.885 11.3556C234.935 11.4115 234.972 11.477 234.996 11.5481C235.022 11.6179 235.034 11.6923 235.031 11.7668C235.028 11.8413 235.01 11.9145 234.979 11.982C234.947 12.0495 234.902 12.1099 234.846 12.1598C234.791 12.2096 234.726 12.2477 234.655 12.272C233.302 12.7352 231.941 13.2492 230.631 13.7993C230.553 13.8209 230.472 13.8258 230.392 13.8138V13.8282ZM273.627 11.3238C273.577 11.3308 273.526 11.3308 273.475 11.3238C272.107 10.9256 270.703 10.5999 269.306 10.2597C269.236 10.2445 269.17 10.2157 269.111 10.1749C269.052 10.1341 269.002 10.0821 268.964 10.022C268.925 9.96183 268.898 9.89465 268.886 9.82428C268.873 9.75391 268.874 9.68173 268.89 9.61187C268.905 9.542 268.934 9.47581 268.974 9.41708C269.015 9.35836 269.067 9.30824 269.127 9.26959C269.187 9.23094 269.255 9.20452 269.325 9.19183C269.395 9.17915 269.468 9.18045 269.537 9.19566C270.985 9.50691 272.389 9.87607 273.779 10.2814C273.905 10.318 274.013 10.3986 274.083 10.5085C274.154 10.6183 274.183 10.75 274.165 10.8794C274.146 11.0087 274.082 11.1271 273.983 11.2127C273.884 11.2983 273.758 11.3455 273.627 11.3455V11.3238ZM237.906 11.2152C237.787 11.2147 237.672 11.1756 237.578 11.1037C237.484 11.0318 237.416 10.9312 237.384 10.8171C237.364 10.7491 237.358 10.6779 237.366 10.6075C237.374 10.5371 237.396 10.469 237.43 10.4071C237.464 10.3452 237.511 10.2906 237.566 10.2467C237.622 10.2028 237.685 10.1703 237.754 10.1511C239.151 9.76025 240.584 9.42728 242.01 9.10879C242.082 9.08573 242.158 9.07807 242.234 9.08629C242.309 9.09452 242.382 9.11846 242.447 9.15657C242.513 9.19467 242.57 9.24609 242.614 9.30752C242.659 9.36895 242.69 9.43902 242.706 9.51322C242.722 9.58742 242.722 9.66409 242.706 9.7383C242.69 9.81251 242.659 9.8826 242.615 9.94407C242.57 10.0055 242.513 10.057 242.448 10.0952C242.382 10.1333 242.309 10.1573 242.234 10.1656C240.83 10.4624 239.426 10.8098 238.05 11.1935L237.906 11.2152ZM265.868 9.57929H265.759C264.347 9.3549 262.907 9.17394 261.488 9.04365C261.414 9.04283 261.34 9.02658 261.272 8.99591C261.203 8.96524 261.142 8.92081 261.092 8.86542C261.042 8.81002 261.004 8.74485 260.98 8.67399C260.956 8.60313 260.947 8.5281 260.953 8.45361C260.96 8.37913 260.982 8.30678 261.018 8.24112C261.053 8.17546 261.102 8.1179 261.161 8.07204C261.22 8.02617 261.288 7.99301 261.361 7.97461C261.433 7.95621 261.509 7.95298 261.582 7.96513C263.03 8.09542 264.478 8.27638 265.925 8.50801C266.067 8.53286 266.192 8.61182 266.276 8.72808C266.36 8.84435 266.395 8.98874 266.374 9.13051C266.349 9.24765 266.285 9.35307 266.194 9.43032C266.102 9.50758 265.987 9.55232 265.868 9.55758V9.57929ZM245.68 9.52862C245.551 9.52856 245.426 9.48266 245.328 9.39911C245.23 9.31556 245.165 9.19983 245.144 9.0726C245.123 8.92976 245.159 8.78444 245.245 8.66798C245.33 8.55153 245.457 8.47328 245.6 8.4501C247.048 8.23295 248.495 8.05199 249.943 7.92893C250.014 7.92275 250.086 7.93068 250.154 7.95225C250.223 7.97383 250.286 8.00863 250.341 8.05467C250.395 8.10071 250.441 8.1571 250.474 8.2206C250.507 8.2841 250.527 8.35347 250.533 8.42476C250.539 8.49605 250.531 8.56787 250.51 8.6361C250.488 8.70433 250.453 8.76764 250.407 8.82242C250.361 8.8772 250.305 8.92238 250.241 8.95537C250.178 8.98836 250.108 9.00852 250.037 9.0147C248.589 9.13775 247.178 9.30423 245.766 9.52862H245.68ZM257.949 8.80478C256.501 8.75411 255.053 8.74687 253.642 8.80478C253.571 8.80869 253.499 8.79816 253.432 8.77382C253.365 8.74947 253.304 8.71183 253.252 8.66313C253.2 8.61444 253.158 8.55572 253.129 8.4905C253.101 8.42527 253.085 8.3549 253.084 8.28361C253.082 8.21207 253.093 8.14067 253.118 8.07364C253.143 8.0066 253.182 7.94529 253.231 7.89333C253.28 7.84137 253.339 7.79981 253.405 7.77112C253.471 7.74242 253.541 7.72717 253.613 7.72626C255.061 7.67559 256.508 7.68283 257.956 7.72626C258.027 7.72813 258.097 7.74404 258.163 7.77307C258.228 7.8021 258.287 7.84368 258.336 7.89544C258.385 7.9472 258.423 8.00813 258.449 8.07473C258.474 8.14134 258.486 8.21231 258.484 8.28361C258.474 8.4194 258.413 8.54638 258.314 8.63998C258.215 8.73358 258.085 8.78714 257.949 8.79031V8.80478Z" fill="#E0E0E0"/>
<path d="M255.22 92.9656V91.8074H254.938C254.508 91.023 253.856 90.3833 253.063 89.9689C251.446 89.148 249.658 88.7202 247.844 88.7202C246.031 88.7202 244.243 89.148 242.625 89.9689C241.833 90.3833 241.18 91.023 240.751 91.8074H240.468V92.9294C240.468 94.0369 241.192 95.1516 242.64 95.9985C244.258 96.8154 246.046 97.241 247.859 97.241C249.672 97.241 251.459 96.8154 253.078 95.9985C254.511 95.1805 255.227 94.0658 255.22 92.9656Z" fill="#37474F"/>
<path d="M247.844 96.0713C251.918 96.0713 255.22 94.1625 255.22 91.8079C255.22 89.4532 251.918 87.5444 247.844 87.5444C243.771 87.5444 240.468 89.4532 240.468 91.8079C240.468 94.1625 243.771 96.0713 247.844 96.0713Z" fill="#455A64"/>
<path d="M245.947 56.3105V91.3083C245.963 91.4744 246.022 91.6334 246.118 91.7694C246.215 91.9054 246.346 92.0135 246.497 92.0828C246.914 92.2934 247.374 92.4031 247.84 92.4031C248.307 92.4031 248.767 92.2934 249.183 92.0828C249.336 92.0151 249.469 91.9076 249.567 91.7714C249.665 91.6353 249.725 91.4754 249.74 91.3083V56.3105H245.947Z" fill="#37474F"/>
<path d="M256.349 30.1147C254.504 29.0506 252.824 28.9638 251.565 29.6659L228.12 43.2162L239.882 66.8062L263.407 53.198V42.876C263.407 38.0769 260.244 32.3658 256.349 30.1147Z" fill="#455A64"/>
<path d="M239.882 56.4771V66.8063L225.774 58.6559V48.3339C225.774 43.5348 228.93 41.4719 232.824 43.723C235.321 45.1707 237.515 48.0226 238.767 51.1496C239.467 52.8404 239.846 54.6473 239.882 56.4771Z" fill="#37474F"/>
<path d="M239.882 56.4769V66.8061L225.774 58.6557L238.767 51.1494C239.467 52.8402 239.846 54.6471 239.882 56.4769Z" fill="#263238"/>
<path d="M237.529 60.0164C236.234 56.2669 232.021 51.4026 228.119 49.1587C224.218 46.9148 222.119 48.1236 223.415 51.8731L225.767 58.6628L239.882 66.8132C239.882 66.8132 238.832 63.7659 237.529 60.0164Z" fill="#455A64"/>
<path d="M247.236 56.868L246.447 56.4119C246.278 56.3341 246.091 56.3025 245.905 56.3203C245.72 56.3381 245.542 56.4046 245.39 56.5133C244.954 56.7986 244.592 57.1824 244.331 57.6338C244.071 58.0853 243.921 58.5916 243.892 59.1119C243.872 59.2982 243.903 59.4865 243.981 59.657C244.058 59.8276 244.18 59.9743 244.334 60.0818L245.057 60.5016L245.195 60.2772C245.345 60.2448 245.489 60.1886 245.622 60.1108C246.058 59.827 246.421 59.4445 246.681 58.9943C246.941 58.544 247.092 58.0387 247.12 57.5194C247.12 57.3899 247.103 57.261 247.07 57.1358L247.236 56.868Z" fill="#263238"/>
<path d="M246.143 56.9549C245.707 57.2386 245.345 57.6211 245.084 58.0714C244.824 58.5216 244.673 59.0269 244.645 59.5462C244.645 60.5017 245.318 60.8853 246.143 60.4076C246.58 60.1243 246.943 59.7419 247.203 59.2915C247.464 58.8412 247.614 58.3357 247.642 57.8163C247.663 56.8608 246.94 56.4771 246.143 56.9549Z" fill="#37474F"/>
<path d="M246.143 59.09C246.086 59.09 246.029 59.0788 245.977 59.057C245.924 59.0352 245.876 59.0032 245.836 58.9628C245.795 58.9225 245.763 58.8746 245.742 58.8219C245.72 58.7692 245.708 58.7128 245.708 58.6557V43.7229C245.708 43.6077 245.754 43.4972 245.836 43.4158C245.917 43.3343 246.028 43.2886 246.143 43.2886C246.258 43.2886 246.368 43.3343 246.45 43.4158C246.531 43.4972 246.577 43.6077 246.577 43.7229V58.6557C246.577 58.7709 246.531 58.8814 246.45 58.9628C246.368 59.0443 246.258 59.09 246.143 59.09Z" fill="#263238"/>
<path d="M246.534 44.1138V48.008L250.711 43.7229L246.534 44.1138Z" fill="#37474F"/>
<path d="M26.949 173.29C26.5871 173.486 19.9422 175.368 17.4812 172.118C15.0201 168.868 19.1098 163.801 16.8008 161.933C14.4917 160.066 8.02056 161.933 6.4643 158.01C4.90804 154.087 9.51891 152.393 6.92756 148.434C5.29168 145.936 0.716999 144.561 0.926913 142.238C1.23093 138.843 7.48492 137.895 12.9427 141.564C18.4005 145.234 20.9484 142.223 22.6784 141.977C24.4083 141.731 28.1434 142.274 28.0276 148.354C27.9117 154.434 26.949 173.29 26.949 173.29Z" fill="#2642CA"/>
<path d="M27.3908 164.67C27.3045 164.669 27.221 164.639 27.1548 164.583C27.0887 164.528 27.0442 164.451 27.0289 164.366C25.1252 152.784 11.7124 143.425 4.73458 141.413C4.68842 141.4 4.64525 141.379 4.60766 141.349C4.57007 141.32 4.53885 141.283 4.51586 141.241C4.49287 141.199 4.4786 141.153 4.47389 141.105C4.46918 141.058 4.47415 141.01 4.48848 140.964C4.51535 140.872 4.57773 140.794 4.6619 140.748C4.74606 140.702 4.84511 140.691 4.93726 140.718C12.0671 142.781 25.7911 152.401 27.7455 164.25C27.7602 164.344 27.7373 164.44 27.6817 164.517C27.6262 164.594 27.5425 164.647 27.4487 164.663L27.3908 164.67Z" fill="white"/>
<path d="M11.5671 154.977C11.4875 154.978 11.4099 154.953 11.3462 154.905C11.2826 154.857 11.2365 154.79 11.215 154.713C11.1936 154.636 11.198 154.555 11.2277 154.481C11.2573 154.407 11.3105 154.345 11.3789 154.304C11.5961 154.174 16.7643 151.155 21.8457 152.567C21.9417 152.592 22.0238 152.654 22.074 152.739C22.1243 152.825 22.1385 152.927 22.1135 153.023C22.0885 153.119 22.0265 153.201 21.941 153.251C21.8554 153.301 21.7535 153.316 21.6575 153.291C16.8656 151.959 11.7988 154.919 11.7481 154.948C11.6918 154.975 11.629 154.985 11.5671 154.977Z" fill="white"/>
<path d="M216.176 112.133C219.028 112.524 223.885 110.874 224.232 106.125C224.58 101.377 226.541 100.089 230.139 99.3141C233.736 98.5395 234.793 97.2873 235.206 95.0289C235.618 92.7705 232.882 90.0706 233.649 86.6685C234.417 83.2665 236.979 83.2737 239.498 79.4301C241.112 76.9546 237.804 73.1761 232.296 74.7975C226.787 76.4189 227.229 79.973 221.721 80.429C216.212 80.885 212.759 84.2292 212.651 88.3913C212.542 92.5534 216.176 112.133 216.176 112.133Z" fill="#2642CA"/>
<path opacity="0.2" d="M216.176 112.133C219.028 112.524 223.885 110.874 224.232 106.125C224.58 101.377 226.541 100.089 230.139 99.3141C233.736 98.5395 234.793 97.2873 235.206 95.0289C235.618 92.7705 232.882 90.0706 233.649 86.6685C234.417 83.2665 236.979 83.2737 239.498 79.4301C241.112 76.9546 237.804 73.1761 232.296 74.7975C226.787 76.4189 227.229 79.973 221.721 80.429C216.212 80.885 212.759 84.2292 212.651 88.3913C212.542 92.5534 216.176 112.133 216.176 112.133Z" fill="black"/>
<path d="M215.133 103.027H215.09C215.043 103.018 214.999 102.999 214.96 102.973C214.92 102.946 214.887 102.912 214.86 102.872C214.834 102.833 214.816 102.788 214.807 102.741C214.798 102.695 214.798 102.647 214.808 102.6C217.471 89.4335 231.999 77.3816 235.538 76.151C235.634 76.1194 235.739 76.1271 235.829 76.1726C235.92 76.2181 235.988 76.2975 236.02 76.3935C236.051 76.4895 236.044 76.5941 235.998 76.6844C235.953 76.7747 235.873 76.8432 235.777 76.8749C232.317 78.0765 218.123 89.904 215.51 102.781C215.483 102.858 215.431 102.924 215.363 102.968C215.295 103.013 215.214 103.033 215.133 103.027Z" fill="white"/>
<path d="M23.9092 98.3584C23.9445 97.7057 24.1334 97.0706 24.4604 96.5046C24.7874 95.9386 25.2434 95.4578 25.7912 95.1011L121.997 39.5535C122.58 39.2607 123.223 39.1082 123.875 39.1082C124.528 39.1082 125.171 39.2607 125.754 39.5535L127.875 40.784C128.424 41.1394 128.88 41.6199 129.208 42.1862C129.535 42.7524 129.723 43.3882 129.757 44.0413V117.786C129.72 118.439 129.53 119.073 129.203 119.639C128.876 120.205 128.421 120.686 127.875 121.044L31.6688 176.584C31.0857 176.88 30.4408 177.035 29.7868 177.035C29.1327 177.035 28.4879 176.88 27.9048 176.584L25.7912 175.361C25.2442 175.003 24.7888 174.522 24.4619 173.956C24.135 173.391 23.9457 172.756 23.9092 172.103V98.3584Z" fill="#2642CA"/>
<path opacity="0.3" d="M23.9092 98.3584C23.9445 97.7057 24.1334 97.0706 24.4604 96.5046C24.7874 95.9386 25.2434 95.4578 25.7912 95.1011L121.997 39.5535C122.58 39.2607 123.223 39.1082 123.875 39.1082C124.528 39.1082 125.171 39.2607 125.754 39.5535L127.875 40.784C128.424 41.1394 128.88 41.6199 129.208 42.1862C129.535 42.7524 129.723 43.3882 129.757 44.0413V117.786C129.72 118.439 129.53 119.073 129.203 119.639C128.876 120.205 128.421 120.686 127.875 121.044L31.6688 176.584C31.0857 176.88 30.4408 177.035 29.7868 177.035C29.1327 177.035 28.4879 176.88 27.9048 176.584L25.7912 175.361C25.2442 175.003 24.7888 174.522 24.4619 173.956C24.135 173.391 23.9457 172.756 23.9092 172.103V98.3584Z" fill="black"/>
<path d="M32.7256 101.283L24.4593 96.5054C24.1214 97.0662 23.932 97.704 23.9092 98.3584V172.103C23.9457 172.756 24.135 173.391 24.4619 173.956C24.7888 174.522 25.2442 175.003 25.7912 175.361L27.9048 176.584C28.4879 176.88 29.1327 177.035 29.7868 177.035C30.4408 177.035 31.0857 176.88 31.6688 176.584L32.7256 175.976V101.283Z" fill="#2642CA"/>
<path opacity="0.5" d="M32.7256 101.283L24.4593 96.5054C24.1214 97.0662 23.932 97.704 23.9092 98.3584V172.103C23.9457 172.756 24.135 173.391 24.4619 173.956C24.7888 174.522 25.2442 175.003 25.7912 175.361L27.9048 176.584C28.4879 176.88 29.1327 177.035 29.7868 177.035C30.4408 177.035 31.0857 176.88 31.6688 176.584L32.7256 175.976V101.283Z" fill="black"/>
<path d="M129.756 44.0414V117.786C129.731 118.462 129.529 119.118 129.17 119.69C128.892 120.172 128.517 120.591 128.069 120.921L127.997 120.964L127.874 121.044L31.668 176.584C31.4839 176.714 31.2699 176.796 31.046 176.821C30.822 176.846 30.5953 176.815 30.3868 176.729C30.1864 176.603 30.0244 176.424 29.9185 176.212C29.8126 176 29.7668 175.763 29.786 175.527V101.753C29.7697 101.489 29.8176 101.225 29.9256 100.984C30.0337 100.742 30.1987 100.531 30.4065 100.367C30.6143 100.203 30.8588 100.092 31.1188 100.044C31.3789 99.9954 31.6468 100.011 31.8996 100.088L72.3552 109.708L77.6537 110.968C78.2791 111.085 78.9246 111.029 79.5204 110.806C80.1162 110.582 80.6397 110.2 81.034 109.701L87.1722 101.153L128.489 43.6288C129.184 42.6589 129.756 42.8398 129.756 44.0414Z" fill="#2642CA"/>
<path opacity="0.2" d="M129.756 44.0414V117.786C129.731 118.462 129.529 119.118 129.17 119.69C128.892 120.172 128.517 120.591 128.069 120.921L127.997 120.964L127.874 121.044L31.668 176.584C31.4839 176.714 31.2699 176.796 31.046 176.821C30.822 176.846 30.5953 176.815 30.3868 176.729C30.1864 176.603 30.0244 176.424 29.9185 176.212C29.8126 176 29.7668 175.763 29.786 175.527V101.753C29.7697 101.489 29.8176 101.225 29.9256 100.984C30.0337 100.742 30.1987 100.531 30.4065 100.367C30.6143 100.203 30.8588 100.092 31.1188 100.044C31.3789 99.9954 31.6468 100.011 31.8996 100.088L72.3552 109.708L77.6537 110.968C78.2791 111.085 78.9246 111.029 79.5204 110.806C80.1162 110.582 80.6397 110.2 81.034 109.701L87.1722 101.153L128.489 43.6288C129.184 42.6589 129.756 42.8398 129.756 44.0414Z" fill="black"/>
<path d="M127.874 121.044L127.997 120.964L128.069 120.921C128.517 120.591 128.892 120.172 129.17 119.69C129.525 119.127 129.728 118.481 129.756 117.815L87.1724 101.167L115.692 128.094L127.874 121.044Z" fill="#2642CA"/>
<path opacity="0.6" d="M127.874 121.044L127.997 120.964L128.069 120.921C128.517 120.591 128.892 120.172 129.17 119.69C129.525 119.127 129.728 118.481 129.756 117.815L87.1724 101.167L115.692 128.094L127.874 121.044Z" fill="black"/>
<path d="M29.7863 175.527C29.7587 175.768 29.7989 176.011 29.9026 176.23C30.0062 176.449 30.169 176.634 30.3726 176.765C30.5811 176.851 30.8078 176.882 31.0318 176.857C31.2558 176.832 31.4697 176.75 31.6538 176.62L64.7913 157.431L72.3555 109.658L29.7863 174.275V175.527Z" fill="#2642CA"/>
<path opacity="0.6" d="M29.7863 175.527C29.7587 175.768 29.7989 176.011 29.9026 176.23C30.0062 176.449 30.169 176.634 30.3726 176.765C30.5811 176.851 30.8078 176.882 31.0318 176.857C31.2558 176.832 31.4697 176.75 31.6538 176.62L64.7913 157.431L72.3555 109.658L29.7863 174.275V175.527Z" fill="black"/>
<path d="M129.17 119.69C128.892 120.172 128.517 120.591 128.07 120.921L127.997 120.964L31.6684 176.584C31.4843 176.714 31.2703 176.795 31.0464 176.821C30.8224 176.846 30.5957 176.814 30.3872 176.729L76.4597 103.179C77.3857 101.706 78.8114 100.616 80.4757 100.108C82.14 99.6 83.9316 99.7087 85.5222 100.414L129.17 119.69Z" fill="#2642CA"/>
<path opacity="0.2" d="M129.17 119.69C128.892 120.172 128.517 120.591 128.07 120.921L127.997 120.964L31.6684 176.584C31.4843 176.714 31.2703 176.795 31.0464 176.821C30.8224 176.846 30.5957 176.814 30.3872 176.729L76.4597 103.179C77.3857 101.706 78.8114 100.616 80.4757 100.108C82.14 99.6 83.9316 99.7087 85.5222 100.414L129.17 119.69Z" fill="black"/>
<path d="M29.7866 99.5819L74.0351 119.126C75.6282 119.829 77.4215 119.934 79.0861 119.422C80.7507 118.911 82.1749 117.816 83.0976 116.339L129.561 41.9785L29.7866 99.5819Z" fill="#2642CA"/>
<path opacity="0.6" d="M29.7866 99.5819L74.0351 119.126C75.6282 119.829 77.4215 119.934 79.0861 119.422C80.7507 118.911 82.1749 117.816 83.0976 116.339L129.561 41.9785L29.7866 99.5819Z" fill="black"/>
<path d="M29.7866 99.5819L74.3463 116.23C75.8862 116.805 77.5759 116.839 79.1375 116.326C80.699 115.813 82.0395 114.783 82.9383 113.407L129.561 41.9785L29.7866 99.5819Z" fill="#2642CA"/>
<path opacity="0.2" d="M29.7866 99.5819L74.3463 116.23C75.8862 116.805 77.5759 116.839 79.1375 116.326C80.699 115.813 82.0395 114.783 82.9383 113.407L129.561 41.9785L29.7866 99.5819Z" fill="black"/>
<path d="M40.3398 107.443C40.3735 106.79 40.5616 106.154 40.8888 105.587C41.2159 105.021 41.6728 104.541 42.2218 104.185L138.428 48.6377C139.011 48.3414 139.656 48.187 140.31 48.187C140.964 48.187 141.609 48.3414 142.192 48.6377L144.312 49.861C144.859 50.2184 145.313 50.6996 145.639 51.2655C145.965 51.8315 146.153 52.4662 146.187 53.1183V126.863C146.152 127.515 145.963 128.149 145.638 128.715C145.312 129.281 144.858 129.762 144.312 130.121L48.0994 185.661C47.5166 185.954 46.8733 186.106 46.2211 186.106C45.5688 186.106 44.9255 185.954 44.3427 185.661L42.2218 184.438C41.6752 184.08 41.2202 183.599 40.8933 183.033C40.5665 182.467 40.3769 181.833 40.3398 181.18V107.443Z" fill="#455A64"/>
<path d="M40.3398 107.443C40.3735 106.79 40.5616 106.154 40.8888 105.587C41.2159 105.021 41.6728 104.541 42.2218 104.185L138.428 48.6377C139.011 48.3414 139.656 48.187 140.31 48.187C140.964 48.187 141.609 48.3414 142.192 48.6377L144.312 49.861C144.859 50.2184 145.313 50.6996 145.639 51.2655C145.965 51.8315 146.153 52.4662 146.187 53.1183V126.863C146.152 127.515 145.963 128.149 145.638 128.715C145.312 129.281 144.858 129.762 144.312 130.121L48.0994 185.661C47.5166 185.954 46.8733 186.106 46.2211 186.106C45.5688 186.106 44.9255 185.954 44.3427 185.661L42.2218 184.438C41.6752 184.08 41.2202 183.599 40.8933 183.033C40.5665 182.467 40.3769 181.833 40.3398 181.18V107.443Z" fill="#455A64"/>
<path d="M49.1635 110.381L40.89 105.611C40.5511 106.172 40.3617 106.81 40.3398 107.464V181.187C40.3769 181.84 40.5665 182.474 40.8933 183.04C41.2202 183.606 41.6752 184.087 42.2218 184.445L44.3427 185.668C44.9255 185.961 45.5688 186.113 46.2211 186.113C46.8733 186.113 47.5166 185.961 48.0994 185.668L49.1635 185.053V110.381Z" fill="#263238"/>
<path d="M146.195 53.1181V126.863C146.171 127.538 145.969 128.195 145.609 128.767C145.331 129.248 144.956 129.667 144.509 129.997L144.436 130.041L144.313 130.12L48.1074 185.661C47.9233 185.791 47.7094 185.872 47.4854 185.898C47.2614 185.923 47.0347 185.891 46.8262 185.806C46.6226 185.675 46.4598 185.489 46.3562 185.271C46.2525 185.052 46.2123 184.808 46.2399 184.568V110.83C46.2236 110.566 46.2715 110.302 46.3795 110.06C46.4876 109.819 46.6526 109.607 46.8604 109.444C47.0682 109.28 47.3127 109.169 47.5727 109.121C47.8328 109.072 48.1007 109.087 48.3535 109.165L88.8091 118.785L94.1076 120.045C94.733 120.162 95.3785 120.106 95.9743 119.882C96.5701 119.659 97.0936 119.277 97.4879 118.778L103.619 110.229L144.936 52.7055C145.602 51.7501 146.195 51.9165 146.195 53.1181Z" fill="#37474F"/>
<path d="M144.313 130.12L144.437 130.041L144.509 129.997C144.957 129.667 145.331 129.249 145.609 128.767C145.961 128.205 146.16 127.561 146.188 126.899L103.612 110.251L132.124 137.163L144.313 130.12Z" fill="#263238"/>
<path d="M46.2244 184.575C46.1968 184.815 46.237 185.059 46.3407 185.278C46.4443 185.496 46.6071 185.682 46.8107 185.813C47.0192 185.898 47.246 185.93 47.4699 185.905C47.6939 185.879 47.9078 185.798 48.0919 185.668L81.215 166.544L88.7791 118.771L46.21 183.337L46.2244 184.575Z" fill="#263238"/>
<path d="M145.602 128.767C145.324 129.249 144.949 129.668 144.501 129.998L144.429 130.041L48.1074 185.661C47.9233 185.791 47.7093 185.872 47.4853 185.898C47.2614 185.923 47.0347 185.891 46.8262 185.806L92.8915 112.263C93.8152 110.788 95.24 109.694 96.9044 109.184C98.5689 108.673 100.362 108.78 101.954 109.484L145.602 128.767Z" fill="#37474F"/>
<path d="M46.2251 108.666L90.4736 128.209C92.0659 128.911 93.8575 129.015 95.5205 128.503C97.1834 127.992 98.6064 126.898 99.5288 125.423L145.992 51.0261L46.2251 108.666Z" fill="#263238"/>
<path d="M46.2251 108.666L90.7776 125.314C92.3184 125.891 94.0097 125.925 95.5728 125.412C97.136 124.899 98.4776 123.869 99.3768 122.491L145.992 51.0261L46.2251 108.666Z" fill="#37474F"/>
<path d="M110.908 165.98V92.2346C110.975 90.8354 111.412 89.4792 112.174 88.3041L158.059 24.4106C158.896 23.2433 160.062 22.3515 161.408 21.8488C162.753 21.3461 164.218 21.2552 165.616 21.5876L208.764 31.8445C210.154 32.2145 211.496 32.7491 212.76 33.4369L214.88 34.6602C215.426 35.0189 215.879 35.5004 216.205 36.0661C216.53 36.6317 216.719 37.2658 216.755 37.9175V111.662C216.718 112.314 216.529 112.948 216.203 113.513C215.878 114.079 215.425 114.56 214.88 114.92L118.667 170.46C118.085 170.755 117.442 170.908 116.789 170.908C116.136 170.908 115.493 170.755 114.911 170.46L112.79 169.237C112.243 168.879 111.787 168.398 111.46 167.833C111.134 167.267 110.944 166.632 110.908 165.98Z" fill="#2642CA"/>
<path opacity="0.3" d="M110.908 165.98V92.2346C110.975 90.8354 111.412 89.4792 112.174 88.3041L158.059 24.4106C158.896 23.2433 160.062 22.3515 161.408 21.8488C162.753 21.3461 164.218 21.2552 165.616 21.5876L208.764 31.8445C210.154 32.2145 211.496 32.7491 212.76 33.4369L214.88 34.6602C215.426 35.0189 215.879 35.5004 216.205 36.0661C216.53 36.6317 216.719 37.2658 216.755 37.9175V111.662C216.718 112.314 216.529 112.948 216.203 113.513C215.878 114.079 215.425 114.56 214.88 114.92L118.667 170.46C118.085 170.755 117.442 170.908 116.789 170.908C116.136 170.908 115.493 170.755 114.911 170.46L112.79 169.237C112.243 168.879 111.787 168.398 111.46 167.833C111.134 167.267 110.944 166.632 110.908 165.98Z" fill="white"/>
<path d="M119.724 56.5926V150.692C119.724 151.886 120.571 152.379 121.606 151.778L211.934 99.6612C212.483 99.305 212.939 98.8243 213.266 98.2582C213.593 97.6921 213.782 97.0568 213.816 96.4039V2.30446C213.816 1.10288 212.977 0.617904 211.934 1.21869L121.606 53.3353C121.058 53.6919 120.602 54.1728 120.275 54.7388C119.948 55.3047 119.759 55.9399 119.724 56.5926Z" fill="#FAFAFA"/>
<path d="M120.766 152.408C120.532 152.409 120.303 152.349 120.1 152.234C119.852 152.069 119.654 151.839 119.526 151.57C119.399 151.301 119.347 151.003 119.376 150.707V56.6071C119.41 55.8899 119.615 55.1913 119.974 54.5693C120.333 53.9474 120.835 53.4201 121.439 53.0314L211.767 0.914743C212.003 0.722691 212.292 0.606931 212.595 0.582837C212.898 0.558742 213.201 0.627455 213.464 0.779851C213.727 0.932246 213.938 1.16111 214.068 1.43603C214.198 1.71094 214.241 2.01891 214.192 2.319V96.4185C214.158 97.1348 213.953 97.8327 213.594 98.4536C213.236 99.0745 212.733 99.6003 212.129 99.987L121.801 152.104C121.489 152.295 121.132 152.4 120.766 152.408ZM212.773 1.2839C212.54 1.29728 212.313 1.36948 212.115 1.49382L121.786 53.6466C121.295 53.973 120.885 54.4088 120.59 54.92C120.295 55.4311 120.122 56.0036 120.085 56.5927V150.692C120.042 150.862 120.055 151.041 120.123 151.203C120.191 151.364 120.31 151.499 120.462 151.587C120.613 151.674 120.789 151.71 120.963 151.688C121.137 151.667 121.299 151.589 121.424 151.467L211.753 99.35C212.245 99.024 212.655 98.5883 212.95 98.0771C213.245 97.5659 213.417 96.9932 213.454 96.404V2.30452C213.474 2.13477 213.451 1.9626 213.386 1.80429C213.322 1.64598 213.218 1.50674 213.085 1.39972C212.993 1.33364 212.886 1.29361 212.773 1.2839Z" fill="#E0E0E0"/>
<path d="M117.777 94.0296L111.262 90.2656C111.052 90.9015 110.935 91.5648 110.915 92.2345V165.979C110.952 166.632 111.141 167.267 111.468 167.832C111.795 168.398 112.25 168.879 112.797 169.237L114.911 170.46C115.492 170.756 116.136 170.911 116.789 170.911C117.442 170.911 118.086 170.756 118.667 170.46L119.572 169.946L117.777 94.0296Z" fill="#2642CA"/>
<g opacity="0.1">
<path d="M117.777 94.0296L111.262 90.2656C111.052 90.9015 110.935 91.5648 110.915 92.2345V165.979C110.952 166.632 111.141 167.267 111.468 167.832C111.795 168.398 112.25 168.879 112.797 169.237L114.911 170.46C115.492 170.756 116.136 170.911 116.789 170.911C117.442 170.911 118.086 170.756 118.667 170.46L119.572 169.946L117.777 94.0296Z" fill="black"/>
</g>
<path d="M216.762 37.9174V111.662C216.738 112.338 216.535 112.994 216.176 113.566C215.898 114.048 215.523 114.467 215.076 114.797L215.003 114.84L214.88 114.92L118.674 170.46C118.49 170.59 118.276 170.672 118.052 170.697C117.828 170.722 117.602 170.691 117.393 170.605C117.19 170.474 117.027 170.289 116.923 170.07C116.819 169.851 116.779 169.608 116.807 169.367V95.6293C116.79 95.3653 116.838 95.1013 116.946 94.8598C117.055 94.6183 117.22 94.4067 117.427 94.243C117.635 94.0793 117.88 93.9685 118.14 93.92C118.4 93.8715 118.668 93.8868 118.92 93.9645L159.354 103.584L164.653 104.844C165.279 104.962 165.926 104.907 166.524 104.684C167.121 104.46 167.645 104.078 168.04 103.577L174.179 95.0286L215.495 37.5048C216.19 36.5494 216.762 36.7159 216.762 37.9174Z" fill="#2642CA"/>
<path opacity="0.3" d="M216.762 37.9174V111.662C216.738 112.338 216.535 112.994 216.176 113.566C215.898 114.048 215.523 114.467 215.076 114.797L215.003 114.84L214.88 114.92L118.674 170.46C118.49 170.59 118.276 170.672 118.052 170.697C117.828 170.722 117.602 170.691 117.393 170.605C117.19 170.474 117.027 170.289 116.923 170.07C116.819 169.851 116.779 169.608 116.807 169.367V95.6293C116.79 95.3653 116.838 95.1013 116.946 94.8598C117.055 94.6183 117.22 94.4067 117.427 94.243C117.635 94.0793 117.88 93.9685 118.14 93.92C118.4 93.8715 118.668 93.8868 118.92 93.9645L159.354 103.584L164.653 104.844C165.279 104.962 165.926 104.907 166.524 104.684C167.121 104.46 167.645 104.078 168.04 103.577L174.179 95.0286L215.495 37.5048C216.19 36.5494 216.762 36.7159 216.762 37.9174Z" fill="white"/>
<path d="M214.881 114.92L215.004 114.84L215.076 114.797C215.524 114.467 215.899 114.048 216.177 113.566C216.528 113.002 216.728 112.356 216.756 111.691L174.179 95.043L202.691 121.963L214.881 114.92Z" fill="#2642CA"/>
<path d="M116.792 169.374C116.765 169.615 116.805 169.858 116.909 170.077C117.012 170.296 117.175 170.481 117.379 170.612C117.587 170.698 117.814 170.729 118.038 170.704C118.262 170.679 118.476 170.597 118.66 170.467L151.783 151.343L159.347 103.57L116.778 168.137L116.792 169.374Z" fill="#2642CA"/>
<path d="M216.176 113.566C215.898 114.048 215.523 114.467 215.076 114.797L215.003 114.84L118.674 170.46C118.49 170.59 118.276 170.672 118.052 170.697C117.828 170.722 117.602 170.691 117.393 170.605L163.458 97.0627C164.382 95.5887 165.805 94.4966 167.468 93.9861C169.131 93.4757 170.922 93.5812 172.514 94.2832L216.176 113.566Z" fill="#2642CA"/>
<path opacity="0.3" d="M216.176 113.566C215.898 114.048 215.523 114.467 215.076 114.797L215.003 114.84L118.674 170.46C118.49 170.59 118.276 170.672 118.052 170.697C117.828 170.722 117.602 170.691 117.393 170.605L163.458 97.0627C164.382 95.5887 165.805 94.4966 167.468 93.9861C169.131 93.4757 170.922 93.5812 172.514 94.2832L216.176 113.566Z" fill="white"/>
<path d="M159.499 78.2641C158.655 78.3948 157.791 78.3182 156.983 78.0407C156.174 77.7633 155.446 77.2935 154.859 76.6717C153.759 75.4484 153.209 73.5592 153.209 71.0185C153.211 68.1518 153.825 65.3186 155.011 62.7088C156.229 60.0232 157.91 57.573 159.977 55.4704C162.2 53.1654 164.733 51.1823 167.505 49.5783C170.222 48.0148 172.54 47.1486 174.461 46.9797C176.394 46.806 177.849 47.3054 178.847 48.4636C179.846 49.6217 180.339 51.3951 180.339 53.7693C180.381 56.124 179.823 58.4506 178.717 60.53C177.743 62.4132 176.258 63.9837 174.432 65.0613C173.802 65.5091 173.029 65.71 172.26 65.6259C171.987 65.5717 171.735 65.4398 171.535 65.2459C171.334 65.052 171.194 64.8044 171.131 64.5329C170.529 65.6729 169.763 66.719 168.858 67.6381C167.943 68.5823 166.901 69.3936 165.76 70.0485C163.792 71.1633 162.221 71.4962 161.063 71.1126C159.905 70.729 159.354 69.5563 159.354 67.602C159.371 65.1459 160.128 62.752 161.526 60.7327C163.048 58.4941 165.07 56.6404 167.432 55.3184C168.419 54.7308 169.491 54.301 170.61 54.0444C171.442 53.819 172.319 53.819 173.151 54.0444V61.6664C173.151 62.2817 173.259 62.6581 173.469 62.8029C173.679 62.9477 174.027 62.8753 174.519 62.593C175.436 61.9965 176.115 61.0975 176.437 60.0523C176.926 58.6404 177.159 57.1524 177.125 55.6586C177.125 53.7573 176.71 52.3747 175.88 51.5109C175.436 51.0773 174.895 50.7564 174.302 50.575C173.709 50.3936 173.081 50.3572 172.47 50.4686C170.703 50.7386 169.011 51.3694 167.498 52.3216C164.297 54.0969 161.539 56.5711 159.427 59.5601C157.475 62.3651 156.439 65.7049 156.459 69.122C156.459 71.2019 156.886 72.7195 157.74 73.675C158.183 74.1532 158.737 74.5146 159.354 74.7267C159.97 74.9389 160.629 74.9953 161.273 74.891C163.074 74.6359 164.801 74.0018 166.339 73.0308C167.401 72.4166 168.407 71.7092 169.343 70.9171C170.216 70.1971 171.009 69.3867 171.71 68.4995C171.783 68.4061 171.868 68.3233 171.964 68.2534C172.029 68.2172 172.094 68.2534 172.152 68.3403L172.948 69.788C172.977 69.8454 172.999 69.9061 173.013 69.9689C172.988 70.1302 172.909 70.2781 172.789 70.3887C171.914 71.4403 170.945 72.4095 169.894 73.2841C168.786 74.213 167.602 75.046 166.354 75.7741C164.275 77.0873 161.937 77.9366 159.499 78.2641ZM168.909 64.6559C169.598 63.8427 170 62.8251 170.053 61.7606V57.3451C169.02 57.4323 168.025 57.7757 167.157 58.344C165.777 59.1207 164.601 60.2149 163.726 61.5362C162.906 62.7483 162.465 64.1769 162.46 65.6403C162.46 66.8636 162.764 67.5947 163.379 67.8119C163.994 68.029 164.942 67.8119 166.238 67.0374C167.287 66.4305 168.205 65.621 168.938 64.6559H168.909Z" fill="#E0E0E0"/>
<path d="M67.3107 85.5174L60.2532 81.4277H60.2026C57.7922 80.0669 54.4697 80.2696 50.7926 82.3904C43.4022 86.6538 37.416 97.0265 37.416 105.553C37.416 109.817 38.9071 112.792 41.3175 114.239L47.8828 117.996L49.0699 116.02C50.4162 115.718 51.7095 115.216 52.9062 114.529C60.2894 110.258 66.2828 99.8857 66.2828 91.3661C66.2788 90.2146 66.1379 89.0677 65.863 87.9495L67.3107 85.5174Z" fill="#F28F8F"/>
<path d="M67.3107 85.5174L60.2532 81.4277H60.2026C57.7922 80.0669 54.4697 80.2696 50.7926 82.3904C43.4022 86.6538 37.416 97.0265 37.416 105.553C37.416 109.817 38.9071 112.792 41.3175 114.239L47.8828 117.996L49.0699 116.02C50.4162 115.718 51.7095 115.216 52.9062 114.529C60.2894 110.258 66.2828 99.8857 66.2828 91.3661C66.2788 90.2146 66.1379 89.0677 65.863 87.9495L67.3107 85.5174Z" fill="#2642CA"/>
<path opacity="0.4" d="M67.3107 85.5174L60.2532 81.4277H60.2026C57.7922 80.0669 54.4697 80.2696 50.7926 82.3904C43.4022 86.6538 37.416 97.0265 37.416 105.553C37.416 109.817 38.9071 112.792 41.3175 114.239L47.8828 117.996L49.0699 116.02C50.4162 115.718 51.7095 115.216 52.9062 114.529C60.2894 110.258 66.2828 99.8857 66.2828 91.3661C66.2788 90.2146 66.1379 89.0677 65.863 87.9495L67.3107 85.5174Z" fill="black"/>
<path d="M57.5748 86.2775C50.1844 90.5482 44.1982 100.921 44.1982 109.44C44.1982 117.96 50.1844 121.427 57.5748 117.164C64.9653 112.9 70.9514 102.528 70.9514 94.0009C70.9514 85.474 64.9653 82.0141 57.5748 86.2775Z" fill="#2642CA"/>
<path d="M52.3486 111.481C52.2111 111.481 52.1387 111.402 52.1387 111.279C52.1529 111.142 52.1922 111.01 52.2545 110.888L52.9277 109.375C52.9722 109.227 53.0605 109.096 53.181 108.999C53.2812 108.953 53.3895 108.929 53.4995 108.926C54.1018 108.89 54.6962 108.771 55.2657 108.571C56.0229 108.316 56.7508 107.982 57.4372 107.573C58.5052 106.994 59.4417 106.2 60.1878 105.242C60.7473 104.517 61.0594 103.631 61.0781 102.716C61.0781 101.116 60.1009 100.884 58.1466 101.992L56.2429 103.143C55.9316 103.316 55.7145 103.382 55.5842 103.324C55.4539 103.266 55.3887 103.092 55.3887 102.802V102.202C55.3784 101.946 55.4466 101.693 55.5842 101.478C55.7585 101.242 55.9836 101.05 56.2429 100.913L58.1321 99.8202C58.8891 99.4083 59.5311 98.8136 59.9996 98.0903C60.3922 97.4833 60.6078 96.779 60.6221 96.0563C60.6221 94.5072 59.5315 94.3625 57.3503 95.622C56.009 96.3863 54.8012 97.3643 53.7746 98.5173C53.6781 98.6262 53.5714 98.7256 53.4561 98.8141C53.4135 98.8343 53.3653 98.8396 53.3194 98.8291C53.2734 98.8186 53.2323 98.7929 53.2027 98.7562L52.5585 98.0324C52.5226 97.999 52.4938 97.9587 52.4738 97.914C52.4539 97.8692 52.4433 97.8208 52.4427 97.7718C52.4574 97.6056 52.529 97.4497 52.6454 97.3302C53.2866 96.5282 54.0149 95.7999 54.8169 95.1587C55.7508 94.3977 56.7458 93.715 57.7919 93.1175C58.7363 92.5297 59.7781 92.1155 60.8682 91.8942C61.2112 91.8106 61.5684 91.8029 61.9147 91.8716C62.2611 91.9404 62.5882 92.0839 62.8733 92.2923C63.1303 92.5401 63.3287 92.8423 63.4539 93.1767C63.5792 93.5111 63.6281 93.8692 63.5971 94.2249C63.5808 95.0219 63.4035 95.8073 63.0759 96.534C62.7261 97.3728 62.2366 98.1462 61.6282 98.8213C61.9407 98.7166 62.2746 98.6929 62.5986 98.7524C62.9227 98.8119 63.2264 98.9527 63.4813 99.1615C63.7043 99.4212 63.8736 99.7225 63.9792 100.048C64.0848 100.374 64.1247 100.717 64.0965 101.058C64.0412 102.663 63.4786 104.209 62.4896 105.473C61.2756 107.102 59.7252 108.45 57.9439 109.426C55.396 110.917 53.5309 111.602 52.3486 111.481Z" fill="white"/>
<path d="M204.138 190.069L204.276 189.946C204.377 189.859 204.486 189.773 204.58 189.678L204.906 189.36L205.231 189.049C205.422 188.87 205.603 188.682 205.774 188.484L208.351 190.41L210.067 191.691C209.442 192.368 208.933 193.143 208.561 193.985C208.561 193.985 208.047 194.818 206.303 194.398C204.146 193.898 203.805 190.728 204.138 190.069Z" fill="#FFA8A7"/>
<path d="M178.898 189.186C176.929 186.899 178.681 183.099 180.591 178.169C182.691 172.748 185.933 163.533 185.933 163.533L208.959 158.778C208.959 158.778 233.49 158.307 235.741 162.998C237.565 166.754 221.409 172.407 219.093 172.61L204.913 173.356L203.421 174.08L193.461 186.682L178.898 189.186Z" fill="#2642CA"/>
<path d="M221.323 166.841C219.535 168.66 217.869 170.594 216.335 172.632C212.188 178.423 205.623 188.94 205.623 188.94C205.623 188.94 206.643 192.27 209.777 192.125C209.777 192.125 231.348 171.981 233.114 170.12C235.785 167.297 237.928 162.643 233.31 162.26C228.691 161.876 223.118 164.902 221.323 166.841Z" fill="#2642CA"/>
<path d="M216.219 172.748C216.219 172.748 220.07 167.116 224.059 164.786C224.059 164.786 220.092 165.567 214.084 172.878L216.219 172.748Z" fill="#2642CA"/>
<path opacity="0.1" d="M216.219 172.748C216.219 172.748 220.07 167.116 224.059 164.786C224.059 164.786 220.092 165.567 214.084 172.878L216.219 172.748Z" fill="black"/>
<path d="M218.84 179.87L217.327 180.16L218.731 185.35C218.731 185.35 220.092 185.22 220.563 185.248C221.248 185.086 221.908 184.83 222.524 184.488L222.162 181.318L220.498 179.581L218.84 179.87Z" fill="#FFA8A7"/>
<path d="M230.783 181.094C231.505 181.385 232.16 181.822 232.705 182.377C233.251 182.933 233.676 183.595 233.954 184.322C234.276 185.082 234.54 185.866 234.743 186.667C234.982 187.507 234.866 188.933 233.802 189.164C233.456 189.205 233.106 189.142 232.796 188.983C230.66 188.158 228.576 187.203 226.39 186.508C224.516 185.814 222.555 185.388 220.563 185.241C221.015 184.544 221.242 183.724 221.211 182.894C221.18 182.063 220.893 181.262 220.389 180.601C219.96 180.205 219.419 179.952 218.84 179.877C219.39 179.631 219.904 179.313 220.432 179.016C221.416 178.328 222.622 178.031 223.813 178.184C224.725 178.379 225.42 179.103 226.194 179.631C227.671 180.594 229.097 180.529 230.783 181.094Z" fill="#263238"/>
<path d="M182.003 184.214C183.907 183.627 186.947 183.106 195.966 182.643C204.985 182.18 217.327 180.153 217.327 180.153C219.426 182.172 218.731 185.343 218.731 185.343C218.731 185.343 202.712 190.41 197.493 191.083C189.184 192.154 186.317 192.074 182.568 191.271C178.355 190.366 175.698 186.146 182.003 184.214Z" fill="#2642CA"/>
<path d="M214.967 141.253L221.742 157.446L216.892 160.428L207.569 144.641L214.967 141.253Z" fill="#F28F8F"/>
<path d="M200.954 125.995C204.66 126.038 208.735 127.385 210.14 130.287L215.93 142.231C215.93 142.231 212.659 147.022 207.461 146.682L200.954 125.995Z" fill="#E0E0E0"/>
<path d="M176.314 151.163C176.357 150.533 177.262 147.457 178.232 144.142L185.268 146.574L183.379 152.531L177.45 158.155C176.166 156.065 175.758 153.552 176.314 151.163Z" fill="#FFA8A7"/>
<path d="M193.375 126.219C188.959 127.283 182.944 128.666 181.2 133.458C179.455 138.25 176.958 146.711 176.958 146.711C177.928 148.391 183.248 149.78 185.094 148.81L185.963 145.915V163.519C189.415 167.276 206.447 166.313 208.988 158.763V134.782C208.988 130.946 206.86 126.335 200.975 125.995L193.375 126.219Z" fill="#FAFAFA"/>
<path d="M185.941 145.93L188.156 138.959L185.941 149.049V145.93Z" fill="#E0E0E0"/>
<path d="M191.696 106.596C191.303 106.545 190.903 106.583 190.527 106.709C190.151 106.834 189.808 107.043 189.524 107.32C188.591 108.275 188.801 110.041 189.524 114.095L192.42 114.421L191.696 106.596Z" fill="#263238"/>
<path d="M208.496 105.423C209.116 105.426 209.73 105.3 210.298 105.054C211.181 104.547 211.413 105.554 210.928 106.422C210.608 107.048 210.132 107.582 209.546 107.972C208.961 108.363 208.285 108.597 207.584 108.652C207.584 108.529 206.759 106.4 206.759 106.4L208.496 105.423Z" fill="#263238"/>
<path d="M193.05 114.464C192.622 114.718 192.007 113.9 191.479 113.342C191.272 113.105 191.007 112.925 190.711 112.818C190.415 112.712 190.096 112.682 189.785 112.733C189.475 112.784 189.182 112.913 188.935 113.108C188.688 113.303 188.495 113.558 188.374 113.849C187.498 115.695 189.488 118.149 190.654 118.959C190.981 119.241 191.388 119.413 191.819 119.449C192.249 119.485 192.68 119.385 193.05 119.162L193.354 126.219C193.87 127.35 194.658 128.336 195.649 129.087C196.639 129.839 197.8 130.333 199.029 130.526C203.169 131.084 202.315 127.667 200.954 125.995V123.411C201.991 123.632 203.056 123.686 204.11 123.57C204.646 123.425 205.934 121.869 206.766 120.125C207.7 118.17 209.256 114.696 207.874 108.811C206.383 102.499 199.6 102.296 195.569 104.852C191.537 107.407 193.05 114.464 193.05 114.464Z" fill="#FFA8A7"/>
<path d="M193.049 115.181C192.832 115.181 192.014 113.827 191.479 113.342C190.755 112.669 191.696 106.596 191.696 106.596C191.696 106.596 190.972 104.287 192.42 102.759C193.867 101.232 196.705 101.486 198.775 101.413C201.312 101.427 203.824 100.922 206.158 99.9293C209.097 98.6553 209.314 98.4816 209.676 99.7917C210.038 101.102 210.183 104.033 208.431 106.01L207.476 107.566C207.476 107.566 206.585 108.29 203.856 108.652C201.128 109.013 196.452 107.515 195.894 107.435C195.098 107.327 194.931 108.094 194.504 110.193C194.099 112.039 193.773 115.166 193.049 115.181Z" fill="#263238"/>
<path d="M191.703 107.066L189.112 105.677C189.197 105.504 189.316 105.351 189.461 105.225C189.606 105.099 189.775 105.003 189.958 104.943C190.14 104.883 190.333 104.86 190.524 104.876C190.716 104.891 190.903 104.944 191.073 105.032C191.419 105.227 191.676 105.546 191.793 105.924C191.91 106.302 191.878 106.711 191.703 107.066Z" fill="#263238"/>
<path d="M200.946 123.411C200.946 123.411 197.11 122.636 195.771 121.963C194.983 121.55 194.337 120.909 193.918 120.125C194.121 120.912 194.481 121.65 194.975 122.296C195.952 123.548 200.946 124.468 200.946 124.468V123.411Z" fill="#F28F8F"/>
<path d="M201.07 114.319C201.064 114.47 201.014 114.615 200.927 114.737C200.839 114.86 200.717 114.953 200.576 115.007C200.436 115.061 200.283 115.072 200.136 115.039C199.989 115.006 199.855 114.931 199.75 114.823C199.646 114.714 199.576 114.578 199.548 114.43C199.521 114.282 199.538 114.129 199.597 113.99C199.656 113.852 199.754 113.734 199.879 113.651C200.005 113.567 200.152 113.523 200.302 113.523C200.405 113.525 200.506 113.547 200.6 113.588C200.695 113.629 200.78 113.688 200.851 113.762C200.922 113.836 200.978 113.923 201.016 114.019C201.053 114.114 201.072 114.217 201.07 114.319Z" fill="#263238"/>
<path d="M200.259 111.424L198.608 112.329C198.494 112.102 198.47 111.841 198.541 111.598C198.612 111.354 198.774 111.147 198.992 111.018C199.101 110.959 199.221 110.922 199.345 110.91C199.469 110.899 199.593 110.912 199.712 110.95C199.83 110.988 199.94 111.049 200.034 111.131C200.128 111.212 200.204 111.312 200.259 111.424Z" fill="#263238"/>
<path d="M200.613 119.459L202.372 120.125C202.333 120.242 202.271 120.35 202.189 120.443C202.108 120.536 202.008 120.612 201.897 120.666C201.786 120.72 201.665 120.751 201.541 120.758C201.418 120.764 201.294 120.746 201.178 120.704C200.941 120.61 200.749 120.427 200.644 120.195C200.539 119.963 200.528 119.699 200.613 119.459Z" fill="#F28F8F"/>
<path d="M207.924 112.061L206.426 110.903C206.497 110.802 206.587 110.717 206.692 110.652C206.797 110.588 206.914 110.545 207.036 110.527C207.157 110.508 207.281 110.515 207.401 110.546C207.52 110.577 207.631 110.632 207.729 110.707C207.929 110.865 208.061 111.093 208.097 111.345C208.133 111.597 208.072 111.853 207.924 112.061Z" fill="#263238"/>
<path d="M207.461 114.102C207.455 114.253 207.405 114.398 207.318 114.52C207.23 114.643 207.108 114.736 206.968 114.79C206.827 114.844 206.674 114.855 206.527 114.822C206.38 114.789 206.246 114.714 206.142 114.606C206.037 114.497 205.967 114.361 205.94 114.213C205.912 114.065 205.929 113.912 205.988 113.773C206.047 113.635 206.145 113.517 206.27 113.433C206.396 113.35 206.543 113.306 206.693 113.306C206.796 113.308 206.897 113.33 206.992 113.371C207.086 113.412 207.171 113.471 207.242 113.545C207.313 113.619 207.369 113.706 207.407 113.802C207.444 113.897 207.463 113.999 207.461 114.102Z" fill="#263238"/>
<path d="M203.842 114.008L203.118 118.582L205.651 118.286L203.842 114.008Z" fill="#F28F8F"/>
<path d="M230.248 165.958L214.649 156.954C214.512 156.876 214.358 156.834 214.2 156.834C214.043 156.834 213.888 156.876 213.751 156.954L186.397 172.748L202.438 182.042L230.248 165.958Z" fill="#37474F"/>
<path d="M202.292 180.688L193.881 175.838L218.477 161.637L226.932 166.465L202.292 180.688Z" fill="#263238"/>
<path d="M198.16 167.196L198.319 167.283L202.438 169.664L209.77 165.43L209.922 165.343L205.644 162.875L198.16 167.196Z" fill="#263238"/>
<path d="M198.319 167.283L202.438 169.664L209.77 165.43L205.644 163.049L198.319 167.283Z" fill="#263238"/>
<path d="M186.398 172.748V173.117C186.395 173.378 186.461 173.635 186.588 173.864C186.715 174.092 186.898 174.284 187.121 174.42L201.656 182.809C201.885 182.942 202.144 183.012 202.409 183.012C202.673 183.012 202.933 182.942 203.162 182.809L229.466 167.609C229.688 167.472 229.872 167.28 229.999 167.052C230.125 166.824 230.191 166.567 230.19 166.306V165.937L202.438 182.042L186.398 172.748Z" fill="#263238"/>
<path d="M202.437 182.042V183.041C202.692 183.038 202.942 182.968 203.161 182.838L229.465 167.637C229.688 167.5 229.871 167.309 229.998 167.08C230.125 166.852 230.19 166.595 230.189 166.334V165.965L202.437 182.042Z" fill="#263238"/>
<path d="M202.865 182.237C203.114 182.333 203.38 182.371 203.646 182.35C203.911 182.328 204.169 182.248 204.399 182.114L230.588 166.993C230.815 166.863 231.01 166.684 231.159 166.468C231.308 166.253 231.407 166.007 231.449 165.748L234.345 148.658C234.352 148.56 234.352 148.46 234.345 148.362C234.343 147.886 234.153 147.431 233.816 147.095L206.6 162.81C206.432 162.906 206.288 163.039 206.178 163.198C206.068 163.357 205.995 163.538 205.963 163.729L202.865 182.237Z" fill="#263238"/>
<path d="M202.437 182.042L202.618 182.143C202.698 182.189 202.78 182.23 202.864 182.266L205.962 163.758C205.994 163.567 206.067 163.385 206.178 163.227C206.288 163.068 206.432 162.935 206.599 162.838L233.816 147.124C233.704 147.02 233.583 146.928 233.454 146.849L206.187 162.563C206.018 162.66 205.874 162.792 205.762 162.951C205.651 163.11 205.576 163.291 205.542 163.483L202.437 182.042Z" fill="#455A64"/>
<path d="M217.609 166.45C218.021 165.021 218.967 163.806 220.251 163.055C221.518 162.332 222.386 162.657 222.198 163.779C221.786 165.208 220.84 166.424 219.556 167.174C218.29 167.934 217.421 167.565 217.609 166.45Z" fill="#37474F"/>
<path d="M183.378 152.516C183.378 152.516 188.076 170.612 190.06 171.908C192.043 173.204 195.734 174.152 197.501 174.804C199.267 175.455 200.07 176.345 199.766 176.591C199.462 176.838 196.914 177.105 196.031 177.417C195.148 177.728 196.292 179.154 198.246 180.667C200.201 182.179 201.865 182.042 201.648 183.048C201.431 184.054 197.074 185.06 193.396 182.903C189.719 180.746 188.605 177.836 186.411 175.368C184.218 172.9 179.209 162.643 177.45 158.155C177.45 158.155 177.617 149.816 180.346 150.345C183.074 150.873 183.378 152.516 183.378 152.516Z" fill="#FFA8A7"/>
<path d="M205.73 189.186C206.063 189.99 207.214 192.205 209.777 192.082L216.074 186.189L205.73 189.186Z" fill="#2642CA"/>
<path opacity="0.1" d="M205.73 189.186C206.063 189.99 207.214 192.205 209.777 192.082L216.074 186.189L205.73 189.186Z" fill="black"/>
<path d="M207.634 199.552C207.573 197.656 207.886 195.767 208.553 193.992C208.25 194.204 207.9 194.34 207.534 194.388C207.167 194.435 206.794 194.394 206.447 194.268C204.341 193.638 203.812 190.699 204.145 190.062C203.841 190.33 203.523 190.583 203.211 190.844C202.213 191.514 201.503 192.534 201.221 193.703C201.076 194.622 201.503 195.527 201.713 196.439C202.118 198.176 201.713 199.986 201.648 201.767C201.663 202.544 201.836 203.309 202.159 204.017C202.481 204.724 202.945 205.357 203.523 205.878C204.116 206.457 204.755 206.987 205.434 207.463C205.68 207.741 206.007 207.935 206.369 208.019C206.731 208.103 207.11 208.072 207.454 207.932C207.798 207.791 208.09 207.547 208.289 207.234C208.489 206.921 208.586 206.553 208.568 206.182C208.293 203.924 207.764 201.904 207.634 199.552Z" fill="#263238"/>
<path d="M210.024 191.705C209.828 192.074 209.654 192.429 209.502 192.784C209.683 192.436 209.857 192.074 210.024 191.705Z" fill="#37474F"/>
</svg>
