<svg width="234" height="235" viewBox="0 0 234 235" fill="none" xmlns="http://www.w3.org/2000/svg">
<path d="M67.3382 4.55859H6.64844V105.016H67.3382V4.55859Z" fill="#E0E0E0"/>
<path d="M65.3187 4.55859H4.62891V105.016H65.3187V4.55859Z" fill="#EBEBEB"/>
<path d="M62.7337 6.59766H7.21484V102.981H62.7337V6.59766Z" fill="white"/>
<path d="M51.93 19.125H17.7891V90.4586H51.93V19.125Z" fill="#EBEBEB"/>
<path d="M17.7859 65.196C17.7065 58.531 23.6986 52.0249 30.2948 51.0924C33.4418 50.6527 36.7849 51.2779 39.7254 50.0699C44.9705 47.9189 46.6447 40.9466 51.911 38.875L52.1547 90.4361H17.7859V65.196Z" fill="#E0E0E0"/>
<path d="M226.051 0V55.2804H146.654L143.793 0.386761L226.051 0Z" fill="#E0E0E0"/>
<path d="M143.797 0.386978V55.1641L223.194 55.1641V0.386978L143.797 0.386978Z" fill="white"/>
<path d="M223.568 55.5395H143.418V0.03125H223.568V55.5395ZM144.176 54.7871H222.815V0.746494H144.176V54.7871Z" fill="#E0E0E0"/>
<path d="M214.594 7.19531H152.395V48.3616H214.594V7.19531Z" fill="white"/>
<path d="M214.586 7.19432H214.279H213.394H209.982L197.161 7.24201L152.386 7.33207L152.566 7.15194C152.566 19.7296 152.566 33.6424 152.566 48.3129L152.37 48.1169L214.57 48.1539L214.416 48.3129C214.448 35.7829 214.475 25.5311 214.496 18.3574C214.496 14.7865 214.528 11.9997 214.538 10.0765C214.538 9.13343 214.538 8.40759 214.538 7.89897C214.538 7.40625 214.538 7.14664 214.538 7.14664C214.538 7.14664 214.538 7.38506 214.538 7.86718C214.538 8.34931 214.538 9.08045 214.538 9.98642C214.538 11.8937 214.538 14.6752 214.575 18.2356C214.575 25.4092 214.623 35.7193 214.66 48.2864V48.44H214.501L152.301 48.4824H152.105V48.2864C152.105 33.6371 152.105 19.7031 152.105 7.12545V6.94531H152.28L197.176 7.03538L209.95 7.08306H213.33H214.194C214.327 7.1105 214.458 7.14768 214.586 7.19432Z" fill="#E0E0E0"/>
<path d="M143.787 0.230469C144.278 0.466449 144.737 0.763746 145.154 1.11525C145.964 1.70334 147.072 2.53514 148.269 3.4888C149.467 4.44246 150.51 5.34843 151.252 6.02659C151.679 6.36442 152.06 6.75622 152.386 7.19217C152.317 7.27694 150.404 5.69811 148.02 3.79609C145.636 1.89407 143.718 0.320536 143.787 0.230469Z" fill="#E0E0E0"/>
<path d="M223.189 0.382438C223.257 0.467207 221.387 2.06194 219.014 3.94276C216.64 5.82359 214.659 7.27527 214.59 7.1905C214.521 7.10573 216.391 5.511 218.77 3.63017C221.149 1.74935 223.12 0.297668 223.189 0.382438Z" fill="#E0E0E0"/>
<path d="M223.121 55.175L214.268 47.9961L223.121 55.175Z" fill="white"/>
<path d="M214.269 47.9951C214.338 47.9157 216.388 49.4521 218.82 51.4336C221.252 53.4151 223.191 55.0893 223.122 55.1741C223.053 55.2588 221.003 53.7171 218.576 51.7356C216.15 49.7541 214.206 48.0799 214.269 47.9951Z" fill="#E0E0E0"/>
<path d="M143.787 55.1657C143.723 55.081 145.572 53.5074 147.925 51.6478C150.277 49.7882 152.232 48.3524 152.301 48.4372C152.37 48.5219 150.515 50.0955 148.168 51.9551C145.821 53.8147 143.856 55.2505 143.787 55.1657Z" fill="#E0E0E0"/>
<path d="M165.02 20.0151V33.8008H204.157V20.0151H165.02Z" fill="#E0E0E0"/>
<path d="M105.629 183.652C105.629 181.252 107.467 179.514 109.942 179.514C110.538 179.493 111.131 179.602 111.68 179.834C112.23 180.067 112.721 180.417 113.12 180.86L112.161 181.756C111.892 181.453 111.56 181.212 111.189 181.05C110.817 180.887 110.416 180.806 110.01 180.812C109.628 180.796 109.247 180.857 108.889 180.992C108.531 181.127 108.204 181.333 107.927 181.597C107.651 181.862 107.431 182.18 107.281 182.531C107.131 182.883 107.053 183.262 107.053 183.644C107.053 184.027 107.131 184.405 107.281 184.757C107.431 185.109 107.651 185.427 107.927 185.691C108.204 185.956 108.531 186.162 108.889 186.297C109.247 186.432 109.628 186.493 110.01 186.476C110.417 186.483 110.821 186.401 111.192 186.235C111.564 186.069 111.895 185.824 112.161 185.517L113.131 186.439C112.731 186.882 112.24 187.231 111.691 187.464C111.141 187.696 110.548 187.806 109.952 187.785C107.451 187.795 105.629 186.058 105.629 183.652Z" fill="#EBEBEB"/>
<path d="M97.4543 189.966H87.4727V179.984H97.4543V189.966ZM88.0025 189.436H96.9245V180.514H88.0025V189.436Z" fill="#EBEBEB"/>
<path d="M85.5717 192.042C85.275 191.82 87.6592 188.238 91.3308 184.439C95.0024 180.641 98.4885 178.119 98.7481 178.405C99.0077 178.691 95.956 181.647 92.348 185.398C88.74 189.149 85.879 192.286 85.5717 192.042Z" fill="#E0E0E0"/>
<path d="M98.8871 191.824C98.5639 192.057 95.8407 188.746 92.2433 184.904C88.6459 181.063 85.5306 178.118 85.7796 177.81C86.0286 177.503 89.5889 180.036 93.2499 183.961C96.9109 187.887 99.1891 191.633 98.8871 191.824Z" fill="#E0E0E0"/>
<path d="M30.6327 151.094L25.732 150.744L24.6035 152.948L22.7227 152.816L27.8353 143.316L29.6261 143.444L33.3348 153.568L31.4274 153.436L30.6327 151.094ZM30.1347 149.621L28.593 145.197L26.4737 149.356L30.1347 149.621Z" fill="#EBEBEB"/>
<path d="M14.6221 153.352L2.57422 152.499L3.43251 140.43L15.4751 141.288L14.6221 153.352ZM3.14112 152.006L14.1294 152.79L14.9082 141.797L3.91994 141.018L3.14112 152.006Z" fill="#EBEBEB"/>
<path d="M0.0162291 154.919C-0.259272 154.681 2.99906 150.575 7.79384 146.272C12.5886 141.97 17.0072 139.147 17.2192 139.443C17.4311 139.74 13.4416 143.035 8.7422 147.295C4.04279 151.555 0.307625 155.184 0.0162291 154.919Z" fill="#E0E0E0"/>
<path d="M16.2523 155.824C15.9132 156.036 12.9357 151.718 8.87201 146.722C4.80837 141.726 1.22156 137.906 1.48646 137.615C1.75137 137.323 5.82031 140.762 9.96342 145.853C14.1065 150.945 16.5649 155.639 16.2523 155.824Z" fill="#E0E0E0"/>
<path d="M233.89 98.6895C234.351 100.311 233.36 101.619 230.912 102.308L226.208 103.638L223.559 94.1755L227.993 92.9198C230.261 92.2788 231.749 92.9198 232.173 94.3927C232.309 94.8149 232.322 95.2669 232.212 95.6964C232.101 96.1258 231.871 96.5151 231.548 96.8192C232.092 96.8219 232.619 97.0079 233.044 97.3473C233.469 97.6868 233.767 98.1596 233.89 98.6895ZM225.678 95.055L226.42 97.6669L228.904 96.9623C230.123 96.6179 230.69 95.9874 230.446 95.1238C230.202 94.2602 229.387 94.0059 228.168 94.3503L225.678 95.055ZM232.073 99.0126C231.802 98.0696 230.965 97.8523 229.641 98.2285L226.806 99.0338L227.575 101.762L230.414 100.957C231.739 100.581 232.338 99.961 232.073 99.0126Z" fill="#EBEBEB"/>
<path d="M205.814 110.561L202.523 98.9425L214.142 95.6523L217.432 107.271L205.814 110.561ZM203.165 99.308L206.163 109.904L216.759 106.9L213.755 96.304L203.165 99.308Z" fill="#EBEBEB"/>
<path d="M204.236 113.712C203.892 113.574 205.561 108.609 208.607 102.93C211.653 97.2503 214.853 93.0966 215.15 93.3085C215.447 93.5205 212.819 97.9656 209.852 103.582C206.885 109.198 204.596 113.86 204.236 113.712Z" fill="#E0E0E0"/>
<path d="M219.815 109.044C219.566 109.356 215.301 106.31 209.781 102.993C204.26 99.6767 199.587 97.2978 199.746 96.9323C199.905 96.5667 204.896 98.421 210.491 101.812C216.085 105.203 220.048 108.763 219.815 109.044Z" fill="#E0E0E0"/>
<path d="M232.615 213.544C232.615 213.618 180.614 213.682 116.491 213.682C52.3683 213.682 0.351562 213.592 0.351562 213.544C0.351562 213.496 52.3418 213.406 116.491 213.406C180.641 213.406 232.615 213.438 232.615 213.544Z" fill="black"/>
<path d="M164.354 26.1133H28.293V164.139H164.354V26.1133Z" fill="white"/>
<path d="M164.356 164.141C164.356 164.141 164.356 164.078 164.356 163.972C164.356 163.866 164.356 163.696 164.356 163.484C164.356 163.055 164.356 162.425 164.356 161.577C164.356 159.892 164.356 157.407 164.33 154.16C164.33 147.675 164.293 138.17 164.266 126.08C164.24 101.936 164.197 67.4561 164.144 26.115L164.383 26.3534L28.338 26.3905L28.6135 26.115C28.6135 76.696 28.6135 124.077 28.5764 164.136L28.338 163.903L126.914 164.019L154.576 164.083L161.877 164.109H163.757H164.234H164.399H163.784H161.93L154.671 164.136L127.068 164.199L28.338 164.316H28.0996V164.078C28.0996 124.019 28.0996 76.6589 28.0625 26.0568V25.7812H28.3539L164.399 25.8183H164.642V26.0568C164.589 67.4614 164.547 101.989 164.52 126.191C164.489 138.26 164.467 147.744 164.457 154.218C164.457 157.439 164.457 159.913 164.425 161.587C164.425 162.414 164.425 163.044 164.425 163.468V163.94C164.41 164.009 164.387 164.077 164.356 164.141Z" fill="#263238"/>
<path d="M38.9804 48.625V52.286H38.297V49.1972H37.5234V48.625H38.9804Z" fill="black"/>
<path d="M39.6797 51.8901C39.6797 51.8337 39.6908 51.7779 39.7124 51.7259C39.7339 51.6738 39.7655 51.6265 39.8054 51.5866C39.8452 51.5468 39.8925 51.5152 39.9446 51.4936C39.9967 51.472 40.0525 51.4609 40.1088 51.4609C40.1652 51.4609 40.221 51.472 40.2731 51.4936C40.3251 51.5152 40.3724 51.5468 40.4123 51.5866C40.4521 51.6265 40.4837 51.6738 40.5053 51.7259C40.5269 51.7779 40.538 51.8337 40.538 51.8901C40.538 51.9464 40.5269 52.0022 40.5053 52.0543C40.4837 52.1064 40.4521 52.1537 40.4123 52.1935C40.3724 52.2334 40.3251 52.265 40.2731 52.2866C40.221 52.3081 40.1652 52.3192 40.1088 52.3192C40.0525 52.3192 39.9967 52.3081 39.9446 52.2866C39.8925 52.265 39.8452 52.2334 39.8054 52.1935C39.7655 52.1537 39.7339 52.1064 39.7124 52.0543C39.6908 52.0022 39.6797 51.9464 39.6797 51.8901Z" fill="black"/>
<path d="M84.5997 33.8266C84.5817 33.4334 84.6819 33.0439 84.8872 32.7082C85.0925 32.3724 85.3937 32.1059 85.7519 31.9428C86.1101 31.7797 86.5089 31.7276 86.8969 31.7932C87.285 31.8587 87.6445 32.039 87.9292 32.3107C88.2139 32.5824 88.4108 32.9331 88.4944 33.3177C88.5781 33.7022 88.5447 34.103 88.3985 34.4685C88.2523 34.8339 88.0001 35.1472 87.6744 35.368C87.3486 35.5888 86.9642 35.707 86.5706 35.7074C86.316 35.7204 86.0613 35.6813 85.8223 35.5925C85.5833 35.5038 85.3649 35.3672 85.1804 35.1911C84.9959 35.0151 84.8493 34.8033 84.7495 34.5687C84.6496 34.3341 84.5987 34.0816 84.5997 33.8266ZM87.858 33.8266C87.858 33.572 87.7825 33.323 87.6411 33.1113C87.4996 32.8996 87.2985 32.7346 87.0633 32.6371C86.828 32.5397 86.5692 32.5142 86.3194 32.5639C86.0697 32.6136 85.8403 32.7362 85.6602 32.9162C85.4802 33.0963 85.3576 33.3257 85.3079 33.5754C85.2582 33.8252 85.2837 34.084 85.3812 34.3193C85.4786 34.5545 85.6436 34.7556 85.8553 34.8971C86.0671 35.0385 86.316 35.114 86.5706 35.114C86.7406 35.1184 86.9098 35.0881 87.0677 35.0249C87.2256 34.9617 87.3689 34.8669 87.4889 34.7464C87.6089 34.6259 87.7031 34.4822 87.7657 34.324C87.8282 34.1658 87.8579 33.9966 87.8528 33.8266H87.858Z" fill="black"/>
<path d="M92.5187 32V35.661H91.9624L89.9438 33.1815V35.661H89.2656V32H89.8272L91.8458 34.4689V32H92.5187Z" fill="black"/>
<path d="M93.4961 32H94.1743V35.0835H96.0922V35.661H93.4961V32Z" fill="black"/>
<path d="M96.6328 32H97.311V35.661H96.6328V32Z" fill="black"/>
<path d="M101.549 32V35.661H100.987L98.9736 33.1815V35.661H98.3008V32H98.8624L100.876 34.4689V32H101.549Z" fill="black"/>
<path d="M105.281 35.0888V35.661H102.531V32H105.18V32.5669H103.215V33.5206H104.984V34.0769H103.215V35.0888H105.281Z" fill="black"/>
<path d="M108.225 32.5722H107.012V32H110.106V32.5722H108.893V35.661H108.209L108.225 32.5722Z" fill="black"/>
<path d="M113.381 35.0888V35.661H110.637V32H113.286V32.5669H111.294V33.5206H113.058V34.0769H111.294V35.0888H113.381Z" fill="black"/>
<path d="M113.816 35.269L114.055 34.7392C114.404 34.9989 114.827 35.14 115.263 35.1419C115.835 35.1419 116.073 34.9352 116.073 34.665C116.073 33.8756 113.896 34.3948 113.896 33.0332C113.896 32.4398 114.367 31.9418 115.374 31.9418C115.802 31.9339 116.224 32.0458 116.593 32.265L116.375 32.7948C116.072 32.6103 115.724 32.5097 115.369 32.5034C114.802 32.5034 114.574 32.7259 114.574 33.0014C114.574 33.7802 116.741 33.2716 116.741 34.6173C116.741 35.2054 116.264 35.677 115.263 35.677C114.749 35.7005 114.242 35.5574 113.816 35.269Z" fill="black"/>
<path d="M118.112 32.5722H116.898V32H120.003V32.5722H118.79V35.661H118.112V32.5722Z" fill="black"/>
<path d="M55.9318 64.7156H54.0987L53.7384 65.5633H53.0391L54.6868 61.9023H55.3543L57.0073 65.5633H56.2974L55.9318 64.7156ZM55.704 64.1858L55.0153 62.5964L54.3318 64.1858H55.704Z" fill="black"/>
<path d="M37.477 35.6572C38.2993 35.6572 38.9658 34.9907 38.9658 34.1685C38.9658 33.3462 38.2993 32.6797 37.477 32.6797C36.6548 32.6797 35.9883 33.3462 35.9883 34.1685C35.9883 34.9907 36.6548 35.6572 37.477 35.6572Z" fill="black"/>
<path d="M41.981 35.6572C42.8032 35.6572 43.4697 34.9907 43.4697 34.1685C43.4697 33.3462 42.8032 32.6797 41.981 32.6797C41.1587 32.6797 40.4922 33.3462 40.4922 34.1685C40.4922 34.9907 41.1587 35.6572 41.981 35.6572Z" fill="black"/>
<path d="M46.4966 35.6572C47.3188 35.6572 47.9853 34.9907 47.9853 34.1685C47.9853 33.3462 47.3188 32.6797 46.4966 32.6797C45.6744 32.6797 45.0078 33.3462 45.0078 34.1685C45.0078 34.9907 45.6744 35.6572 46.4966 35.6572Z" fill="black"/>
<path d="M164.356 41.5323C164.356 41.6065 134.051 41.67 96.6729 41.67C59.2948 41.67 28.9844 41.6065 28.9844 41.5323C28.9844 41.4581 59.2842 41.3945 96.6729 41.3945C134.062 41.3945 164.356 41.4581 164.356 41.5323Z" fill="black"/>
<path d="M149.48 51.7667C149.48 51.8408 125.887 51.9044 96.7901 51.9044C67.6929 51.9044 44.0898 51.8408 44.0898 51.7667C44.0898 51.6925 67.6823 51.6289 96.7901 51.6289C125.898 51.6289 149.48 51.6872 149.48 51.7667Z" fill="black"/>
<path d="M84.7505 55.3487C84.7505 55.4229 75.7437 55.4864 64.6177 55.4864C53.4917 55.4864 44.4531 55.4229 44.4531 55.3487C44.4531 55.2745 53.4599 55.2109 64.6177 55.2109C75.7755 55.2109 84.7505 55.2692 84.7505 55.3487Z" fill="black"/>
<path d="M50.2367 66.1352H45.4102V61.3086H50.2367V66.1352ZM45.94 65.6054H49.7069V61.8384H45.94V65.6054Z" fill="black"/>
<path d="M56.7843 73.7288C56.7843 74.354 56.2916 74.7196 55.3485 74.7196H53.5312V71.0586H55.2425C56.122 71.0586 56.5936 71.4295 56.5936 72.0123C56.5991 72.1773 56.5577 72.3406 56.4742 72.4831C56.3908 72.6256 56.2687 72.7416 56.122 72.8176C56.3191 72.8724 56.4918 72.9923 56.612 73.1578C56.7323 73.3232 56.793 73.5245 56.7843 73.7288ZM54.2094 71.6096V72.6162H55.1737C55.6399 72.6162 55.9101 72.452 55.9101 72.1182C55.9101 71.7844 55.6399 71.5884 55.1737 71.5884L54.2094 71.6096ZM56.0955 73.6759C56.0955 73.3103 55.82 73.146 55.3061 73.146H54.2094V74.2057H55.3061C55.82 74.2057 56.0955 74.0255 56.0955 73.6759Z" fill="black"/>
<path d="M50.2367 75.3054H45.4102V70.5H50.2367V75.3054ZM45.94 74.7756H49.7069V71.0298H45.94V74.7756Z" fill="black"/>
<path d="M53.2695 82.0524C53.2885 81.6653 53.4206 81.2924 53.6493 80.9796C53.8781 80.6668 54.1936 80.428 54.5567 80.2927C54.9198 80.1574 55.3146 80.1315 55.6923 80.2183C56.0699 80.305 56.4139 80.5006 56.6815 80.7808L56.2418 81.1941C56.1185 81.0567 55.9672 80.9473 55.7982 80.8733C55.6291 80.7993 55.4462 80.7623 55.2616 80.7649C54.9202 80.7649 54.5927 80.9006 54.3513 81.142C54.1098 81.3834 53.9742 81.7109 53.9742 82.0524C53.9742 82.3938 54.1098 82.7213 54.3513 82.9627C54.5927 83.2042 54.9202 83.3398 55.2616 83.3398C55.4467 83.3424 55.6301 83.3049 55.7993 83.2299C55.9685 83.155 56.1194 83.0442 56.2418 82.9054L56.6815 83.3239C56.4139 83.6041 56.0699 83.7997 55.6923 83.8865C55.3146 83.9732 54.9198 83.9473 54.5567 83.812C54.1936 83.6767 53.8781 83.4379 53.6493 83.1251C53.4206 82.8124 53.2885 82.4394 53.2695 82.0524Z" fill="black"/>
<path d="M50.2367 84.4633H45.4102V79.6367H50.2367V84.4633ZM45.94 83.9335H49.7069V80.1665H45.94V83.9335Z" fill="black"/>
<path d="M53.5312 89.3828H55.1207C56.3075 89.3828 57.1181 90.114 57.1181 91.2107C57.1181 92.3074 56.3075 93.0438 55.1207 93.0438H53.5312V89.3828ZM55.1207 92.4663C55.2921 92.4775 55.4639 92.4533 55.6256 92.3954C55.7873 92.3375 55.9354 92.247 56.0608 92.1296C56.1861 92.0121 56.286 91.8702 56.3543 91.7126C56.4226 91.555 56.4578 91.3851 56.4578 91.2133C56.4578 91.0415 56.4226 90.8716 56.3543 90.714C56.286 90.5564 56.1861 90.4145 56.0608 90.2971C55.9354 90.1796 55.7873 90.0891 55.6256 90.0312C55.4639 89.9733 55.2921 89.9492 55.1207 89.9603H54.2094V92.4663H55.1207Z" fill="black"/>
<path d="M50.2367 93.6274H45.4102V88.8008H50.2367V93.6274ZM45.94 93.0975H49.7069V89.3306H45.94V93.0975Z" fill="black"/>
<path d="M96.7888 63.7276C96.7888 63.8018 88.8417 63.8653 79.0084 63.8653C69.1751 63.8653 61.2227 63.8018 61.2227 63.7276C61.2227 63.6534 69.1698 63.5898 79.0084 63.5898C88.847 63.5898 96.7888 63.6481 96.7888 63.7276Z" fill="black"/>
<path d="M145.743 72.8877C145.743 72.9672 126.818 73.0255 103.486 73.0255C80.1528 73.0255 61.2227 72.9672 61.2227 72.8877C61.2227 72.8083 80.1422 72.75 103.486 72.75C126.829 72.75 145.743 72.8136 145.743 72.8877Z" fill="black"/>
<path d="M72.8472 91.2081C72.8472 91.2822 70.2459 91.3458 67.0193 91.3458C63.7928 91.3458 61.1914 91.2822 61.1914 91.2081C61.1914 91.1339 63.7928 91.0703 67.0193 91.0703C70.2459 91.0703 72.8472 91.1551 72.8472 91.2081Z" fill="black"/>
<path d="M103.48 82.0518C103.48 82.126 94.0232 82.1896 82.3515 82.1896C70.6798 82.1896 61.2227 82.126 61.2227 82.0518C61.2227 81.9776 70.6798 81.9141 82.3515 81.9141C94.0232 81.9141 103.48 81.9723 103.48 82.0518Z" fill="black"/>
<path d="M39.1093 104.253V104.826H36.4073V104.37L37.8643 102.992C38.2192 102.653 38.2828 102.436 38.2828 102.235C38.2828 101.896 38.0497 101.705 37.5994 101.705C37.4371 101.697 37.2753 101.727 37.127 101.793C36.9787 101.86 36.8483 101.96 36.7464 102.086L36.2695 101.721C36.4375 101.518 36.6504 101.358 36.8914 101.252C37.1324 101.146 37.3948 101.098 37.6576 101.112C38.4524 101.112 38.9663 101.514 38.9663 102.171C38.9606 102.397 38.9031 102.619 38.7984 102.819C38.6937 103.019 38.5445 103.193 38.3623 103.326L37.3821 104.259L39.1093 104.253Z" fill="black"/>
<path d="M39.5078 104.433C39.5078 104.319 39.553 104.21 39.6335 104.13C39.714 104.049 39.8231 104.004 39.937 104.004C40.0508 104.004 40.1599 104.049 40.2404 104.13C40.3209 104.21 40.3661 104.319 40.3661 104.433C40.3661 104.547 40.3209 104.656 40.2404 104.737C40.1599 104.817 40.0508 104.862 39.937 104.862C39.8231 104.862 39.714 104.817 39.6335 104.737C39.553 104.656 39.5078 104.547 39.5078 104.433Z" fill="black"/>
<path d="M54.6545 117.255H52.8266L52.4664 118.102H51.7617L53.4094 114.441H54.0823L55.7353 118.102H55.0095L54.6545 117.255ZM54.432 116.725L53.7432 115.135L53.0545 116.725H54.432Z" fill="black"/>
<path d="M148.196 104.31C148.196 104.384 124.603 104.447 95.506 104.447C66.4089 104.447 42.8164 104.405 42.8164 104.31C42.8164 104.214 66.4036 104.172 95.5113 104.172C124.619 104.172 148.196 104.235 148.196 104.31Z" fill="black"/>
<path d="M83.4776 107.896C83.4776 107.97 74.4708 108.033 63.313 108.033C52.1552 108.033 43.1484 107.97 43.1484 107.896C43.1484 107.821 52.1552 107.758 63.313 107.758C74.4708 107.758 83.4776 107.816 83.4776 107.896Z" fill="black"/>
<path d="M48.9281 118.713H44.1016V113.887H48.9281V118.713ZM44.6314 118.183H48.3983V114.417H44.6314V118.183Z" fill="black"/>
<path d="M55.503 126.272C55.503 126.897 55.0103 127.263 54.0725 127.263H52.25V123.602H53.9454C54.8249 123.602 55.2964 123.972 55.2964 124.555C55.3007 124.72 55.2588 124.883 55.1754 125.025C55.0921 125.167 54.9707 125.284 54.8249 125.361C55.0254 125.411 55.2022 125.53 55.3257 125.696C55.4492 125.862 55.5118 126.065 55.503 126.272ZM52.9335 124.153V125.164H53.8924C54.3639 125.164 54.6288 124.995 54.6288 124.661C54.6288 124.327 54.3639 124.131 53.8924 124.131L52.9335 124.153ZM54.8196 126.219C54.8196 125.853 54.5441 125.689 54.0302 125.689H52.9335V126.749H54.0302C54.5441 126.733 54.8196 126.569 54.8196 126.203V126.219Z" fill="black"/>
<path d="M48.9281 127.846H44.1016V123.02H48.9281V127.846ZM44.6314 127.316H48.3983V123.549H44.6314V127.316Z" fill="black"/>
<path d="M51.9923 134.606C51.9898 134.351 52.0394 134.099 52.138 133.865C52.2367 133.63 52.3823 133.418 52.566 133.242C52.7496 133.066 52.9674 132.929 53.2058 132.84C53.4443 132.751 53.6984 132.712 53.9526 132.725C54.2236 132.714 54.4938 132.763 54.7438 132.868C54.9939 132.973 55.2175 133.133 55.399 133.334L54.9645 133.748C54.8408 133.611 54.6895 133.502 54.5205 133.428C54.3515 133.354 54.1688 133.317 53.9844 133.318C53.6429 133.318 53.3154 133.454 53.074 133.696C52.8326 133.937 52.6969 134.264 52.6969 134.606C52.6969 134.947 52.8326 135.275 53.074 135.516C53.3154 135.758 53.6429 135.893 53.9844 135.893C54.1694 135.896 54.3527 135.858 54.5218 135.783C54.691 135.708 54.8419 135.597 54.9645 135.459L55.399 135.877C55.132 136.158 54.7884 136.355 54.4108 136.442C54.0333 136.529 53.6384 136.503 53.2754 136.368C52.9124 136.232 52.5972 135.993 52.369 135.68C52.1409 135.366 52.0099 134.993 51.9923 134.606Z" fill="black"/>
<path d="M48.9281 137.006H44.1016V132.18H48.9281V137.006ZM44.6314 136.476H48.3983V132.709H44.6314V136.476Z" fill="black"/>
<path d="M52.25 141.926H53.8394C55.0262 141.926 55.8368 142.657 55.8368 143.759C55.8368 144.861 55.0262 145.587 53.8394 145.587H52.25V141.926ZM53.8394 145.015C54.014 145.031 54.19 145.01 54.3562 144.954C54.5224 144.898 54.6752 144.809 54.8047 144.69C54.9342 144.572 55.0377 144.428 55.1085 144.268C55.1793 144.108 55.2158 143.934 55.2158 143.759C55.2158 143.584 55.1793 143.41 55.1085 143.25C55.0377 143.089 54.9342 142.946 54.8047 142.827C54.6752 142.709 54.5224 142.619 54.3562 142.564C54.19 142.508 54.014 142.487 53.8394 142.503H52.9546V145.015H53.8394Z" fill="black"/>
<path d="M48.9281 146.166H44.1016V141.34H48.9281V146.166ZM44.6314 145.637H48.3983V141.87H44.6314V145.637Z" fill="black"/>
<path d="M95.5129 116.263C95.5129 116.337 87.5657 116.4 77.7271 116.4C67.8886 116.4 59.9414 116.337 59.9414 116.263C59.9414 116.189 67.8886 116.125 77.7271 116.125C87.5657 116.125 95.5129 116.189 95.5129 116.263Z" fill="black"/>
<path d="M144.462 125.431C144.462 125.51 125.543 125.568 102.204 125.568C78.8662 125.568 59.9414 125.51 59.9414 125.431C59.9414 125.351 78.8609 125.293 102.204 125.293C125.548 125.293 144.462 125.357 144.462 125.431Z" fill="black"/>
<path d="M71.5699 143.751C71.5699 143.83 68.9632 143.889 65.742 143.889C62.5207 143.889 59.9141 143.83 59.9141 143.751C59.9141 143.672 62.5207 143.613 65.742 143.613C68.9632 143.613 71.5699 143.677 71.5699 143.751Z" fill="black"/>
<path d="M102.204 134.599C102.204 134.673 92.742 134.736 81.0755 134.736C69.4091 134.736 59.9414 134.673 59.9414 134.599C59.9414 134.525 69.4038 134.461 81.0755 134.461C92.7472 134.461 102.204 134.509 102.204 134.599Z" fill="black"/>
<path d="M136.414 156.326H114.602C113.722 156.326 112.852 156.153 112.04 155.816C111.228 155.479 110.49 154.986 109.868 154.364C109.247 153.742 108.754 153.004 108.418 152.191C108.082 151.379 107.909 150.508 107.91 149.629C107.91 147.854 108.615 146.152 109.87 144.897C111.125 143.642 112.827 142.938 114.602 142.938H136.414C138.189 142.938 139.891 143.642 141.146 144.897C142.4 146.152 143.105 147.854 143.105 149.629C143.106 150.508 142.934 151.379 142.598 152.191C142.262 153.004 141.769 153.742 141.147 154.364C140.526 154.986 139.788 155.479 138.976 155.816C138.164 156.153 137.293 156.326 136.414 156.326Z" fill="#2642CA"/>
<path d="M120.047 148.039V151.679H119.352L117.519 149.47V151.679H116.688V148.039H117.382L119.188 150.248V148.039H120.047Z" fill="white"/>
<path d="M123.725 151.024V151.702H120.906V148.062H123.656V148.741H121.759V149.53H123.449V150.182H121.759V151.024H123.725Z" fill="white"/>
<path d="M126.645 151.679L125.765 150.418L124.902 151.679H123.938L125.283 149.83L124.006 148.039H124.96L125.797 149.221L126.618 148.039H127.53L126.258 149.798L127.62 151.679H126.645Z" fill="white"/>
<path d="M128.65 148.728H127.484V148.039H130.663V148.728H129.498V151.679H128.65V148.728Z" fill="white"/>
<path d="M135.262 151.403C135.218 151.403 135.174 151.391 135.136 151.37C135.097 151.349 135.064 151.318 135.04 151.281C135.001 151.223 134.987 151.152 135.001 151.083C135.015 151.015 135.056 150.955 135.114 150.916L136.804 149.787C136.831 149.771 136.853 149.747 136.868 149.719C136.882 149.691 136.89 149.66 136.889 149.628C136.889 149.596 136.88 149.565 136.864 149.537C136.849 149.509 136.826 149.486 136.799 149.469L135.124 148.479C135.065 148.442 135.023 148.384 135.006 148.317C134.99 148.249 135 148.178 135.036 148.118C135.071 148.058 135.128 148.015 135.196 147.997C135.263 147.979 135.334 147.989 135.395 148.023L137.069 149.008C137.173 149.071 137.26 149.16 137.322 149.265C137.383 149.37 137.417 149.49 137.42 149.612C137.423 149.734 137.396 149.855 137.34 149.963C137.284 150.071 137.202 150.164 137.101 150.232L135.41 151.356C135.367 151.386 135.315 151.402 135.262 151.403Z" fill="white"/>
<path d="M44.8132 75.2133C44.6542 75.0543 45.6767 73.7669 47.1019 72.3364C48.5271 70.9059 49.8146 69.8887 49.9788 70.0476C50.143 70.2065 49.1152 71.4993 47.69 72.9245C46.2648 74.3497 44.9774 75.3775 44.8132 75.2133Z" fill="#2642CA"/>
<path d="M50.8557 75.7259C50.6967 75.8901 49.3245 74.7775 47.7934 73.2464C46.2622 71.7152 45.1443 70.3483 45.3139 70.184C45.4834 70.0198 46.8503 71.1324 48.3762 72.6636C49.902 74.1947 51.0199 75.5669 50.8557 75.7259Z" fill="#2642CA"/>
<path d="M43.6501 118.944C43.4858 118.779 44.5136 117.492 45.9388 116.067C47.364 114.642 48.6515 113.619 48.8157 113.778C48.9799 113.937 47.9521 115.224 46.5216 116.655C45.0911 118.085 43.809 119.103 43.6501 118.944Z" fill="#2642CA"/>
<path d="M49.7033 119.448C49.5391 119.607 48.1722 118.499 46.641 116.968C45.1099 115.437 43.992 114.065 44.1615 113.906C44.3311 113.747 45.6927 114.854 47.2238 116.385C48.755 117.916 49.8517 119.283 49.7033 119.448Z" fill="#2642CA"/>
<path d="M146.397 226.55L109.199 214.608C109.1 214.578 108.996 214.565 108.892 214.571L80.282 216.691C75.2541 204.505 68.9547 189.273 66.0884 182.316C65.6108 181.176 64.8413 180.181 63.8573 179.433C62.8733 178.684 61.7095 178.208 60.483 178.051L29.4997 174.004C29.1313 173.959 28.7576 174.012 28.4161 174.157C28.0745 174.302 27.777 174.534 27.5533 174.83C27.3296 175.126 27.1876 175.476 27.1414 175.844C27.0953 176.212 27.1467 176.586 27.2904 176.928L44.737 217.612C44.968 218.152 45.3086 218.638 45.7372 219.04C46.1659 219.441 46.6733 219.749 47.2271 219.944L82.6662 234.084C83.4761 234.407 84.3537 234.524 85.2198 234.423L87.4874 234.174C95.3392 233.353 134.111 229.406 146.238 228.134C146.43 228.124 146.613 228.046 146.752 227.913C146.891 227.78 146.978 227.602 146.998 227.411C147.017 227.219 146.967 227.027 146.857 226.869C146.746 226.711 146.583 226.598 146.397 226.55Z" fill="#E0E0E0"/>
<path d="M146.397 226.548C146.521 226.588 146.634 226.657 146.726 226.749C146.818 226.841 146.887 226.954 146.927 227.078C146.975 227.235 146.976 227.402 146.93 227.559C146.884 227.717 146.792 227.857 146.667 227.963C146.5 228.092 146.296 228.163 146.084 228.164L145.385 228.238L136.68 229.16L104.659 232.493L94.0624 233.595L88.4199 234.177L85.5218 234.49C84.5182 234.646 83.4909 234.527 82.5496 234.146L58.8459 224.704L52.5147 222.177L49.2881 220.895L47.6616 220.249C47.3914 220.132 47.1318 220.037 46.8404 219.915C46.5631 219.792 46.3002 219.639 46.0563 219.459C45.5656 219.096 45.1545 218.636 44.8483 218.108C44.5516 217.578 44.3609 217.022 44.1172 216.476L42.7026 213.186C41.7525 210.982 40.797 208.755 39.8363 206.505C35.9846 197.499 31.9898 188.216 27.905 178.69L27.3434 177.382C27.106 176.946 26.9838 176.458 26.9884 175.962C27.0189 175.457 27.2175 174.976 27.5526 174.597C27.8876 174.218 28.3399 173.962 28.8374 173.869C28.9593 173.843 29.0865 173.869 29.2136 173.832L29.5792 173.859L30.2785 173.954L31.6719 174.134L34.4481 174.494L45.4046 175.93L56.1068 177.329L58.7558 177.673C59.63 177.806 60.5042 177.864 61.4049 178.071C63.1452 178.519 64.6562 179.599 65.6434 181.101C66.0849 181.849 66.4556 182.637 66.7507 183.453C67.0756 184.245 67.4006 185.032 67.7255 185.816L69.6487 190.484L73.3998 199.576C75.8475 205.52 78.2052 211.231 80.4463 216.667L80.3297 216.593L108.208 214.532L108.982 214.474C109.121 214.472 109.26 214.497 109.39 214.548L109.755 214.67L111.154 215.136L113.973 216.042L119.287 217.785L128.664 220.81L141.777 225.049L145.221 226.177C146 226.432 146.397 226.569 146.397 226.569C146.397 226.569 145.994 226.453 145.21 226.209L141.756 225.118L128.638 220.911L119.255 217.912L113.904 216.196L111.085 215.295L109.639 214.834C109.411 214.741 109.173 214.679 108.929 214.649L108.155 214.707L80.282 216.826H80.2025L80.1655 216.747C77.9191 211.316 75.5614 205.621 73.1031 199.666L69.3467 190.574C68.711 189.034 68.0681 187.478 67.4182 185.906C67.095 185.122 66.7666 184.317 66.4434 183.543C66.1526 182.744 65.7891 181.972 65.3573 181.239C64.4111 179.797 62.9627 178.758 61.2936 178.325C60.4671 178.123 59.577 178.06 58.7081 177.933L56.0591 177.588L45.3516 176.195L34.3952 174.764L31.6137 174.404L30.2202 174.219C29.7742 174.129 29.3178 174.1 28.8639 174.134C28.4278 174.217 28.0317 174.442 27.7382 174.775C27.4446 175.108 27.2703 175.529 27.2427 175.972C27.2394 176.427 27.3545 176.874 27.5765 177.27L28.154 178.579L40.08 206.399C41.0443 208.646 41.9979 210.873 42.941 213.08C43.4178 214.182 43.8841 215.279 44.3556 216.37C44.594 216.9 44.8006 217.483 45.0761 217.96C45.3617 218.456 45.7479 218.888 46.2099 219.226C46.4391 219.395 46.6861 219.539 46.9464 219.655C47.2007 219.767 47.4762 219.867 47.7517 219.978L49.3782 220.63L52.5994 221.918L58.9572 224.445L82.6503 233.912C83.5554 234.283 84.545 234.399 85.5112 234.246L88.4146 233.934L94.0571 233.361L104.653 232.302L136.686 229.054L145.396 228.18L146.095 228.116C146.297 228.116 146.494 228.051 146.657 227.931C146.777 227.831 146.866 227.698 146.912 227.548C146.958 227.399 146.96 227.239 146.916 227.089C146.866 226.902 146.744 226.742 146.577 226.643C146.461 226.575 146.397 226.553 146.397 226.548Z" fill="#263238"/>
<path d="M98.5273 219.184L112.477 225.022L129.86 223.21L115.243 217.176L98.5273 219.184Z" fill="#F5F5F5"/>
<path d="M88.0023 230.222L115.235 227.763L89.2315 217.453L80.8711 218.084L85.2897 228.743L88.0023 230.222Z" fill="#F5F5F5"/>
<path d="M143.702 226.532L143.516 226.563L142.96 226.632L140.841 226.849L132.968 227.618L107.007 230.039L86.5988 231.883H86.5141L86.4823 231.803L81.963 220.778L80.7232 217.694C80.5855 217.341 80.4795 217.071 80.4054 216.884C80.3666 216.79 80.333 216.695 80.3047 216.598C80.3047 216.598 80.3524 216.688 80.4371 216.868L80.7868 217.668L82.0848 220.725C83.1975 223.374 84.7869 227.162 86.6942 231.718L86.5776 231.644L106.981 229.753L132.968 227.411L140.825 226.744L142.944 226.574L143.5 226.537L143.702 226.532Z" fill="black"/>
<path d="M28.1875 175.473H28.4206L29.1094 175.552L31.7584 175.896L41.4751 177.221C45.5759 177.793 50.4819 178.482 55.8807 179.282L60.0344 179.923L61.094 180.103C61.2688 180.13 61.4543 180.172 61.6238 180.214C61.7139 180.214 61.8092 180.252 61.8993 180.278C62.3462 180.457 62.7518 180.726 63.0914 181.067C63.229 181.214 63.3386 181.385 63.4146 181.571L63.6212 182.101C64.7285 184.866 65.8729 187.732 67.0491 190.662C71.7326 202.398 75.9658 213.026 79.0387 220.729C80.5592 224.57 81.7884 227.685 82.6467 229.847C83.0599 230.907 83.3831 231.754 83.6109 232.337C83.7169 232.613 83.7964 232.825 83.8547 232.984C83.8847 233.056 83.9095 233.13 83.9288 233.206C83.8915 233.137 83.8579 233.067 83.8282 232.994L83.558 232.353L82.546 229.889C81.6718 227.728 80.4268 224.628 78.8373 220.798L66.8213 190.763C65.6451 187.833 64.5007 184.967 63.3934 182.201L63.1868 181.671C63.1229 181.515 63.0314 181.371 62.9166 181.248C62.6796 180.99 62.3931 180.783 62.0742 180.638C61.9949 180.6 61.9135 180.567 61.8304 180.538L61.5761 180.474C61.4066 180.437 61.2371 180.4 61.0463 180.373L59.9867 180.188L55.833 179.536L41.4433 177.417L31.7372 176.002L29.0882 175.61L28.4047 175.499L28.1875 175.473Z" fill="black"/>
<path d="M55.5738 199.829C56.8983 201.604 57.1632 203.644 56.1724 204.385C55.1817 205.127 53.2956 204.295 51.971 202.52C50.6465 200.746 50.3816 198.711 51.3724 197.964C52.3631 197.217 54.2492 198.059 55.5738 199.829Z" fill="white"/>
<path d="M223.196 169.567C221.421 159.501 210.29 153.434 206.613 150.086L212.139 157.477C214.968 169.141 216.039 181.163 215.318 193.144C215.244 194.452 215.387 196.216 216.319 196.402C216.656 196.43 216.991 196.325 217.252 196.111C220.516 194.018 222.635 189.223 223.106 184.285C223.578 179.347 224.002 174.224 223.196 169.567Z" fill="#2642CA"/>
<path d="M215.049 158.297C214.52 157.285 214.737 154.058 211.87 157.428L211.685 156.167L193.974 142.551L154.497 144.601C150.709 144.84 145.019 151.399 143.599 154.138C142.434 164.326 142.2 173.37 142.2 173.37C142.2 173.37 140.844 184.697 142.2 190.054C143.557 195.41 145.162 197.344 147.26 201.508C148.795 204.353 150.71 206.977 152.95 209.307L154.794 223.612L196.034 227.32L214.912 226.261C214.912 226.261 213.222 198.048 213.222 197.55C213.222 197.317 215.579 191.871 218.112 186.091C222.414 176.199 219.987 167.844 215.049 158.297Z" fill="#455A64"/>
<path d="M111.488 209.605C111.695 209.605 113.756 195.677 115.107 192.514C116.378 189.531 143.605 154.129 143.605 154.129L150.016 174.792L147.266 185.843L132.432 203.693L128.241 216.631L111.488 209.605Z" fill="#455A64"/>
<path d="M220.538 168.887C218.583 156.494 208.93 157.035 208.93 157.035L199.335 173.729V208.251L153.046 212.257L152.188 223.881C152.188 223.881 198.307 234.424 208.962 230.89C216.014 228.554 221.969 222.657 222.62 213.02C223.272 203.383 222.499 181.284 220.538 168.887Z" fill="#455A64"/>
<path d="M132.474 203.674C132.339 202.884 132.162 202.102 131.944 201.332C131.363 199.481 130.315 197.81 128.901 196.482C127.487 195.154 125.754 194.213 123.87 193.75C123.086 193.574 122.294 193.44 121.496 193.348C121.714 193.322 121.935 193.322 122.153 193.348C122.747 193.372 123.337 193.45 123.917 193.581C125.851 194.009 127.632 194.952 129.073 196.31C130.514 197.668 131.561 199.39 132.103 201.295C132.27 201.866 132.383 202.451 132.442 203.043C132.479 203.251 132.489 203.463 132.474 203.674Z" fill="black"/>
<path d="M154.629 211.775C154.695 211.758 154.762 211.745 154.83 211.738L155.418 211.653L157.686 211.351L166.041 210.292L193.591 206.943L199.716 206.212L199.594 206.345C199.949 196.956 200.124 188.681 200.06 182.752C200.06 179.791 199.997 177.412 199.959 175.775C199.959 174.969 199.922 174.339 199.912 173.899V173.412C199.912 173.3 199.912 173.247 199.912 173.242C199.917 173.299 199.917 173.355 199.912 173.412C199.912 173.534 199.912 173.693 199.944 173.894C199.944 174.339 199.997 174.953 200.034 175.775C200.103 177.406 200.177 179.785 200.219 182.752C200.314 188.681 200.187 196.967 199.843 206.35V206.467H199.726L193.602 207.203L166.025 210.472L157.665 211.431L155.387 211.675L154.793 211.733L154.629 211.775Z" fill="black"/>
<path d="M223.251 211.777C223.258 211.848 223.258 211.919 223.251 211.989C223.251 212.138 223.251 212.344 223.219 212.604C223.171 213.394 223.081 214.181 222.949 214.962C222.741 216.2 222.438 217.42 222.043 218.612C221.502 220.186 220.776 221.691 219.881 223.094C218.792 224.803 217.418 226.312 215.817 227.555C213.979 228.983 211.853 229.996 209.587 230.527C208.367 230.821 207.127 231.028 205.878 231.147C204.578 231.264 203.273 231.313 201.968 231.296C199.232 231.24 196.503 230.985 193.804 230.533L178.169 227.963L171.351 226.829L165.411 225.733C161.793 225.054 158.858 224.54 156.823 224.233L154.476 223.889L153.867 223.804C153.797 223.798 153.727 223.784 153.66 223.762H153.867L154.481 223.825C155.011 223.884 155.816 223.974 156.839 224.117C158.879 224.392 161.819 224.88 165.448 225.531L171.377 226.591L178.201 227.698L193.836 230.252C196.526 230.71 199.246 230.97 201.974 231.031C203.298 231.031 204.591 230.994 205.857 230.893C207.092 230.779 208.317 230.577 209.523 230.289C211.761 229.771 213.861 228.777 215.68 227.375C217.265 226.155 218.63 224.673 219.717 222.993C220.613 221.607 221.344 220.121 221.894 218.564C222.299 217.385 222.616 216.177 222.843 214.951C223.018 213.939 223.124 213.144 223.161 212.604L223.224 211.989C223.228 211.918 223.237 211.847 223.251 211.777Z" fill="black"/>
<path d="M153.382 212.63C153.36 212.56 153.346 212.487 153.339 212.413C153.313 212.249 153.276 212.032 153.239 211.767C153.154 211.173 153.032 210.347 152.884 209.298V209.335L149.376 205.451C148.693 204.476 148.075 203.457 147.527 202.4C146.915 201.196 146.374 199.958 145.906 198.691C144.872 195.828 144.161 192.859 143.787 189.838C143.417 186.568 143.341 183.272 143.559 179.989C143.723 176.969 144.036 174.256 144.332 171.989C144.629 169.721 144.91 167.893 145.111 166.627L145.35 165.175C145.376 165.022 145.397 164.9 145.419 164.799C145.423 164.755 145.433 164.712 145.45 164.672C145.455 164.714 145.455 164.757 145.45 164.799C145.45 164.905 145.45 165.027 145.408 165.18C145.36 165.541 145.302 166.028 145.222 166.643C145.053 167.909 144.804 169.742 144.528 172.015C144.253 174.288 144.004 176.99 143.84 180.01C143.637 183.276 143.719 186.554 144.083 189.806C144.453 192.808 145.149 195.761 146.16 198.612C146.618 199.865 147.149 201.091 147.75 202.283C148.286 203.335 148.889 204.35 149.556 205.324L153.016 209.255L153.302 211.73C153.329 212 153.35 212.217 153.371 212.381C153.389 212.463 153.393 212.547 153.382 212.63Z" fill="black"/>
<path d="M206.384 213.916C206.035 213.528 205.715 213.116 205.426 212.682C204.848 211.903 204.037 210.843 203.089 209.715C202.141 208.586 201.245 207.595 200.583 206.896C200.203 206.533 199.849 206.144 199.523 205.73C199.955 206.03 200.352 206.374 200.71 206.758C201.621 207.637 202.482 208.566 203.29 209.54C204.104 210.507 204.866 211.517 205.574 212.565C205.889 212.987 206.161 213.439 206.384 213.916Z" fill="black"/>
<path d="M122.81 211.312C122.418 209.049 120.357 207.285 120.357 207.285C120.357 207.285 119.371 204.53 117.898 203.804C116.426 203.078 115.249 204.53 113.967 204.138C112.685 203.746 109.935 203.645 109.051 204.138C108.166 204.631 107.085 207.38 107.085 207.38C106.193 207.416 105.32 207.652 104.531 208.069C103.862 208.415 103.284 208.912 102.841 209.521C102.457 209.371 102.037 209.342 101.636 209.436C101.234 209.531 100.872 209.745 100.595 210.051C100.057 210.679 99.6551 211.411 99.4133 212.202L98.714 214.077C98.5793 214.363 98.5174 214.678 98.5338 214.994C98.5878 215.253 98.7283 215.487 98.9323 215.656C99.1364 215.826 99.3919 215.921 99.657 215.926C99.9264 215.927 100.193 215.872 100.439 215.763C100.686 215.655 100.907 215.495 101.088 215.296C101.448 214.94 101.766 214.543 102.036 214.114L102.211 215.343C102.211 215.343 102.502 217.288 104.076 217.404C105.162 217.489 106.338 216.228 106.338 216.228L109.088 215.932L109.48 218.681C109.661 219.211 110.007 219.669 110.468 219.988C110.928 220.306 111.479 220.468 112.039 220.451C113.024 220.451 114.296 218.782 114.296 218.782L116.855 219.762C116.855 219.762 119.8 221.828 121.178 221.14C121.563 220.945 121.871 220.624 122.05 220.232C122.229 219.839 122.269 219.397 122.163 218.978C122.752 218.311 123.216 217.545 123.536 216.716C123.906 215.539 123.223 213.574 122.81 211.312Z" fill="#FFBE9D"/>
<path d="M102.151 214.873C102.038 213.901 102.072 212.917 102.251 211.954C102.343 210.981 102.582 210.027 102.961 209.125C103.035 209.125 102.744 210.412 102.521 211.997C102.299 213.581 102.251 214.873 102.151 214.873Z" fill="#EB996E"/>
<path d="M106.444 212.289C106.611 212.958 106.689 213.645 106.677 214.334C106.733 214.832 106.683 215.336 106.529 215.812C106.375 216.183 106.158 216.342 106.142 216.3C106.126 216.257 106.253 216.093 106.343 215.77C106.434 215.308 106.454 214.834 106.402 214.366C106.321 213.675 106.335 212.976 106.444 212.289Z" fill="#EB996E"/>
<path d="M108.276 211.114C108.329 211.167 107.969 211.644 107.466 212.131C106.963 212.619 106.518 213.011 106.459 212.958C106.401 212.905 106.767 212.428 107.27 211.941C107.773 211.453 108.224 211.061 108.276 211.114Z" fill="#EB996E"/>
<path d="M108.645 205.828C108.704 206.324 108.726 206.823 108.709 207.322C108.709 208.249 108.746 209.521 108.82 210.925C108.894 212.329 109.005 213.6 109.085 214.522C109.16 215.017 109.192 215.517 109.18 216.016C109.034 215.537 108.938 215.043 108.894 214.544C108.762 213.627 108.624 212.355 108.544 210.941C108.465 209.526 108.475 208.249 108.513 207.322C108.505 206.821 108.549 206.32 108.645 205.828Z" fill="#EB996E"/>
<path d="M118.961 206.882C118.961 206.882 118.844 207.147 118.659 207.624C118.4 208.299 118.195 208.993 118.044 209.701C117.949 210.156 117.848 210.649 117.737 211.173C117.632 211.748 117.476 212.312 117.271 212.858C117.042 213.476 116.657 214.024 116.153 214.448C115.878 214.686 115.55 214.856 115.196 214.944C114.842 215.031 114.473 215.034 114.118 214.951C113.75 214.868 113.416 214.671 113.165 214.389C112.933 214.109 112.784 213.77 112.736 213.409C112.66 212.766 112.648 212.116 112.698 211.47C112.758 210.386 112.925 209.311 113.196 208.259C113.378 207.551 113.612 206.857 113.896 206.183C113.996 205.944 114.076 205.764 114.14 205.653C114.167 205.588 114.202 205.528 114.245 205.473C114.179 205.73 114.096 205.984 113.996 206.23C113.753 206.912 113.55 207.607 113.387 208.312C113.146 209.357 113.001 210.421 112.953 211.491C112.911 212.117 112.927 212.744 113 213.367C113.044 213.678 113.172 213.972 113.371 214.215C113.587 214.452 113.87 214.618 114.182 214.691C114.496 214.764 114.824 214.761 115.137 214.682C115.45 214.604 115.74 214.453 115.983 214.241C116.456 213.844 116.82 213.333 117.043 212.758C117.376 211.737 117.65 210.699 117.864 209.648C118.03 208.936 118.265 208.243 118.563 207.576C118.646 207.394 118.74 207.217 118.844 207.046C118.908 206.935 118.95 206.877 118.961 206.882Z" fill="#EB996E"/>
<path d="M119.993 208.074C119.918 208.662 119.659 209.21 119.252 209.641C118.846 210.071 118.313 210.361 117.73 210.469C118.195 210.163 118.635 209.823 119.05 209.452C119.398 209.017 119.713 208.556 119.993 208.074Z" fill="#EB996E"/>
<path d="M114.294 214.922C114.468 215.657 114.513 216.417 114.426 217.168C114.398 217.836 114.304 218.5 114.146 219.15V219.187C114.126 219.197 114.104 219.203 114.081 219.203C114.059 219.204 114.037 219.2 114.017 219.19C113.996 219.181 113.978 219.168 113.964 219.15C113.949 219.133 113.939 219.113 113.934 219.091C113.934 219.038 113.934 219.017 113.934 219.017C113.934 219.017 113.934 219.044 113.971 219.065C114.008 219.086 114.045 219.107 114.061 219.065L114.029 219.107C114.029 218.747 114.108 217.995 114.156 217.126C114.15 216.389 114.196 215.652 114.294 214.922Z" fill="#EB996E"/>
<path d="M120.53 212.727C120.326 213.064 120.084 213.376 119.809 213.659C119.202 214.365 118.669 215.132 118.22 215.948C117.773 216.762 117.519 217.669 117.478 218.597C117.478 219.312 117.6 219.747 117.552 219.757C117.366 219.399 117.274 219 117.282 218.597C117.266 217.625 117.505 216.666 117.976 215.815C118.443 214.979 119.02 214.209 119.693 213.527C119.937 213.225 120.218 212.957 120.53 212.727Z" fill="#EB996E"/>
<path d="M119.451 217.612C119.285 217.017 119.313 216.384 119.53 215.805C119.747 215.226 120.143 214.731 120.659 214.391C122.508 213.077 128.045 209.623 128.161 209.623C128.278 209.623 134.662 207.504 137.348 207.228C140.034 206.953 151.791 212.791 151.791 212.791C151.791 212.791 154.519 216.722 154.079 220.495C153.64 224.267 151.181 224.484 151.181 224.484L147.769 223.652L144.251 222.979C144.251 222.979 136.469 225.146 135.245 224.749C134.021 224.352 133.597 223.022 134.922 222.301C136.246 221.581 140.055 220.452 140.055 220.452L142.985 219.213L133.449 220.574C133.449 220.574 125.385 222.164 124.442 221.941C123.499 221.719 123.356 221.014 123.276 220.352C123.276 220.352 120.029 221.941 119.064 221.072C118.1 220.203 117.676 218.312 119.451 217.612Z" fill="#FFBE9D"/>
<path d="M140.032 215.295C139.796 215.333 139.556 215.345 139.317 215.332C138.862 215.332 138.199 215.332 137.383 215.385C136.432 215.428 135.486 215.561 134.56 215.782C134.013 215.921 133.481 216.111 132.97 216.349C132.44 216.593 131.91 216.879 131.381 217.197C130.84 217.506 130.277 217.773 129.696 217.997C129.152 218.197 128.584 218.32 128.006 218.362C127.054 218.363 126.105 218.469 125.177 218.68C124.571 218.873 124.036 219.242 123.64 219.74C123.506 219.933 123.387 220.137 123.285 220.349C123.285 220.349 123.285 220.28 123.317 220.164C123.372 219.993 123.45 219.83 123.55 219.681C123.932 219.131 124.479 218.717 125.113 218.5C126.051 218.255 127.015 218.125 127.985 218.113C129.138 217.978 130.246 217.585 131.227 216.963C131.757 216.662 132.287 216.354 132.848 216.105C133.371 215.867 133.916 215.678 134.475 215.544C135.418 215.323 136.383 215.208 137.352 215.199C138.178 215.199 138.84 215.199 139.301 215.231C139.546 215.229 139.791 215.251 140.032 215.295Z" fill="#EB996E"/>
<path d="M137.147 211.27C137.092 211.306 137.033 211.336 136.972 211.36C136.86 211.413 136.686 211.481 136.442 211.561C135.792 211.761 135.128 211.914 134.455 212.017C133.613 212.165 132.595 212.276 131.515 212.546C130.35 212.898 129.231 213.387 128.182 214.003C126.227 215.091 124.186 216.016 122.079 216.769C121.273 217.055 120.611 217.267 120.15 217.405C119.916 217.489 119.675 217.551 119.43 217.59C119.649 217.472 119.88 217.377 120.118 217.304L122.01 216.584C124.086 215.783 126.104 214.84 128.05 213.76C129.119 213.133 130.261 212.642 131.451 212.297C132.433 212.075 133.428 211.909 134.429 211.799C135.095 211.715 135.757 211.593 136.41 211.434C136.652 211.365 136.898 211.311 137.147 211.27Z" fill="#EB996E"/>
<path d="M144.889 213.55C144.819 213.343 144.767 213.131 144.735 212.914C144.608 212.419 144.364 211.961 144.023 211.58C143.682 211.199 143.253 210.906 142.775 210.726C142.564 210.67 142.358 210.595 142.16 210.504C142.16 210.472 142.425 210.44 142.838 210.541C143.375 210.685 143.859 210.982 144.232 211.394C144.602 211.809 144.843 212.322 144.926 212.872C144.981 213.097 144.968 213.333 144.889 213.55Z" fill="#EB996E"/>
<path d="M149.303 219.494C149.294 219.196 149.267 218.899 149.224 218.604C149.043 217.915 148.637 217.307 148.069 216.877C147.485 216.453 146.84 216.119 146.156 215.886C145.859 215.807 145.574 215.688 145.309 215.531C145.618 215.535 145.925 215.593 146.215 215.701C146.946 215.889 147.634 216.214 148.244 216.66C148.862 217.126 149.28 217.81 149.415 218.572C149.491 218.883 149.452 219.211 149.303 219.494Z" fill="#EB996E"/>
<path d="M123.311 220.344C123.176 220.465 123.019 220.558 122.85 220.62C122.407 220.828 121.95 221.006 121.483 221.15C121.161 221.262 120.832 221.352 120.497 221.42C120.094 221.473 119.684 221.431 119.3 221.298C119.083 221.219 118.885 221.095 118.719 220.934C118.553 220.773 118.422 220.58 118.336 220.366C118.117 219.93 118.028 219.441 118.081 218.956C118.137 218.591 118.325 218.258 118.611 218.024C118.855 217.81 119.128 217.631 119.422 217.494L119.353 217.653C119.137 216.996 119.187 216.282 119.491 215.661C119.743 215.196 120.083 214.784 120.492 214.448C120.754 214.229 121.034 214.032 121.329 213.86C121.431 213.787 121.543 213.731 121.663 213.695C121.689 213.732 121.234 213.997 120.603 214.569C120.231 214.909 119.923 215.313 119.692 215.762C119.431 216.334 119.401 216.985 119.607 217.579L119.639 217.679L119.538 217.732C119.04 217.992 118.442 218.374 118.383 218.999C118.339 219.43 118.416 219.865 118.606 220.254C118.676 220.438 118.784 220.604 118.923 220.743C119.062 220.881 119.228 220.989 119.411 221.06C119.75 221.184 120.112 221.231 120.471 221.197C120.796 221.139 121.118 221.063 121.435 220.97C122.023 220.805 122.495 220.641 122.813 220.525C122.972 220.447 123.139 220.387 123.311 220.344Z" fill="#EB996E"/>
<path d="M164.355 113.172C163.205 101.696 160.774 90.2736 161.277 78.7344L151.841 84.6259C152.313 89.1928 148.207 92.732 145.828 96.6526C144.404 99.0477 143.569 101.746 143.391 104.527C143.214 107.308 143.698 110.091 144.805 112.648C145.653 114.555 146.856 116.356 147.168 118.422C147.698 121.909 145.542 125.453 146.336 128.891C147.248 132.849 152.09 135.021 155.995 133.909C159.899 132.796 162.697 129.141 163.847 125.268C164.996 121.395 164.758 117.214 164.355 113.172Z" fill="#263238"/>
<path d="M152.352 82.6823C152.874 79.8822 154.131 77.2713 155.994 75.1171C157.857 72.9629 160.26 71.3429 162.956 70.4231C165.652 69.5033 168.543 69.3168 171.335 69.8828C174.126 70.4487 176.717 71.7467 178.842 73.6437C180.564 75.1855 181.973 77.1087 183.965 78.2795C186.217 79.5988 186.508 79.1537 188.988 79.9537C191.467 80.7538 196.326 87.228 196.405 89.8347L198.334 101.173C198.397 103.848 195.059 105.57 192.474 104.881C189.889 104.193 188.066 101.909 186.583 99.6733C185.099 97.4375 183.69 95.0163 181.406 93.6123C177.618 91.2864 172.754 92.4732 168.463 93.6123C164.172 94.7513 159.186 95.7315 155.615 93.0824C152.563 90.7778 151.652 86.4333 152.352 82.6823Z" fill="#263238"/>
<path d="M150.982 99.1107C150.982 91.651 155.374 82.2362 162.823 82.5753L186.294 87.0257C187.386 87.074 188.421 87.5311 189.192 88.3064C189.964 89.0817 190.415 90.1185 190.458 91.2112L191.343 147.106H191.502C191.502 147.106 183.348 167.61 167.772 163.763C164.683 163 166.966 155.313 166.15 151.943L165.997 151.975C165.965 151.567 165.939 151.191 165.907 150.804C165.451 148.283 165.261 145.72 165.34 143.159C165.017 138.661 164.905 136.801 164.905 136.86C164.905 136.918 155.316 135.853 152.603 123.588C151.258 117.516 150.956 107.402 150.982 99.1107Z" fill="#FFBE9D"/>
<path d="M155.125 108.86C155.146 109.274 155.327 109.664 155.631 109.946C155.935 110.228 156.337 110.38 156.752 110.37C156.955 110.374 157.157 110.337 157.346 110.262C157.535 110.187 157.706 110.075 157.851 109.932C157.996 109.789 158.111 109.619 158.188 109.431C158.266 109.243 158.305 109.042 158.304 108.839C158.283 108.424 158.102 108.035 157.798 107.753C157.494 107.471 157.092 107.318 156.677 107.329C156.474 107.324 156.272 107.361 156.083 107.436C155.894 107.511 155.722 107.624 155.578 107.766C155.433 107.909 155.318 108.079 155.241 108.267C155.163 108.455 155.124 108.656 155.125 108.86Z" fill="#263238"/>
<path d="M153.489 104.228C153.695 104.424 154.845 103.46 156.556 103.365C158.267 103.269 159.571 104.043 159.735 103.825C159.825 103.725 159.597 103.365 159.03 102.999C158.259 102.53 157.361 102.311 156.461 102.374C155.58 102.437 154.742 102.776 154.066 103.343C153.536 103.757 153.383 104.143 153.489 104.228Z" fill="#263238"/>
<path d="M170.547 108.009C170.568 108.423 170.749 108.812 171.053 109.095C171.357 109.377 171.759 109.529 172.173 109.519C172.377 109.523 172.579 109.486 172.768 109.411C172.956 109.336 173.128 109.224 173.273 109.081C173.418 108.938 173.532 108.768 173.61 108.58C173.688 108.392 173.727 108.191 173.726 107.987C173.705 107.571 173.521 107.178 173.214 106.896C172.907 106.613 172.501 106.463 172.083 106.478C171.881 106.475 171.681 106.514 171.494 106.59C171.307 106.666 171.137 106.778 170.994 106.921C170.851 107.063 170.738 107.233 170.661 107.42C170.584 107.607 170.545 107.807 170.547 108.009Z" fill="#263238"/>
<path d="M170.313 103.541C170.519 103.732 171.669 102.773 173.38 102.672C175.091 102.572 176.395 103.356 176.559 103.133C176.644 103.033 176.427 102.672 175.854 102.307C175.082 101.84 174.185 101.621 173.285 101.682C172.396 101.735 171.547 102.067 170.858 102.63C170.365 103.064 170.207 103.451 170.313 103.541Z" fill="#263238"/>
<path d="M164.87 116.587C164.87 116.486 163.811 116.369 162.062 116.253C161.623 116.253 161.204 116.168 161.114 115.877C161.05 115.427 161.124 114.969 161.326 114.563C161.676 113.503 162.036 112.353 162.417 111.167C163.927 106.324 164.987 102.356 164.791 102.298C164.595 102.239 163.201 106.112 161.707 110.949L160.674 114.372C160.43 114.913 160.386 115.524 160.552 116.094C160.624 116.245 160.73 116.378 160.861 116.481C160.993 116.585 161.146 116.657 161.31 116.692C161.556 116.744 161.807 116.763 162.057 116.751C163.795 116.74 164.87 116.682 164.87 116.587Z" fill="#263238"/>
<path d="M164.906 136.886C170.743 136.622 176.391 134.744 181.224 131.461C181.224 131.461 177.558 140.335 165.097 139.938L164.906 136.886Z" fill="#EB996E"/>
<path d="M165.842 120.661C166.142 120.232 166.547 119.886 167.018 119.657C167.489 119.428 168.011 119.323 168.534 119.352C168.913 119.362 169.286 119.448 169.63 119.607C169.974 119.765 170.283 119.993 170.536 120.274C170.782 120.545 170.939 120.885 170.985 121.248C171.032 121.611 170.966 121.979 170.796 122.304C170.54 122.627 170.194 122.867 169.801 122.992C169.409 123.118 168.988 123.123 168.592 123.008C167.767 122.771 166.997 122.371 166.33 121.832C166.124 121.709 165.944 121.547 165.8 121.355C165.731 121.265 165.691 121.156 165.685 121.043C165.678 120.93 165.705 120.817 165.763 120.719" fill="#EB996E"/>
<path d="M169.961 117.469C169.681 117.469 169.787 119.324 168.282 120.733C166.777 122.142 164.785 122.063 164.785 122.323C164.785 122.439 165.246 122.656 166.083 122.63C167.171 122.581 168.207 122.149 169.008 121.411C169.776 120.702 170.238 119.721 170.295 118.677C170.332 117.899 170.094 117.448 169.961 117.469Z" fill="#263238"/>
<path d="M169.487 97.0612C169.683 97.5168 171.379 97.1936 173.397 97.3155C175.416 97.4373 177.074 97.8824 177.312 97.4479C177.418 97.2413 177.111 96.8227 176.433 96.3883C175.526 95.889 174.518 95.6028 173.484 95.5514C172.451 95.5 171.419 95.6847 170.467 96.0916C169.752 96.4572 169.429 96.8439 169.487 97.0612Z" fill="#263238"/>
<path d="M153.819 99.2419C154.143 99.6128 155.298 99.1412 156.712 99.0353C158.127 98.9293 159.361 99.1412 159.594 98.7174C159.706 98.5108 159.494 98.1346 158.943 97.8008C158.213 97.4004 157.381 97.2269 156.552 97.3024C155.723 97.3779 154.936 97.699 154.291 98.2247C153.814 98.6538 153.676 99.0618 153.819 99.2419Z" fill="#263238"/>
<path d="M163.233 76.5349L164.234 75.0586C171.712 75.4497 179.104 76.865 186.205 79.2655C189.043 80.2257 193.983 80.6092 196.842 82.5818C201.91 86.0787 204.755 90.4537 205.305 94.5718C207.406 110.24 202.038 127.001 198.057 142.297C196.759 140.454 194.394 139.738 192.172 139.444C189.95 139.15 187.635 139.161 185.572 138.257C184.452 137.739 183.452 136.991 182.635 136.06C181.819 135.129 181.205 134.036 180.832 132.851C180.097 130.46 180.22 127.884 181.178 125.575C182.218 123.005 184.192 120.463 183.504 117.805C182.784 114.991 179.446 113.565 178.511 110.817C176.899 106.067 183.35 101.305 181.695 96.5704C181.079 94.8222 179.462 93.6234 177.768 92.9019C176.074 92.1804 174.249 91.8307 172.538 91.1592C169.694 89.9703 167.279 87.9321 165.615 85.3181C163.952 82.7041 163.121 79.6393 163.233 76.5349Z" fill="#263238"/>
<path d="M213.896 157.105C213.896 157.105 209.605 148.299 204.005 143.457C198.404 138.614 194.966 138.662 186.976 139.34C178.987 140.018 167.808 141.279 165.159 140.606L164.91 136.898C163.596 136.765 158.208 134.143 157.159 132.559C155.156 134.609 154.282 136.797 154.738 139.123L153.429 139.616C151.498 140.322 149.896 141.714 148.926 143.527C147.957 145.34 147.689 147.446 148.173 149.444C148.671 151.351 149.874 152.522 152.29 152.94C161.879 154.599 187.517 147.669 195.236 147.642C202.956 147.616 213.896 157.105 213.896 157.105Z" fill="#2642CA"/>
<path d="M151.414 152.831C151.639 152.824 151.864 152.837 152.087 152.868C152.521 152.91 153.147 152.979 153.989 153.037C156.326 153.22 158.672 153.258 161.014 153.154C164.484 152.975 167.933 152.508 171.324 151.755C173.242 151.337 175.24 150.828 177.29 150.235L183.616 148.28C187.955 146.96 192.305 146.06 196.284 146.452C199.789 146.772 203.182 147.857 206.223 149.631C208.265 150.827 210.11 152.33 211.696 154.086C212.127 154.561 212.53 155.06 212.904 155.58C213.042 155.747 213.168 155.924 213.28 156.11C213.113 155.962 212.964 155.795 212.835 155.612C212.565 155.268 212.136 154.786 211.569 154.182C207.526 149.947 202.079 147.329 196.247 146.817C192.347 146.457 188.066 147.347 183.743 148.661C181.576 149.313 179.473 150.007 177.412 150.606C175.351 151.204 173.343 151.702 171.409 152.11C167.993 152.852 164.518 153.291 161.025 153.424C158.671 153.503 156.315 153.416 153.973 153.165C153.147 153.08 152.505 152.984 152.076 152.916C151.854 152.906 151.632 152.878 151.414 152.831Z" fill="#263238"/>
<path d="M214.359 154.206C204.685 141.629 186.136 136.823 171.566 143.117L156.202 146.376C152.149 147.075 145.648 148.394 145.341 152.151C145.06 156.129 145.926 160.104 147.836 163.605C151.407 169.825 149.468 178.159 153.039 184.379C154.724 187.319 156.446 190.302 158.904 192.639C161.362 194.975 164.7 196.612 168.07 196.247C171.821 195.844 174.894 193.105 177.278 190.18C182.412 183.881 185.617 176.231 190.422 169.682C195.228 163.134 200.897 158.312 210.995 157.692C212.828 157.576 218.057 160.018 218.057 160.018C218.206 159.277 214.82 154.794 214.359 154.206Z" fill="#2642CA"/>
<g opacity="0.3">
<path d="M193.681 146.723C187 146.723 180.436 149.933 173.961 151.364C147.916 157.096 147.916 147.274 147.916 147.274C147.1 151.888 151.434 154.008 155.996 155.067C164.706 157.081 174.009 158.161 180.293 156.153C185.358 154.564 190.645 153.382 195.758 151.915C200.87 150.447 208.235 151.009 212.108 154.643C208.643 148.948 200.362 146.707 193.681 146.723Z" fill="black"/>
</g>
<g opacity="0.3">
<path d="M159.831 146.019C160.142 146.701 160.597 147.308 161.163 147.799C161.73 148.29 162.396 148.653 163.116 148.864C164.558 149.28 166.068 149.409 167.561 149.246C173.007 148.875 178.242 147.057 183.397 145.256C179.275 145.113 175.285 146.549 171.243 147.375C167.201 148.202 162.644 148.255 159.359 145.786" fill="black"/>
</g>
<path d="M215.667 158.235C215.667 158.235 215.619 158.198 215.545 158.119L215.222 157.748C214.941 157.414 214.512 156.948 213.945 156.355C212.349 154.676 210.42 153.35 208.281 152.46C206.789 151.897 205.221 151.558 203.63 151.454C201.804 151.306 199.969 151.364 198.157 151.629C194.31 152.158 190.247 153.509 185.934 154.739C181.621 155.968 177.505 157.25 173.589 157.457C170.138 157.605 166.68 157.358 163.285 156.72C160.392 156.19 158.087 155.576 156.492 155.178L154.659 154.712L154.188 154.585L154.023 154.532C154.08 154.524 154.137 154.524 154.193 154.532L154.675 154.633L156.519 155.051C158.108 155.417 160.429 155.994 163.322 156.503C166.703 157.113 170.142 157.341 173.573 157.181C177.446 156.964 181.568 155.74 185.86 154.453C190.151 153.165 194.241 151.867 198.12 151.353C199.952 151.095 201.807 151.045 203.651 151.205C205.628 151.318 207.562 151.824 209.342 152.691C211.122 153.559 212.712 154.772 214.019 156.259C214.581 156.868 214.999 157.345 215.264 157.69L215.566 158.076L215.667 158.235Z" fill="black"/>
<path d="M205.936 145.274C205.896 145.248 205.859 145.218 205.825 145.184L205.517 144.903C205.258 144.649 204.85 144.294 204.32 143.844C202.794 142.611 201.121 141.571 199.34 140.75C196.696 139.538 193.885 138.731 191.001 138.355C187.466 137.916 183.889 137.925 180.357 138.381C176.821 138.849 173.312 139.503 169.845 140.342C168.314 140.702 166.736 140.827 165.167 140.713C163.787 140.609 162.462 140.129 161.336 139.325C160.433 138.639 159.661 137.795 159.058 136.834C158.603 136.118 158.208 135.365 157.877 134.583C157.607 133.942 157.426 133.428 157.31 133.078L157.188 132.681C157.171 132.637 157.16 132.59 157.156 132.543C157.156 132.543 157.183 132.585 157.215 132.67C157.246 132.755 157.305 132.903 157.363 133.062C157.495 133.401 157.691 133.905 157.977 134.54C158.323 135.307 158.729 136.046 159.191 136.75C159.794 137.684 160.561 138.502 161.453 139.166C162.557 139.937 163.85 140.393 165.193 140.485C166.737 140.585 168.288 140.453 169.792 140.093C173.263 139.237 176.78 138.575 180.325 138.111C183.881 137.652 187.481 137.652 191.038 138.111C193.943 138.505 196.771 139.34 199.425 140.585C201.211 141.423 202.88 142.492 204.389 143.764C204.798 144.111 205.189 144.479 205.56 144.866L205.846 145.163C205.909 145.237 205.941 145.269 205.936 145.274Z" fill="black"/>
<path d="M202.81 145.019H202.677L202.285 144.956L200.775 144.707C198.925 144.422 197.061 144.233 195.191 144.14C192.416 144.003 189.634 144.092 186.873 144.405C183.495 144.858 180.148 145.514 176.849 146.37C173.331 147.218 169.908 147.96 166.735 147.912C165.237 147.922 163.744 147.744 162.29 147.382C161.022 147.024 159.849 146.389 158.857 145.523C157.432 144.278 156.275 142.756 155.455 141.051C155.143 140.434 154.897 139.786 154.719 139.117C154.744 139.155 154.764 139.196 154.777 139.239L154.92 139.61C155.053 139.938 155.254 140.41 155.551 140.998C156.398 142.667 157.564 144.154 158.984 145.374C159.962 146.208 161.11 146.817 162.348 147.16C163.784 147.509 165.257 147.678 166.735 147.663C169.871 147.663 173.267 146.958 176.801 146.105C180.113 145.243 183.475 144.588 186.868 144.145C189.642 143.846 192.437 143.777 195.223 143.938C197.099 144.047 198.967 144.265 200.818 144.59C201.474 144.712 201.978 144.813 202.322 144.892L202.709 144.982C202.773 144.998 202.81 145.014 202.81 145.019Z" fill="black"/>
<path d="M203.297 121.242C203.249 121.543 203.182 121.84 203.095 122.132C203.013 122.48 202.91 122.824 202.788 123.16C202.65 123.557 202.518 124.013 202.306 124.495C202.094 124.977 201.888 125.518 201.607 126.085C201.326 126.652 201.013 127.218 200.669 127.828C199.122 130.432 197.109 132.729 194.73 134.604C194.173 135.028 193.67 135.436 193.14 135.764C192.611 136.093 192.134 136.405 191.673 136.665C191.212 136.925 190.788 137.136 190.417 137.322C190.1 137.488 189.772 137.635 189.437 137.762C189.161 137.889 188.876 137.995 188.584 138.08C188.843 137.92 189.114 137.782 189.395 137.666C189.659 137.544 189.983 137.391 190.348 137.184C190.714 136.978 191.138 136.782 191.577 136.495C192.017 136.209 192.515 135.934 193.013 135.574C193.511 135.213 194.036 134.827 194.603 134.408C196.936 132.525 198.926 130.252 200.484 127.69C200.828 127.091 201.167 126.53 201.432 125.979C201.697 125.428 201.962 124.919 202.158 124.432C202.354 123.944 202.523 123.51 202.688 123.123C202.852 122.736 202.947 122.392 203.032 122.116C203.095 121.818 203.184 121.526 203.297 121.242Z" fill="black"/>
<path d="M202.494 152.82C202.35 152.82 202.207 152.807 202.065 152.783L201.535 152.714C201.334 152.687 201.095 152.714 200.836 152.677C199.338 152.641 197.845 152.872 196.428 153.36C195.451 153.696 194.5 154.103 193.583 154.579C192.532 155.132 191.512 155.741 190.526 156.401C188.438 157.795 186.255 159.501 183.914 161.223L171.961 170.097L168.311 172.746L167.309 173.435C167.198 173.525 167.077 173.603 166.949 173.668C167.05 173.568 167.158 173.476 167.272 173.392L168.242 172.64L171.839 169.911L183.76 161C186.102 159.283 188.285 157.577 190.399 156.189C191.395 155.529 192.426 154.922 193.487 154.372C194.421 153.902 195.388 153.502 196.38 153.175C197.82 152.698 199.337 152.493 200.852 152.571C201.117 152.571 201.355 152.597 201.556 152.629L202.086 152.724C202.225 152.744 202.361 152.776 202.494 152.82Z" fill="black"/>
<path d="M219.595 169.065C219.492 168.824 219.414 168.574 219.362 168.317C219.235 167.835 219.054 167.131 218.8 166.272C218.514 165.266 218.151 164.283 217.714 163.332C217.183 162.175 216.457 161.118 215.568 160.206C214.684 159.291 213.578 158.621 212.358 158.262C211.353 157.993 210.31 157.901 209.274 157.991C208.316 158.099 207.364 158.262 206.424 158.479C206.481 158.441 206.543 158.412 206.609 158.394C206.736 158.346 206.922 158.283 207.139 158.214C207.831 158.009 208.54 157.87 209.258 157.801C210.322 157.677 211.4 157.75 212.437 158.018C213.706 158.377 214.857 159.064 215.775 160.01C216.687 160.944 217.426 162.033 217.958 163.226C218.392 164.193 218.746 165.194 219.017 166.219C219.245 167.088 219.399 167.809 219.494 168.296C219.55 168.549 219.584 168.806 219.595 169.065Z" fill="black"/>
<path d="M210.208 70.1877C220.626 69.7037 228.678 60.8665 228.194 50.4493C227.71 40.0321 218.873 31.9796 208.456 32.4635C198.039 32.9475 189.986 41.7847 190.47 52.2019C190.954 62.6192 199.791 70.6717 210.208 70.1877Z" fill="white"/>
<path d="M198.827 73.1398C199.002 73.0907 199.179 73.05 199.357 73.018C199.867 72.9548 200.384 73.053 200.835 73.2988C201.146 73.4604 201.417 73.6883 201.63 73.9663C201.866 74.2896 202.004 74.674 202.027 75.0736C202.077 75.5332 201.985 75.997 201.763 76.4025C201.541 76.8081 201.2 77.1359 200.786 77.3419C200.373 77.548 199.906 77.6223 199.448 77.5549C198.991 77.4875 198.565 77.2817 198.229 76.9651C197.925 76.7058 197.701 76.366 197.582 75.9849C197.484 75.6404 197.464 75.2785 197.524 74.9253C197.602 74.4169 197.835 73.9451 198.192 73.5743C198.446 73.3147 198.631 73.2246 198.621 73.2087C198.574 73.2231 198.529 73.2445 198.488 73.2723C198.435 73.2999 198.383 73.3318 198.335 73.3677C198.268 73.4169 198.204 73.47 198.144 73.5266C197.817 73.839 197.58 74.2333 197.457 74.6684C197.334 75.1034 197.33 75.5635 197.444 76.0008C197.562 76.4128 197.798 76.7812 198.123 77.0604C198.477 77.375 198.912 77.5842 199.378 77.6644C199.881 77.7704 200.404 77.7036 200.864 77.4747C201.324 77.2458 201.693 76.8683 201.911 76.4035C202.126 75.9818 202.222 75.5089 202.186 75.0366C202.158 74.6084 202.005 74.1978 201.747 73.8551C201.521 73.56 201.228 73.3222 200.894 73.161C200.418 72.9151 199.874 72.8314 199.347 72.9226C199.265 72.9345 199.186 72.954 199.108 72.9809C199.048 72.9963 198.989 73.0176 198.933 73.0445C198.87 73.1028 198.822 73.1398 198.827 73.1398Z" fill="#263238"/>
<path d="M193.614 62.0691L193.461 61.7989L192.994 61.0254C192.894 60.8505 192.777 60.6598 192.65 60.4532C192.523 60.2466 192.427 59.9923 192.3 59.7273C192.173 59.4624 192.041 59.1975 191.898 58.8797C191.82 58.7262 191.754 58.5668 191.702 58.4028C191.643 58.2333 191.58 58.0637 191.516 57.873C190.875 56.1544 190.498 54.3484 190.398 52.5166C190.252 50.0906 190.572 47.659 191.341 45.3536L191.675 44.3893C191.808 44.0662 191.961 43.7536 192.104 43.4304C192.173 43.2714 192.247 43.1125 192.321 42.9483C192.389 42.7826 192.47 42.6231 192.565 42.4714L193.095 41.5231C193.185 41.3641 193.275 41.2052 193.37 41.0462L193.699 40.5906L194.361 39.6687C194.589 39.3667 194.859 39.0859 195.114 38.7892L195.5 38.3495C195.564 38.2806 195.627 38.2012 195.696 38.1323L195.914 37.931C196.482 37.3599 197.089 36.8288 197.731 36.3415C198.059 36.1031 198.377 35.8117 198.727 35.6051L199.786 34.9534C199.967 34.8475 200.141 34.7256 200.316 34.6302L200.894 34.3547C201.281 34.1746 201.662 33.9733 202.059 33.8249C202.876 33.4999 203.714 33.2274 204.565 33.009L205.212 32.8448L205.54 32.7653L205.874 32.7176L207.214 32.5163C207.67 32.4686 208.126 32.458 208.587 32.4315C208.814 32.4315 209.048 32.3944 209.281 32.4315L209.975 32.4633C210.914 32.4977 211.851 32.5951 212.777 32.7547L214.171 33.0885L214.521 33.1733C214.637 33.2051 214.748 33.2474 214.865 33.2845L215.548 33.5229L216.237 33.7561L216.905 34.0527L217.572 34.36L217.906 34.5084C218.017 34.5667 218.118 34.6302 218.229 34.6938L219.511 35.4303L220.73 36.2991C224 38.7497 226.381 42.2003 227.511 46.1271C227.639 46.6092 227.76 47.0967 227.882 47.5735L228.105 49.0411L228.158 49.4066V49.7722L228.195 50.5034L228.232 51.2345L228.2 51.9603L228.168 52.6862V53.0464L228.121 53.4014C228.052 53.8782 227.988 54.3498 227.925 54.8213C227.737 55.7447 227.487 56.6545 227.178 57.5445L226.955 58.2015C226.881 58.424 226.77 58.6253 226.68 58.8373C226.484 59.2558 226.314 59.6797 226.102 60.0823C225.89 60.485 225.652 60.8717 225.429 61.2638L225.26 61.5552C225.196 61.6506 225.127 61.7406 225.064 61.8307L224.677 62.3605C224.166 63.0742 223.608 63.7538 223.008 64.395C222.706 64.7076 222.383 64.9884 222.076 65.2851L221.604 65.7195C221.45 65.8625 221.27 65.9844 221.106 66.1116L220.11 66.8745C219.771 67.1129 219.405 67.3142 219.05 67.5314C218.371 67.9548 217.663 68.3302 216.931 68.6547L216.666 68.7818L216.391 68.8878L215.861 69.0838C215.49 69.2109 215.135 69.3646 214.77 69.4706L213.668 69.7514L213.138 69.8891L212.608 69.9739L211.548 70.1381C211.373 70.1689 211.196 70.1866 211.018 70.1911H210.489C210.139 70.1911 209.789 70.2388 209.429 70.2441L208.407 70.2017C205.979 70.0823 203.597 69.4958 201.392 68.4745C201.148 68.3633 200.904 68.2626 200.671 68.1513L200.014 67.7699L199.379 67.4096C199.273 67.346 199.167 67.293 199.071 67.2295L198.79 67.0281L197.731 66.2652C197.397 66.0109 197.111 65.7354 196.82 65.4917L196.406 65.1314C196.273 65.0212 196.148 64.9027 196.03 64.7764L195.315 64.1407C195.119 63.9287 194.928 63.738 194.785 63.5526L194.377 63.0228L193.847 62.3075C193.725 62.1486 193.657 62.0691 193.657 62.0691L193.837 62.3181C193.959 62.4877 194.139 62.7261 194.367 63.044L194.764 63.5738C194.923 63.7645 195.114 63.9552 195.294 64.1672L195.929 64.8612C196.046 64.9905 196.171 65.1109 196.306 65.2215L196.719 65.587C197.005 65.8308 197.291 66.1169 197.625 66.3659L198.684 67.1394L198.965 67.3407C199.066 67.4096 199.172 67.4626 199.273 67.5262L199.908 67.8917L200.571 68.2785L201.291 68.607C203.506 69.6436 205.901 70.241 208.343 70.3659L209.371 70.4136C209.715 70.4136 210.07 70.3818 210.43 70.3659L210.96 70.3341C211.138 70.3334 211.315 70.3175 211.49 70.2865L212.576 70.1222L213.106 70.0375L213.636 69.8997L214.748 69.6189C215.114 69.5129 215.474 69.3646 215.845 69.2374L216.401 69.0361C216.491 68.999 216.587 68.9725 216.677 68.9301L216.947 68.803C217.691 68.4764 218.411 68.0993 219.103 67.6745C219.453 67.4573 219.819 67.2559 220.163 67.0175L221.17 66.2493C221.339 66.1169 221.514 66.0003 221.699 65.8573L222.171 65.4175C222.478 65.1208 222.812 64.8347 223.114 64.5221C223.719 63.8757 224.282 63.1909 224.799 62.4718C224.926 62.2863 225.058 62.1062 225.191 61.942C225.254 61.8519 225.323 61.7618 225.387 61.6665L225.556 61.3698L226.24 60.183C226.452 59.775 226.627 59.3459 226.823 58.9273C226.913 58.7101 227.029 58.5035 227.104 58.2863L227.326 57.6187C227.64 56.7224 227.891 55.8054 228.078 54.8743C228.147 54.4028 228.216 53.9206 228.28 53.4438L228.333 53.0835V52.718L228.364 51.9921L228.396 51.2557L228.359 50.5192L228.317 49.7828V49.4066L228.258 49.0411L228.036 47.5629C227.914 47.0755 227.792 46.5881 227.665 46.1006C226.547 42.1276 224.158 38.6307 220.862 36.1455L219.633 35.266L218.335 34.5243C218.229 34.4607 218.123 34.3971 218.012 34.3388L217.673 34.1852L217 33.8779L216.327 33.5812L215.633 33.3428L214.939 33.1044L214.595 32.9878L214.24 32.9084C213.773 32.7918 213.302 32.6805 212.836 32.5746C211.901 32.4106 210.955 32.3114 210.007 32.2779L209.307 32.2461C209.074 32.2461 208.841 32.2461 208.608 32.2461C208.142 32.2779 207.681 32.2832 207.225 32.3309L205.869 32.5375L205.535 32.5905C205.424 32.5905 205.312 32.6434 205.206 32.6699L204.549 32.8395C203.691 33.0564 202.849 33.3308 202.028 33.6607C201.625 33.8302 201.238 34.0368 200.846 34.217L200.269 34.4978C200.078 34.5932 199.903 34.715 199.739 34.8263L198.679 35.4832C198.33 35.7164 198.006 35.9866 197.678 36.2303C197.031 36.7176 196.419 37.2487 195.845 37.8197L195.627 38.0263C195.559 38.0952 195.495 38.1747 195.431 38.2488C195.368 38.323 195.172 38.5455 195.039 38.6886C194.785 38.9906 194.51 39.2714 194.287 39.5734L193.62 40.5058L193.291 40.9668C193.196 41.1257 193.106 41.29 193.016 41.4489L192.486 42.4026C192.394 42.5567 192.314 42.7179 192.247 42.8847L192.025 43.3721C191.882 43.6953 191.728 44.0132 191.601 44.3364C191.474 44.6595 191.378 44.988 191.267 45.3112C190.498 47.6312 190.185 50.0779 190.345 52.5166C190.451 54.3574 190.839 56.1711 191.495 57.8942L191.686 58.424C191.738 58.588 191.804 58.7474 191.882 58.9008L192.295 59.7485C192.427 60.0082 192.533 60.2519 192.655 60.4691L193.005 61.036L193.487 61.8042C193.551 61.979 193.614 62.0691 193.614 62.0691Z" fill="#263238"/>
<path d="M199.801 51.8002L202.598 49.0028L207.992 53.7976L218.577 43.6094L221.173 46.4068L207.594 59.1911L199.801 51.8002Z" fill="#2642CA"/>
</svg>
