<svg width="198" height="198" viewBox="0 0 198 198" fill="none" xmlns="http://www.w3.org/2000/svg">
<g opacity="0.2" filter="url(#filter0_df_5528_44332)">
<circle cx="99" cy="99" r="84" fill="#1C1C1C"/>
</g>
<path d="M63 134V72H76.5V63.1429C76.5 57.0167 78.6945 51.7939 83.0835 47.4746C87.4695 43.1582 92.775 41 99 41C105.225 41 110.532 43.1582 114.921 47.4746C119.307 51.7939 121.5 57.0167 121.5 63.1429V72H135V134H63ZM85.5 72H112.5V63.1429C112.5 59.4524 111.187 56.3155 108.562 53.7321C105.938 51.1488 102.75 49.8571 99 49.8571C95.25 49.8571 92.0625 51.1488 89.4375 53.7321C86.8125 56.3155 85.5 59.4524 85.5 63.1429V72ZM72 125.143H126V80.8571H72V125.143ZM99 111.857C101.475 111.857 103.595 110.991 105.359 109.258C107.12 107.522 108 105.436 108 103C108 100.564 107.12 98.4784 105.359 96.7424C103.595 95.0094 101.475 94.1429 99 94.1429C96.525 94.1429 94.407 95.0094 92.646 96.7424C90.882 98.4784 90 100.564 90 103C90 105.436 90.882 107.522 92.646 109.258C94.407 110.991 96.525 111.857 99 111.857Z" fill="#434343"/>
<defs>
<filter id="filter0_df_5528_44332" x="0" y="0" width="198" height="198" filterUnits="userSpaceOnUse" color-interpolation-filters="sRGB">
<feFlood flood-opacity="0" result="BackgroundImageFix"/>
<feColorMatrix in="SourceAlpha" type="matrix" values="0 0 0 0 0 0 0 0 0 0 0 0 0 0 0 0 0 0 127 0" result="hardAlpha"/>
<feOffset/>
<feGaussianBlur stdDeviation="2"/>
<feComposite in2="hardAlpha" operator="out"/>
<feColorMatrix type="matrix" values="0 0 0 0 0 0 0 0 0 0 0 0 0 0 0 0 0 0 0.25 0"/>
<feBlend mode="normal" in2="BackgroundImageFix" result="effect1_dropShadow_5528_44332"/>
<feBlend mode="normal" in="SourceGraphic" in2="effect1_dropShadow_5528_44332" result="shape"/>
<feGaussianBlur stdDeviation="7.5" result="effect2_foregroundBlur_5528_44332"/>
</filter>
</defs>
</svg>
