<svg width="216" height="156" viewBox="0 0 216 156" fill="none" xmlns="http://www.w3.org/2000/svg">
<path d="M209.33 155.872C209.33 155.941 162.468 156 104.67 156C46.8718 156 0 155.941 0 155.872C0 155.804 46.8521 155.745 104.67 155.745C162.487 155.745 209.33 155.799 209.33 155.872Z" fill="#263238"/>
<path d="M200.683 24.2661H8.75146V36.5701H200.683V24.2661Z" fill="#E0E0E0"/>
<path d="M200.652 47.8721H8.7207V155.581H200.652V47.8721Z" fill="white"/>
<path d="M8.75146 36.4771H35.1067L37.7142 28.8706H80.4366L83.0441 36.4771H200.683V48.1325H8.75146V36.4771Z" fill="#EBEBEB"/>
<path d="M15.0857 29.1751C15.0857 29.4608 15.001 29.7401 14.8424 29.9777C14.6837 30.2153 14.4583 30.4005 14.1945 30.5098C13.9306 30.6191 13.6404 30.6477 13.3603 30.592C13.0803 30.5363 12.823 30.3987 12.6211 30.1966C12.4192 29.9946 12.2817 29.7372 12.226 29.457C12.1703 29.1767 12.1989 28.8863 12.3081 28.6223C12.4174 28.3583 12.6025 28.1327 12.8399 27.9739C13.0773 27.8152 13.3564 27.7305 13.642 27.7305C13.8317 27.7298 14.0198 27.7667 14.1952 27.8391C14.3707 27.9115 14.5301 28.0179 14.6643 28.1522C14.7985 28.2864 14.9048 28.4459 14.9771 28.6215C15.0494 28.7971 15.0863 28.9852 15.0857 29.1751Z" fill="#263238"/>
<path d="M19.5491 29.1751C19.5491 29.4608 19.4644 29.7401 19.3058 29.9777C19.1471 30.2153 18.9216 30.4005 18.6578 30.5098C18.394 30.6191 18.1037 30.6477 17.8237 30.592C17.5436 30.5363 17.2864 30.3987 17.0845 30.1966C16.8826 29.9946 16.7451 29.7372 16.6894 29.457C16.6337 29.1767 16.6622 28.8863 16.7715 28.6223C16.8808 28.3583 17.0658 28.1327 17.3033 27.9739C17.5407 27.8152 17.8198 27.7305 18.1053 27.7305C18.2951 27.7298 18.4831 27.7667 18.6586 27.8391C18.834 27.9115 18.9935 28.0179 19.1277 28.1522C19.2618 28.2864 19.3682 28.4459 19.4405 28.6215C19.5128 28.7971 19.5497 28.9852 19.5491 29.1751Z" fill="#263238"/>
<path d="M24.0129 29.1751C24.0129 29.4608 23.9283 29.7401 23.7696 29.9777C23.611 30.2153 23.3855 30.4005 23.1217 30.5098C22.8579 30.6191 22.5676 30.6477 22.2876 30.592C22.0075 30.5363 21.7503 30.3987 21.5483 30.1966C21.3464 29.9946 21.2089 29.7372 21.1532 29.457C21.0975 29.1767 21.1261 28.8863 21.2354 28.6223C21.3447 28.3583 21.5297 28.1327 21.7671 27.9739C22.0045 27.8152 22.2837 27.7305 22.5692 27.7305C22.759 27.7298 22.947 27.7667 23.1225 27.8391C23.2979 27.9115 23.4573 28.0179 23.5915 28.1522C23.7257 28.2864 23.832 28.4459 23.9044 28.6215C23.9767 28.7971 24.0136 28.9852 24.0129 29.1751Z" fill="#263238"/>
<path d="M179.468 45.8126H47.7902C46.8212 45.8126 45.892 45.4275 45.2068 44.7419C44.5216 44.0563 44.1367 43.1264 44.1367 42.1568C44.1367 41.1872 44.5216 40.2573 45.2068 39.5717C45.892 38.8861 46.8212 38.501 47.7902 38.501H179.468C180.437 38.501 181.366 38.8861 182.052 39.5717C182.737 40.2573 183.122 41.1872 183.122 42.1568C183.122 43.1264 182.737 44.0563 182.052 44.7419C181.366 45.4275 180.437 45.8126 179.468 45.8126Z" fill="#FAFAFA"/>
<path d="M179.351 67.2423H64.6241C62.9062 67.2423 61.2588 66.5594 60.0441 65.3439C58.8294 64.1285 58.147 62.4799 58.147 60.761C58.1483 59.0425 58.8311 57.3947 60.0455 56.1795C61.2599 54.9643 62.9066 54.2811 64.6241 54.2798H179.351C181.068 54.2811 182.715 54.9643 183.929 56.1795C185.144 57.3947 185.826 59.0425 185.828 60.761C185.828 62.4799 185.145 64.1285 183.931 65.3439C182.716 66.5594 181.068 67.2423 179.351 67.2423Z" fill="#FAFAFA"/>
<path d="M179.35 67.2419C180.265 67.2221 181.167 67.0182 182.001 66.6424C182.823 66.2641 183.557 65.7194 184.157 65.0428C184.757 64.3661 185.21 63.5723 185.488 62.7114C185.721 61.9432 185.811 61.1387 185.753 60.3381C185.692 59.4417 185.445 58.568 185.026 57.7731C184.558 56.9022 183.899 56.1494 183.097 55.5717C182.22 54.9399 181.198 54.5409 180.126 54.4121C179.556 54.3632 178.984 54.3468 178.412 54.3629H176.624H160.13L64.6329 54.3973C63.4862 54.4007 62.3616 54.713 61.3772 55.3015C60.41 55.8793 59.6138 56.7043 59.0704 57.6916C58.5269 58.679 58.2558 59.7933 58.2848 60.9201C58.3138 62.047 58.6419 63.1458 59.2353 64.1039C59.8288 65.062 60.6664 65.8449 61.662 66.3721C62.6455 66.8821 63.7416 67.1356 64.849 67.1092H96.8564L139.79 67.1387L168.762 67.178H176.619H178.667C179.129 67.178 179.364 67.178 179.364 67.178H178.667H176.619H168.762L139.79 67.2222L96.8564 67.2468H71.498H64.849C63.7002 67.2764 62.5628 67.0126 61.5442 66.4802C60.2402 65.7903 59.2045 64.6833 58.6023 63.3359C58.0001 61.9885 57.866 60.4782 58.2214 59.0456C58.5768 57.6131 59.4011 56.3408 60.5631 55.4316C61.7251 54.5223 63.1579 54.0285 64.6329 54.0288L160.154 54.191H176.649H178.436C179.015 54.1768 179.593 54.1949 180.17 54.245C181.261 54.3808 182.3 54.7917 183.19 55.4391C183.97 55.9983 184.616 56.7239 185.081 57.5635C185.546 58.4031 185.82 59.3357 185.881 60.2938C185.933 61.1071 185.836 61.9229 185.596 62.7016C185.373 63.3813 185.042 64.0202 184.614 64.5934C183.948 65.4969 183.06 66.2129 182.036 66.6719C181.412 66.9464 180.749 67.1237 180.072 67.1977C179.585 67.2419 179.35 67.2419 179.35 67.2419Z" fill="#263238"/>
<path d="M44.7898 78.5145C44.7898 78.5882 40.1836 78.6422 34.5069 78.6422C28.8303 78.6422 24.2241 78.5882 24.2241 78.5145C24.2241 78.4408 28.8254 78.3867 34.5069 78.3867C40.1885 78.3867 44.7898 78.4555 44.7898 78.5145Z" fill="black"/>
<path d="M45.5951 84.4053H24.2241V105.79H45.5951V84.4053Z" fill="#2642CA"/>
<path d="M175.451 89.4476C175.451 89.5164 148.934 89.5753 116.21 89.5753C83.4856 89.5753 56.9634 89.5164 56.9634 89.4476C56.9634 89.3788 83.4807 89.3198 116.21 89.3198C148.939 89.3198 175.451 89.3739 175.451 89.4476Z" fill="black"/>
<path d="M89.3735 97.4959C89.3735 97.5696 82.3808 97.6237 73.7627 97.6237C65.1446 97.6237 58.147 97.5696 58.147 97.4959C58.147 97.4222 65.1348 97.3682 73.7627 97.3682C82.3907 97.3682 89.3735 97.4271 89.3735 97.4959Z" fill="black"/>
<path d="M156.516 104.965C156.516 105.033 134.492 105.092 107.332 105.092C80.1711 105.092 58.147 105.033 58.147 104.965C58.147 104.896 80.1661 104.832 107.332 104.832C134.497 104.832 156.516 104.891 156.516 104.965Z" fill="#E0E0E0"/>
<path d="M44.7898 116.841C44.7898 116.91 40.1836 116.969 34.5069 116.969C28.8303 116.969 24.2241 116.91 24.2241 116.841C24.2241 116.772 28.8254 116.713 34.5069 116.713C40.1885 116.713 44.7898 116.758 44.7898 116.841Z" fill="black"/>
<path d="M45.5951 122.708H24.2241V144.093H45.5951V122.708Z" fill="#2642CA"/>
<path d="M182.493 127.745C182.493 127.819 154.39 127.873 119.731 127.873C85.0717 127.873 56.9634 127.819 56.9634 127.745C56.9634 127.671 85.0619 127.617 119.731 127.617C154.4 127.617 182.493 127.676 182.493 127.745Z" fill="black"/>
<path d="M89.3735 135.799C89.3735 135.867 82.3808 135.926 73.7627 135.926C65.1446 135.926 58.147 135.867 58.147 135.799C58.147 135.73 65.1348 135.671 73.7627 135.671C82.3907 135.671 89.3735 135.73 89.3735 135.799Z" fill="black"/>
<path d="M173.645 143.263C173.645 143.336 147.79 143.39 115.901 143.39C84.0112 143.39 58.147 143.336 58.147 143.263C58.147 143.189 84.0013 143.135 115.901 143.135C147.8 143.135 173.645 143.194 173.645 143.263Z" fill="#E0E0E0"/>
<path d="M200.682 155.842C200.682 154.996 200.642 104.345 200.579 24.2661L200.682 24.3693H8.76526L8.89294 24.2415C8.89294 71.2071 8.89294 115.829 8.89294 155.817L8.77508 155.699L200.706 155.817L8.77508 155.93H8.65723V155.817C8.65723 115.829 8.65723 71.2071 8.65723 24.2415V24.1138H8.79963H200.716H200.819V24.217C200.726 104.345 200.682 154.996 200.682 155.842Z" fill="#263238"/>
<path d="M75.25 33.7987C75.25 33.8724 68.4733 33.9264 60.1155 33.9264C51.7576 33.9264 44.981 33.8724 44.981 33.7987C44.981 33.725 51.7576 33.6709 60.1155 33.6709C68.4733 33.6709 75.25 33.7299 75.25 33.7987Z" fill="black"/>
<path d="M47.9471 57.9849H21.0664V66.0876H47.9471V57.9849Z" fill="#455A64"/>
<path d="M95.5457 79.2069C95.5457 79.2806 87.1977 79.3346 76.8854 79.3346C66.5731 79.3346 58.2251 79.2806 58.2251 79.2069C58.2251 79.1332 66.5731 79.0791 76.8854 79.0791C87.1977 79.0791 95.5457 79.1381 95.5457 79.2069Z" fill="#2642CA"/>
<path d="M95.5457 116.841C95.5457 116.91 87.1977 116.969 76.8854 116.969C66.5731 116.969 58.2251 116.91 58.2251 116.841C58.2251 116.772 66.5731 116.713 76.8854 116.713C87.1977 116.713 95.5457 116.758 95.5457 116.841Z" fill="#2642CA"/>
<path d="M176.88 62.9178C176.262 62.9187 175.658 62.7362 175.144 62.3931C174.629 62.0501 174.228 61.5621 173.991 60.9908C173.754 60.4196 173.692 59.7908 173.812 59.1841C173.933 58.5775 174.23 58.0202 174.667 57.5828C175.104 57.1455 175.661 56.8477 176.267 56.7273C176.874 56.6069 177.502 56.6692 178.073 56.9063C178.644 57.1435 179.132 57.5448 179.474 58.0595C179.817 58.5741 180 59.179 179.999 59.7975C179.997 60.6247 179.668 61.4176 179.084 62.0024C178.499 62.5873 177.707 62.9165 176.88 62.9178ZM176.88 57.1638C176.36 57.1628 175.85 57.3164 175.417 57.6052C174.983 57.8941 174.645 58.3051 174.445 58.7862C174.245 59.2674 174.192 59.7971 174.293 60.3083C174.394 60.8196 174.645 61.2893 175.013 61.6581C175.381 62.027 175.85 62.2783 176.36 62.3803C176.871 62.4824 177.4 62.4305 177.882 62.2313C178.363 62.0321 178.774 61.6945 179.064 61.2613C179.353 60.8281 179.508 60.3187 179.508 59.7975C179.508 59.0999 179.231 58.4307 178.738 57.9369C178.246 57.4431 177.578 57.1651 176.88 57.1638Z" fill="#2642CA"/>
<path d="M180.716 64.3039C180.649 64.3038 180.586 64.2773 180.539 64.2302L178.506 62.2107C178.483 62.1878 178.465 62.1606 178.452 62.1306C178.44 62.1007 178.434 62.0686 178.434 62.0362C178.434 62.0038 178.44 61.9718 178.452 61.9418C178.465 61.9119 178.483 61.8847 178.506 61.8618C178.529 61.8389 178.556 61.8207 178.586 61.8083C178.616 61.7959 178.648 61.7896 178.68 61.7896C178.713 61.7896 178.745 61.7959 178.774 61.8083C178.804 61.8207 178.832 61.8389 178.854 61.8618L180.887 63.8814C180.92 63.9163 180.943 63.96 180.952 64.0073C180.96 64.0546 180.956 64.1034 180.937 64.148C180.919 64.1926 180.889 64.231 180.849 64.2586C180.81 64.2863 180.764 64.302 180.716 64.3039Z" fill="#2642CA"/>
<path d="M129.159 96.9456C129.159 97.0144 121.12 97.0734 111.201 97.0734C101.281 97.0734 93.2378 97.0144 93.2378 96.9456C93.2378 96.8768 101.281 96.8179 111.201 96.8179C121.12 96.8179 129.159 96.8719 129.159 96.9456Z" fill="black"/>
<path d="M152.371 96.3905C152.371 96.4642 148.163 96.5182 142.977 96.5182C137.791 96.5182 133.578 96.4642 133.578 96.3905C133.578 96.3168 137.787 96.2627 142.977 96.2627C148.168 96.2627 152.371 96.3217 152.371 96.3905Z" fill="black"/>
<path d="M128.987 135.799C128.987 135.867 120.948 135.926 111.029 135.926C101.109 135.926 93.0708 135.867 93.0708 135.799C93.0708 135.73 101.109 135.671 111.029 135.671C120.948 135.671 128.987 135.73 128.987 135.799Z" fill="black"/>
<path d="M156.131 118.931L162.166 116.542C162.166 116.542 160.163 111.463 165.394 109.288C166.395 108.85 167.507 108.737 168.575 108.963C169.644 109.189 170.615 109.744 171.354 110.55C171.984 111.215 172.448 112.02 172.709 112.899C172.97 113.778 173.02 114.707 172.855 115.609C172.498 117.705 170.927 120.301 166.578 121.194L171.885 134.665L177.854 132.302L174.69 124.309C174.69 124.309 182.229 118.829 178.578 109.584C175.09 100.739 166.057 101.939 161.936 103.571C159.347 104.596 151.811 108.302 156.131 118.931Z" fill="#F5F5F5"/>
<path d="M179.059 135.148L172.988 137.547L175.226 143.218L181.297 140.819L179.059 135.148Z" fill="#F5F5F5"/>
<path d="M153.66 119.901L159.725 117.51C159.725 117.51 157.713 112.425 162.968 110.248C163.972 109.809 165.089 109.693 166.162 109.918C167.235 110.143 168.211 110.696 168.954 111.501C169.588 112.168 170.055 112.976 170.317 113.858C170.579 114.74 170.628 115.671 170.462 116.576C170.123 118.674 168.476 121.101 164.097 121.996L169.497 135.648L175.489 133.283L172.329 125.285C172.329 125.285 179.878 119.799 176.217 110.557C172.717 101.677 163.956 102.769 160.551 104.111C157.94 105.137 149.334 109.261 153.66 119.901Z" fill="#E0E0E0"/>
<path d="M141.913 58.1114L144.096 59.2673C144.096 59.2673 145.042 57.4406 146.964 58.4162C147.338 58.5969 147.648 58.8895 147.85 59.253C148.052 59.6165 148.137 60.0329 148.092 60.4441C148.06 60.7902 147.946 61.1227 147.76 61.4145C147.574 61.7064 147.322 61.9494 147.023 62.1236C146.343 62.5414 145.245 62.6642 143.905 61.6254L141.363 66.5295L143.521 67.671L145.011 64.7986C145.011 64.7986 148.442 65.6213 150.161 62.2998C151.818 59.1135 149.335 56.8636 148.11 56.2147C147.17 55.7163 143.864 54.2555 141.913 58.1114Z" fill="#E0E0E0"/>
<path d="M176.648 136.1L170.577 138.499L172.815 144.169L178.886 141.771L176.648 136.1Z" fill="#E0E0E0"/>
<path d="M142.932 68.7057L140.748 67.561L139.68 69.601L141.864 70.7457L142.932 68.7057Z" fill="#E0E0E0"/>
<path d="M68.5364 138.692L68.6837 138.643L69.1109 138.52L70.751 138.029L76.8942 136.304L76.8353 136.407C76.521 135.351 76.1674 134.171 75.7942 132.904V132.85L75.8433 132.805C77.5447 131.379 78.9925 129.674 80.1254 127.764C80.7566 126.687 81.2389 125.53 81.5593 124.324C81.8955 123.042 81.9739 121.706 81.7901 120.393C81.3445 117.541 79.9167 114.933 77.7536 113.023C75.4151 110.979 72.4958 109.72 69.4055 109.421C67.0856 109.224 64.7575 109.691 62.6927 110.767C60.7029 111.736 58.9837 113.183 57.6888 114.978C56.4959 116.67 55.7554 118.639 55.538 120.698C55.5085 121.189 55.4348 121.681 55.4447 122.172C55.4545 122.663 55.4692 123.155 55.484 123.607C55.5619 124.529 55.7263 125.442 55.975 126.334C56.2191 127.171 56.5482 127.981 56.9571 128.752C57.3576 129.469 57.8316 130.142 58.3714 130.761C59.3563 131.866 60.518 132.799 61.8088 133.523C63.6924 134.592 65.7565 135.305 67.898 135.626H67.9323V135.655L68.4234 137.886C68.4725 138.132 68.5118 138.324 68.5364 138.461C68.5609 138.599 68.5756 138.658 68.5756 138.663C68.5523 138.606 68.5358 138.546 68.5265 138.486L68.389 137.925L67.8587 135.675L67.9029 135.714C65.7378 135.421 63.6472 134.722 61.7401 133.655C60.4313 132.931 59.2529 131.993 58.2535 130.879C57.6927 130.253 57.199 129.569 56.7804 128.84C56.353 128.059 56.0074 127.235 55.7491 126.383C55.5029 125.478 55.3385 124.552 55.2581 123.617L55.2139 122.143C55.2139 121.651 55.2777 121.16 55.3072 120.668C55.5215 118.568 56.2723 116.557 57.4875 114.831C58.8037 112.997 60.5532 111.518 62.5798 110.526C64.694 109.423 67.0793 108.948 69.4546 109.156C72.6062 109.454 75.5837 110.739 77.9647 112.826C79.087 113.814 80.0204 114.998 80.7196 116.32C80.9061 116.635 81.0702 116.964 81.2106 117.302C81.3624 117.62 81.4905 117.949 81.5937 118.285C81.6968 118.629 81.8097 118.963 81.903 119.302C81.9963 119.641 82.0258 119.995 82.0896 120.339C82.2722 121.684 82.1871 123.052 81.8392 124.364C81.5091 125.588 81.0135 126.762 80.366 127.852C79.2109 129.778 77.7382 131.494 76.0103 132.928L76.0447 132.83L77.0612 136.333L77.0857 136.412L77.0072 136.437L70.7952 138.088L69.16 138.515L68.7475 138.618L68.5364 138.692Z" fill="#E0E0E0"/>
<path d="M77.6947 138.697C76.3001 139.221 74.8751 139.659 73.4274 140.009C72.0029 140.446 70.5532 140.795 69.0864 141.056C70.4825 140.538 71.9073 140.102 73.3537 139.749C74.7786 139.312 76.2282 138.961 77.6947 138.697Z" fill="#E0E0E0"/>
<path d="M75.7746 142.716C75.336 143.027 74.832 143.232 74.3015 143.316C73.7899 143.481 73.2476 143.528 72.7153 143.453C73.2075 143.267 73.7176 143.132 74.2376 143.05C74.7377 142.888 75.2525 142.777 75.7746 142.716Z" fill="#E0E0E0"/>
<path d="M70.2894 138.235C70.2668 138.192 70.2502 138.146 70.2403 138.098C70.2108 137.99 70.1764 137.852 70.1273 137.68C70.0291 137.29 69.8916 136.755 69.7148 136.073C69.3613 134.653 68.8604 132.634 68.2417 130.143C67.9323 128.89 67.5984 127.519 67.2595 126.049C67.1872 125.686 67.0419 125.342 66.8323 125.037C66.7438 124.887 66.6041 124.774 66.439 124.719C66.2739 124.664 66.0944 124.671 65.9337 124.737C65.7812 124.84 65.6583 124.98 65.5773 125.145C65.4963 125.31 65.46 125.493 65.4721 125.676C65.4838 126.07 65.6393 126.446 65.9091 126.732C66.1993 127.032 66.5577 127.257 66.9536 127.388C67.3495 127.519 67.7713 127.552 68.1827 127.484C68.6143 127.419 69.0226 127.246 69.3708 126.983C69.7189 126.72 69.9959 126.373 70.1764 125.976C70.5776 125.148 70.6783 124.206 70.4613 123.312C70.3776 122.86 70.1643 122.442 69.8474 122.109C69.6961 121.957 69.4996 121.86 69.2878 121.83C69.076 121.801 68.8604 121.842 68.6738 121.946C68.5131 122.091 68.4044 122.284 68.3644 122.496C68.3245 122.708 68.3555 122.928 68.4528 123.121C68.6683 123.521 68.9827 123.86 69.3662 124.104C70.09 124.679 70.9615 125.038 71.8804 125.14C72.3184 125.18 72.7594 125.114 73.167 124.949C73.5517 124.77 73.8884 124.502 74.1491 124.167C74.412 123.842 74.5695 123.445 74.6009 123.027C74.6172 122.827 74.5925 122.626 74.5283 122.436C74.4641 122.246 74.3618 122.071 74.2277 121.922C74.1126 121.778 73.9595 121.67 73.7859 121.609C73.6123 121.548 73.425 121.537 73.2456 121.578C73.0702 121.642 72.9118 121.745 72.7824 121.879C72.653 122.014 72.5561 122.176 72.4992 122.354C72.2585 123.077 72.4697 123.882 72.5581 124.624C72.7938 126.099 73.0492 127.504 73.3094 128.767C73.8005 131.283 74.2277 133.322 74.5174 134.752C74.6549 135.444 74.7679 135.99 74.8464 136.378C74.8759 136.555 74.9054 136.693 74.925 136.806C74.9298 136.855 74.9298 136.904 74.925 136.953C74.9048 136.907 74.89 136.86 74.8808 136.811C74.8514 136.702 74.817 136.565 74.7728 136.393C74.6795 136.005 74.5567 135.464 74.3947 134.776C74.0755 133.371 73.6188 131.337 73.1032 128.806C72.8478 127.543 72.5679 126.158 72.3175 124.659C72.2635 124.28 72.1996 123.902 72.1603 123.504C72.103 123.092 72.1365 122.673 72.2585 122.276C72.328 122.063 72.445 121.868 72.6007 121.707C72.7564 121.547 72.9467 121.423 73.1572 121.347C73.3846 121.289 73.6238 121.296 73.8471 121.368C74.0705 121.44 74.2688 121.574 74.4192 121.755C74.5739 121.929 74.6922 122.132 74.7673 122.352C74.8423 122.572 74.8726 122.805 74.8563 123.037C74.8286 123.507 74.6571 123.956 74.3652 124.325C74.073 124.699 73.6936 124.996 73.2603 125.19C72.814 125.371 72.3312 125.445 71.851 125.406C70.8831 125.298 69.9646 124.922 69.1992 124.32C68.7784 124.042 68.4393 123.657 68.2171 123.204C68.0759 122.961 68.0301 122.675 68.0889 122.4C68.1476 122.125 68.3066 121.882 68.5348 121.718C68.763 121.554 69.044 121.481 69.323 121.513C69.602 121.546 69.859 121.681 70.0439 121.892C70.3961 122.263 70.6347 122.727 70.7313 123.229C70.9621 124.184 70.8527 125.19 70.422 126.074C70.2202 126.507 69.9148 126.884 69.5328 127.171C69.1508 127.458 68.704 127.647 68.2318 127.72C67.7787 127.793 67.3146 127.754 66.8798 127.607C66.4451 127.46 66.0529 127.208 65.7373 126.875C65.4276 126.542 65.2525 126.106 65.2462 125.651C65.2332 125.424 65.2821 125.198 65.3876 124.996C65.4931 124.794 65.6513 124.625 65.8453 124.506C65.9503 124.456 66.0643 124.427 66.1807 124.421C66.297 124.415 66.4134 124.433 66.523 124.472C66.7221 124.556 66.8926 124.696 67.014 124.875C67.2379 125.209 67.3962 125.583 67.4805 125.976C67.8292 127.45 68.1533 128.826 68.4626 130.084L69.8376 136.024C69.9898 136.712 70.1126 137.253 70.201 137.646C70.2354 137.818 70.2648 137.955 70.2894 138.068C70.2998 138.124 70.2998 138.18 70.2894 138.235Z" fill="#E0E0E0"/>
<path d="M77.3553 140.535C76.2386 140.984 75.0895 141.347 73.9179 141.621C72.764 141.981 71.5857 142.257 70.3921 142.447C71.5088 141.998 72.6579 141.635 73.8295 141.361C74.9836 141.002 76.1619 140.726 77.3553 140.535Z" fill="#E0E0E0"/>
<g clip-path="url(#clip0_61_3951)">
<path d="M103.251 48.4122L103.192 75.0742L114.629 75.6197L114.963 69.1335C114.963 69.1335 119.024 69.9394 120.07 66.1853C120.742 63.7726 120.561 45.1348 120.561 45.1348L103.251 48.4122Z" fill="#B78876"/>
<path d="M122.054 47.0071C120.251 47.523 119.858 50.4467 119.858 50.4467L117.035 56.6921C115.596 55.5668 113.661 55.6307 113.298 58.1662C113.033 59.9941 115.306 60.3626 115.306 60.3626C113.98 62.618 113.087 64.441 111.157 66.5834C109.085 68.9175 107.906 69.1484 105.647 69.1779H103.153C103.153 69.1779 101.93 65.2125 99.671 55.3015C97.1666 44.3045 110.16 45.7197 112.571 42.9139C116.495 38.349 127.745 45.3806 122.054 47.0071Z" fill="#263238"/>
<path d="M125.226 44.6089C125.126 44.0224 124.821 43.4908 124.364 43.1097C123.908 42.7286 123.33 42.5232 122.736 42.5304C122.922 42.217 122.991 41.8481 122.932 41.4885C122.873 41.129 122.688 40.8019 122.412 40.5649C122.125 40.3392 121.792 40.1784 121.437 40.0936C121.082 40.0088 120.712 40.0019 120.354 40.0735C119.638 40.2186 118.947 40.4668 118.302 40.8106C118.061 40.0979 117.595 39.4825 116.976 39.0564C116.309 38.6653 115.543 38.4759 114.771 38.511C111.26 38.511 109.413 40.9138 107.528 43.3657C107.253 43.8226 106.859 44.1962 106.389 44.4468C106.046 44.5475 105.689 44.5874 105.333 44.5647C103.991 44.6072 102.685 45.003 101.545 45.7122C100.405 46.4213 99.4725 47.4188 98.841 48.6038C97.6133 50.9771 96.695 56.4658 99.8771 59.9054L101.792 64.1853L120.124 49.6504C120.256 49.7192 121.405 50.2794 122.289 49.8175C124.484 48.6578 123.561 46.7317 123.561 46.7317C123.738 46.6088 125.412 45.7882 125.226 44.6089Z" fill="#263238"/>
<path d="M108.26 58.9131C108.413 59.5822 108.391 60.2795 108.196 60.9375C108.093 61.6169 107.813 62.2573 107.386 62.7949C107.307 62.7556 107.676 61.94 107.911 60.8737C108.147 59.8074 108.176 58.9131 108.26 58.9131Z" fill="#455A64"/>
<path d="M109.645 57.6011C109.741 58.2569 109.704 58.9253 109.537 59.5666C109.464 60.2203 109.258 60.8523 108.933 61.424C108.981 60.7784 109.088 60.1387 109.252 59.5125C109.322 58.8644 109.454 58.2244 109.645 57.6011Z" fill="#455A64"/>
<path d="M113.602 53.1982C113.632 53.2376 113.308 53.4734 112.895 53.955C112.369 54.5928 111.953 55.3134 111.662 56.0875C111.381 56.8704 111.153 57.6715 110.98 58.4854C110.931 58.8248 110.836 59.1556 110.695 59.4682C110.674 59.1171 110.702 58.7649 110.779 58.4216C110.895 57.583 111.101 56.7594 111.392 55.9647C111.691 55.1586 112.153 54.4227 112.748 53.8026C112.981 53.5362 113.273 53.329 113.602 53.1982Z" fill="#455A64"/>
<path d="M115.203 50.2056C115.238 50.2056 115.356 50.4611 115.429 50.923C115.512 51.5316 115.477 52.1506 115.326 52.746C115.182 53.3425 114.92 53.904 114.555 54.397C114.275 54.7754 114.064 54.9572 114.02 54.9326C113.976 54.908 114.722 54.0137 115.046 52.6772C115.37 51.3406 115.115 50.2154 115.203 50.2056Z" fill="#455A64"/>
<path d="M101.557 56.8638C101.517 56.9375 101.169 56.8147 100.776 56.5936C100.383 56.3725 100.093 56.1415 100.132 56.0678C100.172 55.9941 100.52 56.1219 100.913 56.343C101.306 56.5641 101.596 56.795 101.557 56.8638Z" fill="#455A64"/>
<path d="M107.081 54.0186C107.126 54.4325 107.01 54.8477 106.757 55.1783C106.404 55.763 105.927 56.0677 105.878 56.0087C105.829 55.9497 106.187 55.5665 106.507 55.026C106.826 54.4854 106.998 53.999 107.081 54.0186Z" fill="#455A64"/>
<path d="M108.78 53.105C108.774 53.6085 108.601 54.0959 108.289 54.4907C107.832 55.1884 107.258 55.5619 107.213 55.4734C107.169 55.385 107.621 54.982 108.048 54.3088C108.269 53.8937 108.513 53.4917 108.78 53.105Z" fill="#455A64"/>
<path d="M117.227 41.9311C117.227 41.9311 117.01 41.7689 116.598 41.5331C116.007 41.2198 115.351 41.0513 114.683 41.0417C113.692 41.0154 112.715 41.2765 111.869 41.7935C110.853 42.4612 110.029 43.3826 109.478 44.4666C109.055 45.2598 108.726 46.0991 108.495 46.9677L108.446 47.1347L108.294 47.0512C107.507 46.6389 106.634 46.4151 105.745 46.3977C105.04 46.3816 104.337 46.488 103.668 46.7121C103.073 46.9331 102.503 47.2182 101.969 47.5622C102.079 47.4308 102.208 47.3165 102.352 47.2232C102.738 46.9418 103.161 46.7153 103.609 46.55C104.291 46.2901 105.016 46.1585 105.745 46.1618C106.678 46.1595 107.597 46.3802 108.427 46.8055L108.225 46.894C108.452 46.0038 108.782 45.143 109.207 44.329C109.782 43.2006 110.649 42.247 111.717 41.5674C112.605 41.0378 113.63 40.7831 114.663 40.8353C115.359 40.8651 116.035 41.0733 116.627 41.4397C116.785 41.5397 116.932 41.6567 117.064 41.7886C117.187 41.877 117.231 41.9262 117.227 41.9311Z" fill="#455A64"/>
<path d="M123.242 43.3854C123.217 43.3854 123.556 43.2969 123.895 43.6802C123.993 43.7946 124.067 43.9275 124.112 44.071C124.158 44.2145 124.174 44.3656 124.16 44.5155C124.131 44.7154 124.055 44.9056 123.939 45.071C123.823 45.2365 123.67 45.3727 123.492 45.4688C123.071 45.7082 122.573 45.7768 122.103 45.6604C121.585 45.5241 121.1 45.287 120.674 44.9627C120.227 44.6058 119.758 44.2776 119.269 43.9799C118.741 43.694 118.171 43.4934 117.58 43.3854C116.432 43.1786 115.251 43.2596 114.143 43.6212C113.232 43.9215 112.373 44.3589 111.594 44.9185C110.258 45.8766 109.6 46.6825 109.556 46.6383C109.688 46.4345 109.841 46.2451 110.013 46.0732C110.462 45.5884 110.956 45.146 111.486 44.7514C112.269 44.1538 113.143 43.6859 114.074 43.3657C115.227 42.9745 116.461 42.8832 117.659 43.1004C118.279 43.2146 118.878 43.4269 119.431 43.7293C119.925 44.0258 120.399 44.3541 120.851 44.7121C121.246 45.023 121.698 45.2534 122.181 45.3902C122.596 45.5042 123.038 45.4568 123.419 45.2575C123.573 45.1789 123.707 45.0664 123.812 44.9286C123.916 44.7908 123.988 44.6311 124.023 44.4615C124.058 44.1986 123.989 43.9324 123.831 43.7195C123.681 43.5417 123.472 43.4233 123.242 43.3854Z" fill="#455A64"/>
<path d="M176.522 63.8514C176.09 63.4681 170.266 65.9102 170.266 65.9102C170.266 65.9102 165.92 69.3498 164.132 71.3399L163.028 72.2588L146.498 85.1181L126.169 76.6566L121.749 88.0024C121.749 88.0024 144.574 97.0978 148.05 95.5401C151.827 93.8498 165.895 79.1135 165.93 79.0643L167.963 77.0988C167.963 77.0988 169.038 77.0988 169.853 77.03C170.669 76.9612 173.055 75.3938 173.055 75.3938C173.282 74.9576 173.437 74.4882 173.517 74.0032C173.567 73.81 173.55 73.6056 173.47 73.4229C173.39 73.2402 173.251 73.0898 173.075 72.9958C173.158 72.6182 173.171 72.2285 173.114 71.846C173.021 71.1974 172.132 70.4456 172.132 70.4456C172.409 70.1631 172.598 69.8065 172.677 69.4186C172.873 68.6668 171.906 67.9445 171.906 67.9445C171.906 67.9445 175.289 65.6449 176.109 65.237C176.93 64.8292 176.954 64.2346 176.522 63.8514Z" fill="#B78876"/>
<path d="M129.159 180.076C129.228 179.329 129.262 178.754 129.262 178.396L131.56 141.724C131.56 141.724 129.631 131.013 128.717 128.172L120.512 124.993L109.576 129.253C109.507 128.374 109.463 127.828 109.463 127.828L93.3706 133.401C93.3706 133.401 92.9532 144.393 93.3706 147.739C93.5081 148.815 93.9255 151.591 94.4362 154.864C94.4362 154.864 94.9567 161.974 95.0647 162.372C95.4527 163.822 95.5558 167.374 95.5558 170.932C95.5558 175.452 95.8013 180.833 96.0861 183.388C96.371 185.943 96.5035 214.07 96.5035 214.07H108.387L109.914 169.276C110.17 164.475 110.553 157.134 110.798 151.822L113.588 168.362C113.588 168.966 115.287 178.425 115.287 178.425C114.894 181.402 114.652 184.397 114.56 187.398C114.363 195.751 113.386 214.07 113.386 214.07H125.015C125.015 214.07 128.511 187.594 129.189 180.076H129.159Z" fill="#263238"/>
<path d="M131.182 139.528C130.8 139.384 130.439 139.19 130.107 138.953C129.282 138.424 128.512 137.813 127.809 137.13C127.105 136.449 126.47 135.7 125.913 134.894C125.662 134.573 125.459 134.217 125.309 133.838C125.578 134.137 125.828 134.454 126.055 134.786C126.648 135.553 127.292 136.277 127.985 136.953C128.679 137.623 129.419 138.242 130.2 138.806C130.544 139.023 130.872 139.264 131.182 139.528Z" fill="#455A64"/>
<path d="M110.42 146.191C110.327 146.082 110.251 145.959 110.194 145.827C110.012 145.483 109.848 145.128 109.703 144.766C109.206 143.573 108.842 142.329 108.618 141.056C108.399 139.783 108.32 138.489 108.382 137.199C108.412 136.708 108.451 136.31 108.495 136.034C108.504 135.889 108.535 135.747 108.588 135.612C108.628 135.612 108.588 136.226 108.564 137.204C108.549 138.48 108.651 139.755 108.868 141.012C109.085 142.269 109.414 143.504 109.85 144.702C110.199 145.621 110.454 146.171 110.42 146.191Z" fill="#455A64"/>
<path d="M112.149 159.998C112.076 159.791 112.025 159.577 111.997 159.36C111.912 158.894 111.804 158.31 111.673 157.605C111.417 156.067 111.074 154.043 110.691 151.802C110.032 147.689 109.586 144.889 109.379 143.586C109.646 144.356 109.834 145.152 109.939 145.96C110.224 147.434 110.578 149.493 110.951 151.758C111.324 154.023 111.633 156.087 111.849 157.576C111.943 158.283 112.026 158.873 112.09 159.345C112.134 159.56 112.154 159.779 112.149 159.998Z" fill="#455A64"/>
<path d="M84.1044 98.832C84.1044 98.832 82.5379 109.883 82.2432 113.755C82.0665 116.089 84.4334 119.16 86.2405 119.411C88.0476 119.661 94.1367 120 94.1367 120L94.6278 113.067L94.4707 111.686L92.5801 111.333L93.1497 100.336L84.1044 98.832Z" fill="#B78876"/>
<path d="M92.9142 100.709C92.9629 100.906 92.9876 101.107 92.9879 101.309C93.0174 101.697 93.037 102.257 93.0517 102.955C93.0861 104.341 93.0517 106.262 92.9339 108.36C92.816 110.458 92.6441 112.389 92.5116 113.765C92.4379 114.453 92.379 115.013 92.3299 115.397C92.3188 115.598 92.2842 115.798 92.2267 115.991C92.2044 115.79 92.2044 115.588 92.2267 115.387C92.2513 114.945 92.2857 114.404 92.325 113.746C92.4183 112.306 92.5361 110.424 92.6687 108.341C92.8013 106.257 92.8504 104.321 92.8651 102.935C92.8651 102.287 92.8651 101.736 92.8651 101.294C92.861 101.098 92.8775 100.902 92.9142 100.709Z" fill="#AA6550"/>
<g opacity="0.3">
<path d="M93.5132 133.602C96.6069 134.752 99.9952 134.845 103.28 134.56C106.566 134.275 109.816 133.612 113.102 133.302C118.08 132.837 123.102 133.168 127.976 134.285C128.316 134.388 128.673 134.422 129.027 134.383C129.202 134.361 129.367 134.286 129.499 134.169C129.631 134.051 129.725 133.897 129.768 133.725C129.857 133.175 129.253 132.791 128.742 132.58C123.121 130.254 117.079 129.123 110.998 129.258C104.918 129.394 98.9315 130.793 93.4199 133.366" fill="black"/>
</g>
<path d="M140.881 81.6784L123.438 72.9909C120.688 72.6679 117.917 72.5464 115.149 72.6272H103.604C103.604 72.6272 89.6188 76.7548 87.3059 80.5629L81.3101 98.5473L93.1643 100.336L94.6375 113.259C94.6375 113.259 93.1643 128.221 93.1643 130.393C93.1321 131.399 93.193 132.406 93.346 133.4C93.346 133.4 117.064 129.794 122.903 131.695C128.742 133.597 130.318 133.4 130.318 133.4C130.318 133.4 129.827 127.19 129.4 123.573L128.054 105.54L127.072 91.781L138.047 95.142L140.881 81.6784Z" fill="#2642CA"/>
<path d="M93.0564 100.478C93.0122 100.478 92.8943 99.7363 92.6341 98.5374C92.2874 96.9779 91.8279 95.4457 91.2591 93.9529C90.6783 92.4488 89.9992 90.9846 89.2261 89.5698L88.5092 88.2824C88.4077 88.1299 88.3268 87.9647 88.2686 87.791C88.3968 87.923 88.5089 88.0698 88.6025 88.2283C88.8038 88.5182 89.0935 88.9457 89.3931 89.4863C90.2221 90.8833 90.9318 92.3479 91.5145 93.8644C92.0889 95.368 92.5261 96.9205 92.8207 98.503C92.9287 99.1074 92.9975 99.5987 93.0318 99.9427C93.0621 100.12 93.0704 100.299 93.0564 100.478Z" fill="#263238"/>
<path d="M115.424 105.583C115.415 105.666 115.393 105.748 115.36 105.824L115.139 106.488C115.041 106.778 114.918 107.126 114.756 107.529C114.594 107.932 114.422 108.394 114.196 108.886C113.769 109.868 113.214 111.057 112.517 112.325C111.82 113.593 110.995 114.939 110.062 116.305C109.129 117.671 108.097 118.905 107.169 119.996C106.241 121.086 105.313 122.005 104.518 122.752C104.13 123.135 103.752 123.455 103.432 123.735C103.113 124.015 102.823 124.266 102.588 124.457L102.038 124.89C101.976 124.944 101.908 124.992 101.836 125.032C101.836 125.032 101.89 124.963 102.008 124.85L102.524 124.359C102.75 124.162 103.015 123.912 103.339 123.612C103.663 123.312 104.017 122.988 104.395 122.6C105.171 121.843 106.055 120.9 106.993 119.819C107.93 118.738 108.903 117.49 109.855 116.138C110.808 114.787 111.623 113.436 112.311 112.207C112.998 110.979 113.583 109.799 114.029 108.812C114.265 108.32 114.447 107.863 114.619 107.47C114.791 107.077 114.933 106.733 115.046 106.448C115.159 106.163 115.237 105.957 115.311 105.8C115.34 105.723 115.378 105.651 115.424 105.583Z" fill="#263238"/>
<path d="M123.482 74.1802C123.024 74.8367 122.71 75.584 122.564 76.3717C122.417 77.2253 122.417 78.0978 122.564 78.9514C122.755 80.0022 123 81.042 123.301 82.0667C123.905 84.2681 124.538 86.2287 125.024 87.6438C125.255 88.3121 125.447 88.8723 125.604 89.3194C125.685 89.5212 125.748 89.7301 125.79 89.9435C125.676 89.757 125.58 89.5595 125.506 89.3538C125.344 88.9706 125.113 88.4104 124.848 87.7077C124.317 86.3073 123.649 84.3418 123.045 82.1355C122.752 81.1065 122.517 80.0614 122.343 79.0055C122.199 78.1273 122.212 77.2305 122.382 76.357C122.503 75.7675 122.733 75.2058 123.06 74.701C123.168 74.5032 123.311 74.3266 123.482 74.1802Z" fill="#263238"/>
<path d="M90.5718 93.1127C90.3131 93.3924 89.994 93.6092 89.6388 93.7466C88.8043 94.1298 87.876 94.26 86.9684 94.1212C86.0608 93.9823 85.2137 93.5805 84.5318 92.9653C84.2346 92.7299 83.9959 92.4288 83.8345 92.0857C83.8688 92.0562 84.1242 92.4051 84.6496 92.8277C85.3332 93.3806 86.1514 93.7417 87.0204 93.8738C87.8893 94.0059 88.7778 93.9043 89.5946 93.5795C90.1986 93.3338 90.5473 93.0783 90.5718 93.1127Z" fill="white"/>
<path d="M123.998 85C123.964 85.1307 123.916 85.2575 123.856 85.3784C123.748 85.624 123.581 85.9778 123.34 86.4201C122.649 87.6743 121.775 88.8186 120.747 89.8155C119.211 91.3075 117.295 92.3493 115.208 92.8276C113.978 93.1098 112.707 93.1647 111.457 92.9898C110.119 92.7768 108.832 92.3187 107.661 91.6385C105.25 90.2921 103.212 88.587 100.982 87.7714C99.0103 87.0419 96.8644 86.9238 94.8244 87.4323C93.4475 87.7629 92.1482 88.3587 90.999 89.1865C90.1937 89.7811 89.8155 90.1987 89.7959 90.1693C90.1397 89.7755 90.5231 89.4181 90.9401 89.103C92.3656 88.022 94.0379 87.3134 95.8058 87.0415C97.5737 86.7695 99.3815 86.9427 101.066 87.5453C103.349 88.3708 105.402 90.0808 107.783 91.4075C108.927 92.0814 110.183 92.541 111.491 92.7637C112.713 92.9357 113.955 92.8858 115.159 92.6163C117.209 92.1566 119.096 91.1497 120.62 89.7025C121.651 88.7304 122.538 87.615 123.252 86.3906C123.502 85.9582 123.689 85.6093 123.807 85.3734C123.861 85.2441 123.925 85.1193 123.998 85Z" fill="white"/>
<path d="M134.919 78.6958C135.017 78.8764 135.092 79.0677 135.145 79.2658C135.307 79.7974 135.403 80.347 135.43 80.9021C135.525 82.7632 134.937 84.5949 133.775 86.0517C133.101 86.7992 132.368 87.4925 131.585 88.1253C130.971 88.6412 130.469 89.2786 130.112 89.9974C129.871 90.4816 129.757 91.0196 129.783 91.56C129.812 91.9433 129.896 92.1496 129.871 92.1546C129.847 92.1595 129.837 92.1103 129.798 92.0121C129.742 91.8698 129.704 91.7213 129.685 91.5698C129.617 91.0076 129.708 90.4377 129.945 89.9237C130.29 89.1709 130.793 88.5007 131.418 87.9582C132.18 87.3225 132.897 86.6346 133.564 85.8994C134.685 84.4845 135.278 82.7222 135.239 80.9168C135.201 80.1682 135.094 79.4247 134.919 78.6958Z" fill="white"/>
<path d="M106.551 120.123C106.396 120.206 106.231 120.267 106.06 120.305C105.586 120.441 105.104 120.543 104.616 120.61C103.881 120.732 103.127 120.688 102.411 120.482C101.986 120.347 101.593 120.126 101.257 119.834C100.919 119.512 100.604 119.167 100.314 118.802C100.03 118.453 99.6997 118.146 99.3321 117.888C98.9823 117.659 98.6043 117.478 98.2076 117.347C97.5279 117.13 96.8095 117.061 96.1009 117.146C95.6207 117.199 95.1526 117.332 94.7162 117.539C94.5587 117.627 94.3945 117.703 94.2251 117.765C94.3537 117.636 94.5031 117.53 94.667 117.45C95.1016 117.199 95.5798 117.032 96.0764 116.959C96.8117 116.841 97.5643 116.893 98.2764 117.111C98.6985 117.241 99.1002 117.43 99.4696 117.672C99.862 117.936 100.213 118.257 100.511 118.625C100.793 118.98 101.098 119.317 101.424 119.632C101.736 119.906 102.098 120.116 102.49 120.251C103.174 120.454 103.893 120.512 104.601 120.423C105.794 120.281 106.541 120.079 106.551 120.123Z" fill="white"/>
<path d="M129.134 119.077C129.088 119.128 129.035 119.172 128.977 119.21C128.82 119.327 128.656 119.436 128.486 119.534C127.876 119.907 127.214 120.186 126.522 120.364C125.482 120.632 124.399 120.695 123.335 120.551C122.022 120.373 120.775 119.866 119.711 119.077C118.699 118.26 117.732 117.389 116.814 116.468C116.062 115.737 115.192 115.139 114.241 114.699C113.602 114.403 112.907 114.248 112.203 114.247C111.712 114.247 111.427 114.33 111.422 114.301C111.484 114.271 111.55 114.25 111.618 114.237C111.808 114.186 112.002 114.154 112.198 114.144C112.924 114.111 113.647 114.244 114.314 114.532C115.297 114.959 116.196 115.556 116.971 116.296C117.87 117.092 118.763 118.06 119.863 118.871C120.894 119.629 122.097 120.119 123.364 120.296C124.401 120.446 125.456 120.404 126.478 120.173C127.161 120.01 127.822 119.761 128.442 119.431C128.665 119.299 128.897 119.181 129.134 119.077Z" fill="white"/>
</g>
<path d="M170.875 49.0614C167.308 47.3542 164.195 44.8282 161.789 41.6891C159.382 38.5499 157.751 34.8865 157.028 30.9971C156.304 27.1077 156.509 23.1023 157.626 19.3071C158.743 15.512 160.739 12.0344 163.453 9.15767C166.167 6.28091 169.522 4.08632 173.244 2.75262C176.967 1.41893 180.951 0.983848 184.873 1.48282C188.795 1.9818 192.544 3.40071 195.814 5.62401C199.085 7.8473 201.784 10.8121 203.692 14.2769C206.262 18.9364 207.287 24.2925 206.617 29.5723C205.948 34.8521 203.62 39.7826 199.969 43.6526C196.318 47.5226 191.532 50.1319 186.303 51.104C181.074 52.0761 175.671 51.3609 170.875 49.0614ZM191.804 5.2602C186.766 2.85407 181.036 2.32792 175.645 3.7766C170.254 5.22527 165.557 8.55347 162.402 13.1611C159.247 17.7688 157.841 23.3527 158.438 28.9063C159.034 34.4598 161.593 39.6174 165.654 43.4493C169.715 47.2812 175.011 49.5352 180.587 49.805C186.162 50.0748 191.65 48.3425 196.062 44.9206C200.474 41.4987 203.518 36.6122 204.647 31.1422C205.776 25.6721 204.915 19.9785 202.219 15.0877C199.858 10.8039 196.216 7.36733 191.804 5.2602Z" fill="#263238"/>
<path d="M213.244 76.5485C212.539 76.9822 211.691 77.1186 210.885 76.928C210.08 76.7374 209.383 76.2351 208.947 75.5313L192.531 48.9037C192.456 48.7832 192.432 48.6378 192.464 48.4996C192.496 48.3614 192.582 48.2417 192.703 48.1667L196.204 46.0046C196.323 45.9317 196.466 45.9078 196.602 45.9381C196.739 45.9683 196.858 46.0503 196.935 46.1668L214.201 72.1261C214.439 72.4762 214.602 72.8709 214.683 73.2863C214.763 73.7017 214.759 74.129 214.669 74.5425C214.58 74.956 214.407 75.3471 214.162 75.6919C213.917 76.0367 213.605 76.3281 213.244 76.5485Z" fill="#263238"/>
<path d="M171.478 47.7933C167.91 46.0871 164.794 43.5613 162.386 40.4218C159.977 37.2823 158.344 33.6178 157.62 29.7271C156.895 25.8363 157.099 21.8292 158.216 18.0324C159.332 14.2356 161.329 10.7564 164.044 7.87828C166.759 5.00018 170.115 2.80462 173.839 1.47048C177.563 0.136345 181.549 -0.298627 185.472 0.201009C189.396 0.700644 193.146 2.12075 196.417 4.34562C199.688 6.57049 202.388 9.53719 204.296 13.004C206.864 17.6638 207.887 23.0194 207.218 28.2985C206.548 33.5777 204.22 38.5076 200.569 42.3774C196.919 46.2472 192.135 48.857 186.906 49.8303C181.678 50.8037 176.276 50.0904 171.478 47.7933ZM192.407 3.99217C187.37 1.58604 181.639 1.05988 176.248 2.50856C170.857 3.95724 166.161 7.28544 163.006 11.8931C159.851 16.5008 158.445 22.0847 159.041 27.6382C159.638 33.1917 162.197 38.3494 166.258 42.1813C170.319 46.0132 175.615 48.2672 181.19 48.537C186.766 48.8067 192.254 47.0745 196.666 43.6526C201.077 40.2306 204.122 35.3441 205.251 29.8741C206.38 24.4041 205.519 18.7104 202.823 13.8197C200.462 9.53588 196.82 6.0993 192.407 3.99217Z" fill="#455A64"/>
<path d="M192.853 47.1468L197.254 44.4303L214.711 72.7467C215.053 73.3013 215.161 73.9691 215.011 74.6031C214.86 75.2372 214.465 75.7856 213.911 76.1277L213.656 76.2851C213.101 76.6272 212.434 76.7349 211.8 76.5847C211.167 76.4345 210.619 76.0385 210.277 75.484L192.82 47.1675L192.853 47.1468Z" fill="#455A64"/>
<path d="M163.563 19.1657C163.586 18.9034 163.632 18.6437 163.7 18.3894C163.759 18.0867 163.836 17.788 163.931 17.4951C164.042 17.1005 164.174 16.7118 164.324 16.3305L164.575 15.6671C164.668 15.4362 164.791 15.2102 164.904 14.9645C165.125 14.4731 165.424 13.9817 165.724 13.4658C166.42 12.3592 167.227 11.3254 168.13 10.38C169.05 9.45316 170.06 8.62027 171.145 7.8936C171.621 7.58246 172.113 7.29546 172.618 7.03369C172.854 6.91085 173.08 6.78309 173.306 6.6799L173.964 6.39982C174.339 6.23845 174.722 6.09739 175.113 5.97724C175.403 5.87262 175.7 5.78726 176.002 5.72172C176.254 5.64992 176.512 5.59574 176.773 5.55957C176.53 5.66187 176.281 5.74565 176.026 5.81017C175.731 5.89156 175.441 5.99 175.157 6.105C174.774 6.23568 174.399 6.38658 174.032 6.55706L173.389 6.84697C173.163 6.95016 172.942 7.08283 172.711 7.20567C172.22 7.44645 171.769 7.76093 171.263 8.07541C170.204 8.79757 169.217 9.62035 168.316 10.5323C167.425 11.4645 166.624 12.4797 165.925 13.5641C165.625 14.0554 165.321 14.5468 165.095 15.0382C164.982 15.274 164.854 15.4952 164.756 15.7212L164.481 16.3747C164.295 16.7826 164.182 17.1757 164.059 17.5147C163.954 17.8025 163.865 18.0962 163.794 18.3943C163.738 18.6572 163.66 18.9152 163.563 19.1657Z" fill="#E0E0E0"/>
<path d="M68.5585 69.0569C78.6719 67.7695 85.8274 58.5221 84.5408 48.4022C83.2542 38.2824 74.0127 31.1223 63.8993 32.4097C53.7859 33.6971 46.6304 42.9445 47.917 53.0644C49.2036 63.1842 58.4451 70.3443 68.5585 69.0569Z" fill="white"/>
<path d="M47.9571 50.6094C47.9571 50.6094 47.9571 50.5079 47.9571 50.3099C47.9571 50.1119 47.9571 49.8022 47.9925 49.4417L48.0177 48.7969C48.0177 48.5634 48.0834 48.2892 48.1238 48.0303C48.1642 47.7714 48.2046 47.4516 48.2551 47.1317C48.3102 46.7889 48.3861 46.4498 48.4823 46.1163C48.8947 44.3905 49.5674 42.7382 50.4772 41.2171C51.6677 39.1894 53.2368 37.412 55.0981 35.9828L55.8859 35.3887C56.1637 35.206 56.4566 35.0384 56.7444 34.8811C57.0323 34.7237 57.3202 34.5054 57.6383 34.3734L58.5827 33.9164L59.0877 33.6829L59.5928 33.495L60.6028 33.1143C60.9513 32.9975 61.3199 32.9214 61.6785 32.8198C62.0422 32.7149 62.4115 32.6301 62.7845 32.566C63.5485 32.4228 64.3212 32.3313 65.0975 32.2918C65.4964 32.2918 65.8903 32.236 66.2943 32.241L67.5064 32.302C67.7084 32.302 67.9104 32.302 68.1175 32.3426L68.7285 32.434C69.1326 32.5 69.5467 32.5507 69.9608 32.632C70.7878 32.8199 71.6024 33.0589 72.4 33.3478C73.2201 33.6427 74.0183 33.9956 74.7888 34.4038C75.1776 34.612 75.5513 34.8557 75.9301 35.0841C76.122 35.206 76.319 35.3075 76.5008 35.4446L77.0361 35.8507C77.7687 36.3934 78.4639 36.9853 79.1168 37.6226L80.0511 38.638L80.2834 38.8969L80.4955 39.1761L80.9146 39.7397L81.3338 40.3032L81.7075 40.9125L82.0762 41.5217L82.258 41.8263L82.4145 42.1462C82.6216 42.5777 82.8287 43.0143 83.0408 43.4458C83.2529 43.8774 83.369 44.3546 83.5458 44.8115C84.8116 48.5807 84.8116 52.6635 83.5458 56.4327C83.3791 56.8896 83.2175 57.3465 83.0408 57.7984L82.4196 59.0981L82.263 59.4179L82.0762 59.7225L81.7075 60.3368L81.3389 60.941L80.9146 61.5045L80.4955 62.0731L80.2834 62.3524L80.0511 62.6113L79.1168 63.6267C78.4632 64.2612 77.7699 64.8531 77.0411 65.3985L76.5008 65.8047C76.319 65.9367 76.122 66.0433 75.9351 66.1601C75.5513 66.3885 75.1776 66.6373 74.7938 66.8455C74.0201 67.2491 73.2204 67.6002 72.4 67.8964C71.6024 68.1906 70.7857 68.4298 69.9557 68.6122C69.5467 68.6985 69.1325 68.7442 68.7235 68.8102L68.1175 68.9067C67.9104 68.9321 67.7084 68.9321 67.5013 68.9422L66.2943 69.0032C65.8903 69.0032 65.4914 68.9676 65.0975 68.9575C64.3211 68.9166 63.5484 68.8234 62.7845 68.6782C62.4109 68.6171 62.0415 68.5323 61.6785 68.4244C61.3149 68.3228 60.9513 68.2467 60.6028 68.1299L59.5928 67.7492L59.0877 67.5664L58.5827 67.3328L57.6333 66.8708C57.3202 66.7236 57.0374 66.5205 56.7444 66.3632C56.4515 66.2058 56.1637 66.0179 55.8859 65.8301L55.0981 65.2361C53.2341 63.8082 51.6631 62.0307 50.4721 60.0017C49.5642 58.4802 48.8932 56.8281 48.4823 55.1025C48.3855 54.7692 48.3096 54.43 48.2551 54.0871C48.2046 53.7673 48.1642 53.4677 48.1238 53.1936C48.0834 52.9194 48.0379 52.6859 48.0177 52.4219C47.9975 52.1579 48.0177 51.9751 47.9925 51.7822C47.9925 51.4014 47.9672 51.112 47.9571 50.9089C47.947 50.7059 47.9571 50.6145 47.9571 50.6145C47.9571 50.6145 47.9571 50.716 47.9824 50.9089C48.0076 51.1019 48.0177 51.4166 48.0379 51.7771C48.0379 51.97 48.0632 52.1833 48.0783 52.4168C48.0935 52.6503 48.149 52.9245 48.1894 53.1834C48.2298 53.4423 48.2803 53.7571 48.3308 54.0719C48.3813 54.3867 48.4874 54.7217 48.5682 55.0873C48.9953 56.7995 49.6763 58.4374 50.5883 59.9459C51.7826 61.952 53.3497 63.7084 55.2041 65.1193L55.9869 65.7032C56.2596 65.8859 56.5525 66.0535 56.8404 66.2108C57.1263 66.3949 57.4213 66.5644 57.7242 66.7185L58.6635 67.1704L59.1685 67.3988L59.6736 67.5867L60.6836 67.9573C61.0321 68.0741 61.3957 68.1502 61.7542 68.2467C62.1144 68.3511 62.4803 68.4341 62.8501 68.4955C63.6057 68.6372 64.3701 68.7271 65.1378 68.7645C65.5318 68.7645 65.9257 68.8153 66.3196 68.8102L67.5215 68.7442C67.7185 68.7442 67.9256 68.7442 68.1225 68.7087L68.7285 68.6122C69.1326 68.5462 69.5416 68.5005 69.9456 68.4142C70.7667 68.2311 71.5748 67.9936 72.3647 67.7035C73.1738 67.4098 73.9618 67.0603 74.7231 66.6576C75.1069 66.4495 75.4756 66.2058 75.8543 65.9824C76.0361 65.8605 76.2382 65.759 76.4099 65.627L76.9452 65.2259C77.6672 64.6855 78.3538 64.0987 79.0006 63.4693L79.9198 62.4539L80.1521 62.2001L80.3591 61.9208L80.7732 61.3624L81.1924 60.8039L81.556 60.2048L81.9196 59.6007L82.1014 59.3011L82.258 58.9813C82.46 58.5548 82.6671 58.1284 82.8691 57.6968C83.0711 57.2653 83.1973 56.7982 83.3741 56.3514C83.9668 54.4929 84.28 52.5559 84.3033 50.6043C84.2808 48.654 83.9658 46.7182 83.369 44.8623L82.864 43.5169C82.6569 43.0854 82.4549 42.6589 82.2479 42.2325L82.0964 41.9126L81.9146 41.6131L81.5459 41.0089L81.1823 40.4098L80.7682 39.8514L80.3541 39.2929L80.147 39.0188L79.9147 38.7598L78.9956 37.7444C78.3487 37.1166 77.6622 36.5316 76.9401 35.9929L76.4048 35.5918C76.2281 35.4548 76.0311 35.3532 75.8493 35.2364C75.4705 35.008 75.1019 34.7694 74.7181 34.5561C73.2074 33.7675 71.6016 33.1787 69.9406 32.8046C69.5366 32.7183 69.1275 32.6726 68.7235 32.6015L68.1225 32.5101C67.9205 32.4847 67.7185 32.4847 67.5165 32.4695L66.3146 32.4086C65.9206 32.4086 65.5267 32.439 65.1378 32.4543C64.3682 32.4889 63.602 32.5788 62.8451 32.7234C62.4744 32.7804 62.1082 32.8635 61.7492 32.9721C61.3906 33.0686 61.027 33.1447 60.6785 33.2564L59.6685 33.6321L59.1635 33.8149L58.6585 34.0434L57.7191 34.4952C57.406 34.6424 57.1283 34.8455 56.8354 35.0029C56.5424 35.1603 56.2596 35.3431 55.9819 35.5106L55.1991 36.0995C53.345 37.5108 51.778 39.2671 50.5832 41.2729C49.6723 42.7801 48.9913 44.4162 48.5632 46.1265C48.4824 46.4819 48.3662 46.8068 48.3258 47.1419C48.2854 47.4769 48.2298 47.7562 48.1844 48.0354C48.1389 48.3146 48.0985 48.5431 48.0733 48.7969C48.048 49.0508 48.043 49.2488 48.0329 49.4366L47.9773 50.3048C47.9723 50.5079 47.9571 50.6094 47.9571 50.6094Z" fill="#263238"/>
<path d="M92.9801 59.6493C93.0725 59.8423 93.2201 60.0035 93.4042 60.1125C93.5882 60.2215 93.8005 60.2734 94.014 60.2616C94.2275 60.2499 94.4328 60.1749 94.6038 60.0463C94.7747 59.9178 94.9037 59.7413 94.9744 59.5393C95.045 59.3373 95.0542 59.1189 95.0007 58.9117C94.9473 58.7045 94.8336 58.5178 94.674 58.3753C94.5144 58.2328 94.3162 58.1409 94.1044 58.1112C93.8926 58.0816 93.6767 58.1154 93.4842 58.2086C93.2267 58.3331 93.0291 58.5547 92.9346 58.8247C92.8402 59.0948 92.8565 59.3913 92.9801 59.6493Z" fill="white"/>
<path d="M86.3599 58.5807C86.5952 59.0719 86.9709 59.4822 87.4394 59.7597C87.9079 60.0371 88.4481 60.1692 88.9917 60.1392C89.5353 60.1092 90.0577 59.9185 90.4929 59.5912C90.9281 59.2639 91.2564 58.8147 91.4363 58.3006C91.6162 57.7864 91.6395 57.2304 91.5034 56.703C91.3673 56.1755 91.0778 55.7004 90.6716 55.3377C90.2655 54.9749 89.7609 54.741 89.2217 54.6655C88.6826 54.5899 88.1332 54.6762 87.643 54.9133C86.9878 55.2303 86.4848 55.7943 86.2442 56.4817C86.0037 57.1691 86.0453 57.9239 86.3599 58.5807Z" fill="white"/>
<path d="M92.9859 59.6485C92.974 59.6299 92.9644 59.6099 92.9573 59.5889C92.9285 59.5307 92.9069 59.4692 92.893 59.4057C92.8385 59.1695 92.8685 58.9214 92.9777 58.7044C93.0523 58.5535 93.162 58.4225 93.2974 58.3223C93.4428 58.2124 93.6134 58.1407 93.7936 58.1138C93.9737 58.0869 94.1576 58.1057 94.3283 58.1685C94.4989 58.2313 94.6508 58.336 94.77 58.4729C94.8892 58.6099 94.9718 58.7747 95.0102 58.9522C95.0487 59.1297 95.0417 59.3141 94.9899 59.4885C94.9381 59.6628 94.8431 59.8215 94.7139 59.9499C94.5846 60.0782 94.4251 60.1722 94.2501 60.223C94.0752 60.2738 93.8903 60.2798 93.7127 60.2406C93.4749 60.191 93.2623 60.0597 93.1121 59.8694C93.0715 59.8195 93.0371 59.7647 93.0098 59.7064C92.9976 59.6873 92.9877 59.6667 92.9804 59.6452C92.9885 59.6413 93.0207 59.729 93.1332 59.8513C93.286 60.0262 93.493 60.1449 93.7216 60.1887C93.8885 60.2207 94.061 60.2107 94.2233 60.1595C94.3857 60.1083 94.5328 60.0176 94.6515 59.8955C94.7921 59.7511 94.8857 59.5677 94.92 59.3695C94.9605 59.1581 94.9322 58.9396 94.839 58.746C94.7459 58.5524 94.5929 58.3939 94.4025 58.2938C94.2263 58.1969 94.0246 58.1558 93.8241 58.1757C93.642 58.1941 93.4677 58.2602 93.3191 58.3673C93.1903 58.458 93.084 58.577 93.0087 58.7152C92.9004 58.9213 92.864 59.1573 92.9054 59.3858C92.9505 59.5624 92.994 59.6446 92.9859 59.6485Z" fill="#263238"/>
<path d="M86.3748 58.5785C86.3444 58.5311 86.3199 58.4802 86.3018 58.4269C86.2285 58.2786 86.1736 58.122 86.1382 57.9604C85.9996 57.3592 86.0758 56.7278 86.3537 56.1753C86.5438 55.7913 86.8229 55.4578 87.1677 55.2026C87.5377 54.9229 87.9721 54.7404 88.4306 54.672C88.8892 54.6036 89.3573 54.6515 89.7916 54.8113C90.226 54.971 90.6127 55.2375 90.9161 55.5861C91.2195 55.9348 91.4298 56.3543 91.5276 56.8061C91.6254 57.2578 91.6075 57.7273 91.4757 58.1711C91.3438 58.615 91.1022 59.0189 90.7731 59.3456C90.4441 59.6724 90.0381 59.9115 89.5927 60.0408C89.1473 60.1701 88.6769 60.1856 88.2247 60.0857C87.6194 59.9595 87.0783 59.6251 86.6959 59.1408C86.5925 59.0137 86.505 58.8744 86.4356 58.726C86.4044 58.6772 86.3793 58.6249 86.3606 58.5702C86.3812 58.5603 86.4632 58.7833 86.7498 59.0947C87.1386 59.5398 87.6656 59.8421 88.2473 59.9536C88.6723 60.0351 89.1113 60.0096 89.5245 59.8793C89.9378 59.749 90.3124 59.518 90.6143 59.2073C90.9723 58.8397 91.2106 58.3728 91.2978 57.8683C91.4011 57.3303 91.3289 56.7741 91.0918 56.2812C90.8547 55.7884 90.4652 55.3849 89.9806 55.1301C89.532 54.8836 89.0188 54.7788 88.5084 54.8295C88.0447 54.8763 87.6012 55.0446 87.223 55.3174C86.895 55.5481 86.6245 55.8511 86.4328 56.2029C86.1571 56.7274 86.0645 57.3282 86.1697 57.9099C86.2846 58.3594 86.3954 58.5686 86.3748 58.5785Z" fill="#263238"/>
<path d="M61.1549 58.789L59.2246 57.9249L70.7184 43.4424L72.5935 43.9623C72.8736 44.0396 73.1238 44.1998 73.3113 44.422L75.1789 46.6222C75.3076 46.7743 75.3709 46.9712 75.3549 47.1698C75.3389 47.3685 75.2449 47.5527 75.0935 47.6822L62.1916 58.6408C62.0505 58.7612 61.8782 58.839 61.6947 58.8652C61.5112 58.8915 61.324 58.865 61.1549 58.789Z" fill="#455A64"/>
<path d="M74.19 57.7691L72.1016 59.5273C71.9874 59.6248 71.8493 59.6902 71.7016 59.7167C71.5538 59.7432 71.4016 59.7298 71.2607 59.678L69.6894 59.1179C69.4936 59.0448 69.3312 58.9029 69.2325 58.7185L60.6831 42.5908L62.6109 43.1509C62.8594 43.2235 63.0811 43.3677 63.2484 43.5654L74.2804 56.571C74.4267 56.7421 74.4993 56.9642 74.4824 57.1887C74.4655 57.4133 74.3603 57.6219 74.19 57.7691Z" fill="#455A64"/>
<g opacity="0.3">
<path d="M61.1549 58.789L59.2246 57.9249L70.7184 43.4424L72.5935 43.9623C72.8736 44.0396 73.1238 44.1998 73.3113 44.422L75.1789 46.6222C75.3076 46.7743 75.3709 46.9712 75.3549 47.1698C75.3389 47.3685 75.2449 47.5527 75.0935 47.6822L62.1916 58.6408C62.0505 58.7612 61.8782 58.839 61.6947 58.8652C61.5112 58.8915 61.324 58.865 61.1549 58.789Z" fill="black"/>
<path d="M74.1905 57.7696L72.1021 59.5278C71.9879 59.6253 71.8498 59.6907 71.702 59.7172C71.5543 59.7436 71.4021 59.7303 71.2612 59.6785L69.6899 59.1184C69.4941 59.0453 69.3317 58.9033 69.233 58.719L60.6836 42.5913L62.6114 43.1514C62.8599 43.224 63.0816 43.3681 63.2489 43.5659L74.2809 56.5715C74.4272 56.7426 74.4998 56.9647 74.4829 57.1892C74.4659 57.4138 74.3608 57.6224 74.1905 57.7696Z" fill="black"/>
</g>
<path d="M72.9418 45.9024L71.0448 43.6656C70.8394 43.4234 70.4766 43.3937 70.2346 43.5992L57.1632 54.6995C56.9212 54.905 56.8915 55.268 57.0969 55.5102L58.994 57.747C59.1994 57.9892 59.5621 58.0189 59.8042 57.8133L72.8755 46.7131C73.1176 46.5075 73.1472 46.1446 72.9418 45.9024Z" fill="#2642CA"/>
<path d="M57.9949 44.6884L60.2915 42.7381C60.393 42.6519 60.5246 42.6096 60.6573 42.6204C60.79 42.6313 60.9129 42.6945 60.9991 42.7961L72.1475 55.9409C72.2461 56.0572 72.2945 56.208 72.2821 56.36C72.2697 56.512 72.1974 56.6529 72.0811 56.7516L69.8401 58.6547C69.7238 58.7534 69.5732 58.8019 69.4212 58.7895C69.2693 58.777 69.1285 58.7047 69.0299 58.5884L57.9367 45.5087C57.8381 45.3924 57.7896 45.2416 57.8021 45.0896C57.8145 44.9375 57.8868 44.7967 58.003 44.6979L57.9949 44.6884Z" fill="#2642CA"/>
<path d="M61.6571 51.5273C61.0533 52.1303 60.419 52.702 59.757 53.2403C59.1232 53.8123 58.4605 54.3513 57.7715 54.8554C58.3756 54.2519 59.0098 53.6793 59.6716 53.1399C60.3057 52.569 60.9684 52.0307 61.6571 51.5273Z" fill="white"/>
<path d="M70.3149 44.1208C70.34 44.1484 69.3811 44.9974 68.1788 46.0172C66.9765 47.0369 65.9825 47.8381 65.9599 47.8105C65.9373 47.7829 66.8911 46.9364 68.096 45.9167C69.3008 44.8969 70.2923 44.0932 70.3149 44.1208Z" fill="white"/>
<path d="M62.0871 49.4556C62.0595 49.4782 61.319 48.5765 60.433 47.4463C59.5469 46.316 58.8516 45.3766 58.8792 45.354C59.4653 45.9951 60.0182 46.6658 60.5359 47.3634C61.0888 48.0334 61.6066 48.7318 62.0871 49.4556Z" fill="white"/>
<path d="M68.7024 56.9902C68.1004 56.4355 67.5289 55.8486 66.9905 55.232C66.419 54.6449 65.8802 54.027 65.3765 53.3809C65.9765 53.9375 66.5479 54.5243 67.0884 55.1391C67.6586 55.7272 68.1973 56.3451 68.7024 56.9902Z" fill="white"/>
<defs>
<clipPath id="clip0_61_3951">
<rect width="95.482" height="117.365" fill="white" transform="translate(81.3438 38.5317)"/>
</clipPath>
</defs>
</svg>
