<svg width="102" height="98" viewBox="0 0 102 98" fill="none" xmlns="http://www.w3.org/2000/svg">
<path d="M57.5679 97.3409C53.5853 95.4558 51.9983 90.9742 51.4369 86.7999C51.3422 86.1069 51.1435 85.3861 51.3699 84.7208C51.5963 84.0555 52.294 83.5126 52.9639 83.6997C53.5206 83.8545 53.8464 84.4136 54.2183 84.8548C54.7129 85.4501 55.3667 85.8923 56.1033 86.13C56.5838 86.2847 57.1544 86.3333 57.5494 86.0191C58.09 85.5871 58.0115 84.7508 57.9006 84.0624C57.6742 82.7857 57.4524 81.509 57.2353 80.2323C57.0787 79.551 57.0327 78.8491 57.099 78.1532C57.2006 77.4602 57.5725 76.7671 58.1963 76.4807C58.82 76.1942 59.6955 76.4276 59.9473 77.079C60.0216 77.3592 60.0772 77.6439 60.1136 77.9314C60.1806 78.2156 60.3678 78.509 60.6519 78.5436C60.936 78.5783 61.1832 78.3357 61.3565 78.0978C61.9479 77.2823 62.2805 76.3051 62.5808 75.3372C62.8811 74.3693 63.163 73.3829 63.6804 72.5143C64.1979 71.6457 64.988 70.8972 65.9651 70.6662C66.9423 70.4352 68.0973 70.8741 68.5062 71.8004C68.9151 72.7268 68.5201 73.8102 68.0442 74.7019C67.3215 76.0223 66.412 77.2314 65.3437 78.2918C65.1307 78.4615 64.977 78.6945 64.9048 78.9571C64.8332 79.4422 65.346 79.8257 65.8288 79.8996C66.3694 79.9828 66.9192 79.835 67.4667 79.8072C68.0142 79.7795 68.6356 79.9181 68.9267 80.3917C69.3263 81.0478 68.862 81.8863 68.3653 82.4708C67.3677 83.6352 66.1777 84.6197 64.847 85.3815C64.3712 85.6518 63.8652 85.9059 63.5164 86.3309C63.1676 86.756 63.0267 87.4167 63.3547 87.8602C63.6827 88.3038 64.3457 88.3523 64.8586 88.1628C65.3714 87.9734 65.7988 87.6061 66.2724 87.3312C67.1594 86.8138 68.393 86.6705 69.1392 87.3867C69.3719 87.6371 69.5433 87.9381 69.6399 88.266C69.7365 88.5939 69.7557 88.9397 69.6959 89.2763C69.573 89.9468 69.3161 90.5856 68.9405 91.1544C67.7442 93.2109 66.024 94.9136 63.9553 96.0888C61.8878 97.2207 59.8873 97.7729 57.5702 97.3432" fill="#F5F5F5"/>
<path d="M58.1992 94.5559C58.5056 92.1784 58.9483 89.8206 59.5252 87.4939L59.9687 85.662C60.1143 85.0591 60.2598 84.4631 60.4308 83.8902C60.7762 82.7907 61.1818 81.711 61.6459 80.656C62.0825 79.6442 62.533 78.6971 62.9603 77.8169C63.3877 76.9368 63.8058 76.1236 64.217 75.4006C64.8589 74.2537 65.5912 73.1599 66.407 72.1295C66.6958 71.7645 66.9291 71.4896 67.0885 71.3048C67.1647 71.217 67.2271 71.1477 67.271 71.0946C67.3149 71.0414 67.3357 71.0252 67.338 71.0276C67.3212 71.0542 67.3027 71.0797 67.2825 71.1038L67.107 71.3209C66.9545 71.5104 66.7281 71.783 66.4463 72.1595C65.6483 73.2 64.9294 74.2989 64.2956 75.4468C63.8913 76.1721 63.4801 76.9853 63.055 77.8654C62.63 78.7456 62.1864 79.6927 61.7545 80.7046C61.2944 81.7595 60.8934 82.8392 60.5532 83.9387C60.3753 84.5093 60.2321 85.0937 60.0912 85.7036L59.6476 87.5378C59.072 89.8597 58.627 92.2119 58.3147 94.5836" fill="#E0E0E0"/>
<path d="M60.4709 83.8834C60.4209 83.7936 60.3813 83.6982 60.3531 83.5993C60.2838 83.4168 60.1937 83.1373 60.0875 82.8116C59.8749 82.1416 59.6116 81.206 59.3251 80.1757C59.0387 79.1454 58.7638 78.2145 58.5397 77.5515C58.4288 77.2188 58.3364 76.9485 58.2717 76.766C58.2329 76.6712 58.2028 76.573 58.1816 76.4727C58.2374 76.5588 58.2831 76.651 58.3179 76.7476C58.3988 76.9254 58.5027 77.1911 58.6252 77.5191C58.8724 78.1798 59.1611 79.1062 59.4499 80.1411C59.7386 81.176 59.9812 82.0816 60.1753 82.7838C60.2653 83.1026 60.3393 83.3706 60.4063 83.5854C60.4365 83.6827 60.4582 83.7824 60.4709 83.8834Z" fill="#E0E0E0"/>
<path d="M69.0534 80.7266C68.9418 80.7731 68.8257 80.808 68.7069 80.8305C68.4759 80.8883 68.1594 80.9714 67.7621 81.0869C66.9651 81.3179 65.877 81.6598 64.692 82.0988C63.5069 82.5377 62.4512 82.9835 61.6888 83.3254C61.31 83.4941 61.0074 83.6396 60.7971 83.7389C60.6915 83.7964 60.581 83.8444 60.4668 83.8822C60.5623 83.8085 60.6653 83.745 60.774 83.6927C60.9773 83.5795 61.2753 83.4224 61.6496 83.2307C62.3957 82.8657 63.4491 82.406 64.6365 81.9648C65.6499 81.5856 66.6824 81.2594 67.7297 80.9876C68.1317 80.8813 68.4597 80.812 68.6884 80.7681C68.8085 80.743 68.9307 80.729 69.0534 80.7266Z" fill="#E0E0E0"/>
<path d="M58.2805 94.3798C58.2509 94.3495 58.2246 94.3162 58.202 94.2804L57.9964 93.987C57.8185 93.7283 57.5713 93.3518 57.2733 92.8805C56.6727 91.938 55.8873 90.6097 55.0395 89.1312C54.1916 87.6528 53.4224 86.3198 52.8379 85.3681L52.1449 84.2384L51.9601 83.9312C51.9357 83.8972 51.9162 83.8598 51.9023 83.8203C51.9023 83.8203 51.9324 83.8503 51.9809 83.9173C52.0294 83.9843 52.1056 84.0929 52.1865 84.213C52.3644 84.4695 52.6115 84.846 52.9119 85.3196C53.5102 86.2621 54.2979 87.5881 55.1457 89.0665C55.9935 90.545 56.7628 91.8779 57.3449 92.832L58.038 93.9593C58.1119 94.0818 58.1743 94.1903 58.2228 94.2666C58.2475 94.3012 58.267 94.3394 58.2805 94.3798Z" fill="#E0E0E0"/>
<path d="M69.4108 88.5898C69.3783 88.6183 69.3417 88.6416 69.3022 88.6592L68.9811 88.8301L67.7891 89.4515C66.7819 89.9782 65.4004 90.7198 63.8758 91.5306C62.3511 92.3414 60.9627 93.083 59.9486 93.5866C59.4404 93.8384 59.0246 94.0486 58.7381 94.171L58.3916 94.3235C58.3536 94.3437 58.3132 94.3592 58.2715 94.3697C58.3045 94.342 58.341 94.3187 58.3801 94.3004L58.7035 94.1295L59.8955 93.5057C60.9004 92.9813 62.2818 92.2398 63.8065 91.4266C65.3311 90.6135 66.7218 89.8766 67.7336 89.373C68.2419 89.1212 68.6577 88.911 68.9441 88.7885L69.2768 88.636C69.3188 88.6138 69.364 88.5983 69.4108 88.5898Z" fill="#E0E0E0"/>
<path d="M28.6833 47.7569C28.6833 47.7569 25.9389 48.1381 27.4797 54.149C29.0205 60.1598 30.328 63.26 30.328 63.26C30.328 63.26 30.5336 64.6206 29.4363 64.579C28.3391 64.5375 26.1006 63.655 25.3405 64.8308C24.5551 66.0598 25.2435 67.5383 26.9576 69.0883C28.6717 70.6384 32.3263 74.1706 32.6543 74.4917C32.9823 74.8128 33.2226 75.4735 32.4695 75.5635C31.7164 75.6536 26.3755 75.0276 26.2322 77.5803C26.089 80.1329 31.594 83.6627 32.1877 84.0601C32.7814 84.4574 32.8807 84.767 32.7421 85.1135C32.6035 85.46 30.834 85.0788 29.307 84.961C27.78 84.8432 25.9874 84.9795 26.0266 86.458C26.0659 87.9364 28.9582 91.6788 37.39 94.4601L41.3842 95.4927L44.3342 92.5867C50.2711 85.9821 50.9202 81.2995 50.2203 79.9966C49.5203 78.6937 47.9102 79.4676 46.6304 80.327C45.3506 81.1863 44.0107 82.4061 43.7243 82.175C43.4378 81.944 43.3639 81.6252 43.6827 80.9853C44.0015 80.3454 47.0254 74.5471 45.6301 72.4033C44.2348 70.2596 39.9103 73.4521 39.2173 73.7455C38.5243 74.0389 38.3995 73.3412 38.5243 72.9069C38.649 72.4726 40.0582 67.5937 40.7835 65.3876C41.5089 63.1814 41.3703 61.5597 40.0767 60.8852C38.8292 60.2361 37.3299 62.1211 36.3967 62.7032C35.4634 63.2854 34.969 62.0102 34.969 62.0102C34.969 62.0102 34.5625 58.6721 32.913 52.689C31.2636 46.7058 28.6324 47.7777 28.6324 47.7777" fill="#EBEBEB"/>
<path d="M41.3843 96.4866C40.19 92.0974 38.1964 84.243 36.4522 77.4999C34.7081 70.7567 33.1234 64.6765 31.9498 60.2735C31.3631 58.0743 30.8872 56.2955 30.5638 55.0596C30.4021 54.4474 30.275 53.9692 30.1872 53.6412L30.0902 53.2716C30.0694 53.1884 30.0625 53.1445 30.0625 53.1445C30.0625 53.1445 30.0787 53.1838 30.1041 53.267C30.1295 53.3501 30.1641 53.4772 30.2103 53.6343C30.3051 53.9623 30.4414 54.4359 30.6123 55.0457C30.9588 56.2724 31.4486 58.0489 32.0446 60.2481C33.2389 64.6373 34.8398 70.7382 36.5839 77.4675C38.328 84.1968 40.3055 92.0581 41.479 96.4611" fill="#E0E0E0"/>
<path d="M28.4219 66.2031C28.5142 66.2412 28.6024 66.2884 28.6852 66.344C28.8492 66.4411 29.0849 66.5889 29.3783 66.7737C29.9535 67.1456 30.7366 67.6793 31.589 68.2822L33.7651 69.8346L34.4281 70.2966C34.5117 70.3486 34.5892 70.4098 34.6591 70.4791C34.5659 70.4415 34.4769 70.3942 34.3935 70.3382C34.2295 70.2412 33.9938 70.0933 33.7004 69.9062C33.1298 69.5297 32.3537 68.9822 31.5012 68.3815L29.3136 66.8453L28.6483 66.3833C28.5666 66.3315 28.4907 66.2711 28.4219 66.2031Z" fill="#E0E0E0"/>
<path d="M34.9948 70.2868C34.9648 70.2683 35.9927 68.6074 37.2887 66.5768C38.5847 64.5462 39.6635 62.9153 39.6935 62.9337C39.7235 62.9522 38.6956 64.6155 37.3973 66.6461C36.099 68.6767 35.0248 70.3007 34.9948 70.2868Z" fill="#E0E0E0"/>
<path d="M37.207 80.7436C37.271 80.6638 37.3447 80.5924 37.4265 80.5311L38.0479 79.9859C38.5723 79.5239 39.2954 78.8863 40.0669 78.1517C40.8385 77.4171 41.5177 76.731 42.0028 76.2297C42.2338 75.9987 42.4232 75.7931 42.578 75.636C42.648 75.5585 42.7253 75.4881 42.809 75.4258C42.7579 75.5141 42.6958 75.5956 42.6242 75.6683C42.4995 75.8185 42.3123 76.031 42.0767 76.2898C41.6147 76.8095 40.9401 77.5095 40.164 78.2441C39.3878 78.9787 38.6578 79.6117 38.1172 80.0552C37.8446 80.2862 37.6228 80.4525 37.4658 80.5704C37.3862 80.6375 37.2994 80.6956 37.207 80.7436Z" fill="#E0E0E0"/>
<path d="M30.4531 78.3594C30.5464 78.3705 30.6379 78.393 30.7257 78.4264L31.458 78.6574C32.0725 78.8537 32.9203 79.1333 33.8536 79.4474C34.7869 79.7616 35.6301 80.0573 36.2376 80.2768L36.956 80.5401C37.0455 80.5681 37.1315 80.6061 37.2125 80.6533C37.1192 80.6438 37.0275 80.6221 36.9399 80.5886L36.2076 80.3576C35.5931 80.1612 34.7453 79.8817 33.812 79.5652C32.8787 79.2488 32.0355 78.9554 31.428 78.7382L30.7095 78.4726C30.6194 78.4465 30.5331 78.4084 30.4531 78.3594Z" fill="#E0E0E0"/>
<path d="M31.2324 87.8398C31.3513 87.8576 31.4681 87.887 31.5812 87.9276L32.5191 88.2141C33.3092 88.4613 34.3973 88.8101 35.5985 89.2051C36.7998 89.6001 37.8832 89.9605 38.6663 90.2308L39.5904 90.5542C39.7053 90.591 39.8173 90.6366 39.9253 90.6905C39.8057 90.6729 39.688 90.6435 39.5742 90.6027L38.6363 90.3163C37.8462 90.0691 36.7582 89.7203 35.5569 89.3252C34.3557 88.9302 33.2722 88.5675 32.4914 88.2996L31.5674 87.9738C31.4519 87.9394 31.3398 87.8945 31.2324 87.8398Z" fill="#E0E0E0"/>
<path d="M39.7363 90.57C39.8177 90.4702 39.9081 90.3781 40.0066 90.2951L40.7713 89.5767C41.4158 88.9691 42.3028 88.1259 43.2569 87.1673C44.211 86.2086 45.0542 85.3192 45.6594 84.6724L46.3755 83.9054C46.4599 83.8074 46.5518 83.7163 46.6504 83.6328C46.5831 83.7414 46.5058 83.8435 46.4194 83.9377C46.2623 84.1295 46.0267 84.3998 45.7264 84.7324C45.1373 85.3977 44.3057 86.2987 43.347 87.2574C42.3883 88.216 41.4989 89.0523 40.8336 89.6437C40.501 89.9371 40.2307 90.175 40.039 90.3367C39.9447 90.4228 39.8435 90.5008 39.7363 90.57Z" fill="#E0E0E0"/>
<path d="M16.764 11.911L14.5093 11.2179C14.5093 11.2179 13.9179 13.1122 11.9405 12.5324C11.5577 12.427 11.2171 12.2052 10.9658 11.8976C10.7146 11.5901 10.5652 11.2121 10.5383 10.816C10.5087 10.4819 10.5592 10.1456 10.6858 9.835C10.8124 9.5244 11.0113 9.24852 11.2659 9.03028C11.8458 8.51744 12.8622 8.20558 14.2968 8.94712L15.8838 3.8649L13.6546 3.17188L12.7305 6.14959C12.7305 6.14959 9.34855 5.98095 8.27436 9.42531C7.24637 12.7218 9.96304 14.4105 11.229 14.8055C12.19 15.1058 15.565 15.9005 16.764 11.911Z" fill="#F5F5F5"/>
<path d="M13.9562 2.1143L16.2188 2.82031L16.878 0.707703L14.6154 0.00169248L13.9562 2.1143Z" fill="#F5F5F5"/>
<path d="M22.9852 6.17339L23.8885 5.94238C23.8609 5.8398 23.8542 5.73272 23.8689 5.62751C23.8835 5.52231 23.9191 5.42112 23.9737 5.32996C24.0282 5.2388 24.1005 5.15953 24.1863 5.09687C24.272 5.03421 24.3695 4.98943 24.4729 4.9652C24.6234 4.91977 24.7843 4.92227 24.9333 4.97235C25.0823 5.02244 25.2121 5.11762 25.3046 5.24473C25.3831 5.35026 25.4355 5.47288 25.4576 5.60256C25.4797 5.73224 25.4708 5.86531 25.4316 5.99089C25.3462 6.28427 25.0713 6.60306 24.4337 6.6562L24.9719 8.69139L25.8636 8.46038L25.5494 7.26837C25.8876 7.06442 26.1493 6.7549 26.2941 6.38753C26.439 6.02016 26.459 5.61534 26.351 5.23549C26.0045 3.91411 24.734 3.92104 24.2327 4.05272C23.8446 4.14281 22.5486 4.58404 22.9852 6.17339Z" fill="#EBEBEB"/>
<path d="M26.1793 8.75224L25.2695 8.99609L25.4972 9.84535L26.4069 9.6015L26.1793 8.75224Z" fill="#EBEBEB"/>
<path d="M97.5566 29.5537L98.4345 29.8702C98.4713 29.7708 98.5277 29.6797 98.6002 29.6025C98.6727 29.5252 98.76 29.4632 98.8569 29.4201C98.9538 29.3771 99.0583 29.3538 99.1642 29.3518C99.2702 29.3497 99.3756 29.3689 99.474 29.4082C99.6219 29.4557 99.7514 29.5479 99.8449 29.6719C99.9384 29.796 99.9912 29.9459 99.9961 30.1012C100.002 30.2337 99.9755 30.3656 99.9201 30.486C99.8647 30.6065 99.7815 30.7121 99.6773 30.7942C99.4463 30.9859 99.0328 31.0899 98.4784 30.7711L97.7599 32.7509L98.6285 33.065L99.049 31.91C99.4432 31.9344 99.8346 31.8288 100.163 31.6093C100.491 31.3897 100.739 31.0685 100.867 30.6949C101.329 29.4105 100.287 28.6966 99.7951 28.5188C99.4186 28.3709 98.1018 27.999 97.5566 29.5537Z" fill="#EBEBEB"/>
<path d="M98.499 33.4678L97.6172 33.1484L97.319 33.9716L98.2009 34.291L98.499 33.4678Z" fill="#EBEBEB"/>
<path d="M4.39589 39.6081L6.24397 38.892C6.24397 38.892 5.64334 37.3326 7.25348 36.6789C7.56164 36.5485 7.90266 36.5169 8.22952 36.5885C8.55638 36.6601 8.85299 36.8313 9.07845 37.0785C9.27027 37.2841 9.41084 37.532 9.48872 37.8022C9.5666 38.0724 9.57958 38.3571 9.52661 38.6332C9.41111 39.2754 8.90289 40.0193 7.56534 40.2757L9.18241 44.4639L11.0305 43.757L10.0833 41.3037C10.0833 41.3037 12.3934 39.645 11.31 36.8036C10.2589 34.087 7.56996 34.3965 6.53735 34.7962C5.74036 35.1034 3.09761 36.3439 4.39589 39.6081Z" fill="#F5F5F5"/>
<path d="M11.3803 44.6097L9.51562 45.3281L10.1867 47.0699L12.0513 46.3515L11.3803 44.6097Z" fill="#F5F5F5"/>
<path d="M98.282 46.653L96.9653 47.1589C96.9653 47.1589 97.3903 48.2654 96.2491 48.7274C96.0306 48.8188 95.7893 48.8407 95.5579 48.7903C95.3265 48.7399 95.1162 48.6195 94.9555 48.4456C94.8196 48.2999 94.7201 48.1241 94.6651 47.9326C94.6101 47.7411 94.6011 47.5393 94.639 47.3437C94.7222 46.8817 95.0825 46.3642 96.025 46.1887L94.8931 43.2109L93.5902 43.7122L94.2601 45.4517C93.786 45.8145 93.4441 46.3229 93.2872 46.8989C93.1303 47.4749 93.1669 48.0865 93.3915 48.6397C94.1331 50.564 96.032 50.3468 96.7712 50.0627C97.3303 49.8432 99.2014 48.9654 98.282 46.653Z" fill="#F5F5F5"/>
<path d="M93.3309 43.1107L94.6523 42.6016L94.1773 41.3685L92.8559 41.8776L93.3309 43.1107Z" fill="#F5F5F5"/>
<path d="M102 97.7397C102 97.7744 79.1647 97.7998 51.0023 97.7998C22.8399 97.7998 0 97.7744 0 97.7397C0 97.7051 22.8307 97.6797 51.0023 97.6797C79.1739 97.6797 102 97.7074 102 97.7397Z" fill="#263238"/>
<path d="M14.6476 91.7428C14.8786 90.8927 14.308 90.0402 13.6843 89.4327C13.0606 88.8251 12.3144 88.2661 11.9887 87.4506C11.462 86.1292 12.1689 84.4198 11.2726 83.3178C10.7436 82.671 9.79643 82.4539 9.32748 81.7608C9.11066 81.3789 8.96727 80.9597 8.90473 80.5249C8.40627 78.3302 7.32671 76.3099 5.77917 74.6758C5.67485 76.6307 6.09856 78.5777 7.00583 80.3124C7.36852 81.0054 7.81668 81.68 7.92987 82.4539C8.12623 83.7083 7.42396 84.995 7.73351 86.2332C8.08696 87.6424 9.66938 88.5872 9.7433 90.0379C9.80798 91.2646 8.73841 92.348 8.81926 93.5677C8.88404 94.0901 9.0734 94.5892 9.37137 95.0231C10.3185 96.6009 11.7138 97.6867 13.8252 97.652L16.4125 97.7421L14.6476 91.7428Z" fill="#2642CA"/>
<g opacity="0.3">
<path d="M14.6476 91.7428C14.8786 90.8927 14.308 90.0402 13.6843 89.4327C13.0606 88.8251 12.3144 88.2661 11.9887 87.4506C11.462 86.1292 12.1689 84.4198 11.2726 83.3178C10.7436 82.671 9.79643 82.4539 9.32748 81.7608C9.11066 81.3789 8.96727 80.9597 8.90473 80.5249C8.40627 78.3302 7.32671 76.3099 5.77917 74.6758C5.67485 76.6307 6.09856 78.5777 7.00583 80.3124C7.36852 81.0054 7.81668 81.68 7.92987 82.4539C8.12623 83.7083 7.42396 84.995 7.73351 86.2332C8.08696 87.6424 9.66938 88.5872 9.7433 90.0379C9.80798 91.2646 8.73841 92.348 8.81926 93.5677C8.88404 94.0901 9.0734 94.5892 9.37137 95.0231C10.3185 96.6009 11.7138 97.6867 13.8252 97.652L16.4125 97.7421L14.6476 91.7428Z" fill="black"/>
</g>
<path d="M16.9351 97.793C17.1721 97.8295 17.4136 97.8249 17.6489 97.7791C17.9347 97.7357 18.2155 97.6645 18.4875 97.5666C18.8631 97.436 19.2144 97.244 19.527 96.9983C19.7152 96.847 19.8621 96.6508 19.9544 96.4277C20.0317 96.1777 20.0721 95.9178 20.0745 95.6561C20.0797 95.3764 20.1006 95.0972 20.1369 94.8199C20.1856 94.5246 20.2924 94.2419 20.4511 93.9882C20.756 93.4523 21.2642 92.9441 21.4259 92.2164C21.5876 91.4887 21.4768 90.7264 21.3566 89.9502C21.2365 89.174 21.1256 88.3331 21.4167 87.52C21.7078 86.7068 22.2622 85.9791 22.5463 85.069C22.8305 84.1588 22.6965 83.1562 22.7566 82.179C22.7743 81.6827 22.8889 81.1946 23.0938 80.7421C23.3017 80.2801 23.5928 79.8528 23.8192 79.3723C24.2812 78.3974 24.3598 77.2932 24.4845 76.2097C24.5469 75.6646 24.6069 75.1124 24.6693 74.558C24.7086 73.9975 24.8054 73.4425 24.9581 72.9017C25.1333 72.3565 25.3401 71.822 25.5772 71.3008C25.6993 71.0312 25.7997 70.7524 25.8775 70.4668C25.921 70.1713 25.9488 69.8736 25.9607 69.5751C25.9882 68.9775 25.965 68.3786 25.8914 67.7848C25.8221 67.1888 25.7135 66.5974 25.6488 65.9991C25.6488 65.9621 25.6488 65.9275 25.6488 65.8952L25.6349 65.7773L25.531 65.8282C24.9848 66.1085 24.5105 66.5108 24.1449 67.004C23.7864 67.487 23.4978 68.0181 23.2879 68.5818C22.8559 69.693 22.7011 70.8572 22.484 71.9684C22.2668 73.0796 21.9896 74.1722 21.4213 75.0963C21.1372 75.5583 20.793 75.9787 20.4973 76.4269C20.1762 76.8643 19.9568 77.3678 19.8551 77.9007C19.7003 78.9957 20.3032 79.9567 20.1785 80.927C20.1222 81.4022 19.9647 81.8599 19.7165 82.2691C19.4855 82.6826 19.2059 83.0661 18.9426 83.4496C18.6757 83.8257 18.4437 84.2255 18.2496 84.6439C18.0668 85.0534 17.9589 85.4923 17.9308 85.9399C17.8684 86.8131 17.9908 87.6401 17.9308 88.4209C17.8586 89.1651 17.6412 89.888 17.2909 90.5485C16.979 91.1838 16.6302 91.759 16.3391 92.318C16.1936 92.5953 16.0573 92.8678 15.9464 93.1427C15.8415 93.4067 15.764 93.6807 15.7154 93.9605C15.6381 94.4491 15.6318 94.9463 15.6969 95.4367C15.7648 96.1205 16.0206 96.7721 16.4361 97.3194C16.4996 97.4021 16.57 97.4794 16.6463 97.5504C16.6974 97.604 16.7539 97.652 16.815 97.6936C16.912 97.7653 16.9628 97.7976 16.9628 97.7976C16.7782 97.6516 16.6101 97.4859 16.4615 97.3032C16.0649 96.754 15.8253 96.1071 15.7685 95.4321C15.7097 94.9479 15.7206 94.4578 15.8009 93.9767C15.8495 93.7036 15.9269 93.4365 16.0319 93.1797C16.1489 92.9018 16.2808 92.6304 16.4269 92.3666C16.7203 91.8121 17.0714 91.2392 17.3902 90.5993C17.751 89.9284 17.9756 89.1928 18.0509 88.4348C18.1202 87.6378 18.0001 86.8062 18.0647 85.956C18.0945 85.5229 18.2001 85.0983 18.3766 84.7017C18.5719 84.2919 18.8039 83.9007 19.0696 83.5327C19.333 83.1493 19.6125 82.7658 19.8528 82.343C20.1164 81.9183 20.2851 81.4415 20.3471 80.9454C20.4719 79.9128 19.8736 78.9472 20.0283 77.9285C20.1296 77.4188 20.3417 76.9377 20.6497 76.5193C20.9431 76.0781 21.2896 75.6576 21.5738 75.1841C22.1629 74.2346 22.447 73.1211 22.6618 72.0054C22.8767 70.8896 23.0361 69.7345 23.4611 68.6442C23.6656 68.0962 23.9463 67.5798 24.2951 67.1103C24.6467 66.637 25.1029 66.2512 25.628 65.9829L25.5102 65.916C25.5102 65.9506 25.5102 65.9853 25.5217 66.0222C25.5864 66.6275 25.695 67.2188 25.7528 67.8102C25.8257 68.3947 25.8481 68.9845 25.8197 69.5728C25.8081 69.862 25.7818 70.1503 25.7412 70.4368C25.6665 70.7131 25.5692 70.9828 25.4501 71.243C25.2117 71.7698 25.0035 72.3097 24.8264 72.8601C24.6724 73.4093 24.5749 73.9728 24.5353 74.5419C24.4753 75.0986 24.4129 75.6507 24.3528 76.1959C24.2281 77.2839 24.1472 78.3697 23.706 79.3099C23.475 79.7719 23.1978 80.2131 22.9829 80.6844C22.7715 81.1538 22.6538 81.6599 22.6364 82.1744C22.5787 83.1724 22.708 84.1495 22.4378 85.032C22.1675 85.9145 21.6061 86.6491 21.322 87.483C21.0378 88.317 21.1418 89.1994 21.2665 89.9733C21.3913 90.7472 21.516 91.5095 21.3497 92.1956C21.1834 92.8817 20.7075 93.3945 20.3979 93.9443C20.2347 94.2091 20.1256 94.5035 20.0768 94.8106C20.0419 95.0911 20.0234 95.3735 20.0214 95.6561C20.0218 95.9113 19.9844 96.165 19.9105 96.4092C19.8249 96.6208 19.6875 96.8075 19.5109 96.9521C19.2066 97.1974 18.8639 97.391 18.4967 97.525C18.2284 97.6284 17.9506 97.7058 17.6674 97.756C17.4943 97.7874 17.3189 97.8044 17.143 97.8068C16.9975 97.793 16.9351 97.793 16.9351 97.793Z" fill="#263238"/>
<path d="M25.1088 67.3242C25.0965 67.349 25.0879 67.3755 25.0834 67.4028L25.0279 67.6338C24.9771 67.8394 24.9148 68.1466 24.8177 68.5301C24.7207 68.9136 24.4828 69.3479 24.2818 69.8815C24.0464 70.4822 23.8413 71.0944 23.6673 71.7157C23.4686 72.4087 23.2954 73.1711 23.1106 73.9935C22.9535 74.8694 22.6752 75.7193 22.2836 76.5184C22.071 76.9388 21.8215 77.3639 21.6437 77.8305C21.4571 78.3071 21.3321 78.8055 21.2717 79.3136C21.1403 80.3661 20.9537 81.4109 20.7127 82.4438C20.1952 84.5622 19.7009 86.5812 19.2504 88.42C18.7999 90.2589 18.3749 91.9036 18.0237 93.2943C17.6726 94.685 17.4069 95.7938 17.2129 96.5862C17.1228 96.9651 17.0512 97.2631 17.0004 97.4825C16.9796 97.5772 16.9611 97.6535 16.9472 97.7135C16.9447 97.7404 16.9447 97.7675 16.9472 97.7944C16.9606 97.7705 16.9708 97.7448 16.9773 97.7182C16.9934 97.6558 17.0165 97.5819 17.0443 97.4871C17.102 97.2723 17.1829 96.9743 17.2868 96.5978C17.4947 95.8123 17.7881 94.6966 18.1508 93.322C18.5135 91.9475 18.9362 90.2843 19.4098 88.457C19.8834 86.6297 20.3639 84.5968 20.8859 82.4761C21.1254 81.4405 21.3075 80.3924 21.4311 79.3367C21.4902 78.8407 21.6112 78.3541 21.7915 77.8883C21.974 77.4263 22.2073 77.0128 22.4198 76.5877C22.8819 75.7445 23.0644 74.839 23.2469 74.0235C23.4294 73.208 23.5911 72.4365 23.7805 71.7481C23.9699 71.0596 24.1686 70.4452 24.3673 69.9138C24.5659 69.3825 24.7854 68.9436 24.8801 68.5463C24.9748 68.1489 25.0187 67.8532 25.0603 67.6407C25.0757 67.5452 25.0896 67.4682 25.1019 67.4097C25.1088 67.3519 25.1134 67.3242 25.1088 67.3242Z" fill="#263238"/>
<path d="M17.395 97.8056C19.0837 96.8007 19.5688 93.7514 18.8642 91.9172C18.1596 90.0829 16.926 88.4058 16.7366 86.4492C16.5888 84.9453 17.0831 83.4021 16.7366 81.9329C16.263 79.9485 14.3272 78.4123 14.3503 76.3725C14.3618 75.229 15.0133 74.1525 14.9602 73.009C14.8978 71.6091 13.8213 70.4956 13.156 69.262C12.1349 67.3701 12.0679 65.1362 11.7191 63.0248C11.3703 60.9134 10.564 58.6356 8.68362 57.5938C8.40641 59.3933 7.93284 60.6269 8.08069 63.0641C8.13613 63.9396 9.15257 65.6052 9.29118 67.5341C9.37434 68.6891 9.42978 69.8303 9.50139 70.9761C9.57301 72.1219 9.64231 73.2308 10.042 74.275C10.3492 75.0766 10.8413 75.8042 11.07 76.6313C11.4973 78.1859 10.9337 79.8654 11.2802 81.4455C11.5736 82.7807 12.4976 83.9288 12.687 85.2826C12.9504 87.1838 11.7214 89.1612 12.3497 90.9746C12.6639 91.8756 13.4031 92.5917 13.6134 93.5273C13.7774 94.248 13.5995 95.0127 13.7474 95.7357C13.9784 96.9047 16.2099 97.8148 17.3996 97.7386" fill="#2642CA"/>
<path d="M9.14299 59.3711C9.13984 59.4049 9.13984 59.4389 9.14299 59.4727C9.14299 59.549 9.16609 59.646 9.17995 59.7684C9.21922 60.0295 9.26311 60.4106 9.3509 60.905C9.43868 61.3994 9.70203 61.9584 9.90532 62.6329C10.1086 63.3075 10.335 64.0791 10.5244 64.943C10.7139 65.807 10.8802 66.7703 11.0488 67.8029C11.2175 68.8356 11.4023 69.9606 11.9151 71.0371C12.1461 71.5753 12.4187 72.1159 12.6081 72.6934C12.8022 73.2846 12.9217 73.8976 12.9639 74.5184C13.0583 75.8355 13.2241 77.1464 13.4606 78.4456C13.978 81.1114 14.4701 83.6502 14.9182 85.9626C15.3664 88.275 15.8169 90.3379 16.1772 92.0844C16.5376 93.8308 16.8333 95.2261 17.0389 96.2102L17.2699 97.3306C17.2976 97.4507 17.3184 97.5454 17.3369 97.6194C17.3431 97.6532 17.3524 97.6865 17.3646 97.7187C17.3687 97.6849 17.3687 97.6508 17.3646 97.617C17.3508 97.5408 17.3346 97.4461 17.3138 97.3237C17.263 97.0557 17.1914 96.6768 17.1013 96.1963C16.9072 95.2099 16.6393 93.8008 16.2904 92.0613C15.9416 90.3218 15.5281 88.2357 15.0684 85.9326C14.6087 83.6294 14.1443 81.0814 13.6246 78.4178C13.388 77.1187 13.2214 75.8077 13.1256 74.4907C13.0816 73.8571 12.9582 73.2315 12.7583 72.6287C12.5527 72.042 12.2824 71.4991 12.0445 70.9632C11.5363 69.9028 11.3514 68.7963 11.1759 67.7683C11.0003 66.7403 10.8317 65.7747 10.6307 64.9061C10.4297 64.0375 10.2103 63.2613 9.98386 62.596C9.75747 61.9307 9.50568 61.367 9.40403 60.8842C9.30239 60.4014 9.25387 60.0133 9.20536 59.7569C9.18226 59.6368 9.16378 59.5397 9.14992 59.4635C9.14943 59.4326 9.14712 59.4017 9.14299 59.3711Z" fill="#263238"/>
<path d="M90.6087 11.1094H89.6846C89.6853 11.2142 89.6649 11.3181 89.6247 11.4148C89.5844 11.5116 89.5252 11.5993 89.4504 11.6728C89.3757 11.7463 89.2869 11.804 89.1895 11.8425C89.092 11.881 88.9878 11.8996 88.883 11.8971C88.7283 11.9027 88.5757 11.8598 88.4465 11.7745C88.3173 11.6892 88.218 11.5657 88.1623 11.4213C88.1136 11.301 88.0941 11.1709 88.1053 11.0416C88.1166 10.9123 88.1583 10.7875 88.227 10.6774C88.3841 10.4187 88.726 10.1854 89.3451 10.2939V8.21484H88.4372V9.42995C88.0646 9.53963 87.7384 9.76851 87.5084 10.0815C87.2785 10.3945 87.1576 10.7742 87.1643 11.1625C87.1643 12.507 88.3702 12.8189 88.8877 12.8189C89.2827 12.8281 90.6272 12.7334 90.6087 11.1094Z" fill="#2642CA"/>
<path d="M88.4318 7.79688H89.3535V6.93521H88.4318V7.79688Z" fill="#2642CA"/>
<path d="M95.6483 9.88262C95.6513 9.84341 95.6513 9.80402 95.6483 9.7648C95.6483 9.68164 95.6483 9.56845 95.6483 9.42291C95.6483 9.34899 95.6483 9.26351 95.6367 9.17111C95.6252 9.07871 95.6113 8.97706 95.5951 8.8708C95.579 8.76453 95.5628 8.63979 95.5443 8.51735L95.4473 8.12463C95.2757 7.44832 94.9948 6.80457 94.6156 6.21881C94.0651 5.35132 93.323 4.62161 92.4464 4.08578C91.5698 3.54994 90.5819 3.22225 89.5588 3.1279C89.2516 3.10076 88.9429 3.09459 88.6348 3.10942C88.48 3.10942 88.3206 3.10942 88.1728 3.13945L87.6969 3.21106C87.044 3.33242 86.4121 3.54797 85.8211 3.85096C85.2041 4.17744 84.637 4.59051 84.1371 5.07762C83.6251 5.59643 83.1972 6.19188 82.8688 6.84253C82.5154 7.51332 82.2839 8.24151 82.185 8.99323C82.1562 9.18369 82.14 9.37585 82.1365 9.56844C82.1211 9.76132 82.1172 9.95494 82.125 10.1483C82.1752 11.3875 82.5626 12.5896 83.2454 13.625V13.5534C82.9242 14.355 82.6078 15.1427 82.2982 15.9097L82.2428 16.0506L82.3883 16.009L84.9063 15.316L84.8462 15.3021C85.6943 15.9441 86.6822 16.3763 87.7292 16.5634C88.215 16.654 88.71 16.6842 89.2031 16.6535C89.4409 16.65 89.678 16.6276 89.9123 16.5865L90.2565 16.5334C90.3697 16.5126 90.4875 16.4779 90.5891 16.4525C92.1408 16.0593 93.5019 15.1266 94.4285 13.8213C94.7741 13.3405 95.0517 12.8142 95.2532 12.2574C95.2971 12.135 95.3387 12.0264 95.378 11.9063C95.4172 11.7861 95.438 11.6753 95.4635 11.5713C95.4889 11.4673 95.5166 11.3611 95.5397 11.2641C95.5628 11.167 95.5697 11.0723 95.5836 10.9822C95.6044 10.8043 95.6367 10.6473 95.6436 10.5202C95.6506 10.3932 95.6436 10.2707 95.6436 10.1737C95.6436 10.0767 95.6436 10.0166 95.6436 9.96347C95.6436 9.91034 95.6436 9.89186 95.6436 9.89186C95.6401 9.9156 95.6401 9.93973 95.6436 9.96347C95.6436 10.0166 95.6436 10.0859 95.6275 10.1737C95.6113 10.2615 95.6136 10.3839 95.6044 10.5179C95.5951 10.6519 95.5605 10.809 95.5328 10.9799C95.3124 12.2585 94.7256 13.4455 93.8435 14.3969C92.9614 15.3483 91.822 16.0231 90.5637 16.3393C90.4552 16.3647 90.3466 16.3971 90.2357 16.4179L89.8961 16.4687C89.667 16.5069 89.4353 16.5278 89.2031 16.5311C88.719 16.5566 88.2336 16.5248 87.757 16.4364C86.7344 16.2482 85.77 15.8234 84.941 15.1958L84.9132 15.1727H84.8786L82.3583 15.8658L82.4461 15.9651L83.3955 13.6111L83.4094 13.5742L83.3886 13.5395C82.9337 12.8513 82.6109 12.0843 82.4368 11.2779C82.357 10.9038 82.3091 10.5236 82.2936 10.1413C82.2859 9.95263 82.2897 9.76362 82.3051 9.57538C82.3066 9.38737 82.322 9.19973 82.3513 9.01402C82.44 8.27993 82.6582 7.56738 82.9959 6.90953C83.3169 6.27366 83.7337 5.69087 84.2318 5.18157C84.721 4.70337 85.2765 4.29803 85.8812 3.97801C86.4589 3.67748 87.0777 3.46343 87.7177 3.34274L88.1797 3.27112C88.3345 3.24802 88.4893 3.25033 88.6417 3.23878C88.9429 3.22446 89.2446 3.22986 89.545 3.25495C90.5513 3.34304 91.5243 3.65927 92.3901 4.17963C93.2559 4.7 93.9917 5.4108 94.5417 6.25808C94.9229 6.83362 95.2085 7.46708 95.3872 8.13388L95.4912 8.52197C95.512 8.64441 95.5304 8.75298 95.5489 8.86849C95.5674 8.98399 95.5813 9.0764 95.5974 9.1688C95.6136 9.2612 95.609 9.34437 95.6159 9.41829C95.6159 9.56152 95.6344 9.67471 95.6413 9.75787C95.6369 9.79956 95.6393 9.84168 95.6483 9.88262Z" fill="#263238"/>
<path d="M26.7588 37.1244H40.0996C40.0996 37.1244 40.0996 25.9228 51.7402 25.7241C57.7857 25.6178 60.9205 29.5796 62.1957 32.6128C63.6741 36.1357 63.226 40.1506 61.2439 43.4194C58.9823 47.1502 54.108 50.8995 45.1171 49.3148L45.0317 79.0388H58.2246V61.4174C58.2246 61.4174 76.7262 56.6355 76.7262 36.2373C76.7262 16.7286 60.9505 12.515 52.4702 12.2424C47.7529 12.0922 46.0435 11.8889 40.2082 12.7182C32.772 13.7809 26.6017 22.416 26.7588 37.1244Z" fill="#2642CA"/>
<path d="M58.3835 85.2344H44.9941V97.7389H58.3835V85.2344Z" fill="#2642CA"/>
<path opacity="0.1" d="M58.3835 85.2344H44.9941V97.7389H58.3835V85.2344Z" fill="black"/>
<path opacity="0.1" d="M26.7588 37.1244H40.0996C40.0996 37.1244 40.0996 25.9228 51.7402 25.7241C57.7857 25.6178 60.9205 29.5796 62.1957 32.6128C63.6741 36.1357 63.226 40.1506 61.2439 43.4194C58.9823 47.1502 54.108 50.8995 45.1171 49.3148L45.0317 79.0388H58.2246V61.4174C58.2246 61.4174 76.7262 56.6355 76.7262 36.2373C76.7262 16.7286 60.9505 12.515 52.4702 12.2424C47.7529 12.0922 46.0435 11.8889 40.2082 12.7182C32.772 13.7809 26.6017 22.416 26.7588 37.1244Z" fill="black"/>
<path d="M21.2309 37.1252H34.574C34.574 37.1252 34.574 25.9235 46.2146 25.7248C52.2601 25.6186 55.3949 29.5804 56.6678 32.6135C58.1486 36.1364 57.7004 40.1514 55.7184 43.4202C53.4568 47.151 48.497 50.5422 39.5061 48.9644V79.0395H52.6991V61.4181C52.6991 61.4181 71.2006 56.6362 71.2006 36.2381C71.2006 16.7293 53.704 12.1992 46.2169 12.1992C40.4902 12.2061 20.9791 13.5899 21.2309 37.1252Z" fill="#2642CA"/>
<path opacity="0.3" d="M21.2309 37.1252H34.574C34.574 37.1252 34.574 25.9235 46.2146 25.7248C52.2601 25.6186 55.3949 29.5804 56.6678 32.6135C58.1486 36.1364 57.7004 40.1514 55.7184 43.4202C53.4568 47.151 48.497 50.5422 39.5061 48.9644V79.0395H52.6991V61.4181C52.6991 61.4181 71.2006 56.6362 71.2006 36.2381C71.2006 16.7293 53.704 12.1992 46.2169 12.1992C40.4902 12.2061 20.9791 13.5899 21.2309 37.1252Z" fill="black"/>
<path d="M52.86 85.2344H39.4707V97.7389H52.86V85.2344Z" fill="#2642CA"/>
<path opacity="0.3" d="M52.86 85.2344H39.4707V97.7389H52.86V85.2344Z" fill="black"/>
<path d="M47.7213 25.7869C47.6552 25.7926 47.5887 25.7926 47.5226 25.7869C47.3909 25.7869 47.2015 25.743 46.9543 25.7407C46.2554 25.7064 45.5549 25.7358 44.8614 25.8285C43.8329 25.9587 42.8209 26.1964 41.8421 26.5377C41.265 26.7394 40.703 26.9818 40.1603 27.2631C39.5737 27.5562 39.0213 27.9134 38.5132 28.328C38.0086 28.7464 37.5564 29.2242 37.1664 29.7511C36.7967 30.2381 36.4595 30.749 36.1569 31.2803C35.6517 32.1853 35.251 33.1448 34.9626 34.1402C34.767 34.8121 34.6325 35.5002 34.5606 36.1962C34.5329 36.4411 34.526 36.6351 34.5191 36.7645C34.5192 36.8312 34.513 36.8977 34.5006 36.9632C34.4946 36.8971 34.4946 36.8306 34.5006 36.7645C34.5006 36.6328 34.5006 36.4388 34.5214 36.1916C34.5745 35.4881 34.6975 34.7916 34.8887 34.1125C35.1665 33.1055 35.5619 32.1348 36.0668 31.2203C36.37 30.6831 36.7088 30.1668 37.0809 29.6748C37.4742 29.1394 37.932 28.6545 38.4439 28.231C38.9581 27.8107 39.5175 27.4488 40.1118 27.1522C40.6579 26.8657 41.2238 26.6187 41.8051 26.413C42.7929 26.073 43.8145 25.8406 44.8521 25.7199C45.5503 25.6342 46.2552 25.6179 46.9566 25.6714C47.1472 25.6836 47.337 25.7068 47.5249 25.7407C47.5914 25.7515 47.657 25.7669 47.7213 25.7869Z" fill="#263238"/>
<path d="M67.8241 23.4079C67.8241 23.4079 67.8079 23.3917 67.7802 23.3571C67.7524 23.3224 67.7109 23.2623 67.6647 23.1954L67.2234 22.5716C67.1287 22.4376 67.0271 22.2829 66.9069 22.1235L66.4911 21.6176L66.0152 21.0331C65.842 20.8298 65.6387 20.6335 65.4354 20.4186C65.2321 20.2038 65.0242 19.9751 64.7886 19.7556C64.553 19.5362 64.3012 19.3121 64.0424 19.0811C63.9131 18.9656 63.786 18.8501 63.6474 18.7276L63.2177 18.388C62.9243 18.157 62.6333 17.926 62.3168 17.695C60.9373 16.7081 59.4741 15.8439 57.9438 15.1123L56.7264 14.5625L55.5182 14.1005C55.1231 13.9365 54.7212 13.821 54.3331 13.6916C53.945 13.5623 53.5661 13.4306 53.178 13.3405L52.0738 13.0517C51.7158 12.957 51.36 12.8993 51.0204 12.8207C50.6808 12.7422 50.3528 12.6729 50.0317 12.6336L49.1077 12.4996C48.5232 12.4003 47.9873 12.3795 47.5206 12.3333C47.2896 12.3148 47.0586 12.2894 46.8669 12.2802L46.3171 12.2663L45.5547 12.2409H45.3561H45.2891C45.3113 12.2374 45.3339 12.2374 45.3561 12.2409H45.5547H46.3171H46.8692C47.0701 12.2409 47.2896 12.2686 47.5252 12.2848C47.9873 12.324 48.5324 12.3402 49.1169 12.4349L50.0409 12.5597C50.362 12.5966 50.6901 12.6798 51.032 12.7422C51.3739 12.8045 51.725 12.8692 52.0923 12.9732L53.2011 13.2596C53.5846 13.3474 53.9635 13.4906 54.3562 13.6085C54.7489 13.7263 55.1486 13.8395 55.5436 14.015L56.7587 14.4771L57.983 15.0292C59.5214 15.7624 60.9904 16.633 62.3722 17.6303C62.691 17.8613 62.9821 18.1085 63.2755 18.3372L63.7052 18.6491C63.8438 18.7646 63.9708 18.8801 64.1002 19.0048L64.844 19.6979C65.075 19.9289 65.2829 20.1599 65.4885 20.3701C65.6941 20.5803 65.8905 20.7859 66.0638 20.9915L66.5258 21.5806L66.937 22.0934C67.0548 22.2551 67.1541 22.4122 67.2465 22.5555C67.4267 22.8257 67.5676 23.0383 67.667 23.1907L67.7755 23.3594C67.7937 23.3734 67.81 23.3897 67.8241 23.4079Z" fill="#263238"/>
<path d="M66.4331 52.0547C66.4056 52.1047 66.3723 52.1512 66.3337 52.1933L66.0149 52.5698C65.8833 52.7385 65.7169 52.9395 65.5113 53.1635C65.3057 53.3876 65.0863 53.651 64.8183 53.9236C64.5503 54.1961 64.2639 54.5011 63.9382 54.8083C63.6124 55.1156 63.259 55.439 62.8824 55.7762C61.2309 57.2178 59.4204 58.4664 57.4861 59.4978C57.0379 59.7288 56.6151 59.9598 56.2063 60.1377C55.7974 60.3156 55.4162 60.4981 55.0651 60.6459C54.7139 60.7938 54.3905 60.9162 54.1087 61.0248C53.8269 61.1334 53.5797 61.2211 53.3764 61.2858L52.9144 61.436C52.8607 61.4573 52.805 61.4728 52.748 61.4822C52.7979 61.4537 52.8505 61.4305 52.9051 61.4129L53.3672 61.2419C53.5681 61.1703 53.8107 61.0779 54.0902 60.9624C54.3697 60.8469 54.6931 60.7314 55.0397 60.5674C55.3862 60.4034 55.7697 60.2486 56.1693 60.0476C56.5689 59.8466 56.9963 59.6341 57.4422 59.4008C58.3223 58.9157 59.2718 58.3474 60.2304 57.6913C61.1891 57.0353 62.0508 56.3445 62.8178 55.6931C63.1943 55.3604 63.5547 55.0486 63.8758 54.7344C64.1969 54.4202 64.4972 54.1361 64.7629 53.8635C65.0285 53.5909 65.2618 53.3391 65.4698 53.1173C65.6777 52.8956 65.8486 52.7015 65.9872 52.5398L66.3106 52.1725C66.3482 52.13 66.3891 52.0906 66.4331 52.0547Z" fill="#263238"/>
<path d="M52.4647 77.9929C52.4301 77.9929 52.4023 74.2829 52.4023 69.7066C52.4023 65.1303 52.4301 61.418 52.4647 61.418C52.4994 61.418 52.5248 65.128 52.5248 69.7066C52.5248 74.2852 52.4971 77.9929 52.4647 77.9929Z" fill="#263238"/>
<path d="M52.9741 96.8931C52.9395 96.8931 52.9141 94.2896 52.9141 91.0785C52.9141 87.8675 52.9395 85.2617 52.9741 85.2617C53.0088 85.2617 53.0342 87.8652 53.0342 91.0785C53.0342 94.2919 53.0065 96.8931 52.9741 96.8931Z" fill="#263238"/>
<path d="M66.1108 35.3537C65.8798 35.8157 66.7415 36.1946 67.2382 36.3447C67.7449 36.4691 68.2693 36.5051 68.7882 36.451C69.4813 36.414 70.1905 36.3493 70.7888 36.0074C71.3128 35.6828 71.7316 35.2135 71.9946 34.656C72.254 34.1004 72.459 33.5209 72.6068 32.9258C72.6068 32.9258 67.1481 33.2815 66.1108 35.3537Z" fill="#2642CA"/>
<g opacity="0.4">
<path d="M66.1089 35.3498C65.8779 35.8118 66.7395 36.1907 67.2362 36.3408C67.7429 36.4652 68.2673 36.5011 68.7863 36.4471C69.4793 36.4101 70.1885 36.3454 70.7868 36.0035C71.3108 35.6789 71.7296 35.2096 71.9927 34.6521C72.2521 34.0965 72.4571 33.517 72.6049 32.9219C72.6049 32.9219 67.1461 33.2776 66.1089 35.3498Z" fill="black"/>
</g>
<path d="M81.5276 33.8746C82.4276 34.5129 83.506 34.8509 84.6093 34.8402C85.1382 34.8697 85.6597 34.7054 86.0762 34.3782C86.2541 34.2142 86.3881 34.0063 86.5706 33.8492C86.6953 33.7429 86.8408 33.6621 86.9587 33.5489C87.0208 33.4953 87.0688 33.4272 87.0982 33.3506C87.1276 33.2741 87.1376 33.1914 87.1273 33.11C87.0817 32.9093 86.9693 32.7301 86.8085 32.6017C86.1825 32.246 85.434 32.2599 84.7133 32.276C83.9919 32.3072 83.2794 32.4466 82.5995 32.6895C82.0405 32.879 81.456 33.1515 81.1719 33.6598" fill="#2642CA"/>
<g opacity="0.4">
<path d="M87.1273 33.1106C87.0456 32.9158 86.9019 32.7534 86.7184 32.6486C86.0924 32.2929 85.434 32.2605 84.7133 32.2767C83.9919 32.3079 83.2794 32.4473 82.5995 32.6902C82.0405 32.8796 81.456 33.1522 81.1719 33.6604L81.5276 33.8753C82.4276 34.5136 83.506 34.8515 84.6093 34.8409C85.1382 34.8704 85.6597 34.7061 86.0762 34.3789C86.2541 34.2149 86.3881 34.007 86.5706 33.8499C86.6953 33.7436 86.8408 33.6627 86.9587 33.5496C87.0208 33.496 87.0688 33.4279 87.0982 33.3513C87.1276 33.2747 87.1376 33.192 87.1273 33.1106Z" fill="black"/>
</g>
<path d="M70.8685 42.1675L82.3843 42.3199C82.4078 42.3199 82.4309 42.3143 82.4518 42.3038C82.4727 42.2932 82.4908 42.2778 82.5048 42.259C82.5187 42.2401 82.528 42.2182 82.5319 42.1951C82.5359 42.172 82.5344 42.1483 82.5275 42.1259L81.1761 37.9123C81.1761 37.9123 81.3748 35.8055 81.6497 33.2736C82.0678 29.4273 82.6246 24.5923 82.6315 24.6061C81.8438 22.3977 77.1958 22.0234 77.1958 22.0234L71.8988 22.3376L71.714 22.0257L70.1893 22.7349C69.8568 22.8897 69.537 23.0704 69.2329 23.2755C68.2257 23.9477 65.8001 25.4932 65.3566 27.2142C64.3332 31.1991 66.0658 35.6461 66.0658 35.6461L67.1793 34.7752C67.4597 34.5591 67.7546 34.3622 68.0617 34.1861L70.2933 40.1669C70.1605 40.2507 70.048 40.3629 69.9641 40.4956C69.8802 40.6283 69.8269 40.778 69.8081 40.9339C69.7897 41.419 70.0392 42.0011 70.8685 42.1675Z" fill="#2642CA"/>
<g opacity="0.3">
<path d="M75.8118 35.1177C76.1768 33.1541 75.985 31.1351 75.7887 29.1484C75.1511 30.7655 75.1742 32.6136 74.4973 34.2168C74.4144 34.3861 74.3538 34.5655 74.3171 34.7504C74.2995 34.8433 74.3041 34.939 74.3306 35.0298C74.3571 35.1205 74.4048 35.2037 74.4696 35.2725C74.6544 35.4411 74.9316 35.3487 75.1765 35.321C75.3957 35.2792 75.609 35.2109 75.8118 35.1177Z" fill="black"/>
</g>
<g opacity="0.4">
<path d="M71.5616 39.6641C72.4856 39.9852 73.4697 39.3869 74.4469 39.2807C75.0937 39.2114 75.7405 39.3592 76.3827 39.4632C77.6813 39.6732 79.0025 39.7059 80.3099 39.5602C80.5105 39.5491 80.7068 39.4981 80.8874 39.41C80.9807 39.3464 81.0571 39.261 81.1098 39.1611C81.1625 39.0613 81.1901 38.95 81.19 38.8371C79.0139 38.6061 76.8401 38.4814 74.664 38.2573C74.1223 38.1649 73.5676 38.1829 73.0331 38.3104C72.377 38.5137 71.878 39.0289 71.416 39.5394" fill="black"/>
</g>
<path d="M86.7944 32.3518C85.8542 30.2334 82.5392 24.375 82.5392 24.375L79.9727 27.593L80.571 33.9111C80.571 33.9111 81.927 32.398 85.7179 32.3679C85.9934 32.3789 86.2629 32.4515 86.5067 32.5802C86.7506 32.7089 86.9625 32.8905 87.127 33.1118L86.7944 32.3518Z" fill="#2642CA"/>
<path d="M71.3832 31.235C71.2001 30.7859 71.0549 30.3223 70.9489 29.849C70.8055 29.3879 70.7004 28.9158 70.6348 28.4375C70.8152 28.8874 70.9596 29.3508 71.0668 29.8236C71.2103 30.2847 71.3161 30.7568 71.3832 31.235Z" fill="#263238"/>
<path d="M79.7781 27.168C79.8616 27.227 79.939 27.2944 80.0091 27.3689C80.2132 27.5661 80.4045 27.7759 80.582 27.9973C81.1793 28.7275 81.5992 29.5862 81.8086 30.5061C81.9174 31.0145 81.9416 31.5375 81.8803 32.0538C81.8225 32.5274 81.7324 32.9432 81.6724 33.2943C81.6123 33.6455 81.5753 33.9319 81.5568 34.1306C81.5563 34.2338 81.5455 34.3368 81.5245 34.4378C81.5082 34.3347 81.5035 34.2301 81.5107 34.126C81.5208 33.8429 81.547 33.5606 81.5892 33.2805C81.6377 32.927 81.7186 32.5066 81.7717 32.0423C81.8251 31.5376 81.7978 31.0276 81.6908 30.5315C81.4839 29.6288 81.0827 28.7821 80.515 28.0504C80.0923 27.4821 79.7596 27.1864 79.7781 27.168Z" fill="#263238"/>
<path d="M77.4266 41.6547C77.3463 41.6905 77.2616 41.7153 77.1747 41.7286C77.0761 41.7547 76.9757 41.774 76.8744 41.7864C76.7566 41.8025 76.6226 41.828 76.4725 41.8349C76.1205 41.8672 75.7664 41.8672 75.4145 41.8349C74.9838 41.7906 74.5584 41.7055 74.1439 41.5808C73.7315 41.4482 73.3324 41.2773 72.9519 41.0702C72.6434 40.8981 72.3505 40.6994 72.0764 40.4765C71.9562 40.3841 71.8592 40.2871 71.7714 40.2063C71.6957 40.1381 71.624 40.0656 71.5566 39.9891C71.4924 39.9297 71.4371 39.8612 71.3926 39.7858C71.4087 39.7697 71.6559 40.0469 72.1295 40.4096C72.4062 40.6201 72.6989 40.8085 73.005 40.9732C73.3812 41.1709 73.7739 41.3355 74.1786 41.4653C74.586 41.588 75.0034 41.6746 75.426 41.724C75.7712 41.7611 76.1187 41.772 76.4656 41.7563C77.0592 41.724 77.4219 41.6362 77.4266 41.6547Z" fill="#263238"/>
<path d="M80.9817 40.3438C81.0361 40.4482 81.0669 40.5634 81.0718 40.681C81.1087 40.9626 81.0875 41.2488 81.0095 41.5219C80.9301 41.8012 80.7692 42.0506 80.5474 42.238C80.3788 42.3789 80.2494 42.4228 80.2425 42.4113C80.2356 42.3997 80.3441 42.3235 80.4897 42.1803C80.6765 41.9854 80.8122 41.7473 80.8847 41.4872C81.0695 40.8774 80.9378 40.3461 80.9817 40.3438Z" fill="#263238"/>
<path d="M80.3558 41.1602C80.4059 41.3978 80.3859 41.6448 80.2981 41.8712C80.2103 42.0976 80.0586 42.2936 79.8614 42.4353C79.836 42.4099 80.0509 42.1812 80.1849 41.8278C80.3188 41.4743 80.3212 41.1625 80.3558 41.1602Z" fill="#263238"/>
<path d="M78.2959 33.5625C78.1735 33.7694 78.0361 33.9671 77.8847 34.1539C77.7653 34.3625 77.6302 34.5618 77.4805 34.7499C77.5248 34.5061 77.6297 34.2773 77.7854 34.0846C77.9085 33.8701 78.0842 33.6904 78.2959 33.5625Z" fill="#263238"/>
<path d="M70.3912 27.962C70.2152 27.8586 70.0448 27.746 69.8807 27.6247C69.0591 27.0849 68.1267 26.7368 67.1525 26.606C66.9485 26.5911 66.7457 26.5641 66.5449 26.5251C66.7495 26.4968 66.9571 26.4968 67.1617 26.5251C68.1625 26.6105 69.121 26.9676 69.9338 27.5577C70.1043 27.6706 70.2583 27.8067 70.3912 27.962Z" fill="#263238"/>
<path d="M82.5403 24.3047C82.1269 24.6376 81.7407 25.003 81.3853 25.3974C81.0581 25.8182 80.7653 26.2647 80.5098 26.7326C80.5371 26.5753 80.591 26.4237 80.6692 26.2844C80.8364 25.9381 81.0459 25.6137 81.2929 25.3188C81.5406 25.0245 81.8247 24.7629 82.1384 24.5403C82.2578 24.4392 82.3938 24.3595 82.5403 24.3047Z" fill="#263238"/>
<path d="M77.7856 22.3945C77.8067 22.4279 77.8237 22.4635 77.8365 22.5008C77.8815 22.6054 77.9179 22.7136 77.945 22.8242C78.0424 23.2359 78.0424 23.6646 77.945 24.0763C77.8013 24.6908 77.4723 25.2464 77.0025 25.6679C76.4096 26.1702 75.6542 26.4395 74.8772 26.4257C74.0996 26.4283 73.342 26.1796 72.7173 25.7165C72.2196 25.3364 71.8157 24.8472 71.5368 24.2865C71.349 23.9111 71.2167 23.5103 71.1441 23.0968C71.1229 22.9854 71.109 22.8727 71.1025 22.7595C71.096 22.7197 71.096 22.6792 71.1025 22.6394C71.1025 22.6394 71.1279 22.8011 71.1926 23.0876C71.2825 23.4894 71.4246 23.8777 71.6154 24.2426C71.8972 24.7864 72.2974 25.2601 72.7866 25.6287C73.3885 26.0744 74.1167 26.3171 74.8657 26.3217C75.6145 26.3355 76.3434 26.0797 76.9194 25.6009C77.3732 25.1949 77.695 24.6623 77.8434 24.0717C77.9462 23.673 77.9604 23.2567 77.885 22.8519C77.8411 22.547 77.7718 22.3992 77.7856 22.3945Z" fill="#263238"/>
<g opacity="0.3">
<path d="M78.5939 33.9671C78.5939 33.8516 78.5755 33.7153 78.4738 33.6575C78.4416 33.6413 78.406 33.6328 78.3699 33.6328C78.3338 33.6328 78.2981 33.6413 78.2659 33.6575C78.2013 33.6924 78.144 33.7395 78.0973 33.7961C77.8257 34.0788 77.6157 34.4146 77.4805 34.7825L78.6124 34.6832C78.6055 34.4499 78.6009 34.205 78.5939 33.9671Z" fill="black"/>
</g>
<g opacity="0.3">
<path d="M82.3536 31.5877C82.2399 30.94 81.9561 30.3341 81.5312 29.832C82.021 31.4306 81.857 32.3339 81.5821 33.4288L81.6421 33.2764C81.9586 32.6365 82.4391 32.2345 82.3536 31.5877Z" fill="black"/>
</g>
<path d="M80.0902 85.2846L79.3994 95.6454L74.8947 95.5923L74.1855 84.8203L80.0902 85.2846Z" fill="#FFBE9D"/>
<path d="M79.5265 94.2844V94.5847C79.5265 94.5847 84.6088 96.6268 84.6573 97.5878L74.5645 97.5324L74.7215 94.1758C76.2254 94.8804 77.7986 94.9681 79.5265 94.2844Z" fill="#2642CA"/>
<path d="M75.7434 95.2522C75.6476 95.2812 75.5656 95.3441 75.5129 95.4291C75.4602 95.5142 75.4403 95.6156 75.4569 95.7142C75.4816 95.8128 75.5435 95.8979 75.6297 95.9518C75.7159 96.0056 75.8195 96.024 75.9189 96.003C76.0217 95.9723 76.1094 95.9044 76.1649 95.8126C76.2204 95.7208 76.2398 95.6116 76.2192 95.5063C76.1826 95.4066 76.1086 95.325 76.0129 95.2788C75.9172 95.2327 75.8072 95.2256 75.7064 95.2592" fill="white"/>
<path d="M74.5645 97.5328L74.6014 96.7266L84.2669 97.0777C84.2669 97.0777 84.715 97.2764 84.6619 97.5905L74.5645 97.5328Z" fill="#263238"/>
<path d="M79.5625 94.6135C79.5625 94.662 79.313 94.6828 79.0704 94.8445C78.8278 95.0062 78.6962 95.2072 78.6523 95.1887C78.6084 95.1703 78.6823 94.8838 78.9803 94.699C79.2783 94.5142 79.574 94.5604 79.5625 94.6135Z" fill="#263238"/>
<path d="M80.6211 95.0573C80.6327 95.1058 80.4178 95.1866 80.2492 95.3945C80.0806 95.6024 80.032 95.8219 79.9812 95.8196C79.9304 95.8173 79.9027 95.5378 80.1175 95.286C80.3324 95.0342 80.6188 95.0226 80.6211 95.0573Z" fill="#263238"/>
<path d="M81.2114 96.3257C81.1652 96.3257 81.0982 96.0947 81.2276 95.8198C81.3569 95.5449 81.5856 95.4455 81.6064 95.4848C81.6272 95.5241 81.484 95.6696 81.3754 95.8937C81.2668 96.1178 81.2622 96.3211 81.2114 96.3257Z" fill="#263238"/>
<path d="M79.266 9.51369C79.5271 8.86687 79.2106 8.08374 78.6492 7.66562C78.0576 7.27616 77.3362 7.13587 76.6418 7.27521C75.9567 7.41886 75.2934 7.65186 74.6689 7.96824C74.3786 7.6754 74.0125 7.46903 73.6117 7.37218C73.2108 7.27533 72.791 7.2918 72.3989 7.41977C72.0069 7.54773 71.6582 7.78214 71.3916 8.09682C71.1251 8.41151 70.9513 8.79409 70.8896 9.20183C70.6399 9.13896 70.3777 9.14529 70.1312 9.22013C69.8848 9.29498 69.6634 9.43551 69.4907 9.62666C69.3181 9.81781 69.2008 10.0524 69.1514 10.3051C69.1019 10.5579 69.1223 10.8194 69.2102 11.0615L72.3334 12.1588L75.7431 18.165C76.2471 18.5949 76.8902 18.8268 77.5525 18.8174C78.2148 18.8081 78.8511 18.558 79.3427 18.114C79.8342 17.67 80.1474 17.0623 80.2239 16.4043C80.3003 15.7463 80.1347 15.083 79.7581 14.5382C79.9491 14.3683 80.1114 14.1685 80.2386 13.9468C80.5111 13.7856 80.7488 13.572 80.938 13.3182C81.1271 13.0643 81.264 12.7755 81.3405 12.4683C81.6431 11.1308 80.6082 9.67078 79.266 9.51369Z" fill="#263238"/>
<path d="M77.2011 22.0238C77.007 21.0466 76.873 20.3767 76.8753 20.3836C76.8777 20.3905 78.7234 19.6675 78.5894 17.0964C78.5248 15.8166 78.0373 13.7998 77.5845 12.1643C77.178 10.6905 75.8035 9.06646 74.3504 9.53541L69.9451 11.6838C69.5038 11.827 69.4276 12.2428 69.5315 12.6933V12.9243L71.2433 20.0071L71.9664 23.1719C72.1205 23.8218 72.5124 24.3904 73.0648 24.7658C73.6172 25.1412 74.2901 25.2961 74.951 25.2002C75.312 25.1494 75.6588 25.0254 75.9701 24.8358C76.2814 24.6461 76.5507 24.3949 76.7614 24.0974C76.9721 23.8 77.1198 23.4626 77.1954 23.106C77.271 22.7494 77.2729 22.3812 77.2011 22.0238Z" fill="#FFBE9D"/>
<path d="M77.5669 13.8699C77.5855 13.9519 77.5718 14.0378 77.5289 14.11C77.4859 14.1822 77.4168 14.2352 77.3359 14.258C77.2951 14.2694 77.2524 14.2724 77.2104 14.2669C77.1684 14.2613 77.1279 14.2474 77.0914 14.2258C77.055 14.2042 77.0232 14.1755 76.9982 14.1413C76.9731 14.1071 76.9552 14.0683 76.9455 14.027C76.9271 13.9453 76.9408 13.8597 76.9838 13.7878C77.0268 13.716 77.0958 13.6635 77.1765 13.6412C77.2172 13.6294 77.2598 13.6261 77.3018 13.6313C77.3438 13.6365 77.3843 13.6503 77.4209 13.6717C77.4574 13.6931 77.4892 13.7217 77.5143 13.7558C77.5394 13.7898 77.5573 13.8287 77.5669 13.8699Z" fill="#263238"/>
<path d="M77.365 13.3841C77.3326 13.4349 77.0531 13.3079 76.7112 13.3841C76.3693 13.4603 76.1522 13.6821 76.106 13.6474C76.0598 13.6128 76.106 13.5481 76.2007 13.4465C76.3278 13.3122 76.4931 13.2202 76.6743 13.1831C76.853 13.1446 77.0393 13.1648 77.2056 13.2409C77.3349 13.294 77.3788 13.3633 77.365 13.3841Z" fill="#263238"/>
<path d="M74.2135 14.6302C74.2319 14.7119 74.2182 14.7976 74.1752 14.8694C74.1322 14.9412 74.0632 14.9937 73.9825 15.016C73.9426 15.0276 73.9008 15.0312 73.8595 15.0266C73.8182 15.0219 73.7783 15.0091 73.7419 14.9889C73.7056 14.9687 73.6737 14.9415 73.648 14.9089C73.6222 14.8763 73.6032 14.8389 73.5921 14.7989C73.5735 14.7169 73.5872 14.631 73.6301 14.5587C73.6731 14.4865 73.7422 14.4336 73.8231 14.4108C73.8631 14.3992 73.9051 14.3957 73.9465 14.4005C73.9879 14.4053 74.0279 14.4183 74.0642 14.4387C74.1006 14.4592 74.1325 14.4866 74.1581 14.5195C74.1837 14.5524 74.2026 14.59 74.2135 14.6302Z" fill="#263238"/>
<path d="M74.0447 14.1965C74.0146 14.2473 73.7328 14.1179 73.3909 14.1965C73.049 14.275 72.8319 14.4922 72.7857 14.4598C72.7395 14.4275 72.7857 14.3605 72.8804 14.2565C73.0081 14.1234 73.1732 14.0324 73.3539 13.9955C73.5325 13.9575 73.7184 13.9769 73.8853 14.0509C74.0077 14.1064 74.0608 14.1688 74.0447 14.1965Z" fill="#263238"/>
<path d="M75.7851 16.3678C75.9545 16.2743 76.1344 16.2015 76.321 16.1506C76.4065 16.1229 76.4873 16.0883 76.4897 16.0259C76.4776 15.934 76.4381 15.8479 76.3765 15.7787L75.9768 15.1642C75.4178 14.2887 74.9927 13.5633 75.0274 13.5472C75.062 13.531 75.5448 14.2171 76.1039 15.0926L76.4943 15.7117C76.571 15.8065 76.6126 15.9248 76.6121 16.0467C76.6052 16.0799 76.5911 16.1112 76.5707 16.1384C76.5503 16.1655 76.5243 16.1878 76.4943 16.2038C76.4491 16.2277 76.4009 16.2456 76.3511 16.2569C76.1683 16.3195 75.9779 16.3568 75.7851 16.3678Z" fill="#263238"/>
<path d="M76.8741 20.3847C75.7057 20.6488 74.4869 20.5832 73.3535 20.1953C73.3535 20.1953 74.564 21.7754 77.0058 21.02L76.8741 20.3847Z" fill="#EB996E"/>
<path d="M74.103 13.7033C74.0799 13.8026 73.7264 13.8003 73.3245 13.8996C72.9225 13.999 72.6037 14.1491 72.539 14.0706C72.5113 14.0336 72.5575 13.9366 72.6799 13.8396C72.8427 13.7025 73.036 13.6067 73.2436 13.5601C73.4494 13.5112 73.6638 13.5112 73.8696 13.5601C74.0337 13.5901 74.1191 13.6571 74.103 13.7033Z" fill="#263238"/>
<path d="M77.236 12.2885C77.1806 12.3809 76.8849 12.3578 76.543 12.4248C76.2011 12.4918 75.9308 12.6073 75.85 12.5403C75.813 12.5056 75.85 12.4178 75.9493 12.3093C76.1018 12.181 76.2862 12.0964 76.4829 12.0644C76.6764 12.0254 76.8769 12.0398 77.0628 12.106C77.2037 12.1707 77.2591 12.2423 77.236 12.2885Z" fill="#263238"/>
<path d="M71.034 10.0283C71.0851 10.2786 71.1907 10.5145 71.3433 10.7194C71.4959 10.9242 71.6917 11.0929 71.9169 11.2135C72.142 11.3341 72.3909 11.4037 72.646 11.4173C72.901 11.4308 73.156 11.388 73.3926 11.292C73.7576 11.1441 74.1365 10.8669 74.5061 11.0009C74.8757 11.1349 75.0282 11.6616 75.3816 11.8579C75.9014 12.149 76.5367 11.6454 77.1165 11.6962C77.5785 11.7355 77.9273 12.089 78.2854 12.3893C78.6435 12.6896 79.1378 12.916 79.5421 12.6988C79.4495 12.313 79.3123 11.9394 79.1332 11.5854C78.9526 11.229 78.6537 10.9464 78.2877 10.7861C78.0844 10.7052 77.865 10.6775 77.6709 10.5781C77.2528 10.3656 77.0657 9.88512 76.7631 9.52243C76.5643 9.29388 76.3139 9.11599 76.0327 9.0035C75.7515 8.89101 75.4475 8.84717 75.146 8.87561C74.647 8.92643 74.1734 9.17823 73.6698 9.15744C73.2979 9.14127 72.9422 8.97494 72.5702 8.98187C71.8472 8.98187 71.3043 9.6287 70.9023 10.2316" fill="#263238"/>
<path d="M73.4678 10.5587C73.1351 10.5333 72.456 10.464 72.2319 10.2283C72.0042 9.97372 71.7137 9.78337 71.3894 9.67634C71.065 9.5693 70.7183 9.54935 70.3838 9.61847C70.0519 9.71741 69.7605 9.92031 69.5526 10.1973C69.3447 10.4742 69.2312 10.8107 69.2288 11.157C68.8246 11.2556 68.4545 11.4616 68.1577 11.7531C67.8609 12.0447 67.6483 12.411 67.5424 12.8133C67.4349 13.2345 67.4312 13.6756 67.5318 14.0985C67.6324 14.5214 67.8343 14.9136 68.1199 15.2412C68.2587 15.4148 68.3853 15.5977 68.4988 15.7887C68.3421 15.9831 68.2044 16.1919 68.0876 16.4125C67.5586 17.5814 68.9931 18.0295 68.9931 18.0295C68.9931 18.815 69.7208 18.8103 70.1851 18.808C70.6495 18.8057 70.9059 20.0462 71.2686 19.9977L70.9013 16.1699C70.9551 16.1908 71.0122 16.2018 71.0699 16.2022C71.9454 16.2184 71.7167 14.5598 71.4349 14.1232C71.6958 13.7984 71.9161 13.4431 72.091 13.0651C72.2496 12.4873 72.2607 11.8789 72.1233 11.2956C72.4167 11.2586 73.611 10.5679 73.4678 10.5587Z" fill="#263238"/>
<path d="M71.0157 16.3735C70.9859 16.2519 70.9257 16.1398 70.8409 16.0477C70.756 15.9556 70.6492 15.8865 70.5304 15.8468C70.4116 15.8071 70.2847 15.7982 70.1616 15.8208C70.0384 15.8434 69.923 15.8969 69.826 15.9762C69.595 16.1748 69.4726 16.5075 69.6112 17.0642C69.9854 18.5519 71.4015 17.8704 71.3923 17.8289C71.383 17.7873 71.1774 16.988 71.0157 16.3735Z" fill="#FFBE9D"/>
<path d="M70.7963 17.3778C70.7963 17.3778 70.7755 17.4032 70.7362 17.4332C70.6816 17.4751 70.6129 17.4941 70.5445 17.4863C70.3735 17.4678 70.1772 17.2553 70.1033 16.985C70.068 16.8588 70.0609 16.7263 70.0825 16.5969C70.0848 16.5467 70.0993 16.4978 70.1246 16.4543C70.1499 16.4109 70.1854 16.3742 70.228 16.3475C70.2561 16.3323 70.2885 16.3275 70.3197 16.3339C70.351 16.3402 70.379 16.3573 70.3989 16.3821C70.429 16.4168 70.4267 16.4491 70.4359 16.4514C70.4451 16.4537 70.4613 16.4168 70.4359 16.359C70.4182 16.3248 70.3898 16.2972 70.3551 16.2805C70.3062 16.2607 70.2515 16.2607 70.2026 16.2805C70.1446 16.308 70.0945 16.3498 70.0569 16.4019C70.0193 16.454 69.9956 16.5147 69.9877 16.5785C69.9578 16.7239 69.9633 16.8745 70.0039 17.0174C70.0297 17.1515 70.0945 17.2751 70.1903 17.3725C70.2861 17.4699 70.4085 17.5368 70.5422 17.5649C70.5857 17.5666 70.629 17.5586 70.669 17.5414C70.7089 17.5242 70.7445 17.4983 70.7732 17.4655C70.8032 17.4147 70.8032 17.3801 70.7963 17.3778Z" fill="#EB996E"/>
<path d="M78.9937 14.2954C78.9937 14.2954 79.13 14.1915 79.3194 13.9604C79.5808 13.6276 79.7411 13.2267 79.7814 12.8054C79.812 12.5178 79.7837 12.227 79.6983 11.9507C79.5996 11.6337 79.4167 11.3495 79.1692 11.1283C78.8835 10.8787 78.5374 10.7082 78.1655 10.6336C77.7935 10.5591 77.4084 10.583 77.0486 10.7032C76.9793 10.7263 76.9146 10.761 76.8499 10.7887C76.7852 10.8164 76.7275 10.858 76.6674 10.8926L76.575 10.9435V10.8418C76.573 10.6629 76.5066 10.4906 76.3879 10.3567C76.2663 10.2267 76.1171 10.1257 75.9513 10.061C75.6375 9.93026 75.2899 9.90433 74.9602 9.98708C74.3227 10.1326 73.7821 10.4237 73.2716 10.4838C72.8712 10.5533 72.4593 10.4709 72.1165 10.2527C72.026 10.1905 71.9477 10.1122 71.8855 10.0217C71.8485 9.95936 71.8301 9.92471 71.8347 9.9224C71.9184 10.0365 72.0207 10.1357 72.1373 10.2158C72.4746 10.4105 72.8708 10.4769 73.2531 10.4029C73.5191 10.3528 73.7792 10.2754 74.0293 10.1719C74.3229 10.0545 74.6238 9.95652 74.9302 9.87851C75.101 9.83718 75.2767 9.8193 75.4523 9.82537C75.6376 9.83516 75.8198 9.87738 75.9906 9.95012C76.1672 10.0256 76.325 10.1392 76.4526 10.2828C76.5892 10.4392 76.6661 10.6388 76.6697 10.8464L76.5773 10.7956L76.7691 10.6847C76.8407 10.657 76.9077 10.62 76.9816 10.5946C77.3608 10.4647 77.7677 10.4376 78.1609 10.5159C78.5541 10.5942 78.9195 10.7752 79.2201 11.0405C79.4799 11.2757 79.6701 11.5778 79.7699 11.9137C79.8735 12.2698 79.8875 12.6459 79.8105 13.0087C79.7335 13.3715 79.568 13.7095 79.3286 13.9928C79.2526 14.0796 79.1665 14.1572 79.0722 14.2238C79.049 14.2508 79.0227 14.2748 78.9937 14.2954Z" fill="#455A64"/>
<path d="M78.6914 9.07121C78.5397 8.99422 78.378 8.939 78.2109 8.90719C78.0199 8.88108 77.8255 8.89926 77.6426 8.96032C77.4058 9.03277 77.2 9.18241 77.0582 9.38538L77.0004 9.46624L76.9658 9.37383C76.8451 9.08986 76.651 8.84318 76.4033 8.65924C76.1556 8.47529 75.8633 8.36073 75.5566 8.32736C75.0749 8.30924 74.6001 8.44696 74.2029 8.72007C73.8645 8.94069 73.5046 9.12644 73.1287 9.2745C72.8696 9.37252 72.5904 9.40582 72.3155 9.37152C72.2423 9.35799 72.1704 9.33789 72.1007 9.31146C72.0545 9.29067 72.0291 9.27912 72.0314 9.2745C72.0337 9.26988 72.1353 9.30453 72.3225 9.32301C72.5882 9.33961 72.8543 9.29619 73.101 9.19595C73.4662 9.03668 73.8165 8.84494 74.1474 8.62305C74.3519 8.4961 74.5686 8.39007 74.7943 8.30657C75.0424 8.2161 75.3076 8.18216 75.5705 8.20723C75.8981 8.24301 76.2099 8.36695 76.4727 8.56587C76.7355 8.76479 76.9394 9.03124 77.0628 9.33687H76.9727C77.1315 9.11978 77.3584 8.96203 77.6172 8.88871C77.8139 8.8317 78.0211 8.82141 78.2225 8.85868C78.3499 8.88288 78.472 8.92983 78.5828 8.99729C78.6224 9.01663 78.6589 9.04152 78.6914 9.07121Z" fill="#455A64"/>
<path d="M75.65 17.0537C75.5961 17.0086 75.5332 16.9754 75.4655 16.9563C75.3978 16.9372 75.3269 16.9326 75.2573 16.9428C75.1759 16.9602 75.0991 16.9945 75.0319 17.0434C74.9646 17.0923 74.9084 17.1549 74.8669 17.227C74.8669 17.227 74.8553 17.2385 74.853 17.2454C74.8212 17.2982 74.8067 17.3596 74.8114 17.421C74.8215 17.4879 74.8478 17.5513 74.8881 17.6057C74.9284 17.6601 74.9814 17.7038 75.0424 17.7329C75.1401 17.7824 75.2506 17.8005 75.359 17.7848C75.4673 17.7691 75.5681 17.7203 75.6477 17.6451C75.7232 17.5653 75.7655 17.4597 75.7659 17.3498C75.7663 17.24 75.7249 17.1341 75.65 17.0537Z" fill="#2642CA"/>
<path d="M75.7651 17.7708C75.7466 17.7708 75.7258 17.7015 75.6635 17.6068C75.5884 17.4798 75.4761 17.379 75.3418 17.3178C75.2076 17.2567 75.0578 17.2382 74.9127 17.2649C74.7995 17.2811 74.7302 17.3134 74.7233 17.2973C74.7163 17.2811 74.7695 17.2256 74.8942 17.1818C75.0575 17.1292 75.2344 17.1391 75.3909 17.2095C75.5487 17.2798 75.6736 17.4079 75.7397 17.5675C75.7882 17.6877 75.7813 17.7685 75.7651 17.7708Z" fill="#263238"/>
<path d="M71.0512 18.0549C71.0512 18.0549 71.1182 18.1704 71.0304 18.346C70.9807 18.451 70.8933 18.5335 70.7855 18.577C70.7182 18.6011 70.6463 18.6092 70.5754 18.6008C70.5044 18.5924 70.4364 18.5676 70.3766 18.5285C70.3158 18.4915 70.2644 18.441 70.2263 18.3809C70.1883 18.3208 70.1646 18.2527 70.1572 18.182C70.1502 18.0678 70.1837 17.9549 70.2519 17.8632C70.372 17.7107 70.506 17.7061 70.506 17.7199C70.506 17.7338 70.4043 17.7731 70.3235 17.9117C70.2767 17.9893 70.2571 18.0804 70.268 18.1704C70.2767 18.2231 70.2966 18.2734 70.3265 18.3176C70.3564 18.3619 70.3956 18.3991 70.4413 18.4268C70.4864 18.4557 70.5371 18.4747 70.59 18.4827C70.6429 18.4906 70.697 18.4873 70.7485 18.473C70.8338 18.4425 70.9074 18.3859 70.9588 18.3113C71.0489 18.1681 71.0327 18.0549 71.0512 18.0549Z" fill="#2642CA"/>
<path d="M70.2734 17.969C70.285 17.969 70.2734 18.0476 70.1648 18.0984C70.1115 18.1206 70.0529 18.127 69.996 18.1169C69.9392 18.1069 69.8863 18.0808 69.8438 18.0417C69.8013 18.0025 69.7709 17.9521 69.7561 17.8962C69.7414 17.8404 69.7429 17.7815 69.7606 17.7265C69.7832 17.664 69.8264 17.6111 69.883 17.5763C69.9777 17.5186 70.0493 17.5417 70.047 17.5555C70.0447 17.5694 69.9916 17.5856 69.9338 17.6433C69.9054 17.6788 69.8881 17.7219 69.8841 17.7672C69.88 17.8125 69.8895 17.858 69.9112 17.8979C69.9329 17.9379 69.9659 17.9706 70.0061 17.9919C70.0463 18.0131 70.0919 18.0221 70.1371 18.0175C70.2157 18.0014 70.2572 17.9598 70.2734 17.969Z" fill="#2642CA"/>
<path d="M72.8111 38.4836C72.8111 38.4836 78.5309 38.8163 81.9129 38.8463C84.5302 38.8717 85.6991 38.1764 86.2212 36.4923C86.6601 35.0808 85.7176 32.3711 85.7176 32.3711C83.9458 32.3711 82.8531 32.6252 81.7142 33.1588L82.0168 34.397L72.7949 35.1917L72.8111 38.4836Z" fill="#FFBE9D"/>
<path d="M83.938 35.7183C83.69 35.3958 83.4002 35.1076 83.0764 34.8612C82.7289 34.6487 82.3544 34.4839 81.9629 34.3715C82.0862 34.3538 82.2119 34.3648 82.3302 34.4038C82.6208 34.4725 82.8965 34.5939 83.1434 34.7619C83.3907 34.9304 83.6046 35.1435 83.774 35.3903C83.9034 35.5797 83.9519 35.7114 83.938 35.7183Z" fill="#EB996E"/>
<path d="M70.7186 33.1456C70.7186 33.1456 68.949 33.5706 67.6484 34.4392L69.0345 38.1954C69.4965 39.429 70.908 40.0435 72.0376 39.3967C73.7771 38.401 74.3916 35.4996 74.3916 35.4996L76.3021 27.2109L73.1349 25.2266L70.7301 33.1456" fill="#FFBE9D"/>
<path d="M73.1229 25.2308L73.2523 22.5049L72.5431 19.7328C72.5038 19.5803 72.4853 19.3886 72.6101 19.2962C72.6719 19.2488 72.7483 19.2242 72.8262 19.2267C72.9041 19.2293 72.9788 19.2587 73.0374 19.31C73.2292 19.5087 74.1532 21.932 74.1532 21.932C74.1532 21.932 75.5554 21.0911 75.8049 21.0496C76.0544 21.008 76.3663 21.7634 76.3871 21.8211C76.3963 21.9904 76.3963 22.1601 76.3871 22.3293C76.3871 22.3293 77.2534 22.3548 77.3319 22.4726C77.3949 22.7133 77.4283 22.9607 77.4312 23.2095C77.4312 23.2095 77.7986 23.3273 77.8563 23.6045C77.9141 23.8817 78.0342 24.3391 77.8563 24.4408C77.6784 24.5424 77.3181 24.7411 77.3181 24.7411C77.3181 24.7411 77.1725 26.1549 77.1332 26.2842C77.094 26.4136 76.2831 27.2083 76.2831 27.2083L73.1229 25.2308Z" fill="#FFBE9D"/>
<path d="M70.1777 39.4557C70.1777 39.4557 70.2632 39.5065 70.4434 39.5643C70.7069 39.6469 70.9856 39.6691 71.2589 39.629C71.6978 39.5663 72.1089 39.3769 72.4416 39.0838C72.8813 38.6849 73.2528 38.2166 73.5412 37.6977C73.7111 37.3927 73.8541 37.0735 73.9686 36.7436C74.0887 36.3807 74.1882 36.0113 74.2666 35.6371C74.4468 34.8586 74.6432 34.02 74.8511 33.1283C75.2669 31.3473 75.7335 29.356 76.2371 27.2099V27.1937H76.2487C76.4081 27.0366 76.5675 26.8772 76.7269 26.7109C76.8054 26.6277 76.8839 26.5446 76.9579 26.4591C76.9948 26.4152 77.0341 26.3713 77.0641 26.3274C77.0875 26.2839 77.1009 26.2358 77.1034 26.1865C77.1658 25.7245 77.2143 25.2463 77.2651 24.7635V24.7335L77.2928 24.7196L77.7341 24.4724C77.7664 24.4516 77.8172 24.4285 77.838 24.41C77.8601 24.3901 77.8748 24.3632 77.8796 24.3338C77.8903 24.2572 77.8903 24.1794 77.8796 24.1028C77.8572 23.9334 77.8225 23.7658 77.7756 23.6015C77.6971 23.4578 77.5651 23.3508 77.4083 23.3035L77.3691 23.2896V23.2504C77.3691 23.1164 77.3552 22.9778 77.339 22.8415C77.3328 22.7732 77.3227 22.7054 77.309 22.6382C77.3036 22.6086 77.2943 22.5798 77.2813 22.5527C77.2813 22.5366 77.2813 22.5527 77.2674 22.5389C77.2549 22.5323 77.2417 22.5269 77.2281 22.5227C76.9503 22.4622 76.667 22.4304 76.3827 22.428H76.3226V22.3679C76.3226 22.2247 76.3226 22.0653 76.3226 21.9059C76.3131 21.8515 76.2943 21.7992 76.2671 21.7511C76.244 21.6957 76.2163 21.6425 76.1886 21.5871C76.1345 21.4801 76.0711 21.3781 75.9992 21.2822C75.9665 21.2375 75.9267 21.1985 75.8814 21.1667C75.8646 21.1525 75.844 21.1436 75.8223 21.1412C75.8005 21.1387 75.7784 21.1427 75.7589 21.1528C75.6472 21.1956 75.5383 21.2458 75.4332 21.303C75.0035 21.534 74.5831 21.765 74.1719 22.0145L74.1118 22.0514L74.0864 21.9867C73.8693 21.4393 73.6521 20.8987 73.4396 20.3697C73.3333 20.104 73.2294 19.8384 73.1231 19.5773C73.1067 19.5188 73.0742 19.4662 73.0292 19.4253C72.9843 19.3844 72.9288 19.3571 72.869 19.3463C72.8138 19.328 72.754 19.329 72.6994 19.3491C72.6448 19.3693 72.5987 19.4074 72.5687 19.4572C72.5399 19.5068 72.5277 19.5642 72.534 19.6212C72.534 19.672 72.5664 19.7506 72.5802 19.8129C72.6172 19.9469 72.6518 20.0786 72.6865 20.2103C72.7558 20.4759 72.8228 20.737 72.8921 20.9957C73.0276 21.5163 73.1608 22.0245 73.2917 22.5204V22.5366C73.2455 23.4852 73.2017 24.3939 73.1601 25.2625V25.2578L71.0556 32.105L70.4619 34.0108C70.3926 34.2256 70.3394 34.3943 70.3025 34.5121C70.2655 34.6299 70.2424 34.6807 70.2424 34.6807C70.2424 34.6807 70.254 34.6207 70.2863 34.5075L70.4318 34.0016C70.5658 33.5557 70.7576 32.9112 71.0001 32.0888C71.4991 30.4348 72.2083 28.0739 73.0654 25.2278V25.2394C73.1054 24.3738 73.1462 23.4652 73.1878 22.5134V22.5296C73.0561 22.033 72.9198 21.5247 72.7835 21.0073L72.5756 20.2218C72.541 20.0902 72.5063 19.9562 72.4694 19.8245C72.4495 19.7553 72.4333 19.6852 72.4208 19.6143C72.4123 19.5341 72.4293 19.4533 72.4694 19.3833C72.5121 19.3112 72.5781 19.2558 72.6565 19.2262C72.734 19.2035 72.8161 19.2009 72.8949 19.2187C72.9737 19.2365 73.0467 19.274 73.1069 19.3278C73.1649 19.3822 73.2079 19.4506 73.2317 19.5265L73.5482 20.3189C73.763 20.8502 73.9778 21.3907 74.1973 21.9359L74.1118 21.9059C74.5253 21.661 74.9412 21.4162 75.3801 21.1875C75.491 21.1295 75.6052 21.0778 75.722 21.0327C75.7585 21.0175 75.7982 21.0119 75.8375 21.0165C75.877 21.0222 75.9148 21.0364 75.9484 21.0581C76.004 21.098 76.0531 21.1463 76.0939 21.2013C76.1711 21.3024 76.2384 21.4107 76.2949 21.5247C76.3249 21.5825 76.3526 21.6379 76.378 21.6957C76.4109 21.7568 76.4328 21.8233 76.4427 21.892C76.4427 22.056 76.4427 22.2085 76.4427 22.3541L76.385 22.2917C76.6819 22.2937 76.9778 22.3278 77.2674 22.3933C77.2873 22.4003 77.3066 22.4088 77.3252 22.4187C77.3506 22.4326 77.3714 22.4534 77.3852 22.4788C77.4032 22.5163 77.4163 22.5559 77.4245 22.5966C77.4384 22.6705 77.4476 22.7398 77.4569 22.8115C77.4707 22.9524 77.48 23.091 77.4869 23.2296L77.4453 23.1741C77.5398 23.2019 77.6276 23.2485 77.7035 23.3113C77.7793 23.374 77.8416 23.4515 77.8865 23.5391C77.9372 23.7147 77.9742 23.8939 77.9974 24.0751C78.0135 24.1676 78.0135 24.2621 77.9974 24.3546C77.9874 24.4106 77.9579 24.4613 77.9142 24.4978C77.8764 24.5232 77.837 24.5463 77.7964 24.5671L77.3575 24.7958L77.3875 24.7519C77.3344 25.2347 77.2859 25.7083 77.2212 26.1773L77.2074 26.2674C77.202 26.3038 77.1868 26.3382 77.1635 26.3667C77.1295 26.4173 77.0916 26.4651 77.0503 26.5099C76.9717 26.5977 76.8932 26.6832 76.8193 26.7663C76.6599 26.9327 76.5005 27.0921 76.3388 27.2491L76.3549 27.2214C75.8467 29.3652 75.3755 31.3565 74.9527 33.1376C74.7425 34.027 74.5415 34.8655 74.3567 35.6417C74.2776 36.0187 74.1758 36.3905 74.0518 36.7552C73.9329 37.0881 73.7861 37.4104 73.6128 37.7185C73.3177 38.2441 72.9376 38.7171 72.4878 39.1184C72.1452 39.4134 71.7235 39.6014 71.275 39.659C70.9959 39.6965 70.7118 39.668 70.4457 39.5758C70.378 39.5509 70.3124 39.5208 70.2493 39.4857L70.1777 39.4557Z" fill="#EB996E"/>
<path d="M76.3904 22.3367C76.3904 22.3528 76.3119 22.3621 76.1894 22.3667C76.034 22.3697 75.8792 22.3882 75.7274 22.4221C75.5809 22.4582 75.4459 22.5304 75.3347 22.6324C75.2515 22.7109 75.2146 22.7779 75.1961 22.771C75.1776 22.764 75.1961 22.6809 75.2723 22.5746C75.3799 22.4401 75.5296 22.3457 75.6974 22.3066C75.8591 22.2668 76.027 22.2589 76.1917 22.2835C76.3165 22.2997 76.3904 22.3205 76.3904 22.3367Z" fill="#EB996E"/>
<path d="M75.7207 22.3608C75.6906 22.3493 75.6883 22.2777 75.7207 22.2014C75.753 22.1252 75.7992 22.0721 75.8292 22.0836C75.8593 22.0952 75.8639 22.1668 75.8292 22.243C75.7946 22.3192 75.7438 22.3724 75.7207 22.3608Z" fill="#EB996E"/>
<path d="M77.469 23.1957C77.2447 23.2651 77.0106 23.2971 76.776 23.2905C76.7021 23.288 76.6287 23.3033 76.562 23.335C76.4953 23.3668 76.4372 23.4141 76.3925 23.473C76.3324 23.5677 76.3532 23.6462 76.3347 23.6508C76.3163 23.6555 76.2608 23.5746 76.3186 23.436C76.3504 23.358 76.4084 23.2934 76.4826 23.2535C76.5681 23.2066 76.6626 23.1782 76.7598 23.1703C76.9957 23.1342 77.2363 23.1428 77.469 23.1957Z" fill="#EB996E"/>
<path d="M77.3171 24.0313C77.3494 24.0313 77.3679 24.2022 77.3587 24.4124C77.3494 24.6227 77.3148 24.789 77.2824 24.789C77.2501 24.789 77.2293 24.6157 77.2385 24.4055C77.2478 24.1953 77.2824 24.029 77.3171 24.0313Z" fill="#EB996E"/>
<path d="M78.2754 30.251L78.481 29.5441C78.4904 29.5117 78.5081 29.4824 78.5323 29.4589C78.5565 29.4355 78.5864 29.4187 78.619 29.4103C78.6516 29.4019 78.6859 29.4022 78.7184 29.4111C78.7509 29.4199 78.7805 29.4371 78.8044 29.4609L79.0747 29.7358L79.241 29.0682C79.2508 29.0296 79.2722 28.995 79.3023 28.969C79.3324 28.943 79.3698 28.9269 79.4094 28.9229C79.449 28.9188 79.4889 28.9271 79.5236 28.9465C79.5584 28.9658 79.5863 28.9954 79.6037 29.0312L79.9802 29.8213L78.2754 30.251Z" fill="white"/>
<path d="M79.9852 30.125C79.7268 30.2499 79.4524 30.3385 79.1697 30.3884C78.8964 30.4776 78.6117 30.5274 78.3242 30.5362C78.8561 30.3226 79.4151 30.1842 79.9852 30.125Z" fill="white"/>
<path d="M66.2467 26.1797C66.2467 26.1797 66.1612 26.2675 66.0411 26.4546C65.8798 26.7211 65.7738 27.0172 65.7292 27.3255C65.6634 27.7845 65.6494 28.2494 65.6876 28.7116C65.713 29.2359 65.7546 29.8088 65.8193 30.4095C65.9287 31.4352 66.0914 32.4546 66.3067 33.4634C66.3876 33.8515 66.4615 34.1564 66.5123 34.3875C66.5354 34.4845 66.5562 34.5653 66.5724 34.6346C66.5886 34.7039 66.5909 34.7224 66.5909 34.7224C66.5909 34.7224 66.5793 34.6947 66.5632 34.6393C66.547 34.5838 66.5216 34.4868 66.4962 34.3921C66.4384 34.1772 66.3599 33.8677 66.2652 33.4796C66.0406 32.4711 65.8732 31.4507 65.7639 30.4233C65.6992 29.8227 65.6599 29.2475 65.6368 28.7231C65.6018 28.2606 65.6188 27.7957 65.6876 27.337C65.7373 27.0247 65.8505 26.726 66.0203 26.4592C66.0828 26.3563 66.159 26.2623 66.2467 26.1797Z" fill="white"/>
<path d="M71.1108 23.0356L71.0577 23.0633L70.9052 23.1372C70.7735 23.1996 70.5818 23.292 70.3531 23.4191C69.7569 23.7516 69.1779 24.1139 68.6182 24.5048C67.9575 24.9668 67.3731 25.3873 66.9457 25.6922L66.4398 26.0503L66.2989 26.145C66.2831 26.1575 66.2661 26.1684 66.248 26.1773C66.2612 26.1618 66.2768 26.1485 66.2943 26.138L66.4282 26.0364L66.9249 25.6645C67.3477 25.3526 67.9298 24.9183 68.5905 24.4655C69.1512 24.073 69.7343 23.7135 70.3369 23.389C70.5679 23.2666 70.762 23.1788 70.8983 23.1211L71.053 23.0564C71.0992 23.0402 71.0992 23.0333 71.1108 23.0356Z" fill="white"/>
<path d="M82.127 24.5383C82.1125 24.5302 82.0993 24.5201 82.0878 24.5082L81.9838 24.4181C81.8551 24.3095 81.7201 24.2084 81.5795 24.1155C81.1106 23.8165 80.613 23.565 80.0941 23.3647C79.5769 23.1598 79.0486 22.984 78.5117 22.838C78.3038 22.7803 78.1375 22.7387 78.0197 22.711L77.888 22.6763C77.872 22.673 77.8564 22.6676 77.8418 22.6602H77.8903L78.0243 22.6856C78.1421 22.7087 78.3107 22.7456 78.5187 22.7988C79.0606 22.9356 79.5931 23.1077 80.1126 23.3139C80.6345 23.5141 81.1326 23.7713 81.598 24.0809C81.7917 24.212 81.9693 24.3655 82.127 24.5383Z" fill="white"/>
<path d="M71.175 42.1713C71.1436 42.1658 71.1133 42.1556 71.0849 42.1413C71.0046 42.106 70.9274 42.0643 70.8539 42.0165C70.7294 41.942 70.6209 41.8436 70.5345 41.7271C70.4481 41.6105 70.3855 41.4781 70.3503 41.3374C70.2869 41.0533 70.3185 40.7562 70.4404 40.4919C70.4756 40.4098 70.5206 40.3322 70.5744 40.2609C70.6113 40.2124 70.6367 40.1893 70.639 40.1916C70.576 40.2901 70.5197 40.3927 70.4704 40.4988C70.363 40.7584 70.338 41.0447 70.3988 41.3189C70.465 41.5897 70.6297 41.8261 70.8608 41.9819C71.0525 42.1205 71.1796 42.1621 71.175 42.1713Z" fill="white"/>
<path d="M70.4414 39.6719C70.4905 39.7636 70.5271 39.8615 70.55 39.9629C70.5861 40.0601 70.6079 40.1621 70.6147 40.2656C70.5622 40.176 70.5247 40.0785 70.5038 39.9768C70.4659 39.8794 70.4448 39.7763 70.4414 39.6719Z" fill="white"/>
<path d="M73.5644 91.4615L80.6102 91.4269L80.4832 67.0669L80.4162 42.2865L70.8686 42.1641L69.1522 45.3982C68.4499 46.6984 68.0022 48.1207 67.8331 49.5887C67.7176 50.7114 68.5585 54.3614 68.8495 55.2854L71.4761 63.6156L73.5644 91.4615Z" fill="#263238"/>
<path d="M82.4845 42.3193L90.228 63.4266C90.6867 64.7866 90.8391 66.2312 90.6742 67.6569C90.5092 69.0827 90.0311 70.4543 89.2739 71.6737L80.283 89.2304L75.2285 82.9053L82.7502 67.1967L76.1202 56.4432L77.236 42.3516L80.3592 42.3008L82.4845 42.3193Z" fill="#263238"/>
<path d="M79.7734 49.3867C79.7734 49.3867 79.7734 49.4237 79.7734 49.4953C79.7734 49.5669 79.785 49.6778 79.7942 49.8141C79.8104 50.0982 79.8312 50.5071 79.8589 51.0361C79.912 52.1057 79.986 53.6419 80.0899 55.5385C80.1939 57.4351 80.2817 59.6967 80.3972 62.2147C80.4526 63.4714 80.5127 64.7904 80.5727 66.158C80.6166 66.851 80.5981 67.5441 80.6051 68.2371C80.612 68.9301 80.6051 69.6601 80.6051 70.3855C80.6051 76.1908 80.6236 81.4462 80.6305 85.2556C80.6305 87.1545 80.6305 88.693 80.6305 89.7626C80.6305 90.2916 80.6305 90.7028 80.6305 90.9892C80.6305 91.1232 80.6305 91.2203 80.6305 91.308C80.6305 91.3958 80.6305 91.4166 80.6305 91.4166C80.6305 91.4166 80.6305 91.3797 80.6305 91.308V90.9892C80.6305 90.7028 80.6305 90.2962 80.6166 89.7626C80.6166 88.693 80.5981 87.1568 80.5843 85.2579C80.5681 81.4485 80.5473 76.1931 80.5242 70.3878C80.5242 69.6624 80.5242 68.9463 80.5242 68.2394C80.5242 67.5325 80.5381 66.8349 80.4942 66.1603C80.4364 64.7951 80.3787 63.476 80.3256 62.2193C80.2193 59.7059 80.1223 57.4443 80.0437 55.5408C79.9652 53.6373 79.9074 52.108 79.8635 51.0384C79.8451 50.5117 79.8312 50.1005 79.822 49.8141C79.822 49.6778 79.822 49.5831 79.822 49.4953C79.822 49.4075 79.7734 49.3867 79.7734 49.3867Z" fill="#455A64"/>
<path d="M79.5977 42.7344C79.6247 42.8087 79.641 42.8865 79.6462 42.9654C79.6716 43.1132 79.6993 43.3281 79.7317 43.596C79.7917 44.1297 79.8564 44.8712 79.8934 45.6913C79.9303 46.5114 79.9326 47.2552 79.9211 47.7935C79.9211 48.0615 79.9049 48.2809 79.8934 48.4311C79.8957 48.509 79.8864 48.5869 79.8656 48.6621C79.8366 48.3735 79.8265 48.0834 79.8356 47.7935C79.8356 47.2552 79.8102 46.516 79.7732 45.6959C79.7363 44.8758 79.6855 44.1389 79.6462 43.6168C79.6133 43.3238 79.5971 43.0292 79.5977 42.7344Z" fill="#455A64"/>
<path d="M78.043 43.2121C78.0546 43.2282 77.9229 43.2883 77.8859 43.4754C77.8756 43.5262 77.8784 43.5787 77.8942 43.6281C77.91 43.6774 77.9381 43.7219 77.976 43.7572C78.0217 43.7998 78.0787 43.8282 78.1401 43.8393C78.2015 43.8503 78.2649 43.8435 78.3225 43.8196C78.3779 43.7911 78.4241 43.7476 78.456 43.6941C78.4878 43.6406 78.504 43.5792 78.5027 43.517C78.5006 43.4653 78.4853 43.415 78.4582 43.3709C78.4311 43.3268 78.3931 43.2904 78.3479 43.2652C78.254 43.2197 78.1492 43.2013 78.0453 43.2121C78.0453 43.2121 78.0684 43.182 78.1285 43.1635C78.2151 43.1424 78.3064 43.1514 78.3872 43.189C78.4517 43.2158 78.5075 43.26 78.5483 43.3167C78.5891 43.3734 78.6133 43.4404 78.6182 43.5101C78.6274 43.5961 78.6093 43.6828 78.5666 43.758C78.5239 43.8332 78.4587 43.8932 78.3802 43.9294C78.3016 43.9656 78.2137 43.9763 78.1288 43.9599C78.0438 43.9435 77.9662 43.9009 77.9067 43.8381C77.8576 43.7893 77.8228 43.7279 77.8061 43.6607C77.7894 43.5935 77.7914 43.5231 77.812 43.4569C77.8352 43.3705 77.8874 43.2946 77.9598 43.2421C78.006 43.2098 78.0407 43.2051 78.043 43.2121Z" fill="#455A64"/>
<path d="M74.3474 42.7969C74.3815 42.8697 74.4026 42.9478 74.4098 43.0279C74.447 43.2352 74.454 43.4469 74.4306 43.6562C74.3974 43.968 74.3073 44.271 74.1649 44.5502C73.9929 44.8976 73.7382 45.1975 73.4232 45.4234C73.1083 45.6494 72.7426 45.7946 72.3584 45.8462C72.0509 45.8921 71.7376 45.8804 71.4344 45.8116C71.2293 45.767 71.0316 45.6931 70.8476 45.5921C70.7781 45.5592 70.7142 45.5155 70.6582 45.4627C70.9136 45.5776 71.1798 45.6666 71.4529 45.7284C71.7814 45.7967 72.1206 45.7962 72.4489 45.7268C72.7773 45.6574 73.0877 45.5208 73.3605 45.3254C73.6334 45.13 73.8628 44.8802 74.0342 44.5917C74.2057 44.3032 74.3155 43.9824 74.3567 43.6493C74.3838 43.3656 74.3807 43.0799 74.3474 42.7969Z" fill="#455A64"/>
<path d="M83.4121 44.8195C83.2614 44.8369 83.1087 44.8187 82.9663 44.7663C82.6173 44.6564 82.3039 44.4555 82.0584 44.1842C81.8107 43.9141 81.6406 43.5821 81.5664 43.2232C81.53 43.0768 81.53 42.9237 81.5664 42.7773C81.5871 42.7773 81.5895 42.946 81.6588 43.2047C81.7524 43.539 81.9226 43.8469 82.156 44.104C82.3894 44.361 82.6795 44.5601 83.0032 44.6855C83.2435 44.7802 83.4144 44.7964 83.4121 44.8195Z" fill="#455A64"/>
<path d="M86.1652 67.5696C86.0494 67.7017 85.9109 67.812 85.7563 67.8953C85.5941 67.9982 85.4173 68.0761 85.2319 68.1264C84.9986 68.1882 84.7524 68.1818 84.5227 68.1079C84.1192 67.9557 83.7734 67.6811 83.534 67.3224C83.424 67.1877 83.333 67.0384 83.2637 66.8789C83.3884 66.9979 83.5013 67.1287 83.6009 67.2693C83.8463 67.5946 84.1775 67.845 84.5573 67.9924C84.7512 68.0441 84.9536 68.0559 85.1522 68.0269C85.3508 67.9979 85.5414 67.9288 85.7124 67.8237C85.8583 67.7304 86.0095 67.6456 86.1652 67.5696Z" fill="#455A64"/>
<path d="M84.3997 68.919C84.1267 68.6362 83.8829 68.3266 83.672 67.9949C83.4291 67.6861 83.2171 67.3542 83.0391 67.0039C83.3139 67.2856 83.5586 67.5953 83.7691 67.9279C84.0139 68.2349 84.2253 68.5671 84.3997 68.919Z" fill="#455A64"/>
<path d="M72.561 50.2034C72.5286 50.2149 72.4478 50.0833 72.3761 49.9054C72.3045 49.7275 72.2745 49.5773 72.3045 49.5635C72.3346 49.5496 72.4177 49.6836 72.487 49.8615C72.5563 50.0394 72.591 50.2034 72.561 50.2034Z" fill="#FAFAFA"/>
<path d="M77.0347 50.8465C77 50.8465 76.9746 50.7333 76.9746 50.5924C76.9746 50.4514 77 50.3359 77.0347 50.3359C77.0693 50.3359 77.0947 50.4514 77.0947 50.5924C77.0947 50.7333 77.067 50.8465 77.0347 50.8465Z" fill="#FAFAFA"/>
<path d="M75.1965 53.2805C75.1641 53.2805 75.1272 53.1419 75.1156 52.9641C75.1041 52.7862 75.1156 52.643 75.1526 52.6407C75.1895 52.6383 75.2242 52.7793 75.2357 52.9571C75.2473 53.135 75.2288 53.2782 75.1965 53.2805Z" fill="#FAFAFA"/>
<path d="M71.8356 55.0572C71.8079 55.078 71.7132 54.9926 71.5884 54.9048C71.4637 54.817 71.3574 54.75 71.3574 54.7177C71.3574 54.6853 71.5099 54.7038 71.6508 54.8054C71.7917 54.9071 71.8633 55.0572 71.8356 55.0572Z" fill="#FAFAFA"/>
<path d="M77.7585 57.3232C77.7308 57.3047 77.7585 57.2054 77.8371 57.0922C77.9156 56.979 77.9872 56.9143 78.0149 56.9328C78.0427 56.9513 78.0149 57.0529 77.9364 57.1638C77.8578 57.2747 77.7862 57.3417 77.7585 57.3232Z" fill="#FAFAFA"/>
<path d="M74.103 57.9618C74.0707 57.9618 74.043 57.7701 74.043 57.5367C74.043 57.3034 74.0707 57.1094 74.103 57.1094C74.1354 57.1094 74.1631 57.3011 74.1631 57.5367C74.1631 57.7724 74.1284 57.9618 74.103 57.9618Z" fill="#FAFAFA"/>
<path d="M72.9059 60.5522C72.8874 60.5776 72.7673 60.5244 72.6379 60.4297C72.5086 60.335 72.4069 60.238 72.4369 60.2103C72.467 60.1826 72.5779 60.238 72.7072 60.3327C72.8366 60.4274 72.9267 60.5244 72.9059 60.5522Z" fill="#FAFAFA"/>
<path d="M76.6058 61.454C76.6197 61.484 76.5457 61.5464 76.4395 61.5949C76.3332 61.6434 76.2362 61.655 76.2223 61.6249C76.2085 61.5949 76.2847 61.5325 76.391 61.484C76.4972 61.4355 76.5943 61.424 76.6058 61.454Z" fill="#FAFAFA"/>
<path d="M74.1038 65.6839C74.0761 65.6978 73.9559 65.5199 73.8381 65.2843C73.7203 65.0486 73.6487 64.8453 73.6787 64.8222C73.7088 64.7991 73.8289 64.9863 73.9444 65.2219C74.0599 65.4575 74.1246 65.6585 74.1038 65.6839Z" fill="#FAFAFA"/>
<path d="M78.1842 65.2936C78.1542 65.2774 78.2073 65.1227 78.2997 64.9448C78.3921 64.7669 78.4961 64.6375 78.5307 64.6537C78.5654 64.6699 78.5076 64.8247 78.4129 65.0025C78.3182 65.1804 78.2119 65.3098 78.1842 65.2936Z" fill="#FAFAFA"/>
<path d="M76.3946 68.8666C76.36 68.8666 76.3646 68.6795 76.3276 68.4624C76.2907 68.2452 76.2352 68.072 76.2676 68.0558C76.2999 68.0396 76.4108 68.2036 76.4477 68.4439C76.4847 68.6841 76.427 68.8736 76.3946 68.8666Z" fill="#FAFAFA"/>
<path d="M74.4788 70.9141C74.4557 70.9372 74.3402 70.8494 74.2224 70.72C74.1045 70.5906 74.0283 70.4682 74.0537 70.4451C74.0791 70.422 74.1923 70.5098 74.3101 70.6392C74.428 70.7685 74.5042 70.891 74.4788 70.9141Z" fill="#FAFAFA"/>
<path d="M79.1288 71.6883C79.1057 71.6652 79.1911 71.5404 79.3205 71.4087C79.4499 71.2771 79.57 71.1916 79.5954 71.2147C79.6208 71.2378 79.533 71.3649 79.406 71.4942C79.2789 71.6236 79.1542 71.7114 79.1288 71.6883Z" fill="#FAFAFA"/>
<path d="M76.4559 74.7498C76.4236 74.7498 76.4236 74.5673 76.4559 74.3548C76.4882 74.1423 76.5391 73.9759 76.5737 73.9806C76.6084 73.9852 76.6061 74.1607 76.5737 74.3733C76.5414 74.5858 76.4882 74.7544 76.4559 74.7498Z" fill="#FAFAFA"/>
<path d="M74.6539 76.2358C74.6239 76.252 74.5223 76.1318 74.4229 75.9678C74.3236 75.8038 74.2728 75.6583 74.3005 75.6421C74.3282 75.6259 74.4298 75.7438 74.5315 75.9078C74.6331 76.0718 74.6817 76.2173 74.6539 76.2358Z" fill="#FAFAFA"/>
<path d="M78.9909 78.1106C79.0117 78.1383 78.8939 78.2561 78.7276 78.3739C78.5612 78.4917 78.4157 78.5657 78.3949 78.5379C78.3741 78.5102 78.4943 78.3924 78.6583 78.2746C78.8223 78.1568 78.9724 78.0852 78.9909 78.1106Z" fill="#FAFAFA"/>
<path d="M75.3767 80.54C75.3444 80.5285 75.3767 80.3436 75.4068 80.1126C75.4368 79.8816 75.4183 79.6922 75.453 79.6876C75.4876 79.683 75.5477 79.877 75.5246 80.1242C75.5015 80.3714 75.4068 80.5539 75.3767 80.54Z" fill="#FAFAFA"/>
<path d="M76.8228 84.0362C76.7951 84.057 76.6981 83.9784 76.6034 83.8606C76.5087 83.7428 76.4555 83.6296 76.4809 83.6088C76.5064 83.588 76.6034 83.6666 76.6981 83.7844C76.7928 83.9022 76.8482 84.0154 76.8228 84.0362Z" fill="#FAFAFA"/>
<path d="M75.2431 86.3785C75.2154 86.3969 75.0884 86.2607 74.959 86.0712C74.8296 85.8818 74.7488 85.7155 74.7742 85.697C74.7996 85.6785 74.929 85.8148 75.0583 86.0042C75.1877 86.1937 75.2709 86.36 75.2431 86.3785Z" fill="#FAFAFA"/>
<path d="M79.59 83.4385C79.56 83.4269 79.5623 83.3415 79.59 83.2491C79.6177 83.1567 79.6801 83.0874 79.7125 83.0989C79.7448 83.1105 79.7402 83.1959 79.7125 83.2907C79.6847 83.3854 79.6224 83.4524 79.59 83.4385Z" fill="#FAFAFA"/>
<path d="M77.6724 89.017C77.6423 89.0008 77.7001 88.8368 77.7463 88.6312C77.7925 88.4256 77.8086 88.2523 77.8433 88.25C77.878 88.2477 77.9126 88.4348 77.8641 88.6566C77.8156 88.8784 77.7001 89.0355 77.6724 89.017Z" fill="#FAFAFA"/>
<path d="M78.9177 53.3157C78.8876 53.3295 78.8137 53.2371 78.7536 53.1078C78.6936 52.9784 78.6682 52.8629 78.6982 52.849C78.7282 52.8352 78.8021 52.9276 78.8622 53.0569C78.9223 53.1863 78.9523 53.3018 78.9177 53.3157Z" fill="#FAFAFA"/>
<path d="M75.718 46.1224C75.7365 46.1501 75.5748 46.2795 75.4016 46.4643C75.2283 46.6491 75.1105 46.82 75.0805 46.8039C75.0504 46.7877 75.129 46.5729 75.3115 46.3834C75.494 46.194 75.6949 46.0924 75.718 46.1224Z" fill="#FAFAFA"/>
<path d="M78.5668 46.0469C78.5321 46.0469 78.479 45.9152 78.3981 45.7581C78.3173 45.601 78.2433 45.4717 78.2688 45.4486C78.2942 45.4255 78.4189 45.5271 78.4998 45.7027C78.5806 45.8782 78.5968 46.0284 78.5668 46.0469Z" fill="#FAFAFA"/>
<path d="M69.6737 48.3831C69.6436 48.3692 69.6737 48.2167 69.7453 48.0412C69.8169 47.8656 69.8954 47.7293 69.9278 47.7432C69.9601 47.757 69.9278 47.9072 69.8562 48.0851C69.7846 48.2629 69.7129 48.3946 69.6737 48.3831Z" fill="#FAFAFA"/>
<path d="M69.9615 51.8722C69.9384 51.8976 69.8067 51.8237 69.6658 51.7058C69.5249 51.588 69.4348 51.4748 69.4487 51.4471C69.4625 51.4194 69.6035 51.4956 69.7444 51.6134C69.8853 51.7313 69.9823 51.8468 69.9615 51.8722Z" fill="#FAFAFA"/>
<path d="M75.7982 43.3524C75.7681 43.3524 75.7035 43.2785 75.6573 43.1607C75.6111 43.0429 75.5972 42.9297 75.6272 42.9297C75.6573 42.9297 75.7219 43.0036 75.7681 43.1214C75.8143 43.2392 75.8282 43.3409 75.7982 43.3524Z" fill="#FAFAFA"/>
<path d="M81.3867 45.0533C81.3543 45.0533 81.3566 44.9078 81.3867 44.7437C81.4167 44.5797 81.4768 44.4504 81.5091 44.4573C81.5415 44.4642 81.5391 44.6051 81.5091 44.7692C81.4791 44.9332 81.419 45.0602 81.3867 45.0533Z" fill="#FAFAFA"/>
<path d="M82.6972 47.6987C82.6672 47.6848 82.7088 47.5138 82.792 47.3129C82.8751 47.1119 82.9652 46.9617 82.9952 46.9733C83.0253 46.9848 82.9952 47.1581 82.9028 47.3591C82.8104 47.56 82.7296 47.7102 82.6972 47.6987Z" fill="#FAFAFA"/>
<path d="M81.7642 49.8264C81.7342 49.8402 81.6233 49.6809 81.5171 49.4706C81.4108 49.2604 81.3507 49.0733 81.3808 49.0594C81.4108 49.0456 81.5194 49.205 81.6256 49.4152C81.7319 49.6254 81.7943 49.8102 81.7642 49.8264Z" fill="#FAFAFA"/>
<path d="M83.7639 51.9615C83.7339 51.9499 83.7639 51.8159 83.8147 51.6635C83.8656 51.511 83.9464 51.3955 83.9788 51.407C84.0111 51.4186 83.9788 51.5526 83.9279 51.7051C83.8771 51.8575 83.8055 51.973 83.7639 51.9615Z" fill="#FAFAFA"/>
<path d="M81.9767 54.0459C81.949 54.0644 81.8774 54.0021 81.8196 53.9097C81.7619 53.8172 81.7342 53.7249 81.7642 53.7064C81.7942 53.6879 81.8612 53.7503 81.9213 53.845C81.9814 53.9397 82.0045 54.0298 81.9767 54.0459Z" fill="#FAFAFA"/>
<path d="M82.3567 58.3513C82.3336 58.372 82.1881 58.2589 82.0356 58.0925C81.8831 57.9262 81.7792 57.776 81.8046 57.7529C81.83 57.7298 81.9732 57.8453 82.1257 58.0117C82.2782 58.178 82.3821 58.3282 82.3567 58.3513Z" fill="#FAFAFA"/>
<path d="M84.702 55.8718C84.6766 55.8926 84.5496 55.7771 84.4202 55.6108C84.2908 55.4445 84.2077 55.2966 84.2331 55.2758C84.2585 55.255 84.3855 55.3728 84.5149 55.5369C84.6443 55.7009 84.7298 55.8533 84.702 55.8718Z" fill="#FAFAFA"/>
<path d="M85.9889 59.2903C85.9588 59.2765 86.012 59.1032 86.1067 58.9046C86.2014 58.7059 86.3007 58.5534 86.3377 58.5673C86.3746 58.5811 86.3169 58.7567 86.2222 58.9554C86.1275 59.154 86.0189 59.3065 85.9889 59.2903Z" fill="#FAFAFA"/>
<path d="M83.2527 62.0964C83.2226 62.1126 83.1164 61.9855 82.9685 61.8492C82.8207 61.7129 82.6844 61.6182 82.6982 61.5836C82.7121 61.5489 82.8877 61.6113 83.0494 61.7614C83.2111 61.9116 83.2804 62.0802 83.2527 62.0964Z" fill="#FAFAFA"/>
<path d="M83.4246 64.9898C83.4246 65.0221 83.3091 65.0498 83.1682 65.0498C83.0273 65.0498 82.9141 65.0221 82.9141 64.9898C82.9141 64.9574 83.0273 64.9297 83.1682 64.9297C83.3091 64.9297 83.4246 64.9574 83.4246 64.9898Z" fill="#FAFAFA"/>
<path d="M86.2366 64.1854C86.2066 64.1692 86.2666 64.0237 86.3105 63.8435C86.3544 63.6633 86.3729 63.5062 86.4076 63.5039C86.4422 63.5016 86.4792 63.6703 86.4283 63.8712C86.3775 64.0722 86.262 64.2039 86.2366 64.1854Z" fill="#FAFAFA"/>
<path d="M89.0288 65.1533C88.9987 65.1649 88.9133 65.0009 88.8393 64.7907C88.7654 64.5804 88.7308 64.4002 88.7608 64.391C88.7908 64.3818 88.8786 64.5412 88.9525 64.7514C89.0265 64.9616 89.0611 65.1418 89.0288 65.1533Z" fill="#FAFAFA"/>
<path d="M88.5821 69.1244C88.5544 69.1082 88.626 68.9142 88.7415 68.6901C88.857 68.466 88.9725 68.2974 89.0072 68.3136C89.0418 68.3297 88.9656 68.5238 88.8478 68.7456C88.73 68.9673 88.6122 69.1452 88.5821 69.1244Z" fill="#FAFAFA"/>
<path d="M86.0334 71.4585C86.0034 71.47 85.9087 71.3106 85.8209 71.1004C85.7331 70.8902 85.6892 70.71 85.7216 70.6961C85.7539 70.6823 85.8463 70.844 85.9318 71.0542C86.0173 71.2644 86.0635 71.4585 86.0334 71.4585Z" fill="#FAFAFA"/>
<path d="M83.2106 72.3648C83.2106 72.3971 83.1136 72.4248 82.9957 72.4248C82.8779 72.4248 82.7832 72.3971 82.7832 72.3648C82.7832 72.3324 82.8802 72.3047 82.9957 72.3047C83.1112 72.3047 83.2106 72.3324 83.2106 72.3648Z" fill="#FAFAFA"/>
<path d="M84.8283 76.0793C84.7982 76.0793 84.7335 75.9522 84.685 75.7766C84.6365 75.6011 84.6273 75.4486 84.6596 75.4417C84.692 75.4347 84.7543 75.5687 84.8029 75.7443C84.8514 75.9199 84.8606 76.0608 84.8283 76.0793Z" fill="#FAFAFA"/>
<path d="M82.7839 74.8334C82.7562 74.8172 82.7839 74.7086 82.8602 74.5908C82.9364 74.473 83.0126 74.3921 83.0404 74.4083C83.0681 74.4245 83.0404 74.5354 82.9641 74.6532C82.8879 74.771 82.814 74.8518 82.7839 74.8334Z" fill="#FAFAFA"/>
<path d="M82.7422 78.9208C82.7099 78.9208 82.6637 78.766 82.6406 78.565C82.6175 78.364 82.6244 78.2 82.6567 78.1954C82.6891 78.1908 82.7353 78.3502 82.7584 78.5512C82.7815 78.7521 82.7745 78.9162 82.7422 78.9208Z" fill="#FAFAFA"/>
</svg>
