<svg width="23" height="14" viewBox="0 0 23 14" fill="none" xmlns="http://www.w3.org/2000/svg">
<g clip-path="url(#clip0_1025_1255)">
<path d="M13.456 12.5161C13.3684 12.4297 13.2809 12.3432 13.1934 12.2499H1.7726V9.62516H3.5452V10.4998H5.31779V9.62516H11.7849C11.6411 9.05214 11.5616 8.46525 11.5477 7.87505H5.31779V7.00043H3.5452V7.87505H1.7726V5.25032H11.7517C11.8809 4.66726 12.0802 4.1015 12.3452 3.56503C12.5952 3.0566 12.9141 2.58412 13.2932 2.16063V1.75011C13.292 1.28645 13.105 0.842096 12.773 0.514159C12.441 0.186222 11.9911 0.00136902 11.5214 0L6.20365 0C5.73396 0.00136796 5.2839 0.186193 4.95177 0.514106C4.61964 0.842019 4.43244 1.28637 4.43106 1.75011V3.50022H1.7726C1.3029 3.50158 0.852839 3.68641 0.520712 4.01432C0.188586 4.34223 0.00138554 4.78659 0 5.25032L0 14.0009H15.9429C15.0078 13.7046 14.156 13.1961 13.456 12.5161ZM6.20365 1.75011H11.5214V3.50022H6.20365V1.75011Z" fill="#2642CA"/>
<path d="M18.3002 13.1608C16.6248 13.1608 15.2607 12.6535 14.2079 11.6388C13.1552 10.6242 12.6299 9.27224 12.6323 7.58291V7.2908C12.6323 6.15748 12.854 5.14429 13.2975 4.25123C13.7062 3.39562 14.3607 2.67759 15.1796 2.18653C15.9925 1.70313 16.9201 1.46143 17.9623 1.46143C19.5257 1.46143 20.7562 1.948 21.6537 2.92115C22.5512 3.89429 23 5.27421 23 7.06091V8.2916H15.7232C15.8218 9.02909 16.1194 9.61995 16.616 10.0642C17.1126 10.5084 17.7409 10.7308 18.5007 10.7314C19.6766 10.7314 20.5954 10.3108 21.2572 9.46957L22.7593 11.1281C22.2851 11.7809 21.6433 12.2973 20.9 12.6241C20.0838 12.9893 19.1962 13.1726 18.3002 13.1608ZM17.9518 3.88911C17.3461 3.88911 16.855 4.09076 16.4786 4.49408C16.1022 4.8974 15.8615 5.47846 15.7564 6.23728H20.0028V5.99615C19.9876 5.32664 19.8044 4.80809 19.4531 4.4405C19.1017 4.0729 18.6013 3.88911 17.9518 3.88911Z" fill="#2642CA"/>
</g>
<defs>
<clipPath id="clip0_1025_1255">
<rect width="23" height="14" fill="white"/>
</clipPath>
</defs>
</svg>
