<svg id="_ÎÓÈ_1" data-name="—ÎÓÈ_1" xmlns="http://www.w3.org/2000/svg" viewBox="0 0 697.63722 644.12527"><defs><style>.cls-1{fill:#fff;}.cls-2{fill:#424242;}</style></defs><rect class="cls-1" width="697.63722" height="644.12527"/><path class="cls-2" d="M439.86609,247.56924a91.04755,91.04755,0,1,1-91.04748-91.0476A91.02855,91.02855,0,0,1,439.86609,247.56924Z"/><path class="cls-2" d="M579.16561,224.74434A250.05988,250.05988,0,1,0,171.8619,498.66174l.0861.0795a1.20928,1.20928,0,0,0,.0927.0927v.0066l.5098.5032.0067.0067a249.80226,249.80226,0,0,0,352.09241.4304l.01328-.0133.9336-.9336c.0464-.0398.08612-.0861.1325-.1324l.2317-.2318h.0066a250.26079,250.26079,0,0,0,53.19832-273.7254Zm-30.49272,181.731a215.68144,215.68144,0,0,1-35.9688,57.6678,165.638,165.638,0,0,0-83.9624-121.5336,124.20837,124.20837,0,0,1-159.84629,0,165.63826,165.63826,0,0,0-83.9624,121.5336,216.83633,216.83633,0,1,1,363.73989-57.6678Z"/></svg>