<svg width="87" height="34" viewBox="0 0 87 34" fill="none" xmlns="http://www.w3.org/2000/svg">
<path d="M86.5 0.5H8C3.85786 0.5 0.5 3.85786 0.5 8V33.5H79C83.1421 33.5 86.5 30.1421 86.5 26V0.5Z" fill="#2642CA" stroke="#2642CA"/>
<path d="M17.249 19.2578V20H12.5957V19.3506L14.9248 16.7578C15.2113 16.4388 15.4326 16.1686 15.5889 15.9473C15.7484 15.7227 15.859 15.5225 15.9209 15.3467C15.986 15.1676 16.0186 14.9854 16.0186 14.7998C16.0186 14.5654 15.9697 14.3538 15.8721 14.165C15.7777 13.973 15.6377 13.82 15.4521 13.7061C15.2666 13.5921 15.042 13.5352 14.7783 13.5352C14.4626 13.5352 14.1989 13.597 13.9873 13.7207C13.779 13.8411 13.6227 14.0104 13.5186 14.2285C13.4144 14.4466 13.3623 14.6973 13.3623 14.9805H12.459C12.459 14.5801 12.5469 14.2139 12.7227 13.8818C12.8984 13.5498 13.1589 13.2861 13.5039 13.0908C13.849 12.8923 14.2738 12.793 14.7783 12.793C15.2275 12.793 15.6117 12.8727 15.9307 13.0322C16.2497 13.1885 16.4938 13.4098 16.6631 13.6963C16.8356 13.9795 16.9219 14.3115 16.9219 14.6924C16.9219 14.9007 16.8861 15.1123 16.8145 15.3271C16.7461 15.5387 16.6501 15.7503 16.5264 15.9619C16.4059 16.1735 16.2643 16.3818 16.1016 16.5869C15.9421 16.792 15.7712 16.9938 15.5889 17.1924L13.6846 19.2578H17.249ZM23.0205 17.6074V18.3496H17.8838V17.8174L21.0674 12.8906H21.8047L21.0137 14.3164L18.9092 17.6074H23.0205ZM22.0293 12.8906V20H21.126V12.8906H22.0293ZM30.8477 17.7393H31.7852C31.7363 18.1885 31.6077 18.5905 31.3994 18.9453C31.1911 19.3001 30.8965 19.5817 30.5156 19.79C30.1348 19.9951 29.6595 20.0977 29.0898 20.0977C28.6732 20.0977 28.2939 20.0195 27.9521 19.8633C27.6136 19.707 27.3223 19.4857 27.0781 19.1992C26.834 18.9095 26.6452 18.5628 26.5117 18.1592C26.3815 17.7523 26.3164 17.2998 26.3164 16.8018V16.0938C26.3164 15.5957 26.3815 15.1449 26.5117 14.7412C26.6452 14.3343 26.8356 13.986 27.083 13.6963C27.3337 13.4066 27.6348 13.1836 27.9863 13.0273C28.3379 12.8711 28.7334 12.793 29.1729 12.793C29.71 12.793 30.1641 12.8939 30.5352 13.0957C30.9062 13.2975 31.1943 13.5775 31.3994 13.9355C31.6077 14.2904 31.7363 14.7021 31.7852 15.1709H30.8477C30.8021 14.8389 30.7174 14.554 30.5938 14.3164C30.4701 14.0755 30.2943 13.89 30.0664 13.7598C29.8385 13.6296 29.5407 13.5645 29.1729 13.5645C28.8571 13.5645 28.5788 13.6247 28.3379 13.7451C28.1003 13.8656 27.9001 14.0365 27.7373 14.2578C27.5778 14.4792 27.4574 14.7445 27.376 15.0537C27.2946 15.363 27.2539 15.7064 27.2539 16.084V16.8018C27.2539 17.1501 27.2897 17.4772 27.3613 17.7832C27.4362 18.0892 27.5485 18.3577 27.6982 18.5889C27.848 18.82 28.0384 19.0023 28.2695 19.1357C28.5007 19.266 28.7741 19.3311 29.0898 19.3311C29.4902 19.3311 29.8092 19.2676 30.0469 19.1406C30.2845 19.0137 30.4635 18.8314 30.584 18.5938C30.7077 18.3561 30.7956 18.0713 30.8477 17.7393ZM36.165 18.7793V14.7168H37.0732V20H36.209L36.165 18.7793ZM36.3359 17.666L36.7119 17.6562C36.7119 18.0078 36.6745 18.3333 36.5996 18.6328C36.528 18.929 36.4108 19.1862 36.248 19.4043C36.0853 19.6224 35.8721 19.7933 35.6084 19.917C35.3447 20.0374 35.0241 20.0977 34.6465 20.0977C34.3893 20.0977 34.1533 20.0602 33.9385 19.9854C33.7269 19.9105 33.5446 19.7949 33.3916 19.6387C33.2386 19.4824 33.1198 19.279 33.0352 19.0283C32.9538 18.7777 32.9131 18.4766 32.9131 18.125V14.7168H33.8164V18.1348C33.8164 18.3724 33.8424 18.5693 33.8945 18.7256C33.9499 18.8786 34.0231 19.0007 34.1143 19.0918C34.2087 19.1797 34.3128 19.2415 34.4268 19.2773C34.5439 19.3132 34.6644 19.3311 34.7881 19.3311C35.1722 19.3311 35.4766 19.2578 35.7012 19.1113C35.9258 18.9616 36.0869 18.7614 36.1846 18.5107C36.2855 18.2568 36.3359 17.9753 36.3359 17.666ZM39.3535 15.5469V20H38.4502V14.7168H39.3291L39.3535 15.5469ZM41.0039 14.6875L40.999 15.5273C40.9242 15.5111 40.8525 15.5013 40.7842 15.498C40.7191 15.4915 40.6442 15.4883 40.5596 15.4883C40.3512 15.4883 40.1673 15.5208 40.0078 15.5859C39.8483 15.651 39.7132 15.7422 39.6025 15.8594C39.4919 15.9766 39.404 16.1165 39.3389 16.2793C39.277 16.4388 39.2363 16.6146 39.2168 16.8066L38.9629 16.9531C38.9629 16.6341 38.9938 16.3346 39.0557 16.0547C39.1208 15.7747 39.2201 15.5273 39.3535 15.3125C39.487 15.0944 39.6562 14.9251 39.8613 14.8047C40.0697 14.681 40.3171 14.6191 40.6035 14.6191C40.6686 14.6191 40.7435 14.6273 40.8281 14.6436C40.9128 14.6566 40.9714 14.6712 41.0039 14.6875ZM42.7422 15.5469V20H41.8389V14.7168H42.7178L42.7422 15.5469ZM44.3926 14.6875L44.3877 15.5273C44.3128 15.5111 44.2412 15.5013 44.1729 15.498C44.1077 15.4915 44.0329 15.4883 43.9482 15.4883C43.7399 15.4883 43.556 15.5208 43.3965 15.5859C43.237 15.651 43.1019 15.7422 42.9912 15.8594C42.8805 15.9766 42.7926 16.1165 42.7275 16.2793C42.6657 16.4388 42.625 16.6146 42.6055 16.8066L42.3516 16.9531C42.3516 16.6341 42.3825 16.3346 42.4443 16.0547C42.5094 15.7747 42.6087 15.5273 42.7422 15.3125C42.8757 15.0944 43.0449 14.9251 43.25 14.8047C43.4583 14.681 43.7057 14.6191 43.9922 14.6191C44.0573 14.6191 44.1322 14.6273 44.2168 14.6436C44.3014 14.6566 44.36 14.6712 44.3926 14.6875ZM46.209 14.7168V20H45.3008V14.7168H46.209ZM45.2324 13.3154C45.2324 13.1689 45.2764 13.0452 45.3643 12.9443C45.4554 12.8434 45.5889 12.793 45.7646 12.793C45.9372 12.793 46.069 12.8434 46.1602 12.9443C46.2546 13.0452 46.3018 13.1689 46.3018 13.3154C46.3018 13.4554 46.2546 13.5758 46.1602 13.6768C46.069 13.7744 45.9372 13.8232 45.7646 13.8232C45.5889 13.8232 45.4554 13.7744 45.3643 13.6768C45.2764 13.5758 45.2324 13.4554 45.2324 13.3154ZM49.7734 19.3555C49.9883 19.3555 50.1868 19.3115 50.3691 19.2236C50.5514 19.1357 50.7012 19.0153 50.8184 18.8623C50.9355 18.7061 51.0023 18.5286 51.0186 18.3301H51.8779C51.8617 18.6426 51.7559 18.9339 51.5605 19.2041C51.3685 19.471 51.1162 19.6875 50.8037 19.8535C50.4912 20.0163 50.1478 20.0977 49.7734 20.0977C49.3763 20.0977 49.0296 20.0277 48.7334 19.8877C48.4404 19.7477 48.1963 19.5557 48.001 19.3115C47.8089 19.0674 47.6641 18.7874 47.5664 18.4717C47.472 18.1527 47.4248 17.8158 47.4248 17.4609V17.2559C47.4248 16.901 47.472 16.5658 47.5664 16.25C47.6641 15.931 47.8089 15.6494 48.001 15.4053C48.1963 15.1611 48.4404 14.9691 48.7334 14.8291C49.0296 14.6891 49.3763 14.6191 49.7734 14.6191C50.1868 14.6191 50.5482 14.7038 50.8574 14.873C51.1667 15.0391 51.4092 15.2669 51.585 15.5566C51.764 15.8431 51.8617 16.1686 51.8779 16.5332H51.0186C51.0023 16.3151 50.9404 16.1182 50.833 15.9424C50.7288 15.7666 50.5856 15.6266 50.4033 15.5225C50.2243 15.415 50.0143 15.3613 49.7734 15.3613C49.4967 15.3613 49.264 15.4167 49.0752 15.5273C48.8896 15.6348 48.7415 15.7812 48.6309 15.9668C48.5234 16.1491 48.4453 16.3525 48.3965 16.5771C48.3509 16.7985 48.3281 17.0247 48.3281 17.2559V17.4609C48.3281 17.6921 48.3509 17.9199 48.3965 18.1445C48.4421 18.3691 48.5186 18.5726 48.626 18.7549C48.7367 18.9372 48.8848 19.0837 49.0703 19.1943C49.2591 19.3018 49.4935 19.3555 49.7734 19.3555ZM56.126 18.7793V14.7168H57.0342V20H56.1699L56.126 18.7793ZM56.2969 17.666L56.6729 17.6562C56.6729 18.0078 56.6354 18.3333 56.5605 18.6328C56.4889 18.929 56.3717 19.1862 56.209 19.4043C56.0462 19.6224 55.833 19.7933 55.5693 19.917C55.3057 20.0374 54.985 20.0977 54.6074 20.0977C54.3503 20.0977 54.1143 20.0602 53.8994 19.9854C53.6878 19.9105 53.5055 19.7949 53.3525 19.6387C53.1995 19.4824 53.0807 19.279 52.9961 19.0283C52.9147 18.7777 52.874 18.4766 52.874 18.125V14.7168H53.7773V18.1348C53.7773 18.3724 53.8034 18.5693 53.8555 18.7256C53.9108 18.8786 53.984 19.0007 54.0752 19.0918C54.1696 19.1797 54.2738 19.2415 54.3877 19.2773C54.5049 19.3132 54.6253 19.3311 54.749 19.3311C55.1331 19.3311 55.4375 19.2578 55.6621 19.1113C55.8867 18.9616 56.0479 18.7614 56.1455 18.5107C56.2464 18.2568 56.2969 17.9753 56.2969 17.666ZM59.3926 12.5V20H58.4844V12.5H59.3926ZM64.0752 18.7793V14.7168H64.9834V20H64.1191L64.0752 18.7793ZM64.2461 17.666L64.6221 17.6562C64.6221 18.0078 64.5846 18.3333 64.5098 18.6328C64.4382 18.929 64.321 19.1862 64.1582 19.4043C63.9954 19.6224 63.7822 19.7933 63.5186 19.917C63.2549 20.0374 62.9342 20.0977 62.5566 20.0977C62.2995 20.0977 62.0635 20.0602 61.8486 19.9854C61.637 19.9105 61.4548 19.7949 61.3018 19.6387C61.1488 19.4824 61.0299 19.279 60.9453 19.0283C60.8639 18.7777 60.8232 18.4766 60.8232 18.125V14.7168H61.7266V18.1348C61.7266 18.3724 61.7526 18.5693 61.8047 18.7256C61.86 18.8786 61.9333 19.0007 62.0244 19.0918C62.1188 19.1797 62.223 19.2415 62.3369 19.2773C62.4541 19.3132 62.5745 19.3311 62.6982 19.3311C63.0824 19.3311 63.3867 19.2578 63.6113 19.1113C63.8359 18.9616 63.9971 18.7614 64.0947 18.5107C64.1956 18.2568 64.2461 17.9753 64.2461 17.666ZM67.2588 15.7666V20H66.3506V14.7168H67.21L67.2588 15.7666ZM67.0732 17.1582L66.6533 17.1436C66.6566 16.7822 66.7038 16.4486 66.7949 16.1426C66.8861 15.8333 67.0212 15.5648 67.2002 15.3369C67.3792 15.109 67.6022 14.9333 67.8691 14.8096C68.1361 14.6826 68.4453 14.6191 68.7969 14.6191C69.0443 14.6191 69.2721 14.6549 69.4805 14.7266C69.6888 14.7949 69.8695 14.904 70.0225 15.0537C70.1755 15.2035 70.2943 15.3955 70.3789 15.6299C70.4635 15.8643 70.5059 16.1475 70.5059 16.4795V20H69.6025V16.5234C69.6025 16.2467 69.5553 16.0254 69.4609 15.8594C69.3698 15.6934 69.2396 15.5729 69.0703 15.498C68.901 15.4199 68.7025 15.3809 68.4746 15.3809C68.2077 15.3809 67.9847 15.4281 67.8057 15.5225C67.6266 15.6169 67.4834 15.7471 67.376 15.9131C67.2686 16.0791 67.1904 16.2695 67.1416 16.4844C67.096 16.696 67.0732 16.9206 67.0732 17.1582ZM70.4961 16.6602L69.8906 16.8457C69.8939 16.556 69.9411 16.2777 70.0322 16.0107C70.1266 15.7438 70.2617 15.5062 70.4375 15.2979C70.6165 15.0895 70.8363 14.9251 71.0967 14.8047C71.3571 14.681 71.6549 14.6191 71.9902 14.6191C72.2734 14.6191 72.5241 14.6566 72.7422 14.7314C72.9635 14.8063 73.1491 14.9219 73.2988 15.0781C73.4518 15.2311 73.5674 15.4281 73.6455 15.6689C73.7236 15.9098 73.7627 16.1963 73.7627 16.5283V20H72.8545V16.5186C72.8545 16.2223 72.8073 15.9928 72.7129 15.8301C72.6217 15.6641 72.4915 15.5485 72.3223 15.4834C72.1562 15.415 71.9577 15.3809 71.7266 15.3809C71.528 15.3809 71.3522 15.415 71.1992 15.4834C71.0462 15.5518 70.9176 15.6462 70.8135 15.7666C70.7093 15.8838 70.6296 16.0189 70.5742 16.1719C70.5221 16.3249 70.4961 16.4876 70.4961 16.6602Z" fill="white"/>
</svg>
