<svg width="98" height="127" viewBox="0 0 98 127" fill="none" xmlns="http://www.w3.org/2000/svg">
<path d="M38.742 50.7078C39.5943 49.2339 41.4818 48.7289 42.9579 49.5798L63.4094 61.3697C64.8856 62.2207 65.3913 64.1053 64.5391 65.5792L30.7885 123.949C29.6413 125.933 26.8043 126.018 25.5402 124.106L19.8427 115.49C19.3003 114.669 18.3984 114.157 17.415 114.11L7.55035 113.637C5.24248 113.527 3.87012 111.017 5.02538 109.019L38.742 50.7078Z" fill="#D1D6EB"/>
<path d="M58.7326 50.7078C57.8803 49.2339 55.9928 48.7289 54.5167 49.5798L34.0652 61.3697C32.5891 62.2207 32.0833 64.1053 32.9355 65.5792L66.6862 123.949C67.8333 125.933 70.6703 126.018 71.9344 124.106L77.6319 115.49C78.1743 114.669 79.0762 114.157 80.0596 114.11L89.9243 113.637C92.2321 113.527 93.6045 111.017 92.4492 109.019L58.7326 50.7078Z" fill="#D1D6EB"/>
<path d="M43.4044 2.69906C46.4083 -0.399687 51.3851 -0.399685 54.389 2.69906L55.2724 3.61032C57.3771 5.78153 60.5666 6.5084 63.4064 5.46407L64.5983 5.02575C68.6513 3.53527 73.1351 5.69134 74.4951 9.7846L74.895 10.9883C75.8478 13.8564 78.4056 15.893 81.418 16.1824L82.6823 16.3038C86.9816 16.7168 90.0845 20.6019 89.5311 24.879L89.3683 26.1367C88.9805 29.1336 90.4 32.0766 92.9883 33.6424L94.0746 34.2996C97.7687 36.5342 98.8761 41.3788 96.5189 44.9926L95.8257 46.0553C94.1741 48.5873 94.1741 51.8539 95.8257 54.3859L96.5189 55.4486C98.8761 59.0624 97.7687 63.907 94.0746 66.1417L92.9883 66.7988C90.4 68.3646 88.9805 71.3077 89.3683 74.3045L89.5311 75.5622C90.0845 79.8393 86.9816 83.7244 82.6823 84.1374L81.418 84.2588C78.4056 84.5482 75.8478 86.5849 74.895 89.4529L74.4951 90.6566C73.1351 94.7499 68.6513 96.9059 64.5983 95.4155L63.4064 94.9771C60.5666 93.9328 57.3771 94.6597 55.2724 96.8309L54.389 97.7421C51.3851 100.841 46.4083 100.841 43.4044 97.7421L42.521 96.8309C40.4163 94.6597 37.2268 93.9328 34.387 94.9771L33.1951 95.4155C29.1421 96.9059 24.6583 94.7499 23.2983 90.6566L22.8984 89.4529C21.9456 86.5849 19.3878 84.5482 16.3754 84.2588L15.1111 84.1374C10.8118 83.7244 7.70891 79.8393 8.26235 75.5622L8.4251 74.3045C8.81288 71.3076 7.39343 68.3646 4.8051 66.7988L3.71878 66.1417C0.0247247 63.907 -1.0827 59.0624 1.27448 55.4486L1.96766 54.3859C3.61928 51.8539 3.61928 48.5873 1.96766 46.0553L1.27448 44.9926C-1.0827 41.3788 0.0247247 36.5342 3.71878 34.2996L4.8051 33.6424C7.39343 32.0766 8.81288 29.1336 8.4251 26.1367L8.26235 24.879C7.70891 20.6019 10.8118 16.7168 15.1111 16.3038L16.3754 16.1824C19.3878 15.893 21.9456 13.8563 22.8984 10.9883L23.2983 9.78459C24.6583 5.69133 29.1421 3.53527 33.1951 5.02575L34.387 5.46407C37.2268 6.50841 40.4163 5.78152 42.521 3.61032L43.4044 2.69906Z" fill="url(#paint0_linear_3783_21194)"/>
<path fill-rule="evenodd" clip-rule="evenodd" d="M53.556 5.26913L52.6727 4.35787C50.6075 2.22748 47.186 2.22748 45.1208 4.35787L44.2374 5.26913C41.4749 8.11883 37.2887 9.07286 33.5614 7.70217L32.3696 7.26385C29.5831 6.23915 26.5005 7.72144 25.5655 10.5356L25.1656 11.7393C23.915 15.5036 20.5579 18.1767 16.6042 18.5565L15.3399 18.678C12.3841 18.9619 10.2508 21.6329 10.6313 24.5734L10.7941 25.8311C11.303 29.7645 9.44002 33.6272 6.04284 35.6823L4.95652 36.3395C2.41685 37.8758 1.6555 41.2065 3.27606 43.6909L3.96925 44.7536C6.13699 48.0769 6.13699 52.3643 3.96925 55.6876L3.27606 56.7503C1.6555 59.2347 2.41686 62.5654 4.95652 64.1017L6.04284 64.7589C9.44002 66.814 11.303 70.6768 10.7941 74.6101L10.6313 75.8679C10.2508 78.8083 12.3841 81.4793 15.3399 81.7633L16.6042 81.8847C20.5579 82.2645 23.915 84.9376 25.1656 88.7019L25.5655 89.9056C26.5005 92.7198 29.5831 94.2021 32.3696 93.1774L33.5614 92.739C37.2887 91.3683 41.4749 92.3224 44.2374 95.1721L45.1208 96.0833C47.186 98.2137 50.6075 98.2137 52.6727 96.0833L53.556 95.1721C56.3185 92.3224 60.5047 91.3683 64.232 92.739L65.4239 93.1774C68.2103 94.2021 71.2929 92.7198 72.2279 89.9056L72.6278 88.7019C73.8784 84.9376 77.2355 82.2645 81.1892 81.8847L82.4535 81.7633C85.4093 81.4793 87.5426 78.8083 87.1621 75.8679L86.9993 74.6101C86.4904 70.6768 88.3534 66.814 91.7506 64.7589L92.8369 64.1017C95.3766 62.5654 96.1379 59.2347 94.5173 56.7503L93.8242 55.6876C91.6564 52.3643 91.6564 48.0769 93.8242 44.7536L94.5173 43.6909C96.1379 41.2065 95.3766 37.8758 92.8369 36.3395L91.7506 35.6823C88.3534 33.6272 86.4904 29.7645 86.9993 25.8311L87.1621 24.5734C87.5426 21.6329 85.4093 18.9619 82.4535 18.678L81.1892 18.5565C77.2355 18.1767 73.8784 15.5036 72.6278 11.7393L72.2279 10.5356C71.2929 7.72144 68.2103 6.23915 65.4239 7.26385L64.232 7.70217C60.5047 9.07286 56.3185 8.11884 53.556 5.26913ZM54.389 2.69906C51.3851 -0.399686 46.4083 -0.399687 43.4044 2.69906L42.521 3.61032C40.4163 5.78152 37.2268 6.5084 34.387 5.46406L33.1951 5.02575C29.1421 3.53527 24.6583 5.69133 23.2983 9.78459L22.8984 10.9883C21.9456 13.8563 19.3878 15.893 16.3754 16.1824L15.1111 16.3038C10.8118 16.7168 7.70891 20.6019 8.26235 24.879L8.4251 26.1367C8.81288 29.1336 7.39343 32.0766 4.8051 33.6424L3.71878 34.2996C0.0247247 36.5342 -1.0827 41.3788 1.27448 44.9926L1.96766 46.0553C3.61928 48.5873 3.61928 51.8539 1.96766 54.3859L1.27448 55.4486C-1.0827 59.0624 0.0247247 63.907 3.71878 66.1417L4.8051 66.7988C7.39343 68.3646 8.81288 71.3076 8.4251 74.3045L8.26235 75.5622C7.70891 79.8393 10.8118 83.7244 15.1111 84.1374L16.3754 84.2588C19.3878 84.5482 21.9456 86.5849 22.8984 89.4529L23.2983 90.6566C24.6583 94.7499 29.1421 96.9059 33.1951 95.4155L34.387 94.9771C37.2268 93.9328 40.4163 94.6597 42.521 96.8309L43.4044 97.7421C46.4083 100.841 51.3851 100.841 54.389 97.7421L55.2724 96.8309C57.3771 94.6597 60.5666 93.9328 63.4064 94.9771L64.5983 95.4155C68.6513 96.9059 73.1351 94.7499 74.4951 90.6566L74.895 89.4529C75.8478 86.5849 78.4056 84.5482 81.418 84.2588L82.6823 84.1374C86.9816 83.7244 90.0845 79.8393 89.5311 75.5622L89.3683 74.3045C88.9805 71.3076 90.4 68.3646 92.9883 66.7988L94.0746 66.1417C97.7687 63.907 98.8761 59.0624 96.5189 55.4486L95.8257 54.3859C94.1741 51.8539 94.1741 48.5873 95.8257 46.0553L96.5189 44.9926C98.8761 41.3788 97.7687 36.5342 94.0746 34.2996L92.9883 33.6424C90.4 32.0766 88.9805 29.1336 89.3683 26.1367L89.5311 24.879C90.0845 20.6019 86.9816 16.7168 82.6823 16.3038L81.418 16.1824C78.4056 15.893 75.8478 13.8563 74.895 10.9883L74.4951 9.7846C73.1351 5.69134 68.6513 3.53527 64.5983 5.02575L63.4064 5.46406C60.5666 6.5084 57.3771 5.78153 55.2724 3.61032L54.389 2.69906Z" fill="#F88A2E" fill-opacity="0.36"/>
<g filter="url(#filter0_d_3783_21194)">
<path d="M45.9397 33.6325C47.1945 31.2579 50.6004 31.2579 51.8552 33.6325L54.92 39.4327C55.4039 40.3485 56.2859 40.9883 57.3076 41.1648L63.7794 42.2829C66.4289 42.7406 67.4814 45.975 65.6073 47.9003L61.0298 52.6031C60.3071 53.3456 59.9702 54.3808 60.1178 55.4056L61.0527 61.8969C61.4355 64.5544 58.68 66.5533 56.267 65.3686L50.3731 62.4749C49.4425 62.0181 48.3524 62.0181 47.4219 62.4749L41.5279 65.3686C39.1149 66.5533 36.3595 64.5544 36.7422 61.8969L37.6771 55.4056C37.8247 54.3808 37.4878 53.3456 36.7651 52.6031L32.1876 47.9003C30.3135 45.975 31.366 42.7406 34.0155 42.2829L40.4873 41.1648C41.5091 40.9883 42.391 40.3485 42.8749 39.4327L45.9397 33.6325Z" fill="white"/>
</g>
<path fill-rule="evenodd" clip-rule="evenodd" d="M48.9098 78.1274C64.3448 78.1274 76.8573 65.6337 76.8573 50.222C76.8573 34.8102 64.3448 22.3166 48.9098 22.3166C33.4748 22.3166 20.9622 34.8102 20.9622 50.222C20.9622 65.6337 33.4748 78.1274 48.9098 78.1274ZM48.9098 82.4205C66.7194 82.4205 81.1569 68.0047 81.1569 50.222C81.1569 32.4392 66.7194 18.0234 48.9098 18.0234C31.1001 18.0234 16.6626 32.4392 16.6626 50.222C16.6626 68.0047 31.1001 82.4205 48.9098 82.4205Z" fill="#FFAA46"/>
<path fill-rule="evenodd" clip-rule="evenodd" d="M83.478 50.357C83.478 69.457 67.971 84.9406 48.8421 84.9406C29.7133 84.9406 14.2063 69.457 14.2063 50.357C14.2063 31.257 29.7133 15.7734 48.8421 15.7734C67.971 15.7734 83.478 31.257 83.478 50.357ZM48.8421 82.5556C66.6518 82.5556 81.0893 68.1398 81.0893 50.357C81.0893 32.5743 66.6518 18.1585 48.8421 18.1585C31.0325 18.1585 16.595 32.5743 16.595 50.357C16.595 68.1398 31.0325 82.5556 48.8421 82.5556Z" fill="white"/>
<defs>
<filter id="filter0_d_3783_21194" x="27.152" y="31.0343" width="43.4909" height="42.0398" filterUnits="userSpaceOnUse" color-interpolation-filters="sRGB">
<feFlood flood-opacity="0" result="BackgroundImageFix"/>
<feColorMatrix in="SourceAlpha" type="matrix" values="0 0 0 0 0 0 0 0 0 0 0 0 0 0 0 0 0 0 127 0" result="hardAlpha"/>
<feOffset dy="3.26903"/>
<feGaussianBlur stdDeviation="2.04314"/>
<feComposite in2="hardAlpha" operator="out"/>
<feColorMatrix type="matrix" values="0 0 0 0 0.883333 0 0 0 0 0.658672 0 0 0 0 0.0809722 0 0 0 0.41 0"/>
<feBlend mode="normal" in2="BackgroundImageFix" result="effect1_dropShadow_3783_21194"/>
<feBlend mode="normal" in="SourceGraphic" in2="effect1_dropShadow_3783_21194" result="shape"/>
</filter>
<linearGradient id="paint0_linear_3783_21194" x1="6.37821" y1="3.71163" x2="96.534" y2="94.0036" gradientUnits="userSpaceOnUse">
<stop stop-color="#FDB83D"/>
<stop offset="1" stop-color="#F9D534"/>
</linearGradient>
</defs>
</svg>
