<svg width="54" height="54" viewBox="0 0 54 54" fill="none" xmlns="http://www.w3.org/2000/svg">
<circle cx="27" cy="27" r="27" fill="#E4E4E4"/>
<path d="M38.1301 21.0696H33.9574V18.3082C33.9574 16.7895 32.7056 15.5469 31.1756 15.5469H22.8301C21.3001 15.5469 20.0483 16.7895 20.0483 18.3082V21.0696H15.8756C14.3456 21.0696 13.0938 22.3122 13.0938 23.831V37.6378H40.9119V23.831C40.9119 22.3122 39.6601 21.0696 38.1301 21.0696ZM22.8301 18.3082H31.1756V21.0696H22.8301V18.3082ZM38.1301 34.8764H15.8756V30.7344H18.6574V32.1151H21.4392V30.7344H32.5665V32.1151H35.3483V30.7344H38.1301V34.8764ZM35.3483 27.973V26.5923H32.5665V27.973H21.4392V26.5923H18.6574V27.973H15.8756V23.831H38.1301V27.973H35.3483Z" fill="#777777"/>
</svg>
