<svg width="60" height="60" viewBox="0 0 60 60" fill="none" xmlns="http://www.w3.org/2000/svg">
<circle cx="30" cy="30" r="30" fill="#E4E4E4"/>
<path d="M35 28.8125C35 26.915 36.54 25.375 38.4375 25.375C40.335 25.375 41.875 26.915 41.875 28.8125C41.875 30.71 40.335 32.25 38.4375 32.25C36.54 32.25 35 30.71 35 28.8125ZM30.875 17.125V40.5H46V17.125H30.875ZM43.25 35C41.7375 35 40.5 36.2375 40.5 37.75H36.375C36.375 36.2375 35.1513 35 33.625 35V22.625C35.1513 22.625 36.375 21.4012 36.375 19.875H40.5C40.5 21.4012 41.7375 22.625 43.25 22.625V35ZM22.625 21.25C24.1375 21.25 25.375 22.4875 25.375 24C25.375 25.5125 24.1375 26.75 22.625 26.75C21.1125 26.75 19.875 25.5125 19.875 24C19.875 22.4875 21.1125 21.25 22.625 21.25ZM22.625 18.5C19.5862 18.5 17.125 20.9612 17.125 24C17.125 27.0387 19.5862 29.5 22.625 29.5C25.6637 29.5 28.125 27.0387 28.125 24C28.125 20.9612 25.6637 18.5 22.625 18.5ZM22.625 32.25C17.3038 32.25 13 34.7113 13 37.75V40.5H28.125V37.75H15.75C15.75 36.9525 18.1562 35 22.625 35C25.1412 35 26.9838 35.6188 28.125 36.3063V33.24C26.5712 32.6213 24.6875 32.25 22.625 32.25Z" fill="#777777"/>
</svg>
