<svg width="54" height="54" viewBox="0 0 54 54" fill="none" xmlns="http://www.w3.org/2000/svg">
<circle cx="27" cy="27" r="27" fill="#E4E4E4"/>
<path d="M27.7843 15.9545C32.4139 15.9545 36.1366 19.8082 36.1366 24.5455C36.1366 27.9818 34.1917 30.915 31.3639 32.2895V38.0455H23.0116V34.3636H21.8184C20.494 34.3636 19.4321 33.2714 19.4321 31.9091V28.2273H17.6423C17.1412 28.2273 16.8548 27.6136 17.1412 27.2332L19.4321 24.1282C19.6588 19.575 23.286 15.9545 27.7843 15.9545ZM27.7843 13.5C22.3076 13.5 17.7735 17.6973 17.1173 23.1955L15.2559 25.7727H15.2201L15.1963 25.8095C14.54 26.7423 14.4565 27.9695 14.9696 28.9882C15.3991 29.835 16.1628 30.4241 17.0457 30.6082V31.9091C17.0457 34.1795 18.573 36.1064 20.6253 36.6586V40.5H33.7503V33.75C36.7332 31.7005 38.523 28.3009 38.523 24.5455C38.523 18.4459 33.7025 13.5 27.7843 13.5ZM32.9508 23.6864L30.6122 24.3123L32.3304 26.1041C32.748 26.5214 32.748 27.2332 32.3304 27.6627C31.9128 28.0923 31.2207 28.0923 30.815 27.6627L29.0849 25.8955L28.4645 28.3009C28.3213 28.9023 27.7366 29.2336 27.1878 29.0864C26.5912 28.9268 26.2571 28.3255 26.4003 27.7241L27.0326 25.3186L24.694 25.9691C24.1093 26.1164 23.5247 25.7727 23.3696 25.1591C23.2264 24.6068 23.5605 23.9932 24.1332 23.8459L26.4718 23.2077L24.7537 21.4282C24.336 21.0109 24.336 20.3114 24.7537 19.8695C25.1713 19.44 25.8633 19.44 26.269 19.8695L28.011 21.6368L28.6196 19.2314C28.7628 18.63 29.3593 18.2864 29.9201 18.4459C30.5048 18.6055 30.8389 19.2068 30.6838 19.7959L30.0514 22.2136L32.402 21.5632C32.9747 21.4036 33.5593 21.7473 33.7145 22.3486C33.8696 22.9255 33.5355 23.5391 32.9508 23.6864Z" fill="#777777"/>
</svg>
