<svg width="60" height="60" viewBox="0 0 60 60" fill="none" xmlns="http://www.w3.org/2000/svg">
<circle cx="30" cy="30" r="30" fill="#E4E4E4"/>
<path d="M30.0628 12C30.0628 12 21.2736 15.5157 21.2736 29.5785C21.2736 35.0278 22.6095 39.6861 24.2092 43.3425C24.7893 44.6081 26.0373 45.3992 27.426 45.3992H32.6996C34.0883 45.3992 35.3364 44.6081 35.9164 43.3425C37.5337 39.6861 38.8521 35.0278 38.8521 29.5785C38.8521 15.5157 30.0628 12 30.0628 12ZM32.6996 41.8835H27.426C25.6682 37.9459 24.7893 33.8149 24.7893 29.5785C24.7893 21.4221 28.1292 17.6251 30.0628 16.0958C31.9964 17.6251 35.3364 21.4221 35.3364 29.5785C35.3364 33.8149 34.4574 37.9459 32.6996 41.8835ZM44.1256 47.157L37.3403 44.4323C38.5708 41.7428 39.4497 38.9654 39.9947 36.1353M22.7853 44.4323L16 47.157L20.1309 36.1353C20.6759 38.9654 21.5548 41.7428 22.7853 44.4323ZM30.0628 29.5785C28.1292 29.5785 26.5471 27.9964 26.5471 26.0628C26.5471 24.1292 28.1292 22.5471 30.0628 22.5471C31.9964 22.5471 33.5785 24.1292 33.5785 26.0628C33.5785 27.9964 31.9964 29.5785 30.0628 29.5785Z" fill="#777777"/>
</svg>
