<svg width="191" height="49" viewBox="0 0 191 49" fill="none" xmlns="http://www.w3.org/2000/svg">
<g clip-path="url(#clip0_9_376)">
<path fill-rule="evenodd" clip-rule="evenodd" d="M88.0962 35.9002C79.0385 35.9002 71.3711 29.1345 70.261 20.1628C70.079 18.6862 70.079 17.1928 70.261 15.7162C71.3711 6.74433 79.0385 -0.0213623 88.0962 -0.0213623C97.1537 -0.0213623 104.821 6.74433 105.931 15.7162C106.113 17.1928 106.113 18.6862 105.931 20.1628L105.701 22.0228H79.186C79.9752 23.7221 81.2324 25.1616 82.8105 26.1728C84.3886 27.184 86.2222 27.725 88.0967 27.7325C89.384 27.736 90.6593 27.4844 91.8486 26.9921C93.0379 26.4999 94.1178 25.7768 95.0257 24.8648L95.6705 24.2209L101.448 29.996L100.804 30.6398C99.1386 32.3128 97.1583 33.6391 94.9771 34.5421C92.7959 35.445 90.4571 35.9066 88.0962 35.9002ZM97.0079 13.8562C96.2251 12.152 94.9693 10.7079 93.3898 9.69563C91.8102 8.68332 89.9732 8.14523 88.0968 8.14523C86.2204 8.14523 84.3834 8.68332 82.8038 9.69563C81.2243 10.7079 79.9685 12.152 79.1857 13.8562H97.0079Z" fill="#0A50B8"/>
<path fill-rule="evenodd" clip-rule="evenodd" d="M129.697 36.0073C128.953 36.007 128.21 35.9612 127.472 35.8701C118.495 34.7615 111.726 27.099 111.726 18.0465C111.726 8.99377 118.495 1.33117 127.472 0.222773C128.95 0.0400699 130.444 0.0401634 131.922 0.223051C140.899 1.33166 147.668 8.99412 147.668 18.0465V35.4641H139.496V33.1073C137.215 34.5928 134.624 35.5378 131.922 35.8701C131.184 35.9612 130.441 36.007 129.697 36.0073ZM129.697 8.25366C129.155 8.25385 128.614 8.29852 128.079 8.3872C125.804 8.76828 123.735 9.93961 122.239 11.6949C120.743 13.4502 119.914 15.6769 119.899 17.9829C119.883 20.2889 120.683 22.5263 122.156 24.3011C123.629 26.0759 125.682 27.2743 127.953 27.6852L128.079 27.706C129.15 27.8839 130.244 27.8839 131.315 27.706C133.591 27.3248 135.66 26.153 137.156 24.3969C138.653 22.6408 139.481 20.4132 139.496 18.1066C139.51 15.8 138.709 13.5623 137.234 11.7879C135.76 10.0135 133.706 8.81611 131.434 8.40683L131.314 8.38699C130.78 8.29848 130.239 8.25388 129.697 8.25366Z" fill="#0A50B8"/>
<path fill-rule="evenodd" clip-rule="evenodd" d="M169.256 35.7275C166.554 35.3952 163.964 34.4502 161.683 32.9647V48.9533H153.51V17.904C153.51 8.85154 160.28 1.18908 169.256 0.0804742C170.734 -0.102415 172.229 -0.102509 173.707 0.0801959C182.684 1.18859 189.453 8.85119 189.453 17.904C189.453 26.9564 182.684 34.6189 173.707 35.7275C172.229 35.9105 170.734 35.9105 169.256 35.7275ZM169.864 8.24442L169.744 8.26425C167.473 8.67353 165.419 9.87087 163.944 11.6453C162.47 13.4197 161.669 15.6574 161.683 17.964C161.697 20.2707 162.526 22.4983 164.022 24.2543C165.519 26.0104 167.588 27.1822 169.864 27.5634C170.935 27.7413 172.028 27.7413 173.1 27.5634L173.226 27.5426C175.497 27.1317 177.549 25.9333 179.022 24.1585C180.496 22.3837 181.295 20.1463 181.28 17.8403C181.265 15.5343 180.436 13.3076 178.94 11.5523C177.443 9.79703 175.375 8.62571 173.099 8.24463C172.028 8.06663 170.935 8.06656 169.864 8.24442Z" fill="#0A50B8"/>
<path d="M52.2001 27.0347L52.2002 -0.00402832H44.1084L44.1084 27.6235C44.1084 33.0198 47.8267 35.9123 52.7432 35.9123C55.4816 35.9123 64.3363 35.9045 64.3363 35.9045L64.3363 28.8359H55.9904C54.01 28.8359 52.2001 28.9999 52.2001 27.0347Z" fill="#0A50B8"/>
<path d="M19.4274 0.0875244C15.8616 0.0875244 12.3759 1.14427 9.41106 3.12414C6.44621 5.104 4.13539 7.91806 2.77082 11.2105C1.40625 14.5029 1.04922 18.1257 1.74487 21.6209C2.44052 25.1161 4.15761 28.3266 6.67901 30.8465C9.20041 33.3664 12.4129 35.0825 15.9101 35.7777C19.4074 36.473 23.0324 36.1161 26.3268 34.7524C29.6212 33.3886 32.4369 31.0792 34.418 28.1161C36.399 25.153 37.4564 21.6694 37.4564 18.1057C37.4564 15.7395 36.9901 13.3965 36.084 11.2105C35.178 9.02439 33.85 7.03808 32.1758 5.36493C30.5017 3.69179 28.5142 2.36458 26.3268 1.45908C24.1394 0.553579 21.795 0.0875244 19.4274 0.0875244ZM19.4274 29.1664C17.2385 29.1664 15.0988 28.5177 13.2788 27.3023C11.4588 26.087 10.0402 24.3595 9.20257 22.3385C8.36492 20.3174 8.14575 18.0935 8.57278 15.9479C8.99982 13.8023 10.0539 11.8315 11.6017 10.2846C13.1494 8.73778 15.1215 7.68436 17.2683 7.25758C19.4151 6.8308 21.6404 7.04984 23.6627 7.88699C25.685 8.72415 27.4134 10.1418 28.6295 11.9607C29.8456 13.7797 30.4947 15.9181 30.4947 18.1057C30.4947 19.5582 30.2084 20.9965 29.6523 22.3385C29.0961 23.6804 28.2809 24.8997 27.2532 25.9268C26.2255 26.9539 25.0054 27.7686 23.6627 28.3245C22.3199 28.8803 20.8808 29.1664 19.4274 29.1664Z" fill="#0A50B8"/>
<path d="M29.8312 34.2244L22.1496 27.344C21.7524 26.9919 21.4285 26.565 21.1964 26.0878C20.9643 25.6106 20.8285 25.0924 20.7968 24.5628C20.7651 24.0331 20.838 23.5024 21.0115 23.0009C21.185 22.4995 21.4557 22.0371 21.808 21.6401C22.1603 21.2432 22.5874 20.9195 23.0648 20.6875C23.5423 20.4555 24.0609 20.3198 24.5908 20.2881C25.1208 20.2564 25.6518 20.3293 26.1536 20.5027C26.6554 20.6761 27.118 20.9466 27.5152 21.2987L35.1968 28.1791C35.999 28.8902 36.4856 29.8907 36.5497 30.9604C36.6138 32.03 36.25 33.0813 35.5385 33.883C35.1862 34.2799 34.7591 34.6036 34.2816 34.8356C33.8041 35.0676 33.2856 35.2033 32.7556 35.235C32.2257 35.2667 31.6946 35.1938 31.1929 35.0204C30.6911 34.847 30.2284 34.5765 29.8312 34.2244Z" fill="#F7931E"/>
</g>
<defs>
<clipPath id="clip0_9_376">
<rect width="191" height="49" fill="white"/>
</clipPath>
</defs>
</svg>
