<svg width="519" height="446" viewBox="0 0 519 446" fill="none" xmlns="http://www.w3.org/2000/svg">
<path d="M452.117 391.706C469.142 380.886 472.879 383.95 482.972 375.715C493.065 367.48 510.089 356.627 516.445 365.66C522.802 374.693 515.743 380.183 511.559 386.759C507.374 393.334 501.976 404.729 495.013 408.272C488.05 411.815 481.279 411.496 476.073 418.997C470.866 426.497 468.982 436.041 454.513 438.786C440.044 441.531 432.378 439.233 430.558 437.19C428.673 435.211 435.093 402.527 452.117 391.706Z" fill="url(#paint0_linear_681_2287)"/>
<path d="M420.56 444.532C420.241 444.532 419.953 444.404 419.761 444.149C419.442 443.734 419.538 443.127 419.953 442.808C420.368 442.521 460.23 412.645 468.918 402.591C477.733 392.377 507.598 371.278 508.875 370.385C509.322 370.065 509.929 370.193 510.217 370.608C510.536 371.055 510.408 371.661 509.993 371.949C509.674 372.172 479.075 393.813 470.387 403.835C461.571 414.049 422.764 443.095 421.135 444.308C420.943 444.436 420.752 444.5 420.56 444.532Z" fill="#A1A4FC"/>
<path d="M493.32 383.95C492.809 383.982 492.362 383.567 492.33 383.056C492.298 382.514 492.681 382.067 493.224 382.003L508.811 380.822C509.354 380.758 509.801 381.173 509.865 381.716C509.897 382.258 509.514 382.705 508.971 382.769L493.384 383.95C493.352 383.95 493.352 383.95 493.32 383.95Z" fill="#A1A4FC"/>
<path d="M503.669 391.228H503.637L484.121 391.1C483.578 391.1 483.163 390.653 483.163 390.111C483.163 389.568 483.61 389.121 484.153 389.153L503.669 389.281C504.212 389.281 504.627 389.728 504.627 390.27C504.595 390.813 504.18 391.228 503.669 391.228Z" fill="#A1A4FC"/>
<path d="M487.156 388.706C487.06 388.706 486.932 388.706 486.836 388.674C486.325 388.515 486.038 387.972 486.197 387.461L490.925 371.981C491.084 371.47 491.627 371.183 492.138 371.342C492.649 371.502 492.937 372.045 492.777 372.555L488.05 388.036C487.954 388.419 487.571 388.674 487.156 388.706Z" fill="#A1A4FC"/>
<path d="M472.272 400.803C472.176 400.803 472.048 400.803 471.952 400.771C471.441 400.612 471.154 400.069 471.314 399.559L476.041 384.078C476.201 383.567 476.744 383.28 477.255 383.44C477.766 383.599 478.053 384.142 477.893 384.653L473.166 400.133C473.038 400.548 472.687 400.803 472.272 400.803Z" fill="#A1A4FC"/>
<path d="M495.748 404.442C495.716 404.442 495.684 404.442 495.652 404.442L470.547 403.069C470.004 403.037 469.589 402.591 469.621 402.048C469.653 401.505 470.1 401.09 470.643 401.122L495.748 402.495C496.291 402.527 496.706 402.974 496.674 403.516C496.674 404.027 496.259 404.442 495.748 404.442Z" fill="#A1A4FC"/>
<path d="M457.259 415.646C456.716 415.677 456.269 415.231 456.269 414.72C456.237 414.177 456.684 413.73 457.195 413.73L474.316 413.156C474.859 413.124 475.306 413.571 475.306 414.082C475.338 414.624 474.89 415.071 474.379 415.071L457.259 415.646Z" fill="#A1A4FC"/>
<path d="M422.284 418.326C408.39 418.103 393.697 404.282 398.169 388.61C402.641 372.938 414.65 363.873 419.793 353.372C424.935 342.902 431.802 321.261 440.203 313.633C448.603 306.004 477.924 280.406 489.742 291.29C501.528 302.174 481.342 321.932 481.246 334.54C481.15 347.148 486.293 359.692 475.209 368.405C464.126 377.119 445.153 392.217 443.045 402.495C440.969 412.804 429.662 418.454 422.284 418.326Z" fill="url(#paint1_linear_681_2287)"/>
<path d="M407.975 429.434C408.199 429.338 408.39 429.146 408.518 428.923C408.646 428.604 422.412 395.791 431.483 372.395C440.49 349.158 482.716 297.546 483.131 297.035C483.482 296.62 483.418 296.014 483.003 295.662C482.588 295.311 481.981 295.375 481.63 295.79C479.873 297.929 438.797 348.169 429.662 371.661C420.591 395.025 406.825 427.806 406.697 428.125C406.506 428.604 406.729 429.178 407.208 429.402C407.464 429.529 407.719 429.529 407.975 429.434Z" fill="#A1A4FC"/>
<path d="M457.45 330.071C457.482 330.071 457.514 330.039 457.514 330.039L481.693 317.591C482.172 317.335 482.364 316.761 482.108 316.282C481.853 315.803 481.278 315.612 480.799 315.867L458.313 327.422L461.762 305.334C461.858 304.791 461.475 304.313 460.964 304.217C460.421 304.121 459.942 304.504 459.846 305.015L456.109 328.986C456.045 329.337 456.205 329.72 456.492 329.911C456.811 330.167 457.163 330.199 457.45 330.071Z" fill="#A1A4FC"/>
<path d="M445.856 346.636C446.208 346.509 446.463 346.158 446.463 345.775L447.134 315.452C447.134 314.909 446.719 314.462 446.176 314.462C445.633 314.462 445.186 314.877 445.186 315.42L444.547 345.743C444.547 346.285 444.962 346.732 445.505 346.732C445.601 346.7 445.761 346.668 445.856 346.636Z" fill="#A1A4FC"/>
<path d="M472.495 346.509C472.974 346.317 473.229 345.743 473.038 345.264C472.846 344.753 472.271 344.53 471.792 344.721L436.306 358.957C435.827 359.149 435.572 359.723 435.763 360.202C435.955 360.713 436.53 360.936 437.009 360.744L472.495 346.509Z" fill="#A1A4FC"/>
<path d="M429.471 376.672L461.635 363.522C462.146 363.33 462.369 362.756 462.178 362.245C461.986 361.734 461.411 361.511 460.9 361.702L428.736 374.853C428.225 375.044 428.001 375.619 428.193 376.13C428.417 376.64 428.992 376.864 429.471 376.672Z" fill="#A1A4FC"/>
<path d="M433.112 363.713C433.112 363.681 433.112 363.649 433.08 363.617L428.576 338.912C428.48 338.402 428.832 337.891 429.343 337.795C429.854 337.699 430.365 338.05 430.461 338.561L434.964 363.266C435.06 363.777 434.709 364.288 434.198 364.383C433.751 364.479 433.272 364.192 433.112 363.713Z" fill="#A1A4FC"/>
<path d="M236.87 437.222C246.388 435.626 255.076 424.614 250.349 414.305C245.654 403.995 236.455 398.984 231.824 392.313C227.192 385.642 220.261 371.47 213.681 367.097C207.102 362.724 184.296 348.169 177.301 356.883C170.338 365.597 186.245 377.087 187.618 385.737C188.992 394.387 186.756 403.548 195.284 408.4C203.812 413.251 218.409 421.646 220.932 428.508C223.455 435.339 231.824 438.052 236.87 437.222Z" fill="url(#paint2_linear_681_2287)"/>
<path d="M248.88 442.17C248.337 441.308 235.72 420.529 227.256 405.751C224.637 401.186 219.846 395.313 214.32 389.249L210.775 368.757C210.743 368.502 210.583 368.278 210.36 368.118C210.136 367.959 209.88 367.895 209.625 367.959C209.082 368.055 208.731 368.565 208.826 369.108L211.829 386.536C209.465 383.982 207.006 381.429 204.578 378.971L199.596 363.139C199.532 362.884 199.34 362.692 199.117 362.565C198.893 362.437 198.606 362.405 198.35 362.501C197.839 362.66 197.551 363.235 197.711 363.746L201.544 375.939C192.377 366.81 184.296 359.5 183.594 358.894C183.178 358.543 182.571 358.575 182.188 358.958C181.997 359.149 181.933 359.405 181.933 359.66C181.933 359.915 182.06 360.171 182.252 360.362C182.412 360.522 190.62 367.927 200.011 377.247L186.117 372.555C185.861 372.459 185.606 372.491 185.35 372.587C185.095 372.715 184.935 372.906 184.839 373.162C184.743 373.417 184.775 373.672 184.903 373.928C185.031 374.151 185.222 374.343 185.478 374.438L203.173 380.407C208.507 385.801 213.969 391.611 218.345 396.877L195.316 391.451C195.06 391.387 194.805 391.419 194.581 391.579C194.357 391.706 194.198 391.93 194.134 392.185C194.006 392.728 194.326 393.238 194.868 393.366L220.421 399.399C222.561 402.08 224.318 404.602 225.563 406.74C225.627 406.868 225.723 407.027 225.787 407.155L204.546 401.984C204.291 401.92 204.035 401.952 203.78 402.112C203.556 402.24 203.397 402.463 203.333 402.718C203.205 403.261 203.524 403.804 204.067 403.931L227.128 409.549C235.72 424.391 247.059 443.064 247.187 443.255C247.315 443.479 247.538 443.638 247.794 443.702C247.858 443.734 247.953 443.734 248.017 443.734C248.209 443.734 248.369 443.67 248.528 443.574C248.752 443.447 248.912 443.223 248.976 442.968C249.039 442.681 249.008 442.393 248.88 442.17Z" fill="#A1A4FC"/>
<path d="M392.611 446H290.657C280.596 446 272.355 437.765 272.355 427.71V205.939C272.355 195.885 280.596 187.65 290.657 187.65H392.611C402.672 187.65 410.913 195.885 410.913 205.939V427.71C410.881 437.797 402.672 446 392.611 446Z" fill="url(#paint3_linear_681_2287)"/>
<path d="M390.12 439.297H293.117C285.611 439.297 279.446 433.137 279.446 425.636V208.014C279.446 200.513 285.611 194.353 293.117 194.353H390.12C397.626 194.353 403.79 200.513 403.79 208.014V425.604C403.79 433.137 397.626 439.297 390.12 439.297Z" fill="#35C4FC"/>
<path d="M333.809 124.196C334.033 125.664 333.33 127.005 332.212 127.164C331.094 127.324 330.04 126.271 329.817 124.802C329.593 123.334 330.296 121.993 331.414 121.834C332.5 121.674 333.586 122.728 333.809 124.196Z" fill="#FFBFA3"/>
<path d="M349.173 124.164C348.95 125.632 349.652 126.973 350.77 127.132C351.888 127.292 352.942 126.238 353.166 124.77C353.389 123.302 352.687 121.961 351.569 121.802C350.483 121.61 349.397 122.695 349.173 124.164Z" fill="#FFBFA3"/>
<path d="M360.831 143.442C361.151 138.942 355.721 135.144 351.728 135.144C347.736 135.144 341.444 135.144 341.444 135.144C341.444 135.144 337.866 135.144 333.299 135.144C328.731 135.144 322.503 138.942 322.822 143.442L327.007 168.052H356.615L360.831 143.442Z" fill="#1542E4"/>
<path d="M359.522 139.325C359.522 139.325 370.989 158.317 366.645 163.807C362.333 169.297 354.412 169.329 354.412 169.329L349.365 161.221L355.115 153.689L350.803 146.826L359.522 139.325Z" fill="url(#paint4_linear_681_2287)"/>
<path d="M345.788 130.963V138.495C345.788 138.495 345.788 140.538 341.476 140.538C337.164 140.538 337.164 137.793 337.164 137.793V130.931H345.788V130.963Z" fill="#FFBFA3"/>
<path d="M332.117 123.43C332.117 129.494 336.301 134.41 341.476 134.41C346.65 134.41 350.834 129.494 350.834 123.43C350.834 117.365 346.65 112.45 341.476 112.45C336.301 112.45 332.117 117.365 332.117 123.43Z" fill="#FFBFA3"/>
<path d="M324.611 139.038C323.461 140.123 311.963 157.647 317.009 163.137C322.056 168.627 329.242 169.967 329.242 169.967L334.289 161.19L328.54 153.657L332.852 146.794C332.82 146.794 325.761 137.953 324.611 139.038Z" fill="url(#paint5_linear_681_2287)"/>
<path d="M339.304 166.68L324.898 168.052C324.898 168.052 307.619 157.774 304.041 166.009C300.432 174.244 320.586 183.82 325.633 185.192C330.68 186.565 352.974 187.937 360.161 185.192C367.347 182.447 383.19 174.915 378.878 166.68C374.566 158.445 356.583 168.052 356.583 168.052L339.304 166.68Z" fill="#121729"/>
<path d="M325.761 150.05H357.925C359.171 150.05 360.193 151.071 360.193 152.316V169.201C360.193 170.446 359.171 171.467 357.925 171.467H325.761C324.515 171.467 323.493 170.446 323.493 169.201V152.316C323.493 151.071 324.515 150.05 325.761 150.05Z" fill="#121729"/>
<path d="M323.621 171.052H360.001C360.448 171.052 360.831 171.435 360.831 171.882V172.967C360.831 173.414 360.448 173.797 360.001 173.797H323.621C323.173 173.797 322.79 173.414 322.79 172.967V171.882C322.822 171.403 323.173 171.052 323.621 171.052Z" fill="url(#paint6_linear_681_2287)"/>
<path d="M339.782 161.349C339.782 162.434 340.708 163.296 341.826 163.296C342.944 163.296 343.871 162.434 343.871 161.349C343.871 160.264 342.944 159.402 341.826 159.402C340.708 159.402 339.782 160.264 339.782 161.349Z" fill="white"/>
<path d="M321.321 169.425C327.422 172.648 347.225 183.15 347.225 183.15L345.787 189.31C345.787 189.31 333.906 188.289 325.633 185.193C317.36 182.128 310.334 178.33 306.82 174.212C303.339 170.095 315.22 166.201 321.321 169.425Z" fill="url(#paint7_linear_681_2287)"/>
<path d="M335.215 184.49C335.215 184.49 329.466 183.117 324.419 184.49C319.373 185.862 317.936 187.905 318.67 189.98C319.405 192.023 324.419 193.395 328.029 192.725C331.638 192.055 338.218 189.629 338.218 189.629L335.215 184.49Z" fill="#121729"/>
<path d="M347.959 184.554C347.959 184.554 353.708 183.181 358.755 184.554C363.802 185.926 365.239 187.969 364.504 190.044C363.77 192.119 358.755 193.459 355.146 192.789C351.536 192.119 345.787 189.31 345.787 189.31L347.959 184.554Z" fill="#121729"/>
<path d="M347.224 184.65C347.224 184.65 354.603 185.001 353.07 188.448C351.504 191.864 345.244 188.991 345.244 188.991L347.224 184.65Z" fill="#FFBFA3"/>
<path d="M335.917 184.618C335.917 184.618 328.284 184.969 329.817 188.416C331.382 191.831 338.057 189.31 338.057 189.31L335.917 184.618Z" fill="#FFBFA3"/>
<path d="M361.087 170.797C354.795 173.829 335.184 184.522 335.184 184.522L336.461 189.948C336.461 189.948 347.704 189.15 357.765 185.927C367.795 182.703 373.257 179.064 376.77 174.946C380.252 170.797 367.348 167.733 361.087 170.797Z" fill="url(#paint8_linear_681_2287)"/>
<path d="M346.522 118.61C342.306 118.418 339.847 120.717 335.726 119.28C332.277 118.099 332.117 123.398 332.117 123.398C332.117 123.398 330.009 118.418 330.68 115.163C331.35 111.907 331.574 105.332 342.593 105.715C353.613 106.098 351.537 118.45 351.537 118.45L350.802 124.068C350.834 124.1 350.738 118.801 346.522 118.61Z" fill="#121729"/>
<path d="M50.1141 442.01C45.6744 441.914 40.5959 441.627 34.0481 441.148C27.5322 440.67 21.5594 441.404 18.6847 435.084C15.842 428.764 34.2717 393.909 39.7015 395.888C45.1314 397.867 30.6305 428.477 32.994 428.253C35.1021 428.03 36.6991 427.902 41.8735 427.679C47.0798 427.455 57.5243 428.317 57.5243 428.317C63.1458 430.073 66.244 434.86 65.4775 440.478C64.7748 445.681 54.5538 442.106 50.1141 442.01Z" fill="#121729"/>
<path d="M36.5712 397.228C37.1142 395.121 38.2641 391.961 38.2641 391.961L43.9175 394.547C43.9175 394.547 41.4262 397.898 40.6915 398.824C39.925 399.75 36.0282 399.335 36.5712 397.228Z" fill="#FFBFA3"/>
<path d="M32.4193 382.482C33.122 383.152 44.7803 394.26 44.7803 394.26C44.7803 394.26 44.8122 396.111 41.8418 397.356C41.8737 393.845 37.0826 394.93 37.0826 394.93C37.0826 394.93 31.2056 389.472 30.1835 385.769C29.1614 382.099 31.7166 381.812 32.4193 382.482Z" fill="#121729"/>
<path d="M115.528 397.101C113.42 390.621 105.882 388.387 99.7177 389.759C93.5532 391.164 90.0078 393.302 85.4404 397.292C80.8729 401.282 83.1087 403.516 69.566 407.889C56.0232 412.262 55.1928 421.87 56.2468 424.838C57.3008 427.839 61.485 428.445 61.485 428.445L91.509 425.604C91.509 425.604 101.379 424.327 107.671 419.923C113.995 415.518 112.654 406.261 112.654 406.261C112.654 406.261 117.636 403.58 115.528 397.101Z" fill="#121729"/>
<path d="M118.435 440.127C118.435 440.127 121.724 438.563 124.248 439.233C126.771 439.904 129.326 442.84 129.326 442.84L118.498 443.096L118.435 440.127Z" fill="#FFBFA3"/>
<path d="M46.122 445.777C35.7094 446.67 15.2995 445.138 13.447 437.797C11.5944 430.456 7.60186 398.76 13.6705 398.824C19.7392 398.888 22.1348 431.318 24.69 431.03C31.0461 430.328 44.2695 428.19 50.3062 430.041C51.3602 430.36 52.1268 426.977 59.3454 425.891C69.7579 424.327 69.4705 439.329 66.2764 442.042C63.0504 444.691 56.5346 444.883 46.122 445.777Z" fill="url(#paint9_linear_681_2287)"/>
<path d="M10.9875 402.016C10.0932 399.016 10.0293 396.558 10.0293 396.558L14.3732 395.473C14.3732 395.473 15.4272 398.633 16.0022 400.771C16.5771 402.846 11.8818 404.984 10.9875 402.016Z" fill="#FFBFA3"/>
<path d="M94.3196 418.231C96.3638 418.167 99.4301 420.976 100.899 424.359C102.369 427.742 104.381 434.988 104.381 434.988L119.712 439.488L118.786 442.872C118.786 442.872 104.7 443.255 100.516 440.606C97.7692 438.882 94.0641 429.115 93.2656 424.997C92.499 420.912 92.2755 418.294 94.3196 418.231Z" fill="#1542E4"/>
<path d="M2.23574 387.11C3.16201 387.621 18.1101 396.175 18.1101 396.175C18.1101 396.175 18.6212 398.09 15.8424 400.133C14.948 396.462 10.2528 398.856 10.2528 398.856C10.2528 398.856 2.74678 394.707 0.734537 391.132C-1.24577 387.557 1.30946 386.599 2.23574 387.11Z" fill="#121729"/>
<path d="M91.2532 415.709C91.2532 415.709 96.2998 416.475 98.4079 421.646C100.484 426.817 99.398 435.339 94.2556 438.723C89.1132 442.106 87.1329 441.5 87.1329 441.5C87.1329 441.5 71.546 444.5 61.0695 444.117C50.625 443.734 59.4725 429.881 65.2857 426.466C71.0988 423.051 80.8087 414.337 91.2532 415.709Z" fill="#1542E4"/>
<path d="M88.8261 417.56C89.6246 416.73 94.3518 407.921 94.3518 407.921C94.3518 407.921 92.3395 404.889 94.3198 402.814C96.3001 400.739 98.504 405.367 98.504 405.367L111.408 404.889C111.408 404.889 109.875 412.07 105.116 417.05C103.231 419.029 100.389 417.943 98.4082 416.539C98.4082 416.539 97.3861 418.837 95.278 421.614C93.138 424.359 88.0276 418.39 88.8261 417.56Z" fill="#FFBFA3"/>
<path d="M107.384 440.382C107.384 440.382 110.674 438.818 113.197 439.489C115.72 440.159 118.275 443.096 118.275 443.096L107.448 443.351L107.384 440.382Z" fill="#FFBFA3"/>
<path d="M81.7994 419.763C84.0352 419.699 86.3988 422.635 87.9958 426.306C89.5928 430.009 91.4134 437.541 91.4134 437.541L107.511 440.606L107.479 444.883C107.479 444.883 90.7746 446.351 86.2391 443.478C83.2367 441.595 79.851 431.764 79.0205 427.296C78.1581 422.827 79.5635 419.827 81.7994 419.763Z" fill="url(#paint10_linear_681_2287)"/>
<path d="M102.178 445.425L144.275 444.915L144.627 442.489L102.274 442.968L102.178 445.425Z" fill="#121729"/>
<path d="M121.15 443.255L144.627 442.489L147.757 424.487C148.076 422.699 146.671 421.039 144.85 421.071L126.772 421.263C125.335 421.295 124.121 422.348 123.929 423.752L121.15 443.255Z" fill="#121729"/>
<path d="M121.182 442.776L102.274 442.967L102.178 445.425L121.086 445.202L121.182 442.776Z" fill="url(#paint11_linear_681_2287)"/>
<path d="M137.888 433.424C137.856 434.605 136.865 435.499 135.684 435.467C134.502 435.435 133.608 434.445 133.64 433.264C133.671 432.083 134.662 431.19 135.843 431.222C136.993 431.285 137.92 432.275 137.888 433.424Z" fill="white"/>
<path d="M248.336 290.109C245.717 289.566 241.852 285.96 243.417 284.204C245.014 282.449 248.176 282.257 250.189 281.714C252.169 281.14 253.383 279.448 260.218 280.278C267.053 281.14 270.215 286.407 269.64 291.226C269.065 296.046 265.935 301.887 265.935 301.887C265.935 301.887 250.955 290.652 248.336 290.109Z" fill="#121729"/>
<path d="M267.66 310.984C266.926 309.994 264.243 295.759 264.243 295.759C264.243 295.759 266.894 293.046 265.041 290.556C263.221 288.034 261.208 292.854 261.208 292.854C261.208 292.854 261.624 297.323 260.793 297.259C259.931 297.195 258.685 293.046 257.567 292.024C256.449 291.003 247.41 289.566 247.41 289.566C247.41 289.566 247.666 299.397 252.073 305.43C253.83 307.824 256.29 307.505 258.621 306.26C259.196 308.494 260.154 311.973 260.921 314.367C262.071 318.134 268.395 311.973 267.66 310.984Z" fill="#FFBFA3"/>
<path d="M282.161 433.935C286.441 431.924 276.508 400.197 268.331 394.483C268.331 394.483 266.702 371.661 263.061 364.607C259.42 357.553 251.754 365.022 251.754 365.022C251.754 365.022 252.712 394.675 258.653 403.005C264.594 411.304 276.699 436.488 282.161 433.935Z" fill="#121729"/>
<path d="M245.557 359.054C245.557 359.054 242.459 379.099 243.066 397.037C243.641 414.943 243.865 437.414 250.253 437.925C256.673 438.436 258.27 373.896 260.633 371.789C263.476 371.789 266.351 367.129 266.478 364.416C266.574 361.703 265.201 359.086 265.201 359.086H245.557V359.054Z" fill="url(#paint12_linear_681_2287)"/>
<path d="M263.189 309.994C257.919 310.729 252.233 317.4 249.518 323.943C246.803 330.486 244.216 353.819 244.536 359.5C244.823 365.182 267.692 362.501 267.692 362.501C267.692 362.501 267.948 351.84 269.673 343.158C271.397 334.476 274.943 330.518 274.336 322.411C273.729 314.24 270.471 308.973 263.189 309.994Z" fill="#1542E4"/>
<path d="M247.282 435.18C246.835 436.935 246.42 438.723 246.42 438.723L247.41 442.266H252.297C252.297 442.266 252.137 437.574 251.914 435.754C251.754 433.935 247.698 433.392 247.282 435.18Z" fill="#FFBFA3"/>
<path d="M230.737 446C231.983 445.968 252.457 445.17 252.457 445.17C252.457 445.17 254.054 443.447 252.265 439.744C249.327 443.127 246.548 438.021 246.548 438.021C246.548 438.021 235.497 439.138 231.408 441.787C227.32 444.5 229.492 446.064 230.737 446Z" fill="#121729"/>
<path d="M278.424 431.764C278.743 433.552 279.095 435.371 279.095 435.371L281.458 438.212L285.93 436.201C285.93 436.201 283.854 431.988 282.927 430.392C282.001 428.828 278.104 429.977 278.424 431.764Z" fill="#FFBFA3"/>
<path d="M222.72 337.732C221.954 338.179 220.932 337.923 220.484 337.125L210.551 319.953C210.104 319.187 210.359 318.166 211.158 317.719C211.924 317.272 212.946 317.527 213.394 318.325L223.327 335.497C223.774 336.295 223.519 337.285 222.72 337.732Z" fill="#121729"/>
<path d="M216.716 331.348C217.578 330.454 221.028 330.933 224.477 332.625C227.927 334.316 228.246 336.231 228.246 336.231L232.175 336.87L231.312 342.041L226.266 341.211C226.266 341.211 223.711 341.69 220.612 340.285C217.514 338.881 218.504 334.252 218.504 334.252C218.504 334.252 215.821 332.242 216.716 331.348Z" fill="#FFBFA3"/>
<path d="M266.862 444.883C269.002 444.883 273.154 444.883 274.943 444.883C276.7 444.883 287.272 439.648 287.272 439.648C287.272 439.648 288.039 436.552 284.876 433.935C283.12 437.318 278.936 434.733 278.936 434.733C278.936 434.733 275.837 436.871 273.761 437.924C271.685 438.978 267.213 440.254 265.648 441.691C264.083 443.095 264.722 444.883 266.862 444.883Z" fill="#121729"/>
<path d="M265.776 315.58C271.749 316.346 265.201 340.509 261.368 345.52C257.536 350.531 229.779 342.711 229.779 342.711L231.919 336.487L254.757 337.157C254.757 337.157 255.108 328.188 256.961 323.081C258.781 317.942 261.624 315.038 265.776 315.58Z" fill="url(#paint13_linear_681_2287)"/>
<path d="M422.795 399.303C417.972 400.675 426.405 419.763 430.206 423.434C434.006 427.072 455.886 417.114 455.886 417.114L453.33 412.262L434.581 415.677C434.581 415.677 432.473 408.081 430.301 404.091C428.161 400.133 426.117 398.345 422.795 399.303Z" fill="#1542E4"/>
<path d="M446.144 377.534C446.528 382.514 445.346 385.035 443.366 387.078C440.778 389.759 435.955 390.142 431.835 389.919C424.585 389.504 418.963 384.237 419.314 378.173C419.666 372.108 425.894 366.81 433.145 367.225C440.427 367.671 445.761 372.555 446.144 377.534Z" fill="#121729"/>
<path d="M445.154 384.46C445.154 384.46 443.748 387.397 444.036 390.142C444.323 392.887 446.112 392.919 446.112 392.919C445.186 393.461 442.183 392.376 442.343 388.993C442.503 385.577 444.291 382.928 444.291 382.928L445.154 384.46Z" fill="#121729"/>
<path d="M421.423 396.717C422.349 395.888 427.14 384.046 427.14 384.046C427.14 384.046 425.415 380.024 427.363 378.652C429.312 377.279 431.26 381.365 431.26 381.365L444.931 380.12C444.931 380.12 443.334 389.663 437.808 394.611C435.604 396.59 433.272 395.76 431.26 394.036C430.206 396.079 428.577 399.271 427.332 401.441C425.319 404.825 420.496 397.547 421.423 396.717Z" fill="#FFBFA3"/>
<path d="M459.719 437.031C459.719 437.031 467.704 434.637 470.898 437.031C474.092 439.425 471.697 442.617 469.301 444.212C466.906 445.808 456.94 443.829 456.94 443.829L459.719 437.031Z" fill="#121729"/>
<path d="M484.217 433.839L487.794 438.212L484.249 442.68L480.416 440.382L478.659 436.424L484.217 433.839Z" fill="#FFBFA3"/>
<path d="M485.304 434.637L479.842 439.106L462.019 422.157L442.567 437.031C442.567 437.031 430.334 436.233 425.543 433.839C420.752 431.445 437.169 422.54 445.155 417.752C453.14 412.964 457.132 408.974 464.287 410.57C471.441 412.166 485.304 434.637 485.304 434.637Z" fill="#121729"/>
<path d="M426.213 431.253C431.004 431.253 434.997 431.158 444.547 431.956C454.129 432.754 460.325 432.179 462.082 437.031C463.839 441.85 458.888 444.212 452.5 445.01C446.112 445.808 429.12 446.734 419.282 445.17C409.444 443.606 409.444 437.031 409.444 431.445C409.476 425.859 421.422 431.253 426.213 431.253Z" fill="url(#paint14_linear_681_2287)"/>
<path d="M500.954 445.01C499.772 445.01 480.224 445.01 480.224 445.01C480.224 445.01 478.627 443.414 480.224 439.839C483.163 442.967 487.411 437.86 487.411 437.86C487.411 437.86 496.195 437.86 500.187 440.254C504.148 442.616 502.168 445.01 500.954 445.01Z" fill="#121729"/>
<path d="M423.466 391.93C423.466 391.93 415.928 396.366 412.734 401.952C409.54 407.538 408.422 423.465 408.965 430.296C409.668 439.106 428.8 430.998 428.8 430.998C428.8 430.998 435.125 418.805 433.528 413.251C431.931 407.666 429.439 398.856 429.439 398.856L423.466 391.93Z" fill="#1542E4"/>
<path d="M420.879 373.544C420.879 373.544 419.474 369.203 415.194 368.533C410.914 367.863 405.069 369.427 405.26 375.555C405.452 381.651 410.882 388.993 410.243 392.025C409.604 395.057 409.381 395.568 408.007 397.1C409.445 398.185 414.172 395.536 415.29 390.684C416.408 385.833 420.145 376.928 420.145 376.928L420.879 373.544Z" fill="#121729"/>
<path d="M438.542 378.587C438.542 378.587 435.124 382.162 433.623 386.248C432.154 390.333 434.07 391.131 434.07 391.131C432.729 391.514 430.205 388.642 432.601 383.822C434.997 379.002 438.638 376.002 438.638 376.002L438.542 378.587Z" fill="#121729"/>
<path d="M456.014 414.273C456.716 414.56 457.515 414.209 457.77 413.507L463.775 398.09C464.063 397.388 463.711 396.59 463.009 396.334C462.306 396.047 461.507 396.398 461.252 397.1L455.247 412.517C454.96 413.219 455.311 414.017 456.014 414.273Z" fill="#121729"/>
<path d="M460.645 408.112C459.782 407.506 456.908 408.368 454.193 410.219C451.446 412.07 451.414 413.698 451.414 413.698L448.124 414.783L449.466 418.933L453.65 417.56C453.65 417.56 455.886 417.592 458.345 416.028C460.804 414.464 459.399 410.762 459.399 410.762C459.399 410.762 461.475 408.719 460.645 408.112Z" fill="#FFBFA3"/>
<path d="M418.388 400.803C413.565 402.176 420.049 424.551 423.85 428.189C427.651 431.828 450.839 419.252 450.839 419.252L448.284 414.4L429.407 419.699C429.407 419.699 427.459 410.474 425.287 406.517C423.115 402.527 421.71 399.846 418.388 400.803Z" fill="url(#paint15_linear_681_2287)"/>
<path d="M381.464 323.656C381.464 313.282 373.511 305.877 363.673 305.877C360.735 305.877 357.956 306.611 355.497 307.856C352.303 303.068 346.873 299.94 340.676 299.94C332.244 299.94 325.185 305.781 323.365 313.665C321.033 312.037 318.19 311.08 315.092 311.08C307.107 311.08 300.623 316.282 300.623 326.656C300.623 337.029 306.213 340.7 313.048 340.7C313.048 340.7 367.187 341.211 368.816 340.7C375.236 340.381 381.464 334.029 381.464 323.656Z" fill="white"/>
<path d="M334.694 323.572C335.122 322.358 334.483 321.028 333.269 320.601C332.054 320.174 330.723 320.812 330.295 322.026C329.868 323.24 330.506 324.57 331.721 324.997C332.936 325.424 334.267 324.786 334.694 323.572Z" fill="#121729"/>
<path d="M342.153 323.158C342.36 321.888 341.497 320.691 340.225 320.485C338.954 320.279 337.757 321.142 337.55 322.412C337.344 323.682 338.207 324.879 339.478 325.085C340.749 325.291 341.947 324.429 342.153 323.158Z" fill="#121729"/>
<path d="M348.696 324.405C349.607 323.495 349.607 322.02 348.696 321.11C347.786 320.2 346.309 320.2 345.399 321.11C344.488 322.02 344.488 323.495 345.399 324.405C346.309 325.315 347.786 325.315 348.696 324.405Z" fill="#121729"/>
<path d="M347.065 323.4C346.713 323.4 346.426 323.113 346.426 322.762V313.186C346.426 312.835 346.713 312.548 347.065 312.548C347.416 312.548 347.703 312.835 347.703 313.186V322.762C347.703 323.113 347.416 323.4 347.065 323.4ZM347.065 307.441C346.713 307.441 346.426 307.153 346.426 306.802V297.227C346.426 296.875 346.713 296.588 347.065 296.588C347.416 296.588 347.703 296.875 347.703 297.227V306.802C347.703 307.153 347.416 307.441 347.065 307.441ZM347.065 291.481C346.713 291.481 346.426 291.194 346.426 290.843V281.267C346.426 280.916 346.713 280.629 347.065 280.629C347.416 280.629 347.703 280.916 347.703 281.267V290.843C347.703 291.194 347.416 291.481 347.065 291.481ZM347.16 275.554C347.128 275.554 347.097 275.554 347.065 275.554C346.713 275.49 346.458 275.171 346.522 274.82C347.001 271.372 349.3 268.436 352.526 267.095C352.846 266.968 353.229 267.127 353.357 267.446C353.485 267.766 353.325 268.149 353.006 268.276C350.195 269.425 348.214 272.011 347.799 275.011C347.735 275.298 347.448 275.554 347.16 275.554ZM457.131 267.606H454.895C454.544 267.606 454.257 267.319 454.257 266.968C454.257 266.617 454.544 266.329 454.895 266.329H457.131C459.463 266.329 461.635 265.404 463.264 263.776C463.519 263.52 463.903 263.52 464.158 263.776C464.414 264.031 464.414 264.414 464.158 264.669C462.274 266.553 459.782 267.606 457.131 267.606ZM448.475 267.606H438.893C438.542 267.606 438.255 267.319 438.255 266.968C438.255 266.617 438.542 266.329 438.893 266.329H448.475C448.827 266.329 449.114 266.617 449.114 266.968C449.114 267.319 448.827 267.606 448.475 267.606ZM432.505 267.606H422.923C422.572 267.606 422.284 267.319 422.284 266.968C422.284 266.617 422.572 266.329 422.923 266.329H432.505C432.857 266.329 433.144 266.617 433.144 266.968C433.144 267.319 432.857 267.606 432.505 267.606ZM416.535 267.606H406.953C406.602 267.606 406.314 267.319 406.314 266.968C406.314 266.617 406.602 266.329 406.953 266.329H416.535C416.886 266.329 417.174 266.617 417.174 266.968C417.174 267.319 416.886 267.606 416.535 267.606ZM400.565 267.606H390.983C390.631 267.606 390.344 267.319 390.344 266.968C390.344 266.617 390.631 266.329 390.983 266.329H400.565C400.916 266.329 401.204 266.617 401.204 266.968C401.204 267.319 400.916 267.606 400.565 267.606ZM384.595 267.606H375.012C374.661 267.606 374.374 267.319 374.374 266.968C374.374 266.617 374.661 266.329 375.012 266.329H384.595C384.946 266.329 385.233 266.617 385.233 266.968C385.233 267.319 384.946 267.606 384.595 267.606ZM368.624 267.606H359.042C358.691 267.606 358.403 267.319 358.403 266.968C358.403 266.617 358.691 266.329 359.042 266.329H368.624C368.976 266.329 369.263 266.617 369.263 266.968C369.263 267.319 368.976 267.606 368.624 267.606ZM466.33 259.179C466.298 259.179 466.298 259.179 466.266 259.179C465.915 259.148 465.659 258.828 465.691 258.477C465.723 258.222 465.723 257.967 465.723 257.711V248.965C465.723 248.614 466.011 248.327 466.362 248.327C466.713 248.327 467.001 248.614 467.001 248.965V257.743C467.001 258.03 467.001 258.318 466.969 258.605C466.937 258.924 466.65 259.179 466.33 259.179ZM466.362 243.22C466.011 243.22 465.723 242.933 465.723 242.582V233.006C465.723 232.655 466.011 232.368 466.362 232.368C466.713 232.368 467.001 232.655 467.001 233.006V242.582C467.001 242.933 466.713 243.22 466.362 243.22ZM466.362 227.261C466.011 227.261 465.723 226.973 465.723 226.622V217.047C465.723 216.696 466.011 216.408 466.362 216.408C466.713 216.408 467.001 216.696 467.001 217.047V226.622C467.001 226.973 466.713 227.261 466.362 227.261ZM466.362 211.301C466.011 211.301 465.723 211.014 465.723 210.663V201.087C465.723 200.736 466.011 200.449 466.362 200.449C466.713 200.449 467.001 200.736 467.001 201.087V210.663C467.001 211.014 466.713 211.301 466.362 211.301ZM466.362 195.342C466.011 195.342 465.723 195.055 465.723 194.704V185.128C465.723 184.777 466.011 184.49 466.362 184.49C466.713 184.49 467.001 184.777 467.001 185.128V194.704C467.001 195.055 466.713 195.342 466.362 195.342ZM466.362 179.383C466.011 179.383 465.723 179.095 465.723 178.744V169.169C465.723 168.818 466.011 168.53 466.362 168.53C466.713 168.53 467.001 168.818 467.001 169.169V178.744C467.001 179.095 466.713 179.383 466.362 179.383ZM466.362 163.423C466.011 163.423 465.723 163.136 465.723 162.785V153.209C465.723 152.858 466.011 152.571 466.362 152.571C466.713 152.571 467.001 152.858 467.001 153.209V162.785C467.001 163.136 466.713 163.423 466.362 163.423ZM466.362 147.464C466.011 147.464 465.723 147.177 465.723 146.826V137.25C465.723 136.899 466.011 136.612 466.362 136.612C466.713 136.612 467.001 136.899 467.001 137.25V146.826C467.001 147.177 466.713 147.464 466.362 147.464ZM466.362 131.505C466.011 131.505 465.723 131.217 465.723 130.866V128.728C465.723 128.377 466.011 128.089 466.362 128.089C466.713 128.089 467.001 128.377 467.001 128.728V130.866C467.001 131.217 466.713 131.505 466.362 131.505Z" fill="#121729"/>
<path d="M339.846 323.4C339.495 323.4 339.207 323.113 339.207 322.762V313.186C339.207 312.835 339.495 312.548 339.846 312.548C340.197 312.548 340.485 312.835 340.485 313.186V322.762C340.485 323.113 340.197 323.4 339.846 323.4ZM339.846 307.441C339.495 307.441 339.207 307.153 339.207 306.802V297.227C339.207 296.875 339.495 296.588 339.846 296.588C340.197 296.588 340.485 296.875 340.485 297.227V306.802C340.485 307.153 340.197 307.441 339.846 307.441ZM339.846 291.481C339.495 291.481 339.207 291.194 339.207 290.843V281.267C339.207 280.916 339.495 280.629 339.846 280.629C340.197 280.629 340.485 280.916 340.485 281.267V290.843C340.485 291.194 340.197 291.481 339.846 291.481ZM339.846 275.522C339.495 275.522 339.207 275.235 339.207 274.883V265.308C339.207 264.957 339.495 264.669 339.846 264.669C340.197 264.669 340.485 264.957 340.485 265.308V274.883C340.485 275.235 340.197 275.522 339.846 275.522ZM339.846 259.562C339.495 259.562 339.207 259.275 339.207 258.924V249.348C339.207 248.997 339.495 248.71 339.846 248.71C340.197 248.71 340.485 248.997 340.485 249.348V258.924C340.485 259.275 340.197 259.562 339.846 259.562ZM339.846 243.603C339.495 243.603 339.207 243.316 339.207 242.965V233.389C339.207 233.038 339.495 232.751 339.846 232.751C340.197 232.751 340.485 233.038 340.485 233.389V242.965C340.485 243.316 340.197 243.603 339.846 243.603ZM339.846 227.644C339.495 227.644 339.207 227.357 339.207 227.005V217.43C339.207 217.079 339.495 216.791 339.846 216.791C340.197 216.791 340.485 217.079 340.485 217.43V227.005C340.485 227.357 340.197 227.644 339.846 227.644ZM338.888 211.844C338.664 211.844 338.441 211.716 338.313 211.493C336.971 208.78 334.256 206.96 331.222 206.737C330.871 206.705 330.615 206.418 330.647 206.067C330.679 205.716 330.967 205.46 331.318 205.492C334.767 205.748 337.898 207.822 339.431 210.95C339.59 211.269 339.463 211.652 339.143 211.812C339.079 211.812 338.984 211.844 338.888 211.844ZM324.898 206.705H315.316C314.964 206.705 314.677 206.418 314.677 206.067C314.677 205.716 314.964 205.428 315.316 205.428H324.898C325.249 205.428 325.537 205.716 325.537 206.067C325.537 206.418 325.249 206.705 324.898 206.705ZM308.928 206.705H299.346C298.994 206.705 298.707 206.418 298.707 206.067C298.707 205.716 298.994 205.428 299.346 205.428H308.928C309.279 205.428 309.566 205.716 309.566 206.067C309.566 206.418 309.279 206.705 308.928 206.705ZM292.957 206.705H283.375C283.024 206.705 282.737 206.418 282.737 206.067C282.737 205.716 283.024 205.428 283.375 205.428H292.957C293.309 205.428 293.596 205.716 293.596 206.067C293.596 206.418 293.309 206.705 292.957 206.705ZM276.987 206.705H267.405C267.054 206.705 266.766 206.418 266.766 206.067C266.766 205.716 267.054 205.428 267.405 205.428H276.987C277.339 205.428 277.626 205.716 277.626 206.067C277.626 206.418 277.339 206.705 276.987 206.705ZM261.081 206.258C261.017 206.258 260.953 206.258 260.889 206.226C257.599 205.141 255.076 202.364 254.341 198.949C254.278 198.598 254.469 198.279 254.821 198.183C255.172 198.119 255.491 198.31 255.587 198.662C256.226 201.63 258.43 204.056 261.304 204.981C261.624 205.077 261.816 205.46 261.72 205.779C261.592 206.099 261.336 206.258 261.081 206.258ZM254.725 193.076C254.373 193.076 254.086 192.789 254.086 192.437V182.862C254.086 182.511 254.373 182.223 254.725 182.223C255.076 182.223 255.364 182.511 255.364 182.862V192.437C255.364 192.789 255.076 193.076 254.725 193.076ZM254.725 177.116C254.373 177.116 254.086 176.829 254.086 176.478V166.902C254.086 166.551 254.373 166.264 254.725 166.264C255.076 166.264 255.364 166.551 255.364 166.902V176.478C255.364 176.829 255.076 177.116 254.725 177.116ZM254.725 161.157C254.373 161.157 254.086 160.87 254.086 160.519V150.943C254.086 150.592 254.373 150.305 254.725 150.305C255.076 150.305 255.364 150.592 255.364 150.943V160.519C255.364 160.87 255.076 161.157 254.725 161.157ZM254.725 145.198C254.373 145.198 254.086 144.91 254.086 144.559V134.984C254.086 134.633 254.373 134.345 254.725 134.345C255.076 134.345 255.364 134.633 255.364 134.984V144.559C255.364 144.91 255.076 145.198 254.725 145.198ZM254.725 129.238C254.373 129.238 254.086 128.951 254.086 128.6V119.024C254.086 118.673 254.373 118.386 254.725 118.386C255.076 118.386 255.364 118.673 255.364 119.024V128.6C255.364 128.951 255.076 129.238 254.725 129.238ZM254.725 113.279C254.373 113.279 254.086 112.992 254.086 112.641V103.065C254.086 102.714 254.373 102.427 254.725 102.427C255.076 102.427 255.364 102.714 255.364 103.065V112.641C255.364 112.992 255.076 113.279 254.725 113.279ZM254.725 97.3197C254.373 97.3197 254.086 97.0324 254.086 96.6813V87.1057C254.086 86.7546 254.373 86.4674 254.725 86.4674C255.076 86.4674 255.364 86.7546 255.364 87.1057V96.6813C255.364 97.0324 255.076 97.3197 254.725 97.3197ZM254.725 81.3604C254.373 81.3604 254.086 81.0731 254.086 80.722V71.1464C254.086 70.7953 254.373 70.508 254.725 70.508C255.076 70.508 255.364 70.7953 255.364 71.1464V80.722C255.364 81.0731 255.076 81.3604 254.725 81.3604ZM254.725 65.401C254.373 65.401 254.086 65.1137 254.086 64.7626V57.549C254.086 57.1979 254.373 56.9106 254.725 56.9106C255.076 56.9106 255.364 57.1979 255.364 57.549V64.7626C255.364 65.1137 255.076 65.401 254.725 65.401Z" fill="#121729"/>
<path d="M332.5 323.4C332.148 323.4 331.861 323.113 331.861 322.762V313.186C331.861 312.835 332.148 312.548 332.5 312.548C332.851 312.548 333.138 312.835 333.138 313.186V322.762C333.138 323.113 332.851 323.4 332.5 323.4ZM332.5 307.441C332.148 307.441 331.861 307.154 331.861 306.803V297.227C331.861 296.876 332.148 296.589 332.5 296.589C332.851 296.589 333.138 296.876 333.138 297.227V306.803C333.138 307.154 332.851 307.441 332.5 307.441ZM332.5 291.482C332.148 291.482 331.861 291.194 331.861 290.843V281.268C331.861 280.917 332.148 280.629 332.5 280.629C332.851 280.629 333.138 280.917 333.138 281.268V290.843C333.138 291.194 332.851 291.482 332.5 291.482ZM332.5 275.522C332.148 275.522 331.861 275.235 331.861 274.884V265.308C331.861 264.957 332.148 264.67 332.5 264.67C332.851 264.67 333.138 264.957 333.138 265.308V274.884C333.138 275.235 332.851 275.522 332.5 275.522ZM332.5 259.563C332.148 259.563 331.861 259.276 331.861 258.925V255.509C331.861 253.562 331.222 251.711 330.008 250.179C329.785 249.892 329.849 249.509 330.104 249.285C330.392 249.062 330.775 249.126 330.998 249.381C332.372 251.136 333.106 253.243 333.106 255.509V258.925C333.138 259.276 332.851 259.563 332.5 259.563ZM325.217 247.147C325.185 247.147 325.121 247.147 325.089 247.147C324.483 247.019 323.876 246.955 323.269 246.955H315.667C315.316 246.955 315.028 246.668 315.028 246.317C315.028 245.966 315.316 245.678 315.667 245.678H323.269C323.971 245.678 324.674 245.742 325.345 245.902C325.696 245.966 325.92 246.317 325.824 246.668C325.76 246.923 325.505 247.147 325.217 247.147ZM309.247 246.923H299.665C299.313 246.923 299.026 246.636 299.026 246.285C299.026 245.934 299.313 245.646 299.665 245.646H309.247C309.598 245.646 309.886 245.934 309.886 246.285C309.886 246.636 309.598 246.923 309.247 246.923ZM293.277 246.923H283.695C283.343 246.923 283.056 246.636 283.056 246.285C283.056 245.934 283.343 245.646 283.695 245.646H293.277C293.628 245.646 293.916 245.934 293.916 246.285C293.916 246.636 293.628 246.923 293.277 246.923ZM277.307 246.923H267.724C267.373 246.923 267.086 246.636 267.086 246.285C267.086 245.934 267.373 245.646 267.724 245.646H277.307C277.658 245.646 277.945 245.934 277.945 246.285C277.945 246.636 277.658 246.923 277.307 246.923ZM261.336 246.923H251.754C251.403 246.923 251.115 246.636 251.115 246.285C251.115 245.934 251.403 245.646 251.754 245.646H261.336C261.688 245.646 261.975 245.934 261.975 246.285C261.975 246.636 261.688 246.923 261.336 246.923ZM245.366 246.923H235.784C235.433 246.923 235.145 246.636 235.145 246.285C235.145 245.934 235.433 245.646 235.784 245.646H245.366C245.717 245.646 246.005 245.934 246.005 246.285C246.005 246.636 245.717 246.923 245.366 246.923ZM229.396 246.923H219.814C219.462 246.923 219.175 246.636 219.175 246.285C219.175 245.934 219.462 245.646 219.814 245.646H229.396C229.747 245.646 230.035 245.934 230.035 246.285C230.035 246.636 229.747 246.923 229.396 246.923ZM213.426 246.923H203.844C203.492 246.923 203.205 246.636 203.205 246.285C203.205 245.934 203.492 245.646 203.844 245.646H213.426C213.777 245.646 214.064 245.934 214.064 246.285C214.064 246.636 213.777 246.923 213.426 246.923ZM197.455 246.923H189.087C188.64 246.923 188.225 246.891 187.778 246.827C187.426 246.795 187.171 246.476 187.235 246.125C187.266 245.774 187.618 245.519 187.937 245.583C188.321 245.646 188.704 245.646 189.087 245.646H197.455C197.807 245.646 198.094 245.934 198.094 246.285C198.094 246.636 197.807 246.923 197.455 246.923ZM182.316 243.955C182.156 243.955 181.964 243.891 181.837 243.763C180.144 241.944 179.186 239.55 179.186 237.06V234.411C179.186 234.06 179.473 233.773 179.824 233.773C180.176 233.773 180.463 234.06 180.463 234.411V237.06C180.463 239.231 181.294 241.305 182.763 242.901C183.018 243.157 182.986 243.572 182.731 243.795C182.635 243.923 182.475 243.955 182.316 243.955ZM179.856 228.634C179.505 228.634 179.217 228.346 179.217 227.995V218.42C179.217 218.069 179.505 217.781 179.856 217.781C180.208 217.781 180.495 218.069 180.495 218.42V227.995C180.495 228.346 180.208 228.634 179.856 228.634ZM179.856 212.674C179.505 212.674 179.217 212.387 179.217 212.036V205.876C179.217 205.525 179.505 205.237 179.856 205.237C180.208 205.237 180.495 205.525 180.495 205.876V212.036C180.495 212.387 180.208 212.674 179.856 212.674Z" fill="#121729"/>
<path d="M284.716 89.3486C301.281 72.7952 301.281 45.9568 284.716 29.4034C268.152 12.85 241.295 12.85 224.73 29.4034C208.166 45.9568 208.166 72.7952 224.73 89.3486C241.295 105.902 268.152 105.902 284.716 89.3486Z" fill="#4E27CC"/>
<path d="M281.715 76.6691C280.214 76.5734 278.681 76.4776 277.179 76.3819C276.285 77.5309 275.263 78.4885 274.113 79.3503C274.177 80.8824 274.209 82.3826 274.273 83.8508C272.836 84.4254 271.43 84.968 269.961 85.5425C269.003 84.4573 268.013 83.3082 266.99 82.1591C265.585 82.3187 264.18 82.3187 262.71 82.0953C261.688 83.1805 260.634 84.2977 259.612 85.4149C258.207 84.8084 256.833 84.2019 255.396 83.5955C255.492 82.0953 255.588 80.5951 255.684 79.063C254.566 78.1693 253.575 77.1479 252.713 75.9988C251.212 76.0627 249.679 76.0946 248.241 76.1584C247.666 74.7221 247.092 73.2857 246.517 71.8175C247.603 70.8918 248.72 69.8704 249.87 68.881C249.711 67.4765 249.711 66.0721 249.934 64.6039C248.848 63.5825 247.73 62.5291 246.612 61.4758C247.219 60.0714 247.826 58.667 248.433 57.2626C249.934 57.3583 251.467 57.4541 252.969 57.5498C253.448 57.0072 255.492 55.0282 256.067 54.5814C256.003 53.0812 255.971 51.5491 255.907 50.0808C257.344 49.5063 258.75 48.9637 260.219 48.3892C261.177 49.4744 262.167 50.5915 263.19 51.7725C264.595 51.6129 266 51.6129 267.47 51.8364C268.492 50.7511 269.546 49.634 270.568 48.5168C271.973 49.1233 273.347 49.7297 274.784 50.3362C274.688 51.8364 274.592 53.3366 274.496 54.8367C275.039 55.3155 277.02 57.3583 277.467 57.9328C278.968 57.869 280.469 57.8371 281.939 57.7733C282.513 59.2096 283.088 60.6459 283.663 62.0823C282.577 63.0398 281.427 64.0293 280.278 65.0507C280.437 66.4551 280.437 67.8596 280.214 69.3278C281.3 70.3492 282.418 71.4025 283.536 72.4239C282.929 73.8922 282.322 75.2647 281.715 76.6691ZM272.069 70.062C273.794 66.1998 271.973 61.6673 268.14 59.9756C264.275 58.284 259.708 60.0714 258.015 63.9016C256.322 67.7638 258.111 72.2963 261.944 73.988C265.841 75.6796 270.44 73.8922 272.069 70.062Z" fill="white"/>
<path d="M241.789 61.0607C241.023 60.3265 240.288 59.6243 239.522 58.8902C238.531 59.0817 237.573 59.1455 236.583 59.0817C235.944 59.9116 235.274 60.7415 234.667 61.5394C233.645 61.1883 232.654 60.8691 231.632 60.518C231.6 59.5286 231.6 58.4752 231.568 57.4219C230.77 56.8793 230.003 56.2409 229.333 55.4749C228.311 55.6026 227.256 55.7302 226.234 55.8579C225.755 54.9323 225.308 53.9747 224.829 53.0171C225.532 52.283 226.266 51.517 227.001 50.7509C226.809 49.7934 226.745 48.8039 226.809 47.8144C225.979 47.176 225.18 46.5377 224.382 45.8993C224.733 44.8779 225.053 43.8884 225.404 42.8351C226.394 42.8032 227.448 42.8032 228.502 42.7712C229.045 41.9414 229.684 41.2072 230.419 40.5369C230.291 39.5155 230.163 38.4622 230.035 37.4089C230.994 36.9301 231.92 36.4833 232.878 36.0045C233.645 36.7386 234.379 37.4408 235.146 38.1749C235.657 38.0792 237.605 37.9515 238.084 37.9834C238.723 37.1536 239.362 36.3556 240.001 35.5576C241.023 35.9087 242.013 36.2279 243.035 36.579C243.067 37.5685 243.067 38.6218 243.099 39.6751C243.897 40.2177 244.664 40.8561 245.335 41.6222C246.357 41.4945 247.411 41.3668 248.465 41.2391C248.944 42.1648 249.391 43.1224 249.87 44.0799C249.168 44.814 248.433 45.5801 247.698 46.3142C247.762 46.793 247.922 48.74 247.89 49.2507C248.72 49.8891 249.519 50.5275 250.317 51.1659C249.966 52.1873 249.647 53.1767 249.295 54.1981C248.305 54.2301 247.251 54.2301 246.197 54.262C245.654 55.0919 245.015 55.826 244.281 56.4963C244.408 57.5177 244.536 58.571 244.664 59.6243C243.674 60.135 242.748 60.5819 241.789 61.0607ZM239.649 53.3044C242.268 52.0277 243.323 48.8358 242.077 46.2504C240.799 43.633 237.573 42.5478 234.986 43.8246C232.367 45.1013 231.313 48.2932 232.559 50.8786C233.868 53.4959 237.094 54.5812 239.649 53.3044Z" fill="white"/>
<path d="M209.879 223.498C226.444 206.945 226.444 180.106 209.879 163.553C193.315 146.999 166.458 146.999 149.893 163.553C133.329 180.106 133.329 206.945 149.893 223.498C166.458 240.051 193.315 240.051 209.879 223.498Z" fill="#8C45FF"/>
<path d="M202.119 178.362H157.658V208.685H202.119V178.362Z" fill="white"/>
<path d="M179.601 198.055C179.41 198.055 179.186 197.992 179.026 197.832L157.083 179.223C156.764 178.936 156.636 178.457 156.764 178.01C156.892 177.564 157.243 177.276 157.658 177.276H202.119C202.534 177.276 202.886 177.564 203.014 178.01C203.141 178.457 203.014 178.936 202.662 179.223L180.144 197.832C179.984 197.96 179.793 198.055 179.601 198.055ZM160.501 179.447L179.601 195.63L199.213 179.447H160.501Z" fill="#8C45FF"/>
<path d="M202.119 209.769H157.658C157.275 209.769 156.923 209.514 156.763 209.099C156.604 208.684 156.7 208.237 156.987 207.918L172.798 191.001C173.181 190.586 173.788 190.618 174.139 191.033C174.49 191.48 174.49 192.15 174.107 192.565L160.021 207.631H199.659L185.19 192.597C184.807 192.182 184.775 191.512 185.127 191.065C185.478 190.618 186.085 190.586 186.468 191.001L202.726 207.918C203.013 208.205 203.109 208.684 202.981 209.099C202.885 209.482 202.534 209.769 202.119 209.769Z" fill="#8C45FF"/>
<path d="M496.357 156.79C512.922 140.237 512.922 113.399 496.357 96.8453C479.792 80.2919 452.936 80.2919 436.371 96.8453C419.806 113.399 419.806 140.237 436.371 156.79C452.936 173.344 479.792 173.344 496.357 156.79Z" fill="#FF297F"/>
<path d="M477.783 119.032C478.806 112.733 474.526 106.798 468.222 105.775C461.919 104.753 455.98 109.031 454.957 115.33C453.934 121.629 458.214 127.564 464.518 128.586C470.821 129.609 476.76 125.331 477.783 119.032Z" fill="white"/>
<path d="M488.017 147.975C487.921 136.101 478.275 126.494 466.362 126.494C454.448 126.494 444.802 136.101 444.706 147.975H488.017Z" fill="white"/>
<path d="M441.223 73.9498C452.986 62.1953 452.986 43.1377 441.223 31.3833C429.461 19.6289 410.39 19.6289 398.628 31.3833C386.865 43.1377 386.865 62.1953 398.628 73.9497C410.39 85.7042 429.461 85.7042 441.223 73.9498Z" fill="#C9B5FF"/>
<path d="M366.561 51.378C378.324 39.6236 378.324 20.5659 366.561 8.81148C354.799 -2.94293 335.728 -2.94292 323.966 8.81149C312.203 20.5659 312.203 39.6236 323.966 51.378C335.728 63.1324 354.799 63.1324 366.561 51.378Z" fill="#FF80B3"/>
<path d="M205.231 129.429C216.993 117.675 216.993 98.6172 205.231 86.8628C193.469 75.1083 174.398 75.1083 162.636 86.8628C150.873 98.6172 150.873 117.675 162.636 129.429C174.398 141.184 193.469 141.184 205.231 129.429Z" fill="#35C4FC"/>
<path d="M183.945 122.568C182.667 122.568 181.613 121.514 181.613 120.238V96.0752C181.613 94.7984 182.667 93.7451 183.945 93.7451C185.223 93.7451 186.277 94.7984 186.277 96.0752V120.27C186.277 121.514 185.223 122.568 183.945 122.568Z" fill="white"/>
<path d="M198.382 108.141C198.382 109.417 197.328 110.471 196.05 110.471H171.839C170.562 110.471 169.508 109.417 169.508 108.141C169.508 106.864 170.562 105.811 171.839 105.811H196.05C197.328 105.811 198.382 106.864 198.382 108.141Z" fill="white"/>
<path d="M347.575 41.8451V45.4838H343.647V41.9727C340.389 41.7493 337.259 40.7918 335.374 39.4831L337.514 34.7272C339.526 36.0678 342.433 36.9934 345.052 36.9934C347.735 36.9934 348.789 36.2274 348.789 35.1421C348.789 31.5034 335.789 34.1527 335.789 25.6623C335.789 22.0555 338.376 19.0232 343.679 18.3848V14.7461H347.607V18.2891C350.035 18.4806 352.398 19.1509 354.251 20.2042L352.271 24.992C350.067 23.811 347.927 23.2365 345.914 23.2365C343.199 23.2365 342.209 24.1621 342.209 25.2793C342.209 28.7903 355.177 26.173 355.177 34.5995C355.145 38.0787 352.654 41.079 347.575 41.8451Z" fill="white"/>
<path d="M411.265 65.2415V40.0576L433.719 52.6655L411.265 65.2415Z" fill="white"/>
<defs>
<linearGradient id="paint0_linear_681_2287" x1="466.358" y1="429.103" x2="492.047" y2="345.625" gradientUnits="userSpaceOnUse">
<stop stop-color="#E7E3FF"/>
<stop offset="1" stop-color="#BDBEFC"/>
</linearGradient>
<linearGradient id="paint1_linear_681_2287" x1="412.338" y1="436.498" x2="470.065" y2="304.395" gradientUnits="userSpaceOnUse">
<stop stop-color="#E7E3FF"/>
<stop offset="1" stop-color="#BDBEFC"/>
</linearGradient>
<linearGradient id="paint2_linear_681_2287" x1="245.592" y1="448.666" x2="192.216" y2="363.813" gradientUnits="userSpaceOnUse">
<stop stop-color="#E7E3FF"/>
<stop offset="1" stop-color="#BDBEFC"/>
</linearGradient>
<linearGradient id="paint3_linear_681_2287" x1="341.622" y1="432.584" x2="341.622" y2="199.333" gradientUnits="userSpaceOnUse">
<stop stop-color="#4523B5"/>
<stop offset="1" stop-color="#4E27CC"/>
</linearGradient>
<linearGradient id="paint4_linear_681_2287" x1="364.167" y1="165.358" x2="352.676" y2="147.696" gradientUnits="userSpaceOnUse">
<stop stop-color="#0199E8"/>
<stop offset="1" stop-color="#023093"/>
</linearGradient>
<linearGradient id="paint5_linear_681_2287" x1="321.889" y1="163.09" x2="331.093" y2="146.728" gradientUnits="userSpaceOnUse">
<stop stop-color="#0198E7"/>
<stop offset="1" stop-color="#023195"/>
</linearGradient>
<linearGradient id="paint6_linear_681_2287" x1="322.807" y1="172.41" x2="360.852" y2="172.41" gradientUnits="userSpaceOnUse">
<stop stop-color="#5F638A"/>
<stop offset="1" stop-color="#121729"/>
</linearGradient>
<linearGradient id="paint7_linear_681_2287" x1="347.301" y1="187.651" x2="308.7" y2="170.952" gradientUnits="userSpaceOnUse">
<stop stop-color="#5F638A"/>
<stop offset="1" stop-color="#121729"/>
</linearGradient>
<linearGradient id="paint8_linear_681_2287" x1="339.61" y1="186.875" x2="372.649" y2="172.875" gradientUnits="userSpaceOnUse">
<stop stop-color="#5F638A"/>
<stop offset="1" stop-color="#121729"/>
</linearGradient>
<linearGradient id="paint9_linear_681_2287" x1="8.41128" y1="416.635" x2="62.6775" y2="444.706" gradientUnits="userSpaceOnUse">
<stop stop-color="#5F638A"/>
<stop offset="1" stop-color="#121729"/>
</linearGradient>
<linearGradient id="paint10_linear_681_2287" x1="103.221" y1="447.168" x2="69.5966" y2="419.024" gradientUnits="userSpaceOnUse">
<stop stop-color="#0196E6"/>
<stop offset="1" stop-color="#023295"/>
</linearGradient>
<linearGradient id="paint11_linear_681_2287" x1="103.069" y1="443.967" x2="125.367" y2="444.279" gradientUnits="userSpaceOnUse">
<stop stop-color="#121729"/>
<stop offset="1" stop-color="#5F638A"/>
</linearGradient>
<linearGradient id="paint12_linear_681_2287" x1="247.744" y1="424.368" x2="260.962" y2="324.099" gradientUnits="userSpaceOnUse">
<stop stop-color="#121729"/>
<stop offset="1" stop-color="#5F638A"/>
</linearGradient>
<linearGradient id="paint13_linear_681_2287" x1="237.296" y1="347.719" x2="270.157" y2="324.231" gradientUnits="userSpaceOnUse">
<stop stop-color="#0099E8"/>
<stop offset="1" stop-color="#022F93"/>
</linearGradient>
<linearGradient id="paint14_linear_681_2287" x1="405.36" y1="438.846" x2="463.483" y2="434.969" gradientUnits="userSpaceOnUse">
<stop stop-color="#121729"/>
<stop offset="1" stop-color="#5F638A"/>
</linearGradient>
<linearGradient id="paint15_linear_681_2287" x1="443.17" y1="425.241" x2="415.271" y2="409.829" gradientUnits="userSpaceOnUse">
<stop stop-color="#0198E7"/>
<stop offset="1" stop-color="#023195"/>
</linearGradient>
</defs>
</svg>
