<svg width="29" height="29" viewBox="0 0 29 29" fill="none" xmlns="http://www.w3.org/2000/svg">
<rect width="29" height="29" rx="14.5" fill="#FAD9D8"/>
<path fill-rule="evenodd" clip-rule="evenodd" d="M9.29289 8.29289C9.68342 7.90237 10.3166 7.90237 10.7071 8.29289L15 12.5858L19.2929 8.29289C19.6834 7.90237 20.3166 7.90237 20.7071 8.29289C21.0976 8.68342 21.0976 9.31658 20.7071 9.70711L16.4142 14L20.7071 18.2929C21.0976 18.6834 21.0976 19.3166 20.7071 19.7071C20.3166 20.0976 19.6834 20.0976 19.2929 19.7071L15 15.4142L10.7071 19.7071C10.3166 20.0976 9.68342 20.0976 9.29289 19.7071C8.90237 19.3166 8.90237 18.6834 9.29289 18.2929L13.5858 14L9.29289 9.70711C8.90237 9.31658 8.90237 8.68342 9.29289 8.29289Z" fill="#E53F3C"/>
</svg>
