<svg width="198" height="106" viewBox="0 0 198 106" fill="none" xmlns="http://www.w3.org/2000/svg">
<path d="M126.947 35.7331C126.947 35.7331 130.813 35.9506 129.347 44.5101C127.882 53.0696 126.413 57.5039 126.413 57.5039C126.413 57.5039 126.275 59.4119 127.802 59.2402C129.328 59.0685 132.339 57.5611 133.526 59.1257C134.713 60.6903 133.972 62.8845 131.751 65.2314C129.53 67.5783 124.848 72.9132 124.428 73.3979C124.009 73.8825 123.749 74.8289 124.81 74.8709C125.871 74.9128 133.236 73.4322 133.728 76.9735C134.22 80.5149 126.955 86.0482 126.172 86.6664C125.39 87.2846 125.295 87.7311 125.52 88.1928C125.745 88.6546 128.191 87.9295 130.286 87.5937C132.381 87.2579 134.907 87.2426 135.022 89.3071C135.136 91.3716 131.534 96.905 120.105 101.732L114.663 103.64L110.225 99.9311C101.211 91.406 99.7764 84.9606 100.605 83.0678C101.433 81.1751 103.779 82.068 105.642 83.1213C107.504 84.1745 109.523 85.7086 109.897 85.3499C110.271 84.9911 110.336 84.5447 109.82 83.6899C109.305 82.8351 104.436 75.1037 106.138 71.963C107.84 68.8224 114.22 72.7873 115.228 73.1078C116.235 73.4284 116.319 72.4515 116.098 71.8638C115.876 71.2761 113.358 64.6132 112.099 61.6481C110.839 58.683 110.851 56.3857 112.576 55.302C114.239 54.2526 116.54 56.7101 117.918 57.4123C119.296 58.1144 119.826 56.2674 119.826 56.2674C119.826 56.2674 120.013 51.5737 121.635 43.0562C123.257 34.5386 127.039 35.7331 127.039 35.7331" fill="#EBEBEB"/>
<path d="M64.7302 14H176.278C177.796 14 179.253 14.5643 180.327 15.5687C181.401 16.5732 182.004 17.9355 182.004 19.356V104H59.0039V19.353C59.0048 17.933 59.6084 16.5715 60.6822 15.5677C61.756 14.5639 63.212 14 64.7302 14V14Z" fill="#FAFAFA"/>
<path d="M181.729 14H59.1641V58.673H181.729V14Z" fill="#2642CA"/>
<path d="M182.004 105H59.0039V14H182.004V105ZM59.3226 104.699H181.685V14.3012H59.3226V104.699Z" fill="#263238"/>
<path d="M101.415 72.4333L98.0984 82.5116H95.583L93.3553 75.677L91.0547 82.5002H88.5509L85.2227 72.4219H87.6536L89.9542 79.5084L92.343 72.4219H94.5133L96.8139 79.5656L99.172 72.4219L101.415 72.4333Z" fill="#263238"/>
<path d="M108.873 78.092V82.511H106.76V81.5494C106.339 82.2515 105.529 82.6293 104.387 82.6293C102.562 82.6293 101.477 81.6181 101.477 80.2824C101.477 78.9468 102.447 77.9622 104.82 77.9622H106.615C106.615 76.9968 106.036 76.4358 104.82 76.4358C104.014 76.4295 103.227 76.6824 102.577 77.157L101.768 75.5848C102.769 74.9494 103.936 74.624 105.123 74.6499C107.496 74.6499 108.873 75.7451 108.873 78.092ZM106.615 80.0649V79.2712H105.081C104.026 79.2712 103.693 79.6528 103.693 80.1794C103.693 80.706 104.168 81.1143 104.966 81.1143C105.317 81.1352 105.665 81.0449 105.962 80.8563C106.258 80.6678 106.486 80.3907 106.615 80.0649V80.0649Z" fill="#263238"/>
<path d="M115.741 74.6523V76.7245C115.554 76.7245 115.408 76.6978 115.235 76.6978C113.993 76.6978 113.169 77.3732 113.169 78.8577V82.5135H110.91V74.7668H113.065V75.7895C113.617 75.0416 114.549 74.6523 115.741 74.6523Z" fill="#263238"/>
<path d="M125.046 78.0781V82.5124H122.788V78.4253C122.788 77.1699 122.209 76.5974 121.212 76.5974C120.127 76.5974 119.344 77.2576 119.344 78.6848V82.5009H117.086V74.7543H119.245V75.6778C119.577 75.337 119.978 75.0697 120.422 74.8935C120.865 74.7173 121.341 74.636 121.818 74.655C123.658 74.6512 125.046 75.7159 125.046 78.0781Z" fill="#263238"/>
<path d="M126.82 72.4326C126.824 72.2565 126.865 72.0832 126.939 71.9233C127.013 71.7633 127.119 71.6203 127.251 71.5029C127.383 71.3856 127.538 71.2964 127.706 71.2411C127.874 71.1857 128.051 71.1652 128.228 71.1809C129.063 71.1809 129.631 71.6999 129.631 72.3906C129.605 72.7405 129.448 73.0679 129.192 73.3086C128.935 73.5492 128.597 73.6856 128.245 73.6909C127.892 73.6961 127.551 73.5699 127.287 73.337C127.023 73.1042 126.857 72.7815 126.82 72.4326V72.4326ZM127.096 74.7642H129.355V82.5109H127.089L127.096 74.7642Z" fill="#263238"/>
<path d="M139.405 78.078V82.5123H137.147V78.4252C137.147 77.1697 136.568 76.5973 135.571 76.5973C134.486 76.5973 133.704 77.2575 133.704 78.6847V82.5008H131.445V74.7541H133.6V75.6776C133.934 75.3371 134.336 75.0701 134.779 74.894C135.223 74.7178 135.699 74.6364 136.177 74.6549C138.014 74.6511 139.405 75.7158 139.405 78.078Z" fill="#263238"/>
<path d="M149.565 74.7641V81.2171C149.565 84.0945 148.001 85.4148 145.194 85.4148C143.718 85.4148 142.288 85.0332 141.36 84.3463L142.257 82.7359C143.057 83.3099 144.02 83.6172 145.006 83.6136C146.597 83.6136 147.307 82.8924 147.307 81.4957V81.1637C146.99 81.4895 146.606 81.7441 146.183 81.9106C145.759 82.0771 145.304 82.1516 144.849 82.1292C142.69 82.1292 140.957 80.6485 140.957 78.3856C140.957 76.1227 142.69 74.642 144.849 74.642C145.335 74.6136 145.821 74.6993 146.268 74.8922C146.715 75.0851 147.11 75.3798 147.422 75.7525V74.7565L149.565 74.7641ZM147.337 78.3932C147.337 77.2484 146.482 76.4852 145.298 76.4852C144.113 76.4852 143.242 77.2484 143.242 78.3932C143.242 79.5381 144.109 80.3013 145.298 80.3013C146.486 80.3013 147.337 79.5304 147.337 78.3932Z" fill="#263238"/>
<path d="M151.328 81.3174C151.354 80.9688 151.512 80.6429 151.769 80.405C152.027 80.1671 152.365 80.035 152.716 80.035C153.067 80.035 153.406 80.1671 153.663 80.405C153.921 80.6429 154.078 80.9688 154.104 81.3174C154.104 81.6838 153.958 82.0352 153.698 82.2943C153.437 82.5533 153.084 82.6989 152.716 82.6989C152.348 82.6989 151.995 82.5533 151.735 82.2943C151.474 82.0352 151.328 81.6838 151.328 81.3174V81.3174ZM151.359 72.4336H154.043L153.594 79.0125H151.819L151.359 72.4336Z" fill="#263238"/>
<path d="M98.7977 91.7053H96.6082L96.1481 92.7356H95.7148L97.5132 88.8203H97.9196L99.7179 92.7356H99.2808L98.7977 91.7053ZM98.6443 91.3695L97.701 89.2668L96.7578 91.3695H98.6443Z" fill="#263238"/>
<path d="M101.802 92.5564C101.624 92.6958 101.403 92.7687 101.177 92.7624C101.06 92.7781 100.942 92.7668 100.83 92.7294C100.719 92.692 100.617 92.6296 100.534 92.5469C100.45 92.4643 100.387 92.3636 100.349 92.2528C100.311 92.1419 100.299 92.0238 100.314 91.9076V90.1293H99.7852V89.7973H100.314V89.1562H100.698V89.7973H101.595V90.1332H100.698V91.8886C100.688 91.9589 100.694 92.0306 100.715 92.0983C100.737 92.1661 100.774 92.2281 100.823 92.2797C100.872 92.3314 100.932 92.3715 100.998 92.3969C101.065 92.4223 101.137 92.4325 101.208 92.4266C101.367 92.43 101.522 92.3758 101.645 92.274L101.802 92.5564Z" fill="#263238"/>
<path d="M104.001 92.5564C103.825 92.6958 103.605 92.7688 103.38 92.7624C103.263 92.7787 103.144 92.7679 103.032 92.7308C102.92 92.6937 102.818 92.6314 102.734 92.5487C102.65 92.4659 102.587 92.365 102.548 92.2538C102.51 92.1427 102.498 92.0242 102.514 91.9076V90.1293H101.988V89.7973H102.514V89.1562H102.897V89.7973H103.813V90.1332H102.912V91.8886C102.902 91.9593 102.908 92.0313 102.93 92.0993C102.952 92.1674 102.989 92.2296 103.038 92.2814C103.088 92.3331 103.148 92.3731 103.216 92.3982C103.283 92.4234 103.355 92.4331 103.426 92.4266C103.586 92.4294 103.741 92.3752 103.863 92.274L104.001 92.5564Z" fill="#263238"/>
<path d="M107.198 91.3879H104.725C104.742 91.6751 104.872 91.944 105.088 92.1357C105.303 92.3274 105.586 92.4262 105.875 92.4106C106.045 92.4175 106.214 92.3868 106.371 92.3208C106.527 92.2548 106.667 92.1552 106.78 92.029L107.006 92.2847C106.793 92.5025 106.521 92.6535 106.222 92.7191C105.924 92.7846 105.613 92.7618 105.328 92.6535C105.042 92.5451 104.795 92.356 104.616 92.1094C104.438 91.8628 104.335 91.5695 104.322 91.2658C104.312 91.0717 104.342 90.8777 104.411 90.6957C104.479 90.5137 104.584 90.3476 104.72 90.2078C104.855 90.0679 105.018 89.9572 105.199 89.8825C105.379 89.8079 105.573 89.7708 105.768 89.7737C105.962 89.7701 106.156 89.8068 106.336 89.8814C106.515 89.956 106.678 90.067 106.812 90.2072C106.946 90.3475 107.05 90.514 107.117 90.6962C107.183 90.8784 107.211 91.0724 107.198 91.2658C107.202 91.2963 107.198 91.3421 107.198 91.3879ZM104.725 91.0902H106.822C106.806 90.8243 106.688 90.5746 106.494 90.392C106.299 90.2094 106.041 90.1078 105.773 90.1078C105.506 90.1078 105.248 90.2094 105.053 90.392C104.858 90.5746 104.741 90.8243 104.725 91.0902V91.0902Z" fill="#263238"/>
<path d="M110.735 91.0314V92.7372H110.351V91.0696C110.37 90.9467 110.36 90.8212 110.323 90.7026C110.285 90.584 110.221 90.4754 110.136 90.385C110.05 90.2946 109.945 90.2248 109.828 90.1807C109.711 90.1367 109.586 90.1196 109.462 90.1308C109.321 90.1205 109.179 90.1412 109.047 90.1914C108.915 90.2416 108.795 90.32 108.697 90.4212C108.598 90.5224 108.524 90.6438 108.477 90.777C108.431 90.9101 108.415 91.0517 108.43 91.1917V92.7372H108.047V89.7988H108.43V90.3407C108.55 90.1555 108.717 90.0055 108.915 89.9062C109.112 89.807 109.333 89.762 109.554 89.7759C109.717 89.7708 109.88 89.8005 110.031 89.8629C110.182 89.9252 110.318 90.019 110.43 90.1378C110.541 90.2566 110.626 90.3978 110.679 90.5519C110.732 90.7059 110.751 90.8694 110.735 91.0314V91.0314Z" fill="#263238"/>
<path d="M113.376 92.5564C113.199 92.6958 112.977 92.7687 112.751 92.7624C112.634 92.7787 112.515 92.7679 112.403 92.7308C112.291 92.6937 112.189 92.6314 112.105 92.5487C112.021 92.4659 111.958 92.365 111.92 92.2538C111.881 92.1427 111.869 92.0242 111.885 91.9076V90.1293H111.359V89.7973H111.885V89.1562H112.268V89.7973H113.169V90.1332H112.268V91.8886C112.258 91.9593 112.264 92.0313 112.286 92.0993C112.308 92.1674 112.345 92.2296 112.394 92.2814C112.444 92.3331 112.504 92.3731 112.571 92.3982C112.638 92.4234 112.71 92.4331 112.782 92.4266C112.941 92.4294 113.096 92.3752 113.219 92.274L113.376 92.5564Z" fill="#263238"/>
<path d="M114.016 88.8659C114.024 88.7942 114.058 88.7281 114.112 88.68C114.167 88.632 114.236 88.6055 114.309 88.6055C114.381 88.6055 114.451 88.632 114.505 88.68C114.56 88.7281 114.594 88.7942 114.602 88.8659C114.594 88.9376 114.56 89.0037 114.505 89.0517C114.451 89.0997 114.381 89.1263 114.309 89.1263C114.236 89.1263 114.167 89.0997 114.112 89.0517C114.058 89.0037 114.024 88.9376 114.016 88.8659V88.8659ZM114.108 89.7932H114.491V92.7354H114.108V89.7932Z" fill="#263238"/>
<path d="M115.317 91.2655C115.318 90.97 115.407 90.6813 115.572 90.4359C115.738 90.1905 115.973 89.9993 116.247 89.8866C116.522 89.7738 116.823 89.7445 117.115 89.8024C117.406 89.8602 117.673 90.0026 117.883 90.2116C118.093 90.4206 118.236 90.6867 118.294 90.9766C118.353 91.2664 118.323 91.5669 118.21 91.84C118.097 92.1132 117.905 92.3469 117.658 92.5115C117.411 92.6762 117.121 92.7645 116.824 92.7652C116.624 92.7727 116.425 92.7391 116.239 92.6664C116.053 92.5936 115.884 92.4834 115.742 92.3427C115.601 92.2019 115.49 92.0335 115.417 91.8482C115.344 91.6628 115.31 91.4645 115.317 91.2655V91.2655ZM117.917 91.2655C117.907 91.0521 117.833 90.8464 117.707 90.674C117.58 90.5016 117.405 90.3701 117.203 90.2958C117.002 90.2214 116.783 90.2075 116.574 90.2557C116.365 90.304 116.175 90.4123 116.027 90.5673C115.879 90.7222 115.78 90.9169 115.742 91.1273C115.705 91.3376 115.73 91.5544 115.815 91.7506C115.9 91.9469 116.041 92.114 116.22 92.2313C116.399 92.3486 116.61 92.4108 116.824 92.4103C116.973 92.4128 117.121 92.3845 117.259 92.327C117.396 92.2695 117.52 92.1842 117.622 92.0766C117.725 91.9689 117.803 91.8412 117.853 91.7015C117.904 91.5619 117.924 91.4134 117.913 91.2655H117.917Z" fill="#263238"/>
<path d="M121.852 91.0314V92.7372H121.469V91.0696C121.487 90.9467 121.477 90.8212 121.44 90.7026C121.403 90.584 121.339 90.4754 121.253 90.385C121.167 90.2946 121.062 90.2248 120.945 90.1807C120.829 90.1367 120.703 90.1196 120.579 90.1308C120.438 90.1205 120.296 90.1412 120.164 90.1914C120.032 90.2416 119.912 90.32 119.814 90.4212C119.716 90.5224 119.641 90.6438 119.595 90.777C119.549 90.9101 119.533 91.0517 119.547 91.1917V92.7372H119.164V89.7988H119.547V90.3407C119.667 90.1555 119.835 90.0055 120.032 89.9062C120.23 89.807 120.45 89.762 120.671 89.7759C120.834 89.7708 120.997 89.8005 121.148 89.8629C121.299 89.9252 121.435 90.019 121.547 90.1378C121.659 90.2566 121.744 90.3978 121.796 90.5519C121.849 90.7059 121.868 90.8694 121.852 91.0314Z" fill="#263238"/>
<path d="M127.401 91.2629C127.412 91.4594 127.382 91.6559 127.312 91.8402C127.243 92.0244 127.135 92.1923 126.997 92.3332C126.859 92.4741 126.693 92.5851 126.51 92.659C126.327 92.7329 126.13 92.7681 125.933 92.7626C125.711 92.7699 125.491 92.7204 125.295 92.6188C125.098 92.5172 124.931 92.367 124.809 92.1825V93.8196H124.426V89.7975H124.809V90.3775C124.93 90.1848 125.101 90.0275 125.303 89.9216C125.505 89.8157 125.731 89.765 125.96 89.7746C126.154 89.7723 126.347 89.8096 126.527 89.8843C126.706 89.959 126.868 90.0694 127.003 90.2088C127.138 90.3482 127.243 90.5136 127.312 90.6949C127.38 90.8762 127.411 91.0695 127.401 91.2629V91.2629ZM127.018 91.2629C127.008 91.0486 126.935 90.842 126.809 90.6685C126.682 90.495 126.507 90.3624 126.305 90.2871C126.103 90.2117 125.884 90.197 125.674 90.2447C125.464 90.2924 125.272 90.4004 125.123 90.5554C124.974 90.7103 124.874 90.9054 124.836 91.1164C124.797 91.3274 124.822 91.545 124.906 91.7423C124.991 91.9395 125.132 92.1077 125.311 92.226C125.491 92.3443 125.702 92.4075 125.917 92.4077C126.065 92.4074 126.212 92.3771 126.348 92.3186C126.483 92.2602 126.606 92.1747 126.707 92.0676C126.809 91.9605 126.887 91.8338 126.938 91.6955C126.989 91.5571 127.011 91.4099 127.002 91.2629H127.018Z" fill="#263238"/>
<path d="M128.223 88.5859H128.606V92.734H128.223V88.5859Z" fill="#263238"/>
<path d="M132.302 91.3891H129.833C129.841 91.5315 129.877 91.6709 129.939 91.7995C130.001 91.928 130.088 92.0431 130.195 92.1381C130.302 92.2331 130.426 92.3062 130.562 92.3531C130.697 92.4001 130.84 92.42 130.983 92.4118C131.153 92.4171 131.321 92.3857 131.478 92.3198C131.634 92.2539 131.774 92.1551 131.888 92.0302L132.11 92.2859C131.967 92.4464 131.789 92.5729 131.59 92.6561C131.391 92.7394 131.176 92.7771 130.96 92.7667C130.758 92.7762 130.557 92.7442 130.368 92.6726C130.18 92.6009 130.008 92.4913 129.864 92.3504C129.72 92.2096 129.607 92.0407 129.531 91.8542C129.456 91.6678 129.42 91.4678 129.426 91.267C129.426 90.8874 129.578 90.5235 129.848 90.2551C130.117 89.9867 130.483 89.8359 130.864 89.8359C131.246 89.8359 131.611 89.9867 131.881 90.2551C132.151 90.5235 132.302 90.8874 132.302 91.267C132.31 91.2975 132.302 91.3433 132.302 91.3891ZM129.833 91.0914H131.926C131.904 90.8305 131.784 90.5875 131.59 90.4104C131.396 90.2333 131.143 90.1351 130.88 90.1351C130.617 90.1351 130.363 90.2333 130.169 90.4104C129.975 90.5875 129.855 90.8305 129.833 91.0914Z" fill="#263238"/>
<path d="M135.254 90.9091V92.7331H134.871V92.2714C134.762 92.4365 134.609 92.5691 134.431 92.6551C134.252 92.7411 134.053 92.7773 133.855 92.7598C133.188 92.7598 132.777 92.4126 132.777 91.905C132.777 91.3975 133.069 91.0731 133.928 91.0731H134.871V90.8938C134.871 90.3901 134.583 90.1306 134.035 90.1306C133.675 90.1253 133.326 90.2485 133.05 90.4778L132.869 90.1802C133.214 89.9185 133.64 89.7836 134.073 89.7986C134.836 89.768 135.254 90.1497 135.254 90.9091ZM134.871 91.8478V91.367H133.943C133.372 91.367 133.176 91.5921 133.176 91.8936C133.176 92.1951 133.452 92.4469 133.924 92.4469C134.125 92.4606 134.326 92.4098 134.496 92.302C134.666 92.1942 134.798 92.0351 134.871 91.8478V91.8478Z" fill="#263238"/>
<path d="M135.945 92.3951L136.126 92.0822C136.432 92.2992 136.8 92.4141 137.176 92.4104C137.736 92.4104 137.966 92.2196 137.966 91.9296C137.966 91.1664 136.049 91.7693 136.049 90.6054C136.049 90.1246 136.463 89.7658 137.199 89.7658C137.567 89.7604 137.929 89.8554 138.246 90.0406L138.073 90.3573C137.814 90.1886 137.509 90.1022 137.199 90.1093C136.666 90.1093 136.432 90.3154 136.432 90.5939C136.432 91.3877 138.349 90.7886 138.349 91.9181C138.349 92.4257 137.901 92.7577 137.13 92.7577C136.706 92.7662 136.291 92.6392 135.945 92.3951V92.3951Z" fill="#263238"/>
<path d="M141.675 91.3918H139.205C139.222 91.679 139.353 91.9479 139.568 92.1396C139.784 92.3313 140.067 92.4301 140.356 92.4145C140.525 92.4198 140.694 92.3884 140.85 92.3225C141.007 92.2566 141.147 92.1578 141.261 92.0329L141.487 92.2886C141.274 92.5064 141.001 92.6574 140.703 92.723C140.405 92.7885 140.094 92.7657 139.808 92.6574C139.523 92.549 139.276 92.3599 139.097 92.1133C138.918 91.8667 138.816 91.5734 138.803 91.2697C138.792 91.0758 138.822 90.8819 138.89 90.6999C138.958 90.5179 139.063 90.3518 139.198 90.2118C139.333 90.0719 139.496 89.9612 139.676 89.8864C139.856 89.8117 140.05 89.7747 140.245 89.7776C140.439 89.774 140.633 89.8107 140.813 89.8853C140.993 89.9599 141.155 90.0708 141.29 90.211C141.425 90.3512 141.529 90.5176 141.596 90.6998C141.663 90.882 141.691 91.0761 141.679 91.2697C141.682 91.3002 141.675 91.346 141.675 91.3918ZM139.205 91.0941H141.299C141.277 90.8332 141.157 90.5902 140.963 90.4131C140.769 90.236 140.515 90.1378 140.252 90.1378C139.989 90.1378 139.736 90.236 139.542 90.4131C139.348 90.5902 139.228 90.8332 139.205 91.0941Z" fill="#263238"/>
<path d="M110.765 49.2259C110.089 49.2253 109.426 49.0482 108.841 48.7123C108.256 48.3764 107.771 47.8934 107.432 47.3117C107.094 46.7301 106.915 46.0702 106.914 45.3982C106.913 44.7262 107.089 44.0656 107.425 43.4827L118.464 24.3183C118.799 23.7355 119.284 23.2517 119.869 22.9165C120.454 22.5813 121.117 22.4066 121.792 22.4102C122.467 22.4062 123.131 22.5807 123.716 22.916C124.3 23.2512 124.785 23.7352 125.12 24.3183L136.278 43.4178C136.624 43.9986 136.809 44.6603 136.814 45.3354C136.819 46.0106 136.644 46.675 136.307 47.2609C135.97 47.8467 135.483 48.3331 134.895 48.6702C134.307 49.0074 133.64 49.1833 132.962 49.1801L110.761 49.2488L110.765 49.2259ZM121.807 23.536C121.333 23.5356 120.867 23.6605 120.457 23.8978C120.047 24.1351 119.707 24.4764 119.472 24.8869L108.433 44.0513C108.197 44.4602 108.074 44.9237 108.074 45.3953C108.075 45.8668 108.201 46.3299 108.438 46.7381C108.675 47.1462 109.016 47.4851 109.426 47.7208C109.837 47.9566 110.302 48.0808 110.776 48.081L132.977 48.0124C133.453 48.0165 133.922 47.8943 134.336 47.6583C134.749 47.4223 135.092 47.081 135.329 46.6696C135.566 46.2581 135.688 45.7913 135.684 45.317C135.68 44.8428 135.549 44.3782 135.304 43.9711L124.146 24.8907C123.912 24.4789 123.572 24.1365 123.161 23.8985C122.75 23.6605 122.283 23.5353 121.807 23.536V23.536Z" fill="white"/>
<path d="M120.273 43.0171C120.273 42.8263 120.311 42.6373 120.385 42.4615C120.46 42.2857 120.57 42.1268 120.708 41.9942C120.845 41.8616 121.009 41.7581 121.188 41.6899C121.367 41.6218 121.558 41.5903 121.75 41.5975C121.943 41.5861 122.136 41.6139 122.318 41.6793C122.5 41.7446 122.667 41.8461 122.808 41.9776C122.95 42.1091 123.063 42.2678 123.14 42.4441C123.218 42.6204 123.259 42.8106 123.261 43.0032C123.262 43.1957 123.224 43.3866 123.149 43.5641C123.075 43.7416 122.964 43.9021 122.825 44.0359C122.686 44.1696 122.521 44.2738 122.34 44.342C122.159 44.4103 121.966 44.4412 121.773 44.4329C121.58 44.4416 121.387 44.4116 121.207 44.3445C121.026 44.2774 120.86 44.1747 120.72 44.0425C120.58 43.9103 120.469 43.7513 120.392 43.5752C120.315 43.399 120.275 43.2092 120.273 43.0171V43.0171ZM120.319 31.5078H123.042L122.658 40.0749H120.837L120.319 31.5078Z" fill="white"/>
<path d="M107.938 53.5448C107.765 53.5072 107.598 53.4482 107.44 53.3693C106.997 53.1801 106.574 52.9502 106.174 52.6824C104.84 51.7939 103.79 50.5434 103.149 49.079C102.507 47.6147 102.301 45.998 102.555 44.4206C102.626 43.9474 102.742 43.4822 102.904 43.0315C102.955 42.8625 103.026 42.6999 103.114 42.5469C102.934 43.1735 102.793 43.8107 102.693 44.4549C102.483 46.0039 102.704 47.5804 103.332 49.0128C103.96 50.4453 104.971 51.6789 106.255 52.5794C106.795 52.9354 107.358 53.2578 107.938 53.5448V53.5448Z" fill="white"/>
<path d="M103.204 53.0812C103.204 53.0812 103.105 53.024 102.948 52.8866C102.726 52.6964 102.521 52.4884 102.334 52.2646C101.702 51.5311 101.205 50.6928 100.865 49.788C100.523 48.8834 100.342 47.9266 100.329 46.9602C100.325 46.6694 100.341 46.3787 100.379 46.0902C100.383 45.9818 100.405 45.8749 100.444 45.7734C100.478 45.7734 100.444 46.2314 100.471 46.9564C100.57 48.8575 101.258 50.6813 102.441 52.1768C102.913 52.7454 103.227 53.0545 103.204 53.0812Z" fill="white"/>
<path d="M141.937 39.8047C142.004 39.9377 142.053 40.0788 142.083 40.2245C142.137 40.388 142.179 40.5551 142.21 40.7244C142.26 40.9486 142.299 41.1753 142.325 41.4036C142.404 41.9954 142.429 42.5933 142.397 43.1896C142.354 43.9203 142.238 44.6449 142.052 45.3533C141.852 46.0588 141.585 46.7437 141.255 47.3987C140.98 47.9356 140.656 48.4465 140.289 48.9251C140.139 49.1312 139.978 49.3067 139.844 49.4518C139.732 49.5873 139.61 49.7148 139.48 49.8334C139.378 49.9405 139.266 50.0376 139.146 50.1234C139.115 50.0929 139.579 49.6655 140.174 48.8526C140.521 48.3701 140.828 47.8595 141.09 47.3262C141.735 46.0346 142.117 44.6287 142.213 43.1896C142.252 42.6034 142.243 42.0151 142.187 41.4303C142.083 40.4 141.899 39.8047 141.937 39.8047Z" fill="white"/>
<path d="M144.446 44.0039C144.512 44.3342 144.53 44.6722 144.5 45.0075C144.443 46.6362 143.997 48.228 143.2 49.6517C143.052 49.9531 142.86 50.2319 142.633 50.4798C142.762 50.1736 142.909 49.8754 143.074 49.5868C143.79 48.1553 144.226 46.6012 144.358 45.0075C144.368 44.6715 144.397 44.3364 144.446 44.0039V44.0039Z" fill="white"/>
<path d="M9.17584 48.9838C9.17584 48.9838 17.6917 46.7795 18.1936 47.1768C20.8048 49.2054 34.6138 47.6162 34.6138 47.6162L47.7915 51.2416C47.7915 51.2416 49.9322 66.6222 51.379 72.6354C52.3435 76.6353 48.7207 82.6485 48.7207 82.6485L44.0707 99.0759L48.0894 105.548L9.16016 105.528V48.9876L9.17584 48.9838Z" fill="#2642CA"/>
<path d="M43.1552 66.5974C43.1552 66.5974 43.0407 66.5974 42.8232 66.6317C42.6057 66.6661 42.2813 66.6737 41.8692 66.7233C40.7043 66.851 39.5466 67.037 38.4003 67.2805C36.9426 67.5781 35.2292 68.0093 33.3211 68.4749C32.3671 68.7039 31.3597 68.9405 30.3102 69.1503C29.7836 69.2496 29.2532 69.364 28.6999 69.4175L28.2839 69.4633H27.8641C27.5817 69.4633 27.2993 69.4862 27.0131 69.4633C24.882 69.3457 22.7644 69.0509 20.6823 68.5817C18.7742 68.2001 17.0341 67.7765 15.584 67.4598C14.1338 67.1431 12.9547 66.8989 12.1495 66.7767C11.7412 66.7004 11.4168 66.6699 11.2031 66.6394C10.9894 66.6088 10.8711 66.5859 10.8711 66.5859C10.8711 66.5859 11.3328 66.6126 12.1571 66.7309C12.9814 66.8492 14.1606 67.0706 15.6145 67.3759C17.0684 67.6811 18.7933 68.0818 20.7166 68.4711C22.7943 68.9349 24.9066 69.2272 27.0322 69.345C27.3146 69.364 27.597 69.345 27.8756 69.345H28.2915C28.4289 69.345 28.5625 69.3144 28.6999 69.2992C29.2456 69.2496 29.7798 69.1351 30.3026 69.0359C31.352 68.8298 32.3557 68.5932 33.3097 68.368C35.2177 67.9101 36.9388 67.4827 38.3965 67.2003C39.9618 66.8587 41.5542 66.657 43.1552 66.5974Z" fill="#FAFAFA"/>
<path d="M44.7843 95.9786L44.4866 95.7763C44.2997 95.6351 44.0096 95.4481 43.6357 95.2077C42.5662 94.5487 41.4272 94.0099 40.2393 93.6012C38.4763 93.0009 36.6327 92.6703 34.7709 92.6204C32.4889 92.6475 30.2115 92.8337 27.9554 93.1776C25.6941 93.5152 23.4165 93.733 21.1322 93.8301C19.2621 93.892 17.3916 93.7189 15.5645 93.3149C14.3337 93.0356 13.1455 92.5942 12.0308 92.0022C11.6492 91.7847 11.3439 91.6206 11.1493 91.4718C10.9547 91.323 10.8555 91.2695 10.8555 91.2695C10.8555 91.2695 10.9661 91.3306 11.1646 91.4527C11.363 91.5748 11.6607 91.7504 12.0537 91.9602C13.1742 92.5352 14.3646 92.9624 15.595 93.231C17.416 93.6228 19.2785 93.7868 21.1398 93.7195C23.4203 93.6175 25.6939 93.3972 27.9515 93.0593C30.2123 92.7129 32.4952 92.5305 34.7823 92.5136C36.6548 92.5664 38.5081 92.9062 40.2775 93.521C41.469 93.9386 42.6086 94.4918 43.6738 95.1696C44.0554 95.4138 44.3302 95.6122 44.5134 95.7573C44.6965 95.9023 44.7843 95.9786 44.7843 95.9786Z" fill="#FAFAFA"/>
<path d="M45.3187 101.395C45.3187 101.395 45.2004 101.433 44.9714 101.494C44.7425 101.555 44.4105 101.643 43.9831 101.78C42.7811 102.17 41.6014 102.626 40.4494 103.146C38.7502 103.95 36.9778 104.589 35.1565 105.054C34.071 105.3 32.961 105.422 31.8479 105.417C30.6545 105.398 29.4652 105.271 28.2951 105.035C25.891 104.547 23.6815 103.791 21.6475 103.207C19.8556 102.655 18.0138 102.279 16.1485 102.085C14.8915 101.959 13.6232 102.004 12.3782 102.219C11.9394 102.307 11.615 102.379 11.3746 102.448C11.1342 102.516 11.0273 102.536 11.0273 102.536C11.0273 102.536 11.1418 102.494 11.367 102.425C11.5921 102.356 11.9318 102.268 12.3706 102.173C13.6186 101.942 14.8924 101.884 16.1562 102.001C18.0288 102.185 19.8785 102.554 21.678 103.104C23.7158 103.684 25.9253 104.432 28.318 104.917C29.482 105.15 30.6647 105.278 31.8517 105.298C32.9555 105.304 34.0564 105.185 35.1336 104.943C36.9495 104.473 38.7177 103.834 40.415 103.035C41.5713 102.52 42.7578 102.075 43.9678 101.704C44.399 101.57 44.731 101.49 44.9676 101.437L45.3187 101.395Z" fill="#FAFAFA"/>
<g opacity="0.3">
<path d="M45.25 94.963C45.437 89.1854 46.3948 82.4118 45.5591 77.0273C46.7306 79.5231 47.9785 85.0907 47.9785 85.0907C47.7804 86.0313 47.5256 86.9591 47.2153 87.8688C46.5704 90.0478 45.8987 92.7916 45.2538 94.9744" fill="black"/>
</g>
<path d="M47.6492 82.9189C47.6492 82.9189 47.5309 82.8388 47.3172 82.6785C47.0085 82.4421 46.6862 82.2242 46.3517 82.0259C45.1013 81.3121 43.7301 80.8347 42.3067 80.6178C40.2022 80.3011 38.0602 80.3281 35.9644 80.6979C33.5946 81.0796 31.0531 81.8428 28.3551 82.4839C25.6571 83.125 23.0126 83.6287 20.6008 83.3425C18.4726 83.113 16.4037 82.4989 14.495 81.5298C13.7634 81.1585 13.0662 80.7231 12.4115 80.2286C12.1329 79.9958 11.8696 79.7821 11.6482 79.5722C11.4269 79.3623 11.2247 79.1563 11.0568 78.9654L10.6332 78.435C10.535 78.3016 10.4446 78.1627 10.3622 78.0191C10.221 77.7939 10.1523 77.668 10.1523 77.668C10.1523 77.668 10.2363 77.7825 10.3813 78.0076C10.4576 78.1145 10.5378 78.2633 10.6599 78.4159L11.0911 78.9349C11.2628 79.1219 11.4727 79.3165 11.6864 79.5302C11.9001 79.7439 12.1749 79.95 12.4496 80.1751C13.1049 80.6622 13.8022 81.09 14.5332 81.4535C16.4365 82.4068 18.4955 83.0105 20.6122 83.2356C23.0049 83.5066 25.6418 83.0067 28.3284 82.3694C31.0149 81.7321 33.564 80.9689 35.9605 80.5911C38.0675 80.2232 40.2206 80.2052 42.3334 80.5377C43.7587 80.7642 45.1293 81.2547 46.3746 81.984C46.7071 82.1898 47.0269 82.4154 47.3325 82.6594C47.5462 82.8235 47.6492 82.9189 47.6492 82.9189Z" fill="#FAFAFA"/>
<path d="M39.5957 95.9414C39.5281 95.97 39.4578 95.9918 39.3858 96.0063L38.7714 96.1551C38.241 96.281 37.4702 96.4528 36.5123 96.6588C34.6043 97.0672 31.933 97.6014 29.0175 98.1395C26.102 98.6775 23.4155 99.1164 21.4846 99.4102C20.5191 99.5552 19.733 99.6697 19.1949 99.7384L18.5729 99.8186C18.4995 99.8287 18.425 99.8287 18.3516 99.8186C18.4214 99.7955 18.4928 99.7776 18.5653 99.7651L19.1835 99.6506L21.4731 99.269C23.3812 98.9409 26.0524 98.4829 28.9946 97.9449C31.9368 97.4068 34.5776 96.8954 36.4971 96.5176L38.7676 96.0788L39.3897 95.9681C39.4571 95.9516 39.5263 95.9426 39.5957 95.9414Z" fill="#263238"/>
<path d="M40.3152 82.4023C40.3184 82.4804 40.312 82.5586 40.2962 82.6351C40.2695 82.7839 40.258 83.0167 40.1893 83.2915C40.0247 84.0928 39.7686 84.8726 39.4261 85.6155C38.9163 86.7144 38.2632 87.741 37.4837 88.6684C36.5274 89.8069 35.4297 90.8187 34.2171 91.6793C31.9887 93.1935 29.5766 94.4182 27.0391 95.3236C26.0774 95.7052 25.2875 95.9647 24.7494 96.1479L24.1198 96.3578C24.0478 96.384 23.9737 96.4044 23.8984 96.4188C23.9632 96.3757 24.0339 96.3423 24.1083 96.3196L24.7265 96.0754L27.0162 95.1939C29.5254 94.2566 31.9155 93.0269 34.137 91.5304C35.3235 90.672 36.4001 89.671 37.3425 88.5501C38.1214 87.638 38.7782 86.6285 39.2964 85.5468C39.6473 84.8144 39.9197 84.0469 40.1092 83.2571C40.2466 82.7153 40.2962 82.4023 40.3152 82.4023Z" fill="#263238"/>
<path d="M22.6641 4.98038C26.358 1.45432 32.0745 -0.510969 36.6844 1.6871C39.783 3.16392 41.8208 6.18245 44.5112 8.31183C46.4726 9.86497 48.9187 11.0938 49.8995 13.3949C50.7619 15.4212 50.2391 17.7337 49.9453 19.9165C49.6514 22.0994 49.7239 24.637 51.3763 26.0948C52.2426 26.858 53.4065 27.1938 54.391 27.8006C56.3754 29.0255 57.5011 31.3152 57.8598 33.6201C58.2186 35.925 57.9094 38.2681 57.6003 40.5807L47.9075 42.1071L46.4116 39.3939L45.7361 43.561L33.3949 44.2861L22.6641 4.98038Z" fill="#263238"/>
<path d="M20.9331 8.90848L20.8225 11.5797L18.7618 51.7326C18.5443 56.3882 22.8717 60.5096 27.8555 60.6928C32.8927 60.8912 35.0679 57.1743 35.3656 52.4729C35.6785 47.5425 36.0983 42.3565 36.0983 42.3565C36.0983 42.3565 42.5131 41.681 44.3296 33.4726C45.234 29.3856 45.4324 22.6159 45.4171 17.0635C45.4136 15.8809 45.1712 14.7113 44.7044 13.6248C44.2376 12.5382 43.556 11.5573 42.7006 10.7407C41.8452 9.92419 40.8336 9.28893 39.7266 8.87308C38.6196 8.45723 37.44 8.26938 36.2585 8.3208L20.9331 8.90848Z" fill="#FFBE9D"/>
<path d="M42.5317 21.9683C42.5179 22.246 42.3959 22.5073 42.192 22.6962C41.988 22.8852 41.7183 22.9869 41.4403 22.9796C41.3047 22.9816 41.1701 22.9566 41.0443 22.9061C40.9184 22.8557 40.8039 22.7806 40.7073 22.6855C40.6107 22.5903 40.534 22.4769 40.4816 22.3518C40.4293 22.2267 40.4023 22.0925 40.4023 21.9569C40.4162 21.6798 40.5376 21.4192 40.7407 21.2303C40.9438 21.0414 41.2126 20.9393 41.4899 20.9456C41.626 20.9425 41.7612 20.9668 41.8878 21.0168C42.0143 21.0669 42.1295 21.1418 42.2266 21.2371C42.3237 21.3325 42.4007 21.4463 42.4531 21.5718C42.5055 21.6974 42.5323 21.8322 42.5317 21.9683V21.9683Z" fill="#263238"/>
<path d="M43.7528 20.5049C43.6116 20.6346 42.8407 19.9897 41.6997 19.9249C40.5587 19.86 39.681 20.379 39.5665 20.2301C39.5093 20.1653 39.6581 19.9249 40.0397 19.6806C40.5547 19.3659 41.1549 19.2192 41.757 19.2609C42.3522 19.2949 42.9213 19.5166 43.3826 19.8943C43.7184 20.1882 43.8291 20.4438 43.7528 20.5049Z" fill="#263238"/>
<path d="M31.4146 21.6088C31.3998 21.8861 31.2775 22.1468 31.0738 22.3356C30.8701 22.5243 30.6008 22.6264 30.3232 22.62C30.1871 22.6226 30.0519 22.5978 29.9256 22.5473C29.7993 22.4968 29.6843 22.4214 29.5876 22.3258C29.4908 22.2301 29.4142 22.116 29.3623 21.9902C29.3104 21.8645 29.2841 21.7296 29.2852 21.5935C29.3 21.3168 29.4217 21.0567 29.6246 20.868C29.8275 20.6794 30.0958 20.5769 30.3728 20.5822C30.509 20.5797 30.6444 20.6044 30.7709 20.6549C30.8974 20.7054 31.0126 20.7807 31.1097 20.8763C31.2067 20.9719 31.2837 21.086 31.336 21.2117C31.3884 21.3375 31.4151 21.4725 31.4146 21.6088V21.6088Z" fill="#263238"/>
<path d="M32.495 20.0359C32.3576 20.1695 31.5868 19.5246 30.4419 19.4559C29.2971 19.3872 28.4232 19.9138 28.3087 19.765C28.2515 19.7001 28.4003 19.4597 28.7819 19.2155C29.2973 18.9017 29.8971 18.755 30.4992 18.7957C31.0948 18.8279 31.6645 19.0499 32.1248 19.4292C32.4606 19.7192 32.5637 19.9787 32.495 20.0359Z" fill="#263238"/>
<path d="M36.1367 28.7703C36.1367 28.7054 36.8541 28.6253 38.0142 28.549C38.3081 28.549 38.5866 28.4955 38.6515 28.2971C38.6933 27.9966 38.6427 27.6905 38.5065 27.4194L37.7776 25.1297C36.7664 21.8899 36.0566 19.2339 36.1863 19.1957C36.3161 19.1576 37.2396 21.7487 38.2508 24.9885C38.4912 25.7861 38.724 26.5493 38.9415 27.2782C39.1025 27.6383 39.1322 28.0433 39.0255 28.423C38.9753 28.5202 38.9041 28.6049 38.8169 28.6709C38.7297 28.737 38.6289 28.7826 38.5218 28.8046C38.3561 28.8385 38.1869 28.8513 38.018 28.8428C36.858 28.8733 36.1367 28.8352 36.1367 28.7703Z" fill="#263238"/>
<path d="M36.113 42.3752C32.2055 42.1995 28.4235 40.9432 25.1875 38.7461C25.1875 38.7461 27.5382 44.6038 35.8725 44.3252L36.113 42.3752Z" fill="#EB996E"/>
<path d="M35.1776 30.7413C34.8694 30.574 34.5236 30.4883 34.1729 30.4923C33.8223 30.4963 33.4785 30.5899 33.1742 30.7642C32.9521 30.8838 32.7563 31.0467 32.5983 31.2434C32.4403 31.44 32.3234 31.6664 32.2545 31.909C32.1891 32.1447 32.1975 32.3947 32.2787 32.6254C32.3599 32.856 32.51 33.0562 32.7086 33.1989C32.9583 33.3144 33.2366 33.3533 33.5084 33.3105C33.7801 33.2677 34.033 33.1452 34.2351 32.9584C34.657 32.5692 34.997 32.0995 35.2349 31.577C35.3195 31.442 35.3766 31.2916 35.4028 31.1344C35.4148 31.0613 35.4054 30.9864 35.3755 30.9186C35.3457 30.8508 35.2969 30.7932 35.2349 30.7528" fill="#EB996E"/>
<path d="M32.0881 16.807C32.0461 17.1352 30.8936 17.2344 29.6152 17.6771C28.3368 18.1198 27.3523 18.7113 27.1157 18.4747C27.0127 18.3602 27.1157 18.0358 27.4973 17.6466C27.9869 17.1559 28.5859 16.7884 29.2451 16.5743C29.8999 16.3455 30.6001 16.2774 31.2867 16.3758C31.8095 16.4598 32.1033 16.6468 32.0881 16.807Z" fill="#263238"/>
<path d="M44.2108 18.7646C43.8979 18.9363 43.066 18.383 41.9669 18.0204C40.8679 17.6579 39.8834 17.5358 39.7498 17.2076C39.6964 17.0512 39.9253 16.8489 40.4062 16.7459C41.0632 16.6337 41.7381 16.6955 42.3638 16.9252C42.9954 17.1323 43.5604 17.5037 44.0009 18.0014C44.3138 18.3792 44.3596 18.6768 44.2108 18.7646Z" fill="#263238"/>
<path d="M27.043 4.21252C28.4779 6.28084 29.1419 7.85306 29.928 11.4631C30.3096 13.2337 28.8404 14.4282 27.3865 15.4547C27.2302 15.5654 27.0487 15.6351 26.8585 15.6575C26.6684 15.6799 26.4756 15.6543 26.2979 15.5829C26.1202 15.5115 25.9633 15.3967 25.8415 15.249C25.7196 15.1012 25.6368 14.9253 25.6005 14.7373V14.7373C25.6005 14.7373 25.8982 20.2401 23.8413 22.6442C22.872 23.77 22.7843 25.2506 22.9674 26.5061C23.1708 27.7901 23.7497 28.9852 24.6313 29.9406C26.8599 32.4363 27.3712 36.4279 25.6845 39.332C25.1997 40.0472 24.7526 40.7872 24.3451 41.5491C24.1377 42.0042 24.0322 42.4991 24.036 42.9992C24.0513 43.2919 23.9537 43.5793 23.7635 43.8022C23.5732 44.0252 23.3047 44.1666 23.0132 44.1975C16.1507 44.9652 9.22312 44.9486 2.36439 44.1479C2.12896 44.1195 1.90816 44.0187 1.73248 43.8594C1.5568 43.7001 1.43491 43.4903 1.38366 43.2587C0.918095 40.9691 1.89883 38.5077 3.11616 36.447C4.4785 34.1574 6.19193 31.9478 6.71855 29.3262C7.21464 26.861 6.62696 24.163 7.69928 21.8848C9.01202 19.0914 12.3816 17.8588 14.1294 15.3135C15.7818 12.9132 15.7589 9.6886 17.2471 7.18525C19.1552 3.96828 23.6582 2.60595 27.0392 4.2087" fill="#263238"/>
<path d="M27.3175 7.2692C29.8857 8.69642 30.9847 11.9286 33.4728 13.4894C35.7396 14.909 38.6322 14.6343 41.2882 14.3366C41.208 13.7489 41.1317 13.1574 41.0516 12.5697C41.2711 13.1078 41.5881 13.6007 41.9865 14.0237C42.1879 14.2329 42.4421 14.3838 42.7222 14.4604C43.0023 14.537 43.298 14.5364 43.5778 14.4587C44.4784 14.1267 44.6349 12.9132 44.4364 11.9783C44.0796 10.4792 43.3271 9.10343 42.2574 7.99426C40.3503 5.92465 37.7611 4.61179 34.9646 4.29639C32.168 3.98099 29.3514 4.68417 27.0312 6.27702" fill="#263238"/>
<path d="M17.7632 13.2672C18.2743 12.0124 18.4377 10.6431 18.2362 9.3034C18.0347 7.96365 17.4758 6.70299 16.6184 5.65406C15.7971 4.71238 14.7176 4.03224 13.5137 3.69785C12.3097 3.36345 11.0341 3.38949 9.84482 3.77272C8.73733 4.11115 7.77102 4.80271 7.09342 5.74183C5.85319 7.53539 5.99439 10.241 7.1583 12.0803C7.73356 12.9485 8.49868 13.6744 9.39582 14.2033C10.293 14.7322 11.2986 15.0502 12.3367 15.1332C14.344 15.324 16.3627 14.7516 18.2517 13.9617" fill="#263238"/>
<path d="M14.1289 13.6813C14.1594 13.6508 14.6174 14.0629 15.4684 14.5742C15.9673 14.875 16.4922 15.1304 17.0368 15.3375C18.3763 15.839 19.8072 16.0497 21.2345 15.9557C21.8134 15.9195 22.388 15.8327 22.9517 15.6962C23.9134 15.4596 24.4781 15.1925 24.4781 15.2306C24.3617 15.3176 24.2331 15.387 24.0965 15.4367C23.9436 15.5137 23.7855 15.58 23.6233 15.6351C23.4122 15.7164 23.1969 15.7864 22.9784 15.845C22.4085 16.0045 21.8244 16.108 21.2345 16.1541C19.7818 16.266 18.3227 16.0455 16.9681 15.5092C16.4184 15.2929 15.8906 15.0245 15.392 14.7078C15.1985 14.5925 15.0124 14.465 14.8349 14.3262C14.7002 14.2258 14.5727 14.1161 14.4533 13.998C14.3325 13.9062 14.2236 13.7998 14.1289 13.6813V13.6813Z" fill="#455A64"/>
<path d="M24.6999 18.8029C24.5532 18.864 24.3993 18.9063 24.242 18.9288C23.9443 18.9937 23.5131 19.0776 22.9712 19.1539C21.5592 19.3781 20.118 19.3393 18.7201 19.0395C17.3086 18.7152 16.0421 17.9378 15.1139 16.8261C14.8402 16.4871 14.6166 16.1106 14.4499 15.708C14.3824 15.5641 14.3362 15.4111 14.3125 15.2539C14.5601 15.7785 14.8674 16.2728 15.2284 16.7269C16.1608 17.7779 17.3971 18.5128 18.7659 18.8296C20.1454 19.1233 21.5647 19.1814 22.9636 19.0013C23.5016 18.9441 23.9367 18.883 24.2381 18.8448C24.3898 18.8121 24.5448 18.798 24.6999 18.8029V18.8029Z" fill="#455A64"/>
<path d="M9.10745 43.7253C9.10745 43.7253 9.08837 43.7253 9.05784 43.668C9.00868 43.6069 8.96282 43.5432 8.92046 43.4772C8.76877 43.2171 8.66655 42.9312 8.61899 42.6339C8.55521 42.0821 8.61265 41.523 8.78732 40.9957C8.96199 40.4684 9.24966 39.9856 9.63026 39.581C10.1485 39.0303 10.7436 38.5573 11.3971 38.1767C12.0916 37.7493 12.8739 37.3639 13.6371 36.883C14.4507 36.4059 15.1543 35.7621 15.7017 34.9941C15.9728 34.5842 16.1572 34.1232 16.2435 33.6394C16.3248 33.1328 16.3145 32.6158 16.213 32.1129C15.9733 31.1229 15.6529 30.1542 15.2552 29.2165C14.8816 28.3215 14.6746 27.3658 14.6446 26.3964C14.6512 24.7469 15.2041 23.1459 16.2168 21.8438C16.8794 20.9605 17.7427 20.2476 18.7354 19.7641L19.2048 19.558L19.5864 19.4435C19.6841 19.4079 19.7851 19.3823 19.8879 19.3672C19.7943 19.4138 19.6974 19.4533 19.5979 19.4855L19.2506 19.619L18.7927 19.8404C17.8309 20.3474 16.998 21.068 16.358 21.9469C15.3741 23.2264 14.8378 24.7938 14.8316 26.4079C14.8681 27.3518 15.075 28.2813 15.4422 29.1516C15.8504 30.0955 16.1785 31.072 16.4229 32.0709C16.5283 32.5953 16.5386 33.1343 16.4534 33.6622C16.3704 34.1857 16.1737 34.6845 15.8772 35.1238C15.3094 35.9039 14.5823 36.5543 13.744 37.0319C12.9808 37.5165 12.1832 37.8943 11.4925 38.3141C10.8396 38.6877 10.2455 39.1557 9.72948 39.7031C9.35627 40.0904 9.06995 40.5528 8.88965 41.0595C8.70934 41.5662 8.63919 42.1055 8.68387 42.6415C8.74957 43.0279 8.89373 43.3967 9.10745 43.7253V43.7253Z" fill="#455A64"/>
<path d="M20.143 44.2382C20.0586 44.1994 19.9792 44.1507 19.9064 44.0932C19.702 43.9292 19.5332 43.7254 19.4103 43.494C19.2094 43.1223 19.0946 42.7102 19.0745 42.2881C19.0506 41.73 19.1308 41.1722 19.3111 40.6434C19.6927 39.4337 20.7421 38.3538 21.5511 36.9914C21.9883 36.2865 22.2294 35.4776 22.2494 34.6483C22.2332 33.7571 22.029 32.8794 21.6503 32.0725C20.9138 30.3781 19.7423 29.0196 18.9523 27.5962C18.56 26.9316 18.2536 26.22 18.0403 25.4783C17.8611 24.825 17.8144 24.1426 17.9029 23.471C17.9992 22.487 18.4608 21.5747 19.1966 20.9142C19.4021 20.7471 19.6309 20.6108 19.8758 20.5097C19.9596 20.4705 20.0481 20.4423 20.1392 20.4258C19.5369 20.6831 19.0208 21.1071 18.6517 21.648C18.2825 22.1889 18.0757 22.8241 18.0556 23.4787C17.9789 24.1291 18.0334 24.7882 18.2158 25.4172C18.4306 26.1451 18.7371 26.8427 19.1279 27.4932C19.5095 28.1839 20.0094 28.8784 20.4979 29.6073C21.0192 30.3559 21.4714 31.1504 21.8488 31.9809C22.2321 32.8198 22.435 33.7299 22.4441 34.6522C22.4179 35.5168 22.161 36.3587 21.6999 37.0906C20.8604 38.4835 19.7919 39.5367 19.4332 40.693C19.25 41.2018 19.1621 41.7399 19.1737 42.2805C19.1818 42.6885 19.2795 43.0898 19.4599 43.4559C19.6312 43.7609 19.8638 44.0273 20.143 44.2382Z" fill="#455A64"/>
<path d="M37.5295 13.6126C37.5295 13.6126 37.476 13.6126 37.3768 13.5401C37.2351 13.459 37.0999 13.3671 36.9723 13.2653C36.5122 12.8804 36.1245 12.4165 35.8275 11.8953C35.3981 11.1227 35.0392 10.3129 34.7552 9.47591C34.5796 9.01035 34.3926 8.52953 34.156 8.0487C33.9107 7.55591 33.618 7.08815 33.2821 6.65201C32.0931 5.10803 30.4524 3.97292 28.5884 3.40452C27.8112 3.18879 27.015 3.04821 26.2109 2.98475C26.4292 2.96342 26.649 2.96342 26.8673 2.98475C27.4632 3.0198 28.054 3.1157 28.6303 3.27096C29.4867 3.50815 30.3033 3.8708 31.0536 4.3471C32.4692 5.22323 33.6103 6.47936 34.3468 7.97238C34.5834 8.46466 34.7704 8.95311 34.9421 9.41867C35.2143 10.2507 35.5551 11.0587 35.961 11.8343C36.2394 12.351 36.6018 12.8178 37.0334 13.2157C37.3425 13.479 37.5409 13.5935 37.5295 13.6126Z" fill="#455A64"/>
<path d="M43.3221 13.7578C43.246 13.7574 43.1703 13.7471 43.0969 13.7273C42.8851 13.6877 42.6779 13.6263 42.4787 13.5441C41.742 13.244 41.0811 12.7839 40.544 12.197C39.751 11.3306 39.0901 10.3521 38.5825 9.293C37.9681 8.12909 37.3804 6.79728 36.4417 5.62574C35.5527 4.53 34.3568 3.72473 33.0072 3.31319C31.8984 2.98113 30.7522 2.79009 29.5956 2.74459C28.6072 2.69117 27.802 2.70643 27.2449 2.71025H26.5923C26.5176 2.71936 26.442 2.71936 26.3672 2.71025C26.4397 2.69217 26.5139 2.68193 26.5885 2.67972C26.7335 2.67972 26.9701 2.64919 27.2296 2.63774C27.783 2.60721 28.5882 2.56905 29.588 2.6034C30.7612 2.62828 31.9261 2.8066 33.053 3.13384C34.4502 3.54527 35.6901 4.37011 36.6096 5.49981C37.575 6.70569 38.1589 8.05277 38.758 9.21286C39.2547 10.2609 39.897 11.2335 40.6661 12.1016C41.183 12.6851 41.816 13.1542 42.5245 13.4792C43.0168 13.6968 43.3259 13.7578 43.3221 13.7578Z" fill="#455A64"/>
<path d="M52.2433 41.0248C52.2204 41.0248 52.3616 40.731 52.5181 40.1929C52.74 39.4346 52.8493 38.6477 52.8424 37.8575C52.8415 36.6879 52.5808 35.5331 52.0792 34.4764C51.7727 33.8562 51.388 33.2778 50.9344 32.7554C50.4688 32.2059 49.9346 31.6831 49.408 31.1335C48.8701 30.6052 48.3739 30.0362 47.9235 29.4316C47.513 28.8592 47.1614 28.2467 46.8741 27.6037C46.3926 26.516 46.0985 25.3549 46.004 24.1692C45.944 23.3674 45.9825 22.5613 46.1185 21.7689C46.1605 21.4903 46.2177 21.2766 46.2521 21.1316C46.2666 21.0567 46.2897 20.9837 46.3207 20.9141C46.3436 20.9141 46.2673 21.2232 46.2024 21.7803C46.1022 22.5652 46.0907 23.3588 46.1681 24.1463C46.2197 24.6897 46.3141 25.2281 46.4505 25.7567C46.6013 26.3635 46.8083 26.955 47.0687 27.5235C47.354 28.1521 47.7017 28.7504 48.1067 29.3095C48.5538 29.9026 49.0449 30.4614 49.5759 30.9809C50.1101 31.5304 50.6482 32.0609 51.1023 32.6218C52.3597 34.0735 53.0389 35.9372 53.0103 37.8575C53.0094 38.6601 52.8806 39.4575 52.6287 40.2197C52.5585 40.4255 52.4757 40.6269 52.3807 40.8226C52.3443 40.8959 52.2981 40.964 52.2433 41.0248V41.0248Z" fill="#455A64"/>
<path d="M6.96497 11.4349C6.96277 11.2565 6.98853 11.0788 7.0413 10.9083C7.15644 10.4379 7.33083 9.98395 7.56028 9.55742C7.90857 8.88052 8.39371 8.28337 8.98493 7.80382C9.57615 7.32428 10.2606 6.9728 10.9948 6.77168C11.9435 6.58313 12.9265 6.67386 13.8246 7.03285C14.7228 7.39185 15.4975 8.00369 16.0549 8.79421C16.1625 8.93042 16.2488 9.08227 16.3106 9.2445C15.922 8.77257 15.4873 8.3405 15.0131 7.95467C14.4565 7.52705 13.8139 7.22483 13.1296 7.06872C12.4452 6.91262 11.7352 6.90631 11.0482 7.05025C10.346 7.24268 9.68921 7.57291 9.11594 8.0217C8.54268 8.47048 8.06445 9.02885 7.70911 9.66427C7.40647 10.23 7.15735 10.8228 6.96497 11.4349V11.4349Z" fill="#455A64"/>
<path d="M11.5586 13.8668C11.5638 13.4541 11.6215 13.0438 11.7303 12.6457C11.903 11.6643 12.3263 10.7441 12.9591 9.97441C13.2754 9.62146 13.6904 9.37165 14.1504 9.25735C14.6103 9.14304 15.094 9.1695 15.5388 9.33331C15.8092 9.44724 16.0411 9.6367 16.2066 9.87901C16.3211 10.0584 16.3554 10.1729 16.344 10.1805C16.1125 9.89395 15.8154 9.66748 15.4777 9.5203C15.0644 9.39766 14.6249 9.3942 14.2097 9.51031C13.7945 9.62643 13.4205 9.85741 13.1308 10.1767C12.5329 10.9134 12.1125 11.7777 11.902 12.7029C11.8177 13.0991 11.7029 13.4883 11.5586 13.8668V13.8668Z" fill="#455A64"/>
<path d="M17.935 6.12188C17.9999 6.1753 17.1718 7.33539 16.5726 9.02973C15.9735 10.7241 15.8934 12.2047 15.8094 12.1971C15.7255 12.1895 15.7217 10.6707 16.336 8.9267C16.9504 7.18275 17.8968 6.08753 17.935 6.12188Z" fill="#2642CA"/>
<path d="M0.00763235 33.1039C0.229002 33.3771 0.514903 33.5909 0.839539 33.7259C1.22176 33.8795 1.63608 33.9358 2.04542 33.89C2.58842 33.838 3.10246 33.6209 3.51843 33.268C4.45719 32.5048 4.97236 31.0051 4.93039 29.4138C4.93039 28.6124 4.81972 27.7728 4.73958 26.899C4.63118 25.9929 4.64659 25.0762 4.78537 24.1743C4.86458 23.7161 5.00848 23.2716 5.21278 22.8539C5.42078 22.4552 5.68558 22.0889 5.99889 21.7663C6.60737 21.1725 7.31018 20.6838 8.07866 20.32C8.80371 19.9384 9.50969 19.6598 10.1661 19.3698C10.7733 19.1046 11.3567 18.788 11.91 18.4234C12.7302 17.9213 13.3978 17.2048 13.8409 16.3513C13.9812 16.0297 14.0837 15.6929 14.1462 15.3477C14.1462 15.3477 14.1462 15.4392 14.1119 15.6186C14.0678 15.8816 13.9908 16.138 13.8829 16.3818C13.4522 17.2568 12.7845 17.9932 11.9558 18.5074C11.4005 18.8785 10.8145 19.2015 10.2042 19.4729C9.55167 19.7667 8.84569 20.0643 8.12827 20.4269C7.37334 20.7898 6.6825 21.2731 6.08284 21.8579C5.77708 22.1759 5.5199 22.5372 5.31963 22.9302C5.12076 23.3387 4.9795 23.7728 4.89986 24.2201C4.58312 26.0518 5.04868 27.8186 5.04105 29.4367C5.03342 31.0547 4.54496 32.5658 3.57186 33.3558C3.13999 33.7166 2.60649 33.934 2.04542 33.9778C1.62661 34.0201 1.20391 33.9558 0.816643 33.7908C0.481769 33.6602 0.196196 33.428 0 33.1268L0.00763235 33.1039Z" fill="#263238"/>
<path d="M48.4109 6.19463C48.4463 6.26861 48.4719 6.34685 48.4872 6.42741C48.5358 6.6613 48.5199 6.90397 48.4414 7.12957C48.2909 7.54406 48.0067 7.89661 47.6335 8.13156C47.2604 8.36651 46.8196 8.47048 46.3807 8.42704C45.7768 8.35499 45.2075 8.10681 44.7436 7.71343C44.2174 7.26877 43.7731 6.73536 43.4309 6.13739C43.0493 5.523 42.7059 4.84373 42.2517 4.22934C41.7889 3.57118 41.2439 2.97486 40.6299 2.45487C39.2164 1.2588 37.4901 0.492107 35.655 0.245301C33.8198 -0.00150448 31.9524 0.281879 30.273 1.062C29.9983 1.19174 29.7846 1.29859 29.6472 1.37873C29.5098 1.45887 29.4297 1.4894 29.4297 1.4894C29.6912 1.3129 29.9655 1.15601 30.2501 1.02002C31.029 0.64132 31.8558 0.370433 32.7077 0.214824C34.119 -0.053554 35.5728 0.000272342 36.9604 0.372287C38.348 0.744301 39.6337 1.42489 40.7215 2.36328C41.3439 2.88894 41.8954 3.49311 42.3624 4.16066C42.8203 4.80939 43.16 5.48866 43.5378 6.09923C43.8731 6.68763 44.3068 7.21423 44.82 7.65619C45.2685 8.03964 45.8186 8.28485 46.4036 8.36217C46.8878 8.41749 47.3743 8.28045 47.7584 7.98056C48.0551 7.76101 48.2818 7.4601 48.4109 7.11431C48.4926 6.89641 48.5162 6.66103 48.4796 6.43123C48.4338 6.27477 48.4109 6.19463 48.4109 6.19463Z" fill="#263238"/>
<path d="M24.2379 41.3004L24.3104 41.2661L24.5279 41.1668C24.7226 41.0753 25.005 40.9417 25.3522 40.7433C26.3561 40.1955 27.2013 39.3975 27.806 38.4269C28.2044 37.7549 28.436 36.9973 28.4814 36.2174C28.5052 35.7841 28.4588 35.3498 28.344 34.9314C28.2077 34.4941 28.0112 34.078 27.7602 33.6949C27.1673 32.899 26.4791 32.1787 25.7109 31.5503C25.3293 31.203 24.921 30.8596 24.5394 30.4818C24.1406 30.1054 23.7883 29.6826 23.49 29.2225C23.3425 28.988 23.2149 28.7417 23.1084 28.486C23.0176 28.2265 22.9562 27.9577 22.9252 27.6846C22.8579 27.1503 22.918 26.6076 23.1007 26.1009C23.4868 25.1758 23.9895 24.3037 24.5966 23.506C25.1225 22.778 25.539 21.9771 25.833 21.1286C26.0787 20.3878 26.2263 19.618 26.2719 18.8389C26.3394 17.7041 26.1839 16.5671 25.814 15.4922C25.7171 15.1993 25.6024 14.9125 25.4705 14.6336C25.3789 14.4428 25.337 14.3359 25.337 14.3359C25.337 14.3359 25.3942 14.4352 25.4896 14.6221C25.6366 14.8978 25.7642 15.1834 25.8712 15.4769C26.2593 16.5546 26.428 17.699 26.3673 18.8427C26.314 19.6322 26.1561 20.4111 25.8979 21.1591C25.6022 22.0171 25.1846 22.8281 24.6577 23.5671C24.0591 24.3588 23.5629 25.223 23.1809 26.1391C23.0057 26.6276 22.9482 27.1506 23.013 27.6655C23.0436 27.9259 23.1038 28.182 23.1923 28.4288C23.2972 28.6779 23.4249 28.9168 23.5739 29.1424C23.8653 29.5964 24.2114 30.0129 24.6043 30.3826C24.9859 30.7642 25.3675 31.1 25.7491 31.4473C26.5253 32.082 27.2188 32.8114 27.8136 33.6186C28.0704 34.0118 28.2695 34.4398 28.4051 34.8894C28.5215 35.318 28.5679 35.7625 28.5425 36.2059C28.4894 37.0013 28.2488 37.7729 27.8403 38.4574C27.2286 39.4312 26.372 40.2274 25.356 40.7662C25.0006 40.9783 24.6263 41.1571 24.2379 41.3004V41.3004Z" fill="#263238"/>
<path d="M54.8074 26.1586L54.8646 26.1776C54.9226 26.197 54.9778 26.224 55.0287 26.2578C55.223 26.3929 55.3666 26.589 55.437 26.8149C55.4978 26.9928 55.5184 27.1819 55.4973 27.3686C55.4761 27.5554 55.4139 27.7351 55.3149 27.8949C55.1712 28.0982 54.9799 28.2632 54.7577 28.3756C54.5356 28.488 54.2893 28.5444 54.0404 28.5398C53.7405 28.5399 53.4437 28.4782 53.1687 28.3588C52.8936 28.2393 52.6461 28.0645 52.4414 27.8453C51.9695 27.351 51.6137 26.7579 51.3996 26.1089C50.8997 24.7542 50.8844 23.1438 51.0409 21.5296C51.1974 19.9154 51.4225 18.347 51.3462 16.9313C51.3149 16.2631 51.1943 15.6021 50.9875 14.966C50.8003 14.4183 50.5287 13.9032 50.1823 13.4395C49.6955 12.7464 49.0123 12.2147 48.2208 11.9131C47.9265 11.8162 47.6237 11.7472 47.3164 11.707C47.3164 11.707 47.4004 11.707 47.5568 11.707C47.6558 11.7121 47.7542 11.7261 47.8507 11.749C47.981 11.7722 48.1088 11.808 48.2323 11.8559C49.0448 12.1456 49.7483 12.6785 50.2472 13.3823C50.6033 13.8545 50.8828 14.38 51.0752 14.9393C51.2913 15.5831 51.4197 16.2531 51.4569 16.9313C51.5523 18.3623 51.3195 19.9192 51.1592 21.5487C50.9989 23.1782 51.018 24.7619 51.5027 26.0975C51.7095 26.7307 52.0535 27.3106 52.5101 27.7957C52.7041 28.008 52.9398 28.1783 53.2023 28.2958C53.4649 28.4133 53.7489 28.4756 54.0365 28.4787C54.2776 28.4863 54.5168 28.4349 54.7336 28.3292C54.9504 28.2235 55.1381 28.0666 55.2806 27.872C55.376 27.7208 55.4371 27.5505 55.4596 27.3731C55.482 27.1958 55.4652 27.0156 55.4103 26.8454C55.3467 26.6244 55.2127 26.4301 55.0287 26.2921C54.899 26.1891 54.8036 26.17 54.8074 26.1586Z" fill="#263238"/>
<path d="M18.7686 48.1587C18.7686 48.1587 21.8863 54.482 28.4844 54.2034C35.0824 53.9248 35.7693 48.0977 35.7693 48.0977L39.4632 52.1618L35.7693 61.2555L30.339 63.6024L21.4933 61.2555L19.1273 57.5081L13.2734 50.5819L18.7686 48.1587Z" fill="#2642CA"/>
<path d="M40.7346 54.9727H40.3987C40.0868 55.0002 39.7785 55.0603 39.4791 55.152C39.0085 55.3111 38.5578 55.5236 38.1358 55.7855C37.6397 56.087 37.1055 56.48 36.514 56.9303C35.8803 57.4221 35.2048 57.8575 34.4953 58.2316C34.0899 58.4252 33.6685 58.5835 33.2359 58.7048C32.7769 58.8283 32.3085 58.9139 31.8354 58.9605C29.8854 59.1627 27.737 58.7315 25.6267 57.9988C23.5164 57.2661 21.5396 56.4304 19.6545 55.9877C18.7638 55.7771 17.8479 55.6923 16.9336 55.7359C16.1374 55.7632 15.3442 55.8473 14.56 55.9877C13.419 56.1809 12.308 56.5222 11.2553 57.0028C11.0683 57.0868 10.9118 57.1784 10.7745 57.2547C10.6567 57.3156 10.5432 57.3844 10.4348 57.4607L10.1562 57.6401C10.4873 57.3717 10.85 57.1448 11.2362 56.9647C12.2855 56.4625 13.3987 56.1069 14.5447 55.9076C15.3323 55.7604 16.1293 55.6699 16.9298 55.6367C17.8526 55.5887 18.7775 55.6709 19.6774 55.8809C21.5854 56.3236 23.5507 57.1631 25.6648 57.8843C27.7789 58.6056 29.8969 59.0292 31.824 58.8536C32.2913 58.8058 32.7544 58.7229 33.2092 58.6056C33.636 58.4886 34.0511 58.3327 34.4495 58.14C35.1589 57.7767 35.8334 57.3487 36.4644 56.8616C37.0597 56.4304 37.6092 56.0412 38.1015 55.7435C38.5303 55.4847 38.9874 55.276 39.4638 55.1215C39.7687 55.036 40.0824 54.9861 40.3987 54.9727C40.6239 54.9727 40.7346 54.9727 40.7346 54.9727Z" fill="#FAFAFA"/>
<path d="M41.5195 33.0995L44.0305 38.1749L44.2594 40.9224C44.2594 40.9224 44.4884 40.0943 44.7708 39.3159C45.0532 38.5374 45.2325 36.1027 45.2325 36.1027L43.4008 32.3057C43.4008 32.3057 42.3209 30.2107 43.626 29.2338L45.5645 31.7944C45.5645 31.7944 44.0381 28.8522 45.4768 28.0508L47.1139 29.8901C47.0548 29.7963 47.0169 29.6908 47.0028 29.5809C46.9887 29.4709 46.9987 29.3592 47.0321 29.2535C47.0655 29.1479 47.1215 29.0507 47.1963 28.9689C47.271 28.887 47.3627 28.8225 47.4649 28.7797L51.5978 34.0802L51.0826 41.8841L49.6668 50.0047L50.3423 51.2182L43.0039 56.3013C43.0039 56.3013 40.7143 51.2831 40.554 49.6231C40.3937 47.9631 42.0308 39.167 42.0308 39.167C42.0308 39.167 40.4701 36.0417 40.6723 34.79C40.8746 33.5383 41.5195 33.0995 41.5195 33.0995Z" fill="#FFBE9D"/>
<path d="M43.5974 57.5236L43.5516 57.4511L43.4371 57.2183L43.0059 56.3062C42.6243 55.501 42.0977 54.3142 41.4795 52.7687C41.1239 51.9153 40.8206 51.0411 40.5712 50.1509C40.4549 49.6287 40.4304 49.0902 40.4987 48.5596C40.5445 48.0177 40.6056 47.4529 40.6819 46.8729C40.9834 44.5527 41.4146 41.9425 41.9259 39.0804V39.1644C41.4468 38.2115 41.0498 37.2196 40.7391 36.1993C40.6602 35.9288 40.599 35.6535 40.556 35.375C40.5354 35.2284 40.5265 35.0804 40.5292 34.9323V34.7072L40.5712 34.4897C40.6304 34.1995 40.728 33.9184 40.8612 33.6539C40.9954 33.3714 41.1894 33.1213 41.4298 32.9212L41.5596 32.8182L41.6397 32.9747C42.4373 34.5851 43.2845 36.2794 44.1545 38.031V38.0577V38.0844C44.2309 38.9469 44.3072 39.8856 44.3873 40.8358L44.0897 40.8053C44.208 40.4237 44.3301 40.0421 44.4713 39.6605L44.6544 39.0842C44.711 38.8926 44.7556 38.6976 44.788 38.5004C44.9254 37.6952 45.0055 36.8556 45.0704 36.0161V36.0962L43.9752 33.8066C43.7882 33.425 43.5936 33.0434 43.4104 32.635C43.3188 32.4404 43.212 32.2534 43.128 32.0283C43.0414 31.8187 42.97 31.6032 42.9143 31.3834C42.8029 30.9718 42.7808 30.5411 42.8494 30.1202C42.9211 29.6821 43.1589 29.2884 43.5134 29.0212L43.6394 28.9296L43.7309 29.0517L45.6695 31.6161L45.4062 31.7802C45.0863 31.1536 44.8588 30.4839 44.7308 29.7921C44.6621 29.4379 44.6621 29.0739 44.7308 28.7197C44.7697 28.534 44.8477 28.3587 44.9596 28.2055C45.0714 28.0522 45.2146 27.9244 45.3795 27.8306L45.4902 27.7695L45.5703 27.8649L47.2303 29.8607L46.9823 30.0248C46.868 29.7878 46.8306 29.5209 46.8754 29.2616C46.9039 29.1275 46.9627 29.0017 47.0474 28.8939C47.132 28.786 47.2403 28.699 47.3639 28.6396L47.4745 28.5824L47.5509 28.6778L51.6837 33.9172L51.718 33.963V34.0127C51.5272 36.8289 51.3364 39.4391 51.1876 41.828C50.6304 44.9496 50.1458 47.6704 49.7375 49.941V49.8838L52.4469 54.8981L53.1567 56.2337L53.336 56.581C53.3564 56.6205 53.3743 56.6613 53.3895 56.7031C53.3594 56.6696 53.3338 56.6324 53.3131 56.5924L53.1147 56.2566L52.3515 54.9439C51.7028 53.7991 50.7602 52.0971 49.5657 49.983V49.9563V49.9257C49.9474 47.6361 50.4167 44.9305 50.951 41.8013C51.0998 39.4124 51.2677 36.7984 51.4433 33.9859L51.4738 34.0813L47.3219 28.8495L47.5089 28.8915C47.4247 28.9314 47.3508 28.9899 47.2926 29.0627C47.2344 29.1354 47.1936 29.2204 47.1731 29.3112C47.1423 29.5074 47.1716 29.7082 47.257 29.8875L47.7111 30.8949L47.009 30.0515L45.3604 28.0748L45.555 28.1092C45.4268 28.1824 45.3158 28.2822 45.2296 28.4021C45.1433 28.5219 45.0838 28.6589 45.0551 28.8037C44.9978 29.1178 44.9978 29.4398 45.0551 29.7539C45.1781 30.4179 45.3966 31.0606 45.7039 31.6619L45.4444 31.8298L43.5058 29.2693L43.7233 29.2998C43.4313 29.5193 43.2356 29.8435 43.1776 30.2042C43.1173 30.5861 43.1394 30.9764 43.2425 31.349C43.2931 31.5548 43.3594 31.7564 43.4409 31.952C43.5172 32.1466 43.6203 32.3336 43.7119 32.5396L44.2766 33.7112L45.3757 36.0008L45.3948 36.039V36.081C45.3261 36.932 45.2459 37.7715 45.1009 38.5958C45.0679 38.8045 45.022 39.0109 44.9635 39.214C44.8987 39.4124 44.8376 39.5956 44.7766 39.7978L44.414 40.9427L44.1774 41.683L44.1164 40.9198C44.0362 39.9696 43.9599 39.0346 43.8874 38.1722V38.2256C43.0212 36.474 42.1816 34.7911 41.3841 33.1655L41.5901 33.2189C41.3898 33.391 41.2273 33.6028 41.1131 33.8409C40.9897 34.0823 40.8986 34.3389 40.8422 34.6041C40.7581 35.1331 40.8066 35.6746 40.9834 36.1802C41.2828 37.1848 41.6657 38.1626 42.1282 39.1033V39.1415V39.1834C41.6054 42.0341 41.1551 44.6443 40.8383 46.953C40.7582 47.5292 40.6933 48.0978 40.6437 48.6321C40.573 49.1401 40.591 49.6566 40.6972 50.1585C40.9335 51.0443 41.2241 51.9147 41.5672 52.7649C42.1702 54.3142 42.6853 55.5087 43.0326 56.3253C43.2081 56.726 43.3379 57.0389 43.4142 57.2526L43.5134 57.4892C43.5936 57.4969 43.6012 57.5236 43.5974 57.5236Z" fill="#EB996E"/>
<path d="M47.5164 40.1561C47.4614 39.7088 47.4614 39.2564 47.5164 38.809C47.5584 37.9771 47.6424 36.8323 47.7568 35.5692L47.7874 35.2219L47.8141 35.325C47.1501 34.3366 46.57 33.4474 46.1655 32.7987C45.9221 32.4648 45.7209 32.102 45.5664 31.7188C45.859 32.007 46.1153 32.33 46.3296 32.6804C46.7799 33.2986 47.3867 34.1649 48.0545 35.1494L48.0888 35.1952V35.2486C48.0888 35.3593 48.0698 35.4776 48.0583 35.5959C47.9476 36.859 47.8294 38.0038 47.7301 38.8281C47.7093 39.2774 47.6376 39.7229 47.5164 40.1561V40.1561Z" fill="#EB996E"/>
<path d="M49.6754 37.99C49.6283 37.5805 49.6283 37.1669 49.6754 36.7574C49.7173 35.9942 49.7936 34.9371 49.8967 33.7503L49.931 33.861L49.6982 33.5634C48.935 32.5483 48.2329 31.621 47.7482 30.9417C47.4589 30.5901 47.2117 30.2059 47.0117 29.7969C47.3548 30.0951 47.661 30.4333 47.9238 30.8043C48.4542 31.4492 49.1716 32.3537 49.9501 33.3687C50.0264 33.468 50.1028 33.571 50.1791 33.6664L50.2134 33.716V33.7771C50.1027 34.96 49.9883 36.0133 49.8929 36.7727C49.8723 37.186 49.7992 37.5951 49.6754 37.99Z" fill="#EB996E"/>
<path d="M41.0234 54.605L51.2544 50.2852C51.2544 50.2852 66.1371 83.6416 66.9919 85.7977C69.045 90.8769 67.0148 98.4136 61.4281 98.2763C58.795 98.2152 51.2544 97.1925 49.1975 89.1825C48.5526 86.6715 46.7247 80.6536 46.7247 80.6536L41.0234 54.605Z" fill="#2642CA"/>
<path d="M51.2546 50.2852C51.1985 50.3245 51.1384 50.3578 51.0753 50.3844L50.5372 50.6439L48.488 51.6131L41.1382 55.0476L41.184 54.956C41.7907 58.3676 42.5463 62.4241 43.4736 66.7363C44.8016 72.9985 46.2517 78.612 47.366 82.6532C47.9346 84.6643 48.3964 86.2937 48.7169 87.4348C48.8772 87.9881 48.9993 88.4231 49.0986 88.7322L49.1901 89.0719C49.205 89.1097 49.214 89.1496 49.2168 89.1902C49.1977 89.155 49.1824 89.1179 49.1711 89.0795C49.1443 88.9917 49.1062 88.8849 49.0604 88.7437L48.6559 87.4577C48.3086 86.3357 47.8202 84.7101 47.2439 82.6914C46.0991 78.6578 44.6223 73.0443 43.2905 66.7783C42.3708 62.4623 41.6266 58.402 41.0352 54.9828V54.9179L41.0962 54.8912L48.4765 51.533L50.5487 50.6057L51.0944 50.3653L51.2546 50.2852Z" fill="#263238"/>
<path d="M65.3369 83.6602C65.311 83.7137 65.2803 83.7647 65.2453 83.8128L64.9629 84.244C64.818 84.4727 64.6587 84.692 64.4859 84.9004C64.2875 85.1484 64.0776 85.4461 63.8028 85.7323L63.3792 86.1979C63.2304 86.3581 63.0625 86.5108 62.8946 86.6749C62.5626 87.0107 62.1734 87.3236 61.7688 87.667C60.8635 88.3737 59.8952 88.9958 58.8763 89.5255C57.8491 90.0388 56.7759 90.454 55.6707 90.7657C55.1594 90.8916 54.6747 91.0252 54.2092 91.0939C53.9764 91.132 53.7551 91.1817 53.5375 91.2084L52.9117 91.2732C52.5301 91.3267 52.1485 91.3229 51.8356 91.3381C51.5649 91.3556 51.2934 91.3556 51.0227 91.3381L50.5076 91.3152C50.4491 91.3192 50.3905 91.3192 50.332 91.3152C50.3917 91.3094 50.4517 91.3094 50.5114 91.3152H51.0227C51.2935 91.3297 51.5648 91.3297 51.8356 91.3152C52.1485 91.2923 52.511 91.2923 52.9041 91.2313L53.5223 91.1588C53.7398 91.1282 53.9611 91.0786 54.1901 91.0405C54.6518 90.968 55.1327 90.8306 55.644 90.7047C57.8451 90.0832 59.9027 89.0356 61.7002 87.6212C62.1008 87.2854 62.4939 86.9763 62.845 86.6443C63.0129 86.4841 63.1846 86.3352 63.3334 86.175C63.4823 86.0147 63.6235 85.8658 63.757 85.717C64.0356 85.4346 64.2531 85.1446 64.4554 84.9042C64.6289 84.6976 64.792 84.4823 64.9438 84.2593L65.2453 83.8433L65.3369 83.6602Z" fill="#FAFAFA"/>
<path d="M62.5324 74.625C62.5111 74.6798 62.4843 74.7322 62.4522 74.7815C62.395 74.8807 62.3187 75.0371 62.1927 75.2203C61.8532 75.7469 61.4537 76.2323 61.0021 76.6666C60.3372 77.319 59.5735 77.8625 58.7392 78.277C57.7181 78.7926 56.6056 79.1025 55.465 79.189C54.3294 79.2203 53.1931 79.1693 52.0649 79.0364C51.148 78.9378 50.2218 78.9686 49.3135 79.128C48.7015 79.2374 48.116 79.4628 47.5886 79.792C47.207 80.0286 47.0505 80.2079 47.0391 80.1965C47.1963 80.0273 47.3731 79.8775 47.5657 79.75C48.0903 79.4014 48.6793 79.1613 49.2982 79.044C50.2126 78.8728 51.1468 78.833 52.0725 78.9257C53.1961 79.0517 54.3271 79.1002 55.4574 79.0707C56.5826 78.986 57.6804 78.6827 58.6896 78.1778C59.5185 77.7742 60.2795 77.2437 60.9449 76.6056C61.3956 76.1789 61.7999 75.7056 62.1508 75.1936C62.2805 75.0181 62.3607 74.8654 62.4293 74.77C62.4605 74.7195 62.4949 74.6711 62.5324 74.625Z" fill="#FAFAFA"/>
<path d="M44.4648 70.6595C44.4648 70.6595 44.6709 70.6595 45.0373 70.6595C45.5553 70.6472 46.0691 70.5624 46.5637 70.4076C47.2941 70.1743 47.9878 69.839 48.6244 69.4116C49.4022 68.8786 50.143 68.2934 50.8415 67.66C51.5418 67.024 52.2783 66.429 53.0472 65.8779C53.6846 65.4321 54.379 65.074 55.1117 64.8132C55.6033 64.6394 56.1174 64.5378 56.6382 64.5118C56.8293 64.5023 57.0208 64.5099 57.2106 64.5346C57.2106 64.5346 57.0045 64.5346 56.6382 64.5575C56.1166 64.6004 55.6031 64.7133 55.1117 64.8934C54.3921 65.1619 53.7108 65.5237 53.0854 65.9695C52.3225 66.5237 51.59 67.1186 50.8911 67.7516C50.1897 68.388 49.4437 68.9733 48.6587 69.5032C48.0107 69.9327 47.3037 70.2657 46.5599 70.4916C46.0569 70.6394 45.5347 70.7114 45.0105 70.7053C44.8276 70.7072 44.6449 70.6919 44.4648 70.6595V70.6595Z" fill="#FAFAFA"/>
<path d="M52.0759 55.2266C52.0706 55.2634 52.0604 55.2994 52.0454 55.3334C52.0084 55.4346 51.9637 55.5329 51.9118 55.6272C51.7149 55.9762 51.4563 56.2865 51.1486 56.5431C50.6964 56.9237 50.1793 57.2198 49.6221 57.417C48.9415 57.6462 48.2354 57.791 47.5195 57.8482C46.7563 57.9284 46.0427 57.9589 45.3939 58.0314C44.8174 58.0868 44.2467 58.1915 43.6881 58.3443C43.3145 58.4528 42.9527 58.5985 42.6082 58.7793C42.3639 58.9091 42.2266 58.9968 42.2266 58.9854C42.2528 58.9589 42.2823 58.9358 42.3143 58.9167C42.3999 58.8519 42.4891 58.7921 42.5815 58.7374C42.9219 58.5383 43.2843 58.3795 43.6614 58.2642C44.2222 58.0976 44.797 57.9826 45.3786 57.9207C46.0312 57.8444 46.7524 57.8062 47.5042 57.7299C48.2101 57.6729 48.9068 57.5333 49.5802 57.314C50.1251 57.1253 50.6327 56.8424 51.0799 56.4782C51.5002 56.1397 51.8404 55.7122 52.0759 55.2266Z" fill="#FAFAFA"/>
<path d="M186.704 88.7594C187.585 89.8126 189.077 89.3051 189.722 88.5572C190.367 87.8092 190.577 86.7941 190.764 85.8248C191.195 83.6115 191.619 81.2913 190.959 79.1352C190.789 78.4789 190.442 77.8821 189.955 77.4104C189.708 77.1788 189.405 77.016 189.075 76.9383C188.746 76.8607 188.402 76.8708 188.077 76.9677C187.314 77.2386 186.933 78.0324 186.635 78.7803C185.81 80.985 185.484 83.3454 185.681 85.6913C185.776 86.7827 186.005 87.916 186.704 88.7441" fill="#2642CA"/>
<g opacity="0.2">
<path d="M186.711 88.7594C187.593 89.8126 189.085 89.3051 189.73 88.5572C190.375 87.8092 190.585 86.7941 190.772 85.8248C191.203 83.6115 191.627 81.2913 190.966 79.1352C190.797 78.4789 190.45 77.8821 189.963 77.4104C189.716 77.1788 189.413 77.016 189.083 76.9383C188.754 76.8607 188.41 76.8708 188.085 76.9677C187.322 77.2386 186.94 78.0324 186.643 78.7803C185.817 80.985 185.492 83.3454 185.689 85.6913C185.784 86.7827 186.013 87.916 186.711 88.7441" fill="black"/>
</g>
<path d="M190.161 94.1726C191.422 93.4345 192.887 93.1227 194.34 93.2834C195.124 93.2817 195.886 93.5438 196.503 94.0276C197.076 94.5542 197.266 95.554 196.713 96.1035C196.349 96.397 195.895 96.556 195.427 96.5538C194.313 96.6378 193.057 96.5538 192.229 97.317C191.756 97.7444 191.466 98.4084 190.882 98.6527C190.585 98.7497 190.264 98.7475 189.968 98.6463C189.672 98.5451 189.417 98.3505 189.241 98.0917C188.901 97.5584 188.78 96.9148 188.902 96.2943C188.932 95.8672 189.062 95.4531 189.281 95.0848C189.499 94.7166 189.801 94.4042 190.161 94.1726V94.1726Z" fill="#2642CA"/>
<path d="M184.706 90.5616C185.064 89.9984 185.278 89.3562 185.331 88.691C185.383 88.0259 185.272 87.358 185.008 86.7455C184.464 85.5257 183.595 84.4789 182.497 83.7194C181.241 82.7887 179.815 82.1133 178.299 81.7312C177.712 81.5523 177.094 81.5029 176.486 81.5862C176.183 81.6306 175.894 81.7487 175.647 81.9304C175.399 82.112 175.2 82.3515 175.067 82.628C174.719 83.4637 175.204 84.3948 175.712 85.1466C176.599 86.4709 177.591 87.7227 178.677 88.8902C179.551 89.8289 180.535 90.7448 181.768 91.0959C183 91.447 184.237 91.2791 184.798 90.3975" fill="#2642CA"/>
<path d="M188.165 105.656C188.192 105.486 188.201 105.313 188.191 105.141C188.191 104.759 188.191 104.298 188.191 103.741C188.198 103.051 188.242 102.361 188.321 101.676C188.43 100.84 188.607 100.015 188.848 99.207C189.082 98.3991 189.429 97.6282 189.878 96.9174C190.246 96.3403 190.738 95.8517 191.317 95.4863C191.711 95.2471 192.139 95.0708 192.588 94.9635C192.758 94.9425 192.926 94.9028 193.087 94.8452C192.915 94.8391 192.742 94.8519 192.572 94.8834C192.104 94.9622 191.653 95.1237 191.24 95.3604C190.627 95.7188 190.105 96.2137 189.714 96.8067C189.244 97.5283 188.883 98.3153 188.642 99.1421C188.397 99.9614 188.223 100.8 188.123 101.649C188.053 102.343 188.025 103.04 188.039 103.737C188.039 104.328 188.073 104.809 188.092 105.137C188.1 105.312 188.124 105.486 188.165 105.656V105.656Z" fill="#263238"/>
<path d="M188.169 104.573C188.181 104.494 188.181 104.413 188.169 104.333C188.169 104.157 188.135 103.932 188.108 103.661C188.055 103.074 187.978 102.226 187.917 101.177C187.78 99.0781 187.704 96.1702 187.768 92.9609C187.833 89.7516 188.043 86.8552 188.284 84.764C188.341 84.2412 188.398 83.768 188.459 83.3558C188.52 82.9437 188.558 82.5926 188.608 82.2949C188.658 81.9973 188.681 81.7989 188.707 81.6233C188.717 81.5447 188.717 81.4653 188.707 81.3867C188.679 81.4607 188.659 81.5375 188.646 81.6157C188.608 81.7912 188.562 82.0126 188.509 82.2797C188.444 82.5697 188.387 82.9246 188.322 83.3367C188.257 83.7489 188.181 84.2221 188.12 84.7449C187.777 87.4697 187.583 90.2112 187.54 92.9571C187.475 96.1741 187.574 99.0857 187.749 101.188C187.83 102.238 187.929 103.096 188.009 103.669C188.051 103.94 188.081 104.165 188.108 104.34C188.12 104.42 188.14 104.498 188.169 104.573V104.573Z" fill="#263238"/>
<path d="M187.685 98.9901C187.681 98.7534 187.658 98.5173 187.617 98.2842C187.552 97.8339 187.43 97.1851 187.235 96.3952C186.997 95.4699 186.707 94.5589 186.365 93.6667C185.955 92.57 185.468 91.5039 184.907 90.4764C183.924 88.5807 182.604 86.8801 181.011 85.4583C180.736 85.2142 180.445 84.9886 180.141 84.7828C180.007 84.6912 179.889 84.5958 179.759 84.5233L179.454 84.3516C179.254 84.2258 179.045 84.1161 178.828 84.0234C179.561 84.4999 180.263 85.0211 180.931 85.5842C182.477 87.0255 183.767 88.7183 184.747 90.5909C185.303 91.6107 185.792 92.6663 186.208 93.7506C186.557 94.6338 186.86 95.5343 187.117 96.4486C187.334 97.2118 187.475 97.872 187.567 98.3147C187.59 98.5424 187.629 98.7682 187.685 98.9901Z" fill="#263238"/>
</svg>
