<svg width="183" height="162" viewBox="0 0 183 162" fill="none" xmlns="http://www.w3.org/2000/svg">
<path d="M182.271 161.802C182.271 161.864 141.463 161.909 91.1394 161.909C40.8156 161.909 0 161.864 0 161.802C0 161.74 40.799 161.694 91.1394 161.694C141.48 161.694 182.271 161.744 182.271 161.802Z" fill="#263238"/>
<path d="M113.309 90.6119H81.0166L74.8481 99.6676L68.8292 90.6119H37.1105C36.6283 90.6119 36.1508 90.5177 35.7053 90.3349C35.2598 90.152 34.855 89.884 34.514 89.5461C34.173 89.2082 33.9025 88.8071 33.718 88.3656C33.5335 87.9241 33.4385 87.451 33.4385 86.9731V24.6492C33.4379 24.171 33.5325 23.6974 33.7168 23.2555C33.9011 22.8135 34.1715 22.4119 34.5125 22.0736C34.8535 21.7352 35.2585 21.4668 35.7043 21.2837C36.1501 21.1006 36.6279 21.0063 37.1105 21.0063H113.309C113.791 21.0063 114.269 21.1006 114.715 21.2837C115.16 21.4668 115.565 21.7352 115.906 22.0736C116.248 22.4119 116.518 22.8135 116.702 23.2555C116.886 23.6974 116.981 24.171 116.981 24.6492V86.9896C116.976 87.9518 116.587 88.8731 115.899 89.5519C115.211 90.2308 114.28 90.6119 113.309 90.6119Z" fill="#FAFAFA"/>
<path d="M93.3531 56.0928H56.994C56.777 56.0928 56.6011 56.2675 56.6011 56.4831V62.0763C56.6011 62.2918 56.777 62.4666 56.994 62.4666H93.3531C93.5701 62.4666 93.746 62.2918 93.746 62.0763V56.4831C93.746 56.2675 93.5701 56.0928 93.3531 56.0928Z" fill="#F5F5F5"/>
<path d="M93.5122 64.8555H56.9957C56.7777 64.8555 56.6011 65.0302 56.6011 65.2458V70.839C56.6011 71.0545 56.7777 71.2293 56.9957 71.2293H93.5122C93.7301 71.2293 93.9068 71.0545 93.9068 70.839V65.2458C93.9068 65.0302 93.7301 64.8555 93.5122 64.8555Z" fill="#F5F5F5"/>
<path d="M59.0151 59.2737V58.4824H59.2315V59.2531C59.2315 59.5666 59.3868 59.7053 59.6587 59.7053C59.9306 59.7053 60.0887 59.5666 60.0887 59.2531V58.4824H60.2996V59.2814C60.3054 59.3628 60.293 59.4444 60.2634 59.5212C60.2337 59.598 60.1873 59.6684 60.1271 59.7279C60.0669 59.7874 59.9942 59.8349 59.9134 59.8673C59.8325 59.8998 59.7454 59.9165 59.6573 59.9165C59.5692 59.9165 59.4821 59.8998 59.4013 59.8673C59.3205 59.8349 59.2477 59.7874 59.1875 59.7279C59.1273 59.6684 59.0809 59.598 59.0513 59.5212C59.0216 59.4444 59.0093 59.3628 59.0151 59.2814V59.2737Z" fill="#263238"/>
<path d="M60.6221 59.7891L60.7078 59.6306C60.8281 59.705 60.9684 59.7444 61.1117 59.7442C61.3026 59.7442 61.3884 59.6887 61.3884 59.5962C61.3884 59.3505 60.6636 59.5645 60.6636 59.1285C60.6636 58.933 60.8489 58.8009 61.1421 58.8009C61.2879 58.7987 61.4317 58.8324 61.5599 58.8986L61.4714 59.0545C61.3716 58.9964 61.2563 58.967 61.1394 58.97C60.9596 58.97 60.8627 59.0334 60.8627 59.1206C60.8627 59.3848 61.5875 59.1682 61.5875 59.5936C61.5875 59.7918 61.3967 59.916 61.0924 59.916C60.9258 59.9197 60.762 59.8755 60.6221 59.7891Z" fill="#263238"/>
<path d="M62.8735 59.4224H61.9532C61.9656 59.5168 62.0152 59.603 62.0917 59.663C62.1682 59.7231 62.2657 59.7524 62.364 59.7448C62.425 59.7467 62.4857 59.7359 62.5419 59.7131C62.5982 59.6902 62.6487 59.656 62.69 59.6127L62.805 59.7395C62.7209 59.8213 62.6142 59.8779 62.4976 59.9024C62.381 59.927 62.2596 59.9185 62.1479 59.878C62.0362 59.8375 61.939 59.7667 61.868 59.6742C61.797 59.5816 61.7553 59.4712 61.7478 59.3563C61.7439 59.2829 61.7559 59.2095 61.7831 59.1408C61.8103 59.0721 61.852 59.0096 61.9057 58.9574C61.9593 58.9052 62.0236 58.8643 62.0945 58.8374C62.1654 58.8105 62.2413 58.7982 62.3175 58.8012C62.3925 58.8011 62.4668 58.8158 62.5357 58.8445C62.6045 58.8732 62.6666 58.9152 62.718 58.968C62.7693 59.0208 62.8089 59.0832 62.8342 59.1514C62.8596 59.2195 62.8701 59.292 62.8652 59.3642C62.8693 59.3834 62.872 59.4028 62.8735 59.4224ZM61.9532 59.2823H62.679C62.6711 59.1946 62.6294 59.1131 62.5623 59.0536C62.4951 58.9942 62.4072 58.9612 62.3161 58.9612C62.2249 58.9612 62.1371 58.9942 62.0699 59.0536C62.0027 59.1131 61.9611 59.1946 61.9532 59.2823Z" fill="#263238"/>
<path d="M63.6781 58.8017V58.9976H63.6514C63.6108 58.9948 63.5702 59.0028 63.5325 59.0208C63.4948 59.0388 63.4609 59.0665 63.4333 59.1019C63.4056 59.1373 63.3849 59.1796 63.3725 59.2256C63.3602 59.2716 63.3565 59.3203 63.3619 59.3682V59.9162H63.1948V58.8176H63.3552V59.0029C63.3882 58.9373 63.4359 58.8838 63.4928 58.8483C63.5498 58.8128 63.6139 58.7967 63.6781 58.8017Z" fill="#263238"/>
<path d="M65.121 59.2793V59.9162H64.9067V59.3033C64.9067 59.0874 64.7896 58.9808 64.5867 58.9808C64.5349 58.9768 64.4829 58.9837 64.4344 59.0009C64.3859 59.0181 64.3421 59.0451 64.3062 59.0801C64.2703 59.1151 64.2433 59.1571 64.2271 59.2031C64.2108 59.2491 64.2058 59.2979 64.2124 59.3459V59.9162H63.998V58.8102H64.2038V58.9781C64.2543 58.919 64.3194 58.8721 64.3935 58.8415C64.4676 58.8108 64.5486 58.7974 64.6295 58.8022C64.6972 58.797 64.7653 58.8059 64.8289 58.8283C64.8924 58.8507 64.9498 58.8861 64.9969 58.9317C65.044 58.9774 65.0795 59.0323 65.101 59.0924C65.1225 59.1526 65.1293 59.2164 65.121 59.2793Z" fill="#263238"/>
<path d="M66.2506 59.2444V59.904H66.0602V59.7589C66.0175 59.8128 65.9617 59.8552 65.898 59.8824C65.8343 59.9096 65.7647 59.9207 65.6955 59.9146C65.4461 59.9146 65.2852 59.7827 65.2852 59.5927C65.2852 59.4027 65.4005 59.2735 65.733 59.2735H66.0495V59.2339C66.0495 59.0677 65.9529 58.9701 65.7518 58.9701C65.6245 58.9696 65.5007 59.0114 65.4005 59.0888L65.3173 58.941C65.4498 58.8449 65.6114 58.7956 65.7759 58.8012C66.0763 58.8012 66.2506 58.9437 66.2506 59.2444ZM66.0495 59.569V59.4159H65.7411C65.5426 59.4159 65.4729 59.4924 65.4729 59.5848C65.4729 59.6771 65.5668 59.7615 65.7196 59.7615C65.7885 59.7694 65.858 59.7548 65.9176 59.72C65.9772 59.6852 66.0235 59.6322 66.0495 59.569Z" fill="#263238"/>
<path d="M68.4982 59.2792V59.9162H68.3054V59.3032C68.3054 59.0873 68.2051 58.9807 68.0303 58.9807C67.985 58.9786 67.9397 58.987 67.8979 59.0051C67.856 59.0232 67.8185 59.0507 67.7881 59.0856C67.7577 59.1204 67.735 59.1618 67.7218 59.2068C67.7085 59.2518 67.705 59.2993 67.7115 59.3458V59.9162H67.5186V59.3032C67.5186 59.0873 67.4184 58.9807 67.2436 58.9807C67.1982 58.9786 67.153 58.987 67.1112 59.0051C67.0693 59.0232 67.0318 59.0507 67.0014 59.0856C66.9709 59.1204 66.9483 59.1618 66.935 59.2068C66.9218 59.2518 66.9183 59.2993 66.9248 59.3458V59.9162H66.7319V58.8101H66.917V58.9753C66.9598 58.9172 67.0157 58.871 67.0799 58.8408C67.144 58.8105 67.2144 58.7973 67.2847 58.8021C67.3581 58.7968 67.4315 58.813 67.4965 58.8488C67.5615 58.8846 67.6155 58.9386 67.6523 59.0047C67.6996 58.9384 67.7618 58.8853 67.8336 58.85C67.9053 58.8147 67.9844 58.7982 68.0637 58.8021C68.1242 58.7971 68.1851 58.8063 68.2417 58.8289C68.2984 58.8515 68.3494 58.887 68.3911 58.9328C68.4328 58.9786 68.4641 59.0334 68.4826 59.0934C68.5011 59.1533 68.5065 59.2168 68.4982 59.2792Z" fill="#263238"/>
<path d="M69.9425 59.4224H69.0277C69.0406 59.5165 69.0901 59.6023 69.166 59.6623C69.2419 59.7222 69.3385 59.7517 69.4361 59.7448C69.4971 59.7466 69.5578 59.7357 69.6141 59.7129C69.6704 59.6901 69.7211 59.6559 69.7628 59.6127L69.8745 59.7395C69.7909 59.8213 69.6848 59.8779 69.5689 59.9024C69.453 59.927 69.3323 59.9185 69.2212 59.878C69.1102 59.8375 69.0135 59.7667 68.943 59.6742C68.8724 59.5816 68.8309 59.4712 68.8235 59.3563C68.8196 59.2829 68.8316 59.2095 68.8586 59.1408C68.8856 59.0721 68.9271 59.0096 68.9804 58.9574C69.0337 58.9052 69.0976 58.8643 69.1681 58.8374C69.2386 58.8105 69.3141 58.7982 69.3898 58.8012C69.4655 58.7992 69.5409 58.8126 69.611 58.8405C69.6811 58.8683 69.7444 58.9101 69.7969 58.9631C69.8495 59.0161 69.89 59.0791 69.916 59.1482C69.9421 59.2173 69.9529 59.2908 69.948 59.3642C69.9474 59.3837 69.9456 59.4031 69.9425 59.4224ZM69.0277 59.2823H69.7519C69.7411 59.1965 69.6983 59.1175 69.6316 59.0602C69.5648 59.0029 69.4789 58.9713 69.3898 58.9713C69.3007 58.9713 69.2148 59.0029 69.148 59.0602C69.0813 59.1175 69.0385 59.1965 69.0277 59.2823Z" fill="#263238"/>
<path d="M93.5122 74.7354H56.9957C56.7777 74.7354 56.6011 74.9101 56.6011 75.1256V80.7188C56.6011 80.9344 56.7777 81.1091 56.9957 81.1091H93.5122C93.7301 81.1091 93.9068 80.9344 93.9068 80.7188V75.1256C93.9068 74.9101 93.7301 74.7354 93.5122 74.7354Z" fill="#2642CA"/>
<path d="M71.8779 77.2852H72.2966V78.3974H73.0043V78.7193H71.8779V77.2852Z" fill="white"/>
<path d="M73.1663 78.1343C73.1555 78.0067 73.1839 77.8788 73.2478 77.7674C73.3116 77.656 73.4079 77.5663 73.5242 77.5099C73.6405 77.4535 73.7712 77.4331 73.8994 77.4513C74.0276 77.4695 74.1472 77.5256 74.2426 77.6121C74.3381 77.6986 74.4049 77.8116 74.4344 77.9363C74.4639 78.0609 74.4547 78.1915 74.408 78.3109C74.3612 78.4303 74.2792 78.533 74.1725 78.6056C74.0658 78.6781 73.9394 78.7172 73.81 78.7176C73.7283 78.7242 73.6461 78.714 73.5685 78.6877C73.491 78.6615 73.4198 78.6196 73.3594 78.5648C73.2989 78.5101 73.2506 78.4436 73.2174 78.3695C73.1842 78.2954 73.1668 78.2153 73.1663 78.1343ZM74.0486 78.1343C74.0528 78.1009 74.0498 78.0671 74.0397 78.035C74.0296 78.0029 74.0127 77.9733 73.9901 77.9482C73.9675 77.9231 73.9397 77.903 73.9087 77.8894C73.8776 77.8758 73.8439 77.8688 73.81 77.8691C73.7388 77.8691 73.6706 77.897 73.6203 77.9468C73.57 77.9965 73.5418 78.0639 73.5418 78.1343C73.5418 78.2046 73.57 78.272 73.6203 78.3218C73.6706 78.3715 73.7388 78.3994 73.81 78.3994C73.8439 78.3997 73.8776 78.3928 73.9087 78.3791C73.9397 78.3655 73.9675 78.3455 73.9901 78.3203C74.0127 78.2952 74.0296 78.2657 74.0397 78.2336C74.0498 78.2015 74.0528 78.1676 74.0486 78.1343Z" fill="white"/>
<path d="M75.8979 77.6081V78.5535C75.8979 78.9922 75.6234 79.1965 75.1467 79.1965C74.9236 79.2051 74.7028 79.1529 74.5131 79.0467L74.676 78.7742C74.8022 78.8546 74.953 78.8975 75.1074 78.8968C75.3488 78.8968 75.4484 78.7988 75.4484 78.6244V78.5862C75.4 78.6328 75.3409 78.6692 75.2752 78.6928C75.2095 78.7163 75.1388 78.7265 75.0682 78.7225C74.9042 78.7225 74.7469 78.6636 74.6309 78.5589C74.5149 78.4541 74.4497 78.3121 74.4497 78.1639C74.4497 78.0158 74.5149 77.8737 74.6309 77.769C74.7469 77.6642 74.9042 77.6054 75.0682 77.6054C75.1446 77.5997 75.2214 77.6115 75.2915 77.6396C75.3616 77.6677 75.4228 77.7112 75.4695 77.7661V77.6245L75.8979 77.6081ZM75.4544 78.153C75.4545 78.1208 75.4472 78.089 75.4331 78.0594C75.4189 78.0299 75.3982 78.0033 75.3721 77.9813C75.3461 77.9593 75.3153 77.9424 75.2817 77.9316C75.2481 77.9209 75.2124 77.9165 75.1768 77.9187C75.1402 77.9151 75.1032 77.9186 75.0681 77.9288C75.033 77.939 75.0007 77.9558 74.9733 77.978C74.9459 78.0003 74.924 78.0274 74.909 78.0578C74.894 78.0882 74.8862 78.1211 74.8862 78.1544C74.8862 78.1877 74.894 78.2206 74.909 78.2509C74.924 78.2813 74.9459 78.3085 74.9733 78.3307C75.0007 78.353 75.033 78.3697 75.0681 78.38C75.1032 78.3902 75.1402 78.3936 75.1768 78.3901C75.2134 78.3924 75.2502 78.3877 75.2846 78.3763C75.3191 78.3649 75.3505 78.347 75.3767 78.3238C75.4029 78.3007 75.4234 78.2727 75.4368 78.2419C75.4502 78.211 75.4562 78.1779 75.4544 78.1448V78.153Z" fill="white"/>
<path d="M76.7017 77.2852H77.1849V78.7193H76.7017V77.2852Z" fill="white"/>
<path d="M78.6282 78.0922V78.7194H78.2582V78.1541C78.2582 77.9967 78.1912 77.9296 78.0844 77.9296C77.9776 77.9296 77.8758 78.007 77.8758 78.1877V78.7194H77.5059V77.6224H77.8709V77.7411C77.9144 77.6959 77.9663 77.6604 78.0236 77.6368C78.0808 77.6133 78.1421 77.6022 78.2036 77.6043C78.2639 77.6018 78.324 77.6131 78.3797 77.6374C78.4354 77.6618 78.4852 77.6985 78.5257 77.745C78.5662 77.7915 78.5964 77.8468 78.6141 77.9068C78.6318 77.9667 78.6366 78.03 78.6282 78.0922Z" fill="white"/>
<path d="M59.4975 68.1231C59.4975 68.2334 59.4644 68.3413 59.4026 68.433C59.3407 68.5247 59.2527 68.5962 59.1498 68.6384C59.0469 68.6806 58.9337 68.6916 58.8244 68.6701C58.7152 68.6486 58.6148 68.5955 58.5361 68.5175C58.4573 68.4395 58.4036 68.3401 58.3819 68.2319C58.3602 68.1238 58.3713 68.0116 58.414 67.9097C58.4566 67.8078 58.5288 67.7207 58.6214 67.6594C58.714 67.5981 58.8229 67.5654 58.9343 67.5654C59.0837 67.5654 59.2269 67.6242 59.3325 67.7288C59.4381 67.8334 59.4975 67.9752 59.4975 68.1231Z" fill="#263238"/>
<path d="M61.2655 68.1231C61.2655 68.2334 61.2325 68.3413 61.1706 68.433C61.1087 68.5247 61.0208 68.5962 60.9179 68.6384C60.815 68.6806 60.7017 68.6916 60.5925 68.6701C60.4832 68.6486 60.3829 68.5955 60.3041 68.5175C60.2254 68.4395 60.1717 68.3401 60.15 68.2319C60.1283 68.1238 60.1394 68.0116 60.182 67.9097C60.2247 67.8078 60.2968 67.7207 60.3895 67.6594C60.4821 67.5981 60.591 67.5654 60.7024 67.5654C60.8517 67.5654 60.995 67.6242 61.1006 67.7288C61.2062 67.8334 61.2655 67.9752 61.2655 68.1231Z" fill="#263238"/>
<path d="M63.0346 68.1231C63.0346 68.2334 63.0016 68.3413 62.9397 68.433C62.8778 68.5247 62.7898 68.5962 62.6869 68.6384C62.584 68.6806 62.4708 68.6916 62.3615 68.6701C62.2523 68.6486 62.1519 68.5955 62.0732 68.5175C61.9944 68.4395 61.9408 68.3401 61.919 68.2319C61.8973 68.1238 61.9085 68.0116 61.9511 67.9097C61.9937 67.8078 62.0659 67.7207 62.1585 67.6594C62.2511 67.5981 62.36 67.5654 62.4714 67.5654C62.6208 67.5654 62.764 67.6242 62.8696 67.7288C62.9753 67.8334 63.0346 67.9752 63.0346 68.1231Z" fill="#263238"/>
<path d="M64.8036 68.1231C64.8036 68.2334 64.7706 68.3413 64.7087 68.433C64.6468 68.5247 64.5589 68.5962 64.456 68.6384C64.3531 68.6806 64.2398 68.6916 64.1306 68.6701C64.0213 68.6486 63.921 68.5955 63.8422 68.5175C63.7634 68.4395 63.7098 68.3401 63.6881 68.2319C63.6663 68.1238 63.6775 68.0116 63.7201 67.9097C63.7627 67.8078 63.8349 67.7207 63.9275 67.6594C64.0202 67.5981 64.1291 67.5654 64.2404 67.5654C64.3898 67.5654 64.5331 67.6242 64.6387 67.7288C64.7443 67.8334 64.8036 67.9752 64.8036 68.1231Z" fill="#263238"/>
<path d="M66.5722 68.1204C66.5727 68.2309 66.5401 68.3389 66.4786 68.431C66.417 68.5231 66.3293 68.595 66.2264 68.6376C66.1235 68.6802 66.0102 68.6917 65.9008 68.6705C65.7914 68.6492 65.6908 68.5963 65.6117 68.5184C65.5327 68.4406 65.4788 68.3412 65.4568 68.2329C65.4349 68.1247 65.4459 68.0124 65.4884 67.9103C65.531 67.8083 65.6031 67.721 65.6958 67.6596C65.7885 67.5982 65.8975 67.5654 66.009 67.5654C66.1579 67.5654 66.3007 67.6238 66.4063 67.7278C66.5118 67.8318 66.5715 67.973 66.5722 68.1204Z" fill="#263238"/>
<path d="M68.3412 68.1204C68.3418 68.231 68.3091 68.3392 68.2474 68.4313C68.1858 68.5234 68.0978 68.5953 67.9948 68.6379C67.8918 68.6804 67.7783 68.6917 67.6688 68.6703C67.5593 68.6488 67.4587 68.5957 67.3798 68.5175C67.3009 68.4393 67.2472 68.3397 67.2255 68.2313C67.2039 68.1228 67.2153 68.0105 67.2582 67.9085C67.3012 67.8065 67.3738 67.7194 67.4668 67.6583C67.5599 67.5972 67.6691 67.5649 67.7808 67.5654C67.9294 67.5654 68.072 67.6239 68.1771 67.728C68.2822 67.8321 68.3412 67.9732 68.3412 68.1204Z" fill="#263238"/>
<path d="M70.1098 68.1231C70.1098 68.2334 70.0768 68.3413 70.0149 68.433C69.953 68.5247 69.865 68.5962 69.7621 68.6384C69.6592 68.6806 69.546 68.6916 69.4367 68.6701C69.3275 68.6486 69.2271 68.5955 69.1484 68.5175C69.0696 68.4395 69.016 68.3401 68.9942 68.2319C68.9725 68.1238 68.9836 68.0116 69.0263 67.9097C69.0689 67.8078 69.1411 67.7207 69.2337 67.6594C69.3263 67.5981 69.4352 67.5654 69.5466 67.5654C69.696 67.5654 69.8392 67.6242 69.9448 67.7288C70.0504 67.8334 70.1098 67.9752 70.1098 68.1231Z" fill="#263238"/>
<path d="M71.8788 68.1231C71.8788 68.2334 71.8458 68.3413 71.7839 68.433C71.722 68.5247 71.6341 68.5962 71.5312 68.6384C71.4282 68.6806 71.315 68.6916 71.2058 68.6701C71.0965 68.6486 70.9962 68.5955 70.9174 68.5175C70.8386 68.4395 70.785 68.3401 70.7633 68.2319C70.7415 68.1238 70.7527 68.0116 70.7953 67.9097C70.8379 67.8078 70.9101 67.7207 71.0027 67.6594C71.0954 67.5981 71.2042 67.5654 71.3156 67.5654C71.465 67.5654 71.6083 67.6242 71.7139 67.7288C71.8195 67.8334 71.8788 67.9752 71.8788 68.1231Z" fill="#263238"/>
<path d="M90.9191 67.6452H90.7726V67.4344C90.7616 67.2541 90.6838 67.0848 90.555 66.9611C90.4263 66.8374 90.2563 66.7686 90.0796 66.7686C89.903 66.7686 89.733 66.8374 89.6043 66.9611C89.4755 67.0848 89.3977 67.2541 89.3867 67.4344V67.6452H89.1778C89.1102 67.6452 89.0453 67.6727 88.9975 67.7216C88.9497 67.7705 88.9229 67.8368 88.9229 67.906V69.0573C88.9229 69.1265 88.9497 69.1928 88.9975 69.2417C89.0453 69.2906 89.1102 69.3181 89.1778 69.3181H90.9191C90.9867 69.3181 91.0516 69.2906 91.0994 69.2417C91.1472 69.1928 91.1741 69.1265 91.1741 69.0573V67.906C91.1741 67.8368 91.1472 67.7705 91.0994 67.7216C91.0516 67.6727 90.9867 67.6452 90.9191 67.6452ZM90.317 68.9436H89.7745L89.9101 68.5912C89.8515 68.5623 89.8041 68.5139 89.7759 68.4539C89.7476 68.3939 89.7401 68.3258 89.7546 68.2609C89.7691 68.1959 89.8047 68.1379 89.8556 68.0964C89.9066 68.0548 89.9698 68.0322 90.0349 68.0322C90.1 68.0322 90.1632 68.0548 90.2141 68.0964C90.2651 68.1379 90.3007 68.1959 90.3152 68.2609C90.3297 68.3258 90.3222 68.3939 90.2939 68.4539C90.2657 68.5139 90.2183 68.5623 90.1597 68.5912L90.317 68.9436ZM90.5665 67.6452H89.6036V67.4344C89.6128 67.3102 89.6674 67.1941 89.7567 67.1094C89.846 67.0246 89.9633 66.9776 90.0851 66.9776C90.2069 66.9776 90.3241 67.0246 90.4134 67.1094C90.5027 67.1941 90.5574 67.3102 90.5665 67.4344V67.6452Z" fill="#E0E0E0"/>
<path d="M84.689 40.4309C85.54 35.1778 81.9325 30.2357 76.6314 29.3924C71.3303 28.5491 66.343 32.124 65.492 37.3771C64.641 42.6302 68.2486 47.5723 73.5497 48.4156C78.8508 49.2589 83.838 45.684 84.689 40.4309Z" fill="#FAFAFA"/>
<path d="M84.7339 38.9001C84.7339 38.9001 84.7339 38.8487 84.7176 38.746C84.7013 38.6433 84.7013 38.4757 84.6878 38.2864C84.6878 38.1864 84.6742 38.0729 84.6688 37.9485C84.6634 37.8242 84.6281 37.6917 84.6065 37.5457C84.564 37.2086 84.496 36.8751 84.4031 36.5482C84.1743 35.6448 83.8086 34.7815 83.3186 33.9881C82.6159 32.8191 81.6727 31.8118 80.5511 31.0327C79.4295 30.2536 78.1551 29.7203 76.8118 29.4681C76.4097 29.3934 76.003 29.3464 75.5945 29.3275C75.3884 29.3275 75.1797 29.3005 74.9682 29.3032L74.3311 29.3356C74.2226 29.3356 74.1169 29.3356 74.0084 29.3572L73.6885 29.4059C73.4743 29.441 73.2547 29.4681 73.0405 29.5113C72.6047 29.6096 72.1755 29.7351 71.7554 29.8871C71.3259 30.0382 70.9073 30.2188 70.5029 30.4278C70.2995 30.5359 70.1043 30.6657 69.9037 30.7846C69.7001 30.903 69.5053 31.0358 69.3208 31.182C68.5369 31.7474 67.8502 32.4358 67.2874 33.2203C66.6894 34.0211 66.2252 34.913 65.9128 35.8615C65.2513 37.8262 65.2513 39.9524 65.9128 41.9171L66.1839 42.628L66.5093 43.3039C66.5619 43.4166 66.6217 43.5258 66.6882 43.631L66.8834 43.95L67.0759 44.2636L67.2982 44.561C67.5869 44.9524 67.9021 45.3236 68.2417 45.672C68.5827 46.0034 68.9449 46.3122 69.3262 46.5966C69.5102 46.743 69.7041 46.8767 69.9064 46.9967C70.1097 47.1156 70.3049 47.2454 70.5056 47.3535C70.9112 47.562 71.3306 47.7427 71.7609 47.8942C72.1809 48.0462 72.6101 48.1717 73.046 48.27C73.2601 48.3132 73.4797 48.3375 73.6939 48.3754L74.0138 48.4241C74.1223 48.4241 74.228 48.4241 74.3365 48.4457L74.9736 48.4781C75.1851 48.4781 75.3938 48.4592 75.5999 48.4538C76.0093 48.4347 76.4169 48.3878 76.8199 48.3132C78.1632 48.0608 79.4375 47.5275 80.5591 46.7484C81.6806 45.9693 82.6239 44.9621 83.3268 43.7932C83.8158 42.9993 84.1815 42.1362 84.4113 41.2331C84.5042 40.9062 84.5721 40.5727 84.6146 40.2356C84.6363 40.0896 84.6634 39.9652 84.677 39.8328C84.6905 39.7003 84.6905 39.5949 84.6959 39.4948C84.7095 39.2975 84.7203 39.1434 84.7257 39.0353C84.7312 38.9271 84.742 38.8785 84.742 38.8785C84.742 38.8785 84.742 38.9326 84.742 39.0353C84.742 39.138 84.742 39.3056 84.7257 39.4976C84.7257 39.5976 84.7257 39.7111 84.7122 39.8355C84.6986 39.9598 84.6742 40.1058 84.6553 40.241C84.618 40.5797 84.5546 40.915 84.4655 41.2439C84.2477 42.1564 83.8902 43.0299 83.4054 43.8337C82.7031 45.0199 81.7555 46.0433 80.6256 46.8357C79.4957 47.6281 78.2094 48.1714 76.8525 48.4295C76.4452 48.5072 76.033 48.5559 75.6189 48.5754C75.4074 48.5754 75.1959 48.6052 74.9845 48.6025L74.3392 48.57C74.2307 48.57 74.1196 48.57 74.0111 48.5511L73.6858 48.5025C73.4689 48.4646 73.2493 48.4403 73.0297 48.397C72.1343 48.1974 71.2685 47.883 70.4541 47.4617C70.248 47.3508 70.0501 47.2211 69.8468 47.1021C69.6409 46.9816 69.4442 46.8461 69.2584 46.6966C68.8678 46.4104 68.4974 46.0979 68.1495 45.7612C67.8054 45.4074 67.4857 45.0308 67.1925 44.6339L66.9675 44.3339L66.7696 44.0149L66.5744 43.6932C66.5059 43.5868 66.4452 43.4757 66.3927 43.3607L66.0592 42.674C65.9725 42.4334 65.883 42.1928 65.7881 41.9522C65.1175 39.9595 65.1175 37.8029 65.7881 35.8102C66.105 34.8477 66.5765 33.9429 67.1844 33.1311C67.4784 32.735 67.7981 32.3584 68.1414 32.0038C68.4899 31.6671 68.8603 31.3537 69.2503 31.0658C69.4368 30.9181 69.6334 30.7835 69.8386 30.663C70.042 30.544 70.2399 30.4143 70.4459 30.3034C71.2604 29.8821 72.1261 29.5677 73.0216 29.3681C73.2412 29.3248 73.4608 29.3005 73.6777 29.2626L74.003 29.214C74.1114 29.2004 74.2226 29.2004 74.3283 29.195L74.9736 29.1626C75.1878 29.1626 75.3993 29.1815 75.6107 29.1896C76.0238 29.2094 76.4351 29.2573 76.8416 29.3329C78.1983 29.5927 79.4842 30.1367 80.6143 30.929C81.7444 31.7212 82.693 32.7436 83.3973 33.9286C83.8804 34.7323 84.2378 35.6047 84.4573 36.5157C84.5464 36.8456 84.6099 37.1818 84.6471 37.5214C84.6661 37.6674 84.6905 37.7917 84.7041 37.9269C84.7176 38.0621 84.7041 38.1648 84.7176 38.2648C84.7176 38.4649 84.7176 38.6163 84.7339 38.7271C84.7502 38.8379 84.7339 38.9001 84.7339 38.9001Z" fill="#263238"/>
<path d="M76.0375 39.0247C76.5261 38.8351 76.9321 38.4837 77.1856 38.031C77.4391 37.5783 77.5242 37.0528 77.4262 36.5449C77.3281 36.0371 77.0532 35.5789 76.6487 35.2493C76.2442 34.9196 75.7355 34.7393 75.2103 34.7393C74.6852 34.7393 74.1765 34.9196 73.772 35.2493C73.3675 35.5789 73.0925 36.0371 72.9945 36.5449C72.8964 37.0528 72.9815 37.5783 73.235 38.031C73.4885 38.4837 73.8946 38.8351 74.3831 39.0247C70.9172 39.5078 71.0743 42.9899 71.0743 42.9899L79.2719 43.0252C79.2719 43.0252 79.4731 39.5051 76.0375 39.0247Z" fill="#E0E0E0"/>
<path d="M90.6477 59.3222C90.782 59.2606 90.8959 59.1606 90.9755 59.0343C91.0552 58.908 91.0972 58.7609 91.0964 58.6108C91.1023 58.5124 91.0884 58.4139 91.0555 58.3212C91.0226 58.2286 90.9715 58.1438 90.9052 58.072C90.839 58.0002 90.759 57.9431 90.6703 57.904C90.5815 57.8649 90.4859 57.8447 90.3892 57.8447C90.2925 57.8447 90.1969 57.8649 90.1081 57.904C90.0194 57.9431 89.9394 58.0002 89.8732 58.072C89.8069 58.1438 89.7558 58.2286 89.7229 58.3212C89.69 58.4139 89.6761 58.5124 89.682 58.6108C89.679 58.7624 89.7204 58.9115 89.8007 59.0391C89.8811 59.1667 89.9969 59.2671 90.1333 59.3275C89.0443 59.4934 89.0837 60.6996 89.0837 60.6996L91.6553 60.7129C91.6553 60.7129 91.7262 59.4773 90.6477 59.3222Z" fill="#E0E0E0"/>
<path d="M113.308 90.6105H113.508C113.708 90.5977 113.907 90.5688 114.102 90.5241C114.768 90.3751 115.378 90.0437 115.864 89.5678C116.349 89.0919 116.69 88.4905 116.848 87.832C116.886 87.676 116.915 87.518 116.935 87.3587C116.935 87.194 116.955 87.0253 116.935 86.8524C116.935 86.5066 116.935 86.1444 116.935 85.7698C116.935 84.266 116.935 82.5386 116.935 80.5875C116.935 72.7666 116.914 61.4964 116.902 47.5547C116.902 40.5777 116.902 32.9421 116.902 24.7425C116.919 23.9747 116.686 23.2217 116.237 22.5957C115.788 21.9697 115.147 21.5041 114.409 21.2684C113.908 21.1173 113.383 21.0587 112.86 21.0955H92.7552H63.5579H37.2308C37.0605 21.0955 36.9027 21.0955 36.7407 21.0955C36.5798 21.1144 36.4202 21.1432 36.263 21.182C35.6278 21.3334 35.0474 21.6563 34.5862 22.1147C34.125 22.5732 33.801 23.1494 33.6502 23.7793C33.5441 24.3617 33.5093 24.9546 33.5464 25.5452V51.8891C33.5464 61.0065 33.5464 69.84 33.5464 78.3071V86.1279C33.5222 86.6338 33.5445 87.1408 33.6128 87.6427C33.7091 88.1276 33.9067 88.5872 34.1928 88.992C34.479 89.3968 34.8474 89.7377 35.2744 89.9931C35.6988 90.2475 36.1733 90.4089 36.6659 90.4664C37.1519 90.5158 37.6712 90.487 38.1696 90.4952H47.063H68.8291H68.8748L68.8997 90.5323L74.9103 99.588H74.7857L80.9625 90.5323L80.9832 90.5035H81.0165L104.843 90.6105L81.0372 90.6393L81.0913 90.6105C79.1805 93.4315 77.1271 96.4569 74.9311 99.6868L74.8688 99.7815L74.8065 99.6868L68.7834 90.6311L68.8499 90.6681H47.0838H38.1821C37.6753 90.6681 37.181 90.6887 36.6576 90.6393C35.8761 90.5507 35.1419 90.2228 34.5574 89.7011C33.9729 89.1795 33.5672 88.4901 33.3968 87.7291C33.3226 87.2153 33.2976 86.6958 33.3221 86.1773V78.3565C33.3221 69.8894 33.3221 61.0683 33.3221 51.9385V24.6808C33.3123 23.8358 33.5922 23.0126 34.1158 22.3456C34.6395 21.6787 35.3759 21.2075 36.2048 21.0091C36.3717 20.9686 36.541 20.9384 36.7116 20.9185C36.8819 20.9185 37.0564 20.9185 37.2225 20.9185H112.864C113.407 20.8837 113.951 20.9464 114.472 21.1038C114.988 21.2767 115.461 21.5575 115.859 21.927C116.255 22.2874 116.568 22.7283 116.777 23.2195C116.979 23.709 117.08 24.2341 117.072 24.7631C117.072 32.9626 117.072 40.5983 117.072 47.5753C117.072 61.5169 117.047 72.8037 117.039 80.608C117.039 82.5591 117.039 84.2866 117.039 85.7904C117.039 86.165 117.039 86.5272 117.039 86.873C117.039 87.0458 117.039 87.2187 117.018 87.3834C117 87.5457 116.971 87.7066 116.931 87.865C116.768 88.5303 116.419 89.1368 115.925 89.6151C115.43 90.0933 114.81 90.424 114.135 90.5693C113.94 90.61 113.741 90.6334 113.541 90.6393L113.308 90.6105Z" fill="#263238"/>
<path d="M75.6878 44.7109C75.5173 44.7118 75.3504 44.6624 75.2082 44.5691C75.0661 44.4758 74.9552 44.3427 74.8895 44.1869C74.8239 44.031 74.8065 43.8593 74.8396 43.6937C74.8726 43.528 74.9547 43.3758 75.0753 43.2564C75.1958 43.137 75.3495 43.0558 75.5168 43.023C75.6841 42.9903 75.8575 43.0075 76.0149 43.0725C76.1723 43.1375 76.3066 43.2473 76.4008 43.3881C76.4951 43.5288 76.5449 43.6941 76.5441 43.863C76.543 44.0876 76.4525 44.3026 76.2921 44.4614C76.1318 44.6202 75.9146 44.7099 75.6878 44.7109ZM75.6878 43.1962C75.5546 43.1962 75.4245 43.2353 75.3137 43.3086C75.203 43.3818 75.1167 43.486 75.0657 43.6078C75.0147 43.7297 75.0014 43.8637 75.0274 43.9931C75.0534 44.1224 75.1175 44.2413 75.2117 44.3345C75.3058 44.4278 75.4258 44.4913 75.5565 44.517C75.6871 44.5428 75.8225 44.5295 75.9455 44.4791C76.0686 44.4286 76.1737 44.3431 76.2477 44.2335C76.3217 44.1238 76.3612 43.9949 76.3612 43.863C76.3618 43.7753 76.3447 43.6883 76.3111 43.6072C76.2774 43.526 76.2279 43.4523 76.1652 43.3903C76.1026 43.3282 76.0281 43.2791 75.9462 43.2458C75.8642 43.2125 75.7764 43.1956 75.6878 43.1962Z" fill="white"/>
<path d="M75.749 44.5796H75.5659V46.1108H75.749V44.5796Z" fill="white"/>
<path d="M112.914 27.9122C113.317 26.0961 112.158 24.2998 110.326 23.9002C108.493 23.5006 106.68 24.6489 106.277 26.465C105.874 28.2811 107.033 30.0774 108.865 30.477C110.698 30.8767 112.511 29.7283 112.914 27.9122Z" fill="#E0E0E0"/>
<path d="M108.502 28.3864C108.488 28.3862 108.474 28.3832 108.461 28.3775C108.448 28.3718 108.437 28.3637 108.427 28.3534C108.417 28.3442 108.409 28.333 108.404 28.3207C108.398 28.3083 108.396 28.2949 108.396 28.2814C108.396 28.2679 108.398 28.2545 108.404 28.2422C108.409 28.2298 108.417 28.2186 108.427 28.2094L110.629 26.0278C110.638 26.0179 110.649 26.0101 110.662 26.0047C110.674 25.9993 110.688 25.9966 110.701 25.9966C110.715 25.9966 110.728 25.9993 110.741 26.0047C110.753 26.0101 110.765 26.0179 110.774 26.0278C110.784 26.0374 110.792 26.0489 110.797 26.0616C110.803 26.0743 110.806 26.088 110.806 26.1019C110.806 26.1157 110.803 26.1294 110.797 26.1421C110.792 26.1548 110.784 26.1664 110.774 26.176L108.572 28.3534C108.554 28.3731 108.529 28.3849 108.502 28.3864Z" fill="white"/>
<path d="M110.699 28.3864C110.672 28.3849 110.647 28.3731 110.629 28.3534L108.427 26.176C108.417 26.1664 108.409 26.1548 108.404 26.1421C108.398 26.1294 108.396 26.1157 108.396 26.1019C108.396 26.088 108.398 26.0743 108.404 26.0616C108.409 26.0489 108.417 26.0374 108.427 26.0278C108.437 26.0179 108.448 26.0101 108.46 26.0047C108.473 25.9993 108.486 25.9966 108.5 25.9966C108.514 25.9966 108.527 25.9993 108.54 26.0047C108.552 26.0101 108.563 26.0179 108.573 26.0278L110.774 28.2094C110.784 28.2186 110.792 28.2298 110.797 28.2422C110.803 28.2545 110.806 28.2679 110.806 28.2814C110.806 28.2949 110.803 28.3083 110.797 28.3207C110.792 28.333 110.784 28.3442 110.774 28.3534C110.765 28.3637 110.753 28.3718 110.74 28.3775C110.727 28.3832 110.714 28.3862 110.699 28.3864Z" fill="white"/>
<path d="M22.2074 141.163C22.2074 141.163 11.233 128.646 7.09158 116.129C2.9502 103.611 4.91496 105.048 4.91496 105.048C4.91496 105.048 10.506 117.207 14.7513 123.081C18.9965 128.955 26.5565 137.57 26.5565 137.57L22.2074 141.163Z" fill="#455A64"/>
<path d="M24.3915 106.995C24.3175 106.866 24.2002 106.767 24.06 106.715C23.9198 106.663 23.7657 106.661 23.6244 106.71C23.483 106.759 23.3635 106.855 23.2866 106.983C23.2097 107.11 23.1803 107.26 23.2035 107.406C23.8723 111.807 25.3178 122.122 25.2804 128.811C25.2098 137.504 25.2804 140.863 25.2804 140.863H29.8497C29.8497 140.863 29.0189 122.892 28.0054 117.401C27.266 113.568 25.7291 109.304 24.3915 106.995Z" fill="#455A64"/>
<path d="M26.8838 139.398C28.7984 135.1 30.065 130.547 30.643 125.884C31.0169 122.686 30.3481 118.36 29.3512 112.589C28.964 110.478 28.7708 108.337 28.7738 106.192C28.776 105.954 28.8582 105.722 29.0074 105.535C29.1566 105.347 29.3643 105.214 29.5981 105.156C29.8319 105.098 30.0784 105.119 30.2991 105.215C30.5198 105.311 30.7021 105.476 30.8175 105.686C31.3699 106.662 32.965 109.992 33.3721 112.079C34.477 117.775 35.7273 120.624 34.7719 126.033C33.8165 131.441 30.2733 139.764 30.2733 139.764L26.8838 139.398Z" fill="#455A64"/>
<path d="M30.9956 139.764C30.9956 139.764 43.0417 114.103 43.8725 110.296C44.7033 106.488 47.5487 97.7166 47.881 98.2147C48.2133 98.7128 48.7117 103.344 46.5476 108.641C44.3834 113.939 35.1038 140.546 35.1038 140.546H30.9956" fill="#455A64"/>
<path d="M25.5623 138.616C25.443 138.55 25.3304 138.473 25.2259 138.386C25.0099 138.225 24.6859 137.999 24.2912 137.682C23.4896 137.056 22.3639 136.105 21.0513 134.85C17.6659 131.539 14.7332 127.802 12.3282 123.736C9.92541 119.667 7.92637 115.377 6.35912 110.926C5.75266 109.222 5.31235 107.827 5.02574 106.859C4.8762 106.374 4.7765 105.995 4.70589 105.74C4.66192 105.606 4.62995 105.468 4.61035 105.328C4.6697 105.45 4.71834 105.577 4.75574 105.707C4.84712 105.983 4.96758 106.353 5.12127 106.814C5.43697 107.773 5.90635 109.156 6.52943 110.852C8.14352 115.27 10.158 119.534 12.5483 123.592C14.9529 127.639 17.8581 131.372 21.1966 134.706C22.4885 135.978 23.5892 136.945 24.3702 137.587C24.7565 137.916 25.0722 138.155 25.2716 138.328C25.3762 138.416 25.4734 138.512 25.5623 138.616Z" fill="#263238"/>
<path d="M26.8834 126.304C26.8208 126.058 26.7845 125.805 26.7754 125.551C26.7173 125.02 26.6425 124.316 26.5511 123.493C26.36 121.756 26.061 119.377 25.6373 116.73C25.2136 114.083 24.7359 111.733 24.3662 110.029C24.1876 109.205 24.0422 108.526 23.9259 108.004C23.8587 107.758 23.8142 107.508 23.793 107.254C23.8914 107.489 23.9692 107.731 24.0256 107.979C24.1585 108.452 24.3371 109.136 24.5448 109.988C24.9602 111.688 25.4628 114.054 25.8907 116.693C26.3185 119.331 26.5885 121.731 26.7214 123.476C26.792 124.345 26.8419 125.053 26.8627 125.535C26.8911 125.79 26.8981 126.048 26.8834 126.304Z" fill="#263238"/>
<path d="M29.7044 105.483C29.7635 105.586 29.8108 105.695 29.8456 105.809L30.207 106.764C30.369 107.175 30.5518 107.686 30.7262 108.291C30.9007 108.896 31.1416 109.571 31.3119 110.349L31.611 111.555C31.7107 111.966 31.7813 112.419 31.8727 112.876C32.0721 113.786 32.1925 114.774 32.3379 115.811C32.5975 118.068 32.6947 120.34 32.6287 122.611C32.531 124.882 32.27 127.144 31.8478 129.378C31.6276 130.399 31.4324 131.379 31.1748 132.26C31.0461 132.708 30.9422 133.149 30.8135 133.56L30.4271 134.762C30.1987 135.52 29.9162 136.182 29.6961 136.771C29.4759 137.36 29.2807 137.858 29.0688 138.257L28.6535 139.183C28.6097 139.293 28.554 139.398 28.4873 139.496C28.5154 139.381 28.5543 139.27 28.6036 139.162C28.7033 138.924 28.8321 138.611 28.9899 138.22C29.1478 137.829 29.3679 137.314 29.5715 136.717C29.775 136.121 30.0491 135.483 30.2693 134.705C30.3856 134.33 30.5061 133.935 30.6348 133.523C30.7636 133.112 30.8591 132.675 30.9796 132.227C31.2288 131.333 31.395 130.362 31.6276 129.345C32.0325 127.121 32.2851 124.873 32.3836 122.615C32.4491 120.357 32.3603 118.098 32.1178 115.852C31.9765 114.819 31.8644 113.835 31.6775 112.926C31.5902 112.473 31.5238 112.028 31.4282 111.608C31.3327 111.189 31.2371 110.785 31.1458 110.402C30.9838 109.633 30.7636 108.953 30.6016 108.344C30.4396 107.735 30.2693 107.225 30.1239 106.805L29.8124 105.837C29.7647 105.723 29.7285 105.605 29.7044 105.483Z" fill="#263238"/>
<path d="M47.7523 98.729C47.7568 98.7673 47.7568 98.806 47.7523 98.8443C47.7523 98.9348 47.719 99.0418 47.6983 99.1777C47.6443 99.4699 47.5778 99.9021 47.4615 100.454C47.2289 101.557 46.8384 103.146 46.2153 105.072C45.5923 106.999 44.7947 109.262 43.8186 111.745C42.8424 114.227 41.7167 116.935 40.645 119.816C39.5734 122.698 38.7218 125.501 37.9367 128.049C37.1517 130.597 36.4164 132.886 35.702 134.775C35.1552 136.273 34.5242 137.739 33.812 139.167C33.5669 139.673 33.3426 140.052 33.2014 140.315L33.0311 140.608C32.9937 140.673 32.9729 140.706 32.9688 140.702C32.9765 140.665 32.9905 140.628 33.0103 140.595L33.1557 140.291C33.2844 140.023 33.4921 139.636 33.7247 139.122C34.2066 138.105 34.8629 136.611 35.5441 134.713C36.2254 132.816 36.9564 130.535 37.7207 127.983C38.4851 125.431 39.3283 122.632 40.4166 119.751C41.5049 116.869 42.6264 114.157 43.6109 111.679C44.5953 109.201 45.4344 106.957 46.0575 105.039C46.6806 103.121 47.0918 101.549 47.3535 100.454C47.4864 99.9062 47.5695 99.4782 47.6401 99.1859C47.6692 99.0542 47.6983 98.9472 47.719 98.8607C47.7219 98.8152 47.7332 98.7705 47.7523 98.729Z" fill="#263238"/>
<path d="M10.596 93.0614C10.4308 92.9018 10.2164 92.8016 9.98713 92.7766C9.75781 92.7517 9.52665 92.8034 9.3304 92.9236C9.13415 93.0437 8.98409 93.2255 8.90406 93.4399C8.82404 93.6543 8.81865 93.8891 8.88875 94.1069C9.30018 95.4277 9.80544 96.7179 10.4008 97.9679C12.0623 101.454 16.9223 113.972 19.2027 120.846C21.4832 127.72 24.6733 140.546 24.6733 140.546L29.5375 139.764C29.5375 139.764 25.0887 118.71 20.7563 111.099C17.2629 104.998 13.7654 96.1815 10.596 93.0614Z" fill="#455A64"/>
<path d="M20.52 125.147C20.6269 125.329 20.7119 125.523 20.7734 125.724C20.9146 126.102 21.114 126.654 21.3342 127.341C21.7828 128.716 22.3311 130.634 22.8794 132.771C23.4277 134.907 23.8929 136.85 24.2128 138.258C24.3582 138.92 24.4786 139.493 24.5783 139.925C24.6322 140.128 24.6656 140.336 24.678 140.546C24.5912 140.355 24.5244 140.155 24.4786 139.949C24.3623 139.509 24.2128 138.957 24.0342 138.303C23.6603 136.854 23.1743 134.948 22.6302 132.841C22.086 130.733 21.5626 128.782 21.1597 127.399C20.9686 126.745 20.8066 126.197 20.6779 125.753C20.6051 125.557 20.5522 125.354 20.52 125.147Z" fill="#263238"/>
<path d="M27.1322 140.155C27.1184 140.113 27.11 140.07 27.1072 140.027C27.1072 139.924 27.074 139.801 27.0491 139.648C26.9992 139.315 26.9535 138.825 26.8497 138.187C26.6711 136.919 26.3554 135.096 25.832 132.869C25.2092 130.266 24.4493 127.696 23.5557 125.172C22.5546 122.315 21.3043 119.228 19.8879 116.034C17.0259 109.658 14.168 103.998 12.2863 99.8156C11.3393 97.7245 10.6248 96.0245 10.118 94.8349C9.87295 94.2422 9.70265 93.7771 9.57388 93.4642C9.51572 93.3202 9.47418 93.2008 9.4368 93.1061C9.41824 93.0656 9.40565 93.0226 9.39941 92.9785C9.42469 93.0144 9.4456 93.0531 9.46172 93.0938L9.61957 93.4437C9.76495 93.773 9.96018 94.2257 10.2136 94.7979C10.7245 95.971 11.4846 97.6793 12.4525 99.7374C14.3716 103.891 17.2585 109.542 20.1246 115.931C21.5411 119.129 22.7914 122.224 23.78 125.093C24.6669 127.63 25.4115 130.214 26.0106 132.832C26.4146 134.599 26.7279 136.385 26.9494 138.183C27.0366 138.817 27.0657 139.315 27.1031 139.648L27.1322 140.031C27.137 140.072 27.137 140.114 27.1322 140.155Z" fill="#263238"/>
<path d="M29.5542 139.764C29.4769 139.494 29.4214 139.219 29.3881 138.94C29.2925 138.376 29.1638 137.627 29.0101 136.726C28.6778 134.857 28.1793 132.284 27.4275 129.485C26.6756 126.686 25.8781 124.204 25.2467 122.414C24.9393 121.549 24.6818 120.837 24.4865 120.298C24.3794 120.043 24.2933 119.78 24.229 119.512C24.3676 119.751 24.4857 120.002 24.5821 120.261C24.7898 120.751 25.0847 121.463 25.4128 122.352C26.2921 124.672 27.0464 127.037 27.6725 129.436C28.3014 131.834 28.8074 134.261 29.1887 136.709C29.3258 137.648 29.4296 138.409 29.4836 138.94C29.528 139.213 29.5516 139.488 29.5542 139.764Z" fill="#263238"/>
<path d="M39.5399 139.072H20.5527V161.996H39.5399V139.072Z" fill="#2642CA"/>
<g opacity="0.3">
<path d="M39.5399 139.072H20.5527V161.996H39.5399V139.072Z" fill="black"/>
</g>
<path d="M33.48 139.072H16.6362V161.996H33.48V139.072Z" fill="#2642CA"/>
<path d="M150.498 88.0721L140.516 86.6396L120.549 89.5663L114.945 91.5297L115.938 103.673L135.137 107.176L148.089 103.372L152.986 96.2305L150.498 88.0721Z" fill="#FFBE9D"/>
<path d="M156.791 89.2333L148.434 87.2822C148.434 87.2822 142.531 105.394 127.955 104.599C116.075 103.961 115.938 90.8222 115.938 90.8222L107.377 93.5389C107.377 93.5389 104.1 115.301 107.726 130.721C108.557 134.323 109.707 139.176 109.707 139.176L108.548 161.704L171.87 161.803L156.791 89.2333Z" fill="#2642CA"/>
<g opacity="0.3">
<path d="M131.967 157.331C135.049 157.253 137.89 157.513 140.972 157.438C144.669 157.348 148.395 157.257 152.046 157.85C154.78 158.299 157.446 159.122 160.18 159.55C163.918 160.135 167.902 159.929 171.225 158.146L170.689 155.072L158.07 152.05L131.967 157.331Z" fill="black"/>
</g>
<path d="M100.228 98.6095C103.136 94.9049 107.938 93.3613 107.938 93.3613L111.178 121.306L105.043 162L84.9463 161.905C84.9463 161.905 96.0287 103.981 100.228 98.6095Z" fill="#2642CA"/>
<path d="M155.815 89.0278C155.815 89.0278 169.339 90.1022 174.191 112.079C176.384 122.011 179.176 133.648 179.961 141.473C180.538 147.145 177.427 156.028 171.72 156.756L164.542 157.711C163.134 157.912 161.702 157.861 160.313 157.559C155.781 156.526 155.329 153.443 154.498 150.15L152.421 143.597C151.274 137.365 157.135 136.188 160.371 136.274L157.958 107.827L155.815 89.0278Z" fill="#2642CA"/>
<path d="M106.264 108.9C106.232 108.999 106.211 109.102 106.201 109.205C106.168 109.427 106.122 109.724 106.064 110.09C106.039 110.283 106.006 110.502 105.973 110.732C105.94 110.963 105.923 111.222 105.894 111.498C105.836 112.045 105.769 112.671 105.74 113.366C105.644 114.993 105.633 116.624 105.707 118.252C105.806 120.244 106.005 122.229 106.305 124.2C106.617 126.304 107.007 128.288 107.406 130.083C107.805 131.877 108.191 133.487 108.532 134.837C108.872 136.187 109.159 137.269 109.362 138.019C109.462 138.377 109.541 138.665 109.603 138.879C109.626 138.981 109.659 139.08 109.703 139.175C109.694 139.072 109.674 138.97 109.645 138.871C109.595 138.648 109.528 138.36 109.445 137.998C109.258 137.22 108.997 136.133 108.673 134.8C108.349 133.466 107.975 131.836 107.597 130.041C107.219 128.247 106.824 126.267 106.517 124.172C106.21 122.076 105.994 120.055 105.902 118.24C105.811 116.425 105.807 114.758 105.902 113.375C105.923 112.679 105.977 112.058 106.023 111.506C106.042 111.232 106.063 110.976 106.085 110.74C106.11 110.51 106.135 110.296 106.156 110.098C106.197 109.732 106.23 109.436 106.251 109.209C106.265 109.107 106.27 109.003 106.264 108.9Z" fill="#263238"/>
<path d="M170.985 143.971C170.976 143.78 170.943 143.59 170.889 143.407C170.757 142.911 170.582 142.428 170.366 141.962C169.656 140.408 168.551 139.064 167.16 138.06C165.768 137.056 164.138 136.428 162.428 136.236C161.914 136.174 161.395 136.158 160.878 136.187C160.688 136.189 160.499 136.212 160.313 136.257C161.008 136.261 161.701 136.303 162.39 136.384C164.062 136.614 165.65 137.249 167.014 138.233C168.379 139.217 169.477 140.519 170.212 142.024C170.504 142.659 170.762 143.309 170.985 143.971Z" fill="#263238"/>
<path d="M167.862 133.029C167.754 133.003 167.644 132.993 167.533 133.001C167.235 132.995 166.937 133.009 166.64 133.042C165.66 133.141 164.699 133.379 163.787 133.75C162.876 134.125 162.023 134.625 161.253 135.236C161.021 135.42 160.8 135.618 160.592 135.828C160.447 135.981 160.372 136.067 160.381 136.08C160.389 136.092 160.746 135.791 161.348 135.355C162.915 134.215 164.739 133.472 166.661 133.19C167.396 133.083 167.862 133.066 167.862 133.029Z" fill="#263238"/>
<path d="M153.858 104.599C153.888 104.404 153.899 104.207 153.891 104.011C153.891 103.632 153.916 103.089 153.962 102.418C154.204 98.9084 155.174 95.4865 156.811 92.3657C157.123 91.7689 157.393 91.2914 157.588 90.9703C157.698 90.8067 157.791 90.633 157.867 90.4517C157.734 90.598 157.616 90.7565 157.513 90.925C157.297 91.2379 157.007 91.703 156.683 92.2957C154.958 95.4064 153.978 98.8679 153.817 102.413C153.792 103.088 153.792 103.648 153.817 104.015C153.81 104.21 153.824 104.406 153.858 104.599Z" fill="#263238"/>
<path d="M127.955 124.534C127.964 124.613 127.983 124.69 128.013 124.764C128.063 124.913 128.125 125.139 128.237 125.411C128.54 126.197 128.917 126.954 129.363 127.67C130.837 130.06 132.977 131.976 135.524 133.188C138.072 134.401 140.919 134.857 143.723 134.503C144.568 134.399 145.402 134.219 146.215 133.964C146.501 133.878 146.717 133.783 146.863 133.73C146.939 133.705 147.013 133.673 147.083 133.635C147.083 133.614 146.763 133.721 146.19 133.882C145.374 134.108 144.54 134.265 143.698 134.351C140.926 134.674 138.119 134.21 135.603 133.014C133.088 131.817 130.967 129.937 129.487 127.592C129.035 126.888 128.641 126.149 128.308 125.382C128.104 124.838 127.971 124.526 127.955 124.534Z" fill="#263238"/>
<path d="M156.458 155.426C156.479 155.406 156.691 155.706 157.197 156.118C157.939 156.672 158.787 157.07 159.69 157.287C161.019 157.616 162.393 157.737 163.76 157.645C165.306 157.534 167.013 157.353 168.782 157.093C170.449 156.879 172.091 156.504 173.684 155.974C174.349 155.684 174.958 155.281 175.483 154.784C175.946 154.354 176.363 153.878 176.729 153.364C177.27 152.621 177.734 151.825 178.112 150.989C178.241 150.688 178.34 150.458 178.403 150.297C178.427 150.213 178.464 150.133 178.511 150.059C178.495 150.144 178.473 150.228 178.444 150.31C178.394 150.478 178.307 150.721 178.187 151.022C177.838 151.881 177.391 152.697 176.853 153.454C176.49 153.982 176.073 154.47 175.607 154.912C175.072 155.429 174.447 155.847 173.763 156.147C172.16 156.698 170.503 157.083 168.82 157.295C167.038 157.558 165.335 157.731 163.777 157.834C162.389 157.915 160.996 157.776 159.652 157.423C158.743 157.19 157.893 156.769 157.16 156.188C156.967 156.022 156.79 155.839 156.632 155.64C156.565 155.577 156.507 155.505 156.458 155.426Z" fill="#263238"/>
<path d="M154.228 111.597C154.282 111.597 155.711 117.067 157.41 123.851C159.109 130.634 160.443 136.142 160.384 136.158C160.326 136.175 158.901 130.684 157.203 123.9C155.504 117.117 154.17 111.609 154.228 111.597Z" fill="#263238"/>
<path d="M152.504 142.584C152.46 142.437 152.436 142.284 152.434 142.131C152.392 141.721 152.382 141.308 152.405 140.896C152.452 140.268 152.662 139.663 153.015 139.138C153.215 138.827 153.448 138.537 153.709 138.274C153.998 138 154.321 137.762 154.668 137.566C155.899 136.926 157.231 136.5 158.606 136.307C159.019 136.248 159.435 136.212 159.852 136.199C160.005 136.177 160.161 136.177 160.314 136.199C160.314 136.232 159.661 136.257 158.627 136.442C157.282 136.672 155.982 137.108 154.772 137.735C154.439 137.923 154.129 138.149 153.85 138.41C153.598 138.661 153.373 138.937 153.177 139.233C152.833 139.721 152.619 140.288 152.554 140.88C152.517 141.29 152.505 141.703 152.517 142.115C152.531 142.271 152.527 142.428 152.504 142.584Z" fill="#263238"/>
<g opacity="0.3">
<path d="M106.887 127.353C103.435 121.562 103.36 114.037 106.371 108.007C105.407 114.432 105.615 120.976 106.986 127.328" fill="black"/>
</g>
<path d="M112.39 153.331C113.478 151.297 121.965 145.922 121.965 145.922L119.668 145.395L117.13 146.457C116.938 147.309 116.565 148.112 116.037 148.811C115.107 150.128 113.524 148.766 113.524 148.766L114.596 143.674L119.614 140.682C119.614 140.682 124.332 141.398 125.097 141.76L127.107 143.584C127.992 144.271 130.542 146.975 131.24 147.058C131.938 147.14 153.858 142.262 153.858 142.262C156.861 144.621 158.427 149.301 158.917 152.68C158.917 152.68 159.453 154.327 158.872 155.241L131.984 157.332L126.285 158.892C124.759 159.517 123.195 160.049 121.603 160.485C119.709 160.896 118.434 160.275 118.38 159.25C118.326 158.225 119.801 158.097 119.801 158.097C121.058 157.65 122.282 157.117 123.464 156.5C124.33 155.929 125.043 155.158 125.541 154.253L123.51 154.492C123.51 154.492 119.19 157.464 117.566 158.336C115.942 159.209 115.622 157.608 115.489 157.101C115.356 156.595 120.341 151.787 120.341 151.787C120.341 151.787 115.601 154.669 114.75 155.41C113.898 156.15 112.635 156.36 112.365 155.871C112.095 155.381 111.306 155.364 112.39 153.331Z" fill="#FFBE9D"/>
<path d="M135.76 153.8C135.784 153.692 135.792 153.581 135.785 153.471C135.79 153.341 135.781 153.212 135.76 153.084C135.743 152.913 135.711 152.743 135.664 152.578C135.394 151.616 134.926 150.721 134.289 149.947C133.669 149.171 132.973 148.457 132.212 147.815C131.914 147.533 131.587 147.282 131.236 147.066C131.513 147.367 131.807 147.651 132.117 147.918C132.84 148.585 133.512 149.304 134.127 150.071C134.75 150.824 135.223 151.687 135.523 152.615C135.739 153.331 135.718 153.804 135.76 153.8Z" fill="#EB996E"/>
<path d="M122.16 145.769C122.646 145.84 123.142 145.797 123.608 145.641C124.074 145.486 124.496 145.224 124.839 144.876C124.806 144.831 124.287 145.214 123.543 145.453C122.8 145.691 122.16 145.712 122.16 145.769Z" fill="#EB996E"/>
<path d="M120.748 151.343C122.21 150.888 123.63 150.31 124.993 149.614C124.251 149.808 123.528 150.067 122.833 150.388C122.112 150.647 121.414 150.966 120.748 151.343Z" fill="#EB996E"/>
<path d="M125.301 154.191C125.684 154.104 126.055 153.973 126.406 153.8C126.783 153.691 127.146 153.538 127.486 153.343C126.693 153.423 125.938 153.716 125.301 154.191Z" fill="#EB996E"/>
<path d="M121.458 151.713C121.762 151.922 122.042 152.165 122.289 152.438C122.49 152.749 122.652 153.084 122.771 153.434C122.796 153.434 122.821 153.298 122.771 153.084C122.72 152.806 122.604 152.543 122.43 152.319C122.258 152.094 122.035 151.913 121.778 151.792C121.591 151.701 121.458 151.693 121.458 151.713Z" fill="#EB996E"/>
<path d="M119.457 148.605C119.428 148.655 119.802 148.857 120.047 149.281C120.172 149.553 120.273 149.835 120.35 150.124C120.411 149.967 120.43 149.796 120.406 149.629C120.382 149.462 120.316 149.304 120.213 149.169C119.935 148.692 119.465 148.552 119.457 148.605Z" fill="#EB996E"/>
<path d="M120.13 143.049C120.155 143.049 120.23 142.967 120.292 142.782C120.357 142.539 120.357 142.284 120.292 142.041C120.233 141.797 120.109 141.572 119.934 141.39C119.797 141.254 119.685 141.205 119.668 141.226C119.842 141.496 119.982 141.786 120.084 142.09C120.143 142.406 120.159 142.729 120.13 143.049Z" fill="#EB996E"/>
<path d="M159.092 156.002C159.065 155.799 159.053 155.594 159.059 155.389C159.059 155.191 159.059 154.952 159.03 154.673C159.001 154.393 159.005 154.076 158.963 153.73C158.808 151.903 158.412 150.104 157.788 148.379C157.437 147.436 157.012 146.522 156.517 145.646C156.268 145.234 156.052 144.868 155.802 144.534C155.686 144.366 155.57 144.205 155.458 144.049C155.345 143.892 155.225 143.752 155.113 143.637C154.22 142.546 153.534 141.99 153.568 141.958C153.742 142.067 153.903 142.196 154.049 142.34C154.236 142.496 154.414 142.662 154.581 142.838C154.776 143.04 154.996 143.25 155.233 143.538C155.345 143.678 155.466 143.818 155.59 143.95C155.715 144.081 155.827 144.267 155.952 144.435C156.209 144.769 156.434 145.156 156.687 145.551C157.2 146.432 157.637 147.354 157.991 148.309C158.622 150.047 159.001 151.866 159.117 153.709C159.146 154.059 159.142 154.38 159.15 154.66C159.159 154.94 159.15 155.183 159.15 155.381C159.152 155.589 159.133 155.797 159.092 156.002Z" fill="#263238"/>
<g opacity="0.3">
<path d="M168.318 136.964C165.797 135.932 163.019 135.681 160.351 136.244C162.645 136.139 164.914 136.747 166.842 137.982C168.77 139.218 170.261 141.019 171.105 143.134C171.296 143.645 171.679 144.25 172.227 144.172C172.775 144.093 172.925 143.464 172.925 142.957C172.929 140.294 170.798 137.989 168.318 136.964Z" fill="black"/>
</g>
<path d="M106.089 107.015C105.965 106.993 105.845 106.953 105.732 106.896C105.503 106.81 105.184 106.666 104.793 106.484C103.774 105.98 102.801 105.39 101.885 104.719C100.973 104.051 100.12 103.307 99.335 102.496C99.0359 102.183 98.7991 101.92 98.6496 101.734C98.5001 101.549 98.417 101.438 98.4294 101.426C98.4419 101.413 98.8199 101.796 99.443 102.389C100.253 103.163 101.112 103.885 102.014 104.55C102.92 105.21 103.867 105.811 104.851 106.349C105.632 106.773 106.114 106.987 106.089 107.015Z" fill="white"/>
<path d="M154.053 108.567C154.022 108.595 153.987 108.618 153.949 108.637L153.629 108.826C153.351 108.995 152.927 109.238 152.383 109.51C150.824 110.303 149.206 110.978 147.544 111.531C145.075 112.34 142.542 112.943 139.971 113.334C136.824 113.798 133.649 114.059 130.467 114.116C127.082 114.194 123.859 114.116 120.914 114.066C118.315 114.03 115.721 113.836 113.146 113.486C111.409 113.242 109.696 112.848 108.028 112.309C107.443 112.111 106.99 111.946 106.691 111.819L106.35 111.675C106.31 111.661 106.271 111.643 106.234 111.621L106.358 111.654L106.707 111.778C107.011 111.893 107.468 112.045 108.057 112.23C109.728 112.733 111.437 113.104 113.167 113.338C115.738 113.663 118.326 113.841 120.918 113.869C123.825 113.922 127.065 113.98 130.442 113.902C133.615 113.846 136.781 113.591 139.922 113.136C142.484 112.759 145.011 112.173 147.477 111.387C149.138 110.849 150.76 110.197 152.329 109.436C152.882 109.164 153.309 108.946 153.575 108.789L153.903 108.621C154.011 108.579 154.049 108.563 154.053 108.567Z" fill="white"/>
<path d="M106.247 123.237C106.072 123.221 105.899 123.185 105.732 123.13L104.349 122.755C103.186 122.43 101.582 121.965 99.8129 121.442C98.0434 120.919 96.4483 120.429 95.2935 120.067L93.9311 119.631C93.7622 119.583 93.5981 119.519 93.4409 119.441C93.6162 119.457 93.789 119.493 93.956 119.548L95.3392 119.923C96.5023 120.248 98.1057 120.713 99.8752 121.236C101.645 121.759 103.24 122.245 104.395 122.607L105.757 123.047C105.927 123.093 106.091 123.157 106.247 123.237Z" fill="white"/>
<path d="M107.456 145.988C107.456 146.041 103.302 144.864 98.1925 143.353C93.0833 141.843 88.9751 140.571 88.9917 140.513C89.0084 140.456 93.1456 141.633 98.2548 143.148C103.364 144.662 107.472 145.93 107.456 145.988Z" fill="white"/>
<path d="M167.492 96.7661C167.352 96.9005 167.199 97.0205 167.035 97.1242C166.736 97.3424 166.287 97.647 165.726 98.0092C162.793 99.8897 159.646 101.422 156.351 102.574C155.72 102.792 155.205 102.957 154.843 103.06C154.66 103.126 154.471 103.173 154.278 103.2C154.451 103.111 154.632 103.038 154.818 102.982L156.301 102.434C157.547 101.961 159.255 101.261 161.082 100.376C162.91 99.4911 164.513 98.5773 165.652 97.8857L166.997 97.0625C167.152 96.9479 167.318 96.8486 167.492 96.7661Z" fill="white"/>
<path d="M175.766 120.154C175.55 120.275 175.325 120.381 175.093 120.471C174.657 120.664 174.009 120.919 173.203 121.212C168.991 122.732 164.568 123.604 160.089 123.797C159.23 123.834 158.536 123.842 158.054 123.825C157.806 123.831 157.557 123.82 157.311 123.793C157.557 123.756 157.805 123.739 158.054 123.743C158.532 123.743 159.225 123.702 160.081 123.644C162.306 123.504 164.519 123.22 166.707 122.792C168.892 122.357 171.047 121.782 173.157 121.072C173.967 120.796 174.62 120.561 175.068 120.393C175.294 120.293 175.527 120.214 175.766 120.154Z" fill="white"/>
<path d="M163.828 157.562C163.825 157.484 163.832 157.407 163.849 157.331C163.873 157.162 163.911 156.948 163.952 156.685C163.994 156.421 164.056 156.059 164.098 155.656C164.139 155.252 164.21 154.8 164.227 154.289C164.227 154.038 164.26 153.771 164.276 153.495C164.293 153.219 164.276 152.927 164.276 152.63C164.276 152.034 164.251 151.396 164.218 150.725C164.109 149.272 163.886 147.829 163.549 146.411C163.197 144.996 162.734 143.61 162.166 142.266C161.884 141.657 161.63 141.068 161.335 140.545C161.194 140.282 161.065 140.022 160.92 139.78L160.505 139.096C160.251 138.652 159.977 138.273 159.757 137.94C159.537 137.606 159.342 137.318 159.155 137.092L158.764 136.561C158.714 136.502 158.672 136.437 158.64 136.367C158.697 136.417 158.75 136.472 158.797 136.532L159.213 137.042C159.439 137.305 159.651 137.58 159.848 137.866C160.081 138.199 160.363 138.569 160.625 139.01L161.041 139.693C161.186 139.932 161.319 140.195 161.456 140.459C161.755 140.981 162.021 141.57 162.287 142.183C163.483 144.881 164.187 147.767 164.364 150.708C164.389 151.383 164.426 152.025 164.401 152.626C164.401 152.927 164.401 153.219 164.376 153.499C164.351 153.779 164.335 154.042 164.314 154.298C164.285 154.812 164.202 155.265 164.148 155.668C164.094 156.072 164.031 156.417 163.969 156.693C163.907 156.969 163.861 157.167 163.824 157.339C163.833 157.413 163.835 157.488 163.828 157.562Z" fill="white"/>
<path d="M179.853 144.945C179.832 144.945 179.819 144.608 179.724 144.015C179.577 143.178 179.297 142.369 178.893 141.62C178.302 140.506 177.506 139.512 176.546 138.689C175.377 137.672 174.022 136.887 172.554 136.375C171.078 135.887 169.537 135.62 167.981 135.585C166.708 135.55 165.434 135.598 164.168 135.729C163.084 135.828 162.207 135.939 161.601 136.005L160.903 136.079C160.821 136.09 160.739 136.09 160.658 136.079C160.734 136.051 160.814 136.033 160.894 136.026L161.588 135.91C162.19 135.816 163.067 135.688 164.151 135.565C165.425 135.414 166.707 135.351 167.989 135.375C169.566 135.406 171.129 135.674 172.625 136.17C174.118 136.694 175.495 137.499 176.679 138.541C177.65 139.385 178.448 140.407 179.03 141.55C179.424 142.324 179.682 143.159 179.79 144.019C179.823 144.251 179.84 144.485 179.84 144.719C179.853 144.794 179.857 144.87 179.853 144.945Z" fill="white"/>
<path d="M135.166 133.029C135.089 133.052 135.009 133.066 134.929 133.07L134.252 133.14L131.76 133.346C129.654 133.506 126.742 133.704 123.527 133.869C120.312 134.033 117.392 134.136 115.277 134.161C114.222 134.161 113.366 134.161 112.785 134.161H112.108C112.028 134.163 111.948 134.155 111.871 134.136C111.949 134.12 112.028 134.113 112.108 134.115H112.785L115.277 134.054C117.383 133.992 120.299 133.869 123.514 133.7L131.747 133.239L134.24 133.099L134.921 133.07C135 133.046 135.083 133.032 135.166 133.029Z" fill="white"/>
<g opacity="0.3">
<path d="M137.579 133.886C140.196 134.648 143.81 134.833 146.373 133.886C144.379 136.698 140.528 137.715 137.184 136.801C133.84 135.887 130.762 132.573 130.505 129.145C132.125 131.306 134.962 133.117 137.579 133.886Z" fill="black"/>
</g>
<path d="M158.802 131.173C158.733 131.198 158.662 131.217 158.59 131.23L157.988 131.358C157.46 131.465 156.7 131.605 155.753 131.77C153.863 132.099 151.242 132.502 148.338 132.856C145.435 133.21 142.789 133.441 140.861 133.573C139.906 133.638 139.129 133.684 138.593 133.704L137.979 133.725C137.907 133.737 137.834 133.737 137.763 133.725C137.832 133.707 137.903 133.696 137.975 133.692L138.589 133.63L140.849 133.429C142.76 133.26 145.393 133.017 148.301 132.651C151.209 132.284 153.821 131.918 155.716 131.63L157.959 131.284L158.573 131.198C158.648 131.176 158.725 131.168 158.802 131.173Z" fill="white"/>
<g opacity="0.3">
<path d="M154.449 112.848C153.792 120.299 155.84 127.691 157.871 134.895C157.962 135.342 158.152 135.764 158.428 136.13C158.571 136.312 158.769 136.444 158.994 136.506C159.218 136.567 159.457 136.555 159.674 136.471C160.31 136.15 160.222 135.236 160.044 134.561L154.399 113.157" fill="black"/>
</g>
<path d="M49.2731 120.269L57.8092 161.802H131.914C132.306 161.802 132.682 161.648 132.959 161.373C133.237 161.098 133.393 160.725 133.393 160.337C133.393 159.948 133.237 159.575 132.959 159.3C132.682 159.026 132.306 158.871 131.914 158.871H116.993L109.08 120.244C109.006 119.885 108.81 119.561 108.524 119.327C108.238 119.094 107.88 118.964 107.51 118.96L50.8765 118.347C50.6351 118.344 50.3961 118.394 50.177 118.495C49.958 118.595 49.7644 118.743 49.6106 118.928C49.4568 119.112 49.3467 119.328 49.2882 119.56C49.2298 119.793 49.2247 120.035 49.2731 120.269Z" fill="#E0E0E0"/>
<path d="M49.2727 120.269C49.2618 120.228 49.2534 120.187 49.2478 120.145C49.2319 120.02 49.2319 119.892 49.2478 119.767C49.2771 119.519 49.363 119.28 49.499 119.07C49.6351 118.859 49.8176 118.683 50.0329 118.552C50.1847 118.463 50.3503 118.399 50.523 118.363C50.7147 118.328 50.9099 118.315 51.1046 118.326H52.4379L55.761 118.355L77.1741 118.557L92.103 118.705L100.469 118.791L104.855 118.836L107.094 118.857C107.285 118.857 107.464 118.857 107.667 118.857C107.867 118.876 108.061 118.932 108.241 119.022C108.611 119.194 108.906 119.494 109.071 119.865C109.144 120.047 109.195 120.236 109.225 120.429L109.341 120.989C109.416 121.36 109.495 121.734 109.57 122.109C109.728 122.862 109.881 123.619 110.039 124.377L110.986 128.999C111.626 132.114 112.28 135.301 112.947 138.561C114.284 145.073 115.676 151.845 117.101 158.826L117.001 158.743H131.672C131.866 158.734 132.059 158.745 132.25 158.776C132.647 158.874 132.992 159.118 133.214 159.46C133.34 159.641 133.426 159.847 133.466 160.063C133.507 160.28 133.501 160.502 133.45 160.717C133.398 160.931 133.301 161.132 133.166 161.307C133.031 161.482 132.86 161.626 132.665 161.732C132.45 161.847 132.211 161.91 131.967 161.917H112.664H92.6014H57.8089H57.7466V161.855C55.1338 149.095 53.0112 138.705 51.5407 131.51C50.8138 127.913 50.2447 125.114 49.8584 123.212C49.6673 122.261 49.522 121.537 49.443 121.047C49.3641 120.557 49.3059 120.306 49.3059 120.306C49.3059 120.306 49.3641 120.557 49.4679 121.043L49.9249 123.2C50.3195 125.101 50.901 127.9 51.6487 131.49L57.921 161.826L57.8421 161.761H92.6347H131.996C132.208 161.752 132.415 161.698 132.603 161.6C132.773 161.508 132.921 161.381 133.038 161.229C133.155 161.076 133.239 160.901 133.284 160.714C133.328 160.528 133.333 160.334 133.297 160.145C133.262 159.957 133.186 159.778 133.076 159.62C132.881 159.336 132.584 159.137 132.246 159.064C132.069 159.036 131.889 159.025 131.71 159.031H116.91V158.953C115.481 151.956 114.098 145.197 112.756 138.685C112.088 135.43 111.436 132.243 110.799 129.123L109.827 124.439C109.674 123.677 109.52 122.924 109.366 122.171C109.287 121.796 109.213 121.421 109.134 121.047L109.022 120.491C108.994 120.309 108.946 120.131 108.876 119.96C108.737 119.632 108.486 119.364 108.166 119.203C108.005 119.124 107.833 119.074 107.655 119.055C107.48 119.055 107.281 119.055 107.098 119.055L104.855 119.03L100.469 118.98L92.1071 118.882L77.1782 118.709L55.7652 118.45L52.4421 118.404L51.1087 118.384C50.9172 118.372 50.7249 118.382 50.5355 118.412C50.3677 118.45 50.2066 118.512 50.0578 118.598C49.8439 118.722 49.6618 118.894 49.5256 119.1C49.3895 119.305 49.3029 119.539 49.2727 119.783C49.2519 119.944 49.2519 120.108 49.2727 120.269Z" fill="#263238"/>
<path d="M83.4176 139.29C83.4176 139.77 83.2741 140.238 83.0053 140.637C82.7365 141.036 82.3544 141.347 81.9073 141.53C81.4602 141.714 80.9683 141.762 80.4937 141.668C80.0191 141.575 79.5832 141.344 79.241 141.005C78.8988 140.665 78.6658 140.233 78.5714 139.763C78.477 139.293 78.5255 138.805 78.7107 138.362C78.8958 137.919 79.2094 137.541 79.6118 137.274C80.0141 137.008 80.4871 136.866 80.971 136.866C81.6199 136.866 82.2422 137.121 82.701 137.576C83.1599 138.031 83.4176 138.647 83.4176 139.29Z" fill="white"/>
<path d="M49.3389 120.606C49.3389 120.606 49.4261 120.606 49.5964 120.606H53.2269L63.8233 120.655L98.7779 120.898L103.833 120.939H105.079C105.292 120.93 105.505 120.942 105.715 120.976C105.928 121.018 106.131 121.099 106.313 121.215C106.683 121.447 106.952 121.809 107.065 122.228C107.16 122.639 107.227 123.018 107.31 123.413C107.937 126.542 108.556 129.559 109.117 132.432C110.263 138.195 111.298 143.361 112.162 147.711L114.201 158.002C114.434 159.216 114.616 160.159 114.745 160.805C114.803 161.122 114.849 161.365 114.882 161.538C114.916 161.711 114.92 161.785 114.92 161.785C114.92 161.785 114.895 161.702 114.862 161.542C114.828 161.381 114.77 161.13 114.704 160.813C114.571 160.167 114.376 159.229 114.122 158.018C113.624 155.582 112.909 152.066 112.02 147.728L108.93 132.457C108.352 129.575 107.742 126.566 107.115 123.438C107.032 123.051 106.957 122.648 106.874 122.269C106.771 121.899 106.532 121.581 106.205 121.376C106.042 121.278 105.861 121.21 105.673 121.178C105.477 121.146 105.278 121.135 105.079 121.145H103.833L98.7779 121.108L63.8192 120.804L53.2269 120.688L50.3441 120.647H49.5964L49.3389 120.606Z" fill="#263238"/>
<path d="M148.305 57.5303C148.39 61.3705 147.654 65.1852 146.145 68.7233C144.636 72.2614 142.388 75.4427 139.548 78.0579C138.239 74.3122 136.933 70.5664 135.631 66.8206" fill="#263238"/>
<path d="M118.796 35.1786C122.156 33.3592 126.214 33.0958 129.969 33.8408C133.724 34.5859 137.222 36.2694 140.537 38.1711C142.398 39.2372 144.25 40.4104 145.588 42.0733C148.026 45.1152 150.439 50.1123 150.672 54.0104C150.863 57.147 149.65 64.9966 148.313 67.845C147.087 70.4589 141.343 72.4511 138.506 73.0974L112.486 43.09C112.956 41.4228 113.756 39.8649 114.839 38.5068C115.923 37.1486 117.267 36.0173 118.796 35.1786Z" fill="#263238"/>
<path d="M114.309 39.2203L120.54 38.1172C117.129 46.1644 116.203 64.564 114.255 73.0764C111.954 69.7834 106.616 59.6986 106.903 55.6935C107.189 51.6884 106.919 38.5412 114.309 39.2203Z" fill="#263238"/>
<path d="M143.889 52.6147C143.552 47.914 140.478 44.0612 135.872 42.8963L121.504 39.2658C115.298 38.6031 111.152 46.1687 110.745 52.3431C110.292 59.2048 110.014 66.4412 110.824 71.5618C112.448 81.8523 120.407 83.186 120.407 83.186C120.407 83.186 120.407 88.0843 120.407 91.0892L125.213 110.81L140.703 89.6032L143.909 52.7464C143.922 52.5653 143.889 52.8493 143.889 52.6147Z" fill="#FFBE9D"/>
<path d="M113.865 60.1192C113.862 60.4634 113.994 60.7953 114.234 61.0444C114.473 61.2935 114.802 61.44 115.149 61.4529C115.318 61.4663 115.489 61.446 115.65 61.3932C115.812 61.3403 115.961 61.256 116.089 61.1451C116.217 61.0343 116.322 60.8992 116.396 60.7477C116.471 60.5963 116.514 60.4316 116.524 60.2633C116.527 59.9198 116.396 59.5885 116.157 59.3395C115.918 59.0906 115.591 58.9435 115.244 58.9296C115.075 58.9156 114.904 58.9355 114.742 58.9881C114.58 59.0407 114.43 59.1249 114.301 59.2358C114.173 59.3467 114.068 59.482 113.993 59.6338C113.918 59.7855 113.875 59.9506 113.865 60.1192Z" fill="#263238"/>
<path d="M112.319 56.3724C112.486 56.5452 113.495 55.8084 114.928 55.8125C116.361 55.8167 117.42 56.5329 117.566 56.36C117.645 56.2818 117.474 55.9731 117.017 55.6397C116.398 55.2128 115.661 54.9857 114.907 54.9893C114.162 54.9867 113.436 55.2172 112.83 55.6479C112.373 55.9854 112.224 56.2941 112.319 56.3724Z" fill="#263238"/>
<path d="M126.36 60.1194C126.357 60.4636 126.489 60.7955 126.729 61.0446C126.969 61.2937 127.297 61.4402 127.644 61.4531C127.814 61.4671 127.985 61.4471 128.147 61.3942C128.309 61.3413 128.459 61.2566 128.587 61.1453C128.715 61.0339 128.82 60.898 128.894 60.7458C128.968 60.5936 129.011 60.4282 129.019 60.2594C129.022 59.9159 128.891 59.5846 128.652 59.3356C128.413 59.0866 128.086 58.9396 127.739 58.9257C127.569 58.9117 127.398 58.9317 127.236 58.9846C127.074 59.0374 126.924 59.122 126.795 59.2333C126.666 59.3447 126.562 59.4805 126.487 59.6327C126.412 59.7849 126.369 59.9504 126.36 60.1194Z" fill="#263238"/>
<path d="M125.915 56.3723C126.081 56.5452 127.095 55.8084 128.528 55.8125C129.961 55.8166 131.02 56.5329 131.166 56.36C131.24 56.2818 131.074 55.973 130.617 55.6396C130.001 55.2166 129.269 54.9898 128.52 54.9893C127.775 54.9881 127.048 55.2184 126.443 55.6479C125.986 55.9854 125.836 56.2941 125.915 56.3723Z" fill="#263238"/>
<path d="M121.458 67.5272C121.458 67.449 120.574 67.2926 119.128 67.1156C118.763 67.0785 118.418 67.0044 118.356 66.7575C118.325 66.3825 118.412 66.0074 118.605 65.6831C118.951 64.8077 119.314 63.8871 119.693 62.9211C121.205 58.9942 122.298 55.763 122.14 55.7054C121.982 55.6477 120.624 58.7802 119.112 62.703C118.746 63.6689 118.399 64.5937 118.069 65.4773C117.837 65.9147 117.768 66.4188 117.874 66.9015C117.926 67.0298 118.008 67.1443 118.113 67.2364C118.217 67.3285 118.341 67.3955 118.476 67.4325C118.677 67.4899 118.886 67.519 119.095 67.519C120.528 67.6013 121.429 67.6095 121.458 67.5272Z" fill="#263238"/>
<path d="M134.185 79.5186C134.185 79.5186 130.804 86.6026 120.411 85.6023V83.182C125.256 83.2481 130.025 81.9798 134.185 79.5186Z" fill="#EB996E"/>
<path d="M126.368 51.2397C126.509 51.6266 127.938 51.4455 129.621 51.6513C131.303 51.8571 132.661 52.314 132.886 51.9683C132.985 51.7995 132.748 51.4373 132.2 51.0627C131.472 50.6005 130.643 50.3182 129.783 50.2395C128.923 50.1353 128.05 50.234 127.236 50.5276C126.617 50.754 126.306 51.0545 126.368 51.2397Z" fill="#263238"/>
<path d="M112.773 52.0269C113.022 52.3521 114.019 52.0269 115.199 52.0064C116.378 51.9858 117.392 52.2286 117.624 51.8911C117.724 51.7265 117.566 51.4054 117.13 51.0967C116.54 50.7305 115.854 50.5456 115.159 50.5654C114.463 50.5852 113.789 50.8087 113.221 51.2078C112.798 51.5371 112.661 51.8705 112.773 52.0269Z" fill="#263238"/>
<path d="M113.566 42.9383C114.201 41.3906 115.917 40.4685 117.599 40.378C119.281 40.2874 120.922 40.9254 122.392 41.761C128.577 45.3051 131.759 53.8628 137.87 57.5303C139.373 58.4318 141.33 57.6044 142.609 58.7981C143.889 59.9918 144.715 61.9018 144.009 63.4947C144.885 62.4175 145.599 61.2212 146.132 59.9424C146.597 58.6376 146.655 57.1269 145.957 55.9291C145.43 55.0194 144.495 54.3279 144.242 53.3112C144.013 52.4138 144.37 51.4795 144.333 50.5574C144.227 49.6204 143.901 48.7211 143.382 47.9313C140.985 43.7368 137.691 39.9416 133.45 37.5789C130.681 35.9947 127.529 35.1879 124.332 35.245C121.117 35.3164 118.034 36.527 115.642 38.6574C114.276 39.9211 112.839 41.2259 113.566 42.9383Z" fill="#263238"/>
<path d="M142.46 60.0739C142.568 59.7776 147.989 57.8429 148.06 63.548C148.13 69.0926 142.485 68.0018 142.473 67.8413C142.46 67.6807 142.46 60.0739 142.46 60.0739Z" fill="#FFBE9D"/>
<path d="M144.179 65.725C144.204 65.725 144.275 65.7909 144.441 65.8649C144.676 65.9575 144.937 65.9575 145.172 65.8649C145.758 65.6468 146.248 64.7083 146.264 63.7122C146.276 63.236 146.179 62.7634 145.982 62.3291C145.927 62.1567 145.83 62 145.701 61.8725C145.571 61.7449 145.413 61.6502 145.238 61.5964C145.127 61.5676 145.009 61.5787 144.905 61.6276C144.801 61.6765 144.717 61.7602 144.669 61.864C144.595 62.0204 144.632 62.1315 144.599 62.1398C144.565 62.148 144.478 62.0492 144.524 61.8187C144.554 61.6826 144.631 61.5607 144.74 61.4729C144.815 61.4144 144.901 61.3711 144.993 61.3457C145.085 61.3203 145.181 61.3131 145.276 61.3247C145.506 61.3673 145.722 61.468 145.902 61.6173C146.081 61.7666 146.219 61.9593 146.302 62.1768C146.546 62.6531 146.668 63.1821 146.655 63.7163C146.63 64.8359 146.065 65.8855 145.255 66.1243C145.106 66.1691 144.949 66.1802 144.795 66.1567C144.641 66.1332 144.494 66.0757 144.366 65.9884C144.187 65.8608 144.158 65.7373 144.179 65.725Z" fill="#EB996E"/>
<path d="M144.686 57.2253C144.569 57.1733 144.456 57.1113 144.35 57.04C144.134 56.9042 143.801 56.7231 143.411 56.4473C142.308 55.6485 141.294 54.735 140.387 53.7224C139.068 52.207 137.835 50.6198 136.694 48.9681C135.32 46.944 133.776 45.0383 132.079 43.2712C131.173 42.3884 130.173 41.6058 129.097 40.9373C128.088 40.3279 127.008 39.8414 125.882 39.4884C123.969 38.8805 121.958 38.6361 119.954 38.7681C118.602 38.8498 117.267 39.1086 115.983 39.5378C115.522 39.6778 115.181 39.8301 114.945 39.9206C114.827 39.9741 114.705 40.0168 114.579 40.0482C114.69 39.9825 114.805 39.9247 114.924 39.8753C115.257 39.7174 115.6 39.5799 115.95 39.4637C117.232 38.9907 118.577 38.7024 119.942 38.6075C121.969 38.4431 124.01 38.6667 125.952 39.2661C127.101 39.6168 128.202 40.1062 129.23 40.7233C130.322 41.4016 131.338 42.1952 132.258 43.0901C133.966 44.8747 135.514 46.8028 136.885 48.8529C138.014 50.5047 139.228 52.0972 140.524 53.6236C141.413 54.6381 142.399 55.5645 143.469 56.3897C143.851 56.6737 144.171 56.8672 144.375 57.0153C144.484 57.0767 144.588 57.1469 144.686 57.2253Z" fill="#455A64"/>
<path d="M144.816 66.7041C145.091 66.6538 145.375 66.7094 145.611 66.8595C145.846 67.0097 146.015 67.2432 146.083 67.5124C146.151 67.7816 146.113 68.0664 145.976 68.3086C145.84 68.5509 145.615 68.7325 145.348 68.8165C145.081 68.9005 144.792 68.8805 144.54 68.7606C144.287 68.6407 144.09 68.4299 143.989 68.1712C143.888 67.9125 143.89 67.6252 143.995 67.368C144.1 67.1107 144.3 66.9027 144.554 66.7864" fill="white"/>
<path d="M144.554 66.787C144.314 66.9789 144.139 67.2388 144.051 67.532C144.012 67.6832 144.011 67.8418 144.048 67.9934C144.086 68.1451 144.161 68.285 144.267 68.4006C144.392 68.5465 144.558 68.6526 144.743 68.7056C144.929 68.7587 145.126 68.7562 145.31 68.6986C145.494 68.6411 145.657 68.5309 145.778 68.3819C145.9 68.2329 145.974 68.0519 145.991 67.8613C146.008 67.7076 145.987 67.5521 145.929 67.4086C145.871 67.265 145.778 67.1378 145.659 67.0381C145.422 66.8496 145.132 66.7376 144.828 66.717C144.828 66.717 144.911 66.6594 145.09 66.6553C145.343 66.6573 145.589 66.7427 145.788 66.8981C145.943 67.0123 146.066 67.1645 146.145 67.3397C146.224 67.515 146.255 67.7075 146.236 67.8984C146.221 68.1372 146.133 68.3657 145.984 68.5541C145.835 68.7425 145.632 68.8821 145.402 68.9545C145.172 69.027 144.925 69.029 144.694 68.9603C144.462 68.8916 144.257 68.7553 144.105 68.5693C143.98 68.4244 143.894 68.2498 143.856 68.0623C143.818 67.8748 143.83 67.6808 143.889 67.4991C143.956 67.2592 144.102 67.0487 144.305 66.9022C144.45 66.7911 144.55 66.7746 144.554 66.787Z" fill="#263238"/>
<path d="M143.278 58.7938C143.365 60.3086 143.436 61.9057 142.729 63.2517C142.023 64.5977 140.237 65.5156 138.916 64.7623C137.832 64.149 137.508 62.7701 137.321 61.5476C136.794 58.0158 136.549 54.447 135.988 50.9194L143.278 58.7938Z" fill="#263238"/>
<path d="M114.945 40.3025C114.945 40.3314 115.44 40.2079 116.333 40.1791C117.6 40.1599 118.859 40.3879 120.038 40.85C120.851 41.1621 121.628 41.5595 122.356 42.0355C123.19 42.5903 123.989 43.1951 124.748 43.8466C126.508 45.3216 128.082 47.0023 129.434 48.852C130.144 49.8399 130.776 50.8566 131.457 51.7992C132.104 52.7157 132.857 53.5542 133.7 54.2977C135.151 55.5161 136.737 56.567 138.427 57.4302C139.86 58.1794 141.056 58.7062 141.883 59.0767L142.838 59.4883C142.948 59.5417 143.064 59.5831 143.183 59.6118C143.085 59.5412 142.979 59.4818 142.867 59.4348L141.933 58.9779C141.102 58.5663 139.943 58.0229 138.535 57.2532C136.875 56.3675 135.318 55.3047 133.891 54.0837C133.068 53.348 132.334 52.5191 131.706 51.614C131.037 50.6837 130.41 49.667 129.691 48.6667C128.324 46.7973 126.728 45.1035 124.939 43.6243C124.164 42.971 123.348 42.3662 122.497 41.8132C121.749 41.3374 120.951 40.944 120.117 40.6401C118.909 40.1864 117.619 39.9873 116.329 40.0556C115.98 40.0757 115.634 40.1239 115.294 40.1996C115.174 40.2179 115.056 40.2526 114.945 40.3025Z" fill="#455A64"/>
<path d="M143.433 55.3689C143.584 55.4975 143.75 55.6081 143.927 55.6982L145.348 56.5215L145.821 56.789C146.008 56.9012 146.218 56.9701 146.436 56.9907C146.568 57.005 146.701 56.9745 146.814 56.9043C146.874 56.8625 146.924 56.8079 146.96 56.7445C146.996 56.6811 147.017 56.6105 147.022 56.5379C147.009 56.2835 146.918 56.0391 146.76 55.8382L145.098 53.2285L144.874 53.4302C145.971 54.2308 147.315 54.6281 148.675 54.5539C148.849 54.5526 149.021 54.5234 149.186 54.4675C149.278 54.4376 149.362 54.3888 149.434 54.3243C149.505 54.2597 149.562 54.1809 149.601 54.0929C149.633 53.999 149.641 53.8988 149.624 53.8011C149.608 53.7034 149.567 53.6114 149.506 53.5331C149.413 53.4069 149.307 53.291 149.19 53.1873C148.451 52.4796 147.81 51.6782 147.283 50.804C146.819 49.9828 146.413 49.1299 146.07 48.252C146.096 48.507 146.156 48.7575 146.249 48.997C146.458 49.6632 146.736 50.306 147.08 50.9152C147.59 51.8229 148.228 52.6545 148.974 53.3849C149.182 53.5825 149.389 53.7965 149.31 53.9818C149.231 54.167 148.924 54.2452 148.629 54.2452C147.989 54.2771 147.349 54.2005 146.735 54.0188C146.123 53.8409 145.546 53.5626 145.028 53.1955L144.363 52.7098L144.808 53.3972L146.469 55.9864C146.599 56.1413 146.681 56.3299 146.706 56.5297C146.706 56.6861 146.565 56.7767 146.386 56.7643C146.027 56.6942 145.685 56.5543 145.381 56.3527L143.919 55.6118C143.766 55.5141 143.603 55.4327 143.433 55.3689Z" fill="#455A64"/>
<path d="M128.265 70.3938C128.14 69.897 127.841 69.4587 127.419 69.1556C126.998 68.8525 126.481 68.7039 125.959 68.7357C125.577 68.7814 125.214 68.9192 124.9 69.1368C124.587 69.3543 124.334 69.6447 124.164 69.9817C123.998 70.3207 123.903 70.689 123.885 71.0646C123.867 71.4403 123.927 71.8156 124.06 72.1683L124.099 72.3234C124.456 72.6986 124.922 72.9572 125.434 73.064C125.946 73.1707 126.479 73.1203 126.96 72.9198C127.432 72.698 127.816 72.3302 128.051 71.8734C128.287 71.4166 128.362 70.8965 128.265 70.3938Z" fill="#EB996E"/>
<path d="M129.672 69.844C129.588 70.1541 127.514 69.5011 125.471 70.7862C123.427 72.0713 122.951 74.3347 122.656 74.2565C122.523 74.2213 122.409 73.6414 122.688 72.7058C123.06 71.4998 123.85 70.4626 124.918 69.7768C125.948 69.1177 127.196 68.8808 128.399 69.1161C129.275 69.3104 129.729 69.7057 129.672 69.844Z" fill="#263238"/>
<path d="M171.187 159.048C171.156 159.052 171.124 159.052 171.092 159.048L170.801 159.077L169.692 159.167C168.728 159.245 167.333 159.336 165.605 159.439C162.153 159.641 157.38 159.851 152.105 159.937C146.829 160.023 142.044 159.974 138.588 159.883C136.86 159.842 135.46 159.793 134.497 159.752L133.383 159.694H134.497L138.592 159.764C142.048 159.813 146.825 159.838 152.101 159.764C157.376 159.69 162.145 159.492 165.596 159.328L169.688 159.126L170.801 159.077H171.088L171.187 159.048Z" fill="white"/>
<path d="M159.995 38.6579C149.866 37.381 142.7 28.2096 143.989 18.1728C145.277 8.13609 154.532 1.03479 164.661 2.31162C174.789 3.58846 181.955 12.7599 180.667 22.7967C179.378 32.8334 170.123 39.9347 159.995 38.6579Z" fill="white"/>
<path d="M180.886 20.3839C180.886 20.3839 180.886 20.2827 180.886 20.0853C180.886 19.8879 180.886 19.5792 180.85 19.2198L180.825 18.577C180.825 18.3442 180.759 18.0709 180.718 17.8128C180.677 17.5547 180.637 17.2358 180.586 16.9169C180.53 16.5752 180.454 16.2371 180.357 15.9047C179.941 14.1841 179.263 12.537 178.347 11.0205C177.147 8.99902 175.566 7.22715 173.69 5.80229L172.896 5.21011C172.616 5.02791 172.321 4.86088 172.031 4.70398C171.741 4.54708 171.451 4.32945 171.13 4.19785L170.179 3.74233L169.67 3.50951L169.161 3.32224L168.143 2.94265C167.792 2.82623 167.421 2.75032 167.059 2.64909C166.693 2.54446 166.321 2.45998 165.945 2.39603C165.175 2.25334 164.396 2.16203 163.614 2.12271C163.212 2.12271 162.815 2.06704 162.408 2.0721L161.187 2.13284C160.983 2.13284 160.779 2.13284 160.571 2.17333L159.955 2.26443C159.548 2.33023 159.131 2.38084 158.713 2.46182C157.88 2.64915 157.059 2.88748 156.255 3.17546C155.429 3.46945 154.625 3.82125 153.848 4.22822C153.456 4.43573 153.08 4.67868 152.698 4.90644C152.505 5.02791 152.306 5.12913 152.123 5.26579L151.584 5.67069C150.845 6.21164 150.145 6.8018 149.487 7.43709L148.546 8.44935L148.311 8.70748L148.098 8.98586L147.675 9.54765L147.253 10.1095L146.876 10.7168L146.505 11.3242L146.322 11.6279L146.164 11.9467C145.955 12.3769 145.747 12.8122 145.533 13.2424C145.319 13.6726 145.202 14.1484 145.024 14.6039C143.748 18.3615 143.748 22.4317 145.024 26.1892C145.192 26.6448 145.355 27.1003 145.533 27.5507L146.159 28.8464L146.317 29.1653L146.505 29.469L146.876 30.0814L147.248 30.6837L147.675 31.2455L148.098 31.8124L148.311 32.0907L148.546 32.3489L149.487 33.3611C150.146 33.9937 150.844 34.5837 151.579 35.1275L152.123 35.5324C152.306 35.664 152.505 35.7703 152.693 35.8867C153.08 36.1145 153.456 36.3625 153.843 36.57C154.623 36.9724 155.429 37.3224 156.255 37.6177C157.059 37.911 157.882 38.1494 158.718 38.3313C159.131 38.4174 159.548 38.4629 159.96 38.5287L160.571 38.6249C160.779 38.6502 160.983 38.6502 161.192 38.6603L162.408 38.7211C162.815 38.7211 163.217 38.6856 163.614 38.6755C164.396 38.6348 165.175 38.5418 165.945 38.3971C166.321 38.3362 166.694 38.2516 167.059 38.1441C167.426 38.0428 167.792 37.9669 168.143 37.8505L169.161 37.4709L169.67 37.2887L170.179 37.0559L171.136 36.5953C171.451 36.4485 171.736 36.2461 172.031 36.0892C172.326 35.9323 172.616 35.745 172.896 35.5577L173.69 34.9656C175.569 33.5421 177.152 31.77 178.352 29.7474C179.267 28.2305 179.943 26.5834 180.357 24.8632C180.454 24.5309 180.531 24.1928 180.586 23.8509C180.637 23.5321 180.677 23.2334 180.718 22.9601C180.759 22.6868 180.805 22.454 180.825 22.1908C180.845 21.9276 180.825 21.7454 180.85 21.5531C180.85 21.1735 180.876 20.885 180.886 20.6825C180.896 20.4801 180.886 20.389 180.886 20.389C180.886 20.389 180.886 20.4902 180.861 20.6825C180.835 20.8749 180.825 21.1887 180.805 21.548C180.805 21.7404 180.779 21.9529 180.764 22.1857C180.749 22.4186 180.693 22.6919 180.652 22.95C180.611 23.2081 180.56 23.5219 180.51 23.8357C180.459 24.1495 180.352 24.4836 180.27 24.848C179.84 26.555 179.154 28.1878 178.235 29.6917C177.031 31.6916 175.452 33.4426 173.583 34.8492L172.795 35.4312C172.52 35.6134 172.225 35.7804 171.935 35.9373C171.646 36.1209 171.349 36.2898 171.044 36.4435L170.097 36.8939L169.589 37.1217L169.08 37.309L168.062 37.6784C167.711 37.7948 167.344 37.8708 166.983 37.9669C166.62 38.071 166.251 38.1538 165.879 38.2149C165.117 38.3562 164.347 38.4458 163.573 38.4832C163.176 38.4832 162.779 38.5338 162.383 38.5287L161.171 38.4629C160.973 38.4629 160.764 38.4629 160.566 38.4275L159.955 38.3313C159.548 38.2655 159.136 38.22 158.729 38.1339C157.901 37.9513 157.087 37.7146 156.291 37.4254C155.476 37.1326 154.682 36.7842 153.914 36.3827C153.528 36.1752 153.156 35.9323 152.775 35.7096C152.591 35.5881 152.388 35.4869 152.215 35.3553L151.675 34.9554C150.948 34.4167 150.256 33.8317 149.604 33.2042L148.678 32.192L148.444 31.9389L148.235 31.6605L147.818 31.1038L147.395 30.547L147.029 29.9498L146.663 29.3475L146.479 29.0489L146.322 28.73C146.118 28.3049 145.909 27.8797 145.706 27.4495C145.502 27.0193 145.375 26.5537 145.197 26.1083C144.6 24.2555 144.284 22.3244 144.261 20.3789C144.283 18.4345 144.601 16.5047 145.202 14.6545L145.711 13.3133C145.92 12.8831 146.123 12.4579 146.332 12.0328L146.485 11.7139L146.668 11.4153L147.039 10.813L147.406 10.2158L147.823 9.659L148.24 9.10226L148.449 8.82895L148.683 8.57083L149.609 7.55856C150.261 6.93269 150.953 6.34942 151.68 5.81241L152.22 5.41257C152.398 5.27591 152.596 5.17468 152.78 5.05827C153.161 4.83051 153.533 4.59263 153.92 4.38006C155.442 3.59381 157.06 3.00688 158.734 2.6339C159.141 2.54786 159.553 2.50231 159.96 2.43146L160.566 2.34035C160.769 2.31504 160.973 2.31504 161.176 2.29986L162.388 2.23912C162.785 2.23912 163.181 2.26949 163.573 2.28468C164.349 2.31921 165.121 2.40885 165.884 2.55293C166.257 2.60978 166.626 2.69266 166.988 2.80093C167.349 2.89709 167.716 2.97302 168.067 3.08437L169.085 3.4589L169.594 3.64111L170.103 3.86887L171.049 4.31932C171.365 4.4661 171.644 4.66855 171.94 4.82545C172.235 4.98235 172.52 5.16456 172.8 5.33158L173.588 5.9187C175.457 7.32562 177.036 9.07652 178.24 11.0762C179.158 12.5788 179.844 14.2098 180.275 15.9148C180.357 16.2691 180.474 16.593 180.515 16.927C180.555 17.2611 180.611 17.5395 180.657 17.8178C180.703 18.0962 180.744 18.324 180.769 18.577C180.794 18.8301 180.8 19.0275 180.81 19.2148L180.866 20.0802C180.871 20.2827 180.886 20.3839 180.886 20.3839Z" fill="#263238"/>
<path d="M155.644 41.7433C155.645 42.2795 155.485 42.8038 155.185 43.25C154.885 43.6962 154.458 44.0441 153.959 44.2497C153.459 44.4553 152.909 44.5093 152.378 44.405C151.848 44.3006 151.36 44.0425 150.977 43.6634C150.595 43.2843 150.334 42.8012 150.229 42.2753C150.124 41.7494 150.178 41.2043 150.386 40.7092C150.593 40.214 150.944 39.791 151.395 39.4937C151.845 39.1964 152.374 39.0382 152.915 39.0391C153.638 39.0403 154.332 39.3256 154.843 39.8325C155.355 40.3393 155.643 41.0265 155.644 41.7433Z" fill="white"/>
<path d="M155.63 41.7478C155.637 41.6928 155.637 41.6371 155.63 41.5821C155.632 41.4193 155.613 41.257 155.575 41.0985C155.441 40.5061 155.1 39.9788 154.613 39.6076C154.278 39.3482 153.884 39.1716 153.465 39.0926C153.014 39.0026 152.546 39.0263 152.106 39.1615C151.666 39.2968 151.267 39.5392 150.947 39.8664C150.627 40.1937 150.395 40.5952 150.274 41.0339C150.152 41.4727 150.145 41.9346 150.252 42.377C150.359 42.8194 150.577 43.2281 150.886 43.5654C151.196 43.9027 151.586 44.1577 152.022 44.3069C152.457 44.4561 152.924 44.4947 153.378 44.4191C153.833 44.3436 154.261 44.1563 154.622 43.8746C155.11 43.5041 155.451 42.9764 155.584 42.3836C155.622 42.2267 155.641 42.0658 155.639 41.9045C155.646 41.848 155.646 41.7909 155.639 41.7343C155.616 41.7343 155.639 41.9672 155.516 42.3657C155.36 42.9265 155.018 43.4198 154.545 43.7671C154.2 44.0209 153.796 44.1858 153.37 44.2468C152.943 44.3078 152.508 44.2629 152.104 44.1164C151.625 43.9433 151.211 43.6311 150.915 43.2209C150.591 42.7879 150.416 42.2637 150.416 41.7254C150.416 41.187 150.591 40.6629 150.915 40.2299C151.211 39.8197 151.625 39.5075 152.104 39.3344C152.54 39.1778 153.009 39.1377 153.465 39.218C153.858 39.2825 154.231 39.4357 154.554 39.6658C155.027 40.0131 155.369 40.5063 155.525 41.0672C155.616 41.5149 155.607 41.7478 155.63 41.7478Z" fill="#263238"/>
<path d="M157.621 28.473L155.688 27.616L167.199 13.2524L169.077 13.7681C169.357 13.8447 169.608 14.0036 169.796 14.224L171.666 16.4062C171.795 16.557 171.858 16.7522 171.842 16.9493C171.826 17.1463 171.732 17.329 171.58 17.4574L158.659 28.326C158.518 28.4454 158.346 28.5226 158.162 28.5486C157.978 28.5746 157.79 28.5484 157.621 28.473Z" fill="#455A64"/>
<path d="M170.676 27.4623L168.584 29.2061C168.47 29.3028 168.332 29.3676 168.184 29.3939C168.036 29.4202 167.883 29.4069 167.742 29.3555L166.169 28.8C165.973 28.7276 165.81 28.5867 165.711 28.4039L157.149 12.4087L159.08 12.9642C159.328 13.0362 159.551 13.1791 159.718 13.3752L170.766 26.2741C170.913 26.4437 170.986 26.664 170.969 26.8867C170.952 27.1094 170.846 27.3164 170.676 27.4623Z" fill="#455A64"/>
<g opacity="0.3">
<path d="M157.621 28.473L155.688 27.616L167.199 13.2524L169.077 13.7681C169.357 13.8447 169.608 14.0036 169.796 14.224L171.666 16.4062C171.795 16.557 171.858 16.7522 171.842 16.9493C171.826 17.1463 171.732 17.329 171.58 17.4574L158.659 28.326C158.518 28.4454 158.346 28.5226 158.162 28.5486C157.978 28.5746 157.79 28.5484 157.621 28.473Z" fill="black"/>
<path d="M170.675 27.4623L168.584 29.2061C168.47 29.3028 168.331 29.3676 168.183 29.3939C168.035 29.4202 167.883 29.4069 167.742 29.3555L166.168 28.8C165.972 28.7276 165.809 28.5867 165.711 28.4039L157.148 12.4087L159.079 12.9642C159.328 13.0362 159.55 13.1791 159.718 13.3752L170.766 26.2741C170.912 26.4437 170.985 26.664 170.968 26.8867C170.951 27.1094 170.846 27.3164 170.675 27.4623Z" fill="black"/>
</g>
<path d="M169.426 15.6924L167.526 13.474C167.321 13.2338 166.957 13.2043 166.715 13.4082L153.624 24.4173C153.382 24.6211 153.352 24.9811 153.558 25.2213L155.458 27.4397C155.663 27.6799 156.027 27.7094 156.269 27.5055L169.36 16.4965C169.602 16.2926 169.632 15.9326 169.426 15.6924Z" fill="#2642CA"/>
<path d="M154.457 14.4878L156.757 12.5536C156.859 12.4681 156.991 12.4261 157.124 12.4369C157.257 12.4477 157.38 12.5103 157.466 12.6111L168.631 25.6479C168.73 25.7633 168.778 25.9128 168.766 26.0636C168.753 26.2144 168.681 26.3541 168.565 26.452L166.32 28.3395C166.204 28.4374 166.053 28.4854 165.901 28.4731C165.749 28.4607 165.608 28.389 165.509 28.2736L154.399 15.3014C154.3 15.186 154.252 15.0365 154.264 14.8857C154.277 14.7349 154.349 14.5952 154.466 14.4973L154.457 14.4878Z" fill="#2642CA"/>
<path d="M158.124 21.2715C157.52 21.8695 156.884 22.4365 156.221 22.9704C155.587 23.5376 154.923 24.0723 154.233 24.5722C154.838 23.9736 155.473 23.4058 156.136 22.8708C156.771 22.3045 157.435 21.7708 158.124 21.2715Z" fill="white"/>
<path d="M166.795 13.925C166.82 13.9524 165.86 14.7944 164.656 15.8058C163.452 16.8172 162.456 17.6118 162.433 17.5844C162.411 17.557 163.366 16.7175 164.573 15.7061C165.779 14.6947 166.772 13.8976 166.795 13.925Z" fill="white"/>
<path d="M158.553 19.2169C158.526 19.2393 157.784 18.345 156.897 17.224C156.009 16.103 155.313 15.1713 155.341 15.1489C155.928 15.7848 156.481 16.4499 157 17.1418C157.554 17.8063 158.072 18.499 158.553 19.2169Z" fill="white"/>
<path d="M165.181 26.6891C164.578 26.139 164.006 25.5569 163.466 24.9453C162.894 24.3631 162.355 23.7502 161.85 23.1094C162.451 23.6614 163.023 24.2434 163.565 24.8531C164.136 25.4365 164.675 26.0493 165.181 26.6891Z" fill="white"/>
</svg>
