<?xml version="1.0" encoding="utf-8"?>
<!-- Generator: Adobe Illustrator 25.2.3, SVG Export Plug-In . SVG Version: 6.00 Build 0)  -->
<svg version="1.1" id="Layer_1" xmlns="http://www.w3.org/2000/svg" xmlns:xlink="http://www.w3.org/1999/xlink" x="0px" y="0px"
	 viewBox="0 0 31.7 43" style="enable-background:new 0 0 31.7 43;" xml:space="preserve">
<style type="text/css">
	.st0{fill:#FFFFFF;}
	.st1{fill:#F5F4F8;}
	.st2{fill:#E57373;}
	.st3{fill:#EDCB3A;}
	.st4{opacity:0.1;fill:#FFFFFF;enable-background:new    ;}
	.st5{fill:#FFFFFF;stroke:#FFFFFF;stroke-width:0.3;stroke-miterlimit:10;}
	.st6{fill:#ADADAD;}
	.st7{fill:#9E663F;}
</style>
<g>
	<defs>
		<rect id="SVGID_17_" x="1076.1" y="199.6" width="56.9" height="36.1"/>
	</defs>
	<clipPath id="SVGID_2_">
		<use xlink:href="#SVGID_17_"  style="overflow:visible;"/>
	</clipPath>
	<g style="clip-path:url(#SVGID_2_);">
		
			<image style="overflow:visible;" width="2880" height="1800" xlink:href="../Desktop/Screenshot 2023-05-26 at 14.05.56.png"  transform="matrix(0.5 0 0 0.5 -260.447 -179.7679)">
		</image>
	</g>
</g>
<g>
	<path class="st2" d="M11.7,42.9l-3.1-2.8L4.4,41C4.2,41.1,4,40.8,4,40.6l3.6-13.3l8.3,2.1l-3.6,13.3C12.2,43,11.9,43.1,11.7,42.9z"
		/>
	<path class="st2" d="M19.9,42.9l3.1-2.8l4.1,0.9c0.3,0.1,0.5-0.2,0.4-0.4L24,27.3l-8.3,2.1l3.6,13.3C19.4,43,19.7,43.1,19.9,42.9z"
		/>
	<path class="st7" d="M31.7,15.4c0,1-0.5,1.8-1,2.5c-0.3,0.4-0.5,0.8-0.6,1.2c-0.1,0.4-0.1,0.9-0.1,1.4c0,0.8,0,1.8-0.4,2.6
		c-0.5,0.8-1.3,1.3-2.1,1.7c-0.5,0.2-0.9,0.5-1.2,0.8c-0.3,0.3-0.5,0.7-0.8,1.2c-0.4,0.7-0.9,1.6-1.7,2c-0.8,0.5-1.8,0.4-2.7,0.4
		c-0.5,0-1,0-1.5,0.1c-0.4,0.1-0.8,0.3-1.2,0.6c-0.7,0.4-1.6,0.9-2.6,0.9c-1,0-1.8-0.5-2.6-0.9c-0.4-0.3-0.9-0.5-1.2-0.6
		c-0.4-0.1-0.9-0.1-1.5-0.1c-0.9,0-1.8,0-2.6-0.4c-0.8-0.5-1.3-1.3-1.7-2c-0.3-0.5-0.5-0.9-0.8-1.2c-0.3-0.3-0.7-0.5-1.2-0.8
		c-0.8-0.4-1.6-0.8-2.1-1.7c-0.5-0.8-0.5-1.7-0.4-2.6c0-0.5,0-1-0.1-1.4c-0.1-0.4-0.4-0.8-0.6-1.2c-0.5-0.7-1-1.5-1-2.5
		c0-1,0.5-1.8,1-2.5c0.3-0.4,0.5-0.8,0.6-1.2c0.1-0.4,0.1-0.9,0.1-1.4c0-0.8,0-1.8,0.4-2.6C2.6,6.9,3.5,6.4,4.2,6
		c0.5-0.2,0.9-0.5,1.2-0.8C5.7,5,5.9,4.5,6.2,4.1c0.4-0.7,0.9-1.6,1.7-2c0.8-0.5,1.8-0.4,2.6-0.4c0.5,0,1,0,1.5-0.1
		c0.4-0.1,0.8-0.3,1.2-0.6C14,0.5,14.8,0,15.8,0c1,0,1.8,0.5,2.6,0.9c0.4,0.3,0.9,0.5,1.2,0.6c0.4,0.1,0.9,0.1,1.5,0.1
		c0.9,0,1.8,0,2.7,0.4c0.8,0.5,1.3,1.3,1.7,2C25.7,4.5,26,5,26.2,5.3C26.5,5.5,27,5.8,27.4,6c0.8,0.4,1.6,0.8,2.1,1.7
		C30,8.5,30,9.4,30,10.2c0,0.5,0,1,0.1,1.4c0.1,0.4,0.4,0.8,0.6,1.2C31.1,13.6,31.7,14.4,31.7,15.4z"/>
	<path class="st0" d="M27.6,13.7C27.6,13.7,27.6,13.7,27.6,13.7C27.6,13.7,27.6,13.7,27.6,13.7c-0.6,0.1-1.1,0.3-1.2,0.8
		c0-0.5-0.1-1-0.2-1.5c0.7-0.3,0.9-0.8,0.7-1.5c0,0,0,0,0,0c0,0,0,0,0,0c-0.5,0.2-0.8,0.5-0.9,0.9c-0.1-0.4-0.3-0.8-0.4-1.2
		c0.6-0.4,0.7-1,0.4-1.7c0,0,0,0,0,0c0,0,0,0,0,0c-0.4,0.3-0.6,0.6-0.6,1C25,10,24.8,9.6,24.6,9.3c0.4-0.5,0.5-1,0-1.5c0,0,0,0,0,0
		c0,0,0,0,0,0c-0.3,0.3-0.5,0.6-0.4,1c-0.2-0.3-0.5-0.6-0.8-0.9c0.4-0.5,0.3-1-0.1-1.5c0,0,0,0,0,0c0,0,0,0,0,0
		c-0.3,0.3-0.4,0.7-0.3,1C22.6,7.2,22.3,7,22,6.7c0,0,0,0-0.1,0c-0.2-0.6-0.6-0.9-1.2-0.8c0,0,0,0,0,0c0,0,0,0,0,0
		c0.1,0.6,0.5,1,1.1,1c0,0,0,0,0,0.1c0.3,0.2,0.5,0.4,0.8,0.6c-0.3-0.1-0.7,0-1,0.3c0,0,0,0,0,0c0,0,0,0,0,0
		c0.3,0.3,0.6,0.4,0.9,0.4c0.2,0,0.4-0.1,0.7-0.2c0.3,0.3,0.5,0.5,0.7,0.8c-0.3-0.1-0.7-0.1-1,0.1c0,0,0,0,0,0c0,0,0,0,0,0
		c0.3,0.3,0.6,0.5,0.9,0.5c0.2,0,0.4,0,0.5-0.1c0.2,0.3,0.5,0.7,0.7,1.1c-0.3-0.2-0.7-0.2-1.2-0.1c0,0,0,0,0,0c0,0,0,0,0,0
		c0.3,0.5,0.6,0.7,1.1,0.7c0.1,0,0.3,0,0.4-0.1c0.2,0.4,0.3,0.7,0.4,1.1c-0.3-0.3-0.6-0.4-1.1-0.3c0,0,0,0,0,0c0,0,0,0,0,0
		c0.2,0.7,0.6,1,1.2,1c0,0,0.1,0,0.1,0c0.1,0.5,0.2,0.9,0.2,1.4c-0.2-0.4-0.6-0.6-1.2-0.7c0,0,0,0,0,0c0,0,0,0,0,0
		c0,0.9,0.5,1.4,1.3,1.5c0,0.5,0,1-0.1,1.5c-0.1-0.4-0.5-0.7-1.1-0.9c0,0,0,0,0,0c0,0,0,0,0,0c-0.1,0.8,0.2,1.4,1,1.6
		c-0.1,0.4-0.2,0.7-0.3,1.1c-0.1,0.2-0.1,0.3-0.2,0.5c0-0.5-0.3-1-0.9-1.4c0,0,0,0,0,0c0,0,0,0,0,0c0,0,0,0,0,0
		c-0.5,0.9-0.3,1.7,0.5,2.3c-0.3,0.4-0.5,0.9-0.9,1.3c0.2-0.6,0-1.3-0.5-1.9c0,0,0,0,0,0c0,0,0,0,0,0c-0.8,0.9-0.8,1.8-0.1,2.7
		c-0.4,0.4-0.9,0.9-1.5,1.2c0.4-0.6,0.5-1.3,0-2.2c0,0,0,0,0,0c0,0,0,0,0,0c-1.1,0.7-1.4,1.6-0.8,2.7c-0.2,0.1-0.4,0.2-0.7,0.3
		c-0.4,0.2-0.8,0.3-1.2,0.5c0.7-0.5,0.9-1.2,0.8-2.2c0,0,0,0,0,0c0,0,0,0,0,0c0,0,0,0,0,0c-1.4,0.4-2,1.2-1.8,2.6
		c-0.7,0.2-1.5,0.3-2.3,0.4c-0.8-0.1-1.6-0.2-2.3-0.4c0.2-1.3-0.4-2.2-1.8-2.6c0,0,0,0,0,0c0,0,0,0,0,0c0,0,0,0,0,0
		c-0.2,1,0.1,1.7,0.8,2.2c-0.4-0.1-0.8-0.3-1.2-0.5c-0.2-0.1-0.4-0.2-0.7-0.3c0.5-1.1,0.2-2-0.9-2.7c0,0,0,0,0,0c0,0,0,0,0,0
		c0,0,0,0,0,0c-0.4,0.8-0.4,1.5,0,2.2c-0.5-0.4-1-0.8-1.5-1.2c0.8-0.9,0.7-1.8-0.1-2.7c0,0,0,0,0,0c0,0,0,0,0,0
		c-0.6,0.6-0.7,1.3-0.5,1.9c-0.3-0.4-0.6-0.8-0.9-1.3c0.8-0.6,1-1.4,0.5-2.3c0,0,0,0,0,0c0,0,0,0,0,0C6.6,18,6.3,18.5,6.3,19
		c-0.1-0.2-0.1-0.3-0.2-0.5c-0.1-0.3-0.2-0.7-0.3-1.1c0.8-0.3,1.1-0.8,1-1.7c0,0,0,0,0,0c0,0,0,0,0,0c-0.6,0.1-1,0.5-1.1,0.9
		c-0.1-0.5-0.1-1-0.1-1.5c0.8-0.1,1.3-0.6,1.3-1.5c0,0,0,0,0,0c0,0,0,0,0,0c-0.6,0.1-1,0.3-1.2,0.7c0-0.5,0.1-0.9,0.2-1.4
		c0,0,0.1,0,0.1,0c0.6,0,1.1-0.3,1.2-1c0,0,0,0,0,0c0,0,0,0,0,0c-0.5-0.1-0.9,0-1.1,0.3c0.1-0.4,0.3-0.8,0.4-1.1
		c0.2,0,0.3,0.1,0.4,0.1c0.5,0,0.8-0.3,1.1-0.8c0,0,0,0,0,0c0,0,0,0,0,0c-0.5-0.2-0.9-0.1-1.2,0.1c0.2-0.4,0.4-0.7,0.7-1.1
		c0.2,0.1,0.4,0.1,0.5,0.1c0.3,0,0.6-0.2,0.9-0.5c0,0,0,0,0,0c0,0,0,0,0,0c-0.4-0.2-0.7-0.3-1-0.1C8,8.6,8.2,8.3,8.5,8.1
		c0.2,0.1,0.4,0.2,0.7,0.2c0.3,0,0.6-0.1,0.9-0.4c0,0,0,0,0,0c0,0,0,0,0,0C9.7,7.6,9.3,7.5,9,7.6C9.3,7.4,9.5,7.2,9.8,7
		c0,0,0,0,0-0.1c0.6,0,1-0.4,1.1-1c0,0,0,0,0,0c0,0,0,0,0,0c-0.7,0-1.1,0.2-1.2,0.8c0,0,0,0-0.1,0C9.3,7,9,7.2,8.8,7.4
		c0.1-0.3,0-0.7-0.3-1c0,0,0,0,0,0c0,0,0,0,0,0C8,6.9,7.9,7.4,8.3,7.9C8,8.2,7.8,8.4,7.5,8.7c0-0.3-0.1-0.7-0.4-1c0,0,0,0,0,0
		s0,0,0,0c-0.4,0.5-0.4,1,0,1.5C6.9,9.6,6.6,10,6.4,10.4c0-0.4-0.2-0.7-0.6-1c0,0,0,0,0,0c0,0,0,0,0,0c-0.4,0.7-0.2,1.2,0.4,1.7
		c-0.2,0.4-0.3,0.8-0.4,1.2c-0.1-0.4-0.4-0.7-0.9-0.9c0,0,0,0,0,0c0,0,0,0,0,0c-0.2,0.7,0.1,1.2,0.7,1.5c-0.1,0.5-0.2,1-0.2,1.5
		c-0.2-0.4-0.6-0.7-1.2-0.8c0,0,0,0,0,0c0,0,0,0,0,0c0,0.9,0.4,1.4,1.2,1.5c0,0.5,0,1,0.1,1.5c-0.3-0.4-0.7-0.6-1.3-0.6c0,0,0,0,0,0
		c0,0,0,0,0,0c0,0,0,0,0,0c0.1,0.9,0.6,1.3,1.5,1.3c0.1,0.4,0.2,0.7,0.3,1.1c0.1,0.2,0.2,0.4,0.3,0.7c-0.5-0.4-1.1-0.5-1.8-0.2
		c0,0,0,0,0,0c0,0,0,0,0,0c0.4,0.7,0.9,1,1.5,1c0.2,0,0.4,0,0.7-0.1c0.3,0.5,0.6,1,0.9,1.4c-0.6-0.3-1.3-0.2-2.1,0.3c0,0,0,0,0,0
		c0,0,0,0,0,0c0,0,0,0,0,0c0.5,0.5,1,0.8,1.5,0.8c0.4,0,0.8-0.1,1.2-0.4c0.5,0.5,1,0.9,1.5,1.3c-0.8-0.2-1.4,0.1-2.1,0.8
		c0,0,0,0,0,0c0,0,0,0,0,0c0,0,0,0,0,0c0.5,0.3,0.9,0.5,1.4,0.5c0.6,0,1.1-0.3,1.6-0.8c0.2,0.1,0.5,0.3,0.7,0.4
		c0.4,0.2,0.8,0.4,1.2,0.5c-0.8,0.1-1.5,0.6-1.9,1.5c0,0,0,0,0,0c0,0,0,0,0,0h0c0.3,0.1,0.6,0.1,0.9,0.1c0.9,0,1.6-0.5,2-1.4
		c0.3,0.1,0.7,0.2,1,0.2c0,0-0.1,0.1-0.1,0.1c0,0.1,0.1,0.1,0.1,0.1h0c0.4,0,0.8,0,1.2-0.1c0.4,0,0.8,0.1,1.2,0.1h0
		c0.1,0,0.1-0.1,0.1-0.1c0,0,0-0.1-0.1-0.1c0.4-0.1,0.7-0.1,1-0.2c0.4,0.9,1.1,1.4,2,1.4c0.3,0,0.6,0,0.9-0.1c0,0,0,0,0,0
		c0,0,0,0,0,0c0,0,0,0,0,0c-0.4-0.9-1-1.4-1.9-1.5c0.4-0.1,0.8-0.3,1.2-0.5c0.2-0.1,0.5-0.2,0.7-0.4c0.5,0.5,1,0.8,1.6,0.8
		c0.4,0,0.9-0.2,1.4-0.5c0,0,0,0,0,0c0,0,0,0,0,0c0,0,0,0,0,0c-0.6-0.7-1.3-1-2.1-0.8c0.6-0.4,1.1-0.8,1.5-1.3
		c0.4,0.3,0.8,0.4,1.2,0.4c0.5,0,1.1-0.3,1.5-0.8c0,0,0,0,0,0c0,0,0,0,0,0c0,0,0,0,0,0c-0.7-0.5-1.4-0.6-2.1-0.3
		c0.4-0.4,0.7-0.9,0.9-1.4c0.2,0.1,0.5,0.1,0.7,0.1c0.6,0,1.1-0.3,1.5-1c0,0,0,0,0,0c0,0,0,0,0,0c0,0,0,0,0,0
		c-0.7-0.3-1.3-0.2-1.8,0.2c0.1-0.2,0.2-0.4,0.3-0.7c0.1-0.4,0.2-0.7,0.3-1.1c0.9,0,1.4-0.5,1.5-1.3c0,0,0,0,0,0c0,0,0,0,0,0
		c0,0,0,0,0,0c-0.6,0-1,0.2-1.3,0.6c0.1-0.5,0.1-1,0.1-1.5C27.2,15.1,27.7,14.5,27.6,13.7z"/>
	<path class="st4" d="M23.6,2L8.8,29c-0.3-0.1-0.6-0.2-0.8-0.3c-0.8-0.5-1.3-1.3-1.7-2c-0.3-0.5-0.5-0.9-0.8-1.2
		c-0.3-0.3-0.7-0.5-1.2-0.8c-0.8-0.4-1.6-0.8-2.1-1.7c-0.5-0.8-0.5-1.7-0.4-2.6c0-0.5,0-1-0.1-1.4c-0.1-0.4-0.4-0.8-0.6-1.2
		c-0.5-0.7-1-1.5-1-2.5c0-1,0.5-1.8,1-2.5c0.3-0.4,0.5-0.8,0.6-1.2c0.1-0.4,0.1-0.9,0.1-1.4c0-0.8,0-1.8,0.4-2.6
		C2.6,6.9,3.5,6.4,4.2,6c0.5-0.2,0.9-0.5,1.2-0.8C5.7,5,5.9,4.6,6.2,4.1c0.4-0.7,0.9-1.6,1.7-2c0.8-0.5,1.8-0.4,2.6-0.4
		c0.5,0,1,0,1.5-0.1c0.4-0.1,0.8-0.3,1.2-0.6c0.7-0.4,1.6-1,2.6-1c1,0,1.8,0.5,2.6,0.9c0.4,0.3,0.9,0.5,1.2,0.6
		c0.4,0.1,0.9,0.1,1.5,0.1C21.9,1.6,22.8,1.6,23.6,2z"/>
	<path class="st5" d="M16.3,13.1c0.9,0,1.3-0.6,1.3-1.4c0-0.7-0.6-1.3-1.5-1.3c-0.7,0-1.2,0.4-1.5,0.7c-0.1,0.1-0.3,0.2-0.5,0.2
		c-0.4,0-0.8-0.4-0.8-0.8c0-0.8,1.7-1.6,2.9-1.6c1.8,0,3,1.1,3,2.7c0,1-0.5,1.7-1.2,2.1c1.7,0.8,1.7,2.4,1.7,2.7
		c0,2-1.6,3.4-3.8,3.4c-2.2,0-3.5-1.2-3.5-1.9c0-0.5,0.4-0.8,0.9-0.8c0.2,0,0.4,0.1,0.6,0.3c0.7,0.7,1.1,1,2.1,1
		c1,0,2.1-0.8,2.1-1.9c0-1.4-0.9-1.9-1.9-1.9c0,0-0.1,0-0.1,0c-0.1,0-0.2,0-0.2,0c-0.5,0-0.8-0.4-0.8-0.8c0-0.4,0.3-0.7,0.8-0.7
		L16.3,13.1L16.3,13.1z"/>
</g>
</svg>
