<svg width="356" height="89" viewBox="0 0 356 89" fill="none" xmlns="http://www.w3.org/2000/svg">
<path d="M56.6571 44.3344C56.6571 44.7046 56.6374 44.9969 56.6176 45.2503C56.5978 45.5036 56.5583 45.718 56.5188 45.8934C56.4793 46.0688 56.42 46.2247 56.3409 46.3611C56.2619 46.4975 56.1433 46.6339 55.9852 46.8093C55.8271 46.9847 55.511 47.1796 55.0565 47.4524C54.6019 47.7057 54.0289 47.9591 53.357 48.1929C52.6851 48.4268 51.9342 48.6216 51.0647 48.797C50.2149 48.9529 49.2862 49.0309 48.2783 49.0309C46.322 49.0309 44.5632 48.7386 43.0021 48.1344C41.4409 47.5498 40.0971 46.6534 39.0103 45.4841C37.9036 44.3149 37.0737 42.8338 36.4808 41.0799C35.888 39.326 35.6113 37.2604 35.6113 34.9218C35.6113 32.5443 35.9275 30.4202 36.5796 28.5689C37.2318 26.7175 38.121 25.1585 39.2869 23.9113C40.4529 22.6446 41.8361 21.7092 43.4566 21.0466C45.077 20.4036 46.8555 20.0723 48.8119 20.0723C49.6023 20.0723 50.373 20.1307 51.1042 20.2671C51.8354 20.4036 52.5072 20.5595 53.1396 20.7738C53.772 20.9882 54.3253 21.222 54.8193 21.4949C55.3134 21.7677 55.6691 22.0015 55.8667 22.1964C56.0643 22.3913 56.2026 22.5472 56.2817 22.6836C56.3607 22.82 56.42 22.9759 56.4595 23.1903C56.499 23.3852 56.5386 23.6385 56.5583 23.9113C56.5781 24.1842 56.5978 24.5349 56.5978 24.9247C56.5978 25.3534 56.5781 25.7237 56.5583 26.0355C56.5386 26.3473 56.4793 26.5811 56.4002 26.776C56.3212 26.9709 56.2421 27.1073 56.1433 27.1852C56.0445 27.2632 55.926 27.3217 55.7876 27.3217C55.5702 27.3217 55.2936 27.2047 54.9577 26.9514C54.6217 26.6981 54.187 26.4252 53.6534 26.1134C53.1199 25.8016 52.4875 25.5288 51.7366 25.2755C51.0054 25.0221 50.1161 24.9052 49.0885 24.9052C47.9621 24.9052 46.9543 25.139 46.0651 25.5873C45.1758 26.0355 44.4249 26.6981 43.7925 27.536C43.1602 28.374 42.7056 29.4068 42.3697 30.5956C42.0535 31.8038 41.8954 33.1485 41.8954 34.649C41.8954 36.3055 42.0733 37.7281 42.4092 38.9363C42.7452 40.1445 43.2392 41.1384 43.8913 41.9179C44.5237 42.6974 45.2944 43.282 46.2034 43.6718C47.1124 44.0615 48.1202 44.2369 49.2466 44.2369C50.2742 44.2369 51.1635 44.12 51.9144 43.8861C52.6653 43.6523 53.2977 43.3795 53.8313 43.0872C54.3648 42.7948 54.7996 42.5415 55.1553 42.3076C55.4912 42.0738 55.7679 41.9569 55.9655 41.9569C56.1038 41.9569 56.2224 41.9764 56.3212 42.0348C56.4002 42.0933 56.4793 42.2102 56.5386 42.3856C56.5978 42.561 56.6374 42.7948 56.6769 43.1066C56.6374 43.399 56.6571 43.8277 56.6571 44.3344Z" fill="white"/>
<path d="M86.0633 34.2398C86.0633 36.5588 85.7669 38.644 85.1938 40.4758C84.601 42.3076 83.7315 43.8667 82.5854 45.1528C81.4194 46.439 79.9966 47.4134 78.2972 48.076C76.5977 48.7386 74.6215 49.0893 72.3688 49.0893C70.1555 49.0893 68.2189 48.797 66.5787 48.2319C64.9385 47.6667 63.5552 46.7898 62.4486 45.6205C61.3419 44.4513 60.5317 42.9702 59.9784 41.1579C59.4251 39.3455 59.1484 37.2214 59.1484 34.7465C59.1484 32.4859 59.4449 30.4397 60.0179 28.6273C60.6108 26.815 61.4803 25.2755 62.6264 24.0088C63.7923 22.7421 65.2152 21.7677 66.9146 21.0856C68.6141 20.4036 70.61 20.0723 72.8628 20.0723C75.0168 20.0723 76.9139 20.3451 78.5738 20.9102C80.214 21.4754 81.5973 22.3328 82.7039 23.5021C83.8106 24.6713 84.6405 26.1524 85.2136 27.9258C85.7669 29.6992 86.0633 31.8038 86.0633 34.2398ZM79.9966 34.5516C79.9966 33.0705 79.8781 31.7454 79.6409 30.5371C79.4038 29.3289 79.0086 28.296 78.4355 27.4386C77.8624 26.5811 77.1115 25.9186 76.1827 25.4509C75.2539 24.9831 74.0682 24.7493 72.6652 24.7493C71.2424 24.7493 70.0567 25.0221 69.1081 25.5483C68.1596 26.0745 67.3889 26.776 66.7961 27.653C66.2032 28.5299 65.7882 29.5627 65.5511 30.732C65.314 31.9013 65.1954 33.1485 65.1954 34.4736C65.1954 36.0131 65.314 37.3773 65.5511 38.605C65.7882 39.8327 66.1835 40.8656 66.7368 41.7425C67.2901 42.6 68.041 43.2625 68.9698 43.7302C69.8986 44.1785 71.0843 44.4123 72.5071 44.4123C73.9299 44.4123 75.1156 44.159 76.0641 43.6328C77.0127 43.1066 77.7834 42.4051 78.3762 41.5087C78.969 40.6122 79.384 39.5599 79.6212 38.3711C79.8781 37.1629 79.9966 35.8962 79.9966 34.5516Z" fill="white"/>
<path d="M124.062 47.8032C124.062 47.9396 124.022 48.0761 123.943 48.193C123.864 48.3099 123.706 48.4073 123.508 48.4658C123.291 48.5438 123.014 48.6022 122.659 48.6412C122.303 48.6802 121.868 48.6997 121.315 48.6997C120.781 48.6997 120.346 48.6802 119.991 48.6412C119.635 48.6022 119.358 48.5438 119.161 48.4658C118.963 48.3879 118.805 48.2904 118.726 48.193C118.647 48.0761 118.588 47.9396 118.588 47.8032V24.9832H118.548L110.308 47.7837C110.248 47.9786 110.15 48.1345 110.031 48.2514C109.893 48.3684 109.715 48.4658 109.498 48.5438C109.26 48.6217 108.984 48.6607 108.628 48.6802C108.272 48.6997 107.857 48.7192 107.344 48.7192C106.849 48.7192 106.415 48.6997 106.059 48.6607C105.703 48.6217 105.427 48.5632 105.19 48.4853C104.952 48.4073 104.775 48.3099 104.656 48.193C104.518 48.0761 104.439 47.9396 104.399 47.7837L96.4353 24.9832H96.3958V47.8032C96.3958 47.9396 96.3562 48.0761 96.2772 48.193C96.1981 48.3099 96.0401 48.4073 95.8227 48.4658C95.6053 48.5438 95.3286 48.6022 94.9729 48.6412C94.637 48.6802 94.1825 48.6997 93.6489 48.6997C93.1154 48.6997 92.6806 48.6802 92.3249 48.6412C91.9692 48.6022 91.6926 48.5438 91.4752 48.4658C91.2578 48.3879 91.1195 48.2904 91.0404 48.193C90.9614 48.0761 90.9219 47.9396 90.9219 47.8032V22.8201C90.9219 22.0796 91.1195 21.5144 91.5147 21.1247C91.9099 20.7349 92.4435 20.54 93.0956 20.54H96.87C97.5419 20.54 98.115 20.5985 98.609 20.6959C99.0833 20.8129 99.518 20.9883 99.854 21.2416C100.21 21.4949 100.506 21.8262 100.723 22.2355C100.961 22.6447 101.158 23.1514 101.336 23.7555L107.482 40.4759H107.561L113.944 23.814C114.141 23.2098 114.339 22.7032 114.576 22.2744C114.794 21.8652 115.07 21.5144 115.367 21.2611C115.663 21.0077 116.019 20.8129 116.434 20.7154C116.849 20.5985 117.323 20.5595 117.857 20.5595H121.75C122.145 20.5595 122.481 20.618 122.777 20.7154C123.054 20.8129 123.291 20.9688 123.489 21.1636C123.666 21.3585 123.805 21.5924 123.903 21.8847C124.002 22.1575 124.042 22.4888 124.042 22.8396V47.8032H124.062Z" fill="white"/>
<path d="M136.06 47.8035C136.06 47.9399 136.02 48.0763 135.921 48.1932C135.822 48.3101 135.664 48.4076 135.447 48.466C135.23 48.544 134.933 48.6025 134.577 48.6414C134.202 48.6804 133.748 48.6999 133.174 48.6999C132.621 48.6999 132.147 48.6804 131.771 48.6414C131.396 48.6025 131.1 48.544 130.882 48.466C130.665 48.3881 130.507 48.2906 130.408 48.1932C130.309 48.0763 130.27 47.9399 130.27 47.8035V21.3198C130.27 21.1834 130.309 21.0469 130.408 20.93C130.507 20.8131 130.665 20.7157 130.882 20.6572C131.1 20.5792 131.396 20.5208 131.771 20.4818C132.147 20.4428 132.601 20.4233 133.155 20.4233C133.728 20.4233 134.202 20.4428 134.558 20.4818C134.933 20.5208 135.21 20.5792 135.427 20.6572C135.645 20.7351 135.803 20.8326 135.902 20.93C136 21.0469 136.04 21.1834 136.04 21.3198V47.8035H136.06Z" fill="white"/>
<path d="M165.699 46.5949C165.699 46.9262 165.64 47.2185 165.521 47.4913C165.402 47.7446 165.244 47.959 165.047 48.1344C164.849 48.3098 164.612 48.4267 164.335 48.5047C164.059 48.5826 163.782 48.6216 163.505 48.6216H161.035C160.521 48.6216 160.087 48.5631 159.711 48.4657C159.336 48.3682 159 48.1734 158.684 47.92C158.367 47.6472 158.071 47.2964 157.775 46.8287C157.478 46.3805 157.142 45.7764 156.787 45.0553L149.732 31.9597C149.317 31.1802 148.902 30.3422 148.487 29.4263C148.052 28.5298 147.677 27.6529 147.341 26.7954H147.301C147.36 27.8283 147.4 28.8806 147.439 29.9135C147.459 30.9463 147.479 32.0181 147.479 33.1094V47.7836C147.479 47.92 147.439 48.0564 147.36 48.1734C147.281 48.2903 147.143 48.3877 146.945 48.4657C146.748 48.5436 146.471 48.6021 146.135 48.6411C145.799 48.68 145.364 48.6995 144.831 48.6995C144.317 48.6995 143.902 48.68 143.546 48.6411C143.21 48.6021 142.954 48.5436 142.756 48.4657C142.558 48.3877 142.44 48.2903 142.361 48.1734C142.282 48.0564 142.242 47.92 142.242 47.7836V22.5861C142.242 21.904 142.44 21.3974 142.855 21.0661C143.25 20.7348 143.744 20.5594 144.337 20.5594H147.439C147.993 20.5594 148.467 20.5984 148.842 20.6958C149.218 20.7932 149.574 20.9491 149.87 21.1635C150.166 21.3779 150.443 21.6897 150.72 22.0599C150.977 22.4497 151.253 22.9174 151.53 23.4825L157.063 33.733C157.379 34.3566 157.696 34.9608 158.012 35.5649C158.328 36.169 158.624 36.7731 158.921 37.3577C159.217 37.9618 159.494 38.5465 159.77 39.1311C160.047 39.7157 160.324 40.2809 160.581 40.8655H160.6C160.561 39.8521 160.521 38.7998 160.502 37.7085C160.482 36.6172 160.462 35.5649 160.462 34.571V21.4169C160.462 21.2804 160.502 21.144 160.6 21.0271C160.679 20.9102 160.838 20.8127 161.035 20.7153C161.233 20.6373 161.509 20.5594 161.845 20.5399C162.181 20.5009 162.616 20.4814 163.15 20.4814C163.644 20.4814 164.059 20.5009 164.395 20.5399C164.731 20.5789 164.987 20.6373 165.165 20.7153C165.343 20.7932 165.481 20.9102 165.541 21.0271C165.62 21.144 165.659 21.2804 165.659 21.4169V46.5949H165.699Z" fill="white"/>
<path d="M194.711 24.9052C194.711 25.3339 194.691 25.6847 194.652 25.9965C194.612 26.3083 194.573 26.5422 194.494 26.7175C194.434 26.8929 194.355 27.0293 194.256 27.0878C194.158 27.1658 194.039 27.2047 193.92 27.2047C193.723 27.2047 193.426 27.0683 192.992 26.815C192.557 26.5616 192.004 26.2693 191.292 25.977C190.581 25.6652 189.751 25.3924 188.783 25.139C187.814 24.8857 186.668 24.7493 185.384 24.7493C184 24.7493 182.755 24.9831 181.649 25.4509C180.542 25.9186 179.574 26.5811 178.783 27.4386C177.993 28.296 177.38 29.3289 176.965 30.5371C176.531 31.7454 176.333 33.0705 176.333 34.5321C176.333 36.1301 176.55 37.5527 176.985 38.7609C177.42 39.9886 178.013 41.002 178.803 41.8205C179.574 42.6389 180.522 43.2625 181.609 43.6913C182.696 44.12 183.901 44.3149 185.226 44.3149C185.878 44.3149 186.51 44.2369 187.142 44.1005C187.775 43.9641 188.368 43.7302 188.901 43.4574V36.9486H183.526C183.269 36.9486 183.052 36.7927 182.913 36.4614C182.775 36.1301 182.696 35.5844 182.696 34.8049C182.696 34.3957 182.716 34.0644 182.755 33.7916C182.795 33.5187 182.854 33.3044 182.913 33.129C182.992 32.9536 183.072 32.8367 183.17 32.7587C183.269 32.6808 183.388 32.6418 183.526 32.6418H193.13C193.367 32.6418 193.565 32.6808 193.762 32.7587C193.94 32.8367 194.098 32.9536 194.237 33.1095C194.375 33.2654 194.474 33.4603 194.553 33.6746C194.632 33.9085 194.671 34.1618 194.671 34.4346V45.6011C194.671 46.0298 194.592 46.4195 194.434 46.7313C194.276 47.0626 193.96 47.316 193.486 47.4914C193.011 47.6862 192.419 47.8811 191.707 48.076C190.996 48.2709 190.284 48.4463 189.514 48.6022C188.763 48.7386 187.992 48.8555 187.221 48.9334C186.451 49.0114 185.68 49.0504 184.909 49.0504C182.637 49.0504 180.601 48.7191 178.803 48.0955C177.005 47.4524 175.483 46.517 174.238 45.3087C172.993 44.081 172.045 42.6 171.373 40.8461C170.721 39.0922 170.385 37.1045 170.385 34.8829C170.385 32.5833 170.74 30.5176 171.432 28.6858C172.144 26.854 173.132 25.295 174.416 24.0283C175.701 22.7421 177.262 21.7677 179.08 21.0856C180.898 20.4036 182.933 20.0723 185.186 20.0723C186.411 20.0723 187.538 20.1502 188.545 20.3256C189.553 20.501 190.442 20.6959 191.193 20.9297C191.944 21.1636 192.577 21.4169 193.071 21.6897C193.565 21.9626 193.92 22.1964 194.118 22.4108C194.316 22.6057 194.454 22.898 194.553 23.2682C194.671 23.6385 194.711 24.1842 194.711 24.9052Z" fill="white"/>
<path d="M231.642 40.1834C231.642 41.6645 231.365 42.9507 230.812 44.0614C230.259 45.1722 229.508 46.1076 228.54 46.8482C227.591 47.5887 226.465 48.1539 225.2 48.5241C223.915 48.8944 222.572 49.0893 221.109 49.0893C220.121 49.0893 219.212 49.0113 218.382 48.8554C217.532 48.6995 216.801 48.5046 216.149 48.2903C215.497 48.0759 214.963 47.8226 214.529 47.5887C214.094 47.3354 213.778 47.121 213.6 46.9456C213.402 46.7507 213.264 46.4779 213.185 46.1271C213.106 45.7764 213.066 45.2697 213.066 44.6071C213.066 44.1589 213.086 43.7886 213.106 43.4768C213.126 43.165 213.185 42.9312 213.244 42.7363C213.304 42.5414 213.402 42.405 213.501 42.327C213.62 42.2491 213.738 42.2101 213.877 42.2101C214.074 42.2101 214.371 42.327 214.746 42.5609C215.122 42.7948 215.596 43.0676 216.189 43.3599C216.782 43.6522 217.473 43.9055 218.283 44.1589C219.094 44.3927 220.042 44.5097 221.109 44.5097C221.821 44.5097 222.433 44.4317 223.006 44.2563C223.56 44.0809 224.034 43.8471 224.429 43.5548C224.824 43.243 225.121 42.8727 225.318 42.4245C225.516 41.9763 225.635 41.4696 225.635 40.9239C225.635 40.2808 225.457 39.7352 225.101 39.287C224.745 38.8388 224.291 38.4295 223.718 38.0787C223.145 37.728 222.512 37.3967 221.801 37.0849C221.09 36.7731 220.339 36.4418 219.588 36.091C218.817 35.7402 218.086 35.3505 217.374 34.9023C216.663 34.454 216.011 33.9279 215.458 33.3238C214.884 32.7002 214.43 31.9791 214.074 31.1412C213.719 30.3032 213.541 29.2898 213.541 28.1206C213.541 26.7759 213.798 25.5872 214.292 24.5738C214.805 23.5605 215.477 22.703 216.327 22.0404C217.177 21.3778 218.204 20.8712 219.351 20.5399C220.516 20.2086 221.742 20.0332 223.046 20.0332C223.718 20.0332 224.39 20.0917 225.062 20.1891C225.733 20.2865 226.366 20.423 226.959 20.5983C227.551 20.7737 228.065 20.9686 228.52 21.183C228.974 21.3973 229.271 21.5727 229.429 21.7286C229.567 21.865 229.666 22.0015 229.725 22.0989C229.784 22.1963 229.824 22.3327 229.864 22.5081C229.903 22.6835 229.923 22.8784 229.943 23.1317C229.962 23.3851 229.962 23.6969 229.962 24.0671C229.962 24.4959 229.943 24.8466 229.923 25.1195C229.903 25.4118 229.864 25.6456 229.804 25.8405C229.745 26.0354 229.686 26.1718 229.587 26.2498C229.488 26.3277 229.37 26.3862 229.211 26.3862C229.053 26.3862 228.796 26.2887 228.441 26.0744C228.085 25.8795 227.65 25.6456 227.136 25.4118C226.623 25.1779 226.03 24.9636 225.358 24.7687C224.686 24.5738 223.935 24.4764 223.145 24.4764C222.512 24.4764 221.959 24.5543 221.505 24.7102C221.03 24.8661 220.635 25.0805 220.319 25.3338C220.003 25.6067 219.766 25.9185 219.607 26.2887C219.449 26.659 219.37 27.0682 219.37 27.4775C219.37 28.1011 219.548 28.6467 219.884 29.095C220.22 29.5432 220.694 29.9524 221.267 30.3032C221.84 30.654 222.493 30.9853 223.243 31.2971C223.975 31.6089 224.726 31.9401 225.477 32.2909C226.247 32.6417 226.978 33.0315 227.71 33.4797C228.441 33.9279 229.093 34.454 229.666 35.0582C230.239 35.6818 230.693 36.4028 231.049 37.2213C231.464 38.0787 231.642 39.0531 231.642 40.1834Z" fill="#3C3C3B"/>
<path d="M261.64 34.2398C261.64 36.5588 261.343 38.644 260.77 40.4758C260.177 42.3076 259.308 43.8667 258.162 45.1528C256.996 46.439 255.573 47.4134 253.873 48.076C252.174 48.7386 250.198 49.0893 247.945 49.0893C245.732 49.0893 243.795 48.797 242.155 48.2319C240.515 47.6667 239.131 46.7898 238.025 45.6205C236.918 44.4513 236.108 42.9702 235.555 41.1579C235.001 39.3455 234.725 37.2214 234.725 34.7465C234.725 32.4859 235.021 30.4397 235.594 28.6273C236.187 26.815 237.056 25.2755 238.203 24.0088C239.369 22.7421 240.791 21.7677 242.491 21.0856C244.19 20.4036 246.186 20.0723 248.439 20.0723C250.593 20.0723 252.49 20.3451 254.15 20.9102C255.79 21.4754 257.173 22.3328 258.28 23.5021C259.387 24.6713 260.217 26.1524 260.79 27.9258C261.363 29.6992 261.64 31.8038 261.64 34.2398ZM255.573 34.5516C255.573 33.0705 255.454 31.7454 255.217 30.5371C254.98 29.3289 254.585 28.296 254.012 27.4386C253.439 26.5811 252.688 25.9186 251.759 25.4509C250.83 24.9831 249.644 24.7493 248.241 24.7493C246.819 24.7493 245.633 25.0221 244.684 25.5483C243.736 26.0745 242.965 26.776 242.372 27.653C241.779 28.5299 241.364 29.5627 241.127 30.732C240.89 31.9013 240.772 33.1485 240.772 34.4736C240.772 36.0131 240.89 37.3773 241.127 38.605C241.364 39.8327 241.76 40.8656 242.313 41.7425C242.866 42.6 243.617 43.2625 244.546 43.7302C245.475 44.1785 246.66 44.4123 248.083 44.4123C249.506 44.4123 250.692 44.159 251.64 43.6328C252.589 43.1066 253.36 42.4051 253.952 41.5087C254.545 40.6122 254.96 39.5599 255.197 38.3711C255.454 37.1629 255.573 35.8962 255.573 34.5516Z" fill="#3C3C3B"/>
<path d="M292.071 34.2398C292.071 36.5588 291.775 38.644 291.202 40.4758C290.609 42.3076 289.739 43.8667 288.593 45.1528C287.427 46.439 286.004 47.4134 284.305 48.076C282.605 48.7386 280.629 49.0893 278.377 49.0893C276.163 49.0893 274.227 48.797 272.586 48.2319C270.946 47.6667 269.563 46.7898 268.456 45.6205C267.35 44.4513 266.54 42.9702 265.986 41.1579C265.433 39.3455 265.156 37.2214 265.156 34.7465C265.156 32.4859 265.453 30.4397 266.026 28.6273C266.619 26.815 267.488 25.2755 268.634 24.0088C269.8 22.7421 271.223 21.7677 272.922 21.0856C274.622 20.4036 276.618 20.0723 278.871 20.0723C281.025 20.0723 282.922 20.3451 284.582 20.9102C286.222 21.4754 287.605 22.3328 288.712 23.5021C289.818 24.6713 290.648 26.1524 291.221 27.9258C291.794 29.6992 292.071 31.8038 292.071 34.2398ZM286.024 34.5516C286.024 33.0705 285.906 31.7454 285.668 30.5371C285.431 29.3289 285.036 28.296 284.463 27.4386C283.89 26.5811 283.139 25.9186 282.21 25.4509C281.281 24.9831 280.096 24.7493 278.693 24.7493C277.27 24.7493 276.084 25.0221 275.136 25.5483C274.187 26.0745 273.416 26.776 272.824 27.653C272.231 28.5299 271.816 29.5627 271.579 30.732C271.342 31.9013 271.223 33.1485 271.223 34.4736C271.223 36.0131 271.342 37.3773 271.579 38.605C271.816 39.8327 272.211 40.8656 272.764 41.7425C273.318 42.6 274.069 43.2625 274.997 43.7302C275.926 44.1785 277.112 44.4123 278.535 44.4123C279.957 44.4123 281.143 44.159 282.092 43.6328C283.04 43.1066 283.811 42.4051 284.404 41.5087C284.997 40.6122 285.412 39.5599 285.649 38.3711C285.886 37.1629 286.024 35.8962 286.024 34.5516Z" fill="#3C3C3B"/>
<path d="M320.389 46.5949C320.389 46.9262 320.329 47.2185 320.211 47.4913C320.092 47.7446 319.934 47.959 319.736 48.1344C319.539 48.3098 319.302 48.4267 319.025 48.5047C318.748 48.5826 318.472 48.6216 318.195 48.6216H315.725C315.211 48.6216 314.776 48.5631 314.401 48.4657C314.025 48.3682 313.689 48.1734 313.373 47.92C313.057 47.6472 312.761 47.2964 312.464 46.8287C312.168 46.3805 311.832 45.7764 311.476 45.0553L304.402 31.9402C303.987 31.1607 303.572 30.3227 303.157 29.4068C302.722 28.5103 302.346 27.6334 302.011 26.7759H301.971C302.03 27.8088 302.07 28.8611 302.109 29.894C302.129 30.9268 302.149 31.9986 302.149 33.0899V47.7641C302.149 47.9005 302.109 48.037 302.03 48.1539C301.951 48.2708 301.813 48.3682 301.615 48.4462C301.418 48.5241 301.141 48.5826 300.805 48.6216C300.469 48.6606 300.034 48.68 299.501 48.68C298.987 48.68 298.572 48.6606 298.216 48.6216C297.88 48.5826 297.624 48.5241 297.426 48.4462C297.228 48.3682 297.11 48.2708 297.031 48.1539C296.952 48.037 296.912 47.9005 296.912 47.7641V22.5861C296.912 21.904 297.11 21.3974 297.525 21.0661C297.92 20.7348 298.414 20.5594 299.007 20.5594H302.109C302.663 20.5594 303.137 20.5984 303.512 20.6958C303.888 20.7932 304.244 20.9491 304.54 21.1635C304.836 21.3779 305.113 21.6897 305.39 22.0599C305.647 22.4497 305.923 22.9174 306.2 23.4825L311.733 33.733C312.049 34.3566 312.365 34.9608 312.682 35.5649C312.998 36.169 313.294 36.7731 313.591 37.3577C313.887 37.9618 314.164 38.5465 314.44 39.1311C314.717 39.7157 314.994 40.2809 315.251 40.8655H315.27C315.231 39.8521 315.191 38.7998 315.172 37.7085C315.152 36.6172 315.132 35.5649 315.132 34.571V21.4169C315.132 21.2804 315.172 21.144 315.27 21.0271C315.349 20.9102 315.507 20.8127 315.705 20.7153C315.903 20.6373 316.179 20.5594 316.515 20.5399C316.851 20.5009 317.286 20.4814 317.82 20.4814C318.314 20.4814 318.729 20.5009 319.065 20.5399C319.4 20.5789 319.657 20.6373 319.835 20.7153C320.013 20.7932 320.151 20.9102 320.211 21.0271C320.29 21.144 320.329 21.2804 320.329 21.4169V46.5949H320.389Z" fill="#3C3C3B"/>
<path d="M356 72.0458H250.376C249.724 72.0458 249.19 71.5196 249.19 70.8765C249.19 70.2334 249.724 69.7072 250.376 69.7072H353.629V2.33852H2.37136V69.7072H106.296C106.948 69.7072 107.482 70.2334 107.482 70.8765C107.482 71.5196 106.948 72.0458 106.296 72.0458H0V0H356V72.0458Z" fill="white"/>
<path d="M278.416 88.9996H77.5822C76.93 88.9996 76.3965 88.4735 76.3965 87.8304C76.3965 87.1873 76.93 86.6611 77.5822 86.6611H278.416C279.068 86.6611 279.602 87.1873 279.602 87.8304C279.602 88.4735 279.068 88.9996 278.416 88.9996Z" fill="white"/>
<path d="M130.348 61.269H133.292V80.4644H130.348V61.269Z" fill="#3C3C3B"/>
<path d="M136.514 61.269H139.458V77.7166H144.715V80.4644H136.514V61.269Z" fill="#3C3C3B"/>
<path d="M146.988 61.269H155.347V64.0168H149.933V69.3564H154.241V72.1042H149.933V77.7166H155.347V80.4644H146.988V61.269Z" fill="#3C3C3B"/>
<path d="M163.922 76.2161H160.76L160.128 80.4644H157.184L160.405 61.269H164.357L167.578 80.4644H164.574L163.922 76.2161ZM163.527 73.4293L162.341 65.4004L161.156 73.4293H163.527Z" fill="#3C3C3B"/>
<path d="M169.85 61.269H174.474C175.877 61.269 177.003 61.6783 177.833 62.5163C178.663 63.3542 179.078 64.465 179.078 65.8486V75.8848C179.078 77.2684 178.663 78.3792 177.833 79.2171C177.003 80.0551 175.877 80.4644 174.474 80.4644H169.85V61.269ZM174.316 77.7166C174.889 77.7166 175.343 77.5607 175.659 77.2489C175.976 76.9371 176.134 76.5084 176.134 75.9237V65.7707C176.134 65.2055 175.976 64.7573 175.659 64.4455C175.343 64.1337 174.908 63.9778 174.316 63.9778H172.794V77.6776H174.316V77.7166Z" fill="#3C3C3B"/>
<path d="M197.317 78.7689V81.5556C196.606 81.5556 196.033 81.4387 195.559 81.2243C195.104 81.01 194.729 80.6592 194.452 80.1915C193.76 80.5618 192.97 80.7371 192.061 80.7371C190.658 80.7371 189.512 80.3084 188.642 79.4704C187.773 78.613 187.338 77.5022 187.338 76.1186V65.6537C187.338 64.2701 187.773 63.1398 188.642 62.3019C189.512 61.4444 190.658 61.0352 192.061 61.0352C193.464 61.0352 194.61 61.4639 195.48 62.3019C196.349 63.1593 196.784 64.2701 196.784 65.6537V76.1186C196.784 77.015 196.606 77.814 196.23 78.4961C196.468 78.6715 196.823 78.7689 197.317 78.7689ZM193.839 65.6342C193.839 65.0301 193.681 64.5624 193.365 64.2311C193.049 63.8998 192.614 63.7439 192.061 63.7439C191.508 63.7439 191.073 63.8998 190.757 64.2311C190.44 64.5624 190.282 65.0301 190.282 65.6342V76.0991C190.282 76.7032 190.44 77.1709 190.757 77.5022C191.073 77.8335 191.508 77.9894 192.061 77.9894C192.614 77.9894 193.049 77.8335 193.365 77.5022C193.681 77.1709 193.839 76.7032 193.839 76.0991V65.6342Z" fill="#3C3C3B"/>
<path d="M201.152 79.49C200.302 78.652 199.867 77.5802 199.867 76.2355V61.269H202.812V76.2355C202.812 76.7812 202.97 77.2099 203.266 77.5217C203.563 77.8335 203.958 77.9894 204.452 77.9894C204.926 77.9894 205.321 77.8335 205.637 77.5217C205.934 77.2099 206.092 76.7812 206.092 76.2355V61.269H208.977V76.2355C208.977 77.5607 208.562 78.652 207.732 79.49C206.902 80.3279 205.796 80.7372 204.452 80.7372C203.108 80.7372 202.001 80.3279 201.152 79.49Z" fill="#3C3C3B"/>
<path d="M212.102 61.269H215.046V80.4644H212.102V61.269Z" fill="#3C3C3B"/>
<path d="M226.388 63.744L220.835 77.7166H226.388V80.4644H217.555V77.9894L223.108 64.0168H217.555V61.269H226.388V63.744Z" fill="#3C3C3B"/>
</svg>
