<svg width="274" height="150" viewBox="0 0 274 150" fill="none" xmlns="http://www.w3.org/2000/svg">
<rect width="274" height="150" rx="6.4" fill="white"/>
<path d="M22.6953 86.9949C22.9687 88.3438 23.2939 89.6927 23.6804 91.0369C31.1373 116.997 57.7736 130.363 83.5662 126.354C108.18 122.529 126.945 108.955 143.386 86.9949H22.6953Z" fill="#1D71B8"/>
<path d="M148.075 76.4575L150.258 73.3823L145.087 69.7129L142.914 72.7739L148.075 76.4575Z" fill="#87529C"/>
<path d="M233.254 42.9426C233.98 43.419 234.692 43.9095 235.38 44.4236L245.939 30.2929C244.935 29.543 243.902 28.8261 242.851 28.1375L233.254 42.9426Z" fill="#87529C"/>
<path d="M239.114 47.0592C238.784 46.7715 237.459 45.6112 237.11 45.333L241.074 40.3806C241.48 40.7013 241.866 41.0409 242.262 41.3711C242.654 41.706 243.031 42.0597 243.412 42.3993L239.114 47.0592Z" fill="#87529C"/>
<path d="M215.607 36.283C214.259 36.066 212.901 35.8915 211.539 35.8066L212.062 28.3828C213.655 28.4819 215.239 28.6847 216.818 28.9394L215.607 36.283Z" fill="#87529C"/>
<path d="M172.129 47.701L168.678 50.9412L163.46 45.6399L164.38 44.7343L165.313 43.857L166.246 42.9798L167.194 42.1355L172.129 47.701Z" fill="#87529C"/>
<path d="M207.754 35.4671C208.122 35.453 209.592 35.4719 209.96 35.4954L210.361 24.4494C209.903 24.4258 209.441 24.4211 208.979 24.4163C208.518 24.4163 208.06 24.3975 207.598 24.4163L207.754 35.4671Z" fill="#87529C"/>
<path d="M200.443 24.76L200.014 19.7652L200.995 19.685L200.679 15.1854L201.41 15.1289L201.113 10.1246C201.688 10.0963 202.263 10.0775 202.838 10.0586L203.017 15.0675L203.747 15.044L203.865 19.5529C204.191 19.5435 204.52 19.5246 204.846 19.5246L204.898 24.5383L205.963 24.543L205.864 35.4004L200.505 35.6504L199.373 24.8496C199.732 24.8119 200.09 24.7883 200.443 24.76Z" fill="#87529C"/>
<path d="M183.852 40.5411C184.427 40.2298 186.746 39.0978 187.33 38.8431L177.62 16.1755C177.059 17.515 176.56 18.8687 176.098 20.1846C175.659 21.5429 175.254 22.8683 174.91 24.1983L183.852 40.5411Z" fill="#87529C"/>
<path d="M189.432 38.0991C189.838 37.9245 191.907 37.1793 191.907 37.1793L189.889 31.1658L189.154 31.4063C188.909 31.4912 188.673 31.5903 188.433 31.6799C187.952 31.8685 187.467 32.0383 186.995 32.2411L189.432 38.0991Z" fill="#87529C"/>
<path d="M156.075 50.3285L151.974 46.8383C152.596 46.1214 155.085 43.2537 155.731 42.5557L159.714 46.1827L160.463 45.3667L167.623 51.9981C166.011 53.7244 164.413 55.5733 162.815 57.474L155.344 51.1916C155.589 50.9039 155.83 50.6115 156.075 50.3285Z" fill="#87529C"/>
<path d="M178.7 43.0789C179.605 42.4705 180.514 41.9375 181.419 41.4045L178.021 35.4004C176.979 36.0088 175.933 36.6267 174.915 37.3106L178.7 43.0789Z" fill="#87529C"/>
<path d="M174.382 46.3518C174.382 46.3518 176.39 44.8047 176.795 44.5029L168.424 33.0417C167.406 33.7681 166.435 34.551 165.45 35.3245L174.382 46.3518Z" fill="#87529C"/>
<path d="M147.75 54.2566C146.704 54.6858 145.46 54.5584 144.507 53.8085C143.277 52.8416 142.933 51.1484 143.64 49.79L137.074 43.6963L144.456 48.7713C145.629 47.7902 147.359 47.7431 148.571 48.7382C149.509 49.507 149.905 50.7003 149.716 51.8087C153.77 54.0349 157.8 56.2847 161.802 58.5769L156.956 64.6282C153.873 61.1899 150.8 57.7326 147.75 54.2566Z" fill="#87529C"/>
<path d="M220.811 27.0994C221.075 27.1607 221.315 27.2787 221.518 27.439C221.72 27.6041 221.881 27.8163 222.003 28.0522C222.243 28.5238 222.305 29.0992 222.144 29.6794L220.028 37.306L216.908 36.5655L218.458 28.7974C218.576 28.2125 218.892 27.722 219.316 27.4107C219.745 27.09 220.278 26.9721 220.811 27.0994Z" fill="#87529C"/>
<path d="M143.423 60.8181C144.309 59.5635 146.044 59.2758 147.298 60.1672L155.584 66.0628L152.388 70.5765L144.088 64.6998C142.834 63.8083 142.537 62.0727 143.423 60.8181Z" fill="#87529C"/>
<path d="M192.072 25.3488C191.926 24.6602 192.053 23.9622 192.397 23.4151C192.746 22.8821 193.312 22.4859 193.991 22.3586C194.669 22.2171 195.343 22.434 195.848 22.8302C196.357 23.2264 196.71 23.8254 196.805 24.5282L197.427 24.4433C197.634 24.4197 197.846 24.4055 198.054 24.3867L199.208 35.8148C198.756 35.8384 193.618 36.7817 193.618 36.7817L190.851 25.6318L192.072 25.3488Z" fill="#87529C"/>
<path d="M221.221 37.2968C221.697 36.6507 222.182 36.0281 222.682 35.4055C223.181 34.7829 223.695 34.1651 224.223 33.5519C224.746 32.9482 225.284 32.3492 225.84 31.7549C226.391 31.1606 226.962 30.5664 227.532 29.9957C227.179 29.8542 226.816 29.7362 226.453 29.6089L227.749 25.8876C228.069 26.0008 228.395 26.1045 228.715 26.2272L229.672 26.595C230.205 25.7366 230.742 24.8782 231.289 24.0293C231.836 23.1803 232.392 22.3407 232.957 21.5012C232.698 21.3927 232.439 21.2795 232.175 21.1805L233.037 19.0203C233.448 19.176 233.844 19.3552 234.249 19.5203C235.932 16.8083 237.685 14.1199 239.495 11.488C238.722 14.6009 237.883 17.6855 236.978 20.7418L238.369 21.4352L237.313 23.5057L236.351 23.0246C235.842 24.9867 235.3 26.9346 234.72 28.8637C235.06 29.0288 235.385 29.2127 235.715 29.3919C236.045 29.5712 236.379 29.7457 236.705 29.9343L234.763 33.3633C234.376 33.1463 233.98 32.9388 233.589 32.7218C233.537 33.5378 233.471 34.349 233.391 35.1508C233.316 35.9526 233.212 36.7639 233.103 37.5562C232.99 38.3533 232.873 39.1363 232.731 39.9239C232.59 40.7116 232.434 41.4945 232.264 42.268L232.222 42.3341L231.656 41.9756C231.03 39.6079 230.139 37.2166 228.993 34.849C226.467 35.5611 224.077 36.4762 221.852 37.561C221.635 37.4902 221.419 37.4242 221.197 37.3676L221.221 37.2968Z" fill="#87529C"/>
<path d="M252.82 43.9509L254.843 42.2671C254.301 41.5926 253.707 40.9653 253.136 40.3145C252.533 39.6966 251.953 39.0551 251.322 38.4656L249.488 40.3522L248.781 39.6683L240.947 48.059C242.224 49.2523 243.403 50.5257 244.482 51.8794L253.447 44.7055L252.82 43.9509Z" fill="#87529C"/>
<path d="M235.082 53.5499L228.828 55.4648L224.698 60.1153L221.441 66.6383L223.619 66.2704L226.749 63.4027C227.418 62.7896 228.455 62.8368 229.068 63.5065C229.681 64.1763 229.634 65.2139 228.964 65.827L225.486 69.0107C225.274 69.2041 224.878 69.3833 224.585 69.4352L218.514 70.4587C218.382 70.4822 218.255 70.4822 218.128 70.4728C218.986 71.6897 219.16 73.3263 218.448 74.7507C217.416 76.8165 214.908 77.6514 212.844 76.6184C210.779 75.5855 209.945 73.0763 210.977 71.0105C211.703 69.5578 213.164 68.7135 214.682 68.7041C214.192 68.1146 214.069 67.2703 214.432 66.5392L215.271 64.8554L212.476 61.1152C211.934 60.3889 212.08 59.3607 212.806 58.8183C213.532 58.2759 214.56 58.4221 215.102 59.1484L216.912 61.568L218.604 58.1863L217.303 52.3661C217.228 51.9652 217.279 51.4369 217.359 51.2011L219.646 44.4706C220.013 43.3953 221.177 42.8199 222.252 43.183C223.327 43.5509 223.902 44.7159 223.539 45.7913L221.432 51.9888L222.582 56.2949L226.108 52.3236C226.344 52.0548 226.735 51.8001 227.084 51.6869L233.876 49.6069C234.96 49.2768 236.11 49.8852 236.445 50.9747C236.779 52.0689 236.171 53.2198 235.082 53.5499Z" fill="#F39200"/>
<path d="M251.029 83.9854L246.113 80.8867L240.593 80.8065L234.319 82.396L235.828 83.6506L239.57 84.0939C240.367 84.1882 240.942 84.9146 240.843 85.7117C240.749 86.5088 240.023 87.0842 239.226 86.9851L235.069 86.4899C234.819 86.4616 234.465 86.2965 234.258 86.1314L230.049 82.6365C229.959 82.561 229.884 82.4761 229.818 82.3865C229.497 83.6694 228.498 84.7353 227.131 85.0844C225.147 85.589 223.129 84.3863 222.625 82.396C222.121 80.4103 223.327 78.3916 225.312 77.887C226.712 77.5332 228.121 78.0285 229.012 79.0425C229.125 78.3728 229.62 77.7974 230.322 77.6181L231.939 77.2078L232.83 73.1563C233.004 72.3686 233.782 71.8734 234.564 72.0479C235.352 72.2224 235.846 73.0006 235.672 73.7836L235.092 76.406L238.345 75.5806L241.503 71.331C241.729 71.048 242.111 70.7745 242.318 70.6943L248.168 68.3313C249.101 67.954 250.166 68.4068 250.543 69.3406C250.92 70.2745 250.468 71.3404 249.535 71.7178L244.147 73.8968L241.918 77.1701L246.631 77.2408C246.947 77.2455 247.348 77.3587 247.626 77.5285L252.961 80.8961C253.815 81.4338 254.069 82.561 253.532 83.4147C253.009 84.2684 251.882 84.5231 251.029 83.9854Z" fill="#F39200"/>
<path d="M246.372 107.148L244.505 102.984L240.932 100.526L236.143 98.8331L236.586 100.309L238.839 102.229C239.32 102.639 239.377 103.361 238.967 103.842C238.557 104.323 237.835 104.38 237.355 103.969L234.852 101.838C234.701 101.71 234.541 101.446 234.479 101.253L233.249 97.1352C233.221 97.0455 233.211 96.9606 233.207 96.871C232.438 97.5691 231.321 97.8332 230.275 97.4653C228.757 96.9276 227.96 95.2627 228.498 93.7487C229.035 92.23 230.699 91.4329 232.212 91.9706C233.282 92.3479 233.989 93.2865 234.131 94.3383C234.498 93.9468 235.069 93.7864 235.606 93.9798L236.841 94.4184L239.183 92.1592C239.641 91.7206 240.362 91.7348 240.8 92.1875C241.239 92.6403 241.224 93.3667 240.772 93.8053L239.254 95.2674L241.738 96.1447L245.65 94.7392C245.919 94.6496 246.291 94.6401 246.461 94.6779L251.311 95.6778C252.084 95.8381 252.584 96.5975 252.424 97.371C252.264 98.1445 251.505 98.6445 250.732 98.4841L246.263 97.5644L243.383 98.7341L246.433 100.833C246.64 100.974 246.848 101.22 246.956 101.455L248.983 105.979C249.308 106.7 248.983 107.549 248.262 107.875C247.545 108.195 246.697 107.87 246.372 107.148Z" fill="#F39200"/>
<path d="M230.949 123.836L231.557 119.911L230.11 116.431L227.414 112.931L227.041 114.219L227.782 116.685C227.937 117.214 227.64 117.765 227.112 117.926C226.584 118.081 226.033 117.784 225.873 117.256L225.052 114.516C225.001 114.351 225.01 114.082 225.057 113.912L226.099 110.323C226.122 110.247 226.155 110.177 226.193 110.11C225.302 110.257 224.364 109.922 223.775 109.158C222.922 108.049 223.125 106.46 224.232 105.601C225.34 104.748 226.928 104.951 227.786 106.059C228.39 106.837 228.46 107.861 228.069 108.691C228.522 108.578 229.012 108.733 229.313 109.125L230.011 110.026L232.787 109.483C233.325 109.379 233.848 109.728 233.952 110.271C234.055 110.809 233.706 111.332 233.164 111.436L231.364 111.785L232.764 113.601L236.285 114.426C236.525 114.492 236.799 114.657 236.907 114.766L239.975 117.789C240.466 118.27 240.47 119.062 239.99 119.553C239.509 120.043 238.717 120.048 238.227 119.567L235.399 116.784L232.745 116.275L233.98 119.251C234.065 119.449 234.102 119.732 234.069 119.954L233.409 124.213C233.306 124.892 232.669 125.359 231.986 125.255C231.307 125.151 230.841 124.515 230.949 123.836Z" fill="#F39200"/>
<path d="M214.494 129.817L216.257 127.175L216.38 124.162L215.602 120.709L214.895 121.516L214.598 123.553C214.537 123.987 214.131 124.289 213.698 124.228C213.264 124.166 212.962 123.761 213.024 123.327L213.353 121.063C213.372 120.926 213.467 120.733 213.561 120.624L215.526 118.374C215.569 118.327 215.616 118.285 215.668 118.252C214.975 118.058 214.405 117.497 214.235 116.742C213.99 115.648 214.673 114.563 215.767 114.318C216.86 114.073 217.944 114.757 218.19 115.851C218.364 116.62 218.072 117.384 217.506 117.856C217.869 117.926 218.175 118.205 218.265 118.591L218.468 119.483L220.664 120.025C221.093 120.129 221.352 120.563 221.244 120.987C221.14 121.416 220.707 121.676 220.282 121.567L218.859 121.214L219.264 123.001L221.541 124.789C221.692 124.916 221.838 125.128 221.88 125.242L223.087 128.472C223.28 128.987 223.016 129.562 222.502 129.755C221.989 129.949 221.414 129.685 221.22 129.17L220.108 126.194L218.355 124.93L218.251 127.506C218.246 127.68 218.175 127.897 218.081 128.043L216.167 130.911C215.861 131.368 215.244 131.491 214.786 131.189C214.315 130.892 214.188 130.274 214.494 129.817Z" fill="#F39200"/>
<path d="M198.251 129.156L200.48 127.661L201.55 125.345L202.055 122.402L201.244 122.803L200.358 124.298C200.169 124.619 199.755 124.723 199.439 124.534C199.118 124.345 199.014 123.93 199.203 123.614L200.188 121.954C200.249 121.855 200.381 121.737 200.49 121.68L202.752 120.558C202.799 120.534 202.851 120.52 202.903 120.506C202.422 120.129 202.158 119.511 202.272 118.865C202.432 117.931 203.318 117.308 204.247 117.469C205.18 117.629 205.802 118.516 205.642 119.445C205.529 120.1 205.057 120.605 204.459 120.789C204.718 120.963 204.869 121.279 204.812 121.61L204.68 122.369L206.222 123.506C206.518 123.727 206.584 124.147 206.363 124.444C206.141 124.741 205.722 124.807 205.425 124.586L204.426 123.85L204.162 125.378L205.364 127.505C205.439 127.651 205.481 127.868 205.481 127.967L205.382 130.878C205.368 131.345 204.977 131.708 204.51 131.694C204.044 131.679 203.681 131.288 203.695 130.821L203.785 128.142L202.823 126.59L201.909 128.566C201.847 128.699 201.725 128.845 201.602 128.934L199.184 130.557C198.798 130.816 198.274 130.713 198.015 130.326C197.761 129.939 197.864 129.415 198.251 129.156Z" fill="#F39200"/>
<path d="M42.5773 44.0978C48.5117 44.3761 54.4272 43.0508 54.4272 43.0508C54.4272 43.0508 50.2321 50.8 44.5853 52.6442C39.3957 54.3374 34.6727 52.3895 33.5697 50.1397C34.9131 50.3142 36.2659 50.3661 37.6092 50.3142C37.6281 50.3142 37.6469 50.3142 37.6658 50.3095C38.1749 50.8425 38.7358 51.3424 39.391 51.7056C39.7586 51.9131 40.1546 52.0735 40.5599 52.1725C40.9653 52.2763 41.3848 52.3187 41.7949 52.3187C41.8797 52.3187 41.9457 52.2527 41.9457 52.1678C41.9457 52.0876 41.8844 52.0263 41.809 52.0169C41.4178 51.9791 41.0407 51.9037 40.6778 51.7716C40.3148 51.6443 39.9802 51.4651 39.6643 51.2528C39.2543 50.9698 38.8913 50.6255 38.5614 50.2482C39.8482 50.1491 41.1208 49.9605 42.3746 49.6775C42.78 49.5879 43.1854 49.4841 43.586 49.3756C44.0998 49.7294 44.6654 50.0359 45.2829 50.1963C45.9051 50.3661 46.5556 50.3661 47.1636 50.2576C47.2437 50.2435 47.3003 50.168 47.2862 50.0831C47.272 50.0076 47.206 49.9558 47.1306 49.9605C46.5414 49.9888 45.9664 49.9086 45.4479 49.6964C45.0897 49.5549 44.7597 49.3521 44.4533 49.1209C45.297 48.8521 46.1313 48.5455 46.9374 48.1824C47.1542 48.0833 47.371 47.9843 47.5878 47.8758C47.9131 48.0031 48.243 48.088 48.5777 48.1352C48.7474 48.1588 48.9171 48.1729 49.0867 48.1776C49.2564 48.1824 49.4261 48.1776 49.6005 48.1541C49.6665 48.1446 49.7136 48.0833 49.7042 48.0173C49.6948 47.9607 49.6477 47.9182 49.5911 47.9135H49.5864C49.4356 47.9088 49.28 47.8805 49.1245 47.8475C48.9689 47.8145 48.8181 47.772 48.672 47.7249C48.5211 47.673 48.375 47.6164 48.2336 47.5503C49.2234 47.0268 50.1756 46.4231 51.057 45.7298C51.1466 45.659 51.1654 45.527 51.09 45.4326C51.0193 45.343 50.892 45.3289 50.8025 45.3949C49.7938 46.1354 48.7097 46.758 47.5737 47.2768C47.6161 46.9891 47.7151 46.6967 47.8518 46.4231C48.0498 46.0363 48.3184 45.6732 48.6295 45.3572C48.6767 45.31 48.6767 45.2345 48.6295 45.1874C48.5871 45.1449 48.5164 45.1402 48.4693 45.1779C48.0969 45.4656 47.7622 45.8099 47.4889 46.2108C47.2296 46.5976 47.0175 47.041 46.9562 47.5503C46.8714 47.5834 46.7912 47.6211 46.7064 47.6588C45.6176 48.0975 44.4957 48.4512 43.3551 48.7248C43.4729 48.272 43.6379 47.838 43.883 47.4466C44.1799 46.9655 44.5994 46.5646 45.0897 46.2391C45.1604 46.192 45.1792 46.1024 45.1321 46.0316C45.0897 45.9656 45.0048 45.9467 44.9388 45.9797C44.3873 46.2533 43.8594 46.6353 43.4588 47.14C43.0487 47.64 42.7706 48.2295 42.5632 48.8238C42.5538 48.8521 42.549 48.8757 42.5443 48.904C42.4359 48.9276 42.3275 48.9511 42.2191 48.97C40.8097 49.2389 39.3768 49.3851 37.9439 49.4181C38.123 48.7436 38.3587 48.0833 38.7216 47.5032C38.9243 47.1825 39.1647 46.8853 39.4475 46.6259C39.7256 46.3665 40.0461 46.1401 40.3902 45.9562C40.4609 45.9184 40.4892 45.8241 40.4515 45.7533C40.4138 45.6826 40.329 45.659 40.2583 45.6873C39.8812 45.8477 39.5135 46.0552 39.1789 46.3099C38.8442 46.5646 38.5472 46.8712 38.288 47.206C37.7742 47.8758 37.4348 48.6493 37.1662 49.4275C35.8699 49.4134 34.5784 49.3002 33.3152 49.0691C33.4519 46.5787 37.958 43.8856 42.5773 44.0978Z" fill="#95C11F"/>
<path d="M35.6577 59.1398C41.493 60.2434 47.5405 59.7576 47.5405 59.7576C47.5405 59.7576 42.3085 66.8466 36.459 67.8795C31.0855 68.8322 26.6783 66.2428 25.9006 63.861C27.2062 64.2242 28.5402 64.46 29.8788 64.5968C29.8977 64.5968 29.9165 64.6015 29.9354 64.6015C30.3643 65.2005 30.8498 65.7712 31.4484 66.2287C31.7831 66.4834 32.1555 66.7004 32.542 66.856C32.9332 67.0164 33.3386 67.1154 33.744 67.1767C33.8241 67.1862 33.9042 67.1296 33.9136 67.0494C33.9231 66.9739 33.8712 66.8984 33.8005 66.8843C33.4187 66.7947 33.0558 66.6626 32.7164 66.4834C32.377 66.3042 32.0659 66.0825 31.7878 65.8278C31.4202 65.4929 31.1138 65.0967 30.8357 64.677C32.1225 64.7571 33.4093 64.7477 34.6914 64.644C35.1062 64.6109 35.521 64.5685 35.931 64.5119C36.393 64.9317 36.9115 65.3137 37.5007 65.559C38.0946 65.8136 38.7403 65.9033 39.3531 65.8844C39.4379 65.8844 39.4992 65.8137 39.4992 65.7288C39.4992 65.6533 39.4379 65.592 39.3625 65.5825C38.778 65.5259 38.2171 65.3703 37.7316 65.0873C37.397 64.8939 37.1 64.6487 36.8266 64.3751C37.6986 64.2289 38.5659 64.0402 39.4191 63.795C39.65 63.7289 39.8763 63.6582 40.1073 63.5827C40.4089 63.7525 40.7294 63.8846 41.05 63.9789C41.2149 64.0261 41.3799 64.0638 41.5496 64.0921C41.7193 64.1204 41.8843 64.1393 42.0634 64.1393C42.1294 64.1393 42.1812 64.0874 42.1812 64.0167C42.1812 63.9601 42.1388 63.9082 42.0822 63.8987H42.0775C41.9314 63.8704 41.7759 63.8233 41.6297 63.7714C41.4836 63.7195 41.3375 63.6535 41.2008 63.5827C41.0594 63.512 40.9227 63.4318 40.7907 63.3469C41.8466 62.9649 42.8694 62.5027 43.8404 61.9367C43.9394 61.8801 43.9724 61.748 43.9158 61.649C43.8592 61.5499 43.732 61.5169 43.633 61.5688C42.5347 62.1583 41.3705 62.6253 40.1732 62.9837C40.2534 62.7055 40.3948 62.4319 40.5692 62.1772C40.819 61.8188 41.1348 61.498 41.4883 61.2292C41.5402 61.1867 41.5496 61.116 41.5119 61.0594C41.4742 61.0122 41.4082 60.9981 41.3563 61.0264C40.9463 61.2622 40.5692 61.5546 40.2392 61.9131C39.9281 62.2574 39.6548 62.6724 39.5275 63.163C39.4379 63.1865 39.3531 63.2101 39.2635 63.2337C38.1276 63.5167 36.9633 63.7101 35.7991 63.8186C35.9782 63.3894 36.2044 62.979 36.5014 62.6253C36.8596 62.1914 37.331 61.8518 37.8636 61.5971C37.939 61.5593 37.972 61.4697 37.9343 61.399C37.9013 61.3282 37.8212 61.2952 37.7505 61.3188C37.166 61.5122 36.5909 61.8188 36.1196 62.2574C35.6482 62.696 35.2853 63.2384 34.9978 63.7997C34.9836 63.8233 34.9742 63.8516 34.9695 63.8752C34.8611 63.8799 34.7479 63.8893 34.6395 63.894C33.2066 63.9601 31.7643 63.9082 30.3408 63.7384C30.6094 63.0922 30.9394 62.4744 31.3825 61.9508C31.6276 61.6584 31.9104 61.399 32.2215 61.182C32.5373 60.9651 32.8814 60.7858 33.249 60.6491C33.3244 60.6208 33.3669 60.5359 33.3386 60.4557C33.3103 60.3849 33.2302 60.3425 33.1595 60.3614C32.7635 60.4698 32.3723 60.6208 32.0046 60.8283C31.637 61.0358 31.2976 61.2952 31.0007 61.5876C30.3973 62.1819 29.9543 62.8988 29.5772 63.6299C28.2951 63.4365 27.0318 63.1441 25.811 62.7338C26.2777 60.3189 31.1138 58.2767 35.6577 59.1398Z" fill="#95C11F"/>
<path d="M50.0481 34.0434C53.555 29.2467 58.2969 25.4641 58.2969 25.4641C58.2969 25.4641 49.6333 23.8699 44.6558 27.1149C40.0837 30.0957 38.6366 34.9962 39.6924 37.2695C40.3995 36.114 41.2102 35.0292 42.0916 34.0151C42.1058 34.001 42.1199 33.9868 42.1294 33.9727C42.0304 33.2416 41.9974 32.4917 42.1246 31.7512C42.1953 31.3361 42.3179 30.9258 42.4923 30.5438C42.6667 30.1617 42.8929 29.808 43.1522 29.4873C43.204 29.4212 43.2983 29.4118 43.3643 29.4637C43.4256 29.5108 43.435 29.6005 43.3926 29.6618C43.1758 29.9872 42.9966 30.3362 42.8741 30.6947C42.7468 31.0579 42.6714 31.4305 42.6431 31.8125C42.6054 32.3077 42.6478 32.8077 42.7327 33.3029C43.6141 32.3643 44.5615 31.4871 45.5702 30.6853C45.8955 30.4259 46.2301 30.1759 46.5648 29.9306C46.6119 29.308 46.7298 28.676 46.9937 28.0912C47.253 27.5016 47.6631 26.9922 48.125 26.5866C48.1863 26.53 48.2805 26.5394 48.3371 26.6008C48.389 26.6574 48.3842 26.7422 48.3371 26.7988C47.9459 27.2375 47.6442 27.7374 47.484 28.2751C47.3708 28.643 47.319 29.025 47.3096 29.4118C48.0496 28.9213 48.8085 28.4685 49.6003 28.0629C49.8125 27.9544 50.0293 27.8506 50.2461 27.7469C50.3498 27.412 50.4912 27.1007 50.6656 26.813C50.7552 26.6668 50.8494 26.5253 50.9531 26.3885C51.0568 26.2517 51.1652 26.1244 51.2925 26.0018C51.3396 25.9546 51.4151 25.9593 51.4622 26.0065C51.5046 26.0489 51.5046 26.115 51.4716 26.1621L51.4669 26.1668C51.3774 26.2895 51.2972 26.4262 51.2312 26.5677C51.1605 26.7092 51.0993 26.8507 51.0427 26.9969C50.9861 27.1479 50.939 27.2988 50.906 27.4497C51.9383 27.0064 53.0035 26.6432 54.0971 26.3932C54.2102 26.3649 54.3233 26.4357 54.3469 26.5489C54.3705 26.6574 54.3045 26.7705 54.1961 26.7988C52.9894 27.1196 51.8204 27.5771 50.708 28.1336C50.9578 28.2798 51.2454 28.3883 51.547 28.4496C51.9713 28.5392 52.4238 28.5581 52.8668 28.5109C52.9328 28.5062 52.9941 28.5534 52.9988 28.6194C53.0035 28.6807 52.9658 28.7373 52.9093 28.7468C52.452 28.8553 51.9713 28.9024 51.4905 28.8647C51.0285 28.827 50.5478 28.709 50.1141 28.4402C50.034 28.4826 49.9539 28.5251 49.8737 28.5675C48.8462 29.1382 47.8705 29.7891 46.9419 30.5107C47.3661 30.7041 47.8092 30.8456 48.2664 30.9022C48.8226 30.973 49.4024 30.8975 49.9633 30.7183C50.0434 30.6947 50.1283 30.7371 50.1518 30.8173C50.1754 30.8881 50.1377 30.9683 50.0717 31.0013C49.5155 31.2607 48.8839 31.4305 48.2381 31.4305C47.5924 31.4352 46.9607 31.2843 46.3621 31.072C46.3338 31.0626 46.3103 31.0484 46.2867 31.0343C46.2019 31.105 46.117 31.1758 46.0322 31.2465C44.9386 32.1804 43.9252 33.1992 43.0014 34.2981C43.6377 34.5858 44.3023 34.8122 44.9811 34.8924C45.3581 34.9396 45.7399 34.9348 46.1217 34.8782C46.4988 34.8216 46.8759 34.7132 47.2341 34.567C47.3096 34.5339 47.3991 34.5717 47.4321 34.6471C47.4604 34.7179 47.4321 34.8028 47.3661 34.8358C47.0032 35.0292 46.6119 35.1848 46.2066 35.2839C45.7965 35.3829 45.3723 35.4254 44.9528 35.4159C44.109 35.3971 43.2936 35.1754 42.5159 34.8971C41.7146 35.9159 40.9934 36.9912 40.3806 38.1232C42.3933 39.5948 47.319 37.7742 50.0481 34.0434Z" fill="#95C11F"/>
<path d="M33.1074 33.5338C30.9014 28.0155 30.218 21.9878 30.218 21.9878C30.218 21.9878 24.2742 28.4872 24.3826 34.43C24.4816 39.887 27.8659 43.7168 30.3546 44.0234C29.7513 42.8112 29.2611 41.5472 28.8699 40.2596C28.8652 40.2407 28.8604 40.2219 28.8557 40.203C28.1864 39.8964 27.5312 39.5285 26.9703 39.0286C26.6545 38.7456 26.3717 38.4249 26.1454 38.0758C25.9145 37.7221 25.7354 37.3448 25.6034 36.9533C25.5751 36.8731 25.6175 36.7882 25.6977 36.7646C25.7731 36.7411 25.8532 36.7741 25.8815 36.8448C26.0417 37.2033 26.2397 37.5334 26.4801 37.8353C26.7205 38.1324 26.9986 38.3966 27.305 38.623C27.7056 38.9154 28.1487 39.1465 28.6153 39.3399C28.2854 38.0947 28.0497 36.826 27.9036 35.5478C27.8565 35.1327 27.8188 34.7177 27.7952 34.3026C27.2908 33.93 26.8195 33.4961 26.466 32.9631C26.103 32.4302 25.8909 31.8123 25.7919 31.2039C25.7778 31.1237 25.8343 31.0435 25.9145 31.0294C25.9899 31.0152 26.0606 31.0624 26.0842 31.1331C26.2491 31.6991 26.5131 32.2179 26.8855 32.6424C27.1353 32.9348 27.437 33.1801 27.7575 33.3923C27.7339 32.5056 27.7528 31.6189 27.8282 30.7369C27.847 30.4964 27.8753 30.2606 27.9036 30.02C27.6773 29.7559 27.4888 29.4682 27.3333 29.1663C27.2531 29.0154 27.1871 28.8598 27.1259 28.6994C27.0646 28.539 27.0127 28.3787 26.9797 28.2042C26.9656 28.1381 27.008 28.0768 27.074 28.0627C27.1306 28.0532 27.1871 28.0815 27.2107 28.1381V28.1428C27.2673 28.2843 27.3427 28.4211 27.4228 28.5579C27.5029 28.69 27.5925 28.822 27.6868 28.9447C27.7858 29.072 27.8895 29.1899 27.9979 29.3031C28.1676 28.1947 28.4268 27.0958 28.7945 26.0393C28.8322 25.9308 28.95 25.8695 29.0631 25.9072C29.1715 25.945 29.2281 26.0581 29.1951 26.1666C28.8275 27.3599 28.5965 28.5909 28.4739 29.8361C28.7332 29.704 28.9736 29.5154 29.1904 29.2937C29.4921 28.9824 29.7466 28.6098 29.9446 28.2089C29.9728 28.1476 30.0436 28.124 30.1048 28.1523C30.1614 28.1806 30.185 28.2419 30.1661 28.2985C30.0153 28.7466 29.7984 29.1758 29.5109 29.5672C29.2328 29.9398 28.8793 30.2842 28.4221 30.5058C28.4174 30.5954 28.4079 30.6898 28.4032 30.7794C28.342 31.9538 28.375 33.1282 28.4928 34.2932C28.8793 34.0338 29.2375 33.7366 29.5298 33.3782C29.888 32.9443 30.1284 32.4113 30.2745 31.8453C30.2934 31.7651 30.3782 31.718 30.4583 31.7368C30.5338 31.7557 30.5809 31.8265 30.5715 31.9019C30.4961 32.5151 30.3028 33.1376 29.9634 33.6848C29.624 34.2319 29.1621 34.6941 28.6672 35.0856C28.6436 35.1044 28.6201 35.1186 28.5965 35.128C28.6106 35.2365 28.6248 35.345 28.6389 35.4535C28.8463 36.8778 29.1763 38.2787 29.6146 39.6417C30.1944 39.255 30.7412 38.8116 31.1701 38.2786C31.4105 37.9815 31.6085 37.6561 31.764 37.307C31.9195 36.958 32.0232 36.5807 32.0892 36.1987C32.1034 36.1185 32.1788 36.0619 32.2636 36.076C32.3391 36.0902 32.3956 36.1609 32.3909 36.2364C32.3626 36.6467 32.2872 37.0618 32.1552 37.458C32.0232 37.8589 31.8347 38.2409 31.6037 38.5947C31.1371 39.3021 30.5196 39.8776 29.8739 40.3869C30.3122 41.6085 30.8401 42.7924 31.4765 43.9102C33.7531 42.9716 34.8231 37.8306 33.1074 33.5338Z" fill="#95C11F"/>
<path d="M22.5916 46.4893C19.1319 41.6596 17.0202 35.9714 17.0202 35.9714C17.0202 35.9714 12.8063 43.7065 14.3335 49.4512C15.7381 54.729 19.9379 57.6344 22.4266 57.3373C21.5499 56.3043 20.7722 55.196 20.084 54.0404C20.0746 54.0216 20.0651 54.0074 20.0557 53.9885C19.3345 53.8518 18.6087 53.6489 17.944 53.2999C17.5717 53.1018 17.2229 52.8566 16.9118 52.5736C16.6054 52.2859 16.3367 51.9604 16.1152 51.6161C16.068 51.5454 16.0916 51.4558 16.1576 51.4086C16.2236 51.3662 16.3084 51.3803 16.3556 51.4416C16.596 51.7482 16.8694 52.0265 17.1757 52.2576C17.4774 52.4887 17.8121 52.6773 18.1656 52.8236C18.6228 53.0122 19.113 53.1301 19.6079 53.2009C18.9905 52.0689 18.4578 50.8945 18.01 49.6871C17.8639 49.2956 17.7319 48.9041 17.6047 48.5079C17.0296 48.2674 16.464 47.9561 15.9926 47.5269C15.5118 47.093 15.1583 46.5506 14.9179 45.9799C14.8849 45.9044 14.9179 45.8148 14.9981 45.7818C15.0688 45.7535 15.1489 45.7818 15.1866 45.8431C15.4836 46.3525 15.8606 46.7911 16.3226 47.1166C16.6384 47.3382 16.9825 47.5033 17.3501 47.6401C17.1145 46.7864 16.9212 45.9186 16.7845 45.0413C16.7468 44.8055 16.7138 44.5649 16.6855 44.3291C16.4027 44.1263 16.1482 43.8952 15.9314 43.6405C15.8182 43.5131 15.7145 43.3764 15.6203 43.2349C15.526 43.0934 15.4364 42.9519 15.361 42.7915C15.3327 42.7302 15.361 42.6595 15.4176 42.6312C15.4694 42.6076 15.5354 42.6217 15.5684 42.6689L15.5731 42.6736C15.658 42.7962 15.7664 42.9142 15.8795 43.0226C15.9926 43.1311 16.1058 43.2396 16.2283 43.3339C16.3509 43.433 16.4828 43.5226 16.6148 43.6075C16.5158 42.4897 16.5064 41.3624 16.6054 40.2446C16.6148 40.1314 16.7185 40.0418 16.8316 40.0559C16.9448 40.0654 17.0296 40.1644 17.0202 40.2776C16.9495 41.5228 17.0202 42.7774 17.1993 44.0131C17.4161 43.8244 17.6094 43.5792 17.7602 43.3151C17.977 42.9377 18.1373 42.518 18.2316 42.0793C18.2457 42.0133 18.3117 41.9756 18.373 41.985C18.4343 41.9991 18.472 42.051 18.4672 42.1123C18.4295 42.584 18.3211 43.0509 18.1373 43.499C17.9582 43.9282 17.6942 44.348 17.303 44.6734C17.3171 44.763 17.336 44.8526 17.3501 44.9423C17.5717 46.0931 17.8875 47.2298 18.2787 48.3334C18.5945 47.9891 18.8679 47.6118 19.0659 47.1968C19.3063 46.6874 19.4194 46.1167 19.4241 45.5271C19.4241 45.4422 19.4948 45.3762 19.5749 45.3762C19.6503 45.3762 19.7163 45.4375 19.7211 45.5082C19.7918 46.1214 19.7588 46.7723 19.5561 47.3854C19.3581 47.9986 19.0187 48.5551 18.6322 49.0551C18.6134 49.0786 18.5945 49.0975 18.5757 49.1117C18.6181 49.2154 18.6558 49.3192 18.6982 49.4182C19.2403 50.7483 19.8955 52.0312 20.6496 53.2528C21.121 52.7339 21.5452 52.1774 21.8327 51.5548C21.993 51.2105 22.1108 50.8473 22.1768 50.47C22.2428 50.0927 22.2569 49.7059 22.2287 49.3145C22.224 49.2296 22.2852 49.1588 22.3654 49.1541C22.4408 49.1494 22.5115 49.2013 22.5256 49.2767C22.5963 49.6824 22.6199 50.1021 22.5869 50.5219C22.5539 50.9417 22.4643 51.3567 22.3229 51.7576C22.0401 52.5547 21.5782 53.2622 21.0691 53.9131C21.7856 54.9932 22.5822 56.0166 23.4683 56.9505C25.4763 55.4978 25.2878 50.2483 22.5916 46.4893Z" fill="#95C11F"/>
<path d="M186.505 89.9469C192.426 90.461 198.388 89.3762 198.388 89.3762C198.388 89.3762 193.887 96.951 188.174 98.5687C182.923 100.054 178.28 97.9178 177.267 95.6256C178.601 95.852 179.954 95.9605 181.297 95.9605C181.316 95.9605 181.335 95.9605 181.353 95.9605C181.839 96.5123 182.381 97.0311 183.022 97.4273C183.38 97.649 183.772 97.8235 184.172 97.9414C184.573 98.0593 184.992 98.1206 185.402 98.1395C185.487 98.1442 185.553 98.0782 185.558 97.9933C185.563 97.9131 185.501 97.8471 185.426 97.8377C185.039 97.7858 184.662 97.6914 184.304 97.55C183.951 97.4085 183.616 97.2198 183.314 96.9887C182.918 96.6915 182.57 96.3331 182.254 95.9416C183.541 95.8945 184.823 95.7577 186.091 95.5266C186.501 95.4511 186.906 95.3662 187.311 95.2719C187.811 95.6445 188.367 95.9746 188.975 96.1586C189.593 96.352 190.243 96.3755 190.851 96.2954C190.931 96.2859 190.993 96.2105 190.983 96.1256C190.974 96.0501 190.908 95.9935 190.832 95.9935C190.243 95.9982 189.673 95.8945 189.159 95.6633C188.81 95.5077 188.49 95.2907 188.188 95.0455C189.041 94.8144 189.885 94.5361 190.71 94.2107C190.931 94.121 191.153 94.0267 191.375 93.9324C191.695 94.0739 192.02 94.1729 192.355 94.2295C192.525 94.2578 192.694 94.2814 192.864 94.2908C193.034 94.3003 193.203 94.305 193.378 94.2861C193.444 94.2814 193.491 94.2201 193.486 94.1541C193.481 94.0975 193.434 94.0503 193.378 94.0456H193.373C193.222 94.0314 193.067 94.0031 192.916 93.9607C192.765 93.9229 192.614 93.8758 192.468 93.8192C192.317 93.7626 192.176 93.6966 192.034 93.6258C193.048 93.14 194.019 92.574 194.929 91.9184C195.023 91.8524 195.042 91.7203 194.976 91.626C194.91 91.5364 194.782 91.5128 194.688 91.5741C193.651 92.2722 192.539 92.8523 191.389 93.324C191.441 93.041 191.554 92.7532 191.704 92.4844C191.917 92.1071 192.199 91.7533 192.525 91.4468C192.572 91.3996 192.576 91.3241 192.529 91.277C192.487 91.2345 192.421 91.2251 192.374 91.2628C191.992 91.5364 191.643 91.8665 191.351 92.2533C191.073 92.6259 190.847 93.0645 190.766 93.5692C190.682 93.6022 190.597 93.6352 190.512 93.6635C189.409 94.0597 188.273 94.3663 187.123 94.5927C187.26 94.1446 187.439 93.7154 187.703 93.3334C188.018 92.8664 188.452 92.4797 188.956 92.1778C189.027 92.1354 189.051 92.0411 189.008 91.9703C188.971 91.9043 188.886 91.8807 188.82 91.909C188.259 92.159 187.717 92.5221 187.293 93.0079C186.864 93.4937 186.562 94.0692 186.331 94.654C186.322 94.6823 186.312 94.7059 186.312 94.7342C186.204 94.7531 186.095 94.7719 185.987 94.7861C184.568 94.9983 183.131 95.0879 181.698 95.0596C181.9 94.3899 182.164 93.7437 182.551 93.173C182.768 92.857 183.017 92.574 183.31 92.324C183.602 92.0741 183.927 91.8665 184.276 91.692C184.351 91.6543 184.38 91.5647 184.347 91.4892C184.314 91.4185 184.229 91.3902 184.158 91.4138C183.772 91.56 183.399 91.7533 183.055 91.9939C182.711 92.2344 182.4 92.5269 182.131 92.8523C181.589 93.5032 181.217 94.2625 180.92 95.0266C179.624 94.9606 178.337 94.7955 177.083 94.5125C177.29 92.0599 181.9 89.546 186.505 89.9469Z" fill="#95C11F"/>
<path d="M186.011 103.294C191.832 104.473 197.884 104.068 197.884 104.068C197.884 104.068 192.558 111.086 186.699 112.048C181.316 112.93 176.942 110.289 176.192 107.893C177.493 108.27 178.822 108.525 180.156 108.68C180.175 108.68 180.194 108.685 180.213 108.685C180.632 109.289 181.113 109.869 181.707 110.331C182.042 110.591 182.405 110.812 182.791 110.973C183.178 111.138 183.583 111.246 183.988 111.307C184.069 111.322 184.149 111.265 184.158 111.18C184.168 111.105 184.12 111.029 184.045 111.01C183.668 110.916 183.3 110.779 182.966 110.6C182.626 110.421 182.32 110.194 182.042 109.93C181.679 109.591 181.377 109.194 181.104 108.77C182.391 108.869 183.677 108.874 184.959 108.789C185.374 108.761 185.789 108.723 186.204 108.676C186.656 109.105 187.175 109.492 187.759 109.746C188.349 110.006 188.994 110.105 189.607 110.095C189.692 110.095 189.758 110.025 189.753 109.944C189.753 109.869 189.692 109.808 189.616 109.798C189.032 109.737 188.476 109.572 187.99 109.279C187.66 109.086 187.363 108.836 187.095 108.558C187.971 108.421 188.839 108.242 189.697 108.011C189.928 107.949 190.159 107.879 190.385 107.808C190.686 107.982 191.002 108.119 191.323 108.213C191.488 108.261 191.653 108.303 191.818 108.331C191.987 108.36 192.152 108.383 192.331 108.388C192.397 108.388 192.454 108.336 192.454 108.27C192.454 108.213 192.412 108.162 192.36 108.152H192.355C192.209 108.124 192.058 108.072 191.912 108.02C191.766 107.963 191.624 107.897 191.483 107.827C191.342 107.756 191.205 107.671 191.078 107.586C192.138 107.218 193.17 106.765 194.146 106.214C194.245 106.157 194.283 106.03 194.226 105.926C194.17 105.827 194.047 105.789 193.948 105.841C192.841 106.416 191.672 106.869 190.47 107.209C190.554 106.931 190.696 106.657 190.875 106.407C191.13 106.053 191.45 105.737 191.808 105.473C191.86 105.435 191.874 105.36 191.832 105.303C191.794 105.256 191.728 105.242 191.676 105.27C191.262 105.497 190.88 105.789 190.55 106.143C190.234 106.482 189.956 106.893 189.819 107.383C189.73 107.407 189.645 107.431 189.555 107.449C188.415 107.718 187.25 107.897 186.081 107.992C186.265 107.563 186.496 107.157 186.798 106.808C187.161 106.379 187.637 106.044 188.174 105.799C188.25 105.766 188.283 105.676 188.25 105.601C188.217 105.53 188.136 105.497 188.066 105.52C187.477 105.704 186.901 106.006 186.425 106.44C185.945 106.874 185.582 107.412 185.285 107.968C185.271 107.992 185.261 108.02 185.256 108.044C185.148 108.048 185.035 108.053 184.926 108.058C183.489 108.11 182.051 108.034 180.632 107.846C180.911 107.204 181.245 106.591 181.693 106.067C181.943 105.78 182.226 105.525 182.541 105.308C182.857 105.091 183.206 104.921 183.574 104.789C183.654 104.761 183.692 104.676 183.663 104.596C183.635 104.52 183.56 104.483 183.484 104.502C183.083 104.605 182.692 104.752 182.325 104.954C181.957 105.157 181.613 105.412 181.306 105.704C180.698 106.289 180.241 107.001 179.859 107.728C178.582 107.515 177.319 107.209 176.107 106.784C176.616 104.355 181.481 102.379 186.011 103.294Z" fill="#95C11F"/>
<path d="M193.665 80.6605C197.908 76.5005 203.206 73.548 203.206 73.548C203.206 73.548 194.919 70.5577 189.48 72.9443C184.483 75.1374 182.254 79.736 182.928 82.1509C183.814 81.1274 184.79 80.1888 185.827 79.3304C185.841 79.3163 185.86 79.3068 185.874 79.2927C185.897 78.5569 185.987 77.8117 186.232 77.0995C186.369 76.6986 186.557 76.3166 186.793 75.9676C187.029 75.6185 187.311 75.3072 187.618 75.0337C187.679 74.9771 187.773 74.9865 187.83 75.0478C187.882 75.1044 187.877 75.194 187.825 75.2506C187.557 75.5383 187.326 75.8496 187.142 76.1845C186.958 76.5194 186.821 76.8778 186.732 77.2457C186.614 77.7268 186.571 78.2268 186.576 78.7314C187.599 77.9485 188.678 77.241 189.8 76.6137C190.163 76.4109 190.531 76.2175 190.903 76.0336C191.054 75.4252 191.271 74.8214 191.624 74.2885C191.978 73.7461 192.463 73.3169 192.987 72.9914C193.057 72.949 193.152 72.9678 193.194 73.0386C193.236 73.1046 193.218 73.1895 193.161 73.2367C192.704 73.6093 192.327 74.0479 192.077 74.5573C191.907 74.9016 191.794 75.2695 191.719 75.6515C192.525 75.2884 193.354 74.9629 194.198 74.6941C194.424 74.6186 194.655 74.5526 194.886 74.4866C195.042 74.1753 195.235 73.8923 195.452 73.6329C195.56 73.5008 195.678 73.3782 195.805 73.2603C195.928 73.1424 196.055 73.0339 196.206 72.9348C196.263 72.8971 196.338 72.9112 196.371 72.9678C196.404 73.015 196.395 73.081 196.357 73.1188L196.352 73.1235C196.244 73.2273 196.145 73.3546 196.05 73.4772C195.956 73.6046 195.871 73.7366 195.796 73.8734C195.716 74.0102 195.645 74.1517 195.584 74.2979C196.673 74.0291 197.785 73.8451 198.902 73.7791C199.02 73.7697 199.119 73.8593 199.124 73.9772C199.128 74.0904 199.048 74.1894 198.935 74.1989C197.691 74.3168 196.465 74.5762 195.273 74.9441C195.494 75.1327 195.763 75.2837 196.05 75.3921C196.456 75.5525 196.894 75.6421 197.342 75.6704C197.408 75.6751 197.46 75.7317 197.455 75.7978C197.45 75.8591 197.403 75.9062 197.342 75.911C196.871 75.944 196.395 75.911 195.923 75.793C195.471 75.6798 195.018 75.4865 194.636 75.1469C194.552 75.1752 194.462 75.2035 194.377 75.2365C193.274 75.6327 192.199 76.1138 191.167 76.675C191.554 76.9344 191.968 77.1514 192.412 77.2787C192.949 77.4391 193.533 77.4627 194.113 77.3778C194.193 77.3636 194.273 77.425 194.283 77.5051C194.292 77.5806 194.245 77.6513 194.174 77.6702C193.581 77.8353 192.935 77.8966 192.298 77.7928C191.662 77.6891 191.059 77.4391 190.507 77.1325C190.484 77.1184 190.46 77.1042 190.441 77.0854C190.347 77.142 190.253 77.1938 190.154 77.2504C188.924 77.9909 187.755 78.8352 186.666 79.7643C187.25 80.1511 187.863 80.486 188.523 80.6746C188.886 80.7784 189.268 80.8397 189.649 80.8491C190.031 80.8586 190.418 80.8114 190.8 80.7218C190.88 80.7029 190.96 80.7548 190.979 80.835C190.997 80.9105 190.95 80.9859 190.88 81.0142C190.488 81.1463 190.078 81.2359 189.659 81.2642C189.239 81.2972 188.815 81.2689 188.4 81.1887C187.571 81.0284 186.802 80.6794 186.081 80.2785C185.124 81.151 184.234 82.099 183.446 83.1131C185.205 84.8865 190.361 83.896 193.665 80.6605Z" fill="#95C11F"/>
<path d="M176.103 80.3863C174.929 74.5614 175.339 68.5054 175.339 68.5054C175.339 68.5054 168.321 73.8256 167.354 79.693C166.468 85.0792 169.108 89.4562 171.498 90.2108C171.12 88.909 170.866 87.579 170.715 86.2395C170.715 86.2206 170.71 86.2018 170.71 86.1829C170.107 85.7631 169.532 85.282 169.07 84.6878C168.811 84.3529 168.594 83.9897 168.429 83.603C168.264 83.2162 168.156 82.8106 168.094 82.405C168.08 82.3248 168.137 82.2446 168.222 82.2352C168.297 82.2257 168.372 82.2729 168.391 82.3484C168.486 82.7257 168.622 83.0936 168.801 83.4284C168.981 83.768 169.207 84.0746 169.471 84.3529C169.81 84.716 170.206 85.0226 170.63 85.2915C170.531 84.0039 170.527 82.7162 170.616 81.4334C170.644 81.0183 170.682 80.6032 170.734 80.1882C170.305 79.7307 169.919 79.2166 169.669 78.6317C169.409 78.0422 169.31 77.396 169.325 76.7829C169.325 76.698 169.395 76.6319 169.475 76.6367C169.551 76.6367 169.612 76.698 169.622 76.7734C169.683 77.3583 169.848 77.9195 170.135 78.4006C170.329 78.7308 170.578 79.0279 170.857 79.2968C170.993 78.4195 171.172 77.5517 171.403 76.6933C171.465 76.4621 171.535 76.231 171.606 76.0046C171.432 75.7028 171.295 75.3868 171.201 75.0661C171.153 74.901 171.111 74.7359 171.083 74.5708C171.055 74.401 171.031 74.2359 171.026 74.0567C171.026 73.9907 171.078 73.9341 171.144 73.9341C171.201 73.9341 171.252 73.9765 171.262 74.0331V74.0378C171.29 74.1841 171.342 74.335 171.394 74.4812C171.45 74.6274 171.512 74.7689 171.587 74.9104C171.658 75.0519 171.743 75.1887 171.828 75.316C172.195 74.2548 172.648 73.2266 173.199 72.2456C173.256 72.1465 173.383 72.1088 173.487 72.1654C173.586 72.222 173.623 72.3446 173.572 72.4437C172.992 73.552 172.544 74.7217 172.2 75.9197C172.478 75.8348 172.751 75.6934 173.001 75.5141C173.355 75.2594 173.671 74.9434 173.939 74.5802C173.977 74.5284 174.052 74.5142 174.109 74.5567C174.156 74.5944 174.17 74.6604 174.142 74.7123C173.911 75.1227 173.623 75.5094 173.27 75.8396C172.931 76.1556 172.52 76.4338 172.03 76.5659C172.007 76.6555 171.983 76.7404 171.964 76.83C171.696 77.9714 171.516 79.1364 171.417 80.3061C171.846 80.1222 172.252 79.891 172.601 79.5892C173.029 79.226 173.364 78.7497 173.609 78.212C173.642 78.1365 173.732 78.1035 173.807 78.1365C173.878 78.1695 173.911 78.2497 173.887 78.3205C173.704 78.91 173.402 79.4854 172.968 79.9618C172.535 80.4429 171.997 80.8061 171.441 81.1032C171.417 81.1173 171.389 81.1268 171.366 81.1315C171.361 81.24 171.356 81.3532 171.351 81.4617C171.3 82.9002 171.37 84.3387 171.559 85.7584C172.2 85.4801 172.813 85.1453 173.336 84.6972C173.623 84.4472 173.878 84.1642 174.095 83.8482C174.312 83.5322 174.481 83.1832 174.613 82.8153C174.642 82.7351 174.726 82.6974 174.807 82.7257C174.882 82.754 174.92 82.8294 174.901 82.9049C174.797 83.3058 174.651 83.6973 174.448 84.0652C174.246 84.4331 173.991 84.7774 173.699 85.0792C173.114 85.6877 172.403 86.1452 171.672 86.5272C171.879 87.8054 172.19 89.0694 172.61 90.2815C175.037 89.7863 177.017 84.9236 176.103 80.3863Z" fill="#95C11F"/>
<path d="M167.397 96.4839C163.023 92.4608 159.798 87.3245 159.798 87.3245C159.798 87.3245 157.248 95.7576 159.916 101.073C162.367 105.95 167.071 107.94 169.447 107.139C168.377 106.308 167.392 105.379 166.482 104.389C166.468 104.375 166.454 104.361 166.445 104.346C165.709 104.361 164.96 104.313 164.239 104.106C163.833 103.988 163.442 103.823 163.079 103.606C162.721 103.389 162.396 103.125 162.103 102.832C162.047 102.771 162.047 102.677 162.103 102.62C162.16 102.564 162.245 102.564 162.306 102.611C162.608 102.861 162.928 103.078 163.272 103.243C163.616 103.408 163.979 103.526 164.356 103.596C164.847 103.686 165.346 103.705 165.846 103.672C165.012 102.691 164.248 101.649 163.565 100.559C163.343 100.205 163.131 99.8468 162.928 99.4837C162.315 99.3657 161.698 99.1771 161.151 98.8516C160.595 98.5262 160.138 98.064 159.784 97.5593C159.737 97.4933 159.751 97.399 159.822 97.3518C159.883 97.3093 159.968 97.3188 160.02 97.3754C160.411 97.814 160.873 98.1677 161.392 98.3894C161.745 98.5403 162.118 98.6347 162.504 98.6913C162.099 97.9036 161.736 97.0924 161.42 96.2623C161.335 96.0359 161.255 95.8142 161.18 95.5831C160.859 95.4416 160.567 95.2671 160.298 95.0596C160.161 94.9558 160.034 94.8473 159.912 94.7294C159.789 94.6115 159.671 94.4889 159.567 94.3474C159.53 94.2955 159.539 94.22 159.591 94.1776C159.638 94.1446 159.704 94.1493 159.747 94.187L159.751 94.1917C159.86 94.2955 159.992 94.3851 160.119 94.4747C160.251 94.5596 160.388 94.6398 160.524 94.7105C160.666 94.7813 160.812 94.8473 160.958 94.8992C160.633 93.8238 160.392 92.7249 160.265 91.6118C160.251 91.4986 160.336 91.3901 160.449 91.3807C160.562 91.3665 160.666 91.4467 160.68 91.5599C160.864 92.7956 161.189 94.0078 161.618 95.1775C161.792 94.9464 161.929 94.6681 162.028 94.3757C162.165 93.9653 162.235 93.5173 162.235 93.0692C162.235 93.0032 162.292 92.9513 162.358 92.9513C162.419 92.9513 162.471 92.9984 162.476 93.055C162.532 93.522 162.528 94.0031 162.433 94.4794C162.344 94.9369 162.174 95.3991 161.858 95.8001C161.891 95.8849 161.924 95.9698 161.962 96.0547C162.414 97.1395 162.952 98.1819 163.565 99.1865C163.805 98.7856 163.998 98.3611 164.102 97.913C164.234 97.3659 164.224 96.7811 164.111 96.2057C164.097 96.1255 164.149 96.0453 164.229 96.0312C164.305 96.017 164.38 96.0595 164.404 96.1302C164.602 96.7151 164.696 97.3565 164.625 97.9979C164.559 98.6394 164.338 99.2525 164.06 99.8232C164.045 99.8468 164.031 99.8704 164.017 99.894C164.078 99.9883 164.135 100.078 164.196 100.172C164.997 101.366 165.903 102.488 166.888 103.526C167.241 102.922 167.543 102.29 167.698 101.62C167.783 101.248 167.826 100.87 167.811 100.488C167.797 100.106 167.731 99.7195 167.623 99.3469C167.599 99.2667 167.647 99.1818 167.727 99.1582C167.802 99.1346 167.882 99.1771 167.91 99.2478C168.061 99.6299 168.174 100.035 168.226 100.451C168.278 100.866 168.273 101.295 168.217 101.715C168.104 102.554 167.793 103.337 167.43 104.078C168.349 104.988 169.343 105.827 170.395 106.563C172.058 104.714 170.8 99.611 167.397 96.4839Z" fill="#95C11F"/>
<path d="M39.4143 39.4331C31.5756 46.6022 26.1503 56.2428 24.0999 66.5295C23.0724 71.6705 22.8508 76.953 23.4824 82.1317C24.1093 87.3057 25.5564 92.3807 27.7718 97.0548C29.9871 101.734 32.985 106.016 36.6191 109.671C40.2438 113.336 44.4766 116.383 49.0676 118.722C53.6586 121.067 58.5984 122.717 63.6608 123.661C68.7279 124.595 73.9222 124.83 79.0458 124.368C80.3279 124.255 81.6053 124.099 82.8732 123.892C83.5096 123.793 84.1553 123.665 84.7964 123.557C85.4374 123.448 86.0738 123.312 86.7148 123.18C89.2648 122.647 91.7866 122.005 94.2659 121.222C99.2199 119.661 104.014 117.628 108.553 115.11C113.087 112.586 117.376 109.624 121.392 106.299C123.4 104.634 125.338 102.889 127.218 101.073C129.099 99.2574 130.9 97.3519 132.658 95.404C133.091 94.9135 133.539 94.4324 133.964 93.9325L135.246 92.4373C136.085 91.4233 136.928 90.4187 137.744 89.3857C138.573 88.3623 139.365 87.3105 140.171 86.2681C140.958 85.2069 141.75 84.1551 142.514 83.0797C143.282 82.0185 144.055 80.9101 144.828 79.8159L147.143 76.5191C148.684 74.3165 150.235 72.1091 151.814 69.9112C154.972 65.5154 158.238 61.1385 161.839 56.9502C163.64 54.8561 165.53 52.8138 167.533 50.8612C169.537 48.9086 171.663 47.0455 173.93 45.3382C176.197 43.6308 178.601 42.0743 181.127 40.7254C183.654 39.3765 186.303 38.2445 189.027 37.3437C191.747 36.4381 194.542 35.7919 197.351 35.3391C200.165 34.9052 202.979 34.6505 205.836 34.6175C211.53 34.5609 217.228 35.3722 222.673 37.0229C228.117 38.6832 233.316 41.1735 237.992 44.4515C242.668 47.7247 246.806 51.7904 250.12 56.4597C251.784 58.7897 253.226 61.28 254.442 63.8694C255.041 65.1711 255.592 66.4917 256.078 67.836C256.558 69.1849 256.983 70.548 257.35 71.9252C258.807 77.4482 259.259 83.1929 258.863 88.8103C258.656 91.6166 258.265 94.4183 257.624 97.1727L257.383 98.2056C257.298 98.5499 257.204 98.8895 257.11 99.2291C256.936 99.913 256.719 100.587 256.516 101.267C256.078 102.611 255.616 103.95 255.064 105.252C252.915 110.487 249.832 115.345 245.986 119.477C242.144 123.614 237.567 127.028 232.571 129.561C227.575 132.099 222.164 133.763 216.644 134.504C211.124 135.249 205.482 135.07 200.043 133.919C197.323 133.344 194.66 132.528 192.082 131.471C189.489 130.419 187.01 129.056 184.747 127.391C182.485 125.727 180.43 123.769 178.705 121.552C176.975 119.34 175.556 116.888 174.495 114.298C172.374 109.12 171.696 103.361 172.69 97.8613C172.94 96.4888 173.293 95.1352 173.77 93.8193C174 93.159 174.274 92.5175 174.557 91.8761C174.858 91.244 175.169 90.6167 175.528 90.013C176.225 88.8009 177.055 87.6595 177.988 86.6124C178.219 86.3483 178.464 86.0983 178.709 85.8483C178.964 85.6078 179.209 85.3531 179.473 85.1267C179.605 85.0135 179.737 84.8956 179.869 84.7824C180.01 84.6739 180.147 84.5655 180.288 84.4617C180.566 84.2447 180.868 84.0655 181.165 83.8863C181.481 83.6976 181.891 83.7967 182.084 84.1127C182.249 84.3862 182.197 84.7305 181.971 84.9428L181.952 84.9616C181.01 85.8531 180.034 86.6879 179.218 87.6831C178.393 88.6688 177.663 89.7348 177.055 90.8714C176.744 91.4327 176.475 92.0223 176.216 92.6118C175.971 93.2061 175.735 93.8098 175.542 94.423C175.141 95.6493 174.849 96.9133 174.656 98.1868C174.264 100.743 174.283 103.356 174.641 105.912C175.014 108.469 175.726 110.973 176.763 113.332C177.8 115.69 179.157 117.897 180.788 119.878C182.419 121.859 184.309 123.618 186.407 125.094C188.499 126.575 190.785 127.783 193.185 128.707C195.603 129.632 198.115 130.33 200.66 130.806C205.76 131.754 211.016 131.787 216.121 130.967C221.226 130.141 226.184 128.448 230.7 125.991C235.22 123.538 239.293 120.303 242.658 116.463C246.028 112.624 248.663 108.181 250.459 103.422C252.269 98.6631 253.221 93.5929 253.457 88.4802C253.716 83.3769 253.216 78.2689 251.84 73.4156C250.468 68.5623 248.239 63.9826 245.284 59.9264C242.328 55.8702 238.647 52.3375 234.48 49.5028C230.318 46.6635 225.703 44.475 220.858 43.0459C216.017 41.6121 210.955 40.9094 205.907 40.9848C203.389 41.0131 200.844 41.2442 198.351 41.6357C195.857 42.0413 193.401 42.612 191.026 43.4044C188.645 44.1873 186.336 45.1684 184.12 46.3428C181.905 47.5219 179.784 48.885 177.752 50.4084C173.689 53.4459 170.018 57.1012 166.591 61.0395C163.164 64.9825 159.973 69.2132 156.834 73.5194C155.264 75.6748 153.704 77.8538 152.148 80.0376L149.806 83.3203C149.019 84.4145 148.246 85.5088 147.43 86.6124C146.634 87.7208 145.799 88.8056 144.974 89.8998C144.131 90.9799 143.296 92.0647 142.424 93.1212C141.566 94.1919 140.676 95.2342 139.789 96.2813L138.432 97.8283C137.984 98.3471 137.508 98.8471 137.046 99.3565C135.184 101.38 133.266 103.361 131.258 105.252C129.255 107.148 127.176 108.973 125.027 110.714C120.728 114.199 116.09 117.298 111.202 119.93C106.304 122.557 101.134 124.67 95.812 126.25C93.1535 127.038 90.4527 127.674 87.7329 128.193C87.0542 128.321 86.3754 128.457 85.692 128.561C85.0085 128.67 84.3345 128.788 83.6416 128.882C82.2558 129.08 80.8606 129.226 79.4654 129.325C73.8798 129.74 68.2471 129.358 62.7747 128.231C57.3022 127.094 51.9806 125.203 47.0644 122.533C42.1481 119.873 37.6231 116.463 33.791 112.383C31.8726 110.346 30.1286 108.153 28.5872 105.818C27.0412 103.493 25.7025 101.031 24.5807 98.4792C22.3465 93.3665 20.9795 87.9236 20.4846 82.41C20.2348 79.6508 20.2065 76.8775 20.4045 74.1231C20.5977 71.3686 21.022 68.633 21.663 65.9541C22.9357 60.5961 25.0709 55.4598 27.9462 50.7952C30.8309 46.14 34.4415 41.9517 38.6224 38.4709C38.8816 38.254 39.2729 38.287 39.4897 38.5511C39.6876 38.8341 39.6594 39.2114 39.4143 39.4331Z" fill="#5DB3AE"/>
<path d="M87.5445 106.695C82.5858 107.681 82.4302 110.393 80.5495 110.393C78.6688 110.393 73.0974 105.521 64.4999 105.521C57.0053 105.521 50.5854 110.275 50.5854 111.44C50.5854 112.605 57.0053 117.359 64.4999 117.359C73.0927 117.359 78.6688 112.487 80.5495 112.487C82.4302 112.487 82.5858 115.199 87.5445 116.185C86.7903 114.972 86.7903 107.921 87.5445 106.695ZM54.2385 112.35C53.7105 112.35 53.2863 111.926 53.2863 111.397C53.2863 110.869 53.7105 110.445 54.2385 110.445C54.7664 110.445 55.1906 110.869 55.1906 111.397C55.1906 111.926 54.7664 112.35 54.2385 112.35Z" fill="white"/>
<path d="M110.886 92.5653C105.927 93.551 105.772 96.263 103.891 96.263C102.01 96.263 96.4389 91.3909 87.8414 91.3909C80.3469 91.3909 73.927 96.1451 73.927 97.3101C73.927 98.4751 80.3469 103.229 87.8414 103.229C96.4342 103.229 102.01 98.3572 103.891 98.3572C105.772 98.3572 105.927 101.069 110.886 102.055C110.132 100.843 110.132 93.7916 110.886 92.5653ZM77.58 98.2204C77.0521 98.2204 76.6279 97.7959 76.6279 97.2677C76.6279 96.7394 77.0521 96.3149 77.58 96.3149C78.1079 96.3149 78.5321 96.7394 78.5321 97.2677C78.5321 97.7912 78.1079 98.2204 77.58 98.2204Z" fill="white"/>
<path d="M63.1515 78.6754C60.6015 78.6754 59.6069 77.251 59.6069 74.5625V56.72C59.6069 54.5315 60.7665 52.9043 63.0855 52.9043H74.285C75.4775 52.9043 76.769 53.4703 76.769 55.1588C76.769 56.6162 75.8734 57.4793 74.4169 57.4793H64.971C64.3723 57.4793 64.2074 57.9415 64.2074 58.4415V63.1816H73.4554C74.5489 63.1816 75.6425 63.9457 75.6425 65.3701C75.6425 66.2002 75.3125 67.5585 73.6203 67.5585H64.2074V73.1948C64.2074 73.69 64.5703 74.0909 65.1689 74.0909H74.3132C75.4398 74.0909 76.7643 74.5861 76.7643 76.3454C76.7643 77.5717 76.0997 78.6659 74.4122 78.6659H63.1515V78.6754Z" fill="#312783"/>
<path d="M99.3708 57.483C99.3708 58.7423 98.3432 59.7705 97.0517 59.7705C96.6228 59.7705 96.2221 59.7705 94.9306 58.7423C93.1724 57.2849 91.716 56.6859 89.5289 56.6859C86.4462 56.6859 85.4846 58.2801 85.4846 59.6385C85.4846 61.6949 86.9081 62.3599 91.551 63.6522C97.6503 65.3785 99.5687 67.8311 99.5687 71.3779C99.5687 76.5849 94.7986 79.2686 90.0238 79.2686C83.5285 79.2686 79.3523 74.5615 79.3523 72.4391C79.3523 71.2128 80.3139 70.1186 81.7704 70.1186C82.369 70.1186 82.9629 70.1516 84.4524 71.7788C86.5735 74.1984 88.1949 74.6983 90.316 74.6983C92.5691 74.6983 94.7232 73.472 94.7232 71.5807C94.7232 69.6894 92.998 69.0291 91.7395 68.5621C90.8439 68.265 86.9364 67.0057 86.1728 66.6708C83.6888 65.6426 80.6061 63.9164 80.6061 59.7422C80.6061 55.4313 83.8867 52.3137 89.4864 52.3137C93.7711 52.309 99.3708 54.8323 99.3708 57.483Z" fill="#312783"/>
<path d="M121.873 63.4877C123.33 63.4877 125.484 64.3508 125.484 67.2657V70.5814C125.484 77.642 118.889 79.2692 114.977 79.2692C106.031 79.2692 102.75 71.5766 102.75 66.0394C102.75 59.0448 107.553 52.3096 114.845 52.3096C119.884 52.3096 124.555 55.5923 124.555 58.2099C124.555 59.2381 123.825 60.4974 122.434 60.4974C121.939 60.4974 121.406 60.4974 120.016 59.1061C118.159 57.2148 116.867 56.7855 114.944 56.7855C110.603 56.7855 107.52 60.9314 107.52 66.0394C107.52 72.0765 111.73 74.6612 115.274 74.6612C119.516 74.6612 120.907 71.7746 120.907 70.5483V68.7561C120.907 68.2278 120.577 67.8929 120.044 67.8929H114.379C113.483 67.8929 112.257 67.1289 112.257 65.6715C112.257 64.6433 112.856 63.483 114.214 63.483H121.873V63.4877Z" fill="#312783"/>
<path d="M76.6606 13.209C76.7738 13.209 76.8822 13.3081 76.8822 13.4401C76.8822 13.5911 76.7502 13.6712 76.6606 13.6712H73.4083V16.3455C73.4083 16.4776 73.446 16.7417 73.7335 16.7417H77.0566C77.1556 16.7417 77.2781 16.8219 77.2781 16.9728C77.2781 17.1049 77.165 17.1945 77.0566 17.1945H73.5355C73.0595 17.1945 72.9275 16.7606 72.9275 16.5672V10.846C72.9275 10.3838 73.3093 10.2188 73.5355 10.2188H76.9859C77.1178 10.2188 77.2074 10.3319 77.2074 10.4499C77.2074 10.5725 77.1037 10.6715 76.9859 10.6715H73.7335C73.479 10.6715 73.4083 10.8743 73.4083 11.0677V13.209H76.6606Z" fill="#312783"/>
<path d="M82.4256 17.1285C82.4256 17.2322 82.3455 17.3502 82.1946 17.3502C82.0721 17.3502 81.9825 17.237 81.9825 17.1285V13.7656C81.9825 12.9779 81.3556 12.3412 80.6627 12.3412C79.5315 12.3412 78.9281 13.5439 78.9281 13.5911V17.1285C78.9281 17.2417 78.8292 17.3502 78.6972 17.3502C78.5652 17.3502 78.4756 17.2275 78.4756 17.1285V12.7657C78.4756 12.6667 78.3955 12.1997 78.3955 12.1007C78.3955 11.9875 78.4851 11.8884 78.6076 11.8884C78.7914 11.8884 78.8292 12.0205 78.8622 12.2139C78.8904 12.3884 78.9046 12.5676 78.9234 12.86C79.5975 11.8884 80.4695 11.8884 80.658 11.8884C81.5347 11.8884 82.4162 12.5535 82.4162 13.7656V17.1285H82.4256Z" fill="#312783"/>
<path d="M86.2105 16.9394C86.1304 17.1894 85.9183 17.345 85.7156 17.345C85.4234 17.345 85.2537 17.1045 85.2018 16.9394L83.7076 12.2936C83.6982 12.2559 83.6699 12.1899 83.6699 12.1238C83.6699 12.0531 83.7218 11.8833 83.8915 11.8833C84.0423 11.8833 84.1224 12.0248 84.1413 12.0955L85.5459 16.5479C85.5978 16.7272 85.6355 16.7885 85.7062 16.7885C85.7769 16.7885 85.8146 16.7083 85.8664 16.5479L87.2617 12.0955C87.2994 11.9965 87.3748 11.8833 87.502 11.8833C87.6246 11.8833 87.7424 11.9823 87.7424 12.1144C87.7424 12.1427 87.733 12.204 87.7094 12.2936L86.2105 16.9394Z" fill="#312783"/>
<path d="M89.736 10.4831C89.736 10.7142 89.5428 10.9076 89.3118 10.9076C89.0809 10.9076 88.8782 10.7236 88.8782 10.4831C88.8782 10.2425 89.0714 10.0586 89.3118 10.0586C89.5522 10.0586 89.736 10.252 89.736 10.4831ZM89.5334 17.1287C89.5334 17.2513 89.4344 17.3503 89.3024 17.3503C89.1704 17.3503 89.0809 17.2277 89.0809 17.1287V12.1197C89.0809 11.9971 89.1798 11.8886 89.3118 11.8886C89.4438 11.8886 89.5334 12.0018 89.5334 12.1197V17.1287Z" fill="#312783"/>
<path d="M91.7203 17.119C91.7203 17.2417 91.6307 17.3502 91.4893 17.3502C91.3573 17.3502 91.2678 17.237 91.2678 17.119V13.2421C91.2678 13.0676 91.1641 12.1809 91.1641 12.1195C91.1641 11.978 91.2866 11.8884 91.4186 11.8884C91.6684 11.8884 91.6684 12.1431 91.6826 12.8506C91.9842 12.2846 92.4697 11.8884 93.0353 11.8884C93.1768 11.8884 93.3794 11.9497 93.3794 12.1431C93.3794 12.3365 93.2097 12.3554 92.9269 12.3742C92.2906 12.4261 91.7156 13.4354 91.7156 13.8882V17.119H91.7203Z" fill="#312783"/>
<path d="M98.6967 14.624C98.6967 16.0861 98.0179 17.3502 96.5143 17.3502C95.0201 17.3502 94.3225 16.1097 94.3225 14.624C94.3225 13.1713 95.0013 11.8884 96.5143 11.8884C98.0132 11.8884 98.6967 13.1619 98.6967 14.624ZM94.8127 14.5533C94.8127 15.0155 94.8504 16.8785 96.5096 16.8785C97.7493 16.8785 98.2065 15.7796 98.2065 14.6759C98.2065 14.2608 98.1782 12.3601 96.5096 12.3601C95.2464 12.3601 94.8127 13.492 94.8127 14.5533Z" fill="#312783"/>
<path d="M104.042 17.1285C104.042 17.2322 103.961 17.3502 103.811 17.3502C103.688 17.3502 103.598 17.237 103.598 17.1285V13.7656C103.598 12.9779 102.972 12.3412 102.279 12.3412C101.147 12.3412 100.544 13.5439 100.544 13.5911V17.1285C100.544 17.2417 100.445 17.3502 100.313 17.3502C100.181 17.3502 100.092 17.2275 100.092 17.1285V12.7657C100.092 12.6667 100.011 12.1997 100.011 12.1007C100.011 11.9875 100.101 11.8884 100.224 11.8884C100.407 11.8884 100.445 12.0205 100.478 12.2139C100.506 12.3884 100.521 12.5676 100.539 12.86C101.213 11.8884 102.085 11.8884 102.274 11.8884C103.151 11.8884 104.032 12.5535 104.032 13.7656V17.1285H104.042Z" fill="#312783"/>
<path d="M111.258 17.1289C111.258 17.2421 111.169 17.3506 111.027 17.3506C110.895 17.3506 110.815 17.2279 110.815 17.1289V13.4642C110.815 12.6954 110.363 12.3746 109.835 12.3746C109.331 12.3746 108.685 12.6859 108.685 13.3745V17.1242C108.685 17.2468 108.595 17.3459 108.463 17.3459C108.331 17.3459 108.242 17.2327 108.242 17.1242V13.3698C108.242 12.8038 107.827 12.3888 107.351 12.3888C106.493 12.3888 106.121 13.1576 106.121 13.5396V17.1336C106.121 17.2374 106.04 17.3553 105.899 17.3553C105.758 17.3553 105.678 17.2327 105.678 17.1336V12.917C105.678 12.8557 105.678 12.7237 105.649 12.5209C105.64 12.4501 105.597 12.1577 105.597 12.0964C105.597 11.936 105.729 11.8936 105.81 11.8936C106.031 11.8936 106.092 12.0964 106.083 12.6718C106.243 12.4218 106.597 11.8936 107.356 11.8936C107.667 11.8936 107.959 12.0068 108.171 12.1765C108.364 12.3275 108.435 12.4784 108.515 12.6293C108.685 12.4265 109.109 11.8936 109.858 11.8936C110.608 11.8936 111.254 12.4077 111.254 13.3274V17.1289H111.258Z" fill="#312783"/>
<path d="M113.143 14.6574C113.172 15.1527 113.195 15.6573 113.506 16.1714C113.851 16.7563 114.407 16.8695 114.657 16.8695C115.081 16.8695 115.585 16.6054 115.896 15.9592C115.948 15.8366 116.009 15.747 116.146 15.747C116.259 15.747 116.358 15.8366 116.358 15.9592C116.358 16.3129 115.712 17.3506 114.671 17.3506C113.752 17.3506 112.672 16.5299 112.672 14.5914C112.672 12.7425 113.653 11.8936 114.609 11.8936C115.458 11.8936 116.396 12.6199 116.396 14.0443C116.396 14.6008 116.212 14.6622 115.689 14.6622H113.143V14.6574ZM115.741 14.1999C115.854 14.1999 115.92 14.1198 115.92 13.8981C115.92 13.1906 115.425 12.3511 114.619 12.3511C114.228 12.3511 113.803 12.5916 113.558 12.9359C113.285 13.3274 113.224 13.6811 113.162 14.1999H115.741Z" fill="#312783"/>
<path d="M121.736 17.1285C121.736 17.2322 121.656 17.3502 121.505 17.3502C121.383 17.3502 121.293 17.237 121.293 17.1285V13.7656C121.293 12.9779 120.666 12.3412 119.974 12.3412C118.842 12.3412 118.239 13.5439 118.239 13.5911V17.1285C118.239 17.2417 118.14 17.3502 118.008 17.3502C117.876 17.3502 117.786 17.2275 117.786 17.1285V12.7657C117.786 12.6667 117.706 12.1997 117.706 12.1007C117.706 11.9875 117.796 11.8884 117.918 11.8884C118.102 11.8884 118.14 12.0205 118.173 12.2139C118.201 12.3884 118.215 12.5676 118.234 12.86C118.908 11.8884 119.78 11.8884 119.969 11.8884C120.846 11.8884 121.727 12.5535 121.727 13.7656V17.1285H121.736Z" fill="#312783"/>
<path d="M123.113 12.483C122.99 12.483 122.91 12.3793 122.91 12.2613C122.91 12.1387 123.018 12.0491 123.113 12.0491H123.739V11.0115C123.739 10.8794 123.848 10.7898 123.97 10.7898C124.093 10.7898 124.183 10.903 124.183 11.0115V12.0491H125.271C125.385 12.0491 125.484 12.1482 125.484 12.2708C125.484 12.3934 125.38 12.483 125.271 12.483H124.183V16.1619C124.183 16.7703 124.414 16.9071 124.644 16.9071C124.743 16.9071 124.885 16.8788 125.04 16.7232C125.13 16.643 125.163 16.61 125.243 16.61C125.394 16.61 125.465 16.742 125.465 16.8505C125.465 17.0203 125.073 17.3646 124.649 17.3646C124.253 17.3646 123.739 17.0911 123.739 16.3317V12.483H123.113Z" fill="#312783"/>
<path d="M77.3061 24.6228C77.3061 24.6747 77.2731 24.8633 77.1034 24.8633C76.9714 24.8633 76.9102 24.7737 76.8489 24.6605C76.5661 24.1228 76.1701 23.5286 75.1002 23.5286C74.0396 23.5286 73.4363 24.1134 73.4363 24.9011C73.4363 25.6699 74.0537 25.9528 75.3028 26.2736C76.0476 26.4575 77.5653 26.849 77.5653 28.3017C77.5653 29.3535 76.6462 30.3817 75.1096 30.3817C73.2336 30.3817 72.5454 28.9384 72.5454 28.3205C72.5454 28.2073 72.6255 28.08 72.7764 28.08C72.9555 28.08 73.0073 28.179 73.0592 28.4054C73.3939 29.7874 74.6524 29.9289 75.1284 29.9289C76.4105 29.9289 77.0846 29.0893 77.0846 28.3347C77.0846 27.2829 75.9863 26.9716 75.5102 26.8301C73.8652 26.3632 73.6625 26.184 73.4693 26.0142C73.2854 25.8538 72.9838 25.5001 72.9838 24.8633C72.9838 23.8917 73.7332 23.0852 75.1237 23.0852C76.7923 23.0852 77.3061 24.3681 77.3061 24.6228Z" fill="#312783"/>
<path d="M83.1327 27.6518C83.1327 29.114 82.454 30.378 80.9503 30.378C79.4562 30.378 78.7585 29.1375 78.7585 27.6518C78.7585 26.1992 79.4373 24.9163 80.9503 24.9163C82.454 24.9163 83.1327 26.1897 83.1327 27.6518ZM79.2535 27.5764C79.2535 28.0386 79.2912 29.9016 80.9503 29.9016C82.19 29.9016 82.6472 28.8027 82.6472 27.699C82.6472 27.284 82.6189 25.3832 80.9503 25.3832C79.6871 25.3832 79.2535 26.5152 79.2535 27.5764Z" fill="#312783"/>
<path d="M88.0253 26.3123C88.0253 26.402 87.9734 26.5246 87.8226 26.5246C87.7095 26.5246 87.6435 26.4727 87.5586 26.3029C87.4172 26.0199 87.026 25.3643 86.3048 25.3643C85.6166 25.3643 84.8106 25.9822 84.8106 27.6094C84.8106 29.3451 85.6968 29.9205 86.3237 29.9205C86.5735 29.9205 87.3041 29.779 87.5869 28.7178C87.6576 28.4678 87.6765 28.3735 87.8414 28.3735C87.8697 28.3735 88.063 28.3829 88.063 28.6565C88.063 29.1611 87.5256 30.3733 86.319 30.3733C85.2396 30.3733 84.3298 29.4017 84.3298 27.6235C84.3298 25.9586 85.1264 24.9163 86.319 24.9163C87.4926 24.9163 88.0253 26.1095 88.0253 26.3123Z" fill="#312783"/>
<path d="M90.2265 23.5097C90.2265 23.7408 90.0333 23.9342 89.8023 23.9342C89.5713 23.9342 89.3687 23.7502 89.3687 23.5097C89.3687 23.2691 89.5619 23.0852 89.8023 23.0852C90.0427 23.0852 90.2265 23.2786 90.2265 23.5097ZM90.0238 30.1505C90.0238 30.2732 89.9249 30.3722 89.7929 30.3722C89.6609 30.3722 89.5713 30.2496 89.5713 30.1505V25.1463C89.5713 25.0237 89.6703 24.9152 89.8023 24.9152C89.9343 24.9152 90.0238 25.0284 90.0238 25.1463V30.1505Z" fill="#312783"/>
<path d="M95.2363 26.7647C95.2363 25.9488 94.5387 25.3734 93.5725 25.3734C93.3415 25.3734 92.6345 25.4158 92.1301 25.9063C92.0783 25.9488 92.017 26.0101 91.9274 26.0101C91.8567 26.0101 91.7153 25.9488 91.7153 25.7884C91.7153 25.4441 92.5308 24.9111 93.5536 24.9111C94.5246 24.9111 95.6936 25.3875 95.6936 26.8308V29.2079C95.6936 29.5286 95.7548 29.8446 95.7831 29.9672C95.8161 30.0899 95.8161 30.0993 95.8161 30.1512C95.8161 30.2738 95.7454 30.3823 95.6229 30.3823C95.4107 30.3823 95.3212 30.1323 95.2505 29.656C94.897 29.9814 94.4822 30.3823 93.5725 30.3823C92.724 30.3823 91.5315 29.9295 91.5315 28.6655C91.5315 27.543 92.5308 26.8685 93.629 26.8685C93.8506 26.8685 94.5199 26.8685 95.2363 27.392V26.7647ZM95.2363 27.9863C95.2363 27.8731 94.699 27.3118 93.6903 27.3118C92.5779 27.3118 91.9746 27.9769 91.9746 28.6749C91.9746 29.472 92.7193 29.9389 93.5489 29.9389C94.7509 29.9389 95.2269 29.0381 95.2363 28.939V27.9863Z" fill="#312783"/>
<path d="M97.4282 23.303C97.4282 23.1992 97.5178 23.0813 97.6498 23.0813C97.7817 23.0813 97.8807 23.1803 97.8807 23.303V30.1514C97.8807 30.2504 97.8006 30.373 97.6592 30.373C97.5272 30.373 97.4282 30.274 97.4282 30.1514V23.303Z" fill="#312783"/>
<path d="M77.8581 39.504C78.3011 39.504 78.5462 39.7539 78.5462 40.1784V41.1783C78.5462 42.3009 77.2547 43.3998 75.803 43.3998C74.3088 43.3998 72.7156 42.381 72.7156 39.7728C72.7156 37.3579 74.1108 36.0986 75.8548 36.0986C77.5894 36.0986 78.4473 37.3485 78.4473 37.7447C78.4473 37.8343 78.386 37.9664 78.2446 37.9664C78.0608 37.9664 77.9618 37.7966 77.8722 37.6457C77.6931 37.3438 77.2359 36.5844 75.8642 36.5844C73.663 36.5844 73.1917 38.5324 73.1917 39.7681C73.1917 42.0792 74.5256 42.9282 75.7653 42.9282C76.8871 42.9282 78.0655 42.1688 78.0655 41.1217V40.2633C78.0655 40.0605 77.9759 39.9615 77.7638 39.9615H75.3929C75.2609 39.9615 75.1713 39.8483 75.1713 39.7209C75.1713 39.5889 75.2845 39.4992 75.3929 39.4992H77.8581V39.504Z" fill="#312783"/>
<path d="M84.2824 40.6733C84.2824 42.1354 83.6036 43.3995 82.1 43.3995C80.6058 43.3995 79.9082 42.159 79.9082 40.6733C79.9082 39.2206 80.587 37.9377 82.1 37.9377C83.6036 37.9377 84.2824 39.2159 84.2824 40.6733ZM80.4031 40.6026C80.4031 41.0648 80.4408 42.9278 82.1 42.9278C83.3397 42.9278 83.7969 41.8289 83.7969 40.7252C83.7969 40.3102 83.7686 38.4094 82.1 38.4094C80.8368 38.4094 80.4031 39.5414 80.4031 40.6026Z" fill="#312783"/>
<path d="M87.8462 42.9939C87.7661 43.2438 87.554 43.3995 87.3513 43.3995C87.059 43.3995 86.8893 43.1589 86.8375 42.9939L85.3433 38.3481C85.3339 38.3103 85.3103 38.2443 85.3103 38.1783C85.3103 38.1075 85.3621 37.9377 85.5318 37.9377C85.6827 37.9377 85.7628 38.0792 85.7817 38.15L87.1863 42.6024C87.2381 42.7769 87.2759 42.8429 87.3466 42.8429C87.4173 42.8429 87.455 42.7627 87.5068 42.6024L88.902 38.15C88.9397 38.0509 89.0152 37.9377 89.1424 37.9377C89.265 37.9377 89.3828 38.0368 89.3828 38.1689C89.3828 38.1972 89.3734 38.2585 89.3451 38.3481L87.8462 42.9939Z" fill="#312783"/>
<path d="M90.872 40.7109C90.9003 41.2061 90.9238 41.7108 91.2349 42.2249C91.579 42.8098 92.1352 42.9229 92.385 42.9229C92.8093 42.9229 93.3136 42.6588 93.6247 42.0127C93.6766 41.89 93.7378 41.8004 93.8745 41.8004C93.9876 41.8004 94.0866 41.89 94.0866 42.0127C94.0866 42.3664 93.4409 43.404 92.3992 43.404C91.48 43.404 90.4006 42.5834 90.4006 40.6449C90.4006 38.796 91.3811 37.947 92.3379 37.947C93.1863 37.947 94.1243 38.6734 94.1243 40.0978C94.1243 40.6543 93.9405 40.7156 93.4173 40.7156H90.872V40.7109ZM93.4692 40.2487C93.5823 40.2487 93.6483 40.1685 93.6483 39.9468C93.6483 39.2393 93.1533 38.3998 92.3473 38.3998C91.9561 38.3998 91.5319 38.6403 91.2868 38.9847C91.0134 39.3761 90.9521 39.7299 90.8908 40.2487H93.4692Z" fill="#312783"/>
<path d="M95.9818 43.1684C95.9818 43.291 95.8923 43.3995 95.7508 43.3995C95.6189 43.3995 95.5293 43.2863 95.5293 43.1684V39.2914C95.5293 39.1169 95.4209 38.2302 95.4209 38.1689C95.4209 38.0274 95.5435 37.9377 95.6754 37.9377C95.9253 37.9377 95.9252 38.1924 95.9394 38.8999C96.2411 38.3339 96.7266 37.9377 97.2922 37.9377C97.4336 37.9377 97.6363 37.9991 97.6363 38.1924C97.6363 38.3858 97.4666 38.4047 97.1838 38.4235C96.5474 38.4754 95.9724 39.4848 95.9724 39.9375V43.1684H95.9818Z" fill="#312783"/>
<path d="M102.736 43.1778C102.736 43.2816 102.656 43.3995 102.505 43.3995C102.382 43.3995 102.293 43.2863 102.293 43.1778V39.8149C102.293 39.0273 101.666 38.3905 100.973 38.3905C99.8418 38.3905 99.2384 39.5932 99.2384 39.6404V43.1778C99.2384 43.291 99.1395 43.3995 99.0075 43.3995C98.8755 43.3995 98.7859 43.2768 98.7859 43.1778V38.815C98.7859 38.716 98.7058 38.249 98.7058 38.15C98.7058 38.0368 98.7954 37.9377 98.9179 37.9377C99.1017 37.9377 99.1395 38.0698 99.1725 38.2632C99.2007 38.4377 99.2149 38.6169 99.2337 38.9093C99.9078 37.9377 100.78 37.9377 100.968 37.9377C101.845 37.9377 102.726 38.6028 102.726 39.8149V43.1778H102.736Z" fill="#312783"/>
<path d="M107.855 39.7872C107.855 38.9712 107.157 38.3958 106.191 38.3958C105.96 38.3958 105.253 38.4383 104.749 38.9288C104.697 38.9712 104.636 39.0325 104.546 39.0325C104.475 39.0325 104.334 38.9712 104.334 38.8109C104.334 38.4666 105.149 37.9336 106.172 37.9336C107.143 37.9336 108.312 38.41 108.312 39.8532V42.2256C108.312 42.5463 108.373 42.8624 108.402 42.985C108.435 43.1076 108.435 43.117 108.435 43.1689C108.435 43.2916 108.364 43.4 108.242 43.4C108.029 43.4 107.94 43.1501 107.869 42.6737C107.516 42.9991 107.101 43.4 106.191 43.4C105.343 43.4 104.15 42.9473 104.15 41.6832C104.15 40.5607 105.149 39.8862 106.248 39.8862C106.469 39.8862 107.139 39.8862 107.855 40.4098V39.7872ZM107.855 41.0088C107.855 40.8956 107.318 40.3343 106.309 40.3343C105.197 40.3343 104.593 40.9993 104.593 41.6974C104.593 42.4945 105.338 42.9614 106.168 42.9614C107.37 42.9614 107.846 42.0605 107.855 41.9615V41.0088Z" fill="#312783"/>
<path d="M113.875 43.1778C113.875 43.2816 113.794 43.3995 113.644 43.3995C113.521 43.3995 113.431 43.2863 113.431 43.1778V39.8149C113.431 39.0273 112.805 38.3905 112.112 38.3905C110.98 38.3905 110.377 39.5932 110.377 39.6404V43.1778C110.377 43.291 110.278 43.3995 110.146 43.3995C110.014 43.3995 109.925 43.2768 109.925 43.1778V38.815C109.925 38.716 109.844 38.249 109.844 38.15C109.844 38.0368 109.934 37.9377 110.057 37.9377C110.24 37.9377 110.278 38.0698 110.311 38.2632C110.339 38.4377 110.354 38.6169 110.372 38.9093C111.046 37.9377 111.918 37.9377 112.107 37.9377C112.984 37.9377 113.865 38.6028 113.865 39.8149V43.1778H113.875Z" fill="#312783"/>
<path d="M118.983 39.339C118.983 39.4286 118.931 39.5512 118.781 39.5512C118.667 39.5512 118.601 39.4993 118.517 39.3295C118.375 39.0465 117.984 38.391 117.263 38.391C116.575 38.391 115.769 39.0088 115.769 40.636C115.769 42.3717 116.655 42.9471 117.282 42.9471C117.531 42.9471 118.262 42.8056 118.545 41.7444C118.616 41.4944 118.634 41.4001 118.799 41.4001C118.828 41.4001 119.021 41.4095 119.021 41.6831C119.021 42.1878 118.484 43.3999 117.277 43.3999C116.198 43.3999 115.288 42.4283 115.288 40.6502C115.288 38.9852 116.084 37.9429 117.277 37.9429C118.455 37.9382 118.983 39.1362 118.983 39.339Z" fill="#312783"/>
<path d="M120.685 40.7109C120.714 41.2061 120.737 41.7108 121.048 42.2249C121.392 42.8098 121.948 42.9229 122.198 42.9229C122.622 42.9229 123.127 42.6588 123.438 42.0127C123.49 41.89 123.551 41.8004 123.688 41.8004C123.801 41.8004 123.9 41.89 123.9 42.0127C123.9 42.3664 123.254 43.404 122.212 43.404C121.293 43.404 120.214 42.5834 120.214 40.6449C120.214 38.796 121.194 37.947 122.151 37.947C123 37.947 123.938 38.6734 123.938 40.0978C123.938 40.6543 123.754 40.7156 123.231 40.7156H120.685V40.7109ZM123.282 40.2487C123.396 40.2487 123.462 40.1685 123.462 39.9468C123.462 39.2393 122.967 38.3998 122.161 38.3998C121.769 38.3998 121.345 38.6403 121.1 38.9847C120.827 39.3761 120.765 39.7299 120.704 40.2487H123.282Z" fill="#312783"/>
</svg>
