<svg id="Layer_1" data-name="Layer 1" xmlns="http://www.w3.org/2000/svg" xmlns:xlink="http://www.w3.org/1999/xlink" viewBox="0 0 166.12971 137.15642"><defs><style>.cls-1{fill:none;}.cls-2{clip-path:url(#clip-path);}.cls-3{fill:#ecf4ff;}.cls-4{fill:#b2d5f4;}.cls-5{fill:#dedede;}.cls-6{fill:#7e98de;}.cls-7{fill:#82b5db;}.cls-8{fill:#a6bcf7;}.cls-9{fill:#5f82de;}.cls-10,.cls-11,.cls-12,.cls-13,.cls-16,.cls-17,.cls-18,.cls-19,.cls-20{fill-rule:evenodd;}.cls-10{fill:url(#linear-gradient);}.cls-11{fill:url(#linear-gradient-2);}.cls-12{fill:url(#linear-gradient-3);}.cls-13{fill:url(#linear-gradient-4);}.cls-14{fill:#86b3c9;}.cls-15{fill:#9bc5da;}.cls-16{fill:#fdd7ba;}.cls-17{fill:#f7c59f;}.cls-18{fill:url(#linear-gradient-5);}.cls-19{fill:url(#linear-gradient-6);}.cls-20{fill:url(#linear-gradient-7);}.cls-21{fill:#e5b4a1;}.cls-22{fill:#5d6b72;}.cls-23{fill:#5f717a;}</style><clipPath id="clip-path"><rect class="cls-1" x="0.12971" width="166" height="137" rx="10"/></clipPath><linearGradient id="linear-gradient" x1="35.09269" y1="-5939.12952" x2="112.48911" y2="-5939.12952" gradientTransform="matrix(1, 0, 0, -1, -8.36221, -5866.94495)" gradientUnits="userSpaceOnUse"><stop offset="0" stop-color="#597592"/><stop offset="1" stop-color="#4f6985"/></linearGradient><linearGradient id="linear-gradient-2" x1="136.45897" y1="-5972.53342" x2="77.10898" y2="-5975.43462" gradientTransform="matrix(1, 0, 0, -1, -8.36221, -5866.94495)" gradientUnits="userSpaceOnUse"><stop offset="0" stop-color="#9ec9e3"/><stop offset="0.9778" stop-color="#6fb1da"/></linearGradient><linearGradient id="linear-gradient-3" x1="23.34659" y1="-5999.76513" x2="92.93877" y2="-5999.76513" gradientTransform="matrix(1, 0, 0, -1, -8.36221, -5866.94495)" gradientUnits="userSpaceOnUse"><stop offset="0" stop-color="#78b7df"/><stop offset="1" stop-color="#9ec9e3"/></linearGradient><linearGradient id="linear-gradient-4" x1="47.25671" y1="-5976.87349" x2="48.54371" y2="-5987.61609" gradientTransform="matrix(1, 0, 0, -1, -8.36221, -5866.94495)" gradientUnits="userSpaceOnUse"><stop offset="0" stop-color="#9ec9e3"/><stop offset="1" stop-color="#78b7df"/></linearGradient><linearGradient id="linear-gradient-5" x1="67.81869" y1="-5984.85769" x2="87.07683" y2="-5984.85769" gradientTransform="matrix(1, 0, 0, -1, -8.36221, -5866.94495)" gradientUnits="userSpaceOnUse"><stop offset="0" stop-color="#eff0f1"/><stop offset="0.3821" stop-color="#e9ebec"/><stop offset="0.874" stop-color="#d9dddf"/><stop offset="1" stop-color="#d4d8db"/></linearGradient><linearGradient id="linear-gradient-6" x1="10.6962" y1="-5987.79935" x2="60.1686" y2="-5987.79935" xlink:href="#linear-gradient-4"/><linearGradient id="linear-gradient-7" x1="38.15714" y1="-5899.46469" x2="71.52346" y2="-5899.46469" xlink:href="#linear-gradient"/></defs><g class="cls-2"><path class="cls-3" d="M70.69249,10.87859C19.59238,6.073,15.87168,35.5822,9.10588,52.4018A34.156,34.156,0,0,1-2.218,66.7414a42.1151,42.1151,0,0,1-19.85,8.0576c-46.16134,6.2338-38.63431,69.4113-21.2774,74.7283h184.0839C186.09149,62.013,121.79248,15.68421,70.69249,10.87859Z"/><path class="cls-4" d="M149.12971,31.15831q-.2074-.43861-.415-.87712l.00022-.00022c-.32109-3.38015-2.23386-5.4443-5.67552-6.12421q-1.54579.0048-3.09094.00906a15.95318,15.95318,0,0,0-5.56966,2.88051,32.66559,32.66559,0,0,1-9.528,5.07428c-3.42962,1.20685-6.54817,3.11482-8.477,6.4389a8.08109,8.08109,0,0,0-2.14357,3.94547h0a6.24,6.24,0,0,0-1.32709,3.04723l-.00011.00021q-.87291,1.9657-1.74561,3.9314h.0001q-.89674,1.29266-1.79327,2.58564l-.00117.00043a6.34214,6.34214,0,0,1-3.21673,1.43689,4.41934,4.41934,0,0,0-3.32461,1.62175l.00032.00021c-1.25077.27248-1.887,1.28488-2.62061,2.1797l-.00118.00043q-.41686.41895-.83352.83832l-.001.00011c-1.09076.77852-1.337,2.13226-2.123,3.11834l-.858,1.74551h-.00032A4.42852,4.42852,0,0,0,95.4532,65.621h-.0001c-.56841.45263-.3504,1.14065-.51223,1.71491l-.001.00075a4.55064,4.55064,0,0,0-.72735,2.21914l.00054-.0001-.00011.0001q-.21683,1.52661-.43377,3.05321H93.7789a7.34957,7.34957,0,0,0-.46542,3.04627h.00021q-.2034.88395-.40647,1.768l-.45093,2.16553q-.2269.87291-.45381,1.74561h.00011q-.70583,1.7316-1.41163,3.463a1.70593,1.70593,0,0,0-.87564,1.30876q-.41718.40774-.83384.816l-.00139.00032q-1.52868,1.116-3.057,2.23193l-.00117.00032a5.15551,5.15551,0,0,0-3.01962,2.209h.0001a2.39569,2.39569,0,0,0-.83576,1.31356h.00011a2.578,2.578,0,0,0-.5199,1.70756h-.00043a4.69428,4.69428,0,0,0-.76562,2.65611h-.00021q-.00912.65736-.01791,1.31483h.0001a2.23868,2.23868,0,0,0-.08965.35893h0l-.00053-.00042a.61314.61314,0,0,0-.36863.07089V109.6925l.43994-.00054c.14552.584-.15937,1.27593.41725,1.7566.10521,1.02125-.23229,2.10348.42086,3.04915l-.0001.00011a15.65909,15.65909,0,0,0,.87158,5.29729,22.38545,22.38545,0,0,0,.56681,4.49287,9.17878,9.17878,0,0,0-.26513,1.00974,4.61316,4.61316,0,0,0,1.03842,3.59144h3.48963c.24721-.48643.71733-.37524,1.13457-.4424,7.06882-1.13809,14.14424-2.25209,20.96691-4.52549,2.72177-.90687,3.27824-1.75873,3.14424-4.628h.00021c.058-1.32688-.22482-2.69555.48451-3.94238h0q1.29683-1.13067,2.59364-2.26125l-.00021-.00043h.0001a9.7638,9.7638,0,0,0,3.56863-2.50164l-.00011-.00021c.69111-.62736,1.70575-.851,2.18067-1.74818l.00042-.00021q.62458-.49746,1.24928-.99449l-.00032-.00043h.00021c1.476-.66062,1.55448-2.43811,2.69193-3.36917q.398-.67288.796-1.34554c.46169-.29891.46852-.76914.46809-1.24245h.00021a9.06208,9.06208,0,0,0,1.22572-3.97244q.0307-.65609.0613-1.31217a4.52831,4.52831,0,0,0-.04083-3.92361h-.00022c-.062-1.31612.36426-2.6817-.3972-3.927q.00319-1.08685.00619-2.17351V86.578c.43962-.32386.42406-.8073.44794-1.27721l.00011.00011q.6388-.90921,1.27773-1.81811l-.00021-.00021h.00011c1.32667-1.13574,3.05949-1.80169,3.96241-3.42738v-.00032q1.06176-.71556,2.12416-1.43028l-.00106-.00064.00064.0001q.66967-.63961,1.33925-1.27869l-.00011-.00043h0c1.09864-.721,2.18322-1.45278,2.26712-2.953.78619-.39752,1.11069-1.21441,1.65969-1.82706v-.00032c1.14949-.6749,1.39479-1.87482,1.74871-3.01184a4.17384,4.17384,0,0,0,.88117-2.61613,1.41277,1.41277,0,0,0,.01706-.37982,1.01748,1.01748,0,0,0,.14413-.36565,5.2058,5.2058,0,0,0,.02835-3.588,1.69707,1.69707,0,0,0-.1858-.49687,1.30481,1.30481,0,0,0-.0128-.40563q-.23905-1.309-.47811-2.61794-.0243-.45509-.0485-.91-.19557-1.50822-.3907-3.01643l-.00032-.0001.01119-3.92649-.00011-.00022.00043.00022a2.63235,2.63235,0,0,0,.48952-1.70245l.00021.00011c.47833-1,1.293-1.85371,1.32561-3.04766a3.46227,3.46227,0,0,0,1.26611-1.81906v-.00032q.66105-1.06752,1.3222-2.13525l.0001.0001a10.65113,10.65113,0,0,0,2.16425-5.25891c.0517-.4682-.092-.99887.42225-1.31889q.001-1.0875.00128-2.17522l-.00011-.00032.00032.00042Q149.1159,32.46531,149.12971,31.15831Z"/><path class="cls-4" d="M155.64277,103.75091q.00727-.2907.01442-.58141l.00017-.00006a3.84034,3.84034,0,0,0-1.38619-4.8087q-.82869-.41433-1.6569-.82877a9.56171,9.56171,0,0,0-3.75807.0397,19.57846,19.57846,0,0,1-6.46848.14637,9.01983,9.01983,0,0,0-6.274,1.16025,4.84361,4.84361,0,0,0-2.21144,1.53374l.00006,0-.00006,0a3.74011,3.74011,0,0,0-1.53216,1.27314l-.00012.00009q-.99738.81673-1.99464,1.63353l.00006,0q-.82862.45007-1.65721.90036l-.00074-.00009a3.8013,3.8013,0,0,1-2.10931-.09843,2.64881,2.64881,0,0,0-2.21691-.02859l.00012.0002a2.95974,2.95974,0,0,0-1.99057.45994l-.00074-.00009q-.33612.11181-.67224.22392l-.00054-.0002c-.79381.12253-1.29071.78072-1.97736,1.09655l-.93.70289-.00017-.00009a2.65434,2.65434,0,0,0-1.20229,1.14581l-.00006,0c-.42631.089-.49518.516-.73668.77978l-.00071.00014a2.72745,2.72745,0,0,0-.98782.99165l.00032.00009-.00009,0q-.52778.75866-1.05561,1.51727l-.00017-.00009a4.40507,4.40507,0,0,0-1.0707,1.505l.00012.00006h0q-.34728.41829-.6944.83672l-.8254,1.0375q-.35686.406-.71369.812l.00012.00006-.00006,0q-.8448.7365-1.68954,1.47288a1.02249,1.02249,0,0,0-.82166.46437q-.33329.10575-.66641.21191l-.00083-.0002q-1.11921.18505-2.23825.37019l-.00072-.00015a3.09,3.09,0,0,0-2.212.368l.00006,0a1.43578,1.43578,0,0,0-.80161.47769l.00005,0a1.54515,1.54515,0,0,0-.7388.77378l-.00023-.00012a2.81363,2.81363,0,0,0-1.12615,1.21522h0l-.00011-.00006q-.18218.34941-.3642.69895l.00006,0a1.34189,1.34189,0,0,0-.14479.16794h0l-.00017-.00037a.36751.36751,0,0,0-.21643-.06147l-2.23566,4.437-.706,1.40117.23563.11837c-.07961.35181-.42942.64-.25042,1.05276-.21911.575-.69163,1.06326-.59707,1.74559l-.00009,0a9.38575,9.38575,0,0,0-.96214,3.07048,13.41807,13.41807,0,0,0-.90832,2.55772,5.49863,5.49863,0,0,0-.41423.469,2.76492,2.76492,0,0,0-.41278,2.2024l1.86786.94115c.26351-.1937.48515-.00739.7266.06919a79.25745,79.25745,0,0,0,12.44323,3.23239c1.70144.24865,2.229-.05724,2.93115-1.6292h0l.00012.00005a4.87694,4.87694,0,0,1,1.32258-1.97952h0q.99907-.25545,1.99812-.51086v-.00028l.00006,0a5.85218,5.85218,0,0,0,2.58482-.37658v-.00015c.53912-.1494,1.14253.00453,1.6387-.3476h.00028q.46848-.09783.9369-.19539l-.00006-.00031.00012,0c.96822.04448,1.4896-.88578,2.34953-1.07737q.3945-.25282.78895-.50553c.32775-.03548.45822-.28533.58564-.5388l.00011.00006a5.43139,5.43139,0,0,0,1.72743-1.79571q.19338-.3429.3867-.68582a2.71412,2.71412,0,0,0,1.03633-2.11116l-.00011-.00006c.32174-.72119.91822-1.33716.8465-2.20909q.29483-.58089.5895-1.16173l0-.00006c.32266-.05478.44471-.31774.58422-.56282l0,.00008q.58714-.31437,1.17426-.62855l-.00006-.00018.00006,0c1.01641-.25012,2.12353-.13923,3.04527-.76588l.00008-.00017q.76131-.09666,1.52272-.1927l-.00039-.00063.00031.00023q.531-.16175,1.0617-.32324l.00006-.00026h0a2.308,2.308,0,0,0,2.00991-.96918,3.83731,3.83731,0,0,0,1.38112-.53034l.00008-.00017a2.73722,2.73722,0,0,0,1.7483-1.14049,2.50166,2.50166,0,0,0,1.17722-1.16266.84767.84767,0,0,0,.11157-.1987.60988.60988,0,0,0,.17575-.15685,3.12015,3.12015,0,0,0,.98286-1.91288,1.01706,1.01706,0,0,0,.03455-.31606.78167.78167,0,0,0,.10255-.22057q.22508-.7651.45014-1.53022.10972-.25014.21945-.50015.30209-.86.60439-1.71993l-.00014-.00015,1.06495-2.09867v-.00014l.00017.00023a1.5777,1.5777,0,0,0,.72117-.77923l.00008.00012c.52574-.40628,1.192-.6435,1.53149-1.27378a2.07512,2.07512,0,0,0,1.16829-.6322l.00009-.00017q.64173-.39312,1.28358-.78632l0,.00008a6.3839,6.3839,0,0,0,2.57675-2.23119c.15394-.23666.22014-.55946.58171-.59206q.29381-.58185.58734-1.164l0-.0002.00006.00032Q155.28289,104.44677,155.64277,103.75091Z"/><path class="cls-3" d="M-17.63242,24.9476c-26.6158.1641-33.7241,26.6335-19.2886,41.52319C-16.95681,87.0636,37.86349,24.6099-17.63242,24.9476Z"/><rect class="cls-1" x="119.75148" y="102.9417" width="31.49741" height="47.95959"/><rect class="cls-1" x="130.78949" y="130.05729" width="23.5993" height="19.97511"/><path class="cls-5" d="M133.79149,147.39629a31.34834,31.34834,0,0,1,4.367-5.761,43.73189,43.73189,0,0,1,6.642-5.828v-.029l.438-2.451a.0969.0969,0,1,1,.19.038l-.409,2.297a46.12569,46.12569,0,0,1,7.565-4.352.09359.09359,0,0,1,.124.048.09605.09605,0,0,1-.047.125,47.48508,47.48508,0,0,0-4.739,2.5l1.732.357a.09846.09846,0,0,1-.039.193l-1.931-.406a45.36557,45.36557,0,0,0-7.346,5.597l2.436.705a.10429.10429,0,0,1,.066.116.10214.10214,0,0,1-.114.067l-2.493-.724c-.01,0-.01-.009-.019-.009-.01-.01-.019-.01-.029-.02-.704.676-1.341,1.313-1.884,1.901a32.61385,32.61385,0,0,0-4.349,5.723.09508.09508,0,0,1-.133.038A.08936.08936,0,0,1,133.79149,147.39629Z"/><rect class="cls-1" x="69.36348" y="29.048" width="79.1555" height="120.526"/><path class="cls-5" d="M83.79748,138.0483c.024-.121,1.745-13.484,9.35-32.7386a209.89385,209.89385,0,0,1,19.179-37.0067.34725.34725,0,0,1-.048-.1455l-2.2-11.4706a.46284.46284,0,0,1,.359-.5335.457.457,0,0,1,.526.3637l2.057,10.7431a220.10529,220.10529,0,0,1,25.707-32.1565.44362.44362,0,0,1,.622,0,.45938.45938,0,0,1,0,.6305,216.44252,216.44252,0,0,0-16.477,19.1581l8.179-1.4308a.457.457,0,0,1,.526.3638.46282.46282,0,0,1-.359.5335l-9.111,1.6006a218.43693,218.43693,0,0,0-22.647,37.1764l11.862-1.164a.45.45,0,0,1,.071.8972l-12.1,1.18829h-.096a.33393.33393,0,0,1-.143-.0485c-1.961,4.17121-3.635,8.0513-5.022,11.59191-7.581,19.1576-9.303,32.4236-9.327,32.5446a.45592.45592,0,0,1-.502.388A.43783.43783,0,0,1,83.79748,138.0483Z"/><rect class="cls-1" x="97.10748" y="97.19239" width="59.30679" height="50.1991"/><path class="cls-5" d="M104.65149,140.7643a78.96568,78.96568,0,0,1,10.977-14.478,109.88434,109.88434,0,0,1,16.692-14.648v-.072l1.1-6.16a.248.248,0,0,1,.287-.194.25152.25152,0,0,1,.191.291l-1.028,5.772a115.89146,115.89146,0,0,1,19.011-10.93741.23571.23571,0,0,1,.311.1213.24206.24206,0,0,1-.119.31521,119.526,119.526,0,0,0-11.909,6.28089l4.352.89731a.25078.25078,0,0,1,.191.291.24809.24809,0,0,1-.287.19409l-4.854-1.0186a113.9728,113.9728,0,0,0-18.462,14.06521l6.122,1.771a.26412.26412,0,0,1,.168.291.2587.2587,0,0,1-.287.169l-6.266-1.818c-.024,0-.024-.025-.048-.025-.024-.024-.048-.024-.072-.048-1.769,1.697-3.371,3.298-4.735,4.777a81.9772,81.9772,0,0,0-10.928,14.381.24045.24045,0,0,1-.335.097A.22734.22734,0,0,1,104.65149,140.7643Z"/><path class="cls-6" d="M5.04958,147.5593h-22.1624l-4.0727-29.924H.97688Z"/><path class="cls-7" d="M149.94292,107.221q-.09181-.193-.18372-.386l.00009-.00009a2.82287,2.82287,0,0,0-2.50662-2.6924q-.681.00366-1.36175.0071a7.02862,7.02862,0,0,0-2.4509,1.27467,14.39129,14.39129,0,0,1-4.19262,2.24516,6.63013,6.63013,0,0,0-3.72821,2.84531,3.56031,3.56031,0,0,0-.9404,1.7404h0a2.74917,2.74917,0,0,0-.5816,1.34385l0,.00009q-.38259.86691-.7651,1.7338h0q-.39378.57042-.78745,1.141l-.00052.00019a2.79411,2.79411,0,0,1-1.41573.63629,1.947,1.947,0,0,0-1.46308.71784l.00014.00009c-.55077.12131-.83.568-1.15235.96295l-.00052.00018q-.18324.185-.36638.37018l-.00042.00005c-.47977.34409-.58689.94075-.93218,1.376l-.37626.76988h-.00014a1.95113,1.95113,0,0,0-.40762,1.15075h0c-.25.2-.15323.50289-.22394.75605l-.00043.00033a2.00482,2.00482,0,0,0-.3182.97842l.00023,0-.00005,0q-.094.67279-.188,1.34558H125.599a3.238,3.238,0,0,0-.202,1.34256h.00009q-.08872.38964-.1773.77933l-.19648.95451q-.09909.38481-.19817.76952h.00005l-.61843,1.5271a.75158.75158,0,0,0-.38446.57747q-.18339.18007-.36654.36037l-.00061.00014q-.67236.4932-1.34458.9864l-.00051.00014a2.27131,2.27131,0,0,0-1.32812.97626h0a1.05545,1.05545,0,0,0-.36688.57955h.00005a1.13576,1.13576,0,0,0-.22733.75282h-.00019a2.0681,2.0681,0,0,0-.33463,1.171h-.0001q-.00334.28963-.00656.57929h.00005a.98517.98517,0,0,0-.03914.15823h0l-.00023-.00019a.27024.27024,0,0,0-.16234.0316l.00836,3.65209.00263,1.15328.19383-.00067c.0647.25713-.06893.56229.18559.77347.04739.44983-.10021.927.1885,1.34293l-.00005,0a6.89881,6.89881,0,0,0,.38933,2.33293,9.86268,9.86268,0,0,0,.25424,1.97884,4.04571,4.04571,0,0,0-.11578.44512,2.03235,2.03235,0,0,0,.46111,1.58122l1.53742-.00351c.10842-.21456.31565-.166.4994-.196a58.258,58.258,0,0,0,9.23276-2.01492c1.19821-.40228,1.44251-.77814,1.38058-2.04213h.00009a3.58493,3.58493,0,0,1,.20949-1.73736h0q.57019-.49946,1.14039-.99885l-.00009-.00019h0a4.30167,4.30167,0,0,0,1.5697-1.10573l0-.0001c.30385-.27709.75064-.37664.959-.77238l.00018-.0001q.27468-.2198.54939-.4394l-.00014-.00019h.00009c.64962-.29253.6824-1.07571,1.18258-1.487l.34933-.59361c.20311-.13215.20564-.33932.205-.54785h.00009a3.99255,3.99255,0,0,0,.536-1.75136l.02568-.57816a1.995,1.995,0,0,0-.02194-1.72857h-.0001c-.02866-.57977.15778-1.18183-.17895-1.72971q.00032-.47885.00053-.95759v0c.19336-.14312.186-.35609.19607-.56314l0,0q.28053-.40121.5611-.80228l-.00009-.00009h0c.58334-.50171,1.3461-.79685,1.74226-1.514v-.00014q.46706-.31632.93439-.63227l-.00047-.00029.00028.00005q.29439-.28247.58874-.5647l0-.00019h0c.4833-.31873.96039-.64224.99584-1.30327.346-.17593.48811-.53615.72936-.80662V125.472a2.012,2.012,0,0,0,.76739-1.32868,1.83885,1.83885,0,0,0,.38558-1.15347.62249.62249,0,0,0,.00713-.16735.44834.44834,0,0,0,.06313-.16124,2.29355,2.29355,0,0,0,.00888-1.58079.74786.74786,0,0,0-.08236-.21872.57479.57479,0,0,0-.006-.17869q-.10664-.57645-.21328-1.1529l-.02228-.40085q-.08769-.66427-.17517-1.32854l-.00014-.00005.001-1.72989-.00005-.00009.00019.00009a1.15972,1.15972,0,0,0,.214-.75053l.00009,0a3.37729,3.37729,0,0,0,.581-1.344,1.52534,1.52534,0,0,0,.556-.80269v-.00014q.29016-.471.58036-.94206l.00005.00005a4.69255,4.69255,0,0,0,.94819-2.31908c.02231-.20633-.04153-.44.1847-.58149q-.00066-.47911-.00162-.95833l-.00005-.00014.00014.00019Q149.93816,107.79686,149.94292,107.221Z"/><path class="cls-8" d="M-28.07082,117.6353l-7.4699,22.503a10.7517,10.7517,0,0,1-10.1819,7.421h28.5475a10.75562,10.75562,0,0,0,10.1819-7.421l7.47-22.503Z"/><path class="cls-9" d="M-29.27932,121.2733h28.538l1.2085-3.638h-28.538Z"/><path class="cls-5" d="M125.49748,146.31429a60.3419,60.3419,0,0,1,3.72-13.028,83.52224,83.52224,0,0,1,7.632-14.725.13639.13639,0,0,1-.019-.058l-.876-4.565a.18426.18426,0,0,1,.143-.212.18156.18156,0,0,1,.209.145l.819,4.275a87.61932,87.61932,0,0,1,10.229-12.7959.17716.17716,0,0,1,.248,0,.1837.1837,0,0,1,0,.2509,86.34925,86.34925,0,0,0-6.557,7.623l3.255-.569a.18157.18157,0,0,1,.209.145.18346.18346,0,0,1-.143.212l-3.625.637a86.974,86.974,0,0,0-9.012,14.793l4.72-.463a.1791.1791,0,0,1,.029.357l-4.815.473h-.038a.14227.14227,0,0,1-.057-.019c-.781,1.659-1.447,3.203-1.999,4.612a60.21954,60.21954,0,0,0-3.711,12.95.182.182,0,0,1-.2.155A.17435.17435,0,0,1,125.49748,146.31429Z"/><rect class="cls-1" x="-2.62502" y="125.9083" width="17.3188" height="25.2825"/><path class="cls-5" d="M.30218,148.81429a31.561,31.561,0,0,1,2.1792-6.9,44.26484,44.26484,0,0,1,4.29161-7.749c0-.009-.00951-.019-.00951-.029l-.3997-2.451a.09157.09157,0,1,1,.18081-.029l.38069,2.297a46.37607,46.37607,0,0,1,5.6524-6.678.09205.09205,0,0,1,.1332,0,.0952.0952,0,0,1,0,.136,45.58182,45.58182,0,0,0-3.616,3.975l1.74139-.251a.09311.09311,0,0,1,.0285.184l-1.95069.28a45.85885,45.85885,0,0,0-5.0244,7.768l2.52169-.174a.097.097,0,0,1,.019.193l-2.5787.174h-.0191c-.0095,0-.019-.01-.0285-.01-.43779.878-.81839,1.689-1.1324,2.432a31.5303,31.5303,0,0,0-2.1696,6.861.0942.0942,0,0,1-.1047.077C.33079,148.9103.29269,148.86229.30218,148.81429Z"/><path class="cls-10" d="M33.59338,94.0341c-6.98079-16.5061-8.0192-50.707-5.8515-64.0307,1.28861-7.8618,10.0736-15.57321,18.8956-15.91175,13.568-.51911,19.609,7.53835,23.004,15.91925,3.828,9.4417-4.964,30.0706-.06,40.7461,4.904,10.6756,22.973,15.4153,29.492,23.2846,5.306,6.4023,5.018,11.0367,5.048,12.4059.258,10.1868-8.762,19.9368-18.737,22.9158-1.796.534-7.352,1.964-15.75-.301C47.81248,123.1643,36.46648,100.2935,33.59338,94.0341Z"/><path class="cls-11" d="M70.06648,110.8113c4.942,9.02,20.192,27.166,29.288,23.833,9.868-3.618,23.731-25.8872,27.407-32.6732,1.531-2.8288-3.213-10.4424-5.358-8.0349-3.631,4.0776-16.35,21.7951-25.119,21.9001-8.459.098-22.186-34.464-26.559-35.3066C65.35248,79.6946,65.20848,101.941,70.06648,110.8113Z"/><path class="cls-12" d="M15.358,180.40129a126.145,126.145,0,0,1,1.66749-13.858c1.1976-7.199,2.8348-15.159,4.37341-22.931,2.63769-13.361,4.94189-26.158,4.0627-33.5009C24.47618,101.8509,12.743,93.6806,15.36558,87.2482c2.6149-6.4249,25.9529-15.5507,25.9529-15.5507,4.214-1.6777,10.315-1.5573,13.613,0,4.767,2.2495,13.521,6.4174,16.099,10.3145,3.191,4.8224,8.951,18.0483,7.064,29.7473-5.2,32.222,4.426,55.318,6.404,68.65C87.28848,199.18729,14.36508,200.9403,15.358,180.40129Z"/><path class="cls-13" d="M69.27748,124.4353c-4.836,6.26-35.8061,45.847-52.24619,42.101,1.19749-7.2,2.83469-15.16,4.3734-22.931C34.16869,135.6833,54.62649,128.8143,69.27748,124.4353Z"/><path class="cls-14" d="M73.55249,88.20369a81.97317,81.97317,0,0,1,3.078,8.40351,44.07564,44.07564,0,0,1,1.735,8.83239l.076,1.12851.038,1.136c.008.75229.008,1.4971-.008,2.2419-.03,1.49729-.106,2.98629-.242,4.4763a55.74632,55.74632,0,0,1-1.471,8.825c.205-2.972.402-5.928.47-8.885.008-.369.023-.737.023-1.106.008-.369.015-.737.015-1.106q.012-1.1055,0-2.2118l-.015-1.1059-.015-.5568c-.008-.1805-.008-.3686-.015-.5492l-.046-1.0908-.076-1.0909a61.88766,61.88766,0,0,0-1.432-8.6819C75.00049,93.98159,74.21948,91.1152,73.55249,88.20369Z"/><path class="cls-15" d="M48.91248,132.83229a79.44445,79.44445,0,0,1-6.768,5.958q-3.5475,2.787-7.35241,5.244-3.7974,2.448-7.81459,4.544a78.41615,78.41615,0,0,1-8.2314,3.724c2.58459-1.542,5.17689-3.047,7.7388-4.589q3.84283-2.3145,7.6099-4.74,3.763-2.427,7.4507-4.98C44.00848,136.29229,46.44148,134.55429,48.91248,132.83229Z"/><path class="cls-16" d="M54.77148,71.5394V58.3435l-11.589-.7674-.91,13.5796s-1.288,12.7068,6.633,12.7745C55.40849,83.9829,54.77148,71.5394,54.77148,71.5394Z"/><path class="cls-17" d="M42.65248,65.423c2.38,4.9052,9.103,6.1992,12.294,6.1992l-.159-8.2004-11.915-1.309Z"/><path class="cls-16" d="M32.62189,36.022a73.66416,73.66416,0,0,0,1.92519,17.4164c1.56941,6.6431,9.1334,14.9112,14.8484,14.9112,6.572,0,12.029-9.4041,13.317-15.987a34.63077,34.63077,0,0,0-2.827-20.1624c-2.501-4.8977-7.883-7.2901-16.228-6.312C36.66148,26.7082,34.54708,31.1545,32.62189,36.022Z"/><path class="cls-18" d="M71.01349,104.8524a1.43674,1.43674,0,0,0-1.455-1.67021h-12.416a1.97287,1.97287,0,0,0-1.902,1.67021l-3.456,26.12089a1.4355,1.4355,0,0,0,1.455,1.67h12.408a1.97306,1.97306,0,0,0,1.902-1.67Z"/><path class="cls-19" d="M15.35758,87.2404c-4.1233,8.0123-17.4558,60.2019-11.52849,67.4609,5.9272,7.26,39.92939-18.386,47.08439-23.886,2.653-2.039-1.167-10.645-4.146-9.103-4.662,2.407-24.20171,11.872-26.69541,11.112-3.5093-1.061,9.285-18.583,8.49671-26.17381C27.78059,99.052,18.93518,80.2889,15.35758,87.2404Z"/><path class="cls-16" d="M46.76749,121.7203c1.243-3.484,8.732-11.9172,11.347-11.6012,2.607.3162,5.556,10.00619,4.313,13.4892s-9.179,7.719-11.786,7.41C48.02648,130.69529,45.63848,124.8723,46.76749,121.7203Z"/><path class="cls-16" d="M121.40448,93.936c.091-3.4833,3.956-12.69179,6.169-12.8498,2.206-.158,7.178,8.41111,7.087,11.8944-.091,3.4832-5.427,8.8323-7.64,8.99781C124.80748,102.13639,121.31349,97.1936,121.40448,93.936Z"/><path class="cls-16" d="M127.57248,81.08619a31.0138,31.0138,0,0,1,5.844-7.47069c.856-.5642,1.751,1.753,1.402,2.70839-.561,1.54231-3.578,5.73281-4.783,6.53021C129.18648,83.4109,127.22348,82.0341,127.57248,81.08619Z"/><path class="cls-20" d="M32.32868,46.2312c4.00981,1.0457,29.65881-14.7607,30.77281-18.9737,1.122-4.2056-13.802-12.46612-24.065-6.2745C28.06889,27.596,28.31908,45.1855,32.32868,46.2312Z"/><path class="cls-21" d="M46.07848,60.6385a6.12471,6.12471,0,0,0,1.682.9178,5.35965,5.35965,0,0,0,1.85.301,4.77817,4.77817,0,0,0,1.826-.3762,4.04372,4.04372,0,0,0,1.516-1.136,3.22117,3.22117,0,0,1-1.387,1.3993,4.27961,4.27961,0,0,1-1.955.4965,4.72723,4.72723,0,0,1-1.963-.4062A4.09419,4.09419,0,0,1,46.07848,60.6385Z"/><path class="cls-22" d="M40.85348,50.0606c1.118,0,2.024-1.2732,2.024-2.8438s-.906-2.8438-2.024-2.8438c-1.117,0-2.023,1.2732-2.023,2.8438S39.73648,50.0606,40.85348,50.0606Z"/><path class="cls-22" d="M56.96948,50.0606c1.117,0,2.023-1.2732,2.023-2.8438s-.906-2.8438-2.023-2.8438c-1.118,0-2.024,1.2732-2.024,2.8438S55.85149,50.0606,56.96948,50.0606Z"/><path class="cls-17" d="M49.50948,49.0445s-1.645,3.8369-1.592,4.74719a4.19466,4.19466,0,0,0,1.895.74481C49.81948,53.79169,49.50948,49.0445,49.50948,49.0445Z"/><path class="cls-23" d="M37.98248,43.9216a3.42535,3.42535,0,0,1,1.152-1.3768,2.61627,2.61627,0,0,1,.402-.2332,3.01837,3.01837,0,0,1,.432-.173,1.26224,1.26224,0,0,1,.227-.0602l.235-.0452c.159-.0225.318-.0225.47-.03a3.00315,3.00315,0,0,1,1.743.6169,3.34226,3.34226,0,0,1,1.092,1.4219,5.04647,5.04647,0,0,0-1.274-1.1436c-.06-.0376-.121-.0677-.181-.0978l-.19-.0903a3.4262,3.4262,0,0,0-.386-.1429c-.129-.0376-.266-.0602-.402-.0978-.137-.0151-.273-.0301-.41-.0376a3.19116,3.19116,0,0,0-1.584.3912A5.256,5.256,0,0,0,37.98248,43.9216Z"/><path class="cls-23" d="M54.09748,43.9216a3.42535,3.42535,0,0,1,1.152-1.3768,2.71475,2.71475,0,0,1,.402-.2332,3.0179,3.0179,0,0,1,.432-.173,1.28437,1.28437,0,0,1,.227-.0602l.235-.0452c.16-.0225.319-.0225.47-.03a3.00854,3.00854,0,0,1,1.744.6169,3.34775,3.34775,0,0,1,1.091,1.4219,5.05964,5.05964,0,0,0-1.273-1.1436c-.061-.0376-.122-.0677-.182-.0978l-.19-.0903a3.35429,3.35429,0,0,0-.386-.1429c-.129-.0376-.266-.0602-.402-.0978-.136-.0151-.273-.0301-.409-.0376a3.18605,3.18605,0,0,0-1.584.3912A5.24308,5.24308,0,0,0,54.09748,43.9216Z"/><path class="cls-15" d="M20.06448,83.9829c.3638.504.71241,1.00809,1.06111,1.5197.33349.51909.65189,1.0533.9778,1.57989.3032.54171.6063,1.08331.9019,1.625.14409.27081.28049.5567.4169.82761q.20473.41745.40929.8351A44.073,44.073,0,0,1,26.401,97.3518a45.24242,45.24242,0,0,1,1.3946,7.2976c.03039.3084.06069.6169.08339.9253.03031.3085.0531.61689.0758.9254.0303.61689.06071,1.2338.0834,1.8507.0076.61689.0076,1.2338.0076,1.8507-.02279.61679-.0455,1.2338-.091,1.8508-.0985-.609-.1895-1.219-.2653-1.82821-.09849-.60939-.1895-1.21119-.27279-1.82059-.09861-.60191-.20471-1.2037-.2956-1.8131-.10621-.6019-.21981-1.20381-.326-1.79811-.4472-2.39239-.9853-4.76979-1.6371-7.10949q-.96643-3.50955-2.26629-6.929c-.22741-.56421-.43971-1.136-.667-1.70771-.235-.56429-.47-1.12849-.69741-1.69279-.2501-.5567-.4926-1.1209-.7276-1.68521C20.56468,85.1189,20.31458,84.5547,20.06448,83.9829Z"/></g></svg>