<svg width="132" height="70" viewBox="0 0 132 70" fill="none" xmlns="http://www.w3.org/2000/svg">
<path d="M4.17135 53.15H0.691348V51.5H9.60135V53.15H6.12135V62H4.17135V53.15ZM13.52 53.9C14.7 53.9 15.6 54.185 16.22 54.755C16.85 55.315 17.165 56.165 17.165 57.305V62H15.395V61.025C15.165 61.375 14.835 61.645 14.405 61.835C13.985 62.015 13.475 62.105 12.875 62.105C12.275 62.105 11.75 62.005 11.3 61.805C10.85 61.595 10.5 61.31 10.25 60.95C10.01 60.58 9.88998 60.165 9.88998 59.705C9.88998 58.985 10.155 58.41 10.685 57.98C11.225 57.54 12.07 57.32 13.22 57.32H15.29V57.2C15.29 56.64 15.12 56.21 14.78 55.91C14.45 55.61 13.955 55.46 13.295 55.46C12.845 55.46 12.4 55.53 11.96 55.67C11.53 55.81 11.165 56.005 10.865 56.255L10.13 54.89C10.55 54.57 11.055 54.325 11.645 54.155C12.235 53.985 12.86 53.9 13.52 53.9ZM13.265 60.74C13.735 60.74 14.15 60.635 14.51 60.425C14.88 60.205 15.14 59.895 15.29 59.495V58.565H13.355C12.275 58.565 11.735 58.92 11.735 59.63C11.735 59.97 11.87 60.24 12.14 60.44C12.41 60.64 12.785 60.74 13.265 60.74ZM29.6813 53.9C30.6913 53.9 31.4913 54.195 32.0813 54.785C32.6713 55.365 32.9663 56.24 32.9663 57.41V62H31.0913V57.65C31.0913 56.95 30.9363 56.425 30.6263 56.075C30.3163 55.715 29.8713 55.535 29.2913 55.535C28.6613 55.535 28.1563 55.745 27.7763 56.165C27.3963 56.575 27.2063 57.165 27.2063 57.935V62H25.3313V57.65C25.3313 56.95 25.1763 56.425 24.8663 56.075C24.5563 55.715 24.1113 55.535 23.5313 55.535C22.8913 55.535 22.3813 55.74 22.0013 56.15C21.6313 56.56 21.4463 57.155 21.4463 57.935V62H19.5713V53.99H21.3563V55.01C21.6563 54.65 22.0313 54.375 22.4813 54.185C22.9313 53.995 23.4313 53.9 23.9813 53.9C24.5813 53.9 25.1113 54.015 25.5713 54.245C26.0413 54.465 26.4113 54.795 26.6813 55.235C27.0113 54.815 27.4363 54.49 27.9563 54.26C28.4763 54.02 29.0513 53.9 29.6813 53.9ZM39.8023 53.9C40.5823 53.9 41.2773 54.07 41.8873 54.41C42.5073 54.75 42.9923 55.23 43.3423 55.85C43.6923 56.47 43.8673 57.185 43.8673 57.995C43.8673 58.805 43.6923 59.525 43.3423 60.155C42.9923 60.775 42.5073 61.255 41.8873 61.595C41.2773 61.935 40.5823 62.105 39.8023 62.105C39.2523 62.105 38.7473 62.01 38.2873 61.82C37.8373 61.63 37.4573 61.345 37.1473 60.965V62H35.3623V50.87H37.2373V54.965C37.5573 54.615 37.9323 54.35 38.3623 54.17C38.8023 53.99 39.2823 53.9 39.8023 53.9ZM39.5923 60.5C40.2823 60.5 40.8473 60.27 41.2873 59.81C41.7373 59.35 41.9623 58.745 41.9623 57.995C41.9623 57.245 41.7373 56.64 41.2873 56.18C40.8473 55.72 40.2823 55.49 39.5923 55.49C39.1423 55.49 38.7373 55.595 38.3773 55.805C38.0173 56.005 37.7323 56.295 37.5223 56.675C37.3123 57.055 37.2073 57.495 37.2073 57.995C37.2073 58.495 37.3123 58.935 37.5223 59.315C37.7323 59.695 38.0173 59.99 38.3773 60.2C38.7373 60.4 39.1423 60.5 39.5923 60.5ZM48.603 53.9C49.783 53.9 50.683 54.185 51.303 54.755C51.933 55.315 52.248 56.165 52.248 57.305V62H50.478V61.025C50.248 61.375 49.918 61.645 49.488 61.835C49.068 62.015 48.558 62.105 47.958 62.105C47.358 62.105 46.833 62.005 46.383 61.805C45.933 61.595 45.583 61.31 45.333 60.95C45.093 60.58 44.973 60.165 44.973 59.705C44.973 58.985 45.238 58.41 45.768 57.98C46.308 57.54 47.153 57.32 48.303 57.32H50.373V57.2C50.373 56.64 50.203 56.21 49.863 55.91C49.533 55.61 49.038 55.46 48.378 55.46C47.928 55.46 47.483 55.53 47.043 55.67C46.613 55.81 46.248 56.005 45.948 56.255L45.213 54.89C45.633 54.57 46.138 54.325 46.728 54.155C47.318 53.985 47.943 53.9 48.603 53.9ZM48.348 60.74C48.818 60.74 49.233 60.635 49.593 60.425C49.963 60.205 50.223 59.895 50.373 59.495V58.565H48.438C47.358 58.565 46.818 58.92 46.818 59.63C46.818 59.97 46.953 60.24 47.223 60.44C47.493 60.64 47.868 60.74 48.348 60.74ZM59.1993 53.9C60.2093 53.9 61.0193 54.195 61.6293 54.785C62.2393 55.375 62.5443 56.25 62.5443 57.41V62H60.6693V57.65C60.6693 56.95 60.5043 56.425 60.1743 56.075C59.8443 55.715 59.3743 55.535 58.7643 55.535C58.0743 55.535 57.5293 55.745 57.1293 56.165C56.7293 56.575 56.5293 57.17 56.5293 57.95V62H54.6543V50.87H56.5293V54.92C56.8393 54.59 57.2193 54.34 57.6693 54.17C58.1293 53.99 58.6393 53.9 59.1993 53.9ZM68.1929 58.565L66.7979 59.885V62H64.9229V50.87H66.7979V57.59L70.6829 53.99H72.9329L69.5879 57.35L73.2479 62H70.9679L68.1929 58.565ZM77.3725 53.9C78.5525 53.9 79.4525 54.185 80.0725 54.755C80.7025 55.315 81.0175 56.165 81.0175 57.305V62H79.2475V61.025C79.0175 61.375 78.6875 61.645 78.2575 61.835C77.8375 62.015 77.3275 62.105 76.7275 62.105C76.1275 62.105 75.6025 62.005 75.1525 61.805C74.7025 61.595 74.3525 61.31 74.1025 60.95C73.8625 60.58 73.7425 60.165 73.7425 59.705C73.7425 58.985 74.0075 58.41 74.5375 57.98C75.0775 57.54 75.9225 57.32 77.0725 57.32H79.1425V57.2C79.1425 56.64 78.9725 56.21 78.6325 55.91C78.3025 55.61 77.8075 55.46 77.1475 55.46C76.6975 55.46 76.2525 55.53 75.8125 55.67C75.3825 55.81 75.0175 56.005 74.7175 56.255L73.9825 54.89C74.4025 54.57 74.9075 54.325 75.4975 54.155C76.0875 53.985 76.7125 53.9 77.3725 53.9ZM77.1175 60.74C77.5875 60.74 78.0025 60.635 78.3625 60.425C78.7325 60.205 78.9925 59.895 79.1425 59.495V58.565H77.2075C76.1275 58.565 75.5875 58.92 75.5875 59.63C75.5875 59.97 75.7225 60.24 75.9925 60.44C76.2625 60.64 76.6375 60.74 77.1175 60.74ZM87.9688 53.9C88.9788 53.9 89.7888 54.195 90.3988 54.785C91.0088 55.375 91.3138 56.25 91.3138 57.41V62H89.4388V57.65C89.4388 56.95 89.2738 56.425 88.9438 56.075C88.6138 55.715 88.1438 55.535 87.5338 55.535C86.8438 55.535 86.2988 55.745 85.8988 56.165C85.4988 56.575 85.2988 57.17 85.2988 57.95V62H83.4238V53.99H85.2088V55.025C85.5188 54.655 85.9088 54.375 86.3788 54.185C86.8488 53.995 87.3788 53.9 87.9688 53.9ZM99.9679 53.135V56.33H105.038V57.98H99.9679V62H98.0179V51.5H105.683V53.135H99.9679ZM110.769 62.105C109.959 62.105 109.229 61.93 108.579 61.58C107.929 61.23 107.419 60.745 107.049 60.125C106.689 59.495 106.509 58.785 106.509 57.995C106.509 57.205 106.689 56.5 107.049 55.88C107.419 55.26 107.929 54.775 108.579 54.425C109.229 54.075 109.959 53.9 110.769 53.9C111.589 53.9 112.324 54.075 112.974 54.425C113.624 54.775 114.129 55.26 114.489 55.88C114.859 56.5 115.044 57.205 115.044 57.995C115.044 58.785 114.859 59.495 114.489 60.125C114.129 60.745 113.624 61.23 112.974 61.58C112.324 61.93 111.589 62.105 110.769 62.105ZM110.769 60.5C111.459 60.5 112.029 60.27 112.479 59.81C112.929 59.35 113.154 58.745 113.154 57.995C113.154 57.245 112.929 56.64 112.479 56.18C112.029 55.72 111.459 55.49 110.769 55.49C110.079 55.49 109.509 55.72 109.059 56.18C108.619 56.64 108.399 57.245 108.399 57.995C108.399 58.745 108.619 59.35 109.059 59.81C109.509 60.27 110.079 60.5 110.769 60.5ZM121.652 61.565C121.432 61.745 121.162 61.88 120.842 61.97C120.532 62.06 120.202 62.105 119.852 62.105C118.972 62.105 118.292 61.875 117.812 61.415C117.332 60.955 117.092 60.285 117.092 59.405V55.55H115.772V54.05H117.092V52.22H118.967V54.05H121.112V55.55H118.967V59.36C118.967 59.75 119.062 60.05 119.252 60.26C119.442 60.46 119.717 60.56 120.077 60.56C120.497 60.56 120.847 60.45 121.127 60.23L121.652 61.565ZM126.531 62.105C125.721 62.105 124.991 61.93 124.341 61.58C123.691 61.23 123.181 60.745 122.811 60.125C122.451 59.495 122.271 58.785 122.271 57.995C122.271 57.205 122.451 56.5 122.811 55.88C123.181 55.26 123.691 54.775 124.341 54.425C124.991 54.075 125.721 53.9 126.531 53.9C127.351 53.9 128.086 54.075 128.736 54.425C129.386 54.775 129.891 55.26 130.251 55.88C130.621 56.5 130.806 57.205 130.806 57.995C130.806 58.785 130.621 59.495 130.251 60.125C129.891 60.745 129.386 61.23 128.736 61.58C128.086 61.93 127.351 62.105 126.531 62.105ZM126.531 60.5C127.221 60.5 127.791 60.27 128.241 59.81C128.691 59.35 128.916 58.745 128.916 57.995C128.916 57.245 128.691 56.64 128.241 56.18C127.791 55.72 127.221 55.49 126.531 55.49C125.841 55.49 125.271 55.72 124.821 56.18C124.381 56.64 124.161 57.245 124.161 57.995C124.161 58.745 124.381 59.35 124.821 59.81C125.271 60.27 125.841 60.5 126.531 60.5Z" fill="white"/>
<circle cx="67" cy="22" r="22" fill="#BBBBBB"/>
<path d="M77.4545 25.4V29H81V31.4H77.4545V35H75.0909V31.4H71.5455V29H75.0909V25.4H77.4545ZM77.464 11C78.1116 11 78.6364 11.534 78.6364 12.1916V23.4104C77.8772 23.1381 77.0779 22.9993 76.2727 23V13.4H57.3636L57.3648 30.2L68.3463 19.0484C68.5495 18.8414 68.8202 18.7169 69.1075 18.6983C69.3948 18.6798 69.6788 18.7684 69.9063 18.9476L70.0174 19.0496L74.2069 23.3096C73.2906 23.5931 72.4403 24.0621 71.7073 24.6884C70.9743 25.3146 70.3738 26.085 69.942 26.9533C69.5102 27.8215 69.2561 28.7696 69.1949 29.7403C69.1337 30.7109 69.2667 31.6841 69.586 32.6012L56.1724 32.6C55.8613 32.5997 55.5631 32.474 55.3433 32.2506C55.1235 32.0271 55 31.7242 55 31.4084V12.1916C55.0022 11.8765 55.1263 11.5748 55.3457 11.3519C55.5651 11.1289 55.862 11.0025 56.1724 11H77.464ZM62.0909 15.8C62.7178 15.8 63.319 16.0529 63.7623 16.5029C64.2055 16.953 64.4545 17.5635 64.4545 18.2C64.4545 18.8365 64.2055 19.447 63.7623 19.8971C63.319 20.3471 62.7178 20.6 62.0909 20.6C61.464 20.6 60.8628 20.3471 60.4196 19.8971C59.9763 19.447 59.7273 18.8365 59.7273 18.2C59.7273 17.5635 59.9763 16.953 60.4196 16.5029C60.8628 16.0529 61.464 15.8 62.0909 15.8Z" fill="white"/>
</svg>
