<svg width="63" height="15" viewBox="0 0 63 15" fill="none" xmlns="http://www.w3.org/2000/svg">
<path d="M9.61164 11.5333V13.9424H2.20261V11.5333H9.61164ZM3.26377 0.0229751V13.9424H0.147204V0.0229751H3.26377ZM8.65563 5.62515V7.9578H2.20261V5.62515H8.65563ZM9.6212 0.0229751V2.44166H2.20261V0.0229751H9.6212ZM16.839 6.79148V9.12413H11.2751V6.79148H16.839ZM29.6495 11.5333V13.9424H19.6784V11.5333H29.6495ZM29.5443 1.68642L21.141 13.9424H18.9231V12.2407L27.4029 0.0229751H29.5443V1.68642ZM28.5118 0.0229751V2.44166H18.904V0.0229751H28.5118ZM30.5194 8.87557V8.6748C30.5194 7.91638 30.6278 7.21849 30.8445 6.58116C31.0612 5.93745 31.3798 5.37978 31.8005 4.90815C32.2211 4.43652 32.7374 4.07006 33.3492 3.80875C33.961 3.54107 34.6621 3.40723 35.4524 3.40723C36.2554 3.40723 36.9629 3.54107 37.5747 3.80875C38.1929 4.07006 38.7124 4.43652 39.133 4.90815C39.5537 5.37978 39.8723 5.93745 40.089 6.58116C40.3057 7.21849 40.4141 7.91638 40.4141 8.6748V8.87557C40.4141 9.62762 40.3057 10.3255 40.089 10.9692C39.8723 11.6065 39.5537 12.1642 39.133 12.6422C38.7124 13.1138 38.1961 13.4803 37.5843 13.7416C36.9725 14.0029 36.2682 14.1336 35.4715 14.1336C34.6812 14.1336 33.977 14.0029 33.3588 13.7416C32.7405 13.4803 32.2211 13.1138 31.8005 12.6422C31.3798 12.1642 31.0612 11.6065 30.8445 10.9692C30.6278 10.3255 30.5194 9.62762 30.5194 8.87557ZM33.5117 8.6748V8.87557C33.5117 9.28346 33.5436 9.66586 33.6073 10.0228C33.6774 10.3797 33.789 10.692 33.9419 10.9597C34.0949 11.2273 34.2956 11.4377 34.5442 11.5906C34.7991 11.7372 35.1082 11.8105 35.4715 11.8105C35.8348 11.8105 36.1407 11.7372 36.3893 11.5906C36.6379 11.4377 36.8386 11.2273 36.9916 10.9597C37.1445 10.692 37.2529 10.3797 37.3166 10.0228C37.3867 9.66586 37.4218 9.28346 37.4218 8.87557V8.6748C37.4218 8.27328 37.3867 7.89726 37.3166 7.54672C37.2529 7.18981 37.1445 6.87433 36.9916 6.60028C36.8386 6.32622 36.6347 6.11272 36.3797 5.95976C36.1312 5.80679 35.8221 5.73031 35.4524 5.73031C35.0955 5.73031 34.7928 5.80679 34.5442 5.95976C34.2956 6.11272 34.0949 6.32622 33.9419 6.60028C33.789 6.87433 33.6774 7.18981 33.6073 7.54672C33.5436 7.89726 33.5117 8.27328 33.5117 8.6748ZM44.9073 5.80679V13.9424H41.915V3.59843H44.7256L44.9073 5.80679ZM44.5153 8.40712L43.7696 8.42624C43.7696 7.64869 43.8652 6.95081 44.0564 6.3326C44.2476 5.71438 44.5185 5.18858 44.869 4.75519C45.2259 4.31543 45.6498 3.98083 46.1405 3.75139C46.6376 3.52195 47.1858 3.40723 47.7848 3.40723C48.2692 3.40723 48.7122 3.47733 49.1137 3.61755C49.5152 3.75776 49.8594 3.98402 50.1462 4.29631C50.4393 4.60223 50.6624 5.01013 50.8154 5.51999C50.9683 6.02349 51.0448 6.64489 51.0448 7.3842V13.9424H48.043V7.37464C48.043 6.94125 47.9824 6.60665 47.8613 6.37084C47.7402 6.13502 47.5618 5.96932 47.326 5.87372C47.0965 5.77811 46.8161 5.73031 46.4847 5.73031C46.1341 5.73031 45.8346 5.80042 45.586 5.94064C45.3375 6.07448 45.1335 6.26249 44.9742 6.50468C44.8149 6.74686 44.697 7.03048 44.6205 7.35552C44.5504 7.68056 44.5153 8.0311 44.5153 8.40712ZM57.8707 14.1336C57.0485 14.1336 56.3124 14.0029 55.6623 13.7416C55.0122 13.4803 54.4609 13.1202 54.0084 12.6613C53.5623 12.1961 53.2213 11.6607 52.9855 11.0553C52.7497 10.4498 52.6318 9.80289 52.6318 9.11457V8.75129C52.6318 7.98011 52.7401 7.26948 52.9568 6.6194C53.1735 5.96932 53.489 5.40527 53.9033 4.92727C54.3239 4.4429 54.8402 4.07006 55.452 3.80875C56.0638 3.54107 56.7617 3.40723 57.5456 3.40723C58.2786 3.40723 58.9318 3.52832 59.5054 3.77051C60.0791 4.00632 60.5634 4.3473 60.9586 4.79343C61.3537 5.23319 61.6533 5.76537 61.8572 6.38996C62.0675 7.00817 62.1727 7.70287 62.1727 8.47404V9.69773H53.8364V7.77616H59.2473V7.54672C59.2473 7.18344 59.1804 6.86477 59.0466 6.59072C58.9191 6.31666 58.7279 6.10634 58.473 5.95976C58.2244 5.80679 57.9089 5.73031 57.5265 5.73031C57.1632 5.73031 56.8605 5.80679 56.6183 5.95976C56.3761 6.11272 56.1817 6.32941 56.0352 6.60984C55.8949 6.88389 55.793 7.20575 55.7292 7.5754C55.6655 7.93868 55.6336 8.33064 55.6336 8.75129V9.11457C55.6336 9.51609 55.6878 9.88256 55.7962 10.214C55.9045 10.5454 56.0638 10.829 56.2742 11.0648C56.4845 11.3006 56.7394 11.4855 57.039 11.6193C57.3385 11.7531 57.6795 11.8201 58.0619 11.8201C58.5335 11.8201 58.9828 11.7308 59.4098 11.5524C59.8369 11.3675 60.2065 11.0807 60.5188 10.692L61.9146 12.2885C61.7043 12.5944 61.4079 12.8908 61.0255 13.1776C60.6495 13.458 60.197 13.6874 59.668 13.8659C59.139 14.0444 58.5399 14.1336 57.8707 14.1336Z" fill="#1F54B5"/>
</svg>
