<svg width="85" height="16" viewBox="0 0 85 16" fill="none" xmlns="http://www.w3.org/2000/svg">
<path d="M9.61164 12.5909V15H2.20261V12.5909H9.61164ZM3.26377 1.08059V15H0.147204V1.08059H3.26377ZM8.65563 6.68277V9.01542H2.20261V6.68277H8.65563ZM9.6212 1.08059V3.49928H2.20261V1.08059H9.6212ZM16.839 7.8491V10.1817H11.2751V7.8491H16.839ZM26.6189 11.3289C26.6189 11.0931 26.5839 10.8828 26.5138 10.698C26.4437 10.5068 26.3162 10.3315 26.1314 10.1722C25.9465 10.0128 25.6852 9.85352 25.3475 9.69418C25.0097 9.52847 24.5667 9.35958 24.0186 9.1875C23.394 8.98355 22.7981 8.75411 22.2309 8.49918C21.67 8.23787 21.1697 7.93514 20.73 7.59097C20.2902 7.24681 19.9428 6.84529 19.6879 6.38641C19.4394 5.92753 19.3151 5.39217 19.3151 4.78032C19.3151 4.1876 19.4457 3.65224 19.707 3.17424C19.9683 2.69624 20.3348 2.28834 20.8064 1.95056C21.2781 1.60639 21.8325 1.34509 22.4699 1.16663C23.1072 0.981805 23.8083 0.889392 24.5731 0.889392C25.5928 0.889392 26.4883 1.07103 27.2595 1.43431C28.037 1.79122 28.6425 2.29472 29.0759 2.9448C29.5093 3.58851 29.7259 4.33738 29.7259 5.19141H26.6285C26.6285 4.81538 26.5488 4.48396 26.3895 4.19716C26.2365 3.90399 26.0007 3.67455 25.6821 3.50884C25.3698 3.34313 24.9778 3.26028 24.5062 3.26028C24.0473 3.26028 23.6617 3.33039 23.3494 3.4706C23.0435 3.60444 22.8109 3.78927 22.6515 4.02508C22.4986 4.2609 22.4221 4.51902 22.4221 4.79945C22.4221 5.02251 22.4794 5.22646 22.5942 5.41129C22.7153 5.58974 22.8873 5.75864 23.1104 5.91797C23.3398 6.07093 23.6203 6.21752 23.9517 6.35773C24.2831 6.49794 24.6623 6.63178 25.0893 6.75925C25.835 6.99507 26.4947 7.25637 27.0683 7.54317C27.6482 7.82998 28.1358 8.15502 28.5309 8.5183C28.9261 8.88158 29.2225 9.29266 29.42 9.75154C29.624 10.2104 29.7259 10.7299 29.7259 11.3098C29.7259 11.928 29.6049 12.4762 29.3627 12.9542C29.1269 13.4322 28.7827 13.84 28.3302 14.1778C27.884 14.5093 27.3487 14.761 26.7241 14.9331C26.0995 15.1052 25.4016 15.1912 24.6304 15.1912C23.9294 15.1912 23.2379 15.102 22.5559 14.9235C21.874 14.7387 21.2558 14.4583 20.7013 14.0822C20.1532 13.7062 19.7134 13.2282 19.382 12.6482C19.0569 12.0619 18.8944 11.3672 18.8944 10.5641H22.011C22.011 10.9848 22.0715 11.3417 22.1926 11.6349C22.3137 11.9217 22.4858 12.1543 22.7089 12.3328C22.9383 12.5112 23.2156 12.6387 23.5406 12.7152C23.8656 12.7916 24.2289 12.8299 24.6304 12.8299C25.0957 12.8299 25.4717 12.7661 25.7585 12.6387C26.0517 12.5048 26.2684 12.3232 26.4086 12.0938C26.5488 11.8643 26.6189 11.6094 26.6189 11.3289ZM36.2841 15.1912C35.462 15.1912 34.7258 15.0605 34.0758 14.7992C33.4257 14.5379 32.8744 14.1778 32.4219 13.719C31.9757 13.2537 31.6348 12.7183 31.399 12.1129C31.1631 11.5074 31.0452 10.8605 31.0452 10.1722V9.8089C31.0452 9.03773 31.1536 8.3271 31.3703 7.67701C31.587 7.02693 31.9024 6.46289 32.3167 5.98489C32.7374 5.50051 33.2536 5.12767 33.8654 4.86637C34.4773 4.59868 35.1752 4.46484 35.9591 4.46484C36.692 4.46484 37.3453 4.58594 37.9189 4.82813C38.4925 5.06394 38.9769 5.40491 39.372 5.85105C39.7672 6.29081 40.0667 6.82299 40.2707 7.44757C40.481 8.06579 40.5861 8.76049 40.5861 9.53166V10.7553H32.2498V8.83378H37.6608V8.60434C37.6608 8.24106 37.5939 7.92239 37.46 7.64833C37.3325 7.37428 37.1413 7.16396 36.8864 7.01737C36.6378 6.86441 36.3224 6.78793 35.94 6.78793C35.5767 6.78793 35.274 6.86441 35.0318 7.01737C34.7896 7.17033 34.5952 7.38703 34.4486 7.66745C34.3084 7.94151 34.2064 8.26336 34.1427 8.63302C34.0789 8.9963 34.0471 9.38826 34.0471 9.8089V10.1722C34.0471 10.5737 34.1013 10.9402 34.2096 11.2716C34.3179 11.603 34.4773 11.8866 34.6876 12.1224C34.8979 12.3582 35.1529 12.5431 35.4524 12.6769C35.752 12.8108 36.0929 12.8777 36.4753 12.8777C36.947 12.8777 37.3963 12.7884 37.8233 12.61C38.2503 12.4252 38.62 12.1384 38.9323 11.7496L40.328 13.3461C40.1177 13.652 39.8213 13.9484 39.4389 14.2352C39.0629 14.5156 38.6104 14.7451 38.0814 14.9235C37.5524 15.102 36.9533 15.1912 36.2841 15.1912ZM45.0316 7.06517V15H42.0488V4.65604H44.8499L45.0316 7.06517ZM48.1194 4.57956L48.0716 7.36153C47.9442 7.34241 47.7785 7.32648 47.5745 7.31373C47.3706 7.29461 47.1953 7.28505 47.0487 7.28505C46.6663 7.28505 46.3349 7.33285 46.0545 7.42845C45.7804 7.51768 45.551 7.65152 45.3662 7.82998C45.1877 8.00843 45.0539 8.2315 44.9646 8.49918C44.8754 8.76049 44.8308 9.06322 44.8308 9.40738L44.2668 9.13014C44.2668 8.44819 44.3337 7.8236 44.4675 7.25637C44.6014 6.68914 44.7957 6.1984 45.0507 5.78413C45.3056 5.36349 45.6179 5.03845 45.9876 4.80901C46.3572 4.57956 46.7779 4.46484 47.2495 4.46484C47.4024 4.46484 47.5586 4.4744 47.7179 4.49352C47.8773 4.51264 48.0111 4.54132 48.1194 4.57956ZM53.1385 12.8872L55.299 4.65604H58.4347L55.0027 15H53.1193L53.1385 12.8872ZM51.7427 4.65604L53.8937 12.8968L53.9128 15H52.0295L48.5974 4.65604H51.7427ZM62.6794 4.65604V15H59.6871V4.65604H62.6794ZM59.5054 1.97924C59.5054 1.54585 59.6584 1.19213 59.9643 0.918072C60.2702 0.637644 60.6718 0.49743 61.1689 0.49743C61.666 0.49743 62.0675 0.637644 62.3735 0.918072C62.6858 1.19213 62.8419 1.54585 62.8419 1.97924C62.8419 2.40625 62.6858 2.75997 62.3735 3.0404C62.0675 3.31445 61.666 3.45148 61.1689 3.45148C60.6718 3.45148 60.2702 3.31445 59.9643 3.0404C59.6584 2.75997 59.5054 2.40625 59.5054 1.97924ZM69.1515 12.8681C69.4702 12.8681 69.7474 12.8076 69.9832 12.6865C70.2191 12.5654 70.4007 12.3965 70.5282 12.1798C70.662 11.9567 70.7289 11.689 70.7289 11.3767H73.5396C73.5396 12.1288 73.3452 12.7916 72.9564 13.3652C72.574 13.9388 72.0578 14.3882 71.4077 14.7132C70.7576 15.0319 70.0247 15.1912 69.2089 15.1912C68.4058 15.1912 67.7048 15.0605 67.1057 14.7992C66.5066 14.5316 66.0063 14.1587 65.6047 13.6807C65.2032 13.2027 64.9005 12.6482 64.6965 12.0173C64.499 11.3799 64.4002 10.6916 64.4002 9.9523V9.70374C64.4002 8.97081 64.499 8.28567 64.6965 7.64833C64.9005 7.011 65.2032 6.45333 65.6047 5.97533C66.0063 5.49733 66.5034 5.12767 67.0961 4.86637C67.6952 4.59868 68.3963 4.46484 69.1993 4.46484C70.047 4.46484 70.7958 4.62736 71.4459 4.95241C72.1024 5.27745 72.6154 5.74589 72.9851 6.35773C73.3547 6.9632 73.5396 7.69295 73.5396 8.54698H70.7289C70.7289 8.21556 70.6684 7.9192 70.5473 7.65789C70.4326 7.39021 70.2541 7.17989 70.0119 7.02693C69.7761 6.8676 69.4829 6.78793 69.1324 6.78793C68.7691 6.78793 68.4696 6.8676 68.2338 7.02693C68.0043 7.17989 67.8291 7.3934 67.708 7.66745C67.5869 7.94151 67.504 8.2538 67.4594 8.60434C67.4148 8.9485 67.3925 9.31497 67.3925 9.70374V9.9523C67.3925 10.3475 67.4148 10.7235 67.4594 11.0804C67.504 11.4309 67.5869 11.74 67.708 12.0077C67.8354 12.2754 68.0139 12.4857 68.2433 12.6387C68.4728 12.7916 68.7755 12.8681 69.1515 12.8681ZM79.897 15.1912C79.0748 15.1912 78.3387 15.0605 77.6886 14.7992C77.0385 14.5379 76.4873 14.1778 76.0347 13.719C75.5886 13.2537 75.2476 12.7183 75.0118 12.1129C74.776 11.5074 74.6581 10.8605 74.6581 10.1722V9.8089C74.6581 9.03773 74.7664 8.3271 74.9831 7.67701C75.1998 7.02693 75.5153 6.46289 75.9296 5.98489C76.3502 5.50051 76.8665 5.12767 77.4783 4.86637C78.0902 4.59868 78.788 4.46484 79.572 4.46484C80.3049 4.46484 80.9582 4.58594 81.5318 4.82813C82.1054 5.06394 82.5897 5.40491 82.9849 5.85105C83.38 6.29081 83.6796 6.82299 83.8835 7.44757C84.0939 8.06579 84.199 8.76049 84.199 9.53166V10.7553H75.8627V8.83378H81.2736V8.60434C81.2736 8.24106 81.2067 7.92239 81.0729 7.64833C80.9454 7.37428 80.7542 7.16396 80.4993 7.01737C80.2507 6.86441 79.9352 6.78793 79.5528 6.78793C79.1896 6.78793 78.8868 6.86441 78.6446 7.01737C78.4024 7.17033 78.2081 7.38703 78.0615 7.66745C77.9213 7.94151 77.8193 8.26336 77.7556 8.63302C77.6918 8.9963 77.66 9.38826 77.66 9.8089V10.1722C77.66 10.5737 77.7141 10.9402 77.8225 11.2716C77.9308 11.603 78.0902 11.8866 78.3005 12.1224C78.5108 12.3582 78.7657 12.5431 79.0653 12.6769C79.3648 12.8108 79.7058 12.8777 80.0882 12.8777C80.5598 12.8777 81.0091 12.7884 81.4362 12.61C81.8632 12.4252 82.2328 12.1384 82.5451 11.7496L83.9409 13.3461C83.7306 13.652 83.4342 13.9484 83.0518 14.2352C82.6758 14.5156 82.2233 14.7451 81.6943 14.9235C81.1653 15.102 80.5662 15.1912 79.897 15.1912Z" fill="#0A50B8"/>
</svg>
