<svg width="125" height="106" viewBox="0 0 125 106" fill="none" xmlns="http://www.w3.org/2000/svg">
<path d="M2 22.4448V30.3882H123V22.4448C123 20.0947 120.88 18.1943 118.26 18.1943H6.73976C4.11992 18.1943 2 20.0947 2 22.4448Z" stroke="white" stroke-width="2.54" stroke-miterlimit="10" stroke-linecap="round" stroke-linejoin="round"/>
<path d="M107.585 24.592C108.263 24.592 108.813 24.0333 108.813 23.3441C108.813 22.6549 108.263 22.0962 107.585 22.0962C106.907 22.0962 106.357 22.6549 106.357 23.3441C106.357 24.0333 106.907 24.592 107.585 24.592Z" fill="white"/>
<path d="M112.376 24.592C113.054 24.592 113.604 24.0333 113.604 23.3441C113.604 22.6549 113.054 22.0962 112.376 22.0962C111.698 22.0962 111.148 22.6549 111.148 23.3441C111.148 24.0333 111.698 24.592 112.376 24.592Z" fill="white"/>
<path d="M117.489 24.592C118.167 24.592 118.717 24.0333 118.717 23.3441C118.717 22.6549 118.167 22.0962 117.489 22.0962C116.811 22.0962 116.262 22.6549 116.262 23.3441C116.262 24.0333 116.811 24.592 117.489 24.592Z" fill="white"/>
<path d="M97.7065 100.125H6.73976C4.11992 100.125 2 98.2244 2 95.8743V22.4448C2 20.0947 4.11992 18.1943 6.73976 18.1943H118.26C120.88 18.1943 123 20.0947 123 22.4448V95.8743C123 98.2244 120.88 100.125 118.26 100.125H105.427H97.7065Z" stroke="white" stroke-width="2.54" stroke-miterlimit="10" stroke-linecap="round" stroke-linejoin="round"/>
<path d="M99.8075 30.7448C105.462 25.0849 105.462 15.9083 99.8075 10.2483C94.1533 4.58841 84.9859 4.58841 79.3317 10.2484C73.6774 15.9083 73.6774 25.0849 79.3317 30.7448C84.9859 36.4048 94.1533 36.4048 99.8075 30.7448Z" fill="#9ADB4D"/>
<path d="M13.8623 70.5679L14.4255 76.3133C14.5963 78.0616 15.9822 79.4488 17.7287 79.6199L21.108 80.1836L17.7287 80.7474C15.9822 80.9184 14.5963 82.3057 14.4255 84.054L13.8623 89.7994L13.2991 84.054C13.1282 82.3057 11.7423 80.9184 9.99578 80.7474L6.41406 80.1836L9.99578 79.6199C11.7423 79.4488 13.1282 78.0616 13.2991 76.3133L13.8623 70.5679Z" fill="white"/>
<path d="M100.348 43.4814L100.842 48.5237C100.993 50.063 102.208 51.2792 103.746 51.4312L106.714 51.9253L103.746 52.4194C102.208 52.5714 100.993 53.7877 100.842 55.327L100.348 60.3692L99.8544 55.327C99.7025 53.7877 98.4875 52.5714 96.9498 52.4194L93.8047 51.9253L96.9498 51.4312C98.4875 51.2792 99.7025 50.063 99.8544 48.5237L100.348 43.4814Z" fill="white"/>
<path d="M56.5383 42.9939C56.5953 41.5243 56.6712 40.0357 56.4118 38.5914C55.9625 36.0639 54.545 33.8279 53.4249 31.5158C50.9316 26.3341 49.9065 20.4494 50.514 14.7293C50.6532 13.3991 50.8937 12.0435 51.5834 10.9033C53.2034 8.21748 56.3422 7.84375 57.7913 10.7576C59.2974 13.7792 60.6453 16.9464 62.2716 19.93C66.1444 27.0309 72.0802 32.523 76.8326 38.9715C81.7559 45.648 85.9008 52.8947 89.1661 60.5151L114.998 72.3606L100.519 105.541L78.0413 95.0381C70.6944 97.3122 61.0503 93.1188 51.4822 89.1407C49.6407 90.8573 46.3184 90.984 41.4584 89.4384L29.8653 83.8261C27.9099 82.8759 26.2709 81.3619 25.2458 79.4426C22.9487 75.1351 24.9863 71.4864 28.1314 71.0494C22.5374 65.4497 23.0626 58.7858 28.4099 57.1325C22.9044 50.9563 24.6889 42.6201 31.9409 43.7604C32.0991 38.091 35.8644 33.6885 45.0275 36.6847L56.5383 42.9939Z" fill="#FFB649"/>
<path d="M51.4951 89.1409C52.1469 87.6966 51.995 85.7646 50.5205 83.0407C56.4247 83.4018 56.3424 75.414 48.5272 71.968C56.9879 74.1851 58.8041 67.4642 53.0328 62.3903C57.9308 63.7079 60.0444 60.832 60.1393 57.4747C60.2089 55.0803 59.1774 52.7808 57.4182 51.1592L46.4199 41.0684" stroke="white" stroke-width="0.54" stroke-miterlimit="10" stroke-linecap="round" stroke-linejoin="round"/>
<path d="M50.5208 83.041C42.5094 80.9379 34.9536 77.2956 28.1445 71.0435" stroke="white" stroke-width="0.54" stroke-miterlimit="10" stroke-linecap="round" stroke-linejoin="round"/>
<path d="M28.4297 57.1328C33.7516 62.5298 40.5607 67.439 48.5278 71.9745" stroke="white" stroke-width="0.54" stroke-miterlimit="10" stroke-linecap="round" stroke-linejoin="round"/>
<path d="M53.034 62.3963C44.6556 57.5188 37.6314 51.3046 31.9551 43.7603" stroke="white" stroke-width="0.54" stroke-miterlimit="10" stroke-linecap="round" stroke-linejoin="round"/>
<path d="M56.5391 42.9937V50.3607" stroke="white" stroke-width="0.54" stroke-miterlimit="10" stroke-linecap="round" stroke-linejoin="round"/>
<path d="M57.1797 62.542C58.9895 69.8077 64.5266 77.0417 72.2406 80.1836" stroke="white" stroke-width="0.54" stroke-miterlimit="10" stroke-linecap="round" stroke-linejoin="round"/>
<path d="M99.8075 30.7448C105.462 25.0849 105.462 15.9083 99.8075 10.2483C94.1533 4.58841 84.9859 4.58841 79.3317 10.2484C73.6774 15.9083 73.6774 25.0849 79.3317 30.7448C84.9859 36.4048 94.1533 36.4048 99.8075 30.7448Z" stroke="white" stroke-width="1.54" stroke-miterlimit="10" stroke-linecap="round" stroke-linejoin="round"/>
<path d="M84.2383 17.8266C84.2383 18.4094 88.8388 26.8279 88.8388 26.8279L95.5909 11.6885" stroke="white" stroke-width="2.54" stroke-miterlimit="10" stroke-linecap="round" stroke-linejoin="round"/>
<path d="M10.4395 36.6279L21.1087 41.2014" stroke="white" stroke-width="1.54" stroke-miterlimit="10" stroke-linecap="round" stroke-linejoin="round"/>
<path d="M18.4434 23.6611L25.6827 33.1946" stroke="white" stroke-width="1.54" stroke-miterlimit="10" stroke-linecap="round" stroke-linejoin="round"/>
<path d="M30.6953 15.6479L35.5869 26.3659" stroke="white" stroke-width="1.54" stroke-miterlimit="10" stroke-linecap="round" stroke-linejoin="round"/>
<path d="M7.36914 52.2612L18.4434 54.3263" stroke="white" stroke-width="1.54" stroke-miterlimit="10" stroke-linecap="round" stroke-linejoin="round"/>
</svg>
