<svg width="187" height="31" viewBox="0 0 187 31" fill="none" xmlns="http://www.w3.org/2000/svg">
<path d="M5.53953 30.4951L0 0.476562H5.56669C6.62572 7.55707 8.02418 17.3857 8.44507 22.994H8.48581C9.35475 17.1894 11.4185 7.01026 12.5861 0.476562H17.216C18.3022 6.37932 20.4067 16.9931 21.1534 22.7136H21.2349C21.873 16.4182 23.6109 6.19705 24.3577 0.476562H29.5306L23.6109 30.4811H18.4651C17.3518 24.2278 15.4645 15.0862 14.6906 9.30967H14.6092C13.7809 15.1984 11.7987 24.7185 10.6717 30.4811H5.53953V30.4951Z" fill="white"/>
<path d="M46.7605 17.1473H37.4329V25.8682H47.901L47.2629 30.4951H32.2871V0.476562H47.195V5.17353H37.4329V12.4784H46.7605V17.1473Z" fill="white"/>
<path d="M51.0645 0.476562H56.2781V25.8963H66.2167L65.7143 30.4811H51.0645V0.476562Z" fill="white"/>
<path d="M68.8105 0.476562H74.0242V25.8963H83.9628L83.4604 30.4811H68.8105V0.476562Z" fill="white"/>
<path d="M94.5254 0.476562H102.102C109.583 0.476562 112.475 5.42591 112.475 14.8619C112.475 24.999 109.691 30.4811 101.694 30.4811H94.5254V0.476562ZM99.7798 26.0926H101.64C105.713 26.0926 107.112 22.9379 107.112 14.8759C107.112 7.97769 105.862 4.93518 101.694 4.93518H99.7934V26.0926H99.7798Z" fill="white"/>
<path d="M134.659 15.2546C134.659 26.2329 131.767 31 125.074 31C118.815 31 115.76 26.289 115.76 15.1845C115.76 4.36047 119.317 0 125.305 0C131.645 0 134.659 4.83718 134.659 15.2546ZM121.096 15.1425C121.096 22.265 122.141 26.4993 125.196 26.4993C128.4 26.4993 129.323 22.5735 129.323 15.1565C129.323 8.18815 128.346 4.55676 125.196 4.55676C122.073 4.54274 121.096 8.45455 121.096 15.1425Z" fill="white"/>
<path d="M138.732 30.4951V0.476562H144.639C150.653 17.0632 151.807 20.2319 152.147 21.69H152.188C151.943 18.0867 151.93 13.6701 151.93 8.74884V0.476562H156.587V30.4811H150.925C144.72 12.8008 143.62 9.60411 143.24 8.23007H143.199C143.417 11.9316 143.417 16.3481 143.417 21.7181V30.4671H138.732V30.4951Z" fill="white"/>
<path d="M176.085 17.1473H166.757V25.8682H177.225L176.587 30.4951H161.625V0.476562H176.533V5.17353H166.771V12.4784H176.098V17.1473H176.085Z" fill="white"/>
<path d="M182.018 19.7832L181.502 5.58014V0.476562H187.001V5.58014L186.458 19.7832H182.018ZM181.651 30.4951V24.2278H186.729V30.4951H181.651Z" fill="white"/>
</svg>
